<svg preserveAspectRatio="xMidYMid meet" overflow="visible" style="display: block;" viewBox="0 0 24 24" fill="none" xmlns="http://www.w3.org/2000/svg">
<g transform="translate(3.2450, 3.2445)">
<path id="Vector" fill-rule="evenodd" clip-rule="evenodd" d="M1.31748 0.259394C1.59457 0.567276 1.56961 1.04149 1.26173 1.31859C0.953848 1.59568 0.479631 1.57072 0.202536 1.26284L0.192536 1.25173C-0.0845583 0.943848 -0.0595997 0.469631 0.248283 0.192536C0.556165 -0.0845583 1.03038 -0.0595998 1.30748 0.248283L1.31748 0.259394ZM1.31748 4.25939C1.59457 4.56728 1.56961 5.04149 1.26173 5.31859C0.953848 5.59568 0.479631 5.57072 0.202536 5.26284L0.192536 5.25173C-0.0845583 4.94385 -0.0595997 4.46963 0.248283 4.19254C0.556165 3.91544 1.03038 3.9404 1.30748 4.24828L1.31748 4.25939ZM5.26173 1.31859C5.56961 1.04149 5.59457 0.567276 5.31748 0.259394L5.30748 0.248283C5.03038 -0.0595998 4.55616 -0.0845583 4.24828 0.192536C3.9404 0.469631 3.91544 0.943848 4.19254 1.25173L4.20254 1.26284C4.47963 1.57072 4.95385 1.59568 5.26173 1.31859ZM9.31748 0.259394C9.59457 0.567276 9.56961 1.04149 9.26173 1.31859C8.95385 1.59568 8.47963 1.57072 8.20254 1.26284L8.19254 1.25173C7.91544 0.943848 7.9404 0.469631 8.24828 0.192536C8.55616 -0.0845583 9.03038 -0.0595998 9.30748 0.248283L9.31748 0.259394ZM13.2617 1.31859C13.5696 1.04149 13.5946 0.567276 13.3175 0.259394L13.3075 0.248283C13.0304 -0.0595998 12.5562 -0.0845583 12.2483 0.192536C11.9404 0.469631 11.9154 0.943848 12.1925 1.25173L12.2025 1.26284C12.4796 1.57072 12.9538 1.59568 13.2617 1.31859ZM17.3175 0.259394C17.5946 0.567276 17.5696 1.04149 17.2617 1.31859C16.9538 1.59568 16.4796 1.57072 16.2025 1.26284L16.1925 1.25173C15.9154 0.943848 15.9404 0.469631 16.2483 0.192536C16.5562 -0.0845583 17.0304 -0.0595998 17.3075 0.248283L17.3175 0.259394ZM17.2617 5.31859C17.5696 5.04149 17.5946 4.56728 17.3175 4.25939L17.3075 4.24828C17.0304 3.9404 16.5562 3.91544 16.2483 4.19254C15.9404 4.46963 15.9154 4.94385 16.1925 5.25173L16.2025 5.26284C16.4796 5.57072 16.9538 5.59568 17.2617 5.31859ZM17.3175 8.25939C17.5946 8.56728 17.5696 9.04149 17.2617 9.31859C16.9538 9.59568 16.4796 9.57072 16.2025 9.26284L16.1925 9.25173C15.9154 8.94385 15.9404 8.46963 16.2483 8.19254C16.5562 7.91544 17.0304 7.9404 17.3075 8.24828L17.3175 8.25939ZM17.2617 13.3186C17.5696 13.0415 17.5946 12.5673 17.3175 12.2594L17.3075 12.2483C17.0304 11.9404 16.5562 11.9154 16.2483 12.1925C15.9404 12.4696 15.9154 12.9438 16.1925 13.2517L16.2025 13.2628C16.4796 13.5707 16.9538 13.5957 17.2617 13.3186ZM17.3175 16.2594C17.5946 16.5673 17.5696 17.0415 17.2617 17.3186C16.9538 17.5957 16.4796 17.5707 16.2025 17.2628L16.1925 17.2517C15.9154 16.9438 15.9404 16.4696 16.2483 16.1925C16.5562 15.9154 17.0304 15.9404 17.3075 16.2483L17.3175 16.2594ZM13.2617 17.3186C13.5696 17.0415 13.5946 16.5673 13.3175 16.2594L13.3075 16.2483C13.0304 15.9404 12.5562 15.9154 12.2483 16.1925C11.9404 16.4696 11.9154 16.9438 12.1925 17.2517L12.2025 17.2628C12.4796 17.5707 12.9538 17.5957 13.2617 17.3186ZM0.75 17.5101C0.335786 17.5101 0 17.1744 0 16.7601V8.76015C0 8.34593 0.335786 8.01015 0.75 8.01015H8.75C9.16421 8.01015 9.5 8.34593 9.5 8.76015V16.7601C9.5 17.1744 9.16421 17.5101 8.75 17.5101H0.75ZM1.5 9.51015V16.0101H8V9.51015H1.5Z" fill="#292927"/>
</g>
</svg>
