<svg preserveAspectRatio="xMidYMid meet" overflow="visible" style="display: block;" viewBox="0 0 24 24" fill="none" xmlns="http://www.w3.org/2000/svg">
<g transform="translate(1.2500, 1.2500)">
<path id="Vector" fill-rule="evenodd" clip-rule="evenodd" d="M20 10.75C20 5.64137 15.8586 1.5 10.75 1.5C5.64137 1.5 1.5 5.64137 1.5 10.75C1.5 11.5268 1.59559 12.2804 1.77538 13H5.75C6.16421 13 6.5 13.3358 6.5 13.75C6.5 14.1642 6.16421 14.5 5.75 14.5H2.29147C3.73037 17.7408 6.97716 20 10.75 20C15.8586 20 20 15.8586 20 10.75ZM10.75 0C16.6871 0 21.5 4.81294 21.5 10.75C21.5 16.6871 16.6871 21.5 10.75 21.5C5.9354 21.5 1.86189 18.3354 0.492266 13.9747C0.172239 12.9558 0 11.8723 0 10.75C0 4.81294 4.81294 0 10.75 0ZM8.5 7.25C8.5 6.55964 7.94036 6 7.25 6C6.55964 6 6 6.55964 6 7.25C6 7.94036 6.55964 8.5 7.25 8.5C7.94036 8.5 8.5 7.94036 8.5 7.25Z" fill="#292927"/>
</g>
</svg>
