<svg preserveAspectRatio="xMidYMid meet" overflow="visible" style="display: block;" viewBox="0 0 24 24" fill="none" xmlns="http://www.w3.org/2000/svg">
<g transform="translate(3.2500, 2.2500)">
<path id="Vector" fill-rule="evenodd" clip-rule="evenodd" d="M1.5 2.75C1.5 2.05964 2.05964 1.5 2.75 1.5H16V14H2.75C2.29989 14 1.87503 14.1081 1.5 14.2999V2.75ZM0 16.75V2.75C0 1.23122 1.23122 0 2.75 0H16.15C16.8956 0 17.5 0.604415 17.5 1.35V14.4643C17.5 14.5131 17.4953 14.5609 17.4864 14.6071C17.4953 14.6534 17.5 14.7011 17.5 14.75C17.5 15.1642 17.1642 15.5 16.75 15.5H2.75C2.05964 15.5 1.5 16.0596 1.5 16.75C1.5 17.4404 2.05964 18 2.75 18H16.75C17.1642 18 17.5 18.3358 17.5 18.75C17.5 19.1642 17.1642 19.5 16.75 19.5H2.75C1.23122 19.5 0 18.2688 0 16.75ZM10.2506 7.30849C10.559 7.03201 10.5849 6.55785 10.3085 6.24941C10.032 5.94097 9.55784 5.91505 9.2494 6.19153C8.44453 6.91297 7.81116 7.78738 7.32935 8.60895C7.03913 8.26141 6.84656 7.82642 6.79885 7.34288C6.67266 6.06398 7.60758 4.92977 8.88705 4.80954L11.4728 4.56658L11.688 6.74779C11.8215 8.10094 10.8323 9.30101 9.47854 9.42821L9.34403 9.44085C9.09106 9.46462 8.84356 9.44697 8.60828 9.39347C9.03564 8.66043 9.58116 7.90854 10.2506 7.30849ZM5.30543 7.48321C5.40573 8.4997 5.89527 9.38574 6.61192 10.0077C6.44284 10.386 6.31256 10.7192 6.21874 10.9768C6.1567 11.147 6.11035 11.285 6.07905 11.3819C6.06339 11.4304 6.05148 11.4687 6.04324 11.4957L6.03361 11.5277L6.03084 11.5371L6.02996 11.5401L6.02942 11.542C6.02937 11.5422 6.02942 11.542 6.74947 11.7499L6.02942 11.542C5.91454 11.94 6.14402 12.3557 6.54198 12.4706C6.93985 12.5854 7.35557 12.3558 7.47057 11.958L7.47167 11.9543L7.47799 11.9333C7.48396 11.9138 7.49344 11.8832 7.50649 11.8428C7.53261 11.7619 7.57298 11.6416 7.62813 11.4902C7.70056 11.2914 7.79805 11.0402 7.92172 10.7552C8.41252 10.9186 8.94414 10.985 9.49132 10.9336L9.62583 10.921C11.8044 10.7163 13.3963 8.78504 13.1814 6.60746L12.9267 4.02653C12.8672 3.42287 12.3293 2.97951 11.7254 3.03626L8.73976 3.31679C6.63549 3.51452 5.09789 5.37989 5.30543 7.48321Z" fill="#292927"/>
</g>
</svg>
