<svg preserveAspectRatio="xMidYMid meet" overflow="visible" style="display: block;" viewBox="0 0 24 24" fill="none" xmlns="http://www.w3.org/2000/svg">
<g transform="translate(7.0961, 2.2500)">
<path id="Vector" fill-rule="evenodd" clip-rule="evenodd" d="M4.90387 0C5.31809 0 5.65387 0.335786 5.65387 0.75V2.56396C7.13319 2.76204 8.63981 3.42527 9.58803 4.3735C9.88092 4.66639 9.88092 5.14126 9.58803 5.43416C9.29513 5.72705 8.82026 5.72705 8.52737 5.43415C7.73569 4.64247 6.25889 4.04111 4.8837 4.0041C4.07411 3.98231 3.39721 4.15895 2.94103 4.50448C2.51618 4.82627 2.19235 5.36148 2.19235 6.28845C2.19235 6.6873 2.282 6.97358 2.41357 7.194C2.54773 7.41876 2.75048 7.61652 3.0349 7.79751C3.63368 8.17855 4.46365 8.41196 5.44736 8.68024C5.46783 8.68582 5.48838 8.69142 5.509 8.69704C6.41515 8.94402 7.4598 9.22875 8.27046 9.74462C8.69997 10.0179 9.09217 10.3719 9.37448 10.8448C9.65938 11.3221 9.8077 11.8796 9.8077 12.5192C9.8077 13.95 9.1803 15.0254 8.20864 15.7059C7.47375 16.2206 6.57358 16.4897 5.65387 16.5629V18.7499C5.65387 19.1641 5.31809 19.4999 4.90387 19.4999C4.48966 19.4999 4.15387 19.1641 4.15387 18.7499V16.5159C2.6168 16.3019 1.07092 15.5816 0.150044 14.3538C-0.098484 14.0224 -0.0313267 13.5523 0.300044 13.3038C0.631415 13.0553 1.10152 13.1224 1.35004 13.4538C2.06885 14.4122 3.48391 15.0283 4.9308 15.0803C5.88027 15.1144 6.74447 14.9 7.34818 14.4772C7.92168 14.0756 8.3077 13.4574 8.3077 12.5192C8.3077 12.1203 8.21804 11.834 8.08648 11.6136C7.95232 11.3889 7.74957 11.1911 7.46514 11.0101C6.86637 10.6291 6.0364 10.3957 5.05269 10.1274C5.03221 10.1218 5.01166 10.1162 4.99104 10.1106C4.08489 9.8636 3.04024 9.57888 2.22959 9.06301C1.80008 8.78968 1.40788 8.43576 1.12557 7.96281C0.840673 7.48551 0.692349 6.92805 0.692349 6.28845C0.692349 4.95847 1.18604 3.95206 2.03534 3.30876C2.64751 2.84508 3.39182 2.60971 4.15387 2.53211V0.75C4.15387 0.335786 4.48966 0 4.90387 0Z" fill="#292927"/>
</g>
</svg>
