<svg preserveAspectRatio="xMidYMid meet" overflow="visible" style="display: block;" viewBox="0 0 24 24" fill="none" xmlns="http://www.w3.org/2000/svg">
<g transform="translate(2.2500, 6.2500)">
<path id="Vector" fill-rule="evenodd" clip-rule="evenodd" d="M8.5 0.75C8.5 0.335787 8.16421 0 7.75 0C7.33579 0 7 0.335787 7 0.75V5H1.5V0.75C1.5 0.335787 1.16421 0 0.75 0C0.335786 0 0 0.335787 0 0.75V10.75C0 11.1642 0.335786 11.5 0.75 11.5C1.16421 11.5 1.5 11.1642 1.5 10.75V6.5H7V10.75C7 11.1642 7.33579 11.5 7.75 11.5C8.16421 11.5 8.5 11.1642 8.5 10.75V0.75ZM11.5 9.99845V1.50158C13.2452 1.51136 14.7943 1.58097 15.9615 2.06732C16.5968 2.33201 17.086 2.70968 17.4257 3.25562C17.7697 3.80841 18 4.59778 18 5.75001C18 6.90225 17.7697 7.69162 17.4257 8.24441C17.086 8.79035 16.5968 9.16802 15.9615 9.43271C14.7943 9.91906 13.2452 9.98867 11.5 9.99845ZM19.5 5.75001C19.5 4.40225 19.2303 3.31662 18.6993 2.46316C18.164 1.60284 17.4032 1.04302 16.5385 0.682707C14.8989 -0.000429238 12.7736 -0.000200026 10.8501 7.33874e-06L10.75 1.45509e-05C10.3358 1.45509e-05 10 0.335801 10 0.750015V10.75C10 11.1642 10.3358 11.5 10.75 11.5L10.8501 11.5C12.7736 11.5002 14.8989 11.5005 16.5385 10.8173C17.4032 10.457 18.164 9.89718 18.6993 9.03687C19.2303 8.18341 19.5 7.09778 19.5 5.75001Z" fill="#292927"/>
</g>
</svg>
