<svg preserveAspectRatio="xMidYMid meet" overflow="visible" style="display: block;" viewBox="0 0 24 24" fill="none" xmlns="http://www.w3.org/2000/svg">
<g transform="translate(2.2500, 1.2500)">
<path id="Vector" fill-rule="evenodd" clip-rule="evenodd" d="M5.71967 3.71967L9.21967 0.21967C9.29158 0.147763 9.37445 0.0935089 9.46291 0.0569091C9.55134 0.0202391 9.64831 0 9.75 0C9.85169 0 9.94866 0.0202391 10.0371 0.0569091C10.1255 0.0935089 10.2084 0.147763 10.2803 0.21967L13.7803 3.71967C14.0732 4.01256 14.0732 4.48744 13.7803 4.78033C13.4874 5.07322 13.0126 5.07322 12.7197 4.78033L10.5 2.56066V8H18.75C19.1642 8 19.5 8.33579 19.5 8.75C19.5 9.16421 19.1642 9.5 18.75 9.5H9.75H0.75C0.335786 9.5 0 9.16421 0 8.75C0 8.33579 0.335786 8 0.75 8H9V2.56066L6.78033 4.78033C6.48744 5.07322 6.01256 5.07322 5.71967 4.78033C5.42678 4.48744 5.42678 4.01256 5.71967 3.71967ZM5.71967 17.7803L9.21967 21.2803C9.29158 21.3522 9.37445 21.4065 9.46291 21.4431C9.55134 21.4798 9.64831 21.5 9.75 21.5C9.85169 21.5 9.94866 21.4798 10.0371 21.4431C10.1255 21.4065 10.2084 21.3522 10.2803 21.2803L13.7803 17.7803C14.0732 17.4874 14.0732 17.0126 13.7803 16.7197C13.4874 16.4268 13.0126 16.4268 12.7197 16.7197L10.5 18.9393V13.5H18.75C19.1642 13.5 19.5 13.1642 19.5 12.75C19.5 12.3358 19.1642 12 18.75 12H9.75H0.75C0.335786 12 0 12.3358 0 12.75C0 13.1642 0.335786 13.5 0.75 13.5H9V18.9393L6.78033 16.7197C6.48744 16.4268 6.01256 16.4268 5.71967 16.7197C5.42678 17.0126 5.42678 17.4874 5.71967 17.7803Z" fill="#292927"/>
</g>
</svg>
