<svg preserveAspectRatio="xMidYMid meet" overflow="visible" style="display: block;" viewBox="0 0 24 24" fill="none" xmlns="http://www.w3.org/2000/svg">
<g transform="translate(2.2500, 4.2500)">
<path id="Vector" fill-rule="evenodd" clip-rule="evenodd" d="M5.00002 0.75C5.00002 0.335786 4.66424 0 4.25002 0C3.83581 0 3.50002 0.335786 3.50002 0.75V1.98148C2.88798 2.05284 2.28835 2.23844 1.78482 2.5905C1.03206 3.11681 0.583357 3.95435 0.583357 5.0577C0.583357 5.59351 0.718819 6.06547 0.979276 6.46826C1.2352 6.86403 1.5854 7.15249 1.95609 7.37025C2.65131 7.77863 3.54164 8.00258 4.29998 8.19333L4.35859 8.20808C5.19203 8.4179 5.87764 8.59689 6.36755 8.88467C6.59842 9.02028 6.74952 9.1609 6.84451 9.3078C6.93497 9.44768 7.00002 9.63197 7.00002 9.90385C7.00002 10.5522 6.71817 10.9817 6.26493 11.2747C5.77884 11.589 5.06817 11.7555 4.27489 11.7292C3.0608 11.6889 1.90312 11.2106 1.33211 10.5078C1.07091 10.1864 0.598557 10.1375 0.27708 10.3987C-0.0443973 10.6599 -0.0932614 11.1322 0.167939 11.4537C0.95073 12.4172 2.23041 12.9786 3.50002 13.1634V14.75C3.50002 15.1642 3.83581 15.5 4.25002 15.5C4.66424 15.5 5.00002 15.1642 5.00002 14.75V13.2061C5.7443 13.137 6.47341 12.9261 7.07927 12.5344C7.92798 11.9858 8.50002 11.0982 8.50002 9.90385C8.50002 9.36804 8.36456 8.89608 8.1041 8.49329C7.84818 8.09752 7.49799 7.80905 7.12729 7.5913C6.43207 7.18292 5.54173 6.95897 4.78339 6.76821L4.72479 6.75347C3.89135 6.54365 3.20574 6.36466 2.71583 6.07688C2.48497 5.94127 2.33386 5.80065 2.23887 5.65375C2.14842 5.51387 2.08336 5.32958 2.08336 5.0577C2.08336 4.40564 2.3235 4.04414 2.64433 3.81982C3.00371 3.56855 3.55451 3.43081 4.2314 3.44762C5.38108 3.47618 6.60167 3.94143 7.24131 4.53187C7.54568 4.81282 8.02017 4.79384 8.30113 4.48948C8.58208 4.18511 8.5631 3.71062 8.25874 3.42967C7.46057 2.6929 6.22189 2.1807 5.00002 2.00924V0.75ZM15.1311 4.2694C15.4179 3.97059 15.4082 3.49582 15.1094 3.20896C14.8106 2.9221 14.3358 2.93179 14.049 3.2306L10.209 7.2306C9.93037 7.52082 9.93037 7.97918 10.209 8.2694L14.049 12.2694C14.3358 12.5682 14.8106 12.5779 15.1094 12.291C15.4082 12.0042 15.4179 11.5294 15.1311 11.2306L12.5097 8.5H18.75C19.1642 8.5 19.5 8.16422 19.5 7.75C19.5 7.33579 19.1642 7 18.75 7H12.5097L15.1311 4.2694Z" fill="#292927"/>
</g>
</svg>
