<svg preserveAspectRatio="xMidYMid meet" overflow="visible" style="display: block;" viewBox="0 0 24 24" fill="none" xmlns="http://www.w3.org/2000/svg">
<g transform="translate(1.2500, 4.2500)">
<path id="Vector" fill-rule="evenodd" clip-rule="evenodd" d="M1.5 2.75C1.5 2.05964 2.05964 1.5 2.75 1.5H18.75C19.4404 1.5 20 2.05964 20 2.75V12.75C20 13.4404 19.4404 14 18.75 14H2.75C2.05964 14 1.5 13.4404 1.5 12.75V2.75ZM2.75 0C1.23122 0 0 1.23122 0 2.75V12.75C0 14.2688 1.23122 15.5 2.75 15.5H18.75C20.2688 15.5 21.5 14.2688 21.5 12.75V2.75C21.5 1.23122 20.2688 0 18.75 0H2.75ZM6.1801 4.13557C5.84076 3.89804 5.37312 3.98056 5.13558 4.3199C4.89804 4.65924 4.98057 5.12689 5.31991 5.36442L10.3199 8.86442C10.5781 9.04519 10.9219 9.04519 11.1801 8.86442L16.1801 5.36442C16.5194 5.12689 16.602 4.65924 16.3644 4.3199C16.1269 3.98056 15.6592 3.89804 15.3199 4.13557L10.75 7.33451L6.1801 4.13557Z" fill="#292927"/>
</g>
</svg>
