<svg preserveAspectRatio="xMidYMid meet" overflow="visible" style="display: block;" viewBox="0 0 24 24" fill="none" xmlns="http://www.w3.org/2000/svg">
<g transform="translate(4.0680, 3.0681)">
<path id="Vector" fill-rule="evenodd" clip-rule="evenodd" d="M0.75 0C1.16421 0 1.5 0.335786 1.5 0.75V2.75C1.5 3.16421 1.16421 3.5 0.75 3.5C0.335786 3.5 0 3.16421 0 2.75V0.75C0 0.335786 0.335786 0 0.75 0ZM4.75 0C5.16421 0 5.5 0.335786 5.5 0.75V6.75C5.5 7.16421 5.16421 7.5 4.75 7.5C4.33579 7.5 4 7.16421 4 6.75V0.75C4 0.335786 4.33579 0 4.75 0ZM13.5 0.75C13.5 0.335786 13.1642 0 12.75 0C12.3358 0 12 0.335786 12 0.75V1.75C12 2.16421 12.3358 2.5 12.75 2.5C13.1642 2.5 13.5 2.16421 13.5 1.75V0.75ZM0.75 5C1.16421 5 1.5 5.33579 1.5 5.75V11.75C1.5 12.1642 1.16421 12.5 0.75 12.5C0.335786 12.5 0 12.1642 0 11.75V5.75C0 5.33579 0.335786 5 0.75 5ZM1.5 14.25C1.5 13.8358 1.16421 13.5 0.75 13.5C0.335786 13.5 0 13.8358 0 14.25V14.75C0 15.1642 0.335786 15.5 0.75 15.5C1.16421 15.5 1.5 15.1642 1.5 14.75V14.25ZM4.75 13.5C5.16421 13.5 5.5 13.8358 5.5 14.25V14.75C5.5 15.1642 5.16421 15.5 4.75 15.5C4.33579 15.5 4 15.1642 4 14.75V14.25C4 13.8358 4.33579 13.5 4.75 13.5ZM5.5 9.75C5.5 9.33579 5.16421 9 4.75 9C4.33579 9 4 9.33579 4 9.75V11.75C4 12.1642 4.33579 12.5 4.75 12.5C5.16421 12.5 5.5 12.1642 5.5 11.75V9.75ZM8.75 8C9.16421 8 9.5 8.33579 9.5 8.75V10.75C9.5 11.1642 9.16421 11.5 8.75 11.5C8.33579 11.5 8 11.1642 8 10.75V8.75C8 8.33579 8.33579 8 8.75 8ZM9.5 0.75C9.5 0.335786 9.16421 0 8.75 0C8.33579 0 8 0.335786 8 0.75V5.75C8 6.16421 8.33579 6.5 8.75 6.5C9.16421 6.5 9.5 6.16421 9.5 5.75V0.75ZM12.75 4C13.1642 4 13.5 4.33579 13.5 4.75V8.75C13.5 9.16421 13.1642 9.5 12.75 9.5C12.3358 9.5 12 9.16421 12 8.75V4.75C12 4.33579 12.3358 4 12.75 4ZM11.4017 12.3408C11.1088 12.0479 10.6339 12.0479 10.341 12.3408C10.0481 12.6337 10.0481 13.1085 10.341 13.4014L11.932 14.9924L10.341 16.5834C10.0481 16.8763 10.0481 17.3512 10.341 17.6441C10.6339 17.937 11.1088 17.937 11.4017 17.6441L12.9927 16.0531L14.5836 17.6441C14.8765 17.937 15.3514 17.937 15.6443 17.6441C15.9372 17.3512 15.9372 16.8763 15.6443 16.5834L14.0533 14.9924L15.6443 13.4014C15.9372 13.1085 15.9372 12.6337 15.6443 12.3408C15.3514 12.0479 14.8765 12.0479 14.5836 12.3408L12.9927 13.9318L11.4017 12.3408Z" fill="#292927"/>
</g>
</svg>
