<svg preserveAspectRatio="xMidYMid meet" overflow="visible" style="display: block;" viewBox="0 0 24 24" fill="none" xmlns="http://www.w3.org/2000/svg">
<g transform="translate(2.2500, 2.2500)">
<path id="Vector" fill-rule="evenodd" clip-rule="evenodd" d="M2.75 1.5C2.05964 1.5 1.5 2.05964 1.5 2.75V16.75C1.5 17.4404 2.05964 18 2.75 18H16.75C17.4404 18 18 17.4404 18 16.75V2.75C18 2.05964 17.4404 1.5 16.75 1.5H2.75ZM0 2.75C0 1.23122 1.23122 0 2.75 0H16.75C18.2688 0 19.5 1.23122 19.5 2.75V16.75C19.5 18.2688 18.2688 19.5 16.75 19.5H2.75C1.23122 19.5 0 18.2688 0 16.75V2.75ZM6.5 9.75C6.5 7.95507 7.95507 6.5 9.75 6.5C11.5449 6.5 13 7.95507 13 9.75C13 11.5449 11.5449 13 9.75 13C7.95507 13 6.5 11.5449 6.5 9.75ZM9.75 5C7.12665 5 5 7.12665 5 9.75C5 12.3734 7.12665 14.5 9.75 14.5C12.3734 14.5 14.5 12.3734 14.5 9.75C14.5 7.12665 12.3734 5 9.75 5Z" fill="#292927"/>
</g>
</svg>
