<svg preserveAspectRatio="xMidYMid meet" overflow="visible" style="display: block;" viewBox="0 0 24 24" fill="none" xmlns="http://www.w3.org/2000/svg">
<g transform="translate(2.2500, 1.2500)">
<path id="Vector" fill-rule="evenodd" clip-rule="evenodd" d="M0 1.35C0 0.604416 0.604415 0 1.35 0H3.15C3.89558 0 4.5 0.604415 4.5 1.35V3H7V1.35C7 0.604416 7.60442 0 8.35 0H11.15C11.8956 0 12.5 0.604415 12.5 1.35V3H15V1.35C15 0.604416 15.6044 0 16.35 0H18.15C18.8956 0 19.5 0.604415 19.5 1.35V6.56833C19.5 6.83486 19.4211 7.09542 19.2733 7.31718L17.5 9.97708V18.75C17.5 20.2688 16.2688 21.5 14.75 21.5H4.75C3.23122 21.5 2 20.2688 2 18.75V9.97708L0.226732 7.31718C0.0788914 7.09542 0 6.83486 0 6.56833V1.35ZM1.5 1.5V6.52292L3.27327 9.18282C3.42111 9.40458 3.5 9.66514 3.5 9.93167V18.75C3.5 19.4404 4.05964 20 4.75 20H14.75C15.4404 20 16 19.4404 16 18.75V9.93167C16 9.66514 16.0789 9.40458 16.2267 9.18282L18 6.52292V1.5H16.5V3.15C16.5 3.89558 15.8956 4.5 15.15 4.5H12.35C11.6044 4.5 11 3.89558 11 3.15V1.5H8.5V3.15C8.5 3.89558 7.89558 4.5 7.15 4.5H4.35C3.60442 4.5 3 3.89558 3 3.15V1.5H1.5Z" fill="#292927"/>
</g>
</svg>
