<svg preserveAspectRatio="xMidYMid meet" overflow="visible" style="display: block;" viewBox="0 0 24 24" fill="none" xmlns="http://www.w3.org/2000/svg">
<g transform="translate(1.2500, 2.2500)">
<path id="Vector" fill-rule="evenodd" clip-rule="evenodd" d="M8.28033 0.21967C8.57322 0.512563 8.57322 0.987437 8.28033 1.28033L2.56066 7H14.75C16.9318 7 18.6331 7.75525 19.7884 8.94664C20.9352 10.1292 21.5 11.6966 21.5 13.25C21.5 14.8034 20.9352 16.3708 19.7884 17.5534C18.6331 18.7447 16.9318 19.5 14.75 19.5C14.3358 19.5 14 19.1642 14 18.75C14 18.3358 14.3358 18 14.75 18C16.5682 18 17.8669 17.3802 18.7116 16.5091C19.5648 15.6292 20 14.4466 20 13.25C20 12.0534 19.5648 10.8708 18.7116 9.99086C17.8669 9.11975 16.5682 8.5 14.75 8.5H2.56066L8.28033 14.2197C8.57322 14.5126 8.57322 14.9874 8.28033 15.2803C7.98744 15.5732 7.51256 15.5732 7.21967 15.2803L0.21967 8.28033C-0.0732233 7.98744 -0.0732233 7.51256 0.21967 7.21967L7.21967 0.21967C7.51256 -0.0732233 7.98744 -0.0732233 8.28033 0.21967Z" fill="#292927"/>
</g>
</svg>
