<svg preserveAspectRatio="xMidYMid meet" overflow="visible" style="display: block;" viewBox="0 0 24 24" fill="none" xmlns="http://www.w3.org/2000/svg">
<g transform="translate(6.2500, 3.2500)">
<path id="Vector" fill-rule="evenodd" clip-rule="evenodd" d="M11.2803 1.28033L6.28033 6.28033C5.98744 6.57322 5.51256 6.57322 5.21967 6.28033L0.21967 1.28033C-0.0732233 0.987437 -0.0732233 0.512563 0.21967 0.21967C0.512563 -0.0732232 0.987437 -0.0732232 1.28033 0.21967L5.75 4.68934L10.2197 0.21967C10.5126 -0.0732232 10.9874 -0.0732232 11.2803 0.21967C11.5732 0.512563 11.5732 0.987437 11.2803 1.28033ZM11.2803 16.2197L6.28033 11.2197C5.98744 10.9268 5.51256 10.9268 5.21967 11.2197L0.21967 16.2197C-0.0732233 16.5126 -0.0732233 16.9874 0.21967 17.2803C0.512563 17.5732 0.987437 17.5732 1.28033 17.2803L5.75 12.8107L10.2197 17.2803C10.5126 17.5732 10.9874 17.5732 11.2803 17.2803C11.5732 16.9874 11.5732 16.5126 11.2803 16.2197Z" fill="#292927"/>
</g>
</svg>
