<svg preserveAspectRatio="xMidYMid meet" overflow="visible" style="display: block;" viewBox="0 0 24 24" fill="none" xmlns="http://www.w3.org/2000/svg">
<g transform="translate(1.3653, 2.3083)">
<path id="Vector" fill-rule="evenodd" clip-rule="evenodd" d="M20.6573 13.1018L11.3738 19.1638C10.9253 19.4566 10.3461 19.4566 9.8976 19.1638L0.612021 13.1005C0.0994862 12.7658 -0.123725 12.1282 0.0681764 11.5469L3.57433 0.926777C3.75695 0.373632 4.27376 0 4.85627 0H16.3518C16.9317 0 17.4469 0.370403 17.6315 0.92017L21.199 11.5416C21.3947 12.1244 21.172 12.7657 20.6573 13.1018ZM1.52873 11.9076L10.6357 17.8543L19.7401 11.9093L16.2439 1.5H4.96472L1.52873 11.9076ZM8.63568 2.99962C8.25037 2.99962 7.92775 3.2916 7.88941 3.675L7.38941 8.675C7.35425 9.02653 7.5692 9.35494 7.90542 9.4634C8.24165 9.57187 8.60799 9.43098 8.78489 9.12517C9.17506 8.45069 9.90246 7.99962 10.7343 7.99962C11.977 7.99962 12.9843 9.00698 12.9843 10.2496C12.9843 10.8701 12.7342 11.4307 12.3274 11.8385C11.9193 12.2477 11.3569 12.4996 10.7343 12.4996C9.90246 12.4996 9.17506 12.0486 8.78489 11.3741C8.57748 11.0155 8.11868 10.893 7.76014 11.1004C7.40159 11.3078 7.27907 11.7666 7.48648 12.1252C8.13374 13.2441 9.34536 13.9996 10.7343 13.9996C11.7715 13.9996 12.7114 13.5776 13.3895 12.8977C14.0652 12.2202 14.4843 11.2831 14.4843 10.2496C14.4843 8.17856 12.8054 6.49962 10.7343 6.49962C10.1387 6.49962 9.57571 6.63856 9.07584 6.8855L9.31442 4.49962H13.1357C13.5499 4.49962 13.8857 4.16384 13.8857 3.74962C13.8857 3.33541 13.5499 2.99962 13.1357 2.99962H8.63568Z" fill="#292927"/>
</g>
</svg>
