<svg preserveAspectRatio="xMidYMid meet" overflow="visible" style="display: block;" viewBox="0 0 24 24" fill="none" xmlns="http://www.w3.org/2000/svg">
<g transform="translate(2.2500, 2.3039)">
<path id="Vector" fill-rule="evenodd" clip-rule="evenodd" d="M2.75 1.5C2.05964 1.5 1.5 2.05964 1.5 2.75V17.6119L3.56386 15.0321C4.08573 14.3797 4.87584 14 5.71125 14H16.75C17.4404 14 18 13.4404 18 12.75V2.75C18 2.05964 17.4404 1.5 16.75 1.5H2.75ZM0 2.75C0 1.23122 1.23122 0 2.75 0H16.75C18.2688 0 19.5 1.23122 19.5 2.75V12.75C19.5 14.2688 18.2688 15.5 16.75 15.5H5.71125C5.33152 15.5 4.97238 15.6726 4.73516 15.9691L2.40417 18.8829C1.60698 19.8794 0 19.3157 0 18.0395V2.75ZM6.25 5.5C6.11193 5.5 6 5.61193 6 5.75V6.75C6 6.88807 6.11193 7 6.25 7H7.5V5.75C7.5 5.61193 7.38807 5.5 7.25 5.5H6.25ZM7.23099 8.5C7.17305 8.59386 7.10472 8.69371 7.025 8.8C6.68823 9.24903 6.22947 9.70987 5.71967 10.2197C5.42678 10.5126 5.42678 10.9874 5.71967 11.2803C6.01256 11.5732 6.48744 11.5732 6.78033 11.2803L6.80192 11.2587C7.28637 10.7743 7.81783 10.2429 8.225 9.7C8.63231 9.15691 9 8.49472 9 7.75V5.75C9 4.7835 8.2165 4 7.25 4H6.25C5.2835 4 4.5 4.7835 4.5 5.75V6.75C4.5 7.7165 5.2835 8.5 6.25 8.5H7.23099ZM12 5.75C12 5.61193 12.1119 5.5 12.25 5.5H13.25C13.3881 5.5 13.5 5.61193 13.5 5.75V7H12.25C12.1119 7 12 6.88807 12 6.75V5.75ZM13.025 8.8C13.1047 8.69371 13.1731 8.59386 13.231 8.5H12.25C11.2835 8.5 10.5 7.7165 10.5 6.75V5.75C10.5 4.7835 11.2835 4 12.25 4H13.25C14.2165 4 15 4.7835 15 5.75V7.75C15 8.49472 14.6323 9.15691 14.225 9.7C13.8178 10.2429 13.2864 10.7743 12.8019 11.2587L12.7803 11.2803C12.4874 11.5732 12.0126 11.5732 11.7197 11.2803C11.4268 10.9874 11.4268 10.5126 11.7197 10.2197C12.2295 9.70987 12.6882 9.24903 13.025 8.8Z" fill="#292927"/>
</g>
</svg>
