<svg preserveAspectRatio="xMidYMid meet" overflow="visible" style="display: block;" viewBox="0 0 24 24" fill="none" xmlns="http://www.w3.org/2000/svg">
<g transform="translate(1.2500, 3.9997)">
<path id="Vector" fill-rule="evenodd" clip-rule="evenodd" d="M4.11719 4.09082C4.61141 3.53482 5.27726 3.16945 6 3.04622V8.73007C5.88853 8.79702 5.78971 8.85603 5.70534 8.9062C5.59848 8.96975 5.51486 9.0191 5.45816 9.05245L5.39379 9.09022L5.37257 9.10262C5.01464 9.31106 4.89345 9.7702 5.10188 10.1281C5.31032 10.4861 5.76999 10.607 6.12794 10.3985L6.15133 10.3849L6.21858 10.3454C6.27725 10.3109 6.36298 10.2603 6.47206 10.1954C6.69021 10.0657 7.00194 9.87878 7.37759 9.64924C8.12827 9.19054 9.13716 8.55988 10.1659 7.87424C10.7867 7.4605 11.3552 7.46265 11.7779 7.66654C11.9252 7.81818 12.09 7.95287 12.2688 8.06742L12.275 8.07559C12.476 8.34357 12.5716 8.67729 12.523 9.02057C12.4754 9.35737 12.2791 9.76689 11.7815 10.165C11.1959 10.6334 10.7049 11.0016 10.3616 11.2518C10.19 11.3769 10.0555 11.4724 9.96456 11.5361C9.91912 11.568 9.8846 11.5919 9.86184 11.6076L9.83664 11.6248L9.83085 11.6288L9.82971 11.6296L12.25 10.2401V10.2418L9.80002 11.6507L6 14.5005L0.749965 14.5007C0.335752 14.5007 -1.91192e-05 14.8365 8.16533e-10 15.2508C1.91719e-05 15.665 0.335821 16.0007 0.750035 16.0007L6.25004 16.0005C6.41229 16.0005 6.57017 15.9478 6.69998 15.8505L10.6865 12.8608L10.7123 12.8431C10.7385 12.8251 10.7765 12.7988 10.8255 12.7645C10.9235 12.6958 11.0657 12.5949 11.2452 12.464C11.5627 12.2326 11.9976 11.9071 12.5126 11.5H18.75C20.2688 11.5 21.5 10.2688 21.5 8.75V2.75C21.5 1.23122 20.2688 0 18.75 0H8.75C7.67871 0 6.75049 0.612579 6.29651 1.50656C5.0319 1.57308 3.84198 2.14263 2.99608 3.09428L0.189451 6.25174C-0.0857373 6.56133 -0.057851 7.03538 0.251737 7.31057C0.561324 7.58576 1.03538 7.55787 1.31057 7.24828L4.11719 4.09082ZM14.0124 8.48765C14.044 8.72859 14.044 8.9779 14.0082 9.23074L12.6683 10H12.6705L14.0082 9.23074C13.9712 9.49213 13.8971 9.74991 13.7857 10H18.75C19.4404 10 20 9.44036 20 8.75V2.75C20 2.05964 19.4404 1.5 18.75 1.5H8.75C8.05964 1.5 7.5 2.05964 7.5 2.75V7.80954C8.06522 7.45529 8.69643 7.05101 9.33406 6.62605C9.89397 6.25289 10.4682 6.0685 11.0148 6.0371C11.005 5.94274 11 5.84696 11 5.75C11 4.23122 12.2312 3 13.75 3C15.2688 3 16.5 4.23122 16.5 5.75C16.5 7.18029 15.4081 8.35555 14.0124 8.48765ZM13.2245 6.88449C13.0791 6.73691 12.9182 6.60548 12.7444 6.49264C12.5908 6.285 12.5 6.02811 12.5 5.75C12.5 5.05964 13.0596 4.5 13.75 4.5C14.4404 4.5 15 5.05964 15 5.75C15 6.44036 14.4404 7 13.75 7C13.5623 7 13.3842 6.95862 13.2245 6.88449ZM18.7617 5.19156C19.0696 5.46865 19.0946 5.94287 18.8175 6.25075L18.8075 6.26186C18.5304 6.56975 18.0562 6.59471 17.7483 6.31761C17.4404 6.04052 17.4154 5.5663 17.6925 5.25842L17.7025 5.24731C17.9796 4.93942 18.4538 4.91446 18.7617 5.19156ZM9.81748 6.25075C10.0946 5.94287 10.0696 5.46865 9.76173 5.19156C9.45385 4.91446 8.97963 4.93942 8.70254 5.24731L8.69254 5.25842C8.41544 5.5663 8.4404 6.04052 8.74828 6.31761C9.05617 6.59471 9.53038 6.56975 9.80748 6.26186L9.81748 6.25075Z" fill="#292927"/>
</g>
</svg>
