<svg preserveAspectRatio="xMidYMid meet" overflow="visible" style="display: block;" viewBox="0 0 24 24" fill="none" xmlns="http://www.w3.org/2000/svg">
<g transform="translate(2.2500, 2.2500)">
<path id="Vector" fill-rule="evenodd" clip-rule="evenodd" d="M2.75 1.5C2.05964 1.5 1.5 2.05964 1.5 2.75V16.75C1.5 17.4404 2.05964 18 2.75 18H16.75C17.4404 18 18 17.4404 18 16.75V2.75C18 2.05964 17.4404 1.5 16.75 1.5H2.75ZM0 2.75C0 1.23122 1.23122 0 2.75 0H16.75C18.2688 0 19.5 1.23122 19.5 2.75V16.75C19.5 18.2688 18.2688 19.5 16.75 19.5H2.75C1.23122 19.5 0 18.2688 0 16.75V2.75ZM4.75 4C4.33579 4 4 4.33579 4 4.75C4 5.16421 4.33579 5.5 4.75 5.5L14.75 5.5C15.1642 5.5 15.5 5.16421 15.5 4.75C15.5 4.33579 15.1642 4 14.75 4L4.75 4ZM4 9.75C4 9.33579 4.33579 9 4.75 9L14.75 9C15.1642 9 15.5 9.33579 15.5 9.75C15.5 10.1642 15.1642 10.5 14.75 10.5L4.75 10.5C4.33579 10.5 4 10.1642 4 9.75ZM4.75 14C4.33579 14 4 14.3358 4 14.75C4 15.1642 4.33579 15.5 4.75 15.5L10.75 15.5C11.1642 15.5 11.5 15.1642 11.5 14.75C11.5 14.3358 11.1642 14 10.75 14L4.75 14Z" fill="#292927"/>
</g>
</svg>
