<svg preserveAspectRatio="xMidYMid meet" overflow="visible" style="display: block;" viewBox="0 0 24 24" fill="none" xmlns="http://www.w3.org/2000/svg">
<g transform="translate(4.2500, 1.2500)">
<path id="Vector" fill-rule="evenodd" clip-rule="evenodd" d="M8.07228 1.11437C8.27345 0.752281 8.14299 0.295679 7.7809 0.0945187C7.41881 -0.106641 6.96221 0.0238166 6.76105 0.385904L5.09438 3.3859C4.96533 3.6182 4.96883 3.90145 5.1036 4.13048C5.23836 4.35952 5.48426 4.50014 5.75 4.50014H8.47536L7.42772 6.3859C7.22656 6.74799 7.35701 7.2046 7.7191 7.40576C8.08119 7.60691 8.53779 7.47646 8.73895 7.11437L10.4056 4.11437C10.5347 3.88207 10.5312 3.59882 10.3964 3.36979C10.2616 3.14076 10.0157 3.00014 9.75 3.00014H7.02464L8.07228 1.11437ZM3.75 7H0.75C0.335786 7 0 7.33579 0 7.75V14.4907C0 18.4385 3.55088 21.5 7.75 21.5C11.9491 21.5 15.5 18.4385 15.5 14.4907V7.75C15.5 7.33579 15.1642 7 14.75 7H11.75C11.3358 7 11 7.33579 11 7.75C11 8.16421 11.3358 8.5 11.75 8.5H14V11H10.5741V10.25C10.5741 9.83579 10.2383 9.5 9.82405 9.5C9.40984 9.5 9.07405 9.83579 9.07405 10.25V13.8106C9.07405 14.4209 8.52947 15 7.74998 15C6.97049 15 6.4259 14.4209 6.4259 13.8106V10.25C6.4259 9.83579 6.09012 9.5 5.6759 9.5C5.26169 9.5 4.9259 9.83579 4.9259 10.25V11H1.5V8.5H3.75C4.16421 8.5 4.5 8.16421 4.5 7.75C4.5 7.33579 4.16421 7 3.75 7ZM10.5741 12.5H14V14.4907C14 17.4567 11.2829 20 7.75 20C4.21713 20 1.5 17.4567 1.5 14.4907V12.5H4.9259V13.8106C4.9259 15.3426 6.23851 16.5 7.74998 16.5C9.26144 16.5 10.5741 15.3426 10.5741 13.8106V12.5Z" fill="#292927"/>
</g>
</svg>
