<svg preserveAspectRatio="xMidYMid meet" overflow="visible" style="display: block;" viewBox="0 0 24 24" fill="none" xmlns="http://www.w3.org/2000/svg">
<g transform="translate(2.2500, 2.2500)">
<path id="Vector" fill-rule="evenodd" clip-rule="evenodd" d="M14.75 18C16.5449 18 18 16.5449 18 14.75V4.75C18 2.95507 16.5449 1.5 14.75 1.5H4.75C2.95507 1.5 1.5 2.95507 1.5 4.75V14.75C1.5 16.5449 2.95507 18 4.75 18H14.75ZM19.5 14.75C19.5 17.3734 17.3734 19.5 14.75 19.5H4.75C2.12665 19.5 0 17.3734 0 14.75V4.75C0 2.12665 2.12665 0 4.75 0H14.75C17.3734 0 19.5 2.12665 19.5 4.75V14.75ZM6.25 14.5C5.83579 14.5 5.5 14.1642 5.5 13.75L5.5 5.75C5.5 5.33579 5.83579 5 6.25 5C6.66421 5 7 5.33579 7 5.75L7 13.75C7 14.1642 6.66421 14.5 6.25 14.5ZM11.25 10.5H12.5V13H11.25C10.5596 13 10 12.4404 10 11.75C10 11.0596 10.5596 10.5 11.25 10.5ZM11.25 9H12.5V6.75C12.5 6.33579 12.8358 6 13.25 6C13.6642 6 14 6.33579 14 6.75V13.15C14 13.8956 13.3956 14.5 12.65 14.5H11.25C9.73122 14.5 8.5 13.2688 8.5 11.75C8.5 10.2312 9.73122 9 11.25 9Z" fill="#292927"/>
</g>
</svg>
