<svg preserveAspectRatio="xMidYMid meet" overflow="visible" style="display: block;" viewBox="0 0 24 24" fill="none" xmlns="http://www.w3.org/2000/svg">
<g transform="translate(2.2500, 2.2500)">
<path id="Vector" fill-rule="evenodd" clip-rule="evenodd" d="M14.6021 13.1064C14.8577 13.5797 15 14.118 15 14.682C15 16.5145 13.5145 18 11.682 18H3.75C3.33579 18 3 18.3358 3 18.75C3 19.1642 3.33579 19.5 3.75 19.5H11.682C14.3429 19.5 16.5 17.3429 16.5 14.682C16.5 13.8638 16.2932 13.0811 15.9219 12.3936C15.7251 12.0292 15.2701 11.8933 14.9056 12.0901C14.5412 12.2869 14.4053 12.7419 14.6021 13.1064ZM14.0357 1.5C14.4499 1.5 14.7857 1.16421 14.7857 0.75C14.7857 0.335786 14.4499 0 14.0357 0H7.81797C5.15708 0 3 2.15708 3 4.81797C3 6.56904 3.94612 8.15423 5.425 9H0.75C0.335786 9 0 9.33579 0 9.75C0 10.1642 0.335786 10.5 0.75 10.5H9.73271C9.74434 10.5003 9.75593 10.5003 9.7675 10.5H18.75C19.1642 10.5 19.5 10.1642 19.5 9.75C19.5 9.33579 19.1642 9 18.75 9H9.87171L6.76874 7.96568C5.41387 7.51405 4.5 6.24613 4.5 4.81797C4.5 2.98551 5.98551 1.5 7.81797 1.5H14.0357Z" fill="#292927"/>
</g>
</svg>
