<svg preserveAspectRatio="xMidYMid meet" overflow="visible" style="display: block;" viewBox="0 0 24 24" fill="none" xmlns="http://www.w3.org/2000/svg">
<g transform="translate(1.2500, 1.2500)">
<path id="Vector" fill-rule="evenodd" clip-rule="evenodd" d="M3.25 1.5C2.2835 1.5 1.5 2.2835 1.5 3.25C1.5 4.2165 2.2835 5 3.25 5C3.53318 5 3.80065 4.93274 4.0373 4.81332L2.78948 3.84279C2.46252 3.58849 2.40362 3.11728 2.65792 2.79032C2.91222 2.46336 3.38343 2.40446 3.71039 2.65876L4.9587 3.62967C4.98574 3.50743 5 3.38038 5 3.25C5 2.2835 4.2165 1.5 3.25 1.5ZM6.20697 4.60055C6.39513 4.18924 6.5 3.73187 6.5 3.25C6.5 1.45507 5.04493 0 3.25 0C1.45507 0 0 1.45507 0 3.25C0 5.04493 1.45507 6.5 3.25 6.5C4.02043 6.5 4.72825 6.23192 5.28526 5.78396L7.08063 7.18035C7.06767 7.28375 7.06656 7.39049 7.07862 7.49908L7.76504 13.6768L5.25045 15.6884C4.69889 15.2571 4.00447 15 3.25 15C1.45507 15 0 16.4551 0 18.25C0 20.0449 1.45507 21.5 3.25 21.5C5.04493 21.5 6.5 20.0449 6.5 18.25C6.5 17.7523 6.38814 17.2808 6.1882 16.8592L7.96754 15.4357C8.10012 16.0505 8.64578 16.5 9.28703 16.5H12.213C12.8543 16.5 13.3999 16.0505 13.5325 15.4357L14.0315 15.8349C14.3549 16.0936 14.8269 16.0412 15.0857 15.7177C15.3444 15.3943 15.292 14.9223 14.9685 14.6636L13.735 13.6767L14.4214 7.49908C14.4335 7.39047 14.4323 7.28371 14.4194 7.1803L16.2147 5.78394C16.7717 6.23191 17.4796 6.5 18.25 6.5C20.0449 6.5 21.5 5.04493 21.5 3.25C21.5 1.45507 20.0449 0 18.25 0C16.4551 0 15 1.45507 15 3.25C15 3.73186 15.1049 4.18922 15.293 4.60051L13.4336 6.04673C13.321 6.01628 13.2024 6 13.0796 6H8.42037C8.29757 6 8.17893 6.01629 8.06636 6.04674L6.20697 4.60055ZM18.25 5C17.9668 5 17.6993 4.93273 17.4627 4.8133L18.7105 3.84279C19.0374 3.58849 19.0963 3.11728 18.842 2.79032C18.5877 2.46336 18.1165 2.40446 17.7896 2.65876L16.5413 3.62963C16.5143 3.5074 16.5 3.38036 16.5 3.25C16.5 2.2835 17.2835 1.5 18.25 1.5C19.2165 1.5 20 2.2835 20 3.25C20 4.2165 19.2165 5 18.25 5ZM4.01588 16.6761L2.78149 17.6635C2.45803 17.9223 2.40559 18.3943 2.66434 18.7177C2.92309 19.0412 3.39506 19.0936 3.71851 18.8349L4.95337 17.847C4.98387 17.9764 5 18.1113 5 18.25C5 19.2165 4.2165 20 3.25 20C2.2835 20 1.5 19.2165 1.5 18.25C1.5 17.2835 2.2835 16.5 3.25 16.5C3.52467 16.5 3.78456 16.5633 4.01588 16.6761ZM8.58796 7.5L9.42129 15H12.0787L12.9121 7.5H8.58796ZM21.2803 18.7803L18.7803 21.2803C18.4874 21.5732 18.0126 21.5732 17.7197 21.2803L15.2197 18.7803C14.9268 18.4874 14.9268 18.0126 15.2197 17.7197C15.5126 17.4268 15.9874 17.4268 16.2803 17.7197L17.5 18.9393V14.75C17.5 14.3358 17.8358 14 18.25 14C18.6642 14 19 14.3358 19 14.75V18.9393L20.2197 17.7197C20.5126 17.4268 20.9874 17.4268 21.2803 17.7197C21.5732 18.0126 21.5732 18.4874 21.2803 18.7803Z" fill="#292927"/>
</g>
</svg>
