<svg preserveAspectRatio="xMidYMid meet" overflow="visible" style="display: block;" viewBox="0 0 24 24" fill="none" xmlns="http://www.w3.org/2000/svg">
<g transform="translate(2.2500, 2.2500)">
<path id="Vector" fill-rule="evenodd" clip-rule="evenodd" d="M1.5 18V1.5H18V18H1.5ZM1.35 0C0.604417 0 0 0.604415 0 1.35V18.15C0 18.8956 0.604415 19.5 1.35 19.5H18.15C18.8956 19.5 19.5 18.8956 19.5 18.15V1.35C19.5 0.604417 18.8956 0 18.15 0H1.35ZM13.75 4.5L12.2906 4.5L8.79057 15H9.75C10.1642 15 10.5 15.3358 10.5 15.75C10.5 16.1642 10.1642 16.5 9.75 16.5H5.75C5.33579 16.5 5 16.1642 5 15.75C5 15.3358 5.33579 15 5.75 15H7.20943L10.7094 4.5L9.75 4.5C9.33579 4.5 9 4.16421 9 3.75C9 3.33579 9.33579 3 9.75 3L13.75 3C14.1642 3 14.5 3.33579 14.5 3.75C14.5 4.16421 14.1642 4.5 13.75 4.5Z" fill="#292927"/>
</g>
</svg>
