<svg preserveAspectRatio="xMidYMid meet" overflow="visible" style="display: block;" viewBox="0 0 24 24" fill="none" xmlns="http://www.w3.org/2000/svg">
<g transform="translate(2.2500, 5.7500)">
<path id="Vector" fill-rule="evenodd" clip-rule="evenodd" d="M0.308924 0.143501C0.643914 -0.100128 1.11298 -0.0260654 1.3566 0.308924L4.75005 4.97491L8.1435 0.308924C8.38713 -0.0260654 8.85619 -0.100128 9.19118 0.143501C9.52617 0.387129 9.60023 0.856192 9.3566 1.19118L5.85924 6.00005H8.75006C9.16428 6.00005 9.50006 6.33584 9.50006 6.75005C9.50006 7.16427 9.16428 7.50005 8.75006 7.50005H5.50005V8.00005H8.75006C9.16428 8.00005 9.50006 8.33584 9.50006 8.75005C9.50006 9.16427 9.16428 9.50005 8.75006 9.50005H5.50005V11.7501C5.50005 12.1643 5.16427 12.5001 4.75005 12.5001C4.33584 12.5001 4.00005 12.1643 4.00005 11.7501V9.50005H0.750061C0.335847 9.50005 6.10375e-05 9.16427 6.10375e-05 8.75005C6.10375e-05 8.33584 0.335847 8.00005 0.750061 8.00005H4.00005V7.50005H0.750061C0.335847 7.50005 6.10375e-05 7.16427 6.10375e-05 6.75005C6.10375e-05 6.33584 0.335847 6.00005 0.750061 6.00005H3.64086L0.143501 1.19118C-0.100128 0.856192 -0.0260653 0.387129 0.308924 0.143501ZM15.1311 2.26945C15.418 1.97064 15.4083 1.49587 15.1095 1.20901C14.8107 0.922158 14.3359 0.931847 14.049 1.23066L10.209 5.23066C9.93041 5.52088 9.93041 5.97923 10.209 6.26945L14.049 10.2695C14.3359 10.5683 14.8107 10.578 15.1095 10.2911C15.4083 10.0042 15.418 9.52946 15.1311 9.23066L12.5097 6.50005H18.7501C19.1643 6.50005 19.5001 6.16427 19.5001 5.75005C19.5001 5.33584 19.1643 5.00005 18.7501 5.00005H12.5097L15.1311 2.26945Z" fill="#292927"/>
</g>
</svg>
