<svg preserveAspectRatio="xMidYMid meet" overflow="visible" style="display: block;" viewBox="0 0 24 24" fill="none" xmlns="http://www.w3.org/2000/svg">
<g transform="translate(1.2500, 2.2500)">
<path id="Vector" fill-rule="evenodd" clip-rule="evenodd" d="M1.5 6.75C1.5 3.85051 3.85051 1.5 6.75 1.5H14.75C17.6495 1.5 20 3.85051 20 6.75V12.75C20 15.6495 17.6495 18 14.75 18H6.75C3.85051 18 1.5 15.6495 1.5 12.75V6.75ZM6.75 0C3.02208 0 0 3.02208 0 6.75V12.75C0 16.4779 3.02208 19.5 6.75 19.5H14.75C18.4779 19.5 21.5 16.4779 21.5 12.75V6.75C21.5 3.02208 18.4779 0 14.75 0H6.75ZM11.109 6.03866C11.2683 5.65631 11.0875 5.2172 10.7051 5.05789C10.3228 4.89857 9.88367 5.07938 9.72436 5.46173L8.0577 9.46173C7.96125 9.69321 7.98687 9.95757 8.12597 10.1662C8.26506 10.3749 8.49924 10.5002 8.75 10.5002H11.625L10.391 13.4617C10.2317 13.8441 10.4125 14.2832 10.7949 14.4425C11.1772 14.6018 11.6163 14.421 11.7756 14.0387L13.4423 10.0387C13.5388 9.80718 13.5131 9.54282 13.374 9.33417C13.2349 9.12552 13.0008 9.0002 12.75 9.0002H9.875L11.109 6.03866Z" fill="#292927"/>
</g>
</svg>
