<svg preserveAspectRatio="xMidYMid meet" overflow="visible" style="display: block;" viewBox="0 0 24 24" fill="none" xmlns="http://www.w3.org/2000/svg">
<g transform="translate(1.1323, 1.6327)">
<path id="Vector" fill-rule="evenodd" clip-rule="evenodd" d="M2.75 1.5C2.05964 1.5 1.5 2.05964 1.5 2.75V4H20V2.75C20 2.05964 19.4404 1.5 18.75 1.5H2.75ZM0 2.75V4.75V16.75C0 18.2688 1.23122 19.5 2.75 19.5H10.75C11.1642 19.5 11.5 19.1642 11.5 18.75C11.5 18.3358 11.1642 18 10.75 18H2.75C2.05964 18 1.5 17.4404 1.5 16.75V5.5H20V9.75C20 10.1642 20.3358 10.5 20.75 10.5C21.1642 10.5 21.5 10.1642 21.5 9.75V4.75V2.75C21.5 1.23122 20.2688 0 18.75 0H2.75C1.23122 0 0 1.23122 0 2.75ZM4.31748 3.24978C4.59457 2.9419 4.56961 2.46768 4.26173 2.19058C3.95385 1.91349 3.47963 1.93845 3.20254 2.24633L3.19254 2.25744C2.91544 2.56532 2.9404 3.03954 3.24828 3.31663C3.55616 3.59373 4.03038 3.56877 4.30748 3.26089L4.31748 3.24978ZM7.26173 2.19058C7.56961 2.46768 7.59457 2.9419 7.31748 3.24978L7.30748 3.26089C7.03038 3.56877 6.55616 3.59373 6.24828 3.31663C5.9404 3.03954 5.91544 2.56532 6.19254 2.25744L6.20254 2.24633C6.47963 1.93845 6.95385 1.91349 7.26173 2.19058ZM10.3175 3.24978C10.5946 2.9419 10.5696 2.46768 10.2617 2.19058C9.95385 1.91349 9.47963 1.93845 9.20254 2.24633L9.19254 2.25744C8.91544 2.56532 8.9404 3.03954 9.24828 3.31663C9.55616 3.59373 10.0304 3.56877 10.3075 3.26089L10.3175 3.24978ZM16.75 10.7637L18.2763 12.0643L20.2752 12.2239L20.4347 14.2228L21.7354 15.7491L20.4347 17.2753L20.2752 19.2743L18.2763 19.4338L16.75 20.7345L15.2237 19.4338L13.2248 19.2743L13.0653 17.2753L11.7646 15.7491L13.0653 14.2228L13.2248 12.2239L15.2237 12.0643L16.75 10.7637ZM16.75 12.7345V18.7637L17.6729 17.9772L18.8816 17.8807L18.9781 16.672L19.7646 15.7491L18.9781 14.8262L18.8816 13.6174L17.6729 13.521L16.75 12.7345Z" fill="#292927"/>
</g>
</svg>
