<svg preserveAspectRatio="xMidYMid meet" overflow="visible" style="display: block;" viewBox="0 0 24 24" fill="none" xmlns="http://www.w3.org/2000/svg">
<g transform="translate(2.2500, 1.2500)">
<path id="Vector" fill-rule="evenodd" clip-rule="evenodd" d="M9.26127 0.1811C9.54235 -0.0603668 9.95765 -0.0603668 10.2387 0.1811L10.2402 0.182331L10.2423 0.184199L10.2488 0.189829L10.27 0.20853C10.2878 0.224248 10.3125 0.246428 10.3432 0.274632C10.4046 0.330988 10.4902 0.411703 10.5921 0.513261C10.7949 0.715494 11.0665 1.00485 11.3398 1.35294C11.8594 2.01447 12.5 3.03005 12.5 4.125C12.5 5.05168 12.2954 5.88936 11.82 6.51335C11.4779 6.96227 11.0251 7.26117 10.5 7.40352L10.5 9H16.75C18.2688 9 19.5 10.2312 19.5 11.75V12.75C19.5 13.7345 19.1206 14.6305 18.5 15.2995V18.75C18.5 20.2688 17.2688 21.5 15.75 21.5H3.75C2.23122 21.5 1 20.2688 1 18.75V15.2995C0.379413 14.6305 0 13.7345 0 12.75V11.75C0 10.2312 1.23122 9 2.75 9H9L9 7.40352C8.47491 7.26117 8.02207 6.96227 7.68004 6.51335C7.20462 5.88936 7 5.05168 7 4.125C7 3.03005 7.64062 2.01447 8.16016 1.35294C8.43354 1.00485 8.70512 0.715494 8.90793 0.513261C9.00978 0.411703 9.09542 0.330988 9.1568 0.274632C9.18751 0.246428 9.21223 0.224248 9.22996 0.20853L9.25121 0.189829L9.25768 0.184199L9.25984 0.182331L9.26127 0.1811ZM9.75 1.80045C9.62184 1.9385 9.48049 2.10033 9.33984 2.27942C8.85938 2.89118 8.5 3.5631 8.5 4.125C8.5 4.85517 8.6642 5.32999 8.87319 5.60429C9.0615 5.85145 9.33229 6 9.75 6C10.1677 6 10.4385 5.85145 10.6268 5.60429C10.8358 5.32999 11 4.85517 11 4.125C11 3.5631 10.6406 2.89118 10.1602 2.27942C10.0195 2.10033 9.87816 1.9385 9.75 1.80045ZM1.5 12.75C1.5 13.9926 2.50736 15 3.75 15C4.99264 15 6 13.9926 6 12.75C6 12.3358 6.33579 12 6.75 12C7.16421 12 7.5 12.3358 7.5 12.75C7.5 13.9926 8.50736 15 9.75 15C10.9926 15 12 13.9926 12 12.75C12 12.3358 12.3358 12 12.75 12C13.1642 12 13.5 12.3358 13.5 12.75C13.5 13.9926 14.5074 15 15.75 15C16.9926 15 18 13.9926 18 12.75V11.75C18 11.0596 17.4404 10.5 16.75 10.5H2.75C2.05964 10.5 1.5 11.0596 1.5 11.75V12.75ZM15.75 16.5C16.1883 16.5 16.609 16.4248 17 16.2866V18.75C17 19.4404 16.4404 20 15.75 20H3.75C3.05964 20 2.5 19.4404 2.5 18.75V16.2866C2.89097 16.4248 3.31171 16.5 3.75 16.5C4.9767 16.5 6.06583 15.911 6.75 15.0004C7.43417 15.911 8.5233 16.5 9.75 16.5C10.9767 16.5 12.0658 15.911 12.75 15.0004C13.4342 15.911 14.5233 16.5 15.75 16.5Z" fill="#292927"/>
</g>
</svg>
