<svg preserveAspectRatio="none" width="100%" height="100%" overflow="visible" style="display: block;" viewBox="0 0 21.5 21.5" fill="none" xmlns="http://www.w3.org/2000/svg">
<path id="Vector" fill-rule="evenodd" clip-rule="evenodd" d="M1.5 10.75C1.5 5.64137 5.64137 1.5 10.75 1.5C15.8586 1.5 20 5.64137 20 10.75C20 15.8586 15.8586 20 10.75 20C5.64137 20 1.5 15.8586 1.5 10.75ZM10.75 0C4.81294 0 0 4.81294 0 10.75C0 16.6871 4.81294 21.5 10.75 21.5C16.6871 21.5 21.5 16.6871 21.5 10.75C21.5 4.81294 16.6871 0 10.75 0ZM10.8589 5C7.63798 5 5 7.5597 5 10.75C5 13.9403 7.63798 16.5 10.8589 16.5C12.801 16.5 14.1998 15.7704 15.1207 14.7032C16.0216 13.6591 16.4197 12.3469 16.4982 11.2187L16.554 10.4167H11.591V11.9167H14.8791C14.7262 12.5587 14.4373 13.1992 13.9851 13.7232C13.3627 14.4445 12.386 15 10.8589 15C8.43593 15 6.5 13.0817 6.5 10.75C6.5 8.41828 8.43593 6.5 10.8589 6.5C11.9937 6.5 13.025 6.9225 13.798 7.61272L14.797 6.49382C13.7565 5.56472 12.372 5 10.8589 5Z" fill="var(--fill-0, #292927)"/>
</svg>
