<svg preserveAspectRatio="xMidYMid meet" overflow="visible" style="display: block;" viewBox="0 0 24 24" fill="none" xmlns="http://www.w3.org/2000/svg">
<g transform="translate(0.2500, 1.2500)">
<path id="Vector" fill-rule="evenodd" clip-rule="evenodd" d="M6.5 6.75C6.5 5.72236 6.51553 4.43186 7.14312 3.38587C7.72061 2.42338 8.93264 1.5 11.75 1.5C14.5674 1.5 15.7794 2.42338 16.3569 3.38587C16.9845 4.43186 17 5.72236 17 6.75C17 7.16421 17.3358 7.5 17.75 7.5C18.4633 7.5 19.55 7.72016 20.4368 8.35865C21.2853 8.9696 22 9.99444 22 11.75C22 13.8266 20.9972 14.9038 19.9069 15.4649C19.5385 15.6544 19.3936 16.1066 19.5831 16.4749C19.7726 16.8432 20.2248 16.9882 20.5931 16.7987C22.1269 16.0095 23.5 14.4491 23.5 11.75C23.5 9.50556 22.548 8.0304 21.3132 7.14135C20.3993 6.48336 19.359 6.16468 18.4937 6.05083C18.4675 5.07248 18.3327 3.76348 17.6431 2.61413C16.7206 1.07662 14.9326 0 11.75 0C8.56736 0 6.77939 1.07662 5.85688 2.61413C5.16727 3.76348 5.03248 5.07248 5.00627 6.05083C4.14099 6.16468 3.10065 6.48336 2.18677 7.14135C0.951983 8.0304 0 9.50556 0 11.75C0 14.4491 1.37306 16.0095 2.90685 16.7987C3.27517 16.9882 3.72738 16.8432 3.9169 16.4749C4.10641 16.1066 3.96146 15.6544 3.59315 15.4649C2.50275 14.9038 1.5 13.8266 1.5 11.75C1.5 9.99444 2.21468 8.9696 3.06323 8.35865C3.95002 7.72016 5.03668 7.5 5.75 7.5C6.16421 7.5 6.5 7.16421 6.5 6.75ZM8.75 12C8.33579 12 8 12.3358 8 12.75C8 13.1642 8.33579 13.5 8.75 13.5H14.75C15.1642 13.5 15.5 13.1642 15.5 12.75C15.5 12.3358 15.1642 12 14.75 12H8.75ZM8.75 20C8.33579 20 8 20.3358 8 20.75C8 21.1642 8.33579 21.5 8.75 21.5H14.75C15.1642 21.5 15.5 21.1642 15.5 20.75C15.5 20.3358 15.1642 20 14.75 20H8.75ZM6 16.75C6 16.3358 6.33579 16 6.75 16H16.75C17.1642 16 17.5 16.3358 17.5 16.75C17.5 17.1642 17.1642 17.5 16.75 17.5H6.75C6.33579 17.5 6 17.1642 6 16.75Z" fill="#292927"/>
</g>
</svg>
