<svg preserveAspectRatio="xMidYMid meet" overflow="visible" style="display: block;" viewBox="0 0 24 24" fill="none" xmlns="http://www.w3.org/2000/svg">
<g transform="translate(1.2500, 2.2500)">
<path id="Vector" fill-rule="evenodd" clip-rule="evenodd" d="M1.5 6.75C1.5 3.85051 3.85051 1.5 6.75 1.5H14.75C17.6495 1.5 20 3.85051 20 6.75V12.75C20 15.6495 17.6495 18 14.75 18H6.75C3.85051 18 1.5 15.6495 1.5 12.75V6.75ZM6.75 0C3.02208 0 0 3.02208 0 6.75V12.75C0 16.4779 3.02208 19.5 6.75 19.5H14.75C18.4779 19.5 21.5 16.4779 21.5 12.75V6.75C21.5 3.02208 18.4779 0 14.75 0H6.75ZM11.3175 13.0008C11.5946 12.6929 11.5696 12.2187 11.2617 11.9416C10.9538 11.6645 10.4796 11.6894 10.2025 11.9973L10.1925 12.0084C9.91544 12.3163 9.9404 12.7905 10.2483 13.0676C10.5562 13.3447 11.0304 13.3197 11.3075 13.0119L11.3175 13.0008ZM15.1738 9.48015C12.9737 6.83996 8.5263 6.83997 6.32615 9.48007C6.06097 9.79827 5.58804 9.84126 5.26984 9.57608C4.95164 9.3109 4.90865 8.83798 5.17383 8.51977C7.97368 5.16007 13.5263 5.16005 16.3262 8.51988C16.5913 8.83809 16.5483 9.31101 16.2301 9.57618C15.9119 9.84135 15.439 9.79836 15.1738 9.48015ZM8.35002 11.45C9.55002 9.84999 11.95 9.84999 13.15 11.45C13.3985 11.7814 13.8686 11.8486 14.2 11.6C14.5314 11.3515 14.5985 10.8814 14.35 10.55C12.55 8.14999 8.95001 8.14999 7.15001 10.55C6.90148 10.8814 6.96865 11.3515 7.30002 11.6C7.63139 11.8486 8.10149 11.7814 8.35002 11.45Z" fill="#292927"/>
</g>
</svg>
