<svg preserveAspectRatio="xMidYMid meet" overflow="visible" style="display: block;" viewBox="0 0 24 24" fill="none" xmlns="http://www.w3.org/2000/svg">
<g transform="translate(2.2500, 1.2500)">
<path id="Vector" fill-rule="evenodd" clip-rule="evenodd" d="M9 20.75C9 21.1642 9.33579 21.5 9.75 21.5C10.1642 21.5 10.5 21.1642 10.5 20.75V15.5H16.75C18.2688 15.5 19.5 14.2688 19.5 12.75V8.75C19.5 7.23122 18.2688 6 16.75 6H10.5V0.75C10.5 0.335787 10.1642 0 9.75 0C9.33579 0 9 0.335787 9 0.75V6H2.75C1.23122 6 0 7.23122 0 8.75V12.75C0 14.2688 1.23122 15.5 2.75 15.5H9V20.75ZM10.5 14H16.75C17.4404 14 18 13.4404 18 12.75V8.75C18 8.05964 17.4404 7.5 16.75 7.5H10.5V14ZM9 14V7.5H2.75C2.05964 7.5 1.5 8.05964 1.5 8.75V12.75C1.5 13.4404 2.05964 14 2.75 14H9Z" fill="#292927"/>
</g>
</svg>
