<svg preserveAspectRatio="xMidYMid meet" overflow="visible" style="display: block;" viewBox="0 0 24 24" fill="none" xmlns="http://www.w3.org/2000/svg">
<g transform="translate(2.2500, 1.2500)">
<path id="Vector" fill-rule="evenodd" clip-rule="evenodd" d="M1.35 0C0.604415 0 0 0.604416 0 1.35V6.56833C0 6.83486 0.0788914 7.09542 0.226732 7.31718L2 9.97708V18.75C2 20.2688 3.23122 21.5 4.75 21.5H14.75C16.2688 21.5 17.5 20.2688 17.5 18.75V9.97708L19.2733 7.31718C19.4211 7.09542 19.5 6.83486 19.5 6.56833V1.35C19.5 0.604415 18.8956 0 18.15 0H16.35C15.6044 0 15 0.604416 15 1.35V3H12.5V1.35C12.5 0.604415 11.8956 0 11.15 0H8.35C7.60442 0 7 0.604416 7 1.35V3H4.5V1.35C4.5 0.604415 3.89558 0 3.15 0H1.35ZM1.5 6.52292V1.5H3V3.15C3 3.89558 3.60442 4.5 4.35 4.5H7.15C7.89558 4.5 8.5 3.89558 8.5 3.15V1.5H11V3.15C11 3.89558 11.6044 4.5 12.35 4.5H15.15C15.8956 4.5 16.5 3.89558 16.5 3.15V1.5H18V6.52292L16.2267 9.18282C16.0789 9.40458 16 9.66514 16 9.93167V18.75C16 19.4404 15.4404 20 14.75 20H4.75C4.05964 20 3.5 19.4404 3.5 18.75V9.93167C3.5 9.66514 3.42111 9.40458 3.27327 9.18282L1.5 6.52292ZM9.75 8C10.1642 8 10.5 8.33579 10.5 8.75V11.75C10.5 12.1642 10.1642 12.5 9.75 12.5C9.33579 12.5 9 12.1642 9 11.75V8.75C9 8.33579 9.33579 8 9.75 8ZM10.2617 15.1916C10.5696 15.4687 10.5946 15.9429 10.3175 16.2508L10.3075 16.2619C10.0304 16.5697 9.55616 16.5947 9.24828 16.3176C8.9404 16.0405 8.91544 15.5663 9.19254 15.2584L9.20254 15.2473C9.47963 14.9394 9.95385 14.9145 10.2617 15.1916Z" fill="#292927"/>
</g>
</svg>
