<svg preserveAspectRatio="xMidYMid meet" overflow="visible" style="display: block;" viewBox="0 0 24 24" fill="none" xmlns="http://www.w3.org/2000/svg">
<g transform="translate(1.2500, 1.2500)">
<path id="Vector" fill-rule="evenodd" clip-rule="evenodd" d="M1.5 10.75C1.5 5.64137 5.64137 1.5 10.75 1.5C15.8586 1.5 20 5.64137 20 10.75C20 15.8586 15.8586 20 10.75 20C5.64137 20 1.5 15.8586 1.5 10.75ZM10.75 0C4.81294 0 0 4.81294 0 10.75C0 16.6871 4.81294 21.5 10.75 21.5C16.6871 21.5 21.5 16.6871 21.5 10.75C21.5 4.81294 16.6871 0 10.75 0ZM11.2803 12.2803L14.7803 8.78033C15.0732 8.48744 15.0732 8.01256 14.7803 7.71967C14.4874 7.42678 14.0126 7.42678 13.7197 7.71967L11.5 9.93934V4.75C11.5 4.33579 11.1642 4 10.75 4C10.3358 4 10 4.33579 10 4.75V9.93934L7.78033 7.71967C7.48744 7.42678 7.01256 7.42678 6.71967 7.71967C6.42678 8.01256 6.42678 8.48744 6.71967 8.78033L10.2197 12.2803C10.5126 12.5732 10.9874 12.5732 11.2803 12.2803ZM7 15.75C7 15.3358 7.33579 15 7.75 15L13.75 15C14.1642 15 14.5 15.3358 14.5 15.75C14.5 16.1642 14.1642 16.5 13.75 16.5H7.75C7.33579 16.5 7 16.1642 7 15.75Z" fill="#292927"/>
</g>
</svg>
