<svg preserveAspectRatio="xMidYMid meet" overflow="visible" style="display: block;" viewBox="0 0 24 24" fill="none" xmlns="http://www.w3.org/2000/svg">
<g transform="translate(2.2500, 2.2500)">
<path id="Vector" fill-rule="evenodd" clip-rule="evenodd" d="M6.75 1.5C3.8505 1.5 1.5 3.85051 1.5 6.75V12.75C1.5 15.6495 3.85051 18 6.75 18H11.0965C11.0858 17.9769 11.0752 17.9534 11.0646 17.9296C10.7767 17.2817 10.5055 16.346 10.3089 14.9833C10.1293 14.9943 9.94311 15 9.75 15C8.11478 15 6.97379 14.5882 6.15984 14.0702C5.5221 13.6644 5.07979 13.1753 4.84541 12.9161C4.79309 12.8582 4.75113 12.8118 4.71967 12.7803C4.42678 12.4874 4.42678 12.0126 4.71967 11.7197C5.01256 11.4268 5.48744 11.4268 5.78033 11.7197C6.90951 12.8489 8.10409 13.5 9.75 13.5C9.88306 13.5 10.0132 13.4957 10.1405 13.4873C10.0673 12.6255 10.0194 11.6362 10.0047 10.5H8.25C7.83579 10.5 7.5 10.1642 7.5 9.75C7.5 5.31013 8.56818 2.85146 9.82019 1.5H6.75ZM11.7904 14.7468C12.41 14.578 12.9189 14.3383 13.3402 14.0702C13.9779 13.6644 14.4202 13.1753 14.6546 12.9161L14.6546 12.9161C14.7069 12.8582 14.7489 12.8118 14.7803 12.7803C15.0732 12.4874 15.0732 12.0126 14.7803 11.7197C14.4874 11.4268 14.0126 11.4268 13.7197 11.7197C13.0664 12.373 12.3912 12.8662 11.6194 13.166C11.5449 12.2162 11.5 11.0883 11.5 9.75C11.5 9.33579 11.1642 9 10.75 9H9.01113C9.12843 5.13092 10.1506 3.28505 11.0303 2.40533C11.5012 1.93445 11.9594 1.71034 12.284 1.60214C12.4476 1.5476 12.5791 1.52199 12.6627 1.51004C12.7045 1.50408 12.734 1.50156 12.7494 1.50054L12.759 1.50001C15.6544 1.50488 18 3.85351 18 6.75V12.75C18 15.6081 15.7161 17.9328 12.8738 17.9986C12.8044 17.9417 12.6344 17.7682 12.4354 17.3204C12.2119 16.8177 11.9715 16.0139 11.7904 14.7468ZM19.5 6.75C19.5 3.02208 16.4779 0 12.75 0H12.7485H6.75C3.02208 0 0 3.02208 0 6.75V12.75C0 16.4779 3.02208 19.5 6.75 19.5H12.75C16.4779 19.5 19.5 16.4779 19.5 12.75V6.75ZM4.75 6C5.16421 6 5.5 6.33579 5.5 6.75V8.75C5.5 9.16421 5.16421 9.5 4.75 9.5C4.33579 9.5 4 9.16421 4 8.75V6.75C4 6.33579 4.33579 6 4.75 6ZM15.5 6.75C15.5 6.33579 15.1642 6 14.75 6C14.3358 6 14 6.33579 14 6.75V8.75C14 9.16421 14.3358 9.5 14.75 9.5C15.1642 9.5 15.5 9.16421 15.5 8.75V6.75Z" fill="#292927"/>
</g>
</svg>
