<svg preserveAspectRatio="xMidYMid meet" overflow="visible" style="display: block;" viewBox="0 0 24 24" fill="none" xmlns="http://www.w3.org/2000/svg">
<g transform="translate(2.2500, 1.2932)">
<path id="Vector" fill-rule="evenodd" clip-rule="evenodd" d="M0.694401 16.4907L9.0944 21.1574C9.15074 21.1887 9.20876 21.2156 9.26799 21.2383C9.39834 21.3477 9.56648 21.4137 9.75002 21.4137C9.93356 21.4137 10.1017 21.3477 10.232 21.2383C10.2913 21.2156 10.3493 21.1887 10.4056 21.1574L18.8056 16.4907C19.2342 16.2526 19.5 15.8009 19.5 15.3106L19.5 6.01666C19.5 5.52639 19.2342 5.07465 18.8056 4.83655L10.4056 0.169888C9.99791 -0.0566301 9.50213 -0.0566282 9.0944 0.169887L0.694384 4.83655C0.265804 5.07465 0 5.52639 0 6.01667L1.90735e-05 15.3106C1.90735e-05 15.8009 0.265823 16.2526 0.694401 16.4907ZM10.5 19.389L17.2058 15.6636L9.75002 11.5215L2.29423 15.6635L9.00002 19.389V18.1637C9.00002 17.7495 9.33581 17.4137 9.75002 17.4137C10.1642 17.4137 10.5 17.7495 10.5 18.1637V19.389ZM11.2947 10.6637L18 14.3889L18 6.9385L11.2947 10.6637ZM8.20533 10.6637L1.50002 14.3888L1.5 6.9385L8.20533 10.6637ZM2.29413 5.66374L9.00002 1.93826V9.38923L2.29413 5.66374ZM17.2059 5.66375L10.5 1.93826V9.38923L17.2059 5.66375ZM8.00002 14.6637C8.00002 15.6302 8.78352 16.4137 9.75002 16.4137C10.7165 16.4137 11.5 15.6302 11.5 14.6637C11.5 13.6972 10.7165 12.9137 9.75002 12.9137C8.78352 12.9137 8.00002 13.6972 8.00002 14.6637Z" fill="#292927"/>
</g>
</svg>
