<svg preserveAspectRatio="xMidYMid meet" overflow="visible" style="display: block;" viewBox="0 0 24 24" fill="none" xmlns="http://www.w3.org/2000/svg">
<g transform="translate(5.2500, 4.2500)">
<path id="Vector" fill-rule="evenodd" clip-rule="evenodd" d="M1.5 0.75C1.5 0.335786 1.16421 0 0.75 0C0.335786 0 0 0.335786 0 0.75V2.75C0 3.16421 0.335786 3.5 0.75 3.5C1.16421 3.5 1.5 3.16421 1.5 2.75V0.75ZM5.5 0.75C5.5 0.335786 5.16421 0 4.75 0C4.33579 0 4 0.335786 4 0.75V6.75C4 7.16421 4.33579 7.5 4.75 7.5C5.16421 7.5 5.5 7.16421 5.5 6.75V0.75ZM12.75 0C13.1642 0 13.5 0.335786 13.5 0.75V1.75C13.5 2.16421 13.1642 2.5 12.75 2.5C12.3358 2.5 12 2.16421 12 1.75V0.75C12 0.335786 12.3358 0 12.75 0ZM1.5 5.75C1.5 5.33579 1.16421 5 0.75 5C0.335786 5 0 5.33579 0 5.75V11.75C0 12.1642 0.335786 12.5 0.75 12.5C1.16421 12.5 1.5 12.1642 1.5 11.75V5.75ZM0.75 13.5C1.16421 13.5 1.5 13.8358 1.5 14.25V14.75C1.5 15.1642 1.16421 15.5 0.75 15.5C0.335786 15.5 0 15.1642 0 14.75V14.25C0 13.8358 0.335786 13.5 0.75 13.5ZM5.5 14.25C5.5 13.8358 5.16421 13.5 4.75 13.5C4.33579 13.5 4 13.8358 4 14.25V14.75C4 15.1642 4.33579 15.5 4.75 15.5C5.16421 15.5 5.5 15.1642 5.5 14.75V14.25ZM8.75 13.5C9.16421 13.5 9.5 13.8358 9.5 14.25V14.75C9.5 15.1642 9.16421 15.5 8.75 15.5C8.33579 15.5 8 15.1642 8 14.75V14.25C8 13.8358 8.33579 13.5 8.75 13.5ZM13.5 14.25C13.5 13.8358 13.1642 13.5 12.75 13.5C12.3358 13.5 12 13.8358 12 14.25V14.75C12 15.1642 12.3358 15.5 12.75 15.5C13.1642 15.5 13.5 15.1642 13.5 14.75V14.25ZM4.75 9C5.16421 9 5.5 9.33579 5.5 9.75V11.75C5.5 12.1642 5.16421 12.5 4.75 12.5C4.33579 12.5 4 12.1642 4 11.75V9.75C4 9.33579 4.33579 9 4.75 9ZM9.5 8.75C9.5 8.33579 9.16421 8 8.75 8C8.33579 8 8 8.33579 8 8.75V11.75C8 12.1642 8.33579 12.5 8.75 12.5C9.16421 12.5 9.5 12.1642 9.5 11.75V8.75ZM8.75 0C9.16421 0 9.5 0.335786 9.5 0.75V5.75C9.5 6.16421 9.16421 6.5 8.75 6.5C8.33579 6.5 8 6.16421 8 5.75V0.75C8 0.335786 8.33579 0 8.75 0ZM13.5 4.75C13.5 4.33579 13.1642 4 12.75 4C12.3358 4 12 4.33579 12 4.75V11.75C12 12.1642 12.3358 12.5 12.75 12.5C13.1642 12.5 13.5 12.1642 13.5 11.75V4.75Z" fill="#292927"/>
</g>
</svg>
