<svg preserveAspectRatio="xMidYMid meet" overflow="visible" style="display: block;" viewBox="0 0 24 24" fill="none" xmlns="http://www.w3.org/2000/svg">
<g transform="translate(2.2500, 3.2500)">
<path id="Vector" fill-rule="evenodd" clip-rule="evenodd" d="M1.3861 17.1475L1.38736 17.1455L1.39224 17.1377L1.41272 17.1053C1.43109 17.0763 1.45884 17.0326 1.49558 16.9753C1.56908 16.8608 1.67859 16.6917 1.82116 16.4759C2.10637 16.0443 2.52365 15.4261 3.04962 14.6835C4.10246 13.1971 5.58642 11.2189 7.31453 9.24388C9.04585 7.26523 11.0042 5.31074 13.0037 3.85655C15.0187 2.39109 16.9855 1.5 18.7501 1.5C19.1643 1.5 19.5001 1.16421 19.5001 0.75C19.5001 0.335786 19.1643 0 18.7501 0C16.5147 0 14.2315 1.10891 12.1215 2.64345C9.99598 4.18926 7.95435 6.23477 6.18567 8.25612C4.41378 10.2811 2.89774 12.3029 1.82558 13.8165C1.28905 14.5739 0.862584 15.2057 0.569661 15.6491C0.423177 15.8708 0.310023 16.0454 0.233133 16.1653C0.194686 16.2252 0.165299 16.2714 0.14534 16.3029L0.122515 16.3391L0.11649 16.3487L0.114839 16.3513C0.114693 16.3516 0.114102 16.3525 0.7501 16.75L0.114102 16.3525C-0.105431 16.7038 0.00134879 17.1665 0.352601 17.386C0.703854 17.6055 1.16657 17.4988 1.3861 17.1475Z" fill="#292927"/>
</g>
</svg>
