<svg preserveAspectRatio="xMidYMid meet" overflow="visible" style="display: block;" viewBox="0 0 24 24" fill="none" xmlns="http://www.w3.org/2000/svg">
<g transform="translate(2.2500, 2.2500)">
<path id="Vector" fill-rule="evenodd" clip-rule="evenodd" d="M4.5 0.75C4.5 0.335786 4.16421 0 3.75 0H0.75C0.335786 0 0 0.335786 0 0.75V3.75C0 4.16421 0.335786 4.5 0.75 4.5C1.16421 4.5 1.5 4.16421 1.5 3.75V1.5H3.75C4.16421 1.5 4.5 1.16421 4.5 0.75ZM15 0.75C15 0.335786 15.3358 0 15.75 0H18.75C19.1642 0 19.5 0.335786 19.5 0.75V3.75C19.5 4.16421 19.1642 4.5 18.75 4.5C18.3358 4.5 18 4.16421 18 3.75V1.5H15.75C15.3358 1.5 15 1.16421 15 0.75ZM6 6V4.5H4.5V6H6ZM7.5 6.15C7.5 6.89558 6.89558 7.5 6.15 7.5H4.35C3.60442 7.5 3 6.89558 3 6.15V4.35C3 3.60442 3.60442 3 4.35 3H6.15C6.89558 3 7.5 3.60442 7.5 4.35V6.15ZM3 9.75C3 9.33579 3.33579 9 3.75 9H6.75C7.16421 9 7.5 9.33579 7.5 9.75C7.5 10.1642 7.16421 10.5 6.75 10.5H3.75C3.33579 10.5 3 10.1642 3 9.75ZM13.5 9.75C13.5 9.33579 13.1642 9 12.75 9C12.3358 9 12 9.33579 12 9.75V12.75C12 13.1642 12.3358 13.5 12.75 13.5C13.1642 13.5 13.5 13.1642 13.5 12.75V9.75ZM9 15.75C9 15.3358 9.33579 15 9.75 15H12.75C13.1642 15 13.5 15.3358 13.5 15.75C13.5 16.1642 13.1642 16.5 12.75 16.5H9.75C9.33579 16.5 9 16.1642 9 15.75ZM10.3175 10.2517C10.5946 9.94385 10.5696 9.46963 10.2617 9.19254C9.95384 8.91544 9.47962 8.9404 9.20253 9.24828L9.19253 9.25939C8.91543 9.56728 8.94039 10.0415 9.24827 10.3186C9.55616 10.5957 10.0304 10.5707 10.3075 10.2628L10.3175 10.2517ZM16.2617 9.19254C16.5696 9.46963 16.5946 9.94385 16.3175 10.2517L16.3075 10.2628C16.0304 10.5707 15.5562 10.5957 15.2483 10.3186C14.9404 10.0415 14.9154 9.56728 15.1925 9.25939L15.2025 9.24828C15.4796 8.9404 15.9538 8.91544 16.2617 9.19254ZM10.3175 13.2517C10.5946 12.9438 10.5696 12.4696 10.2617 12.1925C9.95384 11.9154 9.47962 11.9404 9.20253 12.2483L9.19253 12.2594C8.91543 12.5673 8.94039 13.0415 9.24827 13.3186C9.55616 13.5957 10.0304 13.5707 10.3075 13.2628L10.3175 13.2517ZM16.2617 12.1925C16.5696 12.4696 16.5946 12.9438 16.3175 13.2517L16.3075 13.2628C16.0304 13.5707 15.5562 13.5957 15.2483 13.3186C14.9404 13.0415 14.9154 12.5673 15.1925 12.2594L15.2025 12.2483C15.4796 11.9404 15.9538 11.9154 16.2617 12.1925ZM16.3175 16.2517C16.5946 15.9438 16.5696 15.4696 16.2617 15.1925C15.9538 14.9154 15.4796 14.9404 15.2025 15.2483L15.1925 15.2594C14.9154 15.5673 14.9404 16.0415 15.2483 16.3186C15.5562 16.5957 16.0304 16.5707 16.3075 16.2628L16.3175 16.2517ZM10.2617 6.19254C10.5696 6.46963 10.5946 6.94385 10.3175 7.25173L10.3075 7.26284C10.0304 7.57072 9.55616 7.59568 9.24827 7.31859C8.94039 7.04149 8.91543 6.56728 9.19253 6.25939L9.20253 6.24828C9.47962 5.9404 9.95384 5.91544 10.2617 6.19254ZM10.3175 4.25173C10.5946 3.94385 10.5696 3.46963 10.2617 3.19254C9.95384 2.91544 9.47962 2.9404 9.20253 3.24828L9.19253 3.25939C8.91543 3.56728 8.94039 4.04149 9.24827 4.31859C9.55616 4.59568 10.0304 4.57072 10.3075 4.26284L10.3175 4.25173ZM6 15V13.5H4.5V15H6ZM7.5 15.15C7.5 15.8956 6.89558 16.5 6.15 16.5H4.35C3.60442 16.5 3 15.8956 3 15.15V13.35C3 12.6044 3.60442 12 4.35 12H6.15C6.89558 12 7.5 12.6044 7.5 13.35V15.15ZM15 4.5V6H13.5V4.5H15ZM15.15 7.5C15.8956 7.5 16.5 6.89558 16.5 6.15V4.35C16.5 3.60442 15.8956 3 15.15 3H13.35C12.6044 3 12 3.60442 12 4.35V6.15C12 6.89558 12.6044 7.5 13.35 7.5H15.15ZM15.75 19.5C15.3358 19.5 15 19.1642 15 18.75C15 18.3358 15.3358 18 15.75 18H18V15.75C18 15.3358 18.3358 15 18.75 15C19.1642 15 19.5 15.3358 19.5 15.75V18.75C19.5 19.1642 19.1642 19.5 18.75 19.5H15.75ZM3.75 19.5C4.16421 19.5 4.5 19.1642 4.5 18.75C4.5 18.3358 4.16421 18 3.75 18H1.5V15.75C1.5 15.3358 1.16421 15 0.75 15C0.335786 15 0 15.3358 0 15.75V18.75C0 19.1642 0.335786 19.5 0.75 19.5H3.75Z" fill="#292927"/>
</g>
</svg>
