<svg preserveAspectRatio="xMidYMid meet" overflow="visible" style="display: block;" viewBox="0 0 24 24" fill="none" xmlns="http://www.w3.org/2000/svg">
<g transform="translate(2.2500, 2.2500)">
<path id="Vector" fill-rule="evenodd" clip-rule="evenodd" d="M18 1.5V18H1.5V1.5H18ZM18.15 19.5C18.8956 19.5 19.5 18.8956 19.5 18.15V1.35C19.5 0.604418 18.8956 0 18.15 0H1.35C0.604418 0 0 0.604414 0 1.35V18.15C0 18.8956 0.604414 19.5 1.35 19.5H18.15ZM12.4208 6.08578C12.6061 5.7153 12.4559 5.26479 12.0854 5.07955C11.7149 4.89431 11.2644 5.04448 11.0792 5.41496L7.07919 13.415C6.89394 13.7854 7.04411 14.236 7.4146 14.4212C7.78508 14.6064 8.23558 14.4563 8.42083 14.0858L12.4208 6.08578Z" fill="#292927"/>
</g>
</svg>
