<svg preserveAspectRatio="xMidYMid meet" overflow="visible" style="display: block;" viewBox="0 0 24 24" fill="none" xmlns="http://www.w3.org/2000/svg">
<g transform="translate(0.8996, 1.7499)">
<path id="Vector" fill-rule="evenodd" clip-rule="evenodd" d="M3.91986 2.2576C4.11683 1.798 4.56876 1.5 5.06879 1.5H14.4312C14.9312 1.5 15.3832 1.798 15.5801 2.2576L17.8989 7.66812C17.9656 7.82371 18 7.99123 18 8.16051V9.25C18 9.66421 18.3358 10 18.75 10C19.1642 10 19.5 9.66421 19.5 9.25V8.16051C19.5 7.78809 19.4244 7.41955 19.2776 7.07724L16.9589 1.66672C16.5255 0.655593 15.5313 0 14.4312 0H5.06879C3.96871 0 2.97449 0.655591 2.54114 1.66672L0.222351 7.07724C0.0756464 7.41955 0 7.78809 0 8.16051V14V14.75V17.15C0 17.8956 0.604416 18.5 1.35 18.5H4.15C4.89558 18.5 5.5 17.8956 5.5 17.15V15.5H11.75C12.1642 15.5 12.5 15.1642 12.5 14.75C12.5 14.3358 12.1642 14 11.75 14H1.5V8.16051C1.5 7.99123 1.53438 7.82371 1.60107 7.66812L3.91986 2.2576ZM5 6.75C5 6.33579 5.33579 6 5.75 6L13.75 6C14.1642 6 14.5 6.33579 14.5 6.75C14.5 7.16421 14.1642 7.5 13.75 7.5L5.75 7.5C5.33579 7.5 5 7.16421 5 6.75ZM4 10.75C4 10.3358 4.33579 10 4.75 10H5.75C6.16421 10 6.5 10.3358 6.5 10.75C6.5 11.1642 6.16421 11.5 5.75 11.5H4.75C4.33579 11.5 4 11.1642 4 10.75ZM13.75 10C13.3358 10 13 10.3358 13 10.75C13 11.1642 13.3358 11.5 13.75 11.5H14.75C15.1642 11.5 15.5 11.1642 15.5 10.75C15.5 10.3358 15.1642 10 14.75 10H13.75ZM4 15.5H1.5V17H4V15.5ZM19.3085 14.2494C19.585 14.5578 19.5591 15.032 19.2506 15.3085C18.5814 15.9083 18.0361 16.6598 17.6088 17.3926C17.8439 17.446 18.0913 17.4636 18.344 17.4399L18.4786 17.4272C19.8323 17.3 20.8215 16.1 20.688 14.7468L20.4728 12.5656L17.8871 12.8086C16.6076 12.9288 15.6727 14.063 15.7989 15.3419C15.8466 15.8256 16.0393 16.2608 16.3297 16.6084C16.8115 15.787 17.4447 14.9128 18.2494 14.1915C18.5579 13.9151 19.032 13.941 19.3085 14.2494ZM15.6122 18.007C14.8954 17.385 14.4058 16.4989 14.3054 15.4822C14.0979 13.3789 15.6355 11.5135 17.7398 11.3158L20.7254 11.0353C21.3293 10.9785 21.8672 11.4219 21.9268 12.0255L22.1814 14.6065C22.3963 16.7841 20.8044 18.7153 18.6258 18.92L18.4913 18.9326C17.9443 18.984 17.4128 18.9177 16.9221 18.7543C16.7983 19.0397 16.7006 19.2912 16.6281 19.4902C16.573 19.6416 16.5326 19.7619 16.5065 19.8428C16.4935 19.8832 16.484 19.9138 16.478 19.9333L16.4717 19.9543L16.4706 19.958C16.3556 20.3558 15.9399 20.5854 15.542 20.4706C15.144 20.3557 14.9146 19.94 15.0294 19.542C15.0294 19.5422 15.0294 19.542 15.7495 19.7499L15.0294 19.542L15.03 19.5401L15.0309 19.5371L15.0336 19.5277L15.0433 19.4957C15.0515 19.4687 15.0634 19.4304 15.0791 19.3819C15.1104 19.285 15.1567 19.147 15.2188 18.9768C15.3126 18.719 15.443 18.3856 15.6122 18.007Z" fill="#292927"/>
</g>
</svg>
