<svg preserveAspectRatio="xMidYMid meet" overflow="visible" style="display: block;" viewBox="0 0 24 24" fill="none" xmlns="http://www.w3.org/2000/svg">
<g transform="translate(8.2500, 0.5287)">
<path id="Vector" fill-rule="evenodd" clip-rule="evenodd" d="M0 2.75C0 1.23122 1.23122 0 2.75 0H4.75C6.26878 0 7.5 1.23122 7.5 2.75V18.4416C7.5 19.0874 7.27277 19.7125 6.85811 20.2075L5.09153 22.3165C4.39207 23.1515 3.10792 23.1515 2.40847 22.3165L0.641887 20.2075C0.227234 19.7125 0 19.0874 0 18.4416V2.75ZM2.75 1.5C2.05964 1.5 1.5 2.05964 1.5 2.75V4.09302H6V2.75C6 2.05964 5.44036 1.5 4.75 1.5H2.75ZM6 5.59302H1.5V18.4416C1.5 18.7351 1.60329 19.0193 1.79177 19.2443L3.55835 21.3532C3.65828 21.4725 3.84172 21.4725 3.94165 21.3532L5.70823 19.2443C5.89671 19.0193 6 18.7351 6 18.4416V5.59302Z" fill="#292927"/>
</g>
</svg>
