<svg preserveAspectRatio="xMidYMid meet" overflow="visible" style="display: block;" viewBox="0 0 24 24" fill="none" xmlns="http://www.w3.org/2000/svg">
<g transform="translate(3.2500, 1.2500)">
<path id="Vector" fill-rule="evenodd" clip-rule="evenodd" d="M7.75 0C3.46979 0 0 3.46979 0 7.75V12.75C0 17.5825 3.91751 21.5 8.75 21.5C13.5825 21.5 17.5 17.5825 17.5 12.75V8.75C17.5 3.91751 13.5825 0 8.75 0H7.75ZM8 1.5H7.75C4.55204 1.5 1.91505 3.90183 1.54454 7H8V1.5ZM1.5 8.5H8.15C8.89558 8.5 9.5 7.89558 9.5 7.15V1.53832C13.1517 1.91362 16 4.99918 16 8.75V12.75C16 16.7541 12.7541 20 8.75 20C4.74594 20 1.5 16.7541 1.5 12.75V8.5Z" fill="#292927"/>
</g>
</svg>
