<svg preserveAspectRatio="xMidYMid meet" overflow="visible" style="display: block;" viewBox="0 0 24 24" fill="none" xmlns="http://www.w3.org/2000/svg">
<g transform="translate(1.2500, 2.7500)">
<path id="Vector" fill-rule="evenodd" clip-rule="evenodd" d="M2.75 1.5C2.05964 1.5 1.5 2.05964 1.5 2.75V10.75C1.5 11.4404 2.05964 12 2.75 12H5V7.75C5 6.23122 6.23122 5 7.75 5H15V2.75C15 2.05964 14.4404 1.5 13.75 1.5H2.75ZM2.75 13.5H5V15.75C5 17.2688 6.23122 18.5 7.75 18.5H18.75C20.2688 18.5 21.5 17.2688 21.5 15.75V7.75C21.5 6.23122 20.2688 5 18.75 5H16.5V2.75C16.5 1.23122 15.2688 0 13.75 0H2.75C1.23122 0 0 1.23122 0 2.75V10.75C0 12.2688 1.23122 13.5 2.75 13.5ZM6.5 7.75C6.5 7.05964 7.05964 6.5 7.75 6.5H18.75C19.4404 6.5 20 7.05964 20 7.75V15.75C20 16.4404 19.4404 17 18.75 17H7.75C7.05964 17 6.5 16.4404 6.5 15.75V7.75ZM9.31748 9.25075C9.59457 8.94287 9.56961 8.46865 9.26173 8.19156C8.95385 7.91446 8.47963 7.93942 8.20254 8.24731L8.19254 8.25842C7.91544 8.5663 7.9404 9.04052 8.24828 9.31761C8.55616 9.59471 9.03038 9.56975 9.30748 9.26186L9.31748 9.25075ZM11.2617 8.19156C11.5696 8.46865 11.5946 8.94287 11.3175 9.25075L11.3075 9.26186C11.0304 9.56975 10.5562 9.59471 10.2483 9.31761C9.9404 9.04052 9.91544 8.5663 10.1925 8.25842L10.2025 8.24731C10.4796 7.93942 10.9538 7.91446 11.2617 8.19156ZM13.3175 9.25075C13.5946 8.94287 13.5696 8.46865 13.2617 8.19156C12.9538 7.91446 12.4796 7.93942 12.2025 8.24731L12.1925 8.25842C11.9154 8.5663 11.9404 9.04052 12.2483 9.31761C12.5562 9.59471 13.0304 9.56975 13.3075 9.26186L13.3175 9.25075ZM4.31748 4.25075C4.59457 3.94287 4.56961 3.46865 4.26173 3.19156C3.95385 2.91447 3.47963 2.93942 3.20254 3.24731L3.19254 3.25842C2.91544 3.5663 2.9404 4.04052 3.24828 4.31761C3.55616 4.59471 4.03038 4.56975 4.30748 4.26186L4.31748 4.25075ZM6.26173 3.19156C6.56961 3.46865 6.59457 3.94287 6.31748 4.25075L6.30748 4.26186C6.03038 4.56975 5.55616 4.59471 5.24828 4.31761C4.9404 4.04052 4.91544 3.5663 5.19254 3.25842L5.20254 3.24731C5.47963 2.93942 5.95385 2.91447 6.26173 3.19156ZM8.31748 4.25075C8.59457 3.94287 8.56961 3.46865 8.26173 3.19156C7.95385 2.91447 7.47963 2.93942 7.20254 3.24731L7.19254 3.25842C6.91544 3.5663 6.9404 4.04052 7.24828 4.31761C7.55616 4.59471 8.03038 4.56975 8.30748 4.26186L8.31748 4.25075Z" fill="#292927"/>
</g>
</svg>
