<svg preserveAspectRatio="xMidYMid meet" overflow="visible" style="display: block;" viewBox="0 0 24 24" fill="none" xmlns="http://www.w3.org/2000/svg">
<g transform="translate(2.2500, 1.2500)">
<path id="Vector" fill-rule="evenodd" clip-rule="evenodd" d="M16.75 20C17.4404 20 18 19.4404 18 18.75V7.5L10.75 7.5C10.5511 7.5 10.3603 7.42098 10.2197 7.28033C10.079 7.13968 10 6.94891 10 6.75V4.75C10 4.33579 10.3358 4 10.75 4C11.1642 4 11.5 4.33579 11.5 4.75V6L18 6V2.75C18 2.05964 17.4404 1.5 16.75 1.5H2.75C2.05964 1.5 1.5 2.05964 1.5 2.75V6L8 6V4.75C8 4.33579 8.33579 4 8.75 4C9.16421 4 9.5 4.33579 9.5 4.75V6.75C9.5 6.94891 9.42098 7.13968 9.28033 7.28033C9.13968 7.42098 8.94891 7.5 8.75 7.5L1.5 7.5V18.75C1.5 19.4404 2.05964 20 2.75 20H16.75ZM19.5 6.75V18.75C19.5 20.2688 18.2688 21.5 16.75 21.5H2.75C1.23122 21.5 0 20.2688 0 18.75V6.75V2.75C0 1.23122 1.23122 0 2.75 0H16.75C18.2688 0 19.5 1.23122 19.5 2.75V6.75Z" fill="#292927"/>
</g>
</svg>
