<svg preserveAspectRatio="xMidYMid meet" overflow="visible" style="display: block;" viewBox="0 0 24 24" fill="none" xmlns="http://www.w3.org/2000/svg">
<g transform="translate(1.9756, 1.3947)">
<path id="Vector" fill-rule="evenodd" clip-rule="evenodd" d="M11.4072 1.5C10.7169 1.5 10.1572 2.05964 10.1572 2.75C10.1572 3.44036 10.7169 4 11.4072 4C12.0976 4 12.6572 3.44036 12.6572 2.75C12.6572 2.05964 12.0976 1.5 11.4072 1.5ZM8.65723 2.75C8.65723 1.23122 9.88844 0 11.4072 0C12.926 0 14.1572 1.23122 14.1572 2.75C14.1572 4.26878 12.926 5.5 11.4072 5.5C9.88844 5.5 8.65723 4.26878 8.65723 2.75ZM9.04636 7.18537L11.3508 9.81897C11.4932 9.98173 11.6989 10.0751 11.9152 10.0751H13.6369C14.0511 10.0751 14.3869 9.7393 14.3869 9.32509C14.3869 8.91088 14.0511 8.57509 13.6369 8.57509H12.2555L9.5849 5.52296C9.54888 5.48178 9.50845 5.44468 9.46435 5.4123L6.64839 3.34469C6.35256 3.12747 5.943 3.15625 5.68045 3.4127L2.29357 6.72089C1.99725 7.01032 1.99167 7.48516 2.2811 7.78148C2.57053 8.0778 3.04537 8.08338 3.34169 7.79395L6.27345 4.9303L7.94665 6.15884L5.12662 9.68382C4.88788 9.98224 4.91171 10.4124 5.18194 10.6827L8.94965 14.4504L7.09711 18.526C7.05057 18.6283 7.02896 18.7357 7.02972 18.8412L1.65284 19.5437C1.24212 19.5974 0.95266 19.9738 1.00632 20.3845C1.05998 20.7953 1.43644 21.0847 1.84716 21.0311L16.7958 19.078L18.7765 20.9989C19.0739 21.2873 19.5487 21.28 19.8371 20.9827C20.1254 20.6854 20.1182 20.2105 19.8208 19.9222L17.8082 17.9703V7.08587L19.7982 5.30952C20.1072 5.03369 20.1341 4.55958 19.8583 4.25057C19.5824 3.94155 19.1083 3.91466 18.7993 4.19049L16.5587 6.19047L16.5574 6.19169L16.5506 6.19782L14.9029 7.69491C14.5963 7.97345 14.5736 8.44778 14.8521 8.75435C15.1307 9.06093 15.605 9.08365 15.9116 8.80511L16.3082 8.44477V17.629L8.70074 18.6229L10.5303 14.5979C10.6596 14.3133 10.5989 13.9783 10.3778 13.7572L6.71727 10.0967L9.04636 7.18537ZM5.92279 13.0445C6.15255 13.3891 6.05942 13.8548 5.71477 14.0846L4.47421 14.9116C4.35101 14.9937 4.20625 15.0376 4.05818 15.0376H0.75C0.335786 15.0376 0 14.7018 0 14.2876C0 13.8734 0.335786 13.5376 0.75 13.5376H3.8311L4.88272 12.8365C5.22737 12.6067 5.69302 12.6999 5.92279 13.0445Z" fill="#292927"/>
</g>
</svg>
