<svg preserveAspectRatio="xMidYMid meet" overflow="visible" style="display: block;" viewBox="0 0 24 24" fill="none" xmlns="http://www.w3.org/2000/svg">
<g transform="translate(2.2500, 2.2500)">
<path id="Vector" fill-rule="evenodd" clip-rule="evenodd" d="M18 16.75C18 17.4404 17.4404 18 16.75 18H14.25C13.8358 18 13.5 18.3358 13.5 18.75C13.5 19.1642 13.8358 19.5 14.25 19.5H16.75C18.2688 19.5 19.5 18.2688 19.5 16.75L19.5 4.75791L19.5 4.75L19.5 4.74209L19.4999 2.74999C19.4999 1.23121 18.2687 0 16.7499 0H2.75C1.23122 0 0 1.23122 0 2.75V16.75C0 18.2688 1.23122 19.5 2.75 19.5H5.25C5.66421 19.5 6 19.1642 6 18.75C6 18.3358 5.66421 18 5.25 18H2.75C2.05964 18 1.5 17.4404 1.5 16.75V5.5H18L18 16.75ZM18 4L17.9999 2.74999C17.9999 2.05964 17.4403 1.5 16.7499 1.5H2.75C2.05964 1.5 1.5 2.05964 1.5 2.75V4H18ZM12.5 18.75C12.5 19.1642 12.1642 19.5 11.75 19.5H7.74999C7.33578 19.5 6.99999 19.1642 6.99999 18.75C6.99999 18.3358 7.33578 18 7.74999 18H8.99999V14.4198C7.24251 14.0368 5.99999 12.3328 5.99999 10.4167V7.75C5.99999 7.33579 6.33578 7 6.74999 7H12.75C13.1642 7 13.5 7.33579 13.5 7.75V10.4167C13.5 12.3328 12.2575 14.0368 10.5 14.4198V18H11.75C12.1642 18 12.5 18.3358 12.5 18.75ZM9.74999 13C10.9203 13 12 11.9197 12 10.4167V8.5H7.49999V10.4167C7.49999 11.9197 8.57973 13 9.74999 13ZM16.2617 2.19156C16.5696 2.46865 16.5946 2.94287 16.3175 3.25075L16.3075 3.26186C16.0304 3.56975 15.5562 3.59471 15.2483 3.31761C14.9404 3.04052 14.9154 2.5663 15.1925 2.25842L15.2025 2.24731C15.4796 1.93942 15.9538 1.91447 16.2617 2.19156ZM13.3175 3.25075C13.5946 2.94287 13.5696 2.46865 13.2617 2.19156C12.9538 1.91447 12.4796 1.93942 12.2025 2.24731L12.1925 2.25842C11.9154 2.5663 11.9404 3.04052 12.2483 3.31761C12.5562 3.59471 13.0304 3.56975 13.3075 3.26186L13.3175 3.25075Z" fill="#292927"/>
</g>
</svg>
