<svg preserveAspectRatio="xMidYMid meet" overflow="visible" style="display: block;" viewBox="0 0 24 24" fill="none" xmlns="http://www.w3.org/2000/svg">
<g transform="translate(3.8750, 3.0416)">
<path id="Vector" fill-rule="evenodd" clip-rule="evenodd" d="M5.9375 2.29167C5.9375 1.71637 6.40387 1.25 6.97917 1.25H9.27083C9.84615 1.25 10.3125 1.71636 10.3125 2.29167V3.33333H5.9375V2.29167ZM4.6875 2.29167V3.33333H0.625C0.279822 3.33333 0 3.61316 0 3.95833C0 4.30351 0.279822 4.58333 0.625 4.58333H15.625C15.9702 4.58333 16.25 4.30351 16.25 3.95833C16.25 3.61316 15.9702 3.33333 15.625 3.33333H11.5625V2.29167C11.5625 1.02602 10.5365 0 9.27083 0H6.97917C5.71351 0 4.6875 1.02601 4.6875 2.29167ZM15.4072 6.56667C15.467 6.22671 15.2399 5.90266 14.8999 5.84288C14.5599 5.78311 14.2359 6.01024 14.1761 6.35021L12.5136 15.8055L12.5136 15.8055C12.4261 16.3036 11.9934 16.6668 11.4878 16.6668H4.76229C4.2566 16.6668 3.82394 16.3035 3.73636 15.8055L2.07389 6.35021C2.01412 6.01024 1.69007 5.78311 1.35011 5.84288C1.01014 5.90265 0.783004 6.2267 0.842778 6.56667L2.50524 16.0219C2.6979 17.1177 3.64972 17.9168 4.76229 17.9168H11.4878C12.6003 17.9168 13.5521 17.1177 13.7447 16.0219L13.7447 16.0219L15.4072 6.56667Z" fill="#292927"/>
</g>
</svg>
