<svg preserveAspectRatio="xMidYMid meet" overflow="visible" style="display: block;" viewBox="0 0 24 24" fill="none" xmlns="http://www.w3.org/2000/svg">
<g transform="translate(2.2499, 3.2500)">
<path id="Vector" fill-rule="evenodd" clip-rule="evenodd" d="M0.110146 6.64109C-0.105845 6.28764 0.00557924 5.82603 0.35902 5.61004L9.35902 0.110039C9.59911 -0.0366796 9.90111 -0.0366796 10.1412 0.110039L19.1412 5.61004C19.4946 5.82603 19.6061 6.28764 19.3901 6.64109C19.1741 6.99453 18.7125 7.10595 18.359 6.88996L9.75011 1.62896L1.14119 6.88996C0.787754 7.10595 0.326138 6.99453 0.110146 6.64109ZM2.00012 16.7501C2.00012 16.3359 2.33591 16.0001 2.75012 16.0001H16.7501C17.1643 16.0001 17.5001 16.3359 17.5001 16.7501C17.5001 17.1643 17.1643 17.5001 16.7501 17.5001H2.75012C2.33591 17.5001 2.00012 17.1643 2.00012 16.7501ZM7.75012 5.00011C7.33591 5.00011 7.00012 5.33589 7.00012 5.75011C7.00012 6.16432 7.33591 6.50011 7.75012 6.50011H11.7501C12.1643 6.50011 12.5001 6.16432 12.5001 5.75011C12.5001 5.33589 12.1643 5.00011 11.7501 5.00011H7.75012ZM3.75012 8.00011C4.16434 8.00011 4.50012 8.33589 4.50012 8.75011L4.50012 13.7501C4.50012 14.1643 4.16434 14.5001 3.75012 14.5001C3.33591 14.5001 3.00012 14.1643 3.00012 13.7501L3.00012 8.75011C3.00012 8.33589 3.33591 8.00011 3.75012 8.00011ZM8.50012 8.75011C8.50012 8.33589 8.16434 8.00011 7.75012 8.00011C7.33591 8.00011 7.00012 8.33589 7.00012 8.75011L7.00012 13.7501C7.00012 14.1643 7.33591 14.5001 7.75012 14.5001C8.16434 14.5001 8.50012 14.1643 8.50012 13.7501V8.75011ZM11.7501 8.00011C12.1643 8.00011 12.5001 8.33589 12.5001 8.75011V13.7501C12.5001 14.1643 12.1643 14.5001 11.7501 14.5001C11.3359 14.5001 11.0001 14.1643 11.0001 13.7501V8.75011C11.0001 8.33589 11.3359 8.00011 11.7501 8.00011ZM16.5001 8.75011C16.5001 8.33589 16.1643 8.00011 15.7501 8.00011C15.3359 8.00011 15.0001 8.33589 15.0001 8.75011V13.7501C15.0001 14.1643 15.3359 14.5001 15.7501 14.5001C16.1643 14.5001 16.5001 14.1643 16.5001 13.7501V8.75011Z" fill="#292927"/>
</g>
</svg>
