<svg preserveAspectRatio="xMidYMid meet" overflow="visible" style="display: block;" viewBox="0 0 24 24" fill="none" xmlns="http://www.w3.org/2000/svg">
<g transform="translate(1.2500, 1.2500)">
<path id="Vector" fill-rule="evenodd" clip-rule="evenodd" d="M2.75 1.5C2.05964 1.5 1.5 2.05964 1.5 2.75V15.75C1.5 16.4404 2.05964 17 2.75 17H18.75C19.4404 17 20 16.4404 20 15.75V2.75C20 2.05964 19.4404 1.5 18.75 1.5H2.75ZM0 2.75C0 1.23122 1.23122 0 2.75 0H18.75C20.2688 0 21.5 1.23122 21.5 2.75V15.75C21.5 17.2688 20.2688 18.5 18.75 18.5H2.75C1.23122 18.5 0 17.2688 0 15.75V2.75ZM5 20.75C5 20.3358 5.33579 20 5.75 20H15.75C16.1642 20 16.5 20.3358 16.5 20.75C16.5 21.1642 16.1642 21.5 15.75 21.5H5.75C5.33579 21.5 5 21.1642 5 20.75ZM7.5 9.25C7.5 7.45507 8.95507 6 10.75 6C11.3877 6 11.9819 6.18316 12.4837 6.5004L7.96622 10.9284C7.67005 10.4385 7.5 9.86447 7.5 9.25ZM9.01627 11.9996L13.5338 7.57156C13.83 8.0615 14 8.63553 14 9.25C14 11.0449 12.5449 12.5 10.75 12.5C10.1123 12.5 9.51811 12.3168 9.01627 11.9996ZM10.75 4.5C8.12665 4.5 6 6.62665 6 9.25C6 10.5443 6.51869 11.719 7.35785 12.575C8.21907 13.4535 9.4214 14 10.75 14C13.3734 14 15.5 11.8734 15.5 9.25C15.5 7.95567 14.9813 6.78098 14.1421 5.92497C13.2809 5.04646 12.0786 4.5 10.75 4.5Z" fill="#292927"/>
</g>
</svg>
