<svg preserveAspectRatio="xMidYMid meet" overflow="visible" style="display: block;" viewBox="0 0 24 24" fill="none" xmlns="http://www.w3.org/2000/svg">
<g transform="translate(1.2499, 2.2853)">
<path id="Vector" fill-rule="evenodd" clip-rule="evenodd" d="M0.0793439 6.01459C-0.105898 5.64411 0.0442702 5.1936 0.414754 5.00836L10.1464 0.142523C10.5265 -0.0475071 10.9738 -0.0475085 11.3539 0.142523L21.0856 5.00836C21.4561 5.1936 21.6062 5.64411 21.421 6.01459C21.2357 6.38508 20.7852 6.53524 20.4148 6.35L10.7502 1.51771L1.08557 6.35C0.715091 6.53524 0.264586 6.38507 0.0793439 6.01459ZM10.06 6.08376C10.5126 5.96642 10.9877 5.96642 11.4403 6.08376L13.489 6.61489C14.0796 6.76802 14.5134 7.30918 14.4921 7.94732C14.4041 10.591 13.6044 12.2061 12.7438 13.1711C12.3185 13.6481 11.8923 13.9503 11.561 14.1359C11.3957 14.2286 11.2541 14.2922 11.1482 14.3342C11.0952 14.3552 11.0509 14.3708 11.0169 14.382C10.9999 14.3876 10.9855 14.3921 10.9737 14.3957L10.9582 14.4002L10.952 14.402L10.9493 14.4027L10.948 14.4031C10.9474 14.4032 10.9468 14.4034 10.7502 13.6796C10.5535 14.4034 10.5529 14.4032 10.5523 14.4031L10.5511 14.4027L10.5484 14.402L10.5422 14.4002L10.5266 14.3957C10.5149 14.3921 10.5004 14.3876 10.4834 14.382C10.4494 14.3708 10.4052 14.3552 10.3522 14.3342C10.2462 14.2922 10.1047 14.2286 9.93929 14.1359C9.60803 13.9503 9.18184 13.6481 8.75651 13.1711C7.89595 12.2061 7.09624 10.591 7.00821 7.94732C6.98696 7.30918 7.42075 6.76802 8.01137 6.61489L10.06 6.08376ZM10.7502 13.6796L10.9468 14.4034C10.8181 14.4384 10.6823 14.4384 10.5535 14.4034L10.7502 13.6796ZM10.7502 12.869C10.7743 12.8566 10.8002 12.8428 10.8277 12.8274C11.0315 12.7132 11.3223 12.5115 11.6243 12.1728C12.2067 11.5197 12.8875 10.2925 12.9876 8.03451L11.0639 7.53575C10.8581 7.48242 10.6422 7.48242 10.4365 7.53575L8.5127 8.03451C8.61283 10.2925 9.29364 11.5197 9.87605 12.1728C10.1781 12.5115 10.4688 12.7132 10.6727 12.8274C10.7001 12.8428 10.726 12.8566 10.7502 12.869ZM3.50017 8.67934C3.50017 8.26513 3.16438 7.92934 2.75017 7.92934C2.33595 7.92934 2.00017 8.26513 2.00017 8.67934V16.6793C2.00017 18.1981 3.23138 19.4293 4.75017 19.4293H16.7502C18.269 19.4293 19.5002 18.1981 19.5002 16.6793V8.67934C19.5002 8.26513 19.1644 7.92934 18.7502 7.92934C18.336 7.92934 18.0002 8.26513 18.0002 8.67934V16.6793C18.0002 17.3697 17.4405 17.9293 16.7502 17.9293H4.75017C4.05981 17.9293 3.50017 17.3697 3.50017 16.6793V8.67934Z" fill="#292927"/>
</g>
</svg>
