<svg preserveAspectRatio="xMidYMid meet" overflow="visible" style="display: block;" viewBox="0 0 24 24" fill="none" xmlns="http://www.w3.org/2000/svg">
<g transform="translate(1.2058, 4.8350)">
<path id="Vector" fill-rule="evenodd" clip-rule="evenodd" d="M8.98567 7.16503L1.5 12.6808V1.64927L8.98567 7.16503ZM2.15082 0.265601C1.25947 -0.391187 0 0.245225 0 1.35243V12.9776C0 14.0848 1.25946 14.7212 2.15082 14.0645L10.0394 8.25186C10.7716 7.71231 10.7716 6.61775 10.0394 6.0782L2.15082 0.265601ZM19.9857 7.16503L12.5 12.6808V1.64927L19.9857 7.16503ZM13.1508 0.265601C12.2595 -0.391187 11 0.245225 11 1.35243V12.9776C11 14.0848 12.2595 14.7212 13.1508 14.0645L21.0394 8.25186C21.7716 7.71231 21.7716 6.61775 21.0394 6.0782L13.1508 0.265601Z" fill="#292927"/>
</g>
</svg>
