<svg preserveAspectRatio="xMidYMid meet" overflow="visible" style="display: block;" viewBox="0 0 24 24" fill="none" xmlns="http://www.w3.org/2000/svg">
<g transform="translate(1.7503, 2.2498)">
<path id="Vector" fill-rule="evenodd" clip-rule="evenodd" d="M17.2788 0.21908C16.9857 -0.073365 16.5111 -0.0729769 16.2185 0.219948L16.215 0.223448L16.2072 0.231277L16.1794 0.259555C16.1556 0.283888 16.1215 0.319044 16.0785 0.36402C15.9925 0.453927 15.8709 0.58333 15.7255 0.744172C15.4354 1.06502 15.0468 1.51505 14.6561 2.02914C14.2673 2.54072 13.8649 3.13069 13.5559 3.73057C13.2544 4.31607 13.0034 4.98391 13 5.63264L13 5.64195C13.015 7.70258 14.675 9.38651 16.7497 9.38651C18.8194 9.38651 20.4998 7.70644 20.4994 5.63638C20.4993 4.98611 20.2487 4.31702 19.9474 3.73126C19.6386 3.13097 19.2355 2.54068 18.8458 2.02895C18.4542 1.51468 18.0645 1.06448 17.7735 0.743525C17.6276 0.582624 17.5056 0.453169 17.4193 0.363225C17.3762 0.318231 17.3419 0.283058 17.318 0.258713L17.2901 0.23042L17.2823 0.222585L17.2788 0.21908ZM17.6524 2.9377C17.3314 2.51605 17.0088 2.13794 16.7499 1.84845C16.4919 2.13779 16.1705 2.51555 15.8503 2.9368C15.4906 3.41009 15.1439 3.92337 14.8895 4.41728C14.6291 4.9231 14.5028 5.33802 14.5 5.63603C14.5117 6.88447 15.515 7.88651 16.7497 7.88651C17.9911 7.88651 18.9997 6.87794 18.9994 5.63664C18.9994 5.34034 18.8748 4.92533 18.6135 4.41739C18.3597 3.92398 18.0128 3.41096 17.6524 2.9377ZM2 0.75C2 0.335786 2.33579 6.51326e-09 2.75 6.51326e-09H8.75H10.75C11.1642 6.51326e-09 11.5 0.335786 11.5 0.75C11.5 1.16421 11.1642 1.5 10.75 1.5H9.5V3H10.75C11.1642 3 11.5 3.33579 11.5 3.75C11.5 4.16421 11.1642 4.5 10.75 4.5H9.5V6H10.75C11.1642 6 11.5 6.33579 11.5 6.75C11.5 7.16421 11.1642 7.5 10.75 7.5H9.5V9.39142C10.7235 10.4449 11.5 12.0071 11.5 13.7504C11.5 16.926 8.92564 19.5004 5.75 19.5004C2.57436 19.5004 0 16.926 0 13.7504C0 12.0071 0.776508 10.4449 2 9.39142V0.75ZM8 6.75V3.75V1.5H3.5V9.57738C3.5 9.6065 3.49834 9.63523 3.49511 9.66349C3.5246 9.91944 3.42131 10.1838 3.20043 10.3497C2.16646 11.1264 1.5 12.3604 1.5 13.7504C1.5 16.0976 3.40279 18.0004 5.75 18.0004C8.09721 18.0004 10 16.0976 10 13.7504C10 12.3604 9.33354 11.1264 8.29957 10.3497C8.07869 10.1838 7.9754 9.91944 8.00489 9.66349C8.00166 9.63523 8 9.6065 8 9.57738V6.75ZM5.75 6C6.16421 6 6.5 6.33579 6.5 6.75V11.1035C7.65425 11.43 8.5 12.4912 8.5 13.75C8.5 15.2688 7.26878 16.5 5.75 16.5C4.23122 16.5 3 15.2688 3 13.75C3 12.4912 3.84575 11.43 5 11.1035V6.75C5 6.33579 5.33579 6 5.75 6ZM5.75 12.5C5.05964 12.5 4.5 13.0596 4.5 13.75C4.5 14.4404 5.05964 15 5.75 15C6.44036 15 7 14.4404 7 13.75C7 13.0596 6.44036 12.5 5.75 12.5Z" fill="#292927"/>
</g>
</svg>
