<svg preserveAspectRatio="xMidYMid meet" overflow="visible" style="display: block;" viewBox="0 0 24 24" fill="none" xmlns="http://www.w3.org/2000/svg">
<g transform="translate(2.2500, 2.2500)">
<path id="Vector" fill-rule="evenodd" clip-rule="evenodd" d="M18 1.5V18H1.5V1.5H18ZM18.15 19.5C18.8956 19.5 19.5 18.8956 19.5 18.15V1.35C19.5 0.604418 18.8956 0 18.15 0H1.35C0.604418 0 0 0.604414 0 1.35V18.15C0 18.8956 0.604414 19.5 1.35 19.5H18.15ZM14.5 13.75C14.5 14.1642 14.1642 14.5 13.75 14.5H10.75H5.75C5.33579 14.5 5 14.1642 5 13.75V5.75C5 5.33579 5.33579 5 5.75 5H13.75C14.1642 5 14.5 5.33579 14.5 5.75V13.75ZM11.5 8.75V13H13V6.5H6.5V13H10V8.75C10 8.33579 10.3358 8 10.75 8C11.1642 8 11.5 8.33579 11.5 8.75Z" fill="#292927"/>
</g>
</svg>
