<svg preserveAspectRatio="xMidYMid meet" overflow="visible" style="display: block;" viewBox="0 0 24 24" fill="none" xmlns="http://www.w3.org/2000/svg">
<g transform="translate(0.8925, 1.2500)">
<path id="Vector" fill-rule="evenodd" clip-rule="evenodd" d="M4.30747 1.5C3.61711 1.5 3.05746 2.05964 3.05746 2.75V12.2222H19.1575V2.75C19.1575 2.05964 18.5978 1.5 17.9075 1.5H4.30747ZM19.3402 13.7222H2.87475L1.54884 18.4098C1.32318 19.2076 1.92255 20 2.75165 20H19.4633C20.2924 20 20.8918 19.2076 20.6661 18.4098L19.3402 13.7222ZM1.55746 12.8682V2.75C1.55746 1.23122 2.78868 0 4.30747 0H17.9075C19.4262 0 20.6575 1.23122 20.6575 2.75V12.8682L22.1095 18.0015C22.6059 19.7567 21.2873 21.5 19.4633 21.5H2.75165C0.927629 21.5 -0.39099 19.7567 0.105469 18.0015L1.55746 12.8682ZM11.1384 3.09452C11.5005 3.29568 11.6309 3.75228 11.4298 4.11437L10.3821 6.00014H13.1075C13.3732 6.00014 13.6191 6.14076 13.7539 6.36979C13.8886 6.59882 13.8921 6.88207 13.7631 7.11437L12.0964 10.1144C11.8953 10.4765 11.4387 10.6069 11.0766 10.4058C10.7145 10.2046 10.584 9.74799 10.7852 9.3859L11.8328 7.50014H9.10747C8.84173 7.50014 8.59583 7.35952 8.46106 7.13048C8.3263 6.90145 8.32279 6.6182 8.45185 6.3859L10.1185 3.3859C10.3197 3.02382 10.7763 2.89336 11.1384 3.09452ZM10.1075 17C9.69325 17 9.35747 17.3358 9.35747 17.75C9.35747 18.1642 9.69325 18.5 10.1075 18.5L12.1075 18.5C12.5217 18.5 12.8575 18.1642 12.8575 17.75C12.8575 17.3358 12.5217 17 12.1075 17L10.1075 17Z" fill="#292927"/>
</g>
</svg>
