<svg preserveAspectRatio="xMidYMid meet" overflow="visible" style="display: block;" viewBox="0 0 24 24" fill="none" xmlns="http://www.w3.org/2000/svg">
<g transform="translate(1.2500, 1.2500)">
<path id="Vector" fill-rule="evenodd" clip-rule="evenodd" d="M1.91565 8C1.64552 8.86874 1.5 9.79238 1.5 10.75C1.5 11.7076 1.64552 12.6313 1.91565 13.5H6.20263C6.07535 12.6401 6 11.7211 6 10.7504C6 9.77944 6.0754 8.86018 6.20275 8H1.91565ZM2.532 6.5H6.48697C6.77991 5.23395 7.17076 4.13296 7.5614 3.2279C7.78896 2.70068 8.01688 2.2389 8.22615 1.84851C5.74916 2.54943 3.69466 4.25638 2.532 6.5ZM7.72056 8C7.58289 8.85444 7.5 9.77424 7.5 10.7504C7.5 11.7263 7.58284 12.6458 7.72042 13.5H13.7794C13.9171 12.6455 14 11.7257 14 10.7495C14 9.77366 13.9172 8.85418 13.7796 8H7.72056ZM13.4701 6.5H8.03012C8.28868 5.47501 8.61355 4.57541 8.9386 3.82232C9.29818 2.98921 9.65669 2.33844 9.92267 1.89952C10.0158 1.74585 10.0974 1.61835 10.1637 1.51828C10.3576 1.50615 10.5531 1.5 10.75 1.5C10.9472 1.5 11.1429 1.50617 11.337 1.51832C11.4031 1.61824 11.4845 1.74542 11.5773 1.89859C11.8433 2.33751 12.2018 2.98829 12.5614 3.82139C12.8866 4.57471 13.2115 5.47463 13.4701 6.5ZM15.2974 8C15.4247 8.85991 15.5 9.77886 15.5 10.7495C15.5 11.7205 15.4246 12.6398 15.2972 13.5H19.5843C19.8545 12.6313 20 11.7076 20 10.75C20 9.79238 19.8545 8.86874 19.5843 8H15.2974ZM18.968 6.5H15.0133C14.7203 5.23356 14.3293 4.13225 13.9386 3.22697C13.7113 2.70024 13.4836 2.23884 13.2744 1.84868C15.7512 2.5497 17.8054 4.25656 18.968 6.5ZM20.8208 6.98123C19.4171 3.23179 15.9794 0.475591 11.8508 0.0556688C11.8329 0.0532414 11.8149 0.0514568 11.7968 0.0503201C11.4524 0.0170322 11.1032 0 10.75 0C4.81294 0 0 4.81294 0 10.75C0 16.3164 4.23072 20.8946 9.65203 21.4446C9.66808 21.4467 9.68419 21.4483 9.70034 21.4494C10.0457 21.4829 10.3959 21.5 10.75 21.5C15.361 21.5 19.294 18.5969 20.8208 14.5188L20.8255 14.5062C21.2616 13.3369 21.5 12.0713 21.5 10.75C21.5 9.4287 21.2616 8.16308 20.8255 6.9938C20.824 6.98959 20.8224 6.9854 20.8208 6.98123ZM8.22562 19.6513C5.74887 18.9503 3.69458 17.2435 2.532 15H6.48678C6.77974 16.2664 7.17068 17.3677 7.5614 18.2729C7.78877 18.7997 8.0165 19.2612 8.22562 19.6513ZM8.9386 17.6785C8.61346 16.9252 8.2885 16.0253 8.02991 15H13.4699C13.2113 16.025 12.8865 16.9245 12.5614 17.6776C12.2018 18.5107 11.8433 19.1615 11.5773 19.6004C11.4842 19.7541 11.4025 19.8816 11.3363 19.9817C11.1424 19.9938 10.9469 20 10.75 20C10.5529 20 10.3572 19.9938 10.1631 19.9817C10.097 19.8817 10.0155 19.7545 9.92267 19.6013C9.65669 19.1624 9.29818 18.5116 8.9386 17.6785ZM13.9386 18.272C14.3292 17.367 14.7201 16.266 15.013 15H18.968C17.8053 17.2436 15.7508 18.9506 13.2738 19.6515C13.4831 19.2611 13.711 18.7993 13.9386 18.272Z" fill="#292927"/>
</g>
</svg>
