<svg preserveAspectRatio="xMidYMid meet" overflow="visible" style="display: block;" viewBox="0 0 24 24" fill="none" xmlns="http://www.w3.org/2000/svg">
<g transform="translate(2.2500, 1.2500)">
<path id="Vector" fill-rule="evenodd" clip-rule="evenodd" d="M0 2.75C0 4.26878 1.23122 5.5 2.75 5.5C4.00878 5.5 5.07002 4.65425 5.39648 3.5H6.75C7.16421 3.5 7.5 3.16421 7.5 2.75C7.5 2.33579 7.16421 2 6.75 2H5.39648C5.07002 0.845747 4.00878 0 2.75 0C1.23122 0 0 1.23122 0 2.75ZM2.75 4C2.05964 4 1.5 3.44036 1.5 2.75C1.5 2.05964 2.05964 1.5 2.75 1.5C3.44036 1.5 4 2.05964 4 2.75C4 3.44036 3.44036 4 2.75 4ZM16.75 17.5C17.4404 17.5 18 18.0596 18 18.75C18 19.4404 17.4404 20 16.75 20C16.0596 20 15.5 19.4404 15.5 18.75C15.5 18.0596 16.0596 17.5 16.75 17.5ZM19.5 18.75C19.5 17.2312 18.2688 16 16.75 16C15.4912 16 14.43 16.8457 14.1035 18H12.75C12.3358 18 12 18.3358 12 18.75C12 19.1642 12.3358 19.5 12.75 19.5H14.1035C14.43 20.6543 15.4912 21.5 16.75 21.5C18.2688 21.5 19.5 20.2688 19.5 18.75ZM9.75 2C9.33579 2 9 2.33579 9 2.75C9 3.16421 9.33579 3.5 9.75 3.5H11.75C12.1642 3.5 12.5 3.16421 12.5 2.75C12.5 2.33579 12.1642 2 11.75 2H9.75ZM7 18.75C7 18.3358 7.33579 18 7.75 18H9.75C10.1642 18 10.5 18.3358 10.5 18.75C10.5 19.1642 10.1642 19.5 9.75 19.5H7.75C7.33579 19.5 7 19.1642 7 18.75ZM0.75 19.5C3.03215 19.5 4.83975 18.349 6.35399 16.7689C7.84516 15.2129 9.12905 13.1587 10.3604 11.1885L10.386 11.1475C11.6469 9.13011 12.8555 7.20213 14.229 5.76893C15.5897 4.34901 17.0322 3.5 18.75 3.5C19.1642 3.5 19.5 3.16421 19.5 2.75C19.5 2.33579 19.1642 2 18.75 2C16.4678 2 14.6603 3.15099 13.146 4.73107C11.6548 6.28707 10.371 8.34133 9.13965 10.3115L9.114 10.3525C7.85313 12.3699 6.64449 14.2979 5.27101 15.7311C3.91025 17.151 2.46785 18 0.75 18C0.335786 18 0 18.3358 0 18.75C0 19.1642 0.335786 19.5 0.75 19.5Z" fill="#292927"/>
</g>
</svg>
