<svg preserveAspectRatio="xMidYMid meet" overflow="visible" style="display: block;" viewBox="0 0 24 24" fill="none" xmlns="http://www.w3.org/2000/svg">
<g transform="translate(1.5000, 2.2500)">
<path id="Vector" fill-rule="evenodd" clip-rule="evenodd" d="M1.50396 9C1.62798 5.08658 4.65329 1.90521 8.5 1.53582V9H1.50396ZM1.60017 10.5C1.76773 11.5341 2.13982 12.4989 2.67348 13.3524C2.89308 13.7036 2.78638 14.1663 2.43516 14.3859C2.08395 14.6055 1.62122 14.4988 1.40162 14.1476C0.5133 12.7268 0 11.0472 0 9.25C0 4.14137 4.14137 0 9.25 0C9.66421 0 10 0.335786 10 0.75V9H17V7.25C17 6.83579 17.3358 6.5 17.75 6.5H20.25C20.6642 6.5 21 6.83579 21 7.25C21 7.66421 20.6642 8 20.25 8H18.5V9.25C18.5 11.0472 17.9867 12.7268 17.0984 14.1476C16.8788 14.4988 16.4161 14.6055 16.0649 14.3859C15.7136 14.1663 15.6069 13.7036 15.8265 13.3524C16.3602 12.4989 16.7323 11.5341 16.8998 10.5H9.25H1.60017ZM5.75 15.5C6.44036 15.5 7 16.0596 7 16.75C7 17.4404 6.44036 18 5.75 18C5.05964 18 4.5 17.4404 4.5 16.75C4.5 16.0596 5.05964 15.5 5.75 15.5ZM8.5 16.75C8.5 15.2312 7.26878 14 5.75 14C4.23122 14 3 15.2312 3 16.75C3 18.2688 4.23122 19.5 5.75 19.5C7.26878 19.5 8.5 18.2688 8.5 16.75ZM14 16.75C14 16.0596 13.4404 15.5 12.75 15.5C12.0596 15.5 11.5 16.0596 11.5 16.75C11.5 17.4404 12.0596 18 12.75 18C13.4404 18 14 17.4404 14 16.75ZM12.75 14C14.2688 14 15.5 15.2312 15.5 16.75C15.5 18.2688 14.2688 19.5 12.75 19.5C11.2312 19.5 10 18.2688 10 16.75C10 15.2312 11.2312 14 12.75 14Z" fill="#292927"/>
</g>
</svg>
