<svg preserveAspectRatio="xMidYMid meet" overflow="visible" style="display: block;" viewBox="0 0 24 24" fill="none" xmlns="http://www.w3.org/2000/svg">
<g transform="translate(2.2500, 2.2500)">
<path id="Vector" fill-rule="evenodd" clip-rule="evenodd" d="M1.5 2.75C1.5 2.05964 2.05964 1.5 2.75 1.5H12V4H1.5V2.75ZM0 4.75V2.75C0 1.23122 1.23122 0 2.75 0H12.75H16.75C18.2688 0 19.5 1.23122 19.5 2.75V18.75C19.5 19.1642 19.1642 19.5 18.75 19.5C18.3358 19.5 18 19.1642 18 18.75V2.75C18 2.05964 17.4404 1.5 16.75 1.5H13.5V4.75V8.75V18.75C13.5 19.1642 13.1642 19.5 12.75 19.5C12.3358 19.5 12 19.1642 12 18.75V9.5H2.75C1.23122 9.5 0 8.26878 0 6.75V4.75ZM12 5.5V8H2.75C2.05964 8 1.5 7.44036 1.5 6.75V5.5H12ZM16.5 16.75C16.5 16.3358 16.1642 16 15.75 16C15.3358 16 15 16.3358 15 16.75V18.75C15 19.1642 15.3358 19.5 15.75 19.5C16.1642 19.5 16.5 19.1642 16.5 18.75V16.75Z" fill="#292927"/>
</g>
</svg>
