<svg preserveAspectRatio="xMidYMid meet" overflow="visible" style="display: block;" viewBox="0 0 24 24" fill="none" xmlns="http://www.w3.org/2000/svg">
<g transform="translate(2.3137, 1.6188)">
<path id="Vector" fill-rule="evenodd" clip-rule="evenodd" d="M2.0072 1.36317C3.32888 0.253189 5.06729 -1.96692e-06 6.62274 0H12.6227C13.723 0 15.4009 0.270995 16.823 1.3375C18.2841 2.43334 19.3729 4.29323 19.3727 7.25L19.3727 11.25C19.3727 12.4414 18.9553 13.445 18.1797 14.2302C17.4219 14.9973 16.3631 15.516 15.1309 15.849C12.873 16.4593 9.84482 16.496 6.43016 16.1058C6.50508 16.2837 6.62473 16.4243 6.77448 16.5454C7.14357 16.844 7.75134 17.0592 8.54451 17.1755C10.1159 17.406 12.0236 17.1956 12.983 17.0133C13.2024 16.9716 13.429 17.0298 13.6011 17.1722C13.7732 17.3146 13.8729 17.5263 13.873 17.7497C13.8732 18.0833 13.8731 18.417 13.8731 18.7505L13.873 19.2501C13.873 19.5729 13.6664 19.8595 13.3602 19.9616C12.5678 20.2257 9.69562 21.0136 6.8489 20.6826C5.41569 20.5159 3.93098 20.059 2.72758 19.0518C1.51227 18.0345 0.654378 16.5146 0.381315 14.3631C0.380302 14.3564 0.379375 14.3498 0.378535 14.343C0.128473 12.3427 0.086977 10.4495 0.0510198 8.80904C0.0391961 8.2696 0.0279713 7.7575 0.0101267 7.27789C-0.0970792 4.39111 0.652185 2.50115 2.0072 1.36317ZM1.86458 14.1379C1.86553 14.1443 1.86641 14.1506 1.86721 14.157C2.09697 15.995 2.80005 17.1563 3.69036 17.9015C4.59635 18.6599 5.76788 19.0468 7.02216 19.1926C9.12366 19.437 11.2939 18.9862 12.3731 18.6916L12.3731 18.6261C11.2556 18.7693 9.70678 18.862 8.32684 18.6596C7.4325 18.5285 6.50898 18.2599 5.83112 17.7116C5.10369 17.1232 4.72309 16.2615 4.87769 15.1633C4.87818 15.1592 4.8787 15.155 4.87925 15.1509C4.93399 14.7403 5.31121 14.4518 5.72179 14.5066C9.43741 15.002 12.5703 14.9873 14.7395 14.401C15.8198 14.109 16.6047 13.6902 17.1125 13.1761C17.6026 12.68 17.8727 12.0586 17.8727 11.25L17.8727 7.25C17.8729 4.70679 16.9618 3.31665 15.923 2.5375C14.845 1.729 13.5227 1.5 12.6227 1.5H6.62274C5.17809 1.5 3.8828 1.74681 2.97188 2.51183C2.09429 3.24885 1.41204 4.60894 1.50909 7.22217C1.52839 7.74075 1.54021 8.27821 1.55243 8.83386L1.55243 8.8339L1.55244 8.83408C1.58808 10.4542 1.62711 12.2287 1.86458 14.1379ZM5.37299 7.25001C5.37299 6.73275 5.57805 6.38392 5.87276 6.14815C6.18653 5.89713 6.63782 5.75 7.12298 5.75C7.60815 5.75 8.05944 5.89713 8.37321 6.14816C8.66792 6.38392 8.87299 6.73276 8.87299 7.25001V10.249V10.25V10.25C8.87299 10.2629 8.87331 10.2758 8.87396 10.2886C8.87845 10.3772 8.89833 10.4618 8.93098 10.5397C8.9878 10.6753 9.08329 10.7906 9.20365 10.8719C9.32335 10.9528 9.46766 11 9.62299 11C9.83029 11 10.018 10.9159 10.1537 10.7799C10.2214 10.7122 10.2762 10.6315 10.314 10.5419C10.352 10.4522 10.373 10.3536 10.373 10.25V10.25V10.249V7.25001C10.373 6.73276 10.578 6.38392 10.8728 6.14816C11.1865 5.89713 11.6378 5.75 12.123 5.75C12.6082 5.75 13.0594 5.89713 13.3732 6.14815C13.6679 6.38392 13.873 6.73275 13.873 7.25001V11.7492C13.873 12.1634 14.2088 12.5 14.623 12.5C15.0372 12.5 15.373 12.1642 15.373 11.75V7.25001C15.373 6.26726 14.953 5.49108 14.3103 4.97685C13.6865 4.47787 12.8878 4.25 12.123 4.25C11.3582 4.25 10.5594 4.47787 9.93571 4.97685C9.82445 5.06586 9.71987 5.16272 9.62299 5.26714C9.5261 5.16272 9.42152 5.06586 9.31026 4.97685C8.68653 4.47787 7.88782 4.25 7.12299 4.25C6.35816 4.25 5.55944 4.47787 4.93571 4.97685C4.29292 5.49108 3.87299 6.26726 3.87299 7.25001V11.75C3.87299 12.1642 4.20877 12.5 4.62299 12.5C5.0372 12.5 5.37299 12.1634 5.37299 11.7492V7.25001Z" fill="#292927"/>
</g>
</svg>
