<svg preserveAspectRatio="xMidYMid meet" overflow="visible" style="display: block;" viewBox="0 0 24 24" fill="none" xmlns="http://www.w3.org/2000/svg">
<g transform="translate(1.2500, 2.0625)">
<path id="Vector" fill-rule="evenodd" clip-rule="evenodd" d="M20.3 4.725C14.5667 0.425002 6.93338 0.424999 1.20004 4.725C0.868673 4.97353 0.398572 4.90637 0.150044 4.575C-0.098484 4.24363 -0.0313267 3.77353 0.300044 3.525C6.56671 -1.175 14.9334 -1.175 21.2 3.525C21.5314 3.77353 21.5986 4.24363 21.35 4.575C21.1015 4.90637 20.6314 4.97353 20.3 4.725ZM11.2618 15.0666C11.5696 15.3437 11.5946 15.8179 11.3175 16.1258L11.3075 16.1369C11.0304 16.4447 10.5562 16.4697 10.2483 16.1926C9.94043 15.9155 9.91547 15.4413 10.1926 15.1334L10.2026 15.1223C10.4797 14.8144 10.9539 14.7895 11.2618 15.0666ZM4.20004 8.725C7.93338 5.925 13.5667 5.925 17.3 8.725C17.6314 8.97353 18.1015 8.90637 18.35 8.575C18.5986 8.24363 18.5314 7.77353 18.2 7.525C13.9334 4.325 7.56671 4.325 3.30004 7.525C2.96867 7.77353 2.90152 8.24363 3.15004 8.575C3.39857 8.90637 3.86867 8.97353 4.20004 8.725ZM13.8539 12.2621C11.8463 11.0128 9.65418 11.013 7.64621 12.2622C7.2945 12.481 6.83201 12.3732 6.61321 12.0215C6.39441 11.6698 6.50216 11.2073 6.85387 10.9885C9.34679 9.43766 12.1534 9.43716 14.6464 10.9886C14.9981 11.2074 15.1058 11.6699 14.8869 12.0216C14.6681 12.3733 14.2055 12.481 13.8539 12.2621ZM18.25 11.375C17.3231 11.375 16.6805 11.7995 16.2982 12.3571C15.943 12.875 15.8334 13.4705 15.8334 13.875V14.9774C15.3441 15.1802 15 15.6624 15 16.225V18.525C15 19.2706 15.6044 19.875 16.35 19.875H20.15C20.8956 19.875 21.5 19.2706 21.5 18.525V16.225C21.5 15.6624 21.1559 15.1802 20.6667 14.9774V13.875C20.6667 13.4705 20.557 12.875 20.2019 12.3571C19.8195 11.7995 19.1769 11.375 18.25 11.375ZM19.1667 13.875V14.875H17.3334V13.875C17.3334 13.6962 17.3903 13.4167 17.5352 13.2054C17.6529 13.0339 17.8436 12.875 18.25 12.875C18.6565 12.875 18.8472 13.0339 18.9648 13.2054C19.1097 13.4167 19.1667 13.6962 19.1667 13.875ZM16.5 18.375V16.375H20V18.375H16.5Z" fill="#292927"/>
</g>
</svg>
