<svg preserveAspectRatio="xMidYMid meet" overflow="visible" style="display: block;" viewBox="0 0 24 24" fill="none" xmlns="http://www.w3.org/2000/svg">
<g transform="translate(3.2500, 3.2500)">
<path id="Vector" fill-rule="evenodd" clip-rule="evenodd" d="M7.28033 14.2803L4.28033 17.2803C3.98744 17.5732 3.51256 17.5732 3.21967 17.2803L0.21967 14.2803C-0.0732233 13.9874 -0.0732233 13.5126 0.21967 13.2197C0.512563 12.9268 0.987437 12.9268 1.28033 13.2197L3 14.9393V0.75C3 0.335787 3.33579 0 3.75 0C4.16421 0 4.5 0.335787 4.5 0.75V14.9393L6.21967 13.2197C6.51256 12.9268 6.98744 12.9268 7.28033 13.2197C7.57322 13.5126 7.57322 13.9874 7.28033 14.2803ZM14.2803 0.21967C13.9874 -0.0732232 13.5126 -0.0732232 13.2197 0.21967L10.2197 3.21967C9.92678 3.51256 9.92678 3.98744 10.2197 4.28033C10.5126 4.57322 10.9874 4.57322 11.2803 4.28033L13 2.56066V16.75C13 17.1642 13.3358 17.5 13.75 17.5C14.1642 17.5 14.5 17.1642 14.5 16.75V2.56066L16.2197 4.28033C16.5126 4.57322 16.9874 4.57322 17.2803 4.28033C17.5732 3.98744 17.5732 3.51256 17.2803 3.21967L14.2803 0.21967Z" fill="#292927"/>
</g>
</svg>
