<svg preserveAspectRatio="xMidYMid meet" overflow="visible" style="display: block;" viewBox="0 0 24 24" fill="none" xmlns="http://www.w3.org/2000/svg">
<g transform="translate(4.0000, 6.2500)">
<path id="Vector" fill-rule="evenodd" clip-rule="evenodd" d="M4.53709 0.056909C4.62555 0.0935089 4.70842 0.147763 4.78033 0.21967L8.28033 3.71967C8.57322 4.01256 8.57322 4.48744 8.28033 4.78033C7.98744 5.07322 7.51256 5.07322 7.21967 4.78033L5 2.56066V6.75C5 8.54493 6.45507 10 8.25 10H15.25C15.6642 10 16 10.3358 16 10.75C16 11.1642 15.6642 11.5 15.25 11.5H8.25C5.62665 11.5 3.5 9.37335 3.5 6.75V2.56066L1.28033 4.78033C0.987436 5.07322 0.512563 5.07322 0.21967 4.78033C-0.0732232 4.48744 -0.0732232 4.01256 0.21967 3.71967L3.71967 0.21967C3.86612 0.0732233 4.05806 0 4.25 0C4.35169 0 4.44866 0.0202391 4.53709 0.056909Z" fill="#292927"/>
</g>
</svg>
