<svg preserveAspectRatio="xMidYMid meet" overflow="visible" style="display: block;" viewBox="0 0 24 24" fill="none" xmlns="http://www.w3.org/2000/svg">
<g transform="translate(1.2500, 2.2500)">
<path id="Vector" fill-rule="evenodd" clip-rule="evenodd" d="M3.5 2.75C3.5 2.05964 4.05964 1.5 4.75 1.5H7V3.75C7 4.16421 7.33579 4.5 7.75 4.5C8.16421 4.5 8.5 4.16421 8.5 3.75V1.5H15V6H13.25C12.8358 6 12.5 6.33579 12.5 6.75C12.5 7.16421 12.8358 7.5 13.25 7.5H15.15C15.8956 7.5 16.5 6.89558 16.5 6.15V1.64188C16.6116 1.70014 16.7148 1.77544 16.8055 1.86612L19.6339 4.69454C19.8683 4.92896 20 5.24691 20 5.57843V16.75C20 17.4404 19.4404 18 18.75 18H18.5V11.35C18.5 10.6044 17.8956 10 17.15 10H14.75C14.3358 10 14 10.3358 14 10.75C14 11.1642 14.3358 11.5 14.75 11.5H17V18H6.5V14.75C6.5 14.3358 6.16421 14 5.75 14C5.33579 14 5 14.3358 5 14.75V18H4.75C4.05964 18 3.5 17.4404 3.5 16.75V14.25C3.5 13.8358 3.16421 13.5 2.75 13.5C2.33579 13.5 2 13.8358 2 14.25V16.75C2 18.2688 3.23122 19.5 4.75 19.5H5.75H17.75H18.75C20.2688 19.5 21.5 18.2688 21.5 16.75V5.57843C21.5 4.84908 21.2103 4.14961 20.6945 3.63388L17.8661 0.805456C17.3504 0.289731 16.6509 0 15.9216 0H15.75H7.75H4.75C3.23122 0 2 1.23122 2 2.75V5.25C2 5.66421 2.33579 6 2.75 6C3.16421 6 3.5 5.66421 3.5 5.25V2.75ZM9.28033 6.21967L12.2803 9.21967C12.5732 9.51256 12.5732 9.98744 12.2803 10.2803L9.28033 13.2803C8.98744 13.5732 8.51256 13.5732 8.21967 13.2803C7.92678 12.9874 7.92678 12.5126 8.21967 12.2197L9.93934 10.5H0.75C0.335787 10.5 0 10.1642 0 9.75C0 9.33579 0.335787 9 0.75 9H9.93934L8.21967 7.28033C7.92678 6.98744 7.92678 6.51256 8.21967 6.21967C8.51256 5.92678 8.98744 5.92678 9.28033 6.21967Z" fill="#292927"/>
</g>
</svg>
