<svg preserveAspectRatio="xMidYMid meet" overflow="visible" style="display: block;" viewBox="0 0 24 24" fill="none" xmlns="http://www.w3.org/2000/svg">
<g transform="translate(1.2746, 1.2500)">
<path id="Vector" fill-rule="evenodd" clip-rule="evenodd" d="M10.7007 1.5C5.90469 1.5 1.9604 5.15058 1.49639 9.8241C1.45546 10.2363 1.08814 10.5373 0.675955 10.4963C0.263768 10.4554 -0.0371994 10.0881 0.003725 9.6759C0.543158 4.24278 5.12598 0 10.7007 0C14.6371 0 18.078 2.11569 19.9507 5.2698V2.75C19.9507 2.33579 20.2865 2 20.7007 2C21.1149 2 21.4507 2.33579 21.4507 2.75V6.15C21.4507 6.89558 20.8463 7.5 20.1007 7.5H19.8858C19.8746 7.50025 19.8633 7.50025 19.8522 7.5H16.7007C16.2865 7.5 15.9507 7.16421 15.9507 6.75C15.9507 6.33579 16.2865 6 16.7007 6H18.6398C17.0228 3.30329 14.0717 1.5 10.7007 1.5ZM19.9544 11.6759C19.4903 16.3494 15.5461 20 10.7501 20C7.37909 20 4.42798 18.1967 2.81099 15.5H4.75C5.16421 15.5 5.5 15.1642 5.5 14.75C5.5 14.3358 5.16421 14 4.75 14H1.59857C1.58739 13.9997 1.57618 13.9997 1.56496 14H1.35C0.604415 14 0 14.6044 0 15.35V18.75C0 19.1642 0.335786 19.5 0.75 19.5C1.16421 19.5 1.5 19.1642 1.5 18.75V16.2301C3.37262 19.3843 6.8136 21.5 10.7501 21.5C16.3248 21.5 20.9076 17.2572 21.447 11.8241C21.4879 11.4119 21.187 11.0446 20.7748 11.0037C20.3626 10.9627 19.9953 11.2637 19.9544 11.6759ZM11.311 3.31407C11.1702 3.11697 10.9429 3 10.7007 3C10.4585 3 10.2312 3.11697 10.0904 3.31407L5.09038 10.3141C4.90412 10.5748 4.90412 10.9252 5.09038 11.1859L10.0904 18.1859C10.2312 18.383 10.4585 18.5 10.7007 18.5C10.9429 18.5 11.1702 18.383 11.311 18.1859L16.311 11.1859C16.4972 10.9252 16.4972 10.5748 16.311 10.3141L11.311 3.31407ZM10.7007 16.4597L7.41335 11.8574L10.5536 12.4854C10.6507 12.5049 10.7507 12.5049 10.8478 12.4854L13.988 11.8574L10.7007 16.4597ZM11.4507 10.8351L14.4162 10.242L11.4507 6.09035L11.4507 10.8351ZM9.95068 10.8351L9.95068 6.09035L6.98519 10.242L9.95068 10.8351Z" fill="#292927"/>
</g>
</svg>
