<svg preserveAspectRatio="xMidYMid meet" overflow="visible" style="display: block;" viewBox="0 0 24 24" fill="none" xmlns="http://www.w3.org/2000/svg">
<g transform="translate(1.1508, 3.2500)">
<path id="Vector" fill-rule="evenodd" clip-rule="evenodd" d="M3.77094 8.75C3.77094 4.74594 7.01687 1.5 11.0209 1.5C14.2601 1.5 17.0031 3.62422 17.9329 6.5556C16.4328 7.79096 14.312 9.15069 11.8382 10.3841C9.36301 11.6182 6.9994 12.4939 5.10947 12.9483C4.2666 11.7636 3.77094 10.3147 3.77094 8.75ZM3.51261 13.2456C3.14401 12.6313 2.84865 11.9681 2.63863 11.2679C2.28539 11.6277 2.01051 11.9589 1.81677 12.2532C1.43024 12.8404 1.50822 13.0513 1.51084 13.0566C1.51187 13.0586 1.61097 13.2269 2.21449 13.2859C2.56027 13.3198 2.99574 13.308 3.51261 13.2456ZM2.30442 9.52075C1.56228 10.1776 0.961972 10.8237 0.563884 11.4284C0.129206 12.0887 -0.220841 12.9451 0.168442 13.7259C0.532912 14.4569 1.34219 14.7077 2.0684 14.7788C2.75692 14.8462 3.59481 14.778 4.5205 14.6073C6.12198 16.3835 8.44107 17.5 11.0209 17.5C15.8534 17.5 19.7709 13.5825 19.7709 8.75C19.7709 8.18023 19.7165 7.62319 19.6125 7.08378C20.3071 6.44645 20.8667 5.81748 21.2277 5.22634C21.608 4.60359 21.8947 3.80631 21.5302 3.0753C21.14 2.29277 20.2424 2.05754 19.4512 2.00809C18.7286 1.96293 17.8515 2.05392 16.8806 2.25164C15.3294 0.852069 13.2747 0 11.0209 0C6.18845 0 2.27094 3.91751 2.27094 8.75C2.27094 9.00972 2.28225 9.26679 2.30442 9.52075ZM18.0734 3.56975C18.5 4.14944 18.8567 4.78363 19.1313 5.45993C19.4936 5.08354 19.766 4.74185 19.9475 4.44458C20.2635 3.92704 20.1888 3.74665 20.1878 3.7446C20.1851 3.73919 20.0627 3.54924 19.3576 3.50517C19.005 3.48313 18.5742 3.50372 18.0734 3.56975ZM18.2516 8.21675C18.2644 8.39283 18.2709 8.57065 18.2709 8.75C18.2709 12.7541 15.025 16 11.0209 16C9.19069 16 7.51885 15.3218 6.243 14.203C8.10942 13.6823 10.2795 12.8373 12.5075 11.7265C14.7338 10.6165 16.7131 9.39306 18.2516 8.21675Z" fill="#292927"/>
</g>
</svg>
