<svg preserveAspectRatio="xMidYMid meet" overflow="visible" style="display: block;" viewBox="0 0 24 24" fill="none" xmlns="http://www.w3.org/2000/svg">
<g transform="translate(2.2500, 2.2500)">
<path id="Vector" fill-rule="evenodd" clip-rule="evenodd" d="M14.75 18C16.5449 18 18 16.5449 18 14.75V1.5H6.5V12H10.15C10.8979 12 11.4712 12.5931 11.5274 13.2867C11.5862 14.0141 11.7645 15.2518 12.276 16.2849C12.7756 17.2938 13.5253 18 14.75 18ZM14.75 19.5H5.75062H3.75C1.67893 19.5 0 17.8211 0 15.75V14.75C0 13.2312 1.23122 12 2.75 12H5V1.35C5 0.604414 5.60442 0 6.35 0H18.15C18.8956 0 19.5 0.604418 19.5 1.35V14.75C19.5 17.3734 17.3734 19.5 14.75 19.5ZM5.75 13.5H2.75C2.05964 13.5 1.5 14.0596 1.5 14.75V15.75C1.5 16.9926 2.50736 18 3.75 18H5.75H11.5994C11.3324 17.6725 11.112 17.3144 10.9318 16.9504C10.3177 15.7102 10.1117 14.3081 10.0401 13.5H5.75ZM9.75 4C9.33579 4 9 4.33579 9 4.75C9 5.16421 9.33579 5.5 9.75 5.5H14.75C15.1642 5.5 15.5 5.16421 15.5 4.75C15.5 4.33579 15.1642 4 14.75 4H9.75ZM9.75 8C9.33579 8 9 8.33579 9 8.75C9 9.16421 9.33579 9.5 9.75 9.5H14.75C15.1642 9.5 15.5 9.16421 15.5 8.75C15.5 8.33579 15.1642 8 14.75 8H9.75Z" fill="#292927"/>
</g>
</svg>
