<svg preserveAspectRatio="xMidYMid meet" overflow="visible" style="display: block;" viewBox="0 0 24 24" fill="none" xmlns="http://www.w3.org/2000/svg">
<g transform="translate(1.2500, 2.2500)">
<path id="Vector" fill-rule="evenodd" clip-rule="evenodd" d="M7.5 0.75C7.5 0.335786 7.16421 0 6.75 0H4.75C2.12665 0 0 2.12665 0 4.75V14.75C0 17.3734 2.12665 19.5 4.75 19.5H6.75C7.16421 19.5 7.5 19.1642 7.5 18.75C7.5 18.3358 7.16421 18 6.75 18H4.75C2.95507 18 1.5 16.5449 1.5 14.75V4.75C1.5 2.95507 2.95507 1.5 4.75 1.5H6.75C7.16421 1.5 7.5 1.16421 7.5 0.75ZM17.75 1.5C18.9926 1.5 20 2.50736 20 3.75V15.75C20 16.9926 18.9926 18 17.75 18H15.75C14.5074 18 13.5 16.9926 13.5 15.75V9.75V3.75C13.5 2.50736 14.5074 1.5 15.75 1.5H17.75ZM12 10.5V15.75C12 17.8211 13.6789 19.5 15.75 19.5H17.75C19.8211 19.5 21.5 17.8211 21.5 15.75V3.75C21.5 1.67893 19.8211 0 17.75 0H15.75C13.6789 0 12 1.67893 12 3.75V9H6.56066L8.28033 7.28033C8.57322 6.98744 8.57322 6.51256 8.28033 6.21967C7.98744 5.92678 7.51256 5.92678 7.21967 6.21967L4.21967 9.21967C3.92678 9.51256 3.92678 9.98744 4.21967 10.2803L7.21967 13.2803C7.51256 13.5732 7.98744 13.5732 8.28033 13.2803C8.57322 12.9874 8.57322 12.5126 8.28033 12.2197L6.56066 10.5H12Z" fill="#292927"/>
</g>
</svg>
