<svg preserveAspectRatio="xMidYMid meet" overflow="visible" style="display: block;" viewBox="0 0 24 24" fill="none" xmlns="http://www.w3.org/2000/svg">
<g transform="translate(1.2500, 2.7500)">
<path id="Vector" fill-rule="evenodd" clip-rule="evenodd" d="M7.5 0.75C7.5 0.335786 7.16421 0 6.75 0C6.33579 0 6 0.335786 6 0.75V5.0412C2.62504 5.41428 0 8.27558 0 11.75C0 15.4779 3.02208 18.5 6.75 18.5C8.2472 18.5 9.63055 18.0125 10.75 17.1877C11.8695 18.0125 13.2528 18.5 14.75 18.5C18.4779 18.5 21.5 15.4779 21.5 11.75C21.5 8.27558 18.875 5.41428 15.5 5.0412V0.75C15.5 0.335786 15.1642 0 14.75 0C14.3358 0 14 0.335786 14 0.75V5.0412C12.7919 5.17474 11.6799 5.62712 10.75 6.31231C9.82009 5.62712 8.70809 5.17474 7.5 5.0412V0.75ZM9.62529 7.35666C8.79936 6.81501 7.81147 6.5 6.75 6.5C3.8505 6.5 1.5 8.8505 1.5 11.75C1.5 14.6495 3.8505 17 6.75 17C7.81147 17 8.79936 16.685 9.62529 16.1433C8.61215 14.9626 8 13.4278 8 11.75C8 10.0722 8.61215 8.53736 9.62529 7.35666ZM10.75 15.1505C9.97044 14.2344 9.5 13.0472 9.5 11.75C9.5 10.4528 9.97044 9.26557 10.75 8.34947C11.5296 9.26557 12 10.4528 12 11.75C12 13.0472 11.5296 14.2344 10.75 15.1505ZM11.8747 16.1433C12.8879 14.9626 13.5 13.4278 13.5 11.75C13.5 10.0722 12.8879 8.53736 11.8747 7.35666C12.7006 6.81501 13.6885 6.5 14.75 6.5C17.6495 6.5 20 8.8505 20 11.75C20 14.6495 17.6495 17 14.75 17C13.6885 17 12.7006 16.685 11.8747 16.1433Z" fill="#292927"/>
</g>
</svg>
