<svg preserveAspectRatio="xMidYMid meet" overflow="visible" style="display: block;" viewBox="0 0 24 24" fill="none" xmlns="http://www.w3.org/2000/svg">
<g transform="translate(3.1189, 1.2500)">
<path id="Vector" fill-rule="evenodd" clip-rule="evenodd" d="M5.13112 0.75C5.13112 0.335786 5.46691 0 5.88112 0H11.8811C12.2953 0 12.6311 0.335786 12.6311 0.75C12.6311 1.16421 12.2953 1.5 11.8811 1.5H5.88112C5.46691 1.5 5.13112 1.16421 5.13112 0.75ZM11.8811 21.5C13.6297 21.5 15.0688 20.6318 16.0718 19.3432C17.0672 18.0642 17.6506 16.357 17.7478 14.5732C17.942 11.0084 16.1923 6.98298 11.6311 5.22267V2.74998C11.6311 2.33575 11.2953 1.99997 10.8811 1.99997L6.88113 1.99996C6.68221 1.99996 6.49145 2.07898 6.3508 2.21963C6.21014 2.36028 6.13113 2.55162 6.13113 2.75055V5.22266C1.56999 6.98298 -0.17975 11.0084 0.0144431 14.5732C0.111617 16.357 0.695068 18.0642 1.69051 19.3432C2.69344 20.6318 4.13258 21.5 5.88113 21.5L11.8811 21.5ZM14.8702 9.5C15.927 11.0132 16.3419 12.8049 16.25 14.4916C16.1669 16.0181 15.6681 17.4197 14.888 18.4219C14.1155 19.4145 13.0859 20 11.8811 20L5.88112 20C4.6764 20 3.6468 19.4145 2.87424 18.4219C2.09419 17.4197 1.59538 16.0181 1.51222 14.4916C1.42034 12.8049 1.83528 11.0132 2.89207 9.5H14.8702ZM4.27951 8H13.4827C12.8038 7.44008 11.9895 6.96167 11.0283 6.59808C10.5189 6.40542 10.1311 5.91263 10.1311 5.31773V3.49997L7.63113 3.49996V5.31773C7.63113 5.91263 7.24334 6.40542 6.73399 6.59807C5.77272 6.96167 4.95847 7.44007 4.27951 8ZM9.20341 12.1144C9.40457 11.7523 9.27411 11.2957 8.91202 11.0945C8.54994 10.8934 8.09333 11.0238 7.89217 11.3859L6.22551 14.3859C6.09645 14.6182 6.09996 14.9014 6.23472 15.1305C6.36948 15.3595 6.61538 15.5001 6.88112 15.5001H9.60649L8.55884 17.3859C8.35768 17.748 8.48814 18.2046 8.85023 18.4058C9.21231 18.6069 9.66892 18.4765 9.87007 18.1144L11.5367 15.1144C11.6658 14.8821 11.6623 14.5988 11.5275 14.3698C11.3928 14.1408 11.1469 14.0001 10.8811 14.0001H8.15576L9.20341 12.1144Z" fill="#292927"/>
</g>
</svg>
