<svg preserveAspectRatio="xMidYMid meet" overflow="visible" style="display: block;" viewBox="0 0 24 24" fill="none" xmlns="http://www.w3.org/2000/svg">
<g transform="translate(2.2500, 2.2500)">
<path id="Vector" fill-rule="evenodd" clip-rule="evenodd" d="M1.5 18V1.5H18V18H1.5ZM1.35 0C0.604417 0 0 0.604415 0 1.35V18.15C0 18.8956 0.604415 19.5 1.35 19.5H18.15C18.8956 19.5 19.5 18.8956 19.5 18.15V1.35C19.5 0.604417 18.8956 0 18.15 0H1.35ZM9.78033 9.21967L6.28033 5.71967C5.98744 5.42678 5.51256 5.42678 5.21967 5.71967C4.92678 6.01256 4.92678 6.48744 5.21967 6.78033L8.18934 9.75L5.21967 12.7197C4.92678 13.0126 4.92678 13.4874 5.21967 13.7803C5.51256 14.0732 5.98744 14.0732 6.28033 13.7803L9.78033 10.2803C10.0732 9.98744 10.0732 9.51256 9.78033 9.21967ZM15.7803 9.21967L12.2803 5.71967C11.9874 5.42678 11.5126 5.42678 11.2197 5.71967C10.9268 6.01256 10.9268 6.48744 11.2197 6.78033L14.1893 9.75L11.2197 12.7197C10.9268 13.0126 10.9268 13.4874 11.2197 13.7803C11.5126 14.0732 11.9874 14.0732 12.2803 13.7803L15.7803 10.2803C16.0732 9.98744 16.0732 9.51256 15.7803 9.21967Z" fill="#292927"/>
</g>
</svg>
