<svg preserveAspectRatio="xMidYMid meet" overflow="visible" style="display: block;" viewBox="0 0 24 24" fill="none" xmlns="http://www.w3.org/2000/svg">
<g transform="translate(2.2500, 2.7500)">
<path id="Vector" fill-rule="evenodd" clip-rule="evenodd" d="M3.91986 2.2576C4.11683 1.798 4.56876 1.5 5.06879 1.5H14.4312C14.9312 1.5 15.3832 1.798 15.5801 2.2576L17.8989 7.66812C17.9656 7.82371 18 7.99123 18 8.16051V14H1.5V8.16051C1.5 7.99123 1.53438 7.82371 1.60107 7.66812L3.91986 2.2576ZM15.5 15.5H18V17H15.5V15.5ZM14 17.15V15.5H5.5V17.15C5.5 17.8956 4.89558 18.5 4.15 18.5H1.35C0.604416 18.5 0 17.8956 0 17.15V8.16051C0 7.78809 0.0756464 7.41955 0.222351 7.07724L2.54114 1.66672C2.97449 0.655591 3.96871 0 5.06879 0H14.4312C15.5313 0 16.5255 0.655593 16.9589 1.66672L19.2776 7.07724C19.4244 7.41955 19.5 7.78809 19.5 8.16051V17.15C19.5 17.8956 18.8956 18.5 18.15 18.5H15.35C14.6044 18.5 14 17.8956 14 17.15ZM1.5 15.5H4V17H1.5V15.5ZM5.75 6C5.33579 6 5 6.33579 5 6.75C5 7.16421 5.33579 7.5 5.75 7.5L13.75 7.5C14.1642 7.5 14.5 7.16421 14.5 6.75C14.5 6.33579 14.1642 6 13.75 6L5.75 6ZM4.75 10C4.33579 10 4 10.3358 4 10.75C4 11.1642 4.33579 11.5 4.75 11.5H5.75C6.16421 11.5 6.5 11.1642 6.5 10.75C6.5 10.3358 6.16421 10 5.75 10H4.75ZM13 10.75C13 10.3358 13.3358 10 13.75 10H14.75C15.1642 10 15.5 10.3358 15.5 10.75C15.5 11.1642 15.1642 11.5 14.75 11.5H13.75C13.3358 11.5 13 11.1642 13 10.75Z" fill="#292927"/>
</g>
</svg>
