<svg preserveAspectRatio="xMidYMid meet" overflow="visible" style="display: block;" viewBox="0 0 24 24" fill="none" xmlns="http://www.w3.org/2000/svg">
<g transform="translate(3.2499, 2.7500)">
<path id="Vector" fill-rule="evenodd" clip-rule="evenodd" d="M1.3747 4.9551C2.70674 2.95097 5.46912 1.5 8.75008 1.5C12.031 1.5 14.7934 2.95097 16.1255 4.9551C16.3547 5.30007 16.8203 5.39386 17.1652 5.16457C17.5102 4.93529 17.604 4.46977 17.3747 4.1248C15.7143 1.6266 12.435 0 8.75008 0C5.06518 0 1.78588 1.6266 0.125461 4.1248C-0.103821 4.46977 -0.0100379 4.93529 0.33493 5.16457C0.679898 5.39386 1.14542 5.30007 1.3747 4.9551ZM2.50009 10.75C2.50009 7.29822 5.29831 4.5 8.75009 4.5C12.2019 4.5 15.0001 7.29822 15.0001 10.75C15.0001 14.2018 12.2019 17 8.75009 17C5.29831 17 2.50009 14.2018 2.50009 10.75ZM8.75009 3C4.46988 3 1.00009 6.46979 1.00009 10.75C1.00009 15.0302 4.46988 18.5 8.75009 18.5C13.0303 18.5 16.5001 15.0302 16.5001 10.75C16.5001 6.46979 13.0303 3 8.75009 3Z" fill="#292927"/>
</g>
</svg>
