<svg preserveAspectRatio="xMidYMid meet" overflow="visible" style="display: block;" viewBox="0 0 24 24" fill="none" xmlns="http://www.w3.org/2000/svg">
<g transform="translate(0.2500, 2.2500)">
<path id="Vector" fill-rule="evenodd" clip-rule="evenodd" d="M1.5 6.75C1.5 3.8505 3.8505 1.5 6.75 1.5H16.75C19.6495 1.5 22 3.8505 22 6.75V12.75C22 15.6495 19.6495 18 16.75 18H6.75C3.8505 18 1.5 15.6495 1.5 12.75V6.75ZM6.75 0C3.02208 0 0 3.02208 0 6.75V12.75C0 16.4779 3.02208 19.5 6.75 19.5H16.75C20.4779 19.5 23.5 16.4779 23.5 12.75V6.75C23.5 3.02208 20.4779 0 16.75 0H6.75ZM5.75 5.5C6.16421 5.5 6.5 5.83579 6.5 6.25V9H9.5V6.25C9.5 5.83579 9.83579 5.5 10.25 5.5C10.6642 5.5 11 5.83579 11 6.25V13.25C11 13.6642 10.6642 14 10.25 14C9.83579 14 9.5 13.6642 9.5 13.25V10.5H6.5V13.25C6.5 13.6642 6.16421 14 5.75 14C5.33579 14 5 13.6642 5 13.25V6.25C5 5.83579 5.33579 5.5 5.75 5.5ZM14.5 7.00435V12.4957C15.465 12.4808 16.2657 12.4151 16.8703 12.1329C17.2142 11.9724 17.4773 11.7465 17.6647 11.4092C17.8585 11.0605 18 10.54 18 9.75004C18 8.96005 17.8585 8.4396 17.6647 8.09084C17.4773 7.75357 17.2142 7.52767 16.8703 7.36718C16.2657 7.08502 15.465 7.01933 14.5 7.00435ZM18.9759 7.36237C19.329 7.99798 19.5 8.79004 19.5 9.75004C19.5 10.71 19.329 11.5021 18.9759 12.1377C18.6164 12.7848 18.0983 13.2152 17.5047 13.4922C16.4145 14.0009 15.022 14.0005 13.8461 14.0001L13.75 14C13.3358 14 13 13.6643 13 13.25V6.25004C13 5.83583 13.3358 5.50004 13.75 5.50004L13.8461 5.50002C15.022 5.49964 16.4145 5.49918 17.5047 6.00791C18.0983 6.28491 18.6164 6.71527 18.9759 7.36237Z" fill="#292927"/>
</g>
</svg>
