<svg preserveAspectRatio="xMidYMid meet" overflow="visible" style="display: block;" viewBox="0 0 24 24" fill="none" xmlns="http://www.w3.org/2000/svg">
<g transform="translate(2.2500, 1.2500)">
<path id="Vector" fill-rule="evenodd" clip-rule="evenodd" d="M1.5 3.75C1.5 2.50736 2.50736 1.5 3.75 1.5H15.75C16.9926 1.5 18 2.50736 18 3.75V5.75C18 6.99264 16.9926 8 15.75 8H9.75H3.75C2.50736 8 1.5 6.99264 1.5 5.75V3.75ZM10.5 9.5H15.75C17.8211 9.5 19.5 7.82107 19.5 5.75V3.75C19.5 1.67893 17.8211 0 15.75 0H3.75C1.67893 0 0 1.67893 0 3.75V5.75C0 7.82107 1.67893 9.5 3.75 9.5H9V14.9393L7.28033 13.2197C6.98744 12.9268 6.51256 12.9268 6.21967 13.2197C5.92678 13.5126 5.92678 13.9874 6.21967 14.2803L9.21967 17.2803C9.51256 17.5732 9.98744 17.5732 10.2803 17.2803L13.2803 14.2803C13.5732 13.9874 13.5732 13.5126 13.2803 13.2197C12.9874 12.9268 12.5126 12.9268 12.2197 13.2197L10.5 14.9393V9.5ZM0.75 14C0.335786 14 0 14.3358 0 14.75V16.75C0 19.3734 2.12665 21.5 4.75 21.5H14.75C17.3734 21.5 19.5 19.3734 19.5 16.75V14.75C19.5 14.3358 19.1642 14 18.75 14C18.3358 14 18 14.3358 18 14.75V16.75C18 18.5449 16.5449 20 14.75 20H4.75C2.95507 20 1.5 18.5449 1.5 16.75V14.75C1.5 14.3358 1.16421 14 0.75 14Z" fill="#292927"/>
</g>
</svg>
