<svg preserveAspectRatio="xMidYMid meet" overflow="visible" style="display: block;" viewBox="0 0 24 24" fill="none" xmlns="http://www.w3.org/2000/svg">
<g transform="translate(2.2500, 2.2500)">
<path id="Vector" fill-rule="evenodd" clip-rule="evenodd" d="M0.750004 0C0.33579 0 3.81885e-06 0.335786 3.81885e-06 0.75V3.75C3.81885e-06 4.16421 0.33579 4.5 0.750004 4.5C1.16422 4.5 1.5 4.16421 1.5 3.75V1.5H3.75C4.16422 1.5 4.5 1.16421 4.5 0.75C4.5 0.335786 4.16422 0 3.75 0H0.750004ZM8.5 9.75C8.5 9.05964 9.05965 8.5 9.75 8.5C10.4404 8.5 11 9.05964 11 9.75C11 10.4404 10.4404 11 9.75 11C9.05965 11 8.5 10.4404 8.5 9.75ZM9.75 7C8.23122 7 7 8.23122 7 9.75C7 11.2688 8.23122 12.5 9.75 12.5C11.2688 12.5 12.5 11.2688 12.5 9.75C12.5 8.23122 11.2688 7 9.75 7ZM1.67845 9.79691C2.55026 11.0704 3.69562 12.3132 5.00485 13.265C6.46857 14.329 8.09504 15 9.75002 15C11.405 15 13.0315 14.329 14.4952 13.265C15.8044 12.3132 16.9498 11.0704 17.8216 9.7969C15.579 7.05551 13.1705 4.5 9.75002 4.5C6.32957 4.5 3.92106 7.05554 1.67845 9.79691ZM0.166877 9.27834C2.42148 6.49092 5.32988 3 9.75002 3C14.1702 3 17.0786 6.49087 19.3331 9.27835C19.5352 9.52811 19.5557 9.8788 19.3842 10.1504C18.3962 11.7151 17.0132 13.289 15.3772 14.4783C13.7426 15.6665 11.8134 16.5 9.75002 16.5C7.68668 16.5 5.75742 15.6665 4.12286 14.4783C2.48681 13.289 1.10379 11.7151 0.115841 10.1504C-0.0556693 9.8788 -0.035146 9.5281 0.166877 9.27834ZM18.75 0C19.1642 0 19.5 0.335786 19.5 0.75V3.75C19.5 4.16421 19.1642 4.5 18.75 4.5C18.3358 4.5 18 4.16421 18 3.75V1.5H15.75C15.3358 1.5 15 1.16421 15 0.75C15 0.335786 15.3358 0 15.75 0H18.75ZM3.81885e-06 18.75C3.81885e-06 19.1642 0.33579 19.5 0.750004 19.5H3.75C4.16422 19.5 4.5 19.1642 4.5 18.75C4.5 18.3358 4.16422 18 3.75 18H1.5V15.75C1.5 15.3358 1.16422 15 0.750004 15C0.33579 15 3.81885e-06 15.3358 3.81885e-06 15.75V18.75ZM18.75 19.5C19.1642 19.5 19.5 19.1642 19.5 18.75V15.75C19.5 15.3358 19.1642 15 18.75 15C18.3358 15 18 15.3358 18 15.75V18H15.75C15.3358 18 15 18.3358 15 18.75C15 19.1642 15.3358 19.5 15.75 19.5H18.75Z" fill="#292927"/>
</g>
</svg>
