<svg preserveAspectRatio="xMidYMid meet" overflow="visible" style="display: block;" viewBox="0 0 24 24" fill="none" xmlns="http://www.w3.org/2000/svg">
<g transform="translate(0.0000, 0.0000) scale(0.669766)">
<path id="Vector" fill-rule="evenodd" clip-rule="evenodd" d="M2.5 2.5V13.3333H33.3333V2.5H2.5ZM0 2.25C0 1.00736 1.00736 0 2.25 0H33.5833C34.826 0 35.8333 1.00736 35.8333 2.25V13.5833C35.8333 14.826 34.826 15.8333 33.5833 15.8333H2.25C1.00736 15.8333 0 14.826 0 13.5833V2.25ZM8.86246 8.75126C9.32429 8.23812 9.28269 7.44776 8.76955 6.98593C8.25641 6.52411 7.46605 6.56571 7.00423 7.07884L6.98756 7.09736C6.52574 7.6105 6.56733 8.40086 7.08047 8.86269C7.59361 9.32451 8.38397 9.28291 8.84579 8.76977L8.86246 8.75126ZM8.86246 28.7513C9.32429 28.2381 9.28269 27.4478 8.76955 26.9859C8.25641 26.5241 7.46605 26.5657 7.00423 27.0788L6.98756 27.0974C6.52574 27.6105 6.56733 28.4009 7.08047 28.8627C7.59361 29.3245 8.38397 29.2829 8.84579 28.7698L8.86246 28.7513ZM2.5 33.3333V22.5H33.3333V33.3333H2.5ZM2.25 20C1.00736 20 0 21.0074 0 22.25V33.5833C0 34.826 1.00736 35.8333 2.25 35.8333H33.5833C34.826 35.8333 35.8333 34.826 35.8333 33.5833V22.25C35.8333 21.0074 34.826 20 33.5833 20H2.25Z" fill="#292927"/>
</g>
</svg>
