<svg preserveAspectRatio="xMidYMid meet" overflow="visible" style="display: block;" viewBox="0 0 24 24" fill="none" xmlns="http://www.w3.org/2000/svg">
<g transform="translate(2.2500, 1.2500)">
<path id="Vector" fill-rule="evenodd" clip-rule="evenodd" d="M1.5 20V1.5H9V20H1.5ZM10.5 20V1.5H18V20H10.5ZM1.35 0C0.604417 0 0 0.604415 0 1.35V20.15C0 20.8956 0.604415 21.5 1.35 21.5H18.15C18.8956 21.5 19.5 20.8956 19.5 20.15V1.35C19.5 0.604417 18.8956 0 18.15 0H1.35ZM5 12.75C5 12.3358 5.33579 12 5.75 12H6.75C7.16421 12 7.5 12.3358 7.5 12.75C7.5 13.1642 7.16421 13.5 6.75 13.5H5.75C5.33579 13.5 5 13.1642 5 12.75ZM12 12.75C12 12.3358 12.3358 12 12.75 12H13.75C14.1642 12 14.5 12.3358 14.5 12.75C14.5 13.1642 14.1642 13.5 13.75 13.5H12.75C12.3358 13.5 12 13.1642 12 12.75Z" fill="#292927"/>
</g>
</svg>
