<svg preserveAspectRatio="xMidYMid meet" overflow="visible" style="display: block;" viewBox="0 0 24 24" fill="none" xmlns="http://www.w3.org/2000/svg">
<g transform="translate(3.2500, 2.2500)">
<path id="Vector" fill-rule="evenodd" clip-rule="evenodd" d="M1.5 0.75C1.5 0.335786 1.16421 0 0.75 0C0.335786 0 0 0.335786 0 0.75C0 3.92715 2.24698 6.3716 4.29115 7.95263C5.29578 8.72966 6.29638 9.33348 7.06116 9.75C6.29638 10.1665 5.29578 10.7703 4.29115 11.5474C2.24698 13.1284 0 15.5728 0 18.75C0 19.1642 0.335785 19.5 0.75 19.5C1.16421 19.5 1.5 19.1642 1.5 18.75C1.5 16.3022 3.25302 14.2466 5.20885 12.7339C6.16747 11.9925 7.13043 11.4165 7.85588 11.0254C8.2177 10.8304 8.51816 10.6826 8.72644 10.5842L8.75 10.5731L8.77356 10.5842C8.98184 10.6826 9.2823 10.8304 9.64412 11.0254C10.109 11.276 10.6715 11.6026 11.2679 12H7.75C7.33579 12 7 12.3358 7 12.75C7 13.1642 7.33579 13.5 7.75 13.5H13.2069C13.7152 13.9619 14.1896 14.463 14.5979 15H4.75C4.33579 15 4 15.3358 4 15.75C4 16.1642 4.33579 16.5 4.75 16.5H15.5009C15.8161 17.2054 16 17.9571 16 18.75C16 19.1642 16.3358 19.5 16.75 19.5C17.1642 19.5 17.5 19.1642 17.5 18.75C17.5 15.5728 15.253 13.1284 13.2088 11.5474C12.2042 10.7703 11.2036 10.1665 10.4388 9.75C11.2036 9.33348 12.2042 8.72966 13.2088 7.95263C15.253 6.3716 17.5 3.92715 17.5 0.75C17.5 0.335786 17.1642 0 16.75 0C16.3358 0 16 0.335786 16 0.75C16 1.54286 15.8161 2.29457 15.5009 3H4.75C4.33579 3 4 3.33579 4 3.75C4 4.16421 4.33579 4.5 4.75 4.5H14.5979C14.1896 5.03703 13.7152 5.53807 13.2069 6H7.75C7.33579 6 7 6.33579 7 6.75C7 7.16421 7.33579 7.5 7.75 7.5H11.2679C10.6715 7.89739 10.109 8.22396 9.64412 8.47458C9.2823 8.66962 8.98184 8.81745 8.77356 8.91578L8.75 8.92687L8.72644 8.91578C8.51816 8.81745 8.2177 8.66962 7.85588 8.47458C7.13043 8.08351 6.16747 7.50755 5.20885 6.76612C3.25302 5.2534 1.5 3.19785 1.5 0.75Z" fill="#292927"/>
</g>
</svg>
