<svg preserveAspectRatio="xMidYMid meet" overflow="visible" style="display: block;" viewBox="0 0 24 24" fill="none" xmlns="http://www.w3.org/2000/svg">
<g transform="translate(1.2500, 1.2500)">
<path id="Vector" fill-rule="evenodd" clip-rule="evenodd" d="M2.5 10V1.5H19V10H2.5ZM20.5 1.35V10.0458C21.0759 10.2 21.5 10.7255 21.5 11.35V20.15C21.5 20.8956 20.8956 21.5 20.15 21.5H1.35C0.604415 21.5 0 20.8956 0 20.15V11.35C0 10.7255 0.424089 10.2 1 10.0458V1.35C1 0.604417 1.60441 0 2.35 0H19.15C19.8956 0 20.5 0.604415 20.5 1.35ZM1.5 20V11.5H20V20H1.5ZM5.75 4C5.33579 4 5 4.33579 5 4.75C5 5.16421 5.33579 5.5 5.75 5.5H15.75C16.1642 5.5 16.5 5.16421 16.5 4.75C16.5 4.33579 16.1642 4 15.75 4H5.75ZM5.75 7C5.33579 7 5 7.33579 5 7.75C5 8.16421 5.33579 8.5 5.75 8.5H15.75C16.1642 8.5 16.5 8.16421 16.5 7.75C16.5 7.33579 16.1642 7 15.75 7H5.75ZM7 15.75C7 15.3358 7.33579 15 7.75 15H13.75C14.1642 15 14.5 15.3358 14.5 15.75C14.5 16.1642 14.1642 16.5 13.75 16.5H7.75C7.33579 16.5 7 16.1642 7 15.75Z" fill="#292927"/>
</g>
</svg>
