<svg preserveAspectRatio="xMidYMid meet" overflow="visible" style="display: block;" viewBox="0 0 24 24" fill="none" xmlns="http://www.w3.org/2000/svg">
<g transform="translate(3.2500, 2.2500)">
<path id="Vector" fill-rule="evenodd" clip-rule="evenodd" d="M4.71967 9.78033L8.21967 13.2803C8.51256 13.5732 8.98744 13.5732 9.28033 13.2803L12.7803 9.78033C13.0732 9.48744 13.0732 9.01256 12.7803 8.71967C12.4874 8.42678 12.0126 8.42678 11.7197 8.71967L9.5 10.9393V0.75C9.5 0.335787 9.16421 0 8.75 0C8.33579 0 8 0.335787 8 0.75V10.9393L5.78033 8.71967C5.48744 8.42678 5.01256 8.42678 4.71967 8.71967C4.42678 9.01256 4.42678 9.48744 4.71967 9.78033ZM0 10.75C0 10.3358 0.335786 10 0.75 10C1.16421 10 1.5 10.3358 1.5 10.75V16.75C1.5 17.4404 2.05964 18 2.75 18H14.75C15.4404 18 16 17.4404 16 16.75V10.75C16 10.3358 16.3358 10 16.75 10C17.1642 10 17.5 10.3358 17.5 10.75V16.75C17.5 18.2688 16.2688 19.5 14.75 19.5H2.75C1.23122 19.5 0 18.2688 0 16.75V10.75Z" fill="#292927"/>
</g>
</svg>
