<svg preserveAspectRatio="xMidYMid meet" overflow="visible" style="display: block;" viewBox="0 0 24 24" fill="none" xmlns="http://www.w3.org/2000/svg">
<g transform="translate(1.2500, 1.2500)">
<path id="Vector" fill-rule="evenodd" clip-rule="evenodd" d="M10.75 1.5C5.64137 1.5 1.5 5.64137 1.5 10.75C1.5 15.8586 5.64137 20 10.75 20C15.8586 20 20 15.8586 20 10.75C20 5.64137 15.8586 1.5 10.75 1.5ZM0 10.75C0 4.81294 4.81294 0 10.75 0C16.6871 0 21.5 4.81294 21.5 10.75C21.5 16.6871 16.6871 21.5 10.75 21.5C4.81294 21.5 0 16.6871 0 10.75ZM10.75 6C11.0627 6 11.3425 6.19393 11.4523 6.48666L14.4523 14.4867C14.5977 14.8745 14.4012 15.3068 14.0134 15.4522C13.6255 15.5977 13.1932 15.4012 13.0478 15.0133L12.4803 13.5H9.01977L8.45227 15.0133C8.30683 15.4012 7.87452 15.5977 7.48668 15.4522C7.09884 15.3068 6.90233 14.8745 7.04777 14.4867L10.0478 6.48666C10.1575 6.19393 10.4374 6 10.75 6ZM9.58227 12H11.9178L10.75 8.886L9.58227 12Z" fill="#292927"/>
</g>
</svg>
