<svg preserveAspectRatio="xMidYMid meet" overflow="visible" style="display: block;" viewBox="0 0 24 24" fill="none" xmlns="http://www.w3.org/2000/svg">
<g transform="translate(1.2500, 3.5000)">
<path id="Vector" fill-rule="evenodd" clip-rule="evenodd" d="M7.61202 0.355702C7.74867 0.134589 7.99007 0 8.25001 0C10.4089 0 12.159 0.6748 13.3642 1.34437C13.9675 1.67949 14.4384 2.01555 14.7616 2.27069C14.8636 2.3512 14.9511 2.42384 15.0236 2.48609C15.1299 2.48616 15.2561 2.49047 15.3995 2.50268C15.8339 2.53965 16.4278 2.64924 17.1035 2.93376C18.4705 3.50932 20.0981 4.76906 21.4208 7.41456C21.4934 7.55971 21.5169 7.72448 21.4879 7.88414C20.9432 10.8801 19.2892 12.5525 17.7566 13.4582C16.9992 13.9057 16.2781 14.1631 15.7452 14.3092C15.478 14.3825 15.2558 14.4284 15.0968 14.4564C15.0662 14.4618 15.0379 14.4665 15.012 14.4707L11.1475 16.886C10.9163 17.0305 10.6249 17.0382 10.3864 16.906C10.148 16.7738 10 16.5226 10 16.25V13.7418C8.80896 13.185 7.66488 12.3505 6.78217 11.4678C6.3906 11.0763 6.04024 10.6651 5.75643 10.2522C5.66688 10.3547 5.57119 10.4512 5.47048 10.5418C4.88645 11.0675 4.14391 11.3899 3.46552 11.5934C2.77927 11.7992 2.10333 11.8997 1.60588 11.9494C1.35533 11.9745 1.14567 11.9871 0.996962 11.9935C0.922517 11.9966 0.863087 11.9983 0.821155 11.9991L0.771606 11.9999L0.7572 12L0.752688 12L0.751116 12L0.750006 12C0.508923 12 0.282537 11.8841 0.141574 11.6885C0.000610131 11.493 -0.0377438 11.2415 0.0384929 11.0128L0.959436 8.25L0.0384929 5.48717C-0.0377438 5.25846 0.000610608 5.00704 0.141574 4.81147C0.282537 4.61589 0.50942 4.5 0.750503 4.5C0.750503 4.5 0.750006 4.5 0.750006 5.25L0.750503 4.5L0.752688 4.5L0.757201 4.50002L0.771607 4.50013L0.821155 4.50088C0.863087 4.50172 0.922518 4.50336 0.996963 4.50655C1.14567 4.51292 1.35533 4.52554 1.60588 4.5506C2.10333 4.60034 2.77927 4.70076 3.46552 4.90663C4.14391 5.11015 4.88645 5.43253 5.47048 5.95815C5.62036 6.09304 5.75911 6.24094 5.88307 6.40215C6.23063 6.01659 6.64361 5.65657 7.03664 5.34776C7.49847 4.9849 7.95677 4.67414 8.29756 4.45505C8.3615 4.41395 8.42152 4.37594 8.4769 4.34126C8.46053 4.15278 8.43265 3.90795 8.38521 3.6233C8.2684 2.92242 8.03617 1.99937 7.57919 1.08541C7.46294 0.852919 7.47536 0.576814 7.61202 0.355702ZM6.82473 9.14079C6.58335 8.7339 6.5 8.43317 6.50001 8.25001C6.50001 8.14422 6.57688 7.91011 6.87583 7.54709C7.15521 7.20785 7.54578 6.85535 7.96338 6.52724C8.37655 6.2026 8.79325 5.91961 9.1087 5.71682C9.26577 5.61585 9.39617 5.53576 9.48645 5.48141C9.53156 5.45425 9.56656 5.43358 9.58975 5.41999L9.60124 5.4133L9.61209 5.40815C9.63481 5.39755 9.67052 5.38129 9.71732 5.36123C9.8113 5.32096 9.94789 5.26628 10.1122 5.21151C10.4497 5.09899 10.8634 5 11.25 5C11.6642 5 12 4.66421 12 4.25C12 3.83579 11.6642 3.5 11.25 3.5C10.7632 3.5 10.2936 3.59509 9.91427 3.70304C9.90022 3.60005 9.88385 3.49102 9.8648 3.3767C9.77978 2.8666 9.63993 2.2433 9.40865 1.57669C10.7259 1.75203 11.8197 2.20222 12.6358 2.65561C13.1575 2.94547 13.5616 3.23441 13.8322 3.44802C13.9672 3.55467 14.0685 3.64207 14.1338 3.70074C14.1665 3.73006 14.1902 3.75215 14.2046 3.76582L14.2201 3.78069L14.2211 3.78176C14.3862 3.94596 14.6182 4.02409 14.8488 3.99344L14.8594 3.99236C14.8728 3.9911 14.8982 3.9891 14.9344 3.98769C15.0069 3.98488 15.1222 3.9845 15.2723 3.99727C15.5723 4.02281 16.0097 4.10073 16.5215 4.31621C17.4968 4.72688 18.8133 5.66726 19.964 7.86053C19.4679 10.207 18.1706 11.4712 16.9935 12.1668C16.3758 12.5317 15.7844 12.7431 15.3486 12.8626C15.1314 12.9222 14.9552 12.9583 14.8368 12.9791C14.7776 12.9895 14.7332 12.9961 14.7055 12.9998C14.6917 13.0017 14.6821 13.0029 14.677 13.0035L14.674 13.0038L14.6729 13.0039C14.5591 13.0157 14.4495 13.0533 14.3525 13.114L11.5 14.8968V13.25C11.5 12.9433 11.3133 12.6675 11.0285 12.5536C9.88587 12.0966 8.71913 11.2835 7.84283 10.4072C7.40633 9.97067 7.05861 9.53504 6.82473 9.14079ZM4.46703 7.0731C4.79903 7.37189 5.00001 7.73965 5.00001 8.25C5.00001 8.76035 4.79903 9.12811 4.46703 9.42691C4.11356 9.74503 3.6061 9.98515 3.03449 10.1566C2.61536 10.2824 2.19052 10.3628 1.8193 10.4138L2.46152 8.48717C2.51283 8.33322 2.51283 8.16678 2.46152 8.01283L1.8193 6.08618C2.19052 6.13724 2.61536 6.21763 3.03449 6.34337C3.6061 6.51485 4.11356 6.75497 4.46703 7.0731ZM16.3175 8.25075C16.5946 7.94287 16.5696 7.46865 16.2617 7.19156C15.9539 6.91446 15.4796 6.93942 15.2025 7.24731L15.1925 7.25842C14.9154 7.5663 14.9404 8.04052 15.2483 8.31761C15.5562 8.59471 16.0304 8.56975 16.3075 8.26186L16.3175 8.25075Z" fill="#292927"/>
</g>
</svg>
