<svg preserveAspectRatio="xMidYMid meet" overflow="visible" style="display: block;" viewBox="0 0 24 24" fill="none" xmlns="http://www.w3.org/2000/svg">
<g transform="translate(3.7500, 3.2501)">
<path id="Vector" fill-rule="evenodd" clip-rule="evenodd" d="M4.83331 5.55C4.83331 3.34181 6.70695 1.5 9.08331 1.5C11.4597 1.5 13.3333 3.34181 13.3333 5.55C13.3333 5.96421 13.6691 6.3 14.0833 6.3C14.4975 6.3 14.8333 5.96421 14.8333 5.55C14.8333 2.45626 12.2298 0 9.08331 0C5.93683 0 3.33331 2.45626 3.33331 5.55C3.33331 7.15674 4.03555 8.59154 5.15138 9.59961H0.75C0.335786 9.59961 0 9.9354 0 10.3496C0 10.7638 0.335786 11.0996 0.75 11.0996H6.26093C5.19874 13.3216 3.78795 15.2597 2.09212 16.0737C1.7765 16.2252 1.60768 16.5749 1.68537 16.9162C1.76305 17.2576 2.06658 17.4998 2.41667 17.4998H12.9722V16.7586C12.9722 17.4998 12.9725 17.4998 12.9727 17.4998L12.9732 17.4998L12.9744 17.4998L12.9772 17.4998L12.9847 17.4997L13.0069 17.4994C13.0248 17.499 13.0489 17.4983 13.0787 17.497C13.1382 17.4944 13.2207 17.4894 13.3217 17.4797C13.5228 17.4604 13.8012 17.4221 14.1195 17.3458C14.7462 17.1953 15.5822 16.8839 16.2694 16.2242C16.5682 15.9373 16.5779 15.4625 16.291 15.1637C16.0042 14.8649 15.5294 14.8552 15.2306 15.1421C14.8067 15.5491 14.2538 15.7709 13.7694 15.8872C13.5321 15.9441 13.3244 15.9725 13.1783 15.9866C13.1057 15.9935 13.0493 15.9969 13.0133 15.9984C12.9954 15.9992 12.9826 15.9996 12.9756 15.9997L12.9698 15.9998H4.72747C6.07938 14.6789 7.13162 12.8685 7.91126 11.0996H9.01458C9.03746 11.0999 9.06037 11.1 9.08331 11.1C9.09149 11.1 9.09965 11.0999 9.10776 11.0996H11.8611C12.2753 11.0996 12.6111 10.7638 12.6111 10.3496C12.6111 9.9354 12.2753 9.59961 11.8611 9.59961H9.02338C6.67553 9.56895 4.83331 7.7396 4.83331 5.55Z" fill="#292927"/>
</g>
</svg>
