<svg preserveAspectRatio="xMidYMid meet" overflow="visible" style="display: block;" viewBox="0 0 24 24" fill="none" xmlns="http://www.w3.org/2000/svg">
<g transform="translate(3.7331, 2.0000)">
<path id="Vector" fill-rule="evenodd" clip-rule="evenodd" d="M11.4495 0.288287C11.1945 -0.0381175 10.7232 -0.0959901 10.3968 0.159025C10.0704 0.414041 10.0125 0.885375 10.2675 1.21178L15.1928 7.51587C15.4478 7.84227 15.9192 7.90014 16.2456 7.64513C16.572 7.39011 16.6298 6.91878 16.3748 6.59237L11.4495 0.288287ZM7.21991 3.26791C7.48616 2.9506 7.95922 2.90921 8.27653 3.17546L14.4049 8.31776C14.7222 8.58402 14.7636 9.05708 14.4973 9.37439C14.2311 9.69169 13.758 9.73308 13.4407 9.46683L7.31235 4.32453C6.99504 4.05828 6.95365 3.58521 7.21991 3.26791ZM5.52925 6.56991C5.15384 6.39485 4.70761 6.55727 4.53255 6.93267C4.3575 7.30808 4.51992 7.75431 4.89532 7.92937L12.1458 11.3103C12.5212 11.4854 12.9674 11.323 13.1425 10.9475C13.3175 10.5721 13.1551 10.1259 12.7797 9.95085L5.52925 6.56991ZM3.1038 11.094C3.18992 10.6888 3.58818 10.4302 3.99335 10.5163L11.8185 12.1796C12.2237 12.2657 12.4823 12.664 12.3962 13.0691C12.3101 13.4743 11.9118 13.7329 11.5067 13.6468L3.68148 11.9835C3.27632 11.8974 3.01768 11.4991 3.1038 11.094ZM1.5 13.25C1.5 12.8358 1.16421 12.5 0.75 12.5C0.335786 12.5 0 12.8358 0 13.25V19.25C0 19.6642 0.335786 20 0.75 20H14.75C15.1642 20 15.5 19.6642 15.5 19.25V13.25C15.5 12.8358 15.1642 12.5 14.75 12.5C14.3358 12.5 14 12.8358 14 13.25V18.5H1.5V13.25ZM3.75 14.5C3.33579 14.5 3 14.8358 3 15.25C3 15.6642 3.33579 16 3.75 16H11.75C12.1642 16 12.5 15.6642 12.5 15.25C12.5 14.8358 12.1642 14.5 11.75 14.5H3.75Z" fill="#292927"/>
</g>
</svg>
