<svg preserveAspectRatio="xMidYMid meet" overflow="visible" style="display: block;" viewBox="0 0 24 24" fill="none" xmlns="http://www.w3.org/2000/svg">
<g transform="translate(1.2500, 1.2500)">
<path id="Vector" fill-rule="evenodd" clip-rule="evenodd" d="M9.99995 3.25C9.99995 2.2835 9.21645 1.5 8.24995 1.5C7.28345 1.5 6.49995 2.2835 6.49995 3.25C6.49995 3.51809 6.55972 3.77014 6.66596 3.99535C6.84268 4.36997 6.68225 4.81692 6.30763 4.99364C6.09875 5.09217 5.8674 5.08589 5.67293 4.99612C5.54189 4.98267 5.4127 4.93452 5.29971 4.84962C5.00727 4.6299 4.64487 4.5 4.24997 4.5C3.28347 4.5 2.49997 5.2835 2.49997 6.25C2.49997 6.61061 2.60823 6.94365 2.79389 7.22121C2.94292 7.44401 2.95681 7.71769 2.85476 7.9455C2.81423 8.07371 2.73874 8.19261 2.62941 8.28685C1.93665 8.88398 1.5 9.76548 1.5 10.7498C1.5 11.8312 2.02809 12.7902 2.84242 13.3815C3.53006 12.5384 4.57712 12 5.74993 12C6.16414 12 6.49993 12.3358 6.49993 12.75C6.49993 13.1642 6.16414 13.5 5.74993 13.5C4.50729 13.5 3.49993 14.5074 3.49993 15.75C3.49993 16.9926 4.50729 18 5.74993 18C6.01425 18 6.26637 17.9547 6.5 17.8722C6.89053 17.7341 7.31903 17.9388 7.45706 18.3294C7.49641 18.4407 7.50791 18.5551 7.49519 18.665C7.49833 18.6929 7.49995 18.7213 7.49995 18.75C7.49995 19.4404 8.0596 20 8.74995 20C9.44031 20 9.99995 19.4404 9.99995 18.75V3.25ZM5.74993 19.5C5.86752 19.5 5.98395 19.4946 6.09898 19.4839C6.4201 20.6464 7.48534 21.5 8.74995 21.5C9.53798 21.5 10.2486 21.1685 10.75 20.6374C11.2514 21.1685 11.962 21.5 12.75 21.5C13.1642 21.5 13.5 21.1642 13.5 20.75C13.5 20.3358 13.1642 20 12.75 20C12.0597 20 11.5 19.4404 11.5 18.75L11.5 18.7403V8.75023C12.1267 9.22102 12.9058 9.5 13.75 9.5C14.1642 9.5 14.5 9.16421 14.5 8.75C14.5 8.33579 14.1642 8 13.75 8C12.5074 8 11.5 6.99264 11.5 5.75L11.5 5.74033V3.25967L11.5 3.25C11.5 2.2835 12.2835 1.5 13.25 1.5C14.2165 1.5 15 2.2835 15 3.25C15 3.51809 14.9402 3.77014 14.834 3.99535C14.6573 4.36997 14.8177 4.81692 15.1923 4.99364C15.4012 5.09217 15.6326 5.08589 15.827 4.99612C15.9581 4.98267 16.0873 4.93452 16.2003 4.84962C16.4927 4.6299 16.8551 4.5 17.25 4.5C18.2165 4.5 19 5.2835 19 6.25C19 6.61061 18.8917 6.94365 18.7061 7.22121C18.5571 7.44394 18.5432 7.71751 18.6451 7.94528C18.6856 8.07358 18.7611 8.19256 18.8705 8.28685C19.5633 8.88398 19.9999 9.76548 19.9999 10.7498C19.9999 11.3223 19.8525 11.8582 19.5942 12.3238C19.3932 12.686 19.5239 13.1426 19.8861 13.3435C20.2483 13.5445 20.7048 13.4138 20.9058 13.0516C21.2845 12.369 21.4999 11.5834 21.4999 10.7498C21.4999 9.50585 21.0211 8.37313 20.2393 7.52695C20.4071 7.13454 20.5 6.7026 20.5 6.25C20.5 4.45507 19.0449 3 17.25 3C16.9907 3 16.7382 3.03049 16.496 3.08806C16.4117 1.36837 14.9906 0 13.25 0C12.2448 0 11.3461 0.456383 10.75 1.17325C10.1538 0.456383 9.25519 0 8.24995 0C6.50933 0 5.0883 1.36837 5.00392 3.08806C4.7618 3.03049 4.50931 3 4.24997 3C2.45504 3 0.99997 4.45507 0.99997 6.25C0.99997 6.70259 1.09285 7.13453 1.26064 7.52693C0.478868 8.37311 0 9.50584 0 10.7498C0 12.4113 0.853118 13.8724 2.14291 14.7209C2.04979 15.0479 1.99993 15.3931 1.99993 15.75C1.99993 17.8211 3.67886 19.5 5.74993 19.5ZM20.0166 18.956C20.3228 18.4602 20.5 17.8754 20.5 17.25C20.5 15.4551 19.0449 14 17.25 14C15.455 14 14 15.4551 14 17.25C14 19.0449 15.455 20.5 17.25 20.5C17.8754 20.5 18.4601 20.3229 18.9559 20.0166L20.2196 21.2803C20.5125 21.5732 20.9874 21.5732 21.2803 21.2803C21.5732 20.9874 21.5732 20.5126 21.2803 20.2197L20.0166 18.956ZM15.5 17.25C15.5 16.2835 16.2835 15.5 17.25 15.5C18.2165 15.5 19 16.2835 19 17.25C19 17.7326 18.8056 18.1684 18.489 18.4858C18.1714 18.8043 17.7342 19 17.25 19C16.2835 19 15.5 18.2165 15.5 17.25Z" fill="#292927"/>
</g>
</svg>
