<svg preserveAspectRatio="xMidYMid meet" overflow="visible" style="display: block;" viewBox="0 0 24 24" fill="none" xmlns="http://www.w3.org/2000/svg">
<g transform="translate(1.7500, 1.7500)">
<path id="Vector" fill-rule="evenodd" clip-rule="evenodd" d="M14.5 3.75C14.5 2.50736 15.5074 1.5 16.75 1.5C17.9926 1.5 19 2.50736 19 3.75C19 4.99264 17.9926 6 16.75 6C15.5074 6 14.5 4.99264 14.5 3.75ZM16.75 0C14.6789 0 13 1.67893 13 3.75C13 5.82107 14.6789 7.5 16.75 7.5C18.8211 7.5 20.5 5.82107 20.5 3.75C20.5 1.67893 18.8211 0 16.75 0ZM1.5 7.75C1.5 4.85051 3.85051 2.5 6.75 2.5H9.75C10.1642 2.5 10.5 2.16421 10.5 1.75C10.5 1.33579 10.1642 1 9.75 1H6.75C3.02208 1 0 4.02208 0 7.75V13.75C0 17.4779 3.02208 20.5 6.75 20.5H12.75C16.4779 20.5 19.5 17.4779 19.5 13.75V10.75C19.5 10.3358 19.1642 10 18.75 10C18.3358 10 18 10.3358 18 10.75V13.75C18 16.6495 15.6495 19 12.75 19H6.75C3.85051 19 1.5 16.6495 1.5 13.75V7.75Z" fill="#292927"/>
</g>
</svg>
