<svg preserveAspectRatio="xMidYMid meet" overflow="visible" style="display: block;" viewBox="0 0 24 24" fill="none" xmlns="http://www.w3.org/2000/svg">
<g transform="translate(1.2445, 1.2500)">
<path id="Vector" fill-rule="evenodd" clip-rule="evenodd" d="M1.5 10.75C1.5 5.64137 5.64137 1.5 10.75 1.5C13.5056 1.5 15.9797 2.70429 17.6753 4.61765L10.3 10.15C10.1111 10.2917 10 10.514 10 10.75C10 10.986 10.1111 11.2083 10.3 11.35L17.6753 16.8823C15.9797 18.7957 13.5056 20 10.75 20C5.64137 20 1.5 15.8586 1.5 10.75ZM10.75 0C4.81294 0 0 4.81294 0 10.75C0 16.6871 4.81294 21.5 10.75 21.5C14.267 21.5 17.3896 19.8103 19.3496 17.2015C19.4692 17.0424 19.5206 16.8423 19.4925 16.6453C19.4645 16.4482 19.3592 16.2704 19.2 16.151L11.9999 10.75L19.2 5.34899C19.3592 5.22957 19.4645 5.05177 19.4925 4.85475C19.5206 4.65772 19.4692 4.45763 19.3496 4.29852C17.3896 1.68975 14.267 0 10.75 0ZM14.2594 11.3175C14.5673 11.5946 15.0415 11.5696 15.3186 11.2617C15.5957 10.9538 15.5707 10.4796 15.2629 10.2025L15.2517 10.1925C14.9439 9.91544 14.4696 9.9404 14.1926 10.2483C13.9155 10.5562 13.9404 11.0304 14.2483 11.3075L14.2594 11.3175ZM17.2594 11.3175C17.5673 11.5946 18.0415 11.5696 18.3186 11.2617C18.5957 10.9538 18.5707 10.4796 18.2629 10.2025L18.2517 10.1925C17.9439 9.91544 17.4696 9.9404 17.1926 10.2483C16.9155 10.5562 16.9404 11.0304 17.2483 11.3075L17.2594 11.3175ZM21.3186 11.2617C21.0415 11.5696 20.5673 11.5946 20.2594 11.3175L20.2483 11.3075C19.9404 11.0304 19.9155 10.5562 20.1926 10.2483C20.4696 9.9404 20.9439 9.91544 21.2517 10.1925L21.2629 10.2025C21.5707 10.4796 21.5957 10.9538 21.3186 11.2617Z" fill="#292927"/>
</g>
</svg>
