<svg preserveAspectRatio="xMidYMid meet" overflow="visible" style="display: block;" viewBox="0 0 24 24" fill="none" xmlns="http://www.w3.org/2000/svg">
<g transform="translate(2.2500, 2.2500)">
<path id="Vector" fill-rule="evenodd" clip-rule="evenodd" d="M18 7.5V18H13.5V15.5H14.75C15.1642 15.5 15.5 15.1642 15.5 14.75C15.5 14.3358 15.1642 14 14.75 14H13.5V11.5H14.75C15.1642 11.5 15.5 11.1642 15.5 10.75C15.5 10.3358 15.1642 10 14.75 10H13.5V7.5H18ZM12 1.5V18H1.5V3.5H6.75C7.16421 3.5 7.5 3.16421 7.5 2.75V1.5H12ZM18.15 6H13.5V1.35C13.5 0.604416 12.8956 0 12.15 0H7.35C6.60442 0 6 0.604416 6 1.35V2H1.35C0.604416 2 0 2.60442 0 3.35V18.15C0 18.8956 0.604416 19.5 1.35 19.5H18.15C18.8956 19.5 19.5 18.8956 19.5 18.15V7.35C19.5 6.60442 18.8956 6 18.15 6ZM5.26173 6.19156C5.56961 6.46865 5.59457 6.94287 5.31748 7.25075L5.30748 7.26186C5.03038 7.56975 4.55616 7.59471 4.24828 7.31761C3.9404 7.04052 3.91544 6.5663 4.19254 6.25842L4.20254 6.24731C4.47963 5.93942 4.95385 5.91446 5.26173 6.19156ZM9.26173 6.19156C9.56961 6.46865 9.59457 6.94287 9.31748 7.25075L9.30748 7.26186C9.03038 7.56975 8.55616 7.59471 8.24828 7.31761C7.9404 7.04052 7.91544 6.5663 8.19254 6.25842L8.20254 6.24731C8.47963 5.93942 8.95385 5.91446 9.26173 6.19156ZM5.31748 11.2508C5.59457 10.9429 5.56961 10.4687 5.26173 10.1916C4.95385 9.91446 4.47963 9.93942 4.20254 10.2473L4.19254 10.2584C3.91544 10.5663 3.9404 11.0405 4.24828 11.3176C4.55616 11.5947 5.03038 11.5697 5.30748 11.2619L5.31748 11.2508ZM9.26173 10.1916C9.56961 10.4687 9.59457 10.9429 9.31748 11.2508L9.30748 11.2619C9.03038 11.5697 8.55616 11.5947 8.24828 11.3176C7.9404 11.0405 7.91544 10.5663 8.19254 10.2584L8.20254 10.2473C8.47963 9.93942 8.95385 9.91446 9.26173 10.1916ZM5.31748 15.2508C5.59457 14.9429 5.56961 14.4687 5.26173 14.1916C4.95385 13.9145 4.47963 13.9394 4.20254 14.2473L4.19254 14.2584C3.91544 14.5663 3.9404 15.0405 4.24828 15.3176C4.55616 15.5947 5.03038 15.5697 5.30748 15.2619L5.31748 15.2508ZM9.26173 14.1916C9.56961 14.4687 9.59457 14.9429 9.31748 15.2508L9.30748 15.2619C9.03038 15.5697 8.55616 15.5947 8.24828 15.3176C7.9404 15.0405 7.91544 14.5663 8.19254 14.2584L8.20254 14.2473C8.47963 13.9394 8.95385 13.9145 9.26173 14.1916Z" fill="#292927"/>
</g>
</svg>
