<svg preserveAspectRatio="xMidYMid meet" overflow="visible" style="display: block;" viewBox="0 0 24 24" fill="none" xmlns="http://www.w3.org/2000/svg">
<g transform="translate(2.2500, 2.2500)">
<path id="Vector" fill-rule="evenodd" clip-rule="evenodd" d="M1.5 18V1.5H18V18H1.5ZM1.35 0C0.604417 0 0 0.604415 0 1.35V18.15C0 18.8956 0.604415 19.5 1.35 19.5H18.15C18.8956 19.5 19.5 18.8956 19.5 18.15V1.35C19.5 0.604417 18.8956 0 18.15 0H1.35ZM8.09461 5.35313C7.75014 5.64541 7.5 6.09102 7.5 6.75001C7.5 7.16422 7.16421 7.50001 6.75 7.50001C6.33579 7.50001 6 7.16422 6 6.75001C6 5.65898 6.43736 4.79209 7.12414 4.20937C7.79461 3.64048 8.66185 3.375 9.5 3.375C10.3382 3.375 11.2054 3.64049 11.8759 4.20938C12.5626 4.7921 13 5.65899 13 6.75001C13 7.51589 12.8038 8.09948 12.4834 8.58009C12.2142 8.98395 11.8643 9.29619 11.589 9.54185L11.589 9.54186L11.5885 9.54232C11.5586 9.56897 11.5296 9.59484 11.5017 9.61996C11.1945 9.8964 10.963 10.1243 10.7933 10.4241C10.631 10.7109 10.5 11.1116 10.5 11.7499C10.5 12.1642 10.1642 12.4999 9.75 12.4999C9.33579 12.4999 9 12.1642 9 11.7499C9 10.8883 9.18154 10.2265 9.48794 9.68519C9.78698 9.15688 10.1805 8.79103 10.4983 8.505L10.5705 8.44008C10.8707 8.17044 11.0776 7.98468 11.2353 7.74803C11.3837 7.52553 11.5 7.23414 11.5 6.75001C11.5 6.09103 11.2499 5.64542 10.9054 5.35314C10.5446 5.04702 10.0368 4.875 9.5 4.875C8.96315 4.875 8.45539 5.04702 8.09461 5.35313ZM10.2617 15.1916C10.5696 15.4687 10.5946 15.9429 10.3175 16.2508L10.3075 16.2619C10.0304 16.5697 9.55616 16.5947 9.24828 16.3176C8.9404 16.0405 8.91544 15.5663 9.19254 15.2584L9.20254 15.2473C9.47963 14.9394 9.95385 14.9145 10.2617 15.1916Z" fill="#292927"/>
</g>
</svg>
