<svg preserveAspectRatio="xMidYMid meet" overflow="visible" style="display: block;" viewBox="0 0 24 24" fill="none" xmlns="http://www.w3.org/2000/svg">
<g transform="translate(4.7500, 10.7500)">
<path id="Vector" fill-rule="evenodd" clip-rule="evenodd" d="M1.25 0C0.559644 0 0 0.559644 0 1.25C0 1.94036 0.559644 2.5 1.25 2.5C1.94036 2.5 2.5 1.94036 2.5 1.25C2.5 0.559644 1.94036 0 1.25 0ZM7.25 0C6.55964 0 6 0.559644 6 1.25C6 1.94036 6.55964 2.5 7.25 2.5C7.94036 2.5 8.5 1.94036 8.5 1.25C8.5 0.559644 7.94036 0 7.25 0ZM13.25 0C12.5596 0 12 0.559644 12 1.25C12 1.94036 12.5596 2.5 13.25 2.5C13.9404 2.5 14.5 1.94036 14.5 1.25C14.5 0.559644 13.9404 0 13.25 0Z" fill="#292927"/>
</g>
</svg>
