<svg preserveAspectRatio="xMidYMid meet" overflow="visible" style="display: block;" viewBox="0 0 24 24" fill="none" xmlns="http://www.w3.org/2000/svg">
<g transform="translate(3.4418, 2.9185)">
<path id="Vector" fill-rule="evenodd" clip-rule="evenodd" d="M8.16076 0.114001C8.40396 -0.0380004 8.71256 -0.0380004 8.95576 0.114001L12.9558 2.614C13.307 2.83353 13.4138 3.29625 13.1943 3.6475C12.9747 3.99875 12.512 4.10553 12.1608 3.886L9.30826 2.10319V7.25C9.30826 7.66421 8.97247 8 8.55826 8C8.14405 8 7.80826 7.66421 7.80826 7.25V2.10319L4.95576 3.886C4.60451 4.10553 4.1418 3.99875 3.92226 3.6475C3.70273 3.29625 3.80951 2.83353 4.16076 2.614L8.16076 0.114001ZM9.38872 9.48468C8.91511 9.0637 8.20142 9.0637 7.72781 9.48468L0.424621 15.9764C-0.525794 16.8212 0.245425 18.3804 1.49366 18.1377L8.55826 16.764L15.6229 18.1377C16.8711 18.3804 17.6423 16.8212 16.6919 15.9764L9.38872 9.48468ZM2.10348 16.491L8.55826 10.7534L15.013 16.491L8.79685 15.2823C8.63927 15.2517 8.47726 15.2517 8.31968 15.2823L2.10348 16.491Z" fill="#292927"/>
</g>
</svg>
