<svg preserveAspectRatio="xMidYMid meet" overflow="visible" style="display: block;" viewBox="0 0 24 24" fill="none" xmlns="http://www.w3.org/2000/svg">
<g transform="translate(1.2500, 2.2500)">
<path id="Vector" fill-rule="evenodd" clip-rule="evenodd" d="M1.35 0C0.604415 0 0 0.604416 0 1.35V16.15C0 16.8956 0.604415 17.5 1.35 17.5H8.75C9.16421 17.5 9.5 17.1642 9.5 16.75C9.5 16.3358 9.16421 16 8.75 16H1.5V8.5H8.75C9.16421 8.5 9.5 8.16421 9.5 7.75C9.5 7.33579 9.16421 7 8.75 7H1.5V1.5H7.47256L10.5934 4.175C10.8381 4.38472 11.1497 4.5 11.472 4.5H20V6.75C20 7.16421 20.3358 7.5 20.75 7.5C21.1642 7.5 21.5 7.16421 21.5 6.75V4.35C21.5 3.60442 20.8956 3 20.15 3H11.5274L8.40661 0.325004C8.16194 0.115279 7.85031 0 7.52805 0H1.35ZM20 18V10.5H12.5V18H20ZM21.5 18.15C21.5 18.8956 20.8956 19.5 20.15 19.5H12.35C11.6044 19.5 11 18.8956 11 18.15V10.35C11 9.60441 11.6044 9 12.35 9H20.15C20.8956 9 21.5 9.60442 21.5 10.35V18.15ZM15.5 13.1033V15.3969L17.3349 14.2501L15.5 13.1033ZM14 12.8326C14 11.7723 15.1663 11.1259 16.0655 11.6878L18.3334 13.1053C19.1794 13.634 19.1794 14.8661 18.3334 15.3949L16.0655 16.8123C15.1663 17.3743 14 16.7279 14 15.6675V12.8326Z" fill="#292927"/>
</g>
</svg>
