<svg preserveAspectRatio="xMidYMid meet" overflow="visible" style="display: block;" viewBox="0 0 24 24" fill="none" xmlns="http://www.w3.org/2000/svg">
<g transform="translate(1.8484, 2.2500)">
<path id="Vector" fill-rule="evenodd" clip-rule="evenodd" d="M13.2813 19.5C16.7207 19.5 19.6102 16.9138 19.99 13.4954L20.2006 11.5997C20.3372 10.3704 20.3372 9.12964 20.2006 7.90027L19.99 6.00459C19.6102 2.58616 16.7207 0 13.2813 0H7.02179C3.58234 0 0.692904 2.58617 0.313078 6.00459L0.102448 7.90027C-0.0341492 9.12964 -0.0341492 10.3704 0.102448 11.5997L0.313078 13.4954C0.692904 16.9138 3.58234 19.5 7.02179 19.5H13.2813ZM18.4992 13.3298C18.2038 15.9885 15.9564 18 13.2813 18H7.02179C4.34666 18 2.09932 15.9885 1.8039 13.3298L1.59327 11.4341C1.46891 10.3148 1.46891 9.1852 1.59327 8.06592L1.8039 6.17023C2.09932 3.51146 4.34666 1.5 7.02179 1.5H13.2813C15.9564 1.5 18.2038 3.51146 18.4992 6.17023L18.7098 8.06592C18.8342 9.18519 18.8342 10.3148 18.7098 11.4341L18.4992 13.3298ZM6.40154 14.75C6.40154 15.1642 6.73733 15.5 7.15154 15.5C7.56575 15.5 7.90154 15.1642 7.90154 14.75V11.5H11.1515C13.2226 11.5 14.9015 9.82107 14.9015 7.75C14.9015 5.67893 13.2226 4 11.1515 4L7.15154 4C6.95263 4 6.76186 4.07902 6.62121 4.21967C6.48056 4.36032 6.40154 4.55109 6.40154 4.75V14.75ZM11.1515 10H7.90154V5.5L11.1515 5.5C12.3942 5.5 13.4015 6.50736 13.4015 7.75C13.4015 8.99264 12.3942 10 11.1515 10Z" fill="#292927"/>
</g>
</svg>
