<svg preserveAspectRatio="xMidYMid meet" overflow="visible" style="display: block;" viewBox="0 0 24 24" fill="none" xmlns="http://www.w3.org/2000/svg">
<g transform="translate(2.2500, 2.2500)">
<path id="Vector" fill-rule="evenodd" clip-rule="evenodd" d="M17.5 2V0.75C17.5 0.335786 17.1642 0 16.75 0C16.3358 0 16 0.335786 16 0.75V2H15.35C14.6044 2 14 2.60442 14 3.35V8.15C14 8.89559 14.6044 9.5 15.35 9.5H16V10.75C16 11.1642 16.3358 11.5 16.75 11.5C17.1642 11.5 17.5 11.1642 17.5 10.75V9.5H18.15C18.8956 9.5 19.5 8.89558 19.5 8.15V3.35C19.5 2.60441 18.8956 2 18.15 2H17.5ZM16.75 3.5H15.5V8H16.75H18V3.5H16.75ZM3.5 5V3.75C3.5 3.33579 3.16421 3 2.75 3C2.33579 3 2 3.33579 2 3.75V5H1.35C0.604415 5 0 5.60442 0 6.35V11.15C0 11.8956 0.604416 12.5 1.35 12.5H2V13.75C2 14.1642 2.33579 14.5 2.75 14.5C3.16421 14.5 3.5 14.1642 3.5 13.75V12.5H4.15C4.89558 12.5 5.5 11.8956 5.5 11.15V6.35C5.5 5.60441 4.89558 5 4.15 5H3.5ZM2.75 6.5H1.5V11H2.75H4V6.5H2.75ZM9.75 19.5C9.33579 19.5 9 19.1642 9 18.75V17.5H8.35C7.60442 17.5 7 16.8956 7 16.15V11.35C7 10.6044 7.60442 10 8.35 10H9V8.75C9 8.33579 9.33579 8 9.75 8C10.1642 8 10.5 8.33579 10.5 8.75V10H11.15C11.8956 10 12.5 10.6044 12.5 11.35V16.15C12.5 16.8956 11.8956 17.5 11.15 17.5H10.5V18.75C10.5 19.1642 10.1642 19.5 9.75 19.5ZM8.5 11.5H9.75H11V16H9.75H8.5V11.5Z" fill="#292927"/>
</g>
</svg>
