<svg preserveAspectRatio="xMidYMid meet" overflow="visible" style="display: block;" viewBox="0 0 24 24" fill="none" xmlns="http://www.w3.org/2000/svg">
<g transform="translate(2.3701, 1.5244)">
<path id="Vector" fill-rule="evenodd" clip-rule="evenodd" d="M10.2265 0.0654856C9.83354 -0.0218285 9.42625 -0.0218286 9.03333 0.0654855L1.37117 1.76819C0.482459 1.96568 -0.112102 2.81056 0.0177899 3.7198L1.88743 16.8073C1.93312 17.1271 2.0985 18.2149 3.22484 19.2011C4.33821 20.176 6.27404 20.9512 9.62989 20.9512C12.9857 20.9512 14.9216 20.176 16.0349 19.2011C17.1613 18.2149 17.3267 17.1271 17.3724 16.8073L19.242 3.7198C19.3719 2.81056 18.7773 1.96568 17.8886 1.76819L10.2265 0.0654856ZM9.35873 1.52977C9.53732 1.49008 9.72246 1.49008 9.90105 1.52977L17.5632 3.23247C17.6947 3.26168 17.775 3.38234 17.7571 3.50767L15.8863 16.6031C15.8598 16.7896 15.7671 17.4418 15.0468 18.0726C14.3029 18.724 12.774 19.4512 9.62989 19.4512C6.48574 19.4512 4.95693 18.724 4.21298 18.0726C3.49264 17.4418 3.39997 16.7896 3.37349 16.6031L1.50271 3.50767C1.48481 3.38234 1.5651 3.26168 1.69657 3.23247L9.35873 1.52977ZM9.1299 7.95117C8.1634 7.95117 7.3799 8.73467 7.3799 9.70117C7.3799 10.6677 8.1634 11.4512 9.1299 11.4512C9.61419 11.4512 10.0513 11.2554 10.369 10.937C10.6855 10.6196 10.8799 10.1838 10.8799 9.70117C10.8799 8.73467 10.0964 7.95117 9.1299 7.95117ZM5.8799 9.70117C5.8799 7.90625 7.33497 6.45117 9.1299 6.45117C10.9248 6.45117 12.3799 7.90625 12.3799 9.70117C12.3799 10.3266 12.2028 10.9113 11.8965 11.4071L13.1602 12.6708C13.4531 12.9637 13.4531 13.4386 13.1602 13.7315C12.8673 14.0244 12.3925 14.0244 12.0996 13.7315L10.8359 12.4678C10.3401 12.774 9.75532 12.9512 9.1299 12.9512C7.33497 12.9512 5.8799 11.4961 5.8799 9.70117Z" fill="#292927"/>
</g>
</svg>
