<svg preserveAspectRatio="xMidYMid meet" overflow="visible" style="display: block;" viewBox="0 0 24 24" fill="none" xmlns="http://www.w3.org/2000/svg">
<g transform="translate(4.7382, 2.7500)">
<path id="Vector" fill-rule="evenodd" clip-rule="evenodd" d="M2.01184 1.5V5H5.36185H9.16185H12.5118V1.5H10.0118V2.75C10.0118 3.16421 9.67605 3.5 9.26184 3.5C8.84763 3.5 8.51184 3.16421 8.51184 2.75V1.5H6.01184V2.75C6.01184 3.16421 5.67605 3.5 5.26184 3.5C4.84763 3.5 4.51184 3.16421 4.51184 2.75V1.5H2.01184ZM10.5119 6.5H12.6618C13.4074 6.5 14.0118 5.89558 14.0118 5.15V1.35C14.0118 0.604415 13.4074 0 12.6618 0H9.26184H5.26184H1.86184C1.11626 0 0.511841 0.604416 0.511841 1.35V5.15C0.511841 5.89558 1.11626 6.5 1.86184 6.5H4.01185V7.04267C3.72055 7.14563 3.51184 7.42344 3.51184 7.75C3.51184 8.04841 3.68612 8.30612 3.93844 8.42689C3.87228 8.77507 3.76194 9.17725 3.60972 9.62495C3.35808 10.365 3.00964 11.1795 2.61807 12H2.26184C1.84763 12 1.51184 12.3358 1.51184 12.75C1.51184 13.0364 1.67237 13.2853 1.90835 13.4116C1.27818 14.6096 0.639759 15.6993 0.197878 16.4292C-0.345988 17.3276 0.293126 18.5 1.36085 18.5H13.1629C14.2306 18.5 14.8697 17.3277 14.3258 16.4292C13.8839 15.6993 13.2455 14.6096 12.6153 13.4116C12.8513 13.2853 13.0118 13.0364 13.0118 12.75C13.0118 12.3358 12.6761 12 12.2618 12H11.9056C11.5141 11.1795 11.1656 10.365 10.914 9.62495C10.7618 9.17724 10.6514 8.77506 10.5853 8.42688C10.8376 8.3061 11.0118 8.0484 11.0118 7.75C11.0118 7.42345 10.8031 7.14564 10.5119 7.04268V6.5ZM9.01185 6.5H5.51185V7H9.01185V6.5ZM9.07571 8.5H5.448C5.36738 9.01193 5.21643 9.55914 5.02987 10.1078C4.82266 10.7172 4.5608 11.3588 4.27179 12H10.2519C9.9629 11.3588 9.70104 10.7172 9.49383 10.1078C9.30727 9.55914 9.15633 9.01193 9.07571 8.5ZM10.9726 13.5H3.5511C2.86058 14.8613 2.1252 16.1336 1.60525 17H12.9185C12.3985 16.1336 11.6631 14.8613 10.9726 13.5Z" fill="#292927"/>
</g>
</svg>
