<svg preserveAspectRatio="xMidYMid meet" overflow="visible" style="display: block;" viewBox="0 0 24 24" fill="none" xmlns="http://www.w3.org/2000/svg">
<g transform="translate(1.7500, 1.9383)">
<path id="Vector" fill-rule="evenodd" clip-rule="evenodd" d="M1.78033 0.21967C1.48744 -0.0732233 1.01256 -0.0732233 0.71967 0.21967C0.426777 0.512563 0.426777 0.987437 0.71967 1.28033L6.93763 7.49829L0.634501 11.4378C0.239787 11.6844 0 12.1171 0 12.5825V13.4815C0 14.3598 0.825374 15.0042 1.67742 14.7912L8 13.2106V15.9097L5.89093 17.7551C4.85973 18.6574 5.67329 20.3444 7.02141 20.0993L10.25 19.5123L13.4786 20.0993C14.8267 20.3444 15.6403 18.6574 14.6091 17.7551L12.5 15.9097V13.2106L12.6999 13.2606L18.7197 19.2803C19.0126 19.5732 19.4874 19.5732 19.7803 19.2803C20.0732 18.9874 20.0732 18.5126 19.7803 18.2197L1.78033 0.21967ZM11.4508 12.0115L8.02617 8.58683L1.5 12.6657V13.2894L7.82258 11.7088C8.67463 11.4958 9.5 12.1402 9.5 13.0185V15.9777C9.5 16.367 9.33195 16.7374 9.03898 16.9937L7.28739 18.5264L10.0085 18.0316C10.1682 18.0026 10.3318 18.0026 10.4915 18.0316L13.2126 18.5264L11.461 16.9937C11.168 16.7374 11 16.367 11 15.9777V13.0185C11 12.6122 11.1766 12.2559 11.4508 12.0115ZM10.25 0C9.00736 0 8 1.00736 8 2.25V5.25C8 5.66421 8.33579 6 8.75 6C9.16421 6 9.5 5.66421 9.5 5.25V2.25C9.5 1.83579 9.83579 1.5 10.25 1.5C10.6642 1.5 11 1.83579 11 2.25V6.91745C11 7.38292 11.2398 7.81555 11.6345 8.06225L19 12.6657V13.2894L17.1812 12.8347C16.7794 12.7343 16.3722 12.9786 16.2717 13.3804C16.1713 13.7823 16.4156 14.1895 16.8174 14.2899L18.8226 14.7912C19.6746 15.0042 20.5 14.3598 20.5 13.4815V12.5825C20.5 12.1171 20.2602 11.6844 19.8655 11.4378L12.5 6.83431V2.25C12.5 1.00736 11.4926 0 10.25 0Z" fill="#292927"/>
</g>
</svg>
