<svg preserveAspectRatio="xMidYMid meet" overflow="visible" style="display: block;" viewBox="0 0 24 24" fill="none" xmlns="http://www.w3.org/2000/svg">
<g transform="translate(2.2500, 2.2500)">
<path id="Vector" fill-rule="evenodd" clip-rule="evenodd" d="M1.5 1.5V18H18V1.5H1.5ZM0 1.35C0 0.604415 0.604417 0 1.35 0H18.15C18.8956 0 19.5 0.604417 19.5 1.35V18.15C19.5 18.8956 18.8956 19.5 18.15 19.5H1.35C0.604415 19.5 0 18.8956 0 18.15V1.35ZM9.75 11.5C8.7835 11.5 8 10.7165 8 9.75C8 8.7835 8.7835 8 9.75 8C10.7165 8 11.5 8.7835 11.5 9.75C11.5 10.7165 10.7165 11.5 9.75 11.5Z" fill="#292927"/>
</g>
</svg>
