<svg preserveAspectRatio="xMidYMid meet" overflow="visible" style="display: block;" viewBox="0 0 24 24" fill="none" xmlns="http://www.w3.org/2000/svg">
<g transform="translate(1.2499, 2.2500)">
<path id="Vector" fill-rule="evenodd" clip-rule="evenodd" d="M1.35 0C0.604415 0 0 0.604416 0 1.35V16.15C0 16.8956 0.604415 17.5 1.35 17.5H8.75C9.16421 17.5 9.5 17.1642 9.5 16.75C9.5 16.3358 9.16421 16 8.75 16H1.5V8.5H8.75C9.16421 8.5 9.5 8.16421 9.5 7.75C9.5 7.33579 9.16421 7 8.75 7H1.5V1.5H7.47256L10.5934 4.175C10.8381 4.38472 11.1497 4.5 11.472 4.5H20V6.75C20 7.16421 20.3358 7.5 20.75 7.5C21.1642 7.5 21.5 7.16421 21.5 6.75V4.35C21.5 3.60442 20.8956 3 20.15 3H11.5274L8.40661 0.325004C8.16194 0.115279 7.85031 0 7.52805 0H1.35ZM20 10.5V15.6792L15.5063 14.0452C15.3452 13.9866 15.1689 13.9849 15.0067 14.0405L12.5 14.9V10.5H20ZM21.5 10.35V16.733C21.5003 16.7444 21.5003 16.7557 21.5 16.7671V18.15C21.5 18.8956 20.8956 19.5 20.15 19.5H12.35C11.6044 19.5 11 18.8956 11 18.15V15.9678C10.9997 15.9559 10.9997 15.944 11 15.9321V10.35C11 9.60441 11.6044 9 12.35 9H20.15C20.8956 9 21.5 9.60442 21.5 10.35ZM15.2426 15.5454L20 17.2753V18H12.5V16.4857L15.2426 15.5454ZM18.8175 12.7508C19.0946 12.4429 19.0696 11.9687 18.7617 11.6916C18.4538 11.4145 17.9796 11.4394 17.7025 11.7473L17.6925 11.7584C17.4154 12.0663 17.4404 12.5405 17.7483 12.8176C18.0562 13.0947 18.5304 13.0697 18.8075 12.7619L18.8175 12.7508Z" fill="#292927"/>
</g>
</svg>
