<svg preserveAspectRatio="xMidYMid meet" overflow="visible" style="display: block;" viewBox="0 0 24 24" fill="none" xmlns="http://www.w3.org/2000/svg">
<g transform="translate(2.2500, 2.2500)">
<path id="Vector" fill-rule="evenodd" clip-rule="evenodd" d="M1.5 18V1.5H18V18H1.5ZM1.35 0C0.604417 0 0 0.604415 0 1.35V18.15C0 18.8956 0.604415 19.5 1.35 19.5H18.15C18.8956 19.5 19.5 18.8956 19.5 18.15V1.35C19.5 0.604417 18.8956 0 18.15 0H1.35ZM5.75 10C5.33579 10 5 10.3358 5 10.75C5 11.1642 5.33579 11.5 5.75 11.5H8.99999V12H5.75C5.33579 12 5 12.3358 5 12.75C5 13.1642 5.33579 13.5 5.75 13.5H8.99999V15.75C8.99999 16.1642 9.33578 16.5 9.74999 16.5C10.1642 16.5 10.5 16.1642 10.5 15.75V13.5H13.75C14.1642 13.5 14.5 13.1642 14.5 12.75C14.5 12.3358 14.1642 12 13.75 12H10.5V11.5H13.75C14.1642 11.5 14.5 11.1642 14.5 10.75C14.5 10.3358 14.1642 10 13.75 10H10.8592L14.3565 5.19113C14.6002 4.85614 14.5261 4.38708 14.1911 4.14345C13.8561 3.89982 13.3871 3.97388 13.1434 4.30887L9.74999 8.97486L6.35654 4.30887C6.11292 3.97388 5.64385 3.89982 5.30886 4.14345C4.97387 4.38708 4.89981 4.85614 5.14344 5.19113L8.6408 10H5.75Z" fill="#292927"/>
</g>
</svg>
