<svg preserveAspectRatio="xMidYMid meet" overflow="visible" style="display: block;" viewBox="0 0 24 24" fill="none" xmlns="http://www.w3.org/2000/svg">
<g transform="translate(1.2499, 3.2449)">
<path id="Vector" fill-rule="evenodd" clip-rule="evenodd" d="M20.0002 14.75C20.0002 15.4404 19.4405 16 18.7502 16H13.7502C13.336 16 13.0002 16.3358 13.0002 16.75C13.0002 17.1642 13.336 17.5 13.7502 17.5H18.7502C20.269 17.5 21.5002 16.2688 21.5002 14.75V2.75C21.5002 1.23122 20.269 0 18.7502 0H2.75018C1.2314 0 0.000183081 1.23122 0.000183081 2.75V3.75C0.000183081 4.16421 0.33597 4.5 0.750183 4.5C1.1644 4.5 1.50018 4.16421 1.50018 3.75V2.75C1.50018 2.05964 2.05983 1.5 2.75018 1.5H18.7502C19.4405 1.5 20.0002 2.05964 20.0002 2.75V14.75ZM1.31766 17.2508C1.59475 16.9429 1.5698 16.4687 1.26191 16.1916C0.954031 15.9145 0.479814 15.9394 0.202719 16.2473L0.192719 16.2584C-0.0843752 16.5663 -0.0594167 17.0405 0.248466 17.3176C0.556348 17.5947 1.03057 17.5697 1.30766 17.2619L1.31766 17.2508ZM0.0225705 12.5683C0.123032 12.1664 0.530233 11.9221 0.932079 12.0226C3.20079 12.5897 4.91061 14.2996 5.47778 16.5683C5.57825 16.9701 5.33393 17.3773 4.93208 17.4778C4.53023 17.5782 4.12303 17.3339 4.02257 16.9321C3.58975 15.2008 2.29956 13.9106 0.568276 13.4778C0.166429 13.3773 -0.077891 12.9701 0.0225705 12.5683ZM0.843227 8.00587C0.432212 7.95449 0.0573695 8.24604 0.00599263 8.65705C-0.0453842 9.06807 0.24616 9.44291 0.657175 9.49429C4.31672 9.95173 7.54855 13.1836 8.00599 16.8431C8.05737 17.2541 8.43221 17.5457 8.84323 17.4943C9.25424 17.4429 9.54579 17.0681 9.49441 16.6571C8.95185 12.3166 5.18368 8.54843 0.843227 8.00587Z" fill="#292927"/>
</g>
</svg>
