<svg preserveAspectRatio="xMidYMid meet" overflow="visible" style="display: block;" viewBox="0 0 24 24" fill="none" xmlns="http://www.w3.org/2000/svg">
<g transform="translate(2.2500, 1.2500)">
<path id="Vector" fill-rule="evenodd" clip-rule="evenodd" d="M4.23969 4.84326C4.02536 5.04228 3.94628 5.34774 4.03711 5.62576C4.12793 5.90378 4.37287 6.10373 4.66336 6.13783L4.69904 6.14196L4.80093 6.15352L4.88038 6.16238L2.18933 9.19126C2.02739 9.37353 1.96416 9.62314 2.0198 9.86053C2.07543 10.0979 2.24389 10.2938 2.46995 10.3851L2.4711 10.3856L2.47413 10.3868L2.48307 10.3904L2.51245 10.4017C2.53712 10.4112 2.57192 10.4242 2.61665 10.4404C2.70256 10.4714 2.8251 10.5138 2.98275 10.564L0.184169 13.7808C-0.0826503 14.0875 -0.0565587 14.5509 0.243 14.8257L0.244381 14.827L0.246016 14.8285L0.250049 14.8322L0.261175 14.8421C0.269955 14.8498 0.281468 14.8599 0.295741 14.872C0.324287 14.8963 0.363878 14.9291 0.414739 14.9691C0.516462 15.0491 0.663272 15.158 0.856964 15.2859C1.24445 15.5418 1.81914 15.8736 2.59508 16.2022C4.02714 16.8085 6.13426 17.3993 9 17.4884V20.75C9 21.1642 9.33579 21.5 9.75 21.5C10.1642 21.5 10.5 21.1642 10.5 20.75V17.4884C13.3657 17.3993 15.4729 16.8085 16.9049 16.2022C17.6809 15.8736 18.2556 15.5418 18.6431 15.2859C18.8367 15.158 18.9836 15.0491 19.0853 14.9691C19.1361 14.9291 19.1757 14.8963 19.2043 14.872C19.2185 14.8599 19.2301 14.8498 19.2388 14.8421L19.25 14.8322L19.254 14.8285L19.2556 14.827L19.257 14.8257C19.5566 14.5509 19.5827 14.0875 19.3158 13.7808L16.5173 10.564C16.6749 10.5138 16.7975 10.4714 16.8834 10.4404C16.9281 10.4242 16.9629 10.4112 16.9876 10.4017L17.017 10.3904L17.0259 10.3868L17.0289 10.3856L17.031 10.3848C17.257 10.2934 17.4246 10.0979 17.4802 9.86053C17.5359 9.62314 17.4726 9.37353 17.3107 9.19126L14.6196 6.16238L14.6991 6.15352L14.801 6.14196L14.8375 6.13774C15.128 6.10364 15.3721 5.90378 15.4629 5.62576C15.5538 5.34774 15.4747 5.04228 15.2604 4.84326L10.2604 0.200405C9.9726 -0.0668016 9.52745 -0.0668017 9.23969 0.200405L4.23969 4.84326ZM1.85598 14.1445L4.60393 10.9859C5.84577 11.2493 7.59378 11.5 9.75001 11.5C11.9062 11.5 13.6542 11.2493 14.8961 10.9859L17.644 14.1445C17.3311 14.3384 16.8925 14.5785 16.3201 14.8209C14.9493 15.4013 12.7987 16 9.75001 16C6.70133 16 4.55071 15.4013 3.17993 14.8209C2.60753 14.5785 2.16893 14.3384 1.85598 14.1445ZM12.7732 6.34256C11.8144 6.42385 10.6729 6.5 9.75003 6.5C8.82713 6.5 7.68561 6.42385 6.7268 6.34256L4.08087 9.32066C4.28337 9.37413 4.51374 9.43062 4.7708 9.48727C5.92746 9.74219 7.62311 10 9.75001 10C11.8769 10 13.5726 9.74219 14.7292 9.48727C14.9863 9.43062 15.2167 9.37413 15.4192 9.32066L12.7732 6.34256ZM6.58228 4.82437L6.47482 4.81474L9.75003 1.77348L13.0252 4.81474L12.9178 4.82437C11.9166 4.91329 10.694 5 9.75003 5C8.8061 5 7.5835 4.91329 6.58228 4.82437Z" fill="#292927"/>
</g>
</svg>
