<svg preserveAspectRatio="xMidYMid meet" overflow="visible" style="display: block;" viewBox="0 0 24 24" fill="none" xmlns="http://www.w3.org/2000/svg">
<g transform="translate(2.2500, 2.2500)">
<path id="Vector" fill-rule="evenodd" clip-rule="evenodd" d="M1.5 2.75C1.5 2.05964 2.05964 1.5 2.75 1.5H8.75C9.16421 1.5 9.5 1.16421 9.5 0.75C9.5 0.335786 9.16421 0 8.75 0H2.75C1.23122 0 0 1.23122 0 2.75V16.75C0 18.2688 1.23122 19.5 2.75 19.5H16.75C18.2688 19.5 19.5 18.2688 19.5 16.75V10.75C19.5 10.3358 19.1642 10 18.75 10C18.3358 10 18 10.3358 18 10.75V16.75C18 17.4404 17.4404 18 16.75 18H2.75C2.05964 18 1.5 17.4404 1.5 16.75V2.75ZM19.5 0.75C19.5 0.335786 19.1642 0 18.75 0H12.75C12.3358 0 12 0.335786 12 0.75C12 1.16421 12.3358 1.5 12.75 1.5H16.9393L9.21967 9.21967C8.92678 9.51256 8.92678 9.98744 9.21967 10.2803C9.51256 10.5732 9.98744 10.5732 10.2803 10.2803L18 2.56066V6.75C18 7.16421 18.3358 7.5 18.75 7.5C19.1642 7.5 19.5 7.16421 19.5 6.75V0.75Z" fill="#292927"/>
</g>
</svg>
