<svg preserveAspectRatio="xMidYMid meet" overflow="visible" style="display: block;" viewBox="0 0 24 24" fill="none" xmlns="http://www.w3.org/2000/svg">
<g transform="translate(0.2500, 5.2500)">
<path id="Vector" fill-rule="evenodd" clip-rule="evenodd" d="M2.75 1.5C2.05964 1.5 1.5 2.05964 1.5 2.75V10.75C1.5 11.4404 2.05964 12 2.75 12H17.75C18.4404 12 19 11.4404 19 10.75V2.75C19 2.05964 18.4404 1.5 17.75 1.5H2.75ZM0 2.75C0 1.23122 1.23122 0 2.75 0H17.75C19.2688 0 20.5 1.23122 20.5 2.75V10.75C20.5 12.2688 19.2688 13.5 17.75 13.5H2.75C1.23122 13.5 0 12.2688 0 10.75V2.75ZM22.75 4C23.1642 4 23.5 4.33579 23.5 4.75V8.75C23.5 9.16421 23.1642 9.5 22.75 9.5C22.3358 9.5 22 9.16421 22 8.75V4.75C22 4.33579 22.3358 4 22.75 4ZM4.5 9V4.5H6V9H4.5ZM4.35 3C3.60442 3 3 3.60442 3 4.35V9.15C3 9.89559 3.60442 10.5 4.35 10.5H6.15C6.89558 10.5 7.5 9.89558 7.5 9.15V4.35C7.5 3.60441 6.89558 3 6.15 3H4.35Z" fill="#292927"/>
</g>
</svg>
