<svg preserveAspectRatio="xMidYMid meet" overflow="visible" style="display: block;" viewBox="0 0 24 24" fill="none" xmlns="http://www.w3.org/2000/svg">
<g transform="translate(1.3476, 1.4215)">
<path id="Vector" fill-rule="evenodd" clip-rule="evenodd" d="M6.36941 0H2.61849C1.08295 0 -0.214543 1.2903 0.0297036 2.90775C0.324147 4.85761 1.0126 7.91137 2.62202 10.8565C2.82065 11.22 3.27633 11.3536 3.63981 11.155C4.00329 10.9563 4.13693 10.5007 3.9383 10.1372C2.44396 7.40265 1.79286 4.5378 1.51289 2.68378C1.42042 2.07142 1.89894 1.5 2.61849 1.5L5.85019 1.5L7.04921 4.6881L6.59723 7.11255C6.52132 7.51975 6.78988 7.91139 7.19708 7.9873C7.60428 8.06321 7.99592 7.79465 8.07183 7.38745L8.56215 4.75735C8.58723 4.62281 8.57502 4.48398 8.52684 4.35588L7.0714 0.485986C6.96144 0.193609 6.68178 0 6.36941 0ZM9.29783 13.0677L7.66309 14.7025C11.221 17.6679 15.8264 19.0447 18.5174 19.6301C19.1711 19.7723 19.8049 19.2747 19.8049 18.5155L19.8049 15.448L16.6059 14.229L12.6976 14.9863C12.535 15.0178 12.3665 14.9946 12.2185 14.9203C11.1029 14.3604 10.1322 13.7579 9.29783 13.0677ZM6.59843 15.7671L2.08523 20.2803C1.79234 20.5732 1.31746 20.5732 1.02457 20.2803C0.731676 19.9874 0.731676 19.5126 1.02457 19.2197L19.0246 1.21967C19.3175 0.926777 19.7923 0.926777 20.0852 1.21967C20.3781 1.51256 20.3781 1.98744 20.0852 2.28033L10.3639 12.0016C11.0122 12.5226 11.7722 13.0023 12.6655 13.4646L16.5304 12.7157C16.6677 12.6891 16.8096 12.7014 16.9402 12.7512L20.822 14.2304C21.1127 14.3412 21.3049 14.62 21.3049 14.9312L21.3049 18.5155C21.3049 20.1403 19.8744 21.4604 18.1985 21.0958C15.4061 20.4883 10.4522 19.0275 6.59843 15.7671Z" fill="#292927"/>
</g>
</svg>
