<svg preserveAspectRatio="xMidYMid meet" overflow="visible" style="display: block;" viewBox="0 0 24 24" fill="none" xmlns="http://www.w3.org/2000/svg">
<g transform="translate(8.2500, 1.2500)">
<path id="Vector" fill-rule="evenodd" clip-rule="evenodd" d="M4.28033 0.21967C3.98744 -0.0732233 3.51256 -0.0732233 3.21967 0.21967L0.21967 3.21967C-0.0732233 3.51256 -0.0732233 3.98744 0.21967 4.28033C0.512563 4.57322 0.987437 4.57322 1.28033 4.28033L3 2.56066V13.75C3 14.1642 3.33579 14.5 3.75 14.5C4.16421 14.5 4.5 14.1642 4.5 13.75L4.5 2.56066L6.21967 4.28033C6.51256 4.57322 6.98744 4.57322 7.28033 4.28033C7.57322 3.98744 7.57322 3.51256 7.28033 3.21967L4.28033 0.21967ZM5 18.75C5 18.0596 4.44036 17.5 3.75 17.5C3.05964 17.5 2.5 18.0596 2.5 18.75C2.5 19.4404 3.05964 20 3.75 20C4.44036 20 5 19.4404 5 18.75ZM3.75 16C5.26878 16 6.5 17.2312 6.5 18.75C6.5 20.2688 5.26878 21.5 3.75 21.5C2.23122 21.5 1 20.2688 1 18.75C1 17.2312 2.23122 16 3.75 16Z" fill="#292927"/>
</g>
</svg>
