<svg preserveAspectRatio="xMidYMid meet" overflow="visible" style="display: block;" viewBox="0 0 24 24" fill="none" xmlns="http://www.w3.org/2000/svg">
<g transform="translate(3.2500, 5.2444)">
<path id="Vector" fill-rule="evenodd" clip-rule="evenodd" d="M1.31748 1.25173C1.59457 0.943848 1.56961 0.469631 1.26173 0.192536C0.953848 -0.0845583 0.479631 -0.0595998 0.202536 0.248283L0.192536 0.259394C-0.0845583 0.567276 -0.0595998 1.04149 0.248283 1.31859C0.556165 1.59568 1.03038 1.57072 1.30748 1.26284L1.31748 1.25173ZM4.75 0.00097663C4.33579 0.000976593 4 0.336763 4 0.750977C4 1.16519 4.33579 1.50098 4.75 1.50098L16.75 1.50098C17.1642 1.50098 17.5 1.16519 17.5 0.750978C17.5 0.336764 17.1642 0.000977715 16.75 0.000977679L4.75 0.00097663ZM1.26173 6.19254C1.56961 6.46963 1.59457 6.94385 1.31748 7.25173L1.30748 7.26284C1.03038 7.57072 0.556165 7.59568 0.248283 7.31859C-0.0595998 7.04149 -0.0845583 6.56728 0.192536 6.25939L0.202536 6.24828C0.479631 5.9404 0.953848 5.91544 1.26173 6.19254ZM1.31748 13.2517C1.59457 12.9438 1.56961 12.4696 1.26173 12.1925C0.953848 11.9154 0.479631 11.9404 0.202536 12.2483L0.192536 12.2594C-0.0845583 12.5673 -0.0595998 13.0415 0.248283 13.3186C0.556165 13.5957 1.03038 13.5707 1.30748 13.2628L1.31748 13.2517ZM4 6.75098C4 6.33676 4.33579 6.00098 4.75 6.00098L16.75 6.00098C17.1642 6.00098 17.5 6.33676 17.5 6.75098C17.5 7.16519 17.1642 7.50098 16.75 7.50098L4.75 7.50098C4.33579 7.50098 4 7.16519 4 6.75098ZM4.75 12.001C4.33579 12.001 4 12.3368 4 12.751C4 13.1652 4.33579 13.501 4.75 13.501L16.75 13.501C17.1642 13.501 17.5 13.1652 17.5 12.751C17.5 12.3368 17.1642 12.001 16.75 12.001L4.75 12.001Z" fill="#292927"/>
</g>
</svg>
