<svg preserveAspectRatio="xMidYMid meet" overflow="visible" style="display: block;" viewBox="0 0 24 24" fill="none" xmlns="http://www.w3.org/2000/svg">
<g transform="translate(2.8085, 2.6098)">
<path id="Vector" fill-rule="evenodd" clip-rule="evenodd" d="M9.18615 16.8525C9.50209 17.3791 10.2462 17.4291 10.6298 16.9496C10.8106 16.7236 10.8689 16.4232 10.7858 16.146L9.76335 12.7379C9.5035 11.8717 10.1521 11 11.0564 11H15.6315C16.4557 11 17.0543 10.2163 16.8375 9.42111L14.9284 2.4211C14.78 1.87728 14.2861 1.5 13.7224 1.5H5V11.1454C5.60852 11.3516 6.13545 11.768 6.47572 12.3351L9.18615 16.8525ZM3.5 11V1.5H1.5V11H3.5ZM11.8011 17.8867C10.7645 19.1824 8.75366 19.0472 7.89991 17.6243L5.18949 13.1069C4.96358 12.7304 4.5567 12.5 4.11762 12.5H1.35C0.604415 12.5 0 11.8956 0 11.15V1.35C0 0.604416 0.604415 0 1.35 0H13.7224C14.9625 0 16.0492 0.830009 16.3755 2.02643L18.2846 9.02643C18.7617 10.7758 17.4448 12.5 15.6315 12.5H11.258L12.2225 15.7149C12.4473 16.4641 12.2898 17.2759 11.8011 17.8867Z" fill="#292927"/>
</g>
</svg>
