<svg preserveAspectRatio="xMidYMid meet" overflow="visible" style="display: block;" viewBox="0 0 24 24" fill="none" xmlns="http://www.w3.org/2000/svg">
<g transform="translate(1.7461, 1.2500)">
<path id="Vector" fill-rule="evenodd" clip-rule="evenodd" d="M5.75781 0C5.3436 0 5.00781 0.335786 5.00781 0.75C5.00781 1.16421 5.3436 1.5 5.75781 1.5H14.9472L19.0078 5.56066V17.75C19.0078 18.1642 19.3436 18.5 19.7578 18.5C20.172 18.5 20.5078 18.1642 20.5078 17.75V5.25C20.5078 5.05109 20.4288 4.86032 20.2881 4.71967L15.7881 0.21967C15.6475 0.0790176 15.4567 0 15.2578 0H5.75781ZM3.25781 3C2.01517 3 1.00781 4.00736 1.00781 5.25V11.75C1.00781 12.1642 1.3436 12.5 1.75781 12.5C2.17203 12.5 2.50781 12.1642 2.50781 11.75V5.25C2.50781 4.83579 2.8436 4.5 3.25781 4.5H12.0078V7.15C12.0078 7.89558 12.6122 8.5 13.3578 8.5H16.0078V19.25C16.0078 19.6642 15.672 20 15.2578 20H9.75781C9.3436 20 9.00781 20.3358 9.00781 20.75C9.00781 21.1642 9.3436 21.5 9.75781 21.5H15.2578C16.5005 21.5 17.5078 20.4926 17.5078 19.25V7.75V7.49853C17.5078 7.14049 17.3656 6.79711 17.1124 6.54393L13.9639 3.39541C13.7107 3.14223 13.3673 3 13.0093 3H12.7578H3.25781ZM13.5078 5.06066V7H15.4472L13.5078 5.06066ZM0 17.75C0 17.3358 0.335786 17 0.75 17H6.75C7.16421 17 7.5 17.3358 7.5 17.75C7.5 18.1642 7.16421 18.5 6.75 18.5H0.75C0.335786 18.5 0 18.1642 0 17.75Z" fill="#292927"/>
</g>
</svg>
