<svg preserveAspectRatio="xMidYMid meet" overflow="visible" style="display: block;" viewBox="0 0 24 24" fill="none" xmlns="http://www.w3.org/2000/svg">
<g transform="translate(1.2500, 1.2500)">
<path id="Vector" fill-rule="evenodd" clip-rule="evenodd" d="M1.5 10.75C1.5 5.64137 5.64137 1.5 10.75 1.5C15.8586 1.5 20 5.64137 20 10.75C20 15.8586 15.8586 20 10.75 20C9.06393 20 7.48533 19.5496 6.12554 18.763C5.9706 18.6733 5.7887 18.6421 5.61272 18.6748L2.18742 19.3126L2.82515 15.8873C2.85792 15.7113 2.82666 15.5294 2.73703 15.3745C1.95043 14.0147 1.5 12.4361 1.5 10.75ZM10.75 0C4.81294 0 0 4.81294 0 10.75C0 12.6063 0.471126 14.3546 1.30076 15.8798L0.512671 20.1127C0.467419 20.3558 0.544853 20.6055 0.71967 20.7803C0.894487 20.9551 1.14423 21.0326 1.38728 20.9873L5.62016 20.1992C7.14536 21.0289 8.89369 21.5 10.75 21.5C16.6871 21.5 21.5 16.6871 21.5 10.75C21.5 4.81294 16.6871 0 10.75 0ZM8.78111 7.72045C8.48865 7.42713 8.01378 7.42643 7.72045 7.71889C7.42713 8.01135 7.42643 8.48622 7.71889 8.77955L9.68354 10.75L7.71889 12.7205C7.42643 13.0138 7.42713 13.4886 7.72045 13.7811C8.01378 14.0736 8.48865 14.0729 8.78111 13.7795L10.7442 11.8107L12.7204 13.7811C13.0138 14.0736 13.4886 14.0729 13.7811 13.7796C14.0736 13.4862 14.0729 13.0114 13.7795 12.7189L11.8049 10.75L13.7795 8.78111C14.0729 8.48865 14.0736 8.01377 13.7811 7.72045C13.4886 7.42713 13.0138 7.42643 12.7204 7.71889L10.7442 9.68934L8.78111 7.72045Z" fill="#292927"/>
</g>
</svg>
