<svg preserveAspectRatio="xMidYMid meet" overflow="visible" style="display: block;" viewBox="0 0 24 24" fill="none" xmlns="http://www.w3.org/2000/svg">
<g transform="translate(2.2500, 1.9658)">
<path id="Vector" fill-rule="evenodd" clip-rule="evenodd" d="M12.5 4.75333L18 1.61047V15.0257L12.5 11.8828V4.75333ZM4.75 5.06809H11V11.5681H4.75C2.95507 11.5681 1.5 10.113 1.5 8.31809C1.5 6.52316 2.95507 5.06809 4.75 5.06809ZM17.4802 0.179867L11.5508 3.56809H4.75C2.12665 3.56809 0 5.69473 0 8.31809C0 10.7185 1.78061 12.7031 4.09306 13.023L4.76471 17.7245C4.95683 19.0694 6.10863 20.0684 7.46717 20.0684C9.12845 20.0684 10.4046 18.597 10.1696 16.9524L9.61473 13.0681H11.5508L17.4802 16.4563C18.3802 16.9706 19.5 16.3207 19.5 15.2842V1.352C19.5 0.315435 18.3802 -0.334412 17.4802 0.179867ZM6.24963 17.5124L5.61477 13.0684H8.09954L8.68471 17.1645C8.79055 17.9055 8.21562 18.5684 7.46717 18.5684C6.85511 18.5684 6.33619 18.1183 6.24963 17.5124Z" fill="#292927"/>
</g>
</svg>
