<svg preserveAspectRatio="xMidYMid meet" overflow="visible" style="display: block;" viewBox="0 0 24 24" fill="none" xmlns="http://www.w3.org/2000/svg">
<g transform="translate(4.2500, 2.2500)">
<path id="Vector" fill-rule="evenodd" clip-rule="evenodd" d="M15.5 18.75C15.5 19.1642 15.1642 19.5 14.75 19.5C14.3358 19.5 14 19.1642 14 18.75V5.75005C14 3.40283 12.0972 1.5 9.75 1.5C7.4028 1.5 5.5 3.40283 5.5 5.75005V10.9393L8.21967 8.21967C8.51256 7.92678 8.98744 7.92678 9.28033 8.21967C9.57322 8.51256 9.57322 8.98744 9.28033 9.28033L5.28033 13.2803C4.98744 13.5732 4.51256 13.5732 4.21967 13.2803L0.21967 9.28033C-0.0732233 8.98744 -0.0732233 8.51256 0.21967 8.21967C0.512563 7.92678 0.987437 7.92678 1.28033 8.21967L4 10.9393V5.75005C4 2.57442 6.57435 0 9.75 0C12.9256 0 15.5 2.57442 15.5 5.75005V18.75Z" fill="#292927"/>
</g>
</svg>
