<svg preserveAspectRatio="xMidYMid meet" overflow="visible" style="display: block;" viewBox="0 0 24 24" fill="none" xmlns="http://www.w3.org/2000/svg">
<g transform="translate(1.2500, 1.2500)">
<path id="Vector" fill-rule="evenodd" clip-rule="evenodd" d="M1.5 10.75C1.5 5.64137 5.64137 1.5 10.75 1.5C15.8586 1.5 20 5.64137 20 10.75C20 15.8586 15.8586 20 10.75 20C5.64137 20 1.5 15.8586 1.5 10.75ZM10.75 0C4.81294 0 0 4.81294 0 10.75C0 16.6871 4.81294 21.5 10.75 21.5C16.6871 21.5 21.5 16.6871 21.5 10.75C21.5 4.81294 16.6871 0 10.75 0ZM10.2197 10.2803L6.71967 6.78033C6.42678 6.48744 6.42678 6.01256 6.71967 5.71967C7.01256 5.42678 7.48744 5.42678 7.78033 5.71967L10.75 8.68934L13.7197 5.71967C14.0126 5.42678 14.4874 5.42678 14.7803 5.71967C15.0732 6.01256 15.0732 6.48744 14.7803 6.78033L11.2803 10.2803C10.9874 10.5732 10.5126 10.5732 10.2197 10.2803ZM10.2197 16.2803L6.71967 12.7803C6.42678 12.4874 6.42678 12.0126 6.71967 11.7197C7.01256 11.4268 7.48744 11.4268 7.78033 11.7197L10.75 14.6893L13.7197 11.7197C14.0126 11.4268 14.4874 11.4268 14.7803 11.7197C15.0732 12.0126 15.0732 12.4874 14.7803 12.7803L11.2803 16.2803C10.9874 16.5732 10.5126 16.5732 10.2197 16.2803Z" fill="#292927"/>
</g>
</svg>
