<svg preserveAspectRatio="xMidYMid meet" overflow="visible" style="display: block;" viewBox="0 0 24 24" fill="none" xmlns="http://www.w3.org/2000/svg">
<g transform="translate(1.5000, 2.2498)">
<path id="Vector" fill-rule="evenodd" clip-rule="evenodd" d="M2 0.75C2 0.335786 2.33579 0 2.75 0H8.75H10.75C11.1642 0 11.5 0.335786 11.5 0.75C11.5 1.16421 11.1642 1.5 10.75 1.5H9.5V3H10.75C11.1642 3 11.5 3.33579 11.5 3.75C11.5 4.16421 11.1642 4.5 10.75 4.5H9.5V6H10.75C11.1642 6 11.5 6.33579 11.5 6.75C11.5 7.16421 11.1642 7.5 10.75 7.5H9.5V9.39142C10.7235 10.4449 11.5 12.0071 11.5 13.7504C11.5 16.926 8.92564 19.5004 5.75 19.5004C2.57436 19.5004 0 16.926 0 13.7504C0 12.0071 0.776508 10.4449 2 9.39142V0.75ZM8 6.75V3.75V1.5H3.5V9.66213C3.5 9.67672 3.49958 9.6912 3.49876 9.70558C3.51294 9.94809 3.40922 10.1929 3.20043 10.3497C2.16646 11.1264 1.5 12.3604 1.5 13.7504C1.5 16.0976 3.40279 18.0004 5.75 18.0004C8.09721 18.0004 10 16.0976 10 13.7504C10 12.3604 9.33354 11.1264 8.29957 10.3497C8.09078 10.1929 7.98706 9.94809 8.00124 9.70558C8.00042 9.69121 8 9.67672 8 9.66213V6.75ZM5.75 3C6.16421 3 6.5 3.33579 6.5 3.75V11.1035C7.65425 11.43 8.5 12.4912 8.5 13.75C8.5 15.2688 7.26878 16.5 5.75 16.5C4.23122 16.5 3 15.2688 3 13.75C3 12.4912 3.84575 11.43 5 11.1035V3.75C5 3.33579 5.33579 3 5.75 3ZM5.75 12.5C5.05964 12.5 4.5 13.0596 4.5 13.75C4.5 14.4404 5.05964 15 5.75 15C6.44036 15 7 14.4404 7 13.75C7 13.0596 6.44036 12.5 5.75 12.5ZM18.2803 3.21967C17.9874 2.92678 17.5126 2.92678 17.2197 3.21967L14.7197 5.71967C14.4268 6.01256 14.4268 6.48744 14.7197 6.78033C15.0126 7.07322 15.4874 7.07322 15.7803 6.78033L17 5.56066V15.75C17 16.1642 17.3358 16.5 17.75 16.5C18.1642 16.5 18.5 16.1642 18.5 15.75V5.56066L19.7197 6.78033C20.0126 7.07322 20.4874 7.07322 20.7803 6.78033C21.0732 6.48744 21.0732 6.01256 20.7803 5.71967L18.2803 3.21967Z" fill="#292927"/>
</g>
</svg>
