<svg preserveAspectRatio="xMidYMid meet" overflow="visible" style="display: block;" viewBox="0 0 24 24" fill="none" xmlns="http://www.w3.org/2000/svg">
<g transform="translate(3.2500, 1.2500)">
<path id="Vector" fill-rule="evenodd" clip-rule="evenodd" d="M4.75 0C5.16421 0 5.5 0.335786 5.5 0.75V2H6.75C7.16421 2 7.5 2.33579 7.5 2.75C7.5 3.16421 7.16421 3.5 6.75 3.5H5.5V5H13.0015C13.3595 5 13.7029 5.14223 13.9561 5.39541L17.1046 8.54393C17.3578 8.79711 17.5 9.14049 17.5 9.49853V20.15C17.5 20.8956 16.8956 21.5 16.15 21.5H8.75C8.66046 21.5 8.57459 21.4843 8.49498 21.4555C8.38486 21.4845 8.26924 21.5 8.15 21.5H1.35C0.604415 21.5 0 20.8956 0 20.15V9.99854C0 9.64049 0.142231 9.29712 0.395406 9.04394L3.79541 5.64394C3.8592 5.58015 3.92778 5.52408 4 5.47573V3.5H2.75C2.33579 3.5 2 3.16421 2 2.75C2 2.33579 2.33579 2 2.75 2H4V0.75C4 0.335786 4.33579 0 4.75 0ZM9.5 20H16V9.56066L12.9393 6.5H6.56065L9.10459 9.04394C9.35777 9.29712 9.5 9.64049 9.5 9.99854V20ZM4.75 6.81067L1.5 10.0607V20H4V15.75C4 15.3358 4.33579 15 4.75 15C5.16421 15 5.5 15.3358 5.5 15.75V20H8V10.0607L4.75 6.81067ZM5.31748 12.2508C5.59457 11.9429 5.56961 11.4687 5.26173 11.1916C4.95385 10.9145 4.47963 10.9394 4.20254 11.2473L4.19254 11.2584C3.91544 11.5663 3.9404 12.0405 4.24828 12.3176C4.55616 12.5947 5.03038 12.5697 5.30748 12.2619L5.31748 12.2508Z" fill="#292927"/>
</g>
</svg>
