<svg preserveAspectRatio="xMidYMid meet" overflow="visible" style="display: block;" viewBox="0 0 24 24" fill="none" xmlns="http://www.w3.org/2000/svg">
<g transform="translate(1.2500, 1.2500)">
<path id="Vector" fill-rule="evenodd" clip-rule="evenodd" d="M6 0.75C6 0.335786 5.66421 0 5.25 0C4.83579 0 4.5 0.335786 4.5 0.75C4.5 2.25405 4.17421 3.13766 3.647 3.66058C3.11854 4.18473 2.23328 4.5 0.75 4.5C0.335786 4.5 0 4.83579 0 5.25C0 5.66421 0.335786 6 0.75 6C2.22828 6 3.11496 6.32258 3.64526 6.85202C4.17532 7.38122 4.5 8.26756 4.5 9.75C4.5 10.1642 4.83579 10.5 5.25 10.5C5.66421 10.5 6 10.1642 6 9.75C6 8.26632 6.32286 7.38032 6.85159 6.85159C7.38032 6.32286 8.26632 6 9.75 6C10.1642 6 10.5 5.66421 10.5 5.25C10.5 4.83579 10.1642 4.5 9.75 4.5C8.26131 4.5 7.37674 4.18446 6.84985 3.66101C6.32396 3.13855 6 2.2553 6 0.75ZM4.70332 4.72557C4.91337 4.51722 5.09432 4.28714 5.24868 4.03671C5.40257 4.28694 5.58305 4.51689 5.79267 4.72514C5.9981 4.92923 6.2241 5.1051 6.4692 5.25531C6.22331 5.40737 5.99675 5.58511 5.79093 5.79093C5.58211 5.99974 5.4022 6.22992 5.24868 6.47997C5.0947 6.22972 4.91431 5.99941 4.70506 5.7905C4.4991 5.58488 4.27248 5.40728 4.02663 5.25531C4.27169 5.10519 4.49775 4.92946 4.70332 4.72557ZM14.5 6.75C14.5 6.33579 14.1642 6 13.75 6C13.3358 6 13 6.33579 13 6.75C13 9.13781 12.4845 10.6464 11.5499 11.5734C10.614 12.5016 9.10377 13 6.75 13C6.33579 13 6 13.3358 6 13.75C6 14.1642 6.33579 14.5 6.75 14.5C9.09877 14.5 10.6104 15.011 11.5481 15.9472C12.4856 16.8831 13 18.3944 13 20.75C13 21.1642 13.3358 21.5 13.75 21.5C14.1642 21.5 14.5 21.1642 14.5 20.75C14.5 18.3932 15.0113 16.8822 15.9467 15.9467C16.8822 15.0113 18.3932 14.5 20.75 14.5C21.1642 14.5 21.5 14.1642 21.5 13.75C21.5 13.3358 21.1642 13 20.75 13C18.3882 13 16.8786 12.5013 15.945 11.5738C15.0124 10.6473 14.5 9.13906 14.5 6.75ZM12.6062 12.6384C13.0837 12.1647 13.4607 11.6087 13.7484 10.974C14.0351 11.6084 14.4111 12.1643 14.8878 12.638C15.359 13.1061 15.9096 13.4748 16.535 13.7563C15.9086 14.0418 15.3574 14.4147 14.8861 14.8861C14.4103 15.3618 14.0349 15.9188 13.7484 16.5525C13.461 15.9185 13.0845 15.3614 12.6079 14.8856C12.136 14.4145 11.5846 14.0417 10.9584 13.7563C11.5836 13.4749 12.1345 13.1063 12.6062 12.6384Z" fill="#292927"/>
</g>
</svg>
