<svg preserveAspectRatio="xMidYMid meet" overflow="visible" style="display: block;" viewBox="0 0 24 24" fill="none" xmlns="http://www.w3.org/2000/svg">
<g transform="translate(1.2500, 4.2500)">
<path id="Vector" fill-rule="evenodd" clip-rule="evenodd" d="M4.81859 2.92678C4.71101 2.17374 5.29534 1.5 6.05603 1.5H9.44399C10.2047 1.5 10.789 2.17373 10.6814 2.92677L10.0095 7.63061C10.0081 7.63883 10.007 7.6471 10.0059 7.65541L9.25286 12.9268C9.16488 13.5426 8.63748 14 8.01542 14H7.4846C6.86254 14 6.33514 13.5426 6.24716 12.9268L5.49395 7.65431C5.49299 7.64674 5.49191 7.6392 5.49072 7.6317L4.81859 2.92678ZM3.88525 7L3.33367 3.13891C3.097 1.48222 4.38252 0 6.05603 0H9.44399C11.1175 0 12.403 1.48222 12.1664 3.13891L11.6148 7H20.75C21.1642 7 21.5 7.33579 21.5 7.75C21.5 8.16421 21.1642 8.5 20.75 8.5H11.4005L10.7378 13.1389C10.5442 14.4937 9.38396 15.5 8.01542 15.5H7.4846C6.11606 15.5 4.95578 14.4937 4.76224 13.1389L4.09954 8.5H0.75C0.335786 8.5 0 8.16421 0 7.75C0 7.33579 0.335786 7 0.75 7H3.88525Z" fill="#292927"/>
</g>
</svg>
