<svg preserveAspectRatio="xMidYMid meet" overflow="visible" style="display: block;" viewBox="0 0 24 24" fill="none" xmlns="http://www.w3.org/2000/svg">
<g transform="translate(2.5526, 2.4999)">
<path id="Vector" fill-rule="evenodd" clip-rule="evenodd" d="M2.75 1.5C2.05964 1.5 1.5 2.05964 1.5 2.75C1.5 3.44036 2.05964 4 2.75 4C3.44036 4 4 3.44036 4 2.75C4 2.05964 3.44036 1.5 2.75 1.5ZM0 2.75C0 1.23122 1.23122 0 2.75 0C4.26878 0 5.5 1.23122 5.5 2.75C5.5 4.26878 4.26878 5.5 2.75 5.5C1.23122 5.5 0 4.26878 0 2.75ZM18.4616 2.97176C18.837 3.14682 18.9994 3.59305 18.8243 3.96846L16.7325 8.45445C16.5574 8.82986 16.1112 8.99227 15.7358 8.81722C15.3604 8.64216 15.198 8.19593 15.373 7.82052L16.8019 4.75616C13.151 5.69974 10.4199 6.87182 8.4529 8.73252C6.31299 10.7568 4.98436 13.6881 4.49588 18.3287C4.45252 18.7406 4.08342 19.0394 3.67149 18.996C3.25955 18.9527 2.96076 18.5836 3.00412 18.1717C3.51564 13.3123 4.93701 9.99358 7.4221 7.64282C9.55616 5.62412 12.4048 4.38857 15.9145 3.43913L13.3416 2.23937C12.9662 2.06432 12.8038 1.61808 12.9789 1.24268C13.1539 0.867272 13.6002 0.704855 13.9756 0.879909L18.4616 2.97176ZM14.2803 13.2197C13.9874 12.9268 13.5126 12.9268 13.2197 13.2197C12.9268 13.5126 12.9268 13.9874 13.2197 14.2803L14.8107 15.8713L13.2197 17.4623C12.9268 17.7552 12.9268 18.2301 13.2197 18.523C13.5126 18.8159 13.9874 18.8159 14.2803 18.523L15.8713 16.932L17.4623 18.523C17.7552 18.8159 18.2301 18.8159 18.523 18.523C18.8159 18.2301 18.8159 17.7552 18.523 17.4623L16.932 15.8713L18.523 14.2803C18.8159 13.9874 18.8159 13.5126 18.523 13.2197C18.2301 12.9268 17.7552 12.9268 17.4623 13.2197L15.8713 14.8107L14.2803 13.2197Z" fill="#292927"/>
</g>
</svg>
