<svg preserveAspectRatio="xMidYMid meet" overflow="visible" style="display: block;" viewBox="0 0 24 24" fill="none" xmlns="http://www.w3.org/2000/svg">
<g transform="translate(1.0000, 1.2500)">
<path id="Vector" fill-rule="evenodd" clip-rule="evenodd" d="M10.75 0C4.81294 0 0 4.81294 0 10.75C0 12.066 0.236874 13.3272 0.670128 14.493C0.674635 14.5062 0.679498 14.5192 0.684706 14.532C1.04678 15.4948 1.54297 16.3919 2.15035 17.2005C2.39913 17.5316 2.86928 17.5984 3.20046 17.3497C3.53164 17.1009 3.59844 16.6307 3.34965 16.2995C3.04289 15.8912 2.76913 15.4567 2.53235 15H2.75C3.16421 15 3.5 14.6642 3.5 14.25C3.5 13.8358 3.16421 13.5 2.75 13.5H1.9157C1.64554 12.6315 1.5 11.708 1.5 10.75C1.5 9.79238 1.64552 8.86874 1.91565 8H6.20275C6.0754 8.86016 6 9.77941 6 10.7504V11.7505C6 12.1647 6.33579 12.5005 6.75 12.5005C7.16421 12.5005 7.5 12.1647 7.5 11.7505V10.7504C7.5 9.77421 7.58289 8.85443 7.72055 8H13.7796C13.9172 8.85416 14 9.77364 14 10.7494V11.7496C14 12.1638 14.3358 12.4996 14.75 12.4996C15.1642 12.4996 15.5 12.1638 15.5 11.7496V10.7494C15.5 9.77884 15.4246 8.8599 15.2974 8H19.5843C19.8545 8.86874 20 9.79238 20 10.75V11.75C20 12.1642 20.3358 12.5 20.75 12.5C21.1642 12.5 21.5 12.1642 21.5 11.75V10.75C21.5 9.43325 21.2633 8.1718 20.83 7.00588C20.8258 6.99354 20.8212 6.98134 20.8163 6.9693C19.4097 3.22593 15.9749 0.475132 11.8507 0.0556657C11.8329 0.0532409 11.8149 0.0514578 11.7969 0.0503216C11.4524 0.0170327 11.1032 0 10.75 0ZM6.48697 6.5H2.532C3.69466 4.25637 5.74916 2.54943 8.22615 1.84851C8.01688 2.2389 7.78896 2.70067 7.5614 3.22789C7.17076 4.13295 6.77991 5.23395 6.48697 6.5ZM13.4701 6.5H8.03011C8.28867 5.47501 8.61355 4.5754 8.9386 3.82231C9.29818 2.98921 9.65669 2.33844 9.92267 1.89952C10.0158 1.74585 10.0975 1.61835 10.1637 1.51828C10.3576 1.50615 10.5531 1.5 10.75 1.5C10.9472 1.5 11.1429 1.50617 11.3369 1.51832C11.4031 1.61824 11.4845 1.74542 11.5773 1.89859C11.8433 2.33751 12.2018 2.98828 12.5614 3.82138C12.8865 4.57471 13.2115 5.47463 13.4701 6.5ZM18.968 6.5H15.0132C14.7203 5.23356 14.3293 4.13225 13.9386 3.22696C13.7112 2.70024 13.4835 2.23884 13.2744 1.84868C15.7511 2.54971 17.8054 4.25656 18.968 6.5ZM9.5 16.75C9.5 15.2312 8.26878 14 6.75 14H5.75C5.55109 14 5.36032 14.079 5.21967 14.2197C5.07902 14.3603 5 14.5511 5 14.75V20.75C5 21.1642 5.33579 21.5 5.75 21.5H6.75C8.26878 21.5 9.5 20.2688 9.5 18.75V16.75ZM6.75 15.5C7.44036 15.5 8 16.0596 8 16.75V18.75C8 19.4404 7.44036 20 6.75 20H6.5V15.5H6.75ZM11.75 21.4999C11.3358 21.4999 11 21.1641 11 20.7499V14.7499C11 14.4021 11.2392 14.0999 11.5777 14.02C11.9162 13.9401 12.2653 14.1034 12.4208 14.4145L14 17.5729V14.7499C14 14.3357 14.3358 13.9999 14.75 13.9999C15.1642 13.9999 15.5 14.3357 15.5 14.7499V20.7499C15.5 21.0978 15.2608 21.3999 14.9223 21.4799C14.5838 21.5598 14.2347 21.3964 14.0792 21.0853L12.5 17.927V20.7499C12.5 21.1641 12.1642 21.4999 11.75 21.4999ZM19.75 18.5C20.1642 18.5 20.5 18.8358 20.5 19.25C20.5 19.6642 20.1642 20 19.75 20H17.75C17.3358 20 17 20.3358 17 20.75C17 21.1642 17.3358 21.5 17.75 21.5H19.75C20.9926 21.5 22 20.4926 22 19.25C22 18.0074 20.9926 17 19.75 17H19.25C18.8358 17 18.5 16.6642 18.5 16.25C18.5 15.8358 18.8358 15.5 19.25 15.5H20.75C21.1642 15.5 21.5 15.1642 21.5 14.75C21.5 14.3358 21.1642 14 20.75 14H19.25C18.0074 14 17 15.0074 17 16.25C17 17.4926 18.0074 18.5 19.25 18.5H19.75Z" fill="#292927"/>
</g>
</svg>
