<svg preserveAspectRatio="xMidYMid meet" overflow="visible" style="display: block;" viewBox="0 0 24 24" fill="none" xmlns="http://www.w3.org/2000/svg">
<g transform="translate(1.2500, 1.2500)">
<path id="Vector" fill-rule="evenodd" clip-rule="evenodd" d="M7.07501 10H1.52997C1.91173 5.24211 5.89386 1.5 10.75 1.5C15.6061 1.5 19.5883 5.24211 19.97 10H14.425C14.0775 8.28832 12.5642 7 10.75 7C8.93578 7 7.42247 8.28832 7.07501 10ZM14.425 11.5C14.0775 13.2117 12.5642 14.5 10.75 14.5C8.93578 14.5 7.42247 13.2117 7.07501 11.5H1.52997C1.91173 16.2579 5.89386 20 10.75 20C15.6061 20 19.5883 16.2579 19.97 11.5H14.425ZM10.75 0C4.81294 0 0 4.81294 0 10.75C0 16.6871 4.81294 21.5 10.75 21.5C16.6871 21.5 21.5 16.6871 21.5 10.75C21.5 4.81294 16.6871 0 10.75 0ZM8.5 10.75C8.5 9.50736 9.50736 8.5 10.75 8.5C11.9926 8.5 13 9.50736 13 10.75C13 11.9926 11.9926 13 10.75 13C9.50736 13 8.5 11.9926 8.5 10.75Z" fill="#292927"/>
</g>
</svg>
