<svg preserveAspectRatio="xMidYMid meet" overflow="visible" style="display: block;" viewBox="0 0 24 24" fill="none" xmlns="http://www.w3.org/2000/svg">
<g transform="translate(1.2500, 1.2500)">
<path id="Vector" fill-rule="evenodd" clip-rule="evenodd" d="M10.75 1.5C5.64137 1.5 1.5 5.64137 1.5 10.75C1.5 14.5237 3.7598 17.7696 7 19.2083V5.74654C7 4.72922 8.08255 4.07744 8.98165 4.55343L15.6514 8.08447C16.5851 8.57876 16.6148 9.90555 15.7042 10.4412L8.5 14.679V19.7244C9.22026 19.9044 9.97397 20 10.75 20C15.8586 20 20 15.8586 20 10.75C20 5.64137 15.8586 1.5 10.75 1.5ZM8.5 12.9387L14.7122 9.28447L8.5 5.99568V12.9387ZM0 10.75C0 4.81294 4.81294 0 10.75 0C16.6871 0 21.5 4.81294 21.5 10.75C21.5 16.6871 16.6871 21.5 10.75 21.5C4.81294 21.5 0 16.6871 0 10.75Z" fill="#292927"/>
</g>
</svg>
