<svg preserveAspectRatio="xMidYMid meet" overflow="visible" style="display: block;" viewBox="0 0 24 24" fill="none" xmlns="http://www.w3.org/2000/svg">
<g transform="translate(1.3759, 2.2500)">
<path id="Vector" fill-rule="evenodd" clip-rule="evenodd" d="M5.87405 6H1.35043C0.502594 6 -0.135392 6.77236 0.0247202 7.60494L0.654132 10.8779L1.8045 18.3553C1.90582 19.0139 2.47248 19.5 3.1388 19.5H18.1093C18.7756 19.5 19.3423 19.0138 19.4436 18.3553L20.594 10.8779L21.2234 7.60494C21.3835 6.77236 20.7455 6 19.8977 6H15.3741V2.75C15.3741 1.23122 14.1428 0 12.6241 0H8.62405C7.10527 0 5.87405 1.23122 5.87405 2.75V6ZM7.37405 6H13.8741V2.75C13.8741 2.05964 13.3144 1.5 12.6241 1.5H8.62405C7.93369 1.5 7.37405 2.05964 7.37405 2.75V6ZM2.65211 14L2.26749 11.5H18.9806L18.596 14H2.65211ZM19.7161 7.5L19.2353 10H2.01279L1.53202 7.5H19.7161ZM2.88287 15.5H18.3652L17.9806 18H3.26749L2.88287 15.5Z" fill="#292927"/>
</g>
</svg>
