<svg preserveAspectRatio="xMidYMid meet" overflow="visible" style="display: block;" viewBox="0 0 24 24" fill="none" xmlns="http://www.w3.org/2000/svg">
<g transform="translate(3.2450, 3.2450)">
<path id="Vector" fill-rule="evenodd" clip-rule="evenodd" d="M0 0.75C0 0.335786 0.335786 0 0.75 0C1.16421 0 1.5 0.335786 1.5 0.75V16.75C1.5 17.1642 1.16421 17.5 0.75 17.5C0.335786 17.5 0 17.1642 0 16.75V0.75ZM4.19141 1.26173C4.4685 1.56961 4.94272 1.59457 5.2506 1.31748L5.26171 1.30748C5.56959 1.03038 5.59455 0.556165 5.31746 0.248283C5.04036 -0.0595998 4.56615 -0.0845583 4.25826 0.192536L4.24715 0.202536C3.93927 0.479631 3.91431 0.953848 4.19141 1.26173ZM17.2506 1.31748C16.9427 1.59457 16.4685 1.56961 16.1914 1.26173C15.9143 0.953848 15.9393 0.479631 16.2472 0.202536L16.2583 0.192536C16.5661 -0.0845583 17.0404 -0.0595998 17.3175 0.248283C17.5946 0.556165 17.5696 1.03038 17.2617 1.30748L17.2506 1.31748ZM16.1914 5.26173C16.4685 5.56961 16.9427 5.59457 17.2506 5.31748L17.2617 5.30748C17.5696 5.03038 17.5946 4.55616 17.3175 4.24828C17.0404 3.9404 16.5661 3.91544 16.2583 4.19254L16.2472 4.20254C15.9393 4.47963 15.9143 4.95385 16.1914 5.26173ZM17.2506 9.31748C16.9427 9.59457 16.4685 9.56961 16.1914 9.26173C15.9143 8.95385 15.9393 8.47963 16.2472 8.20254L16.2583 8.19254C16.5661 7.91544 17.0404 7.9404 17.3175 8.24828C17.5946 8.55616 17.5696 9.03038 17.2617 9.30748L17.2506 9.31748ZM16.1914 13.2617C16.4685 13.5696 16.9427 13.5946 17.2506 13.3175L17.2617 13.3075C17.5696 13.0304 17.5946 12.5562 17.3175 12.2483C17.0404 11.9404 16.5661 11.9154 16.2583 12.1925L16.2472 12.2025C15.9393 12.4796 15.9143 12.9538 16.1914 13.2617ZM16.1914 17.2617C16.4685 17.5696 16.9427 17.5946 17.2506 17.3175L17.2617 17.3075C17.5696 17.0304 17.5946 16.5562 17.3175 16.2483C17.0404 15.9404 16.5661 15.9154 16.2583 16.1925L16.2472 16.2025C15.9393 16.4796 15.9143 16.9538 16.1914 17.2617ZM9.2506 1.31748C8.94272 1.59457 8.4685 1.56961 8.19141 1.26173C7.91431 0.953848 7.93927 0.479631 8.24715 0.202536L8.25826 0.192536C8.56615 -0.0845583 9.04036 -0.0595998 9.31746 0.248283C9.59455 0.556165 9.56959 1.03038 9.26171 1.30748L9.2506 1.31748ZM8.19141 9.26173C8.4685 9.56961 8.94272 9.59457 9.2506 9.31748L9.26171 9.30748C9.56959 9.03038 9.59455 8.55616 9.31746 8.24828C9.04036 7.9404 8.56615 7.91544 8.25826 8.19254L8.24715 8.20254C7.93927 8.47963 7.91431 8.95385 8.19141 9.26173ZM13.2506 1.31748C12.9427 1.59457 12.4685 1.56961 12.1914 1.26173C11.9143 0.953848 11.9393 0.479631 12.2472 0.202536L12.2583 0.192536C12.5661 -0.0845583 13.0404 -0.0595998 13.3175 0.248283C13.5946 0.556165 13.5696 1.03038 13.2617 1.30748L13.2506 1.31748ZM4.19141 17.2617C4.4685 17.5696 4.94272 17.5946 5.2506 17.3175L5.26171 17.3075C5.56959 17.0304 5.59455 16.5562 5.31746 16.2483C5.04036 15.9404 4.56615 15.9154 4.25826 16.1925L4.24715 16.2025C3.93927 16.4796 3.91431 16.9538 4.19141 17.2617ZM9.2506 17.3175C8.94272 17.5946 8.4685 17.5696 8.19141 17.2617C7.91431 16.9538 7.93927 16.4796 8.24715 16.2025L8.25826 16.1925C8.56615 15.9154 9.04036 15.9404 9.31746 16.2483C9.59455 16.5562 9.56959 17.0304 9.26171 17.3075L9.2506 17.3175ZM12.1914 17.2617C12.4685 17.5696 12.9427 17.5946 13.2506 17.3175L13.2617 17.3075C13.5696 17.0304 13.5946 16.5562 13.3175 16.2483C13.0404 15.9404 12.5661 15.9154 12.2583 16.1925L12.2472 16.2025C11.9393 16.4796 11.9143 16.9538 12.1914 17.2617Z" fill="#292927"/>
</g>
</svg>
