<svg preserveAspectRatio="xMidYMid meet" overflow="visible" style="display: block;" viewBox="0 0 24 24" fill="none" xmlns="http://www.w3.org/2000/svg">
<g transform="translate(1.3580, 3.2500)">
<path id="Vector" fill-rule="evenodd" clip-rule="evenodd" d="M4.89206 4H1.35033C0.516117 4 -0.118442 4.74907 0.0187023 5.57194L1.8187 16.3719C1.92719 17.0229 2.4904 17.5 3.15033 17.5H18.1338C18.7937 17.5 19.3569 17.0229 19.4654 16.3719L21.2654 5.57194C21.4026 4.74907 20.768 4 19.9338 4H16.3921V2.75C16.3921 1.23122 15.1608 0 13.6421 0H7.64206C6.12328 0 4.89206 1.23122 4.89206 2.75V4ZM6.39206 4H14.8921V2.75C14.8921 2.05964 14.3324 1.5 13.6421 1.5H7.64206C6.9517 1.5 6.39206 2.05964 6.39206 2.75V4ZM3.2774 16L1.5274 5.5H19.7567L18.0067 16H3.2774Z" fill="#292927"/>
</g>
</svg>
