<svg preserveAspectRatio="xMidYMid meet" overflow="visible" style="display: block;" viewBox="0 0 24 24" fill="none" xmlns="http://www.w3.org/2000/svg">
<g transform="translate(0.2500, 1.0365)">
<path id="Vector" fill-rule="evenodd" clip-rule="evenodd" d="M7.14312 3.38587C6.51553 4.43186 6.5 5.72236 6.5 6.75C6.5 7.16421 6.16421 7.5 5.75 7.5C5.03668 7.5 3.95002 7.72016 3.06323 8.35865C2.21468 8.9696 1.5 9.99444 1.5 11.75C1.5 12.9455 1.83156 13.7884 2.28739 14.3893C2.74923 14.9981 3.37419 15.4045 4.02355 15.6589C4.40923 15.81 4.59941 16.2451 4.44833 16.6308C4.29726 17.0165 3.86213 17.2067 3.47645 17.0556C2.63209 16.7248 1.75705 16.1721 1.09232 15.2958C0.42158 14.4116 0 13.2434 0 11.75C0 9.50556 0.951983 8.0304 2.18677 7.14135C3.10065 6.48336 4.14099 6.16468 5.00627 6.05083C5.03248 5.07248 5.16727 3.76348 5.85688 2.61413C6.77939 1.07662 8.56736 0 11.75 0C14.9326 0 16.7206 1.07662 17.6431 2.61413C18.3327 3.76348 18.4675 5.07248 18.4937 6.05083C19.359 6.16468 20.3993 6.48336 21.3132 7.14135C22.548 8.0304 23.5 9.50556 23.5 11.75C23.5 13.2434 23.0784 14.4116 22.4077 15.2958C21.743 16.1721 20.8679 16.7248 20.0236 17.0556C19.6379 17.2067 19.2027 17.0165 19.0517 16.6308C18.9006 16.2451 19.0908 15.81 19.4764 15.6589C20.1258 15.4045 20.7508 14.9981 21.2126 14.3893C21.6684 13.7884 22 12.9455 22 11.75C22 9.99444 21.2853 8.9696 20.4368 8.35865C19.55 7.72016 18.4633 7.5 17.75 7.5C17.3358 7.5 17 7.16421 17 6.75C17 5.72236 16.9845 4.43186 16.3569 3.38587C15.7794 2.42338 14.5674 1.5 11.75 1.5C8.93264 1.5 7.72061 2.42338 7.14312 3.38587ZM13.6888 19.6452C12.412 20.7416 10.4857 20.685 9.27597 19.4752L8.92242 19.1216C8.62952 18.8287 8.15465 18.8287 7.86176 19.1216C7.56886 19.4145 7.56886 19.8894 7.86176 20.1823L8.21531 20.5359C10.011 22.3316 12.8869 22.389 14.7516 20.7079L15.2864 21.2427C15.4873 21.4436 15.7844 21.5138 16.0539 21.4239C16.3234 21.3341 16.519 21.0997 16.5592 20.8185L16.9113 18.3534C16.9149 18.3308 16.9173 18.3081 16.9188 18.2853C16.9226 18.225 16.9191 18.1649 16.9087 18.1063C16.8913 18.0077 16.854 17.912 16.797 17.8255C16.7692 17.7833 16.737 17.7436 16.7006 17.7072C16.5337 17.5403 16.2979 17.4617 16.0642 17.4951L13.5893 17.8486C13.3081 17.8888 13.0737 18.0844 12.9839 18.3539C12.8941 18.6234 12.9642 18.9205 13.1651 19.1214L13.6888 19.6452ZM8.74925 13.1817L8.21446 12.6469C8.01358 12.446 7.71646 12.3759 7.44695 12.4657C7.17745 12.5556 6.98184 12.79 6.94166 13.0712L6.58951 15.5362C6.586 15.5588 6.58353 15.5816 6.58209 15.6044C6.57824 15.6647 6.58172 15.7248 6.59214 15.7834C6.6096 15.8819 6.64685 15.9776 6.70389 16.0642C6.73164 16.1064 6.76384 16.146 6.80024 16.1824C6.96717 16.3494 7.20294 16.428 7.43664 16.3946L9.91151 16.041C10.1927 16.0008 10.4271 15.8052 10.517 15.5357C10.6068 15.2662 10.5366 14.9691 10.3358 14.7682L9.81203 14.2445C11.0889 13.148 13.0151 13.2047 14.2249 14.4145L14.5784 14.768C14.8713 15.0609 15.3462 15.0609 15.6391 14.768C15.932 14.4751 15.932 14.0002 15.6391 13.7073L15.2855 13.3538C13.4898 11.5581 10.614 11.5007 8.74925 13.1817Z" fill="#292927"/>
</g>
</svg>
