<svg preserveAspectRatio="xMidYMid meet" overflow="visible" style="display: block;" viewBox="0 0 24 24" fill="none" xmlns="http://www.w3.org/2000/svg">
<g transform="translate(2.7499, 2.7499)">
<path id="Vector" fill-rule="evenodd" clip-rule="evenodd" d="M17.0002 2.75C17.0002 2.05964 16.4406 1.5 15.7502 1.5C15.0599 1.5 14.5002 2.05964 14.5002 2.75C14.5002 3.44036 15.0599 4 15.7502 4C16.4406 4 17.0002 3.44036 17.0002 2.75ZM15.7502 0C17.269 0 18.5002 1.23122 18.5002 2.75C18.5002 4.26878 17.269 5.5 15.7502 5.5C14.2314 5.5 13.0002 4.26878 13.0002 2.75C13.0002 1.23122 14.2314 0 15.7502 0ZM12.8933 8.13599C13.1064 7.7808 12.9913 7.3201 12.6361 7.10699C12.2809 6.89388 11.8202 7.00906 11.6071 7.36424C10.3572 9.44731 9.12828 12.8139 8.42646 15.6495C7.44152 14.1164 6.40267 13.117 5.26015 12.573C3.69957 11.8298 2.10248 12.0088 0.513033 12.5386C0.120075 12.6696 -0.0922948 13.0943 0.038691 13.4873C0.169677 13.8803 0.594417 14.0926 0.987374 13.9616C2.39793 13.4915 3.55084 13.4204 4.61525 13.9273C5.70663 14.447 6.85978 15.6463 8.07938 18.0855C8.22466 18.3761 8.54048 18.5401 8.86172 18.4918C9.18297 18.4435 9.43659 18.1939 9.49 17.8734C9.97819 14.9443 11.452 10.5382 12.8933 8.13599Z" fill="#292927"/>
</g>
</svg>
