<svg preserveAspectRatio="xMidYMid meet" overflow="visible" style="display: block;" viewBox="0 0 24 24" fill="none" xmlns="http://www.w3.org/2000/svg">
<g transform="translate(1.2500, 1.2500)">
<path id="Vector" fill-rule="evenodd" clip-rule="evenodd" d="M17.75 0C18.1642 0 18.5 0.335786 18.5 0.75V4.75C18.5 5.16421 18.1642 5.5 17.75 5.5C17.3358 5.5 17 5.16421 17 4.75V0.75C17 0.335786 17.3358 0 17.75 0ZM18.2617 8.19156C18.5696 8.46865 18.5946 8.94287 18.3175 9.25075L18.3075 9.26186C18.0304 9.56975 17.5562 9.59471 17.2483 9.31761C16.9404 9.04052 16.9154 8.5663 17.1925 8.25842L17.2025 8.24731C17.4796 7.93942 17.9538 7.91446 18.2617 8.19156ZM12.75 7.5H7.5V14H14V12.75C14 12.3358 14.3358 12 14.75 12C15.1642 12 15.5 12.3358 15.5 12.75V14.15C15.5 14.8956 14.8956 15.5 14.15 15.5H7.35C6.60442 15.5 6 14.8956 6 14.15V7.35C6 6.60442 6.60441 6 7.35 6H12.75C13.1642 6 13.5 6.33579 13.5 6.75C13.5 7.16421 13.1642 7.5 12.75 7.5ZM5.75 3.5H10.75H12.75C13.1642 3.5 13.5 3.16421 13.5 2.75C13.5 2.33579 13.1642 2 12.75 2H11.5V0.75C11.5 0.335786 11.1642 0 10.75 0C10.3358 0 10 0.335786 10 0.75V2H6.5V0.75C6.5 0.335786 6.16421 0 5.75 0C5.33579 0 5 0.335786 5 0.75V2H3.35C2.60442 2 2 2.60441 2 3.35V5H0.75C0.335786 5 0 5.33579 0 5.75C0 6.16421 0.335786 6.5 0.75 6.5H2V10H0.75C0.335786 10 0 10.3358 0 10.75C0 11.1642 0.335786 11.5 0.75 11.5H2V15H0.75C0.335786 15 0 15.3358 0 15.75C0 16.1642 0.335786 16.5 0.75 16.5H2V18.15C2 18.8956 2.60441 19.5 3.35 19.5H5V20.75C5 21.1642 5.33579 21.5 5.75 21.5C6.16421 21.5 6.5 21.1642 6.5 20.75V19.5H10V20.75C10 21.1642 10.3358 21.5 10.75 21.5C11.1642 21.5 11.5 21.1642 11.5 20.75V19.5H15V20.75C15 21.1642 15.3358 21.5 15.75 21.5C16.1642 21.5 16.5 21.1642 16.5 20.75V19.5H18.15C18.8956 19.5 19.5 18.8956 19.5 18.15V16.5H20.75C21.1642 16.5 21.5 16.1642 21.5 15.75C21.5 15.3358 21.1642 15 20.75 15H19.5V12.75C19.5 12.3358 19.1642 12 18.75 12C18.3358 12 18 12.3358 18 12.75V15.75V18H15.75H10.75H5.75H3.5V15.75V10.75V5.75V3.5H5.75Z" fill="#292927"/>
</g>
</svg>
