<svg preserveAspectRatio="xMidYMid meet" overflow="visible" style="display: block;" viewBox="0 0 24 24" fill="none" xmlns="http://www.w3.org/2000/svg">
<g transform="translate(2.2500, 2.2500)">
<path id="Vector" fill-rule="evenodd" clip-rule="evenodd" d="M11.75 3.5C11.3679 3.5 11.0144 3.37754 10.7266 3.16973C10.3525 3.43352 9.96546 3.76385 9.64541 4.1592C9.1965 4.71373 8.89551 5.37383 8.91384 6.16205C8.9323 6.95591 9.27721 7.98758 10.3304 9.27487C11.5272 10.7376 12.0573 12.0809 12.0857 13.3027C12.1143 14.5301 11.634 15.5262 11.0204 16.2842C10.551 16.8641 9.99455 17.3171 9.49734 17.6526C9.4991 17.6849 9.5 17.7173 9.5 17.75C9.5 18.7165 8.7165 19.5 7.75 19.5C6.7835 19.5 6 18.7165 6 17.75C6 16.7835 6.7835 16 7.75 16C8.13197 16 8.48535 16.1224 8.77309 16.3301C9.14726 16.0662 9.53443 15.7358 9.85455 15.3404C10.3035 14.7859 10.6045 14.1258 10.5861 13.3375C10.5677 12.5437 10.2228 11.512 9.16951 10.2247C7.97275 8.76202 7.44266 7.41868 7.41425 6.19692C7.3857 4.96951 7.86596 3.97336 8.47955 3.2154C8.94897 2.63552 9.50542 2.18246 10.0026 1.84694C10.0009 1.81485 10 1.78253 10 1.75C10 0.783502 10.7835 0 11.75 0C12.7165 0 13.5 0.783502 13.5 1.75C13.5 2.7165 12.7165 3.5 11.75 3.5ZM15 1.75C15 1.33579 15.3358 1 15.75 1H18.75C19.1642 1 19.5 1.33579 19.5 1.75C19.5 2.16421 19.1642 2.5 18.75 2.5H15.75C15.3358 2.5 15 2.16421 15 1.75ZM0.75 17C0.335786 17 0 17.3358 0 17.75C0 18.1642 0.335786 18.5 0.75 18.5H3.75C4.16421 18.5 4.5 18.1642 4.5 17.75C4.5 17.3358 4.16421 17 3.75 17H0.75Z" fill="#292927"/>
</g>
</svg>
