<svg preserveAspectRatio="xMidYMid meet" overflow="visible" style="display: block;" viewBox="0 0 24 24" fill="none" xmlns="http://www.w3.org/2000/svg">
<g transform="translate(0.2500, 4.2500)">
<path id="Vector" fill-rule="evenodd" clip-rule="evenodd" d="M17.2803 1.28033C17.5732 0.987437 17.5732 0.512563 17.2803 0.21967C16.9874 -0.0732233 16.5126 -0.0732233 16.2197 0.21967L15.2197 1.21967C15.0188 1.42054 14.9486 1.71767 15.0385 1.98717L15.5428 3.5L11.25 3.5C11.1019 3.5 10.9572 3.54383 10.834 3.62596L8.62783 5.09672C6.36235 3.45018 3.04274 3.46795 0.80001 5.15002C0.468641 5.39855 0.401486 5.86865 0.650017 6.20002C0.898547 6.53139 1.36865 6.59854 1.70002 6.35001C3.26329 5.17754 5.55862 5.06251 7.26554 6.00491L6.66811 6.4032C6.0815 6.14397 5.43257 6 4.75 6C2.12665 6 0 8.12665 0 10.75C0 13.3734 2.12665 15.5 4.75 15.5C6.94073 15.5 8.78507 14.0169 9.3338 12H11.75C12.0567 12 12.3325 11.8133 12.4464 11.5286L13.407 9.1269L16.215 5.51668L16.5549 6.53652C15.0365 7.32918 14 8.91854 14 10.75C14 13.3734 16.1266 15.5 18.75 15.5C21.3734 15.5 23.5 13.3734 23.5 10.75C23.5 8.12665 21.3734 6 18.75 6C18.4871 6 18.2293 6.02135 17.978 6.06241L16.6081 1.95257L17.2803 1.28033ZM17.0383 7.98674L18.0385 10.9872C18.1695 11.3801 18.5942 11.5925 18.9872 11.4615C19.3801 11.3305 19.5925 10.9058 19.4615 10.5128L18.4614 7.51264C18.5565 7.50427 18.6528 7.5 18.75 7.5C20.5449 7.5 22 8.95507 22 10.75C22 12.5449 20.5449 14 18.75 14C16.9551 14 15.5 12.5449 15.5 10.75C15.5 9.58317 16.1149 8.55997 17.0383 7.98674ZM14.7165 5L11.4771 5L8.01997 7.30473C8.87522 8.11673 9.42841 9.24383 9.49354 10.5H11.2422L12.0536 8.47149C12.0797 8.40627 12.1149 8.34503 12.158 8.28958L14.7165 5ZM7.99053 10.5C7.86289 8.82191 6.46082 7.5 4.75 7.5C2.95507 7.5 1.5 8.95507 1.5 10.75C1.5 12.5449 2.95507 14 4.75 14C6.10196 14 7.26112 13.1745 7.7509 12H5.25C4.83579 12 4.5 11.6642 4.5 11.25C4.5 10.8358 4.83579 10.5 5.25 10.5H7.99053Z" fill="#292927"/>
</g>
</svg>
