<svg preserveAspectRatio="xMidYMid meet" overflow="visible" style="display: block;" viewBox="0 0 24 24" fill="none" xmlns="http://www.w3.org/2000/svg">
<g transform="translate(1.2500, 3.2500)">
<path id="Vector" fill-rule="evenodd" clip-rule="evenodd" d="M2 0.75C2 0.335786 2.33579 0 2.75 0H5.75C6.16421 0 6.5 0.335786 6.5 0.75C6.5 1.16421 6.16421 1.5 5.75 1.5H3.5V3.75C3.5 4.16421 3.16421 4.5 2.75 4.5C2.33579 4.5 2 4.16421 2 3.75V0.75ZM0 8.75C0 8.33579 0.335786 8 0.75 8H20.75C21.1642 8 21.5 8.33579 21.5 8.75C21.5 9.16421 21.1642 9.5 20.75 9.5H0.75C0.335786 9.5 0 9.16421 0 8.75ZM9.75 0C9.33579 0 9 0.335786 9 0.75C9 1.16421 9.33579 1.5 9.75 1.5H11.75C12.1642 1.5 12.5 1.16421 12.5 0.75C12.5 0.335786 12.1642 0 11.75 0H9.75ZM19.5 0.75C19.5 0.335786 19.1642 0 18.75 0H15.75C15.3358 0 15 0.335786 15 0.75C15 1.16421 15.3358 1.5 15.75 1.5H18V3.75C18 4.16421 18.3358 4.5 18.75 4.5C19.1642 4.5 19.5 4.16421 19.5 3.75V0.75ZM9.75 16C9.33579 16 9 16.3358 9 16.75C9 17.1642 9.33579 17.5 9.75 17.5H11.75C12.1642 17.5 12.5 17.1642 12.5 16.75C12.5 16.3358 12.1642 16 11.75 16H9.75ZM2 16.75C2 17.1642 2.33579 17.5 2.75 17.5H5.75C6.16421 17.5 6.5 17.1642 6.5 16.75C6.5 16.3358 6.16421 16 5.75 16H3.5V13.75C3.5 13.3358 3.16421 13 2.75 13C2.33579 13 2 13.3358 2 13.75V16.75ZM18.75 17.5C19.1642 17.5 19.5 17.1642 19.5 16.75V13.75C19.5 13.3358 19.1642 13 18.75 13C18.3358 13 18 13.3358 18 13.75V16H15.75C15.3358 16 15 16.3358 15 16.75C15 17.1642 15.3358 17.5 15.75 17.5H18.75Z" fill="#292927"/>
</g>
</svg>
