<svg preserveAspectRatio="xMidYMid meet" overflow="visible" style="display: block;" viewBox="0 0 24 24" fill="none" xmlns="http://www.w3.org/2000/svg">
<g transform="translate(3.2500, 2.2500)">
<path id="Vector" fill-rule="evenodd" clip-rule="evenodd" d="M0 1.35C0 0.604415 0.604417 0 1.35 0H16.15C16.8956 0 17.5 0.604415 17.5 1.35V3.75C17.5 4.16421 17.1642 4.5 16.75 4.5C16.3358 4.5 16 4.16421 16 3.75V1.5H1.5V3.75C1.5 4.16421 1.16421 4.5 0.75 4.5C0.335786 4.5 0 4.16421 0 3.75V1.35ZM0 18.15C0 18.8956 0.604417 19.5 1.35 19.5H16.15C16.8956 19.5 17.5 18.8956 17.5 18.15V15.75C17.5 15.3358 17.1642 15 16.75 15C16.3358 15 16 15.3358 16 15.75V18H1.5V15.75C1.5 15.3358 1.16421 15 0.75 15C0.335786 15 0 15.3358 0 15.75V18.15ZM10.5 6.75C10.5 6.33579 10.1642 6 9.75 6H6.75C6.55109 6 6.36032 6.07902 6.21967 6.21967C6.07902 6.36032 6 6.55109 6 6.75V12.75C6 13.1642 6.33579 13.5 6.75 13.5C7.16421 13.5 7.5 13.1642 7.5 12.75V10.5H9.75C9.94891 10.5 10.1397 10.421 10.2803 10.2803C10.421 10.1397 10.5 9.94891 10.5 9.75V6.75ZM9 9H7.5V7.5H9V9ZM12.2197 13.2803C12.079 13.1397 12 12.9489 12 12.75V6.75C12 6.33579 12.3358 6 12.75 6H15.75C16.1642 6 16.5 6.33579 16.5 6.75C16.5 7.16421 16.1642 7.5 15.75 7.5H13.5V12H15V10.35C15 9.93579 15.3358 9.6 15.75 9.6C16.1642 9.6 16.5 9.93579 16.5 10.35V12.75C16.5 13.1642 16.1642 13.5 15.75 13.5H12.75C12.5511 13.5 12.3603 13.421 12.2197 13.2803ZM1 12.75C0.999997 12.3374 1.3332 12.0026 1.74522 12L1.74997 11.9999C1.75665 11.9997 1.76957 11.9992 1.78782 11.998C1.82455 11.9957 1.88136 11.9907 1.95124 11.9802C2.0948 11.9586 2.27354 11.917 2.44223 11.8411C2.60994 11.7656 2.74354 11.6674 2.83483 11.5442C2.91964 11.4297 3 11.2514 3 10.95V6.75C3 6.33579 3.33579 6 3.75 6C4.16421 6 4.5 6.33677 4.5 6.75098V10.95C4.5 11.5486 4.33036 12.0453 4.04017 12.437C3.75646 12.82 3.39006 13.0594 3.05777 13.2089C2.72646 13.358 2.4052 13.4289 2.17376 13.4636C2.05614 13.4812 1.9567 13.4903 1.88406 13.4949C1.84761 13.4973 1.81757 13.4985 1.79496 13.4992L1.76663 13.4999L1.75681 13.5L1.75303 13.5L1.75142 13.5L1.75001 13.5L1.75 12.75C1.75001 13.4944 1.74967 13.5 1.75 13.5H1.75001C1.33579 13.5 1 13.1642 1 12.75Z" fill="#292927"/>
</g>
</svg>
