<svg preserveAspectRatio="xMidYMid meet" overflow="visible" style="display: block;" viewBox="0 0 24 24" fill="none" xmlns="http://www.w3.org/2000/svg">
<g transform="translate(8.2500, 2.2500)">
<path id="Vector" fill-rule="evenodd" clip-rule="evenodd" d="M6 0.75C6 0.335786 5.66422 0 5.25 0C4.83579 0 4.5 0.335786 4.5 0.75V3.27369C3.29716 3.80093 2.10802 4 0.75 4C0.335786 4 0 4.33579 0 4.75C0 5.16421 0.335786 5.5 0.75 5.5C2.28552 5.5 3.24202 5.37292 3.96551 5.15587C4.34754 5.04126 4.66597 4.89779 4.94465 4.75675C5.00103 4.85247 5.05293 4.9378 5.09973 5.01475L5.09974 5.01478L5.0998 5.01488C5.13848 5.07846 5.17367 5.13632 5.20503 5.1896C5.3382 5.41579 5.43284 5.60418 5.52643 5.94734C5.7231 6.66847 5.57217 7.2315 5.28731 7.94734C5.24739 8.04766 5.20388 8.15252 5.15847 8.26196L5.15845 8.26201C4.88827 8.91316 4.55076 9.72656 4.50096 10.7121C4.35573 13.586 4.85856 15.7988 5.65961 18H0.750821C0.336607 18 0 18.3358 0 18.75C0 19.1642 0.335838 19.5 0.750051 19.5H6.75C6.99887 19.5 7.23153 19.3766 7.37105 19.1705C7.51057 18.9644 7.53878 18.7025 7.44636 18.4715C7.29142 17.866 7.12987 17.2962 6.97319 16.7435C6.42566 14.8124 5.93759 13.0909 5.99904 10.7879C6.03478 10.0807 6.26223 9.52642 6.52986 8.8742L6.52987 8.87416C6.57921 8.75394 6.62991 8.63039 6.68102 8.50194C7.00202 7.69525 7.30085 6.75266 6.97357 5.55266C6.8374 5.05335 6.68203 4.74176 6.49764 4.42857C6.45353 4.35365 6.41006 4.28209 6.36598 4.20955L6.36597 4.20953L6.36596 4.20953C6.2545 4.02608 6.13919 3.8363 6 3.56964V0.75Z" fill="#292927"/>
</g>
</svg>
