<svg preserveAspectRatio="xMidYMid meet" overflow="visible" style="display: block;" viewBox="0 0 24 24" fill="none" xmlns="http://www.w3.org/2000/svg">
<g transform="translate(6.6718, 2.1995)">
<path id="Vector" fill-rule="evenodd" clip-rule="evenodd" d="M4.28522 2.75C4.28522 2.05964 4.84486 1.5 5.53522 1.5C6.22557 1.5 6.78522 2.05964 6.78522 2.75C6.78522 3.44036 6.22557 4 5.53522 4C4.84486 4 4.28522 3.44036 4.28522 2.75ZM5.53522 0C4.01643 0 2.78522 1.23122 2.78522 2.75C2.78522 4.26878 4.01643 5.5 5.53522 5.5C7.054 5.5 8.28522 4.26878 8.28522 2.75C8.28522 1.23122 7.054 0 5.53522 0ZM2.83984 12.3299L3.99841 7.69564L4.96815 6.12699L4.98267 6.12699L6.38463 6.12695C6.74215 6.12694 7.04997 6.37929 7.12008 6.72987C7.22024 7.23065 7.50221 8.05074 8.00899 8.79784C8.51386 9.54213 9.19794 10.1528 10.0882 10.3753C10.49 10.4758 10.7344 10.883 10.6339 11.2848C10.5334 11.6867 10.1262 11.931 9.72439 11.8306C8.36078 11.4897 7.40142 10.5742 6.76763 9.63988C6.30431 8.95683 5.99151 8.23097 5.80452 7.62697L5.56174 7.62697L4.3836 12.3395L9.08979 18.3903C9.3441 18.7173 9.2852 19.1885 8.95823 19.4428C8.63128 19.6971 8.16007 19.6382 7.90577 19.3112L2.97544 12.9722C2.83395 12.7903 2.78395 12.5535 2.83984 12.3299ZM4.96815 6.12699C4.23635 6.12746 2.99837 6.19578 1.93057 6.87916C0.79493 7.60595 6.10375e-05 8.92623 6.10375e-05 11.103C6.10375e-05 11.5172 0.335847 11.853 0.750061 11.853C1.16427 11.853 1.50006 11.5172 1.50006 11.103C1.50006 9.33544 2.1139 8.54272 2.73914 8.14258C3.12414 7.89618 3.56557 7.76417 3.99841 7.69564L4.24851 6.69523C4.33308 6.35695 4.63502 6.1303 4.96815 6.12699ZM3.46304 16.4837C3.71157 16.1524 3.64441 15.6823 3.31304 15.4337C2.98167 15.1852 2.51157 15.2524 2.26304 15.5837L0.150044 18.4011C-0.098484 18.7324 -0.0313267 19.2025 0.300044 19.4511C0.631415 19.6996 1.10152 19.6324 1.35004 19.3011L3.46304 16.4837Z" fill="#292927"/>
</g>
</svg>
