<svg preserveAspectRatio="xMidYMid meet" overflow="visible" style="display: block;" viewBox="0 0 24 24" fill="none" xmlns="http://www.w3.org/2000/svg">
<g transform="translate(0.2500, 4.0000)">
<path id="Vector" fill-rule="evenodd" clip-rule="evenodd" d="M13 0.75C13 0.335786 13.3358 0 13.75 0H18.25C18.6642 0 19 0.335786 19 0.749999C19 1.16421 18.6642 1.5 18.25 1.5H16.6514L15.4004 3.3765C15.4043 3.38328 15.4081 3.39013 15.4118 3.39706L17.2039 6.7573C17.6886 6.59054 18.2087 6.5 18.75 6.5C21.3734 6.5 23.5 8.62665 23.5 11.25C23.5 13.8734 21.3734 16 18.75 16C16.1266 16 14 13.8734 14 11.25C14 11.1661 14.0022 11.0828 14.0065 11L11.75 11C11.4741 11 11.2205 10.8485 11.0896 10.6056L8.29789 5.4209L7.41335 7.31635C8.6726 8.17062 9.5 9.61368 9.5 11.25C9.5 13.8734 7.37335 16 4.75 16C2.12665 16 0 13.8734 0 11.25C0 8.62665 2.12665 6.5 4.75 6.5C5.20235 6.5 5.63993 6.56323 6.05439 6.68134L7.43635 3.72001C7.26674 3.32246 6.97786 2.81654 6.57671 2.38674C6.08398 1.85881 5.47735 1.5 4.75 1.5C4.33579 1.5 4 1.16421 4 0.75C4 0.335787 4.33579 0 4.75 0C6.02266 0 6.99936 0.641189 7.67329 1.36326C8.16463 1.8897 8.52441 2.48777 8.75797 3H13.8486L14.8486 1.5L13.75 1.5C13.3358 1.5 13 1.16421 13 0.75ZM14.3328 9.5C14.655 8.6873 15.195 7.98466 15.8809 7.46411L14.3 4.5H9.50566L12.198 9.5L14.3328 9.5ZM16.6001 8.81266C15.9255 9.40817 15.5 10.2794 15.5 11.25C15.5 13.0449 16.9551 14.5 18.75 14.5C20.5449 14.5 22 13.0449 22 11.25C22 9.45508 20.5449 8 18.75 8C18.4643 8 18.1872 8.03686 17.9233 8.10609L19.4118 10.8971C19.6067 11.2625 19.4684 11.7168 19.1029 11.9118C18.7375 12.1067 18.2832 11.9684 18.0882 11.6029L16.6001 8.81266ZM5.40792 8.06663C5.19545 8.02295 4.9754 8 4.75 8C2.95507 8 1.5 9.45508 1.5 11.25C1.5 13.0449 2.95507 14.5 4.75 14.5C6.54493 14.5 8 13.0449 8 11.25C8 10.2171 7.51815 9.29674 6.76697 8.70144L5.42963 11.5672C5.25447 11.9425 4.80819 12.1048 4.43283 11.9296C4.05748 11.7545 3.89519 11.3082 4.07036 10.9328L5.40792 8.06663Z" fill="#292927"/>
</g>
</svg>
