<svg preserveAspectRatio="xMidYMid meet" overflow="visible" style="display: block;" viewBox="0 0 24 24" fill="none" xmlns="http://www.w3.org/2000/svg">
<g transform="translate(2.2500, 1.2500)">
<path id="Vector" fill-rule="evenodd" clip-rule="evenodd" d="M5.5 5.15C5.5 5.89558 6.10442 6.5 6.85 6.5H9V9.5H6.25C4.73122 9.5 3.5 10.7312 3.5 12.25V15H1.35C0.604415 15 0 15.6044 0 16.35V20.15C0 20.8956 0.604416 21.5 1.35 21.5H7.15C7.89558 21.5 8.5 20.8956 8.5 20.15V16.35C8.5 15.6044 7.89558 15 7.15 15H5V12.25C5 11.5596 5.55964 11 6.25 11H13.25C13.9404 11 14.5 11.5596 14.5 12.25V15H12.35C11.6044 15 11 15.6044 11 16.35V20.15C11 20.8956 11.6044 21.5 12.35 21.5H18.15C18.8956 21.5 19.5 20.8956 19.5 20.15V16.35C19.5 15.6044 18.8956 15 18.15 15H16V12.25C16 10.7312 14.7688 9.5 13.25 9.5H10.5V6.5H12.65C13.3956 6.5 14 5.89558 14 5.15V1.35C14 0.604415 13.3956 0 12.65 0H6.85C6.10442 0 5.5 0.604416 5.5 1.35V5.15ZM7 5V1.5H12.5V5H7ZM1.5 20V16.5H7V20H1.5ZM12.5 16.5V20H18V16.5H12.5Z" fill="#292927"/>
</g>
</svg>
