<svg preserveAspectRatio="xMidYMid meet" overflow="visible" style="display: block;" viewBox="0 0 24 24" fill="none" xmlns="http://www.w3.org/2000/svg">
<g transform="translate(2.7500, 2.2500)">
<path id="Vector" fill-rule="evenodd" clip-rule="evenodd" d="M1.85 0C1.10442 0 0.5 0.604415 0.5 1.35V3.75C0.5 4.16421 0.835786 4.5 1.25 4.5C1.66421 4.5 2 4.16421 2 3.75V1.5H16.5V3.75C16.5 4.16421 16.8358 4.5 17.25 4.5C17.6642 4.5 18 4.16421 18 3.75V1.35C18 0.604415 17.3956 0 16.65 0H1.85ZM1.85 19.5C1.10442 19.5 0.5 18.8956 0.5 18.15V15.75C0.5 15.3358 0.835786 15 1.25 15C1.66421 15 2 15.3358 2 15.75V18H16.5V15.75C16.5 15.3358 16.8358 15 17.25 15C17.6642 15 18 15.3358 18 15.75V18.15C18 18.8956 17.3956 19.5 16.65 19.5H1.85ZM9.25 13.5C8.83579 13.5 8.5 13.1642 8.5 12.75V9.75V6.75C8.5 6.33579 8.83579 6 9.25 6H12.25C12.6642 6 13 6.33579 13 6.75C13 7.16421 12.6642 7.5 12.25 7.5H10V9H11.75C12.1642 9 12.5 9.33579 12.5 9.75C12.5 10.1642 12.1642 10.5 11.75 10.5H10V12.75C10 13.1642 9.66421 13.5 9.25 13.5ZM14 12.75C14 13.1642 14.3358 13.5 14.75 13.5C15.1642 13.5 15.5 13.1642 15.5 12.75V10.5H17.25C17.6642 10.5 18 10.1642 18 9.75C18 9.33579 17.6642 9 17.25 9H15.5V7.5H17.75C18.1642 7.5 18.5 7.16421 18.5 6.75C18.5 6.33579 18.1642 6 17.75 6H14.75C14.3358 6 14 6.33579 14 6.75V9.75V12.75ZM0 6.75C0 6.33579 0.335786 6 0.75 6H3.75C4.16421 6 4.5 6.33579 4.5 6.75C4.5 7.16421 4.16421 7.5 3.75 7.5H3V12.75C3 13.1642 2.66421 13.5 2.25 13.5C1.83579 13.5 1.5 13.1642 1.5 12.75V7.5H0.75C0.335786 7.5 0 7.16421 0 6.75ZM5.5 12.75C5.5 13.1642 5.83579 13.5 6.25 13.5C6.66421 13.5 7 13.1642 7 12.75V6.75C7 6.33579 6.66421 6 6.25 6C5.83579 6 5.5 6.33579 5.5 6.75V12.75Z" fill="#292927"/>
</g>
</svg>
