<svg preserveAspectRatio="xMidYMid meet" overflow="visible" style="display: block;" viewBox="0 0 24 24" fill="none" xmlns="http://www.w3.org/2000/svg">
<g transform="translate(1.7500, 3.2500)">
<path id="Vector" fill-rule="evenodd" clip-rule="evenodd" d="M10.25 1.5C6.2575 1.5 3.5 4.6709 3.5 7.75V14.75C3.5 16.4121 2.11464 17.5 0.75 17.5C0.335786 17.5 0 17.1642 0 16.75C0 16.3358 0.335786 16 0.75 16C1.38536 16 2 15.4879 2 14.75V7.75C2 3.8291 5.4425 0 10.25 0C15.0575 0 18.5 3.8291 18.5 7.75V14.75C18.5 15.4879 19.1146 16 19.75 16C20.1642 16 20.5 16.3358 20.5 16.75C20.5 17.1642 20.1642 17.5 19.75 17.5C18.3854 17.5 17 16.4121 17 14.75V7.75C17 4.6709 14.2425 1.5 10.25 1.5ZM6 13.25C6 12.9968 6.22478 12.5656 7.04988 12.1531C7.83011 11.7629 8.96047 11.5 10.25 11.5C11.5395 11.5 12.6699 11.7629 13.4501 12.1531C14.2752 12.5656 14.5 12.9968 14.5 13.25C14.5 13.5032 14.2752 13.9344 13.4501 14.3469C12.6699 14.7371 11.5395 15 10.25 15C8.96047 15 7.83011 14.7371 7.04988 14.3469C6.22478 13.9344 6 13.5032 6 13.25ZM9.5 9.25C9.5 9.52262 9.47382 9.78467 9.42563 10.0314C9.10893 10.0558 8.79952 10.0941 8.5 10.1455V8.75C8.5 8.33579 8.16421 8 7.75 8C7.33579 8 7 8.33579 7 8.75V10.5426C6.78186 10.624 6.57434 10.7138 6.37906 10.8114L6.3311 10.8357C6.12704 10.3948 6 9.85146 6 9.25C6 8.4218 6.24092 7.70331 6.59253 7.21105C6.94517 6.71736 7.36472 6.5 7.75 6.5C8.13528 6.5 8.55483 6.71736 8.90747 7.21105C9.25908 7.70331 9.5 8.4218 9.5 9.25ZM10.25 6.52C10.2107 6.45831 10.1701 6.39801 10.1281 6.3392C9.57589 5.56614 8.74543 5 7.75 5C6.75457 5 5.92411 5.56614 5.37193 6.3392C4.81872 7.11369 4.5 8.14521 4.5 9.25C4.5 10.1672 4.71971 11.0342 5.11115 11.7456C4.74128 12.1621 4.5 12.6644 4.5 13.25C4.5 14.3775 5.39451 15.1963 6.37906 15.6886C7.40847 16.2033 8.7781 16.5 10.25 16.5C11.7219 16.5 13.0915 16.2033 14.1209 15.6886C15.1055 15.1963 16 14.3775 16 13.25C16 12.6644 15.7587 12.1621 15.3888 11.7456C15.7803 11.0342 16 10.1672 16 9.25C16 8.14521 15.6813 7.11369 15.1281 6.3392C14.5759 5.56614 13.7454 5 12.75 5C11.7546 5 10.9241 5.56614 10.3719 6.3392C10.3299 6.39801 10.2893 6.45831 10.25 6.52ZM11 9.25C11 9.52262 11.0262 9.78467 11.0744 10.0314C11.3911 10.0558 11.7005 10.0941 12 10.1455V8.75C12 8.33579 12.3358 8 12.75 8C13.1642 8 13.5 8.33579 13.5 8.75V10.5426C13.7181 10.624 13.9257 10.7138 14.1209 10.8114L14.1689 10.8357C14.373 10.3948 14.5 9.85146 14.5 9.25C14.5 8.4218 14.2591 7.70331 13.9075 7.21105C13.5548 6.71736 13.1353 6.5 12.75 6.5C12.3647 6.5 11.9452 6.71736 11.5925 7.21105C11.2409 7.70331 11 8.4218 11 9.25Z" fill="#292927"/>
</g>
</svg>
