<svg preserveAspectRatio="xMidYMid meet" overflow="visible" style="display: block;" viewBox="0 0 24 24" fill="none" xmlns="http://www.w3.org/2000/svg">
<g transform="translate(1.2500, 2.2500)">
<path id="Vector" fill-rule="evenodd" clip-rule="evenodd" d="M4.75 1.5C4.05964 1.5 3.5 2.05964 3.5 2.75V4.25C3.5 4.66421 3.16421 5 2.75 5C2.33579 5 2 4.66421 2 4.25V2.75C2 1.23122 3.23122 0 4.75 0H7.75H15.75H15.9216C16.6509 0 17.3504 0.289731 17.8661 0.805456L20.6945 3.63388C21.2103 4.14961 21.5 4.84908 21.5 5.57843V16.75C21.5 18.2688 20.2688 19.5 18.75 19.5H17.75H5.75H4.75C3.23122 19.5 2 18.2688 2 16.75V15.25C2 14.8358 2.33579 14.5 2.75 14.5C3.16421 14.5 3.5 14.8358 3.5 15.25V16.75C3.5 17.4404 4.05964 18 4.75 18H5V15.25C5 14.8358 5.33579 14.5 5.75 14.5C6.16421 14.5 6.5 14.8358 6.5 15.25V18H17V11.5H14.75C14.3358 11.5 14 11.1642 14 10.75C14 10.3358 14.3358 10 14.75 10H17.15C17.8956 10 18.5 10.6044 18.5 11.35V18H18.75C19.4404 18 20 17.4404 20 16.75V5.57843C20 5.24691 19.8683 4.92896 19.6339 4.69454L16.8055 1.86612C16.7148 1.77544 16.6116 1.70014 16.5 1.64188V6.15C16.5 6.89558 15.8956 7.5 15.15 7.5H8.35C7.60442 7.5 7 6.89558 7 6.15V1.5H4.75ZM8.5 1.5H15V6H8.5V1.5ZM0.21967 9.21967C-0.0732233 9.51256 -0.0732233 9.98744 0.21967 10.2803L3.21967 13.2803C3.51256 13.5732 3.98744 13.5732 4.28033 13.2803C4.57322 12.9874 4.57322 12.5126 4.28033 12.2197L2.56066 10.5H11.75C12.1642 10.5 12.5 10.1642 12.5 9.75C12.5 9.33579 12.1642 9 11.75 9H2.56066L4.28033 7.28033C4.57322 6.98744 4.57322 6.51256 4.28033 6.21967C3.98744 5.92678 3.51256 5.92678 3.21967 6.21967L0.21967 9.21967Z" fill="#292927"/>
</g>
</svg>
