<svg preserveAspectRatio="xMidYMid meet" overflow="visible" style="display: block;" viewBox="0 0 24 24" fill="none" xmlns="http://www.w3.org/2000/svg">
<g transform="translate(3.2500, 3.2450)">
<path id="Vector" fill-rule="evenodd" clip-rule="evenodd" d="M0 0.75C0 0.335786 0.335786 0 0.75 0H8.75C9.16421 0 9.5 0.335786 9.5 0.75V16.75C9.5 17.1642 9.16421 17.5 8.75 17.5H0.75C0.335786 17.5 0 17.1642 0 16.75V0.75ZM8 1.5H1.5V16H8V1.5ZM13.2406 1.31748C12.9327 1.59457 12.4585 1.56961 12.1814 1.26173C11.9043 0.953848 11.9293 0.479631 12.2371 0.202536L12.2483 0.192536C12.5561 -0.0845583 13.0304 -0.0595997 13.3074 0.248283C13.5845 0.556165 13.5596 1.03038 13.2517 1.30748L13.2406 1.31748ZM17.2406 1.31748C16.9327 1.59457 16.4585 1.56961 16.1814 1.26173C15.9043 0.953848 15.9293 0.479631 16.2371 0.202536L16.2483 0.192536C16.5561 -0.0845583 17.0304 -0.0595997 17.3074 0.248283C17.5845 0.556165 17.5596 1.03038 17.2517 1.30748L17.2406 1.31748ZM16.1814 5.26173C16.4585 5.56961 16.9327 5.59457 17.2406 5.31748L17.2517 5.30748C17.5596 5.03038 17.5845 4.55616 17.3074 4.24828C17.0304 3.9404 16.5561 3.91544 16.2483 4.19254L16.2371 4.20254C15.9293 4.47963 15.9043 4.95385 16.1814 5.26173ZM17.2406 9.31748C16.9327 9.59457 16.4585 9.56961 16.1814 9.26173C15.9043 8.95385 15.9293 8.47963 16.2371 8.20254L16.2483 8.19254C16.5561 7.91544 17.0304 7.9404 17.3074 8.24828C17.5845 8.55616 17.5596 9.03038 17.2517 9.30748L17.2406 9.31748ZM16.1814 13.2617C16.4585 13.5696 16.9327 13.5946 17.2406 13.3175L17.2517 13.3075C17.5596 13.0304 17.5845 12.5562 17.3074 12.2483C17.0304 11.9404 16.5561 11.9154 16.2483 12.1925L16.2371 12.2025C15.9293 12.4796 15.9043 12.9538 16.1814 13.2617ZM17.2406 17.3175C16.9327 17.5946 16.4585 17.5696 16.1814 17.2617C15.9043 16.9538 15.9293 16.4796 16.2371 16.2025L16.2483 16.1925C16.5561 15.9154 17.0304 15.9404 17.3074 16.2483C17.5845 16.5562 17.5596 17.0304 17.2517 17.3075L17.2406 17.3175ZM12.1814 17.2617C12.4585 17.5696 12.9327 17.5946 13.2406 17.3175L13.2517 17.3075C13.5596 17.0304 13.5845 16.5562 13.3074 16.2483C13.0304 15.9404 12.5561 15.9154 12.2483 16.1925L12.2371 16.2025C11.9293 16.4796 11.9043 16.9538 12.1814 17.2617Z" fill="#292927"/>
</g>
</svg>
