<svg preserveAspectRatio="xMidYMid meet" overflow="visible" style="display: block;" viewBox="0 0 24 24" fill="none" xmlns="http://www.w3.org/2000/svg">
<g transform="translate(1.2500, 3.3340)">
<path id="Vector" fill-rule="evenodd" clip-rule="evenodd" d="M3.51113 9.28641L3.82259 9.20855C4.67447 8.99574 5.5 9.63994 5.5 10.5183V15.9814C5.5 16.8597 4.67459 17.5039 3.82271 17.2911L2.08302 16.8562C0.858812 16.5501 0 15.4501 0 14.1883V12.3114C0 11.0781 0.820308 9.99948 2.00033 9.66549C2.04086 4.40348 5.86304 0 10.75 0C15.637 0 19.4591 4.40347 19.4997 9.66548C20.6797 9.99947 21.5 11.0781 21.5 12.3114V14.1883C21.5 15.4501 20.6412 16.5501 19.417 16.8562L17.6774 17.2911C16.8255 17.5039 16 16.8596 16 15.9814V10.5183C16 9.63997 16.8254 8.9957 17.6773 9.20851L17.9889 9.28647C17.7762 4.87016 14.5419 1.5 10.75 1.5C6.95817 1.5 3.72387 4.87013 3.51113 9.28641ZM2.93189 10.9774L2.44688 11.0986C1.89041 11.2378 1.5 11.7378 1.5 12.3114V14.1883C1.5 14.7618 1.89037 15.2618 2.44684 15.4009L4 15.7892V10.7104L2.93189 10.9774ZM17.5 10.7104L19.0532 11.0987C19.0531 11.0986 19.0533 11.0987 19.0532 11.0987C19.6094 11.2379 20 11.7379 20 12.3114V14.1883C20 14.7618 19.6096 15.2618 19.0532 15.4009C19.0532 15.4009 19.0532 15.4009 19.0532 15.4009L17.5 15.7892V10.7104Z" fill="#292927"/>
</g>
</svg>
