<svg preserveAspectRatio="xMidYMid meet" overflow="visible" style="display: block;" viewBox="0 0 24 24" fill="none" xmlns="http://www.w3.org/2000/svg">
<g transform="translate(1.2500, 1.2500)">
<path id="Vector" fill-rule="evenodd" clip-rule="evenodd" d="M0 0.75C0 0.335786 0.335786 0 0.75 0C2.71839 0 3.80306 1.09155 4.26124 2H20.75C20.9724 2 21.1833 2.0987 21.3258 2.26944C21.4683 2.44018 21.5277 2.66536 21.4879 2.88416L19.4902 13.8717C19.4733 13.9751 19.4353 14.0715 19.3806 14.1561C19.2471 14.363 19.0145 14.5 18.75 14.5H5.75001H3.98077C3.18492 14.5 2.68322 14.6759 2.39869 14.8911C2.14118 15.0859 2 15.3565 2 15.75C2 16.1435 2.14118 16.4141 2.39869 16.6089C2.68322 16.8241 3.18492 17 3.98077 17H8.25H18.25C19.4926 17 20.5 18.0074 20.5 19.25C20.5 20.4926 19.4926 21.5 18.25 21.5C17.0074 21.5 16 20.4926 16 19.25C16 18.987 16.0451 18.7346 16.128 18.5H10.372C10.4549 18.7346 10.5 18.987 10.5 19.25C10.5 20.4926 9.49264 21.5 8.25 21.5C7.00736 21.5 6 20.4926 6 19.25C6 18.987 6.04512 18.7346 6.12803 18.5H3.98077C2.99231 18.5 2.12863 18.2853 1.49385 17.8052C0.83205 17.3047 0.5 16.5753 0.5 15.75C0.5 14.9247 0.83205 14.1953 1.49385 13.6948C2.12863 13.2147 2.99231 13 3.98077 13H4.85135L3.01717 2.91205C2.90337 2.49887 2.31544 1.5 0.75 1.5C0.335786 1.5 0 1.16421 0 0.75ZM6.37594 13H9.44713L8.7994 3.5H4.64867L6.37594 13ZM10.9506 13H13.5651L14.4287 3.5H10.3029L10.9506 13ZM15.0713 13H18.1241L19.8513 3.5H15.9349L15.0713 13Z" fill="#292927"/>
</g>
</svg>
