<svg preserveAspectRatio="xMidYMid meet" overflow="visible" style="display: block;" viewBox="0 0 24 24" fill="none" xmlns="http://www.w3.org/2000/svg">
<g transform="translate(2.2500, 2.2500)">
<path id="Vector" fill-rule="evenodd" clip-rule="evenodd" d="M0 16.75C0 18.2688 1.23122 19.5 2.75 19.5H7.25H16.75C18.2688 19.5 19.5 18.2688 19.5 16.75V2.75C19.5 1.23122 18.2688 0 16.75 0H7.25H2.75C1.23122 0 0 1.23122 0 2.75V16.75ZM16.75 18H8V1.5H16.75C17.4404 1.5 18 2.05964 18 2.75V16.75C18 17.4404 17.4404 18 16.75 18ZM6.5 18V1.5H2.75C2.05964 1.5 1.5 2.05964 1.5 2.75V16.75C1.5 17.4404 2.05964 18 2.75 18H6.5ZM3.81444 12.2439C3.54168 12.5556 3.06786 12.5872 2.75613 12.3144C2.4444 12.0417 2.41282 11.5678 2.68558 11.2561L4.00343 9.74999L2.68558 8.24387C2.41282 7.93214 2.4444 7.45832 2.75613 7.18556C3.06786 6.9128 3.54168 6.94438 3.81444 7.25611L5.56444 9.25611C5.81187 9.53888 5.81187 9.9611 5.56444 10.2439L3.81444 12.2439Z" fill="#292927"/>
</g>
</svg>
