<svg preserveAspectRatio="xMidYMid meet" overflow="visible" style="display: block;" viewBox="0 0 24 24" fill="none" xmlns="http://www.w3.org/2000/svg">
<g transform="translate(2.3165, 3.2500)">
<path id="Vector" fill-rule="evenodd" clip-rule="evenodd" d="M1.51484 1.5L2.87421 16H8.94124V8.75C8.94124 8.33579 9.27702 8 9.69124 8C10.1054 8 10.4412 8.33579 10.4412 8.75V12.8H16.524L17.8482 1.5H1.51484ZM10.4412 14.3H16.6574C17.3422 14.3 17.9186 13.7873 17.9983 13.1071L19.3576 1.50713C19.4517 0.704764 18.8247 0 18.0168 0H1.35012C0.554757 0 -0.0682287 0.684129 0.00601028 1.47601L1.39351 16.276C1.45855 16.9697 2.04085 17.5 2.73762 17.5H9.09124C9.83682 17.5 10.4412 16.8956 10.4412 16.15V14.3Z" fill="#292927"/>
</g>
</svg>
