<svg preserveAspectRatio="xMidYMid meet" overflow="visible" style="display: block;" viewBox="0 0 24 24" fill="none" xmlns="http://www.w3.org/2000/svg">
<g transform="translate(2.2500, 2.2500)">
<path id="Vector" fill-rule="evenodd" clip-rule="evenodd" d="M18 1.5V18H1.5V1.5H18ZM18.15 19.5C18.8956 19.5 19.5 18.8956 19.5 18.15V1.35C19.5 0.604418 18.8956 0 18.15 0H1.35C0.604418 0 0 0.604414 0 1.35V18.15C0 18.8956 0.604414 19.5 1.35 19.5H18.15ZM3.46154 9.05769L3.46116 9.05785L3.4611 9.05788L3.46059 9.05809C3.18164 9.17476 3 9.44757 3 9.75C3 10.0527 3.18196 10.3257 3.46131 10.4422L3.46141 10.4423L3.46154 10.4423L3.46838 10.4452L3.50155 10.4598C3.53164 10.4732 3.57625 10.4937 3.63044 10.52C3.74048 10.5735 3.88208 10.6475 4.01917 10.7332C4.16148 10.8222 4.26944 10.9055 4.33333 10.9719L4.33334 12.7502C4.33334 14.269 5.56464 15.5 7.08334 15.5H7.75C8.16421 15.5 8.5 15.1642 8.5 14.75C8.5 14.3358 8.16421 14 7.75 14H7.08334C6.39291 14 5.83334 13.4404 5.83334 12.7502L5.83333 10.8611C5.83333 10.4285 5.58436 10.1091 5.41604 9.93373C5.35343 9.86851 5.28642 9.80719 5.2178 9.75C5.28642 9.69281 5.35343 9.63149 5.41604 9.56627C5.58436 9.39094 5.83334 9.07155 5.83334 8.63889L5.83334 6.74998C5.83334 6.05963 6.39297 5.5 7.08334 5.5H7.75C8.16421 5.5 8.5 5.16421 8.5 4.75C8.5 4.33579 8.16421 4 7.75 4H7.08334C5.56457 4 4.33334 5.23118 4.33334 6.74998L4.33334 8.52813C4.26945 8.59449 4.16149 8.67783 4.01917 8.76678C3.88208 8.85246 3.74049 8.92649 3.63044 8.97999C3.57625 9.00633 3.53164 9.02676 3.50155 9.04019L3.46838 9.05476L3.46154 9.05769ZM4.37008 8.4841C4.37033 8.48409 4.3689 8.48665 4.36502 8.49184C4.36789 8.48671 4.36982 8.48411 4.37008 8.4841ZM4.37007 11.0159C4.36982 11.0159 4.36788 11.0133 4.36502 11.0082C4.36889 11.0133 4.37032 11.0159 4.37007 11.0159ZM16.0385 9.05769L16.0388 9.05785L16.0389 9.05788L16.0394 9.05809C16.3184 9.17476 16.5 9.44757 16.5 9.75C16.5 10.0527 16.318 10.3257 16.0387 10.4422L16.0386 10.4423L16.0385 10.4423L16.0316 10.4452L15.9984 10.4598C15.9684 10.4732 15.9238 10.4937 15.8696 10.52C15.7595 10.5735 15.6179 10.6475 15.4808 10.7332C15.3385 10.8222 15.2306 10.9055 15.1667 10.9719L15.1667 12.7502C15.1667 14.269 13.9354 15.5 12.4167 15.5H11.75C11.3358 15.5 11 15.1642 11 14.75C11 14.3358 11.3358 14 11.75 14H12.4167C13.1071 14 13.6667 13.4404 13.6667 12.7502L13.6667 10.8611C13.6667 10.4285 13.9156 10.1091 14.084 9.93373C14.1466 9.86851 14.2136 9.80719 14.2822 9.75C14.2136 9.69281 14.1466 9.63149 14.084 9.56627C13.9156 9.39094 13.6667 9.07155 13.6667 8.63889L13.6667 6.74998C13.6667 6.05963 13.107 5.5 12.4167 5.5H11.75C11.3358 5.5 11 5.16421 11 4.75C11 4.33579 11.3358 4 11.75 4H12.4167C13.9354 4 15.1667 5.23118 15.1667 6.74998L15.1667 8.52813C15.2306 8.59449 15.3385 8.67783 15.4808 8.76678C15.6179 8.85246 15.7595 8.92649 15.8696 8.97999C15.9237 9.00633 15.9684 9.02676 15.9984 9.04019L16.0316 9.05476L16.0385 9.05769ZM15.1299 8.4841C15.1297 8.48409 15.1311 8.48665 15.135 8.49184C15.1321 8.48671 15.1302 8.48411 15.1299 8.4841ZM15.1299 11.0159C15.1302 11.0159 15.1321 11.0133 15.135 11.0082C15.1311 11.0133 15.1297 11.0159 15.1299 11.0159Z" fill="#292927"/>
</g>
</svg>
