<svg preserveAspectRatio="xMidYMid meet" overflow="visible" style="display: block;" viewBox="0 0 24 24" fill="none" xmlns="http://www.w3.org/2000/svg">
<g transform="translate(1.7500, 1.2500)">
<path id="Vector" fill-rule="evenodd" clip-rule="evenodd" d="M1.1369 1.68056C2.20299 0.766766 4.16026 0 7.75 0C11.3397 0 13.297 0.766766 14.3631 1.68056C14.8988 2.13974 15.1877 2.61876 15.3396 3.00942C15.4148 3.20261 15.4548 3.37009 15.4761 3.49779C15.4868 3.56164 15.4927 3.61565 15.496 3.65815C15.4977 3.67941 15.4987 3.69782 15.4993 3.71319L15.4995 3.72222C15.4998 3.73144 15.5 3.7407 15.5 3.75V9.75C15.5 10.1642 15.1642 10.5 14.75 10.5C14.3358 10.5 14 10.1642 14 9.75V6.09957C12.8714 6.88468 10.9657 7.5 7.75 7.5C4.53429 7.5 2.6286 6.8847 1.50002 6.09959V9.73114C1.50057 9.73618 1.50162 9.74443 1.50348 9.75561C1.50954 9.79196 1.52415 9.85886 1.55839 9.94691C1.62522 10.1188 1.77382 10.3897 2.11311 10.6806C2.79702 11.2668 4.33976 12 7.75002 12C8.32448 12 8.847 11.9792 9.32209 11.9415C9.73501 11.9088 10.0963 12.217 10.129 12.6299C10.1617 13.0428 9.85353 13.4041 9.44061 13.4368C8.9228 13.4779 8.36058 13.5 7.75002 13.5C4.53429 13.5 2.62859 12.8847 1.50002 12.0996V15.7311C1.50057 15.7362 1.50162 15.7444 1.50348 15.7556C1.50954 15.792 1.52415 15.8589 1.55839 15.9469C1.62522 16.1188 1.77382 16.3897 2.11311 16.6806C2.79702 17.2668 4.33976 18 7.75002 18C8.16423 18 8.50002 18.3358 8.50002 18.75C8.50002 19.1642 8.16423 19.5 7.75002 19.5C4.16027 19.5 2.20301 18.7332 1.13692 17.8194C0.601207 17.3603 0.312308 16.8812 0.160387 16.4906C0.0852537 16.2974 0.0451763 16.1299 0.0238917 16.0022C0.0132509 15.9384 0.00728803 15.8843 0.00398254 15.8418C0.00232899 15.8206 0.00133764 15.8022 0.000759418 15.7868L0.000170524 15.7661L5.02423e-05 15.7574L2.35394e-05 15.7536L1.72809e-05 15.7517C1.72809e-05 15.7517 1.52543e-05 15.75 0.750015 15.75H1.52543e-05V9.75V3.75487L6.25849e-06 3.75357L0 3.75175L1.52543e-05 3.75167V3.75V3.74833L0 3.74825L6.25849e-06 3.74643L3.29614e-05 3.74256L0.000153244 3.73394L0.000742137 3.71319C0.00132036 3.69782 0.00231171 3.67941 0.00396526 3.65815C0.00727075 3.61565 0.0132336 3.56164 0.0238744 3.49779C0.045159 3.37009 0.0852364 3.20261 0.160369 3.00942C0.312291 2.61876 0.60119 2.13974 1.1369 1.68056ZM1.50256 3.75L1.50347 3.75561C1.50952 3.79196 1.52413 3.85886 1.55838 3.94692C1.6252 4.11876 1.77381 4.38974 2.11309 4.68056C2.797 5.26677 4.33974 6 7.75 6C11.1603 6 12.703 5.26677 13.3869 4.68056C13.7262 4.38974 13.8748 4.11876 13.9416 3.94692C13.9759 3.85886 13.9905 3.79196 13.9965 3.75561L13.9974 3.75L13.9965 3.74439C13.9905 3.70804 13.9759 3.64114 13.9416 3.55308C13.8748 3.38124 13.7262 3.11026 13.3869 2.81944C12.703 2.23323 11.1603 1.5 7.75 1.5C4.33974 1.5 2.797 2.23323 2.11309 2.81944C1.77381 3.11026 1.6252 3.38124 1.55838 3.55308C1.52413 3.64114 1.50952 3.70804 1.50347 3.74439L1.50256 3.75ZM15.7401 13.5C14.3616 13.5 13.1228 14.4887 12.6631 15.972C12.5405 16.3677 12.1204 16.589 11.7247 16.4664C11.3291 16.3438 11.1077 15.9236 11.2303 15.528C11.8525 13.5203 13.6018 12 15.7401 12C17.0175 12 18.1574 12.5437 19.0001 13.4091V13.1943C19.0001 12.7801 19.3359 12.4443 19.7501 12.4443C20.1643 12.4443 20.5001 12.7801 20.5001 13.1943V15.0829C20.5001 15.6687 20.0353 16.1459 19.4544 16.1659C19.4346 16.1669 19.4148 16.1671 19.3951 16.1666H17.7451C17.3309 16.1666 16.9951 15.8308 16.9951 15.4166C16.9951 15.0023 17.3309 14.6666 17.7451 14.6666H18.1168C17.5117 13.9366 16.6577 13.5 15.7401 13.5ZM15.7599 20C17.1385 20 18.3772 19.0113 18.8369 17.528C18.9595 17.1323 19.3797 16.911 19.7753 17.0336C20.171 17.1562 20.3923 17.5764 20.2697 17.972C19.6475 19.9797 17.8982 21.5 15.7599 21.5C14.4825 21.5 13.3426 20.9563 12.4999 20.0909V20.3057C12.4999 20.7199 12.1642 21.0557 11.7499 21.0557C11.3357 21.0557 10.9999 20.7199 10.9999 20.3057V18.4171C10.9999 17.8313 11.4647 17.3541 12.0456 17.3341C12.0655 17.3331 12.0853 17.3329 12.105 17.3334H13.7549C14.1691 17.3334 14.5049 17.6692 14.5049 18.0834C14.5049 18.4977 14.1691 18.8334 13.7549 18.8334H13.3832C13.9884 19.5634 14.8423 20 15.7599 20Z" fill="#292927"/>
</g>
</svg>
