<svg preserveAspectRatio="xMidYMid meet" overflow="visible" style="display: block;" viewBox="0 0 24 24" fill="none" xmlns="http://www.w3.org/2000/svg">
<g transform="translate(2.3701, 1.5244)">
<path id="Vector" fill-rule="evenodd" clip-rule="evenodd" d="M10.2265 0.0654856C9.83354 -0.0218285 9.42625 -0.0218286 9.03333 0.0654855L1.37117 1.76819C0.482459 1.96568 -0.112102 2.81056 0.0177899 3.7198L1.88743 16.8073C1.93312 17.1271 2.0985 18.2149 3.22484 19.2011C4.33821 20.176 6.27404 20.9512 9.62989 20.9512C12.9857 20.9512 14.9216 20.176 16.0349 19.2011C17.1613 18.2149 17.3267 17.1271 17.3724 16.8073L19.242 3.7198C19.3719 2.81056 18.7773 1.96568 17.8886 1.76819L10.2265 0.0654856ZM9.35873 1.52977C9.53732 1.49008 9.72246 1.49008 9.90105 1.52977L17.5632 3.23247C17.6947 3.26168 17.775 3.38234 17.7571 3.50767L15.8863 16.6031C15.8598 16.7896 15.7671 17.4418 15.0468 18.0726C14.3029 18.724 12.774 19.4512 9.62989 19.4512C6.48574 19.4512 4.95693 18.724 4.21298 18.0726C3.49264 17.4418 3.39997 16.7896 3.37349 16.6031L1.50271 3.50767C1.48481 3.38234 1.5651 3.26168 1.69657 3.23247L9.35873 1.52977ZM5.09957 7.17084L5.6299 7.70117C5.09957 7.17084 5.09996 7.17045 5.10036 7.17005L5.10117 7.16924L5.10287 7.16756L5.10658 7.16391L5.1152 7.1556C5.12149 7.1496 5.12886 7.14271 5.13736 7.13499C5.15434 7.11954 5.17579 7.10079 5.20195 7.07926C5.25428 7.03616 5.32531 6.98201 5.417 6.92088C5.60064 6.79846 5.86544 6.64918 6.22636 6.50481C6.94951 6.21555 8.04536 5.95117 9.6299 5.95117C11.2144 5.95117 12.3103 6.21555 13.0334 6.50481C13.3944 6.64918 13.6592 6.79846 13.8428 6.92088C13.9345 6.98201 14.0055 7.03616 14.0579 7.07926C14.084 7.10079 14.1055 7.11954 14.1224 7.13499C14.1309 7.14271 14.1383 7.1496 14.1446 7.1556L14.1532 7.16391L14.1569 7.16756L14.1586 7.16924L14.1594 7.17005C14.1598 7.17045 14.1602 7.17083 13.646 7.68505L14.1602 7.17084C14.4531 7.46374 14.4531 7.93861 14.1602 8.2315C13.8714 8.52032 13.4056 8.52434 13.1119 8.24355L13.1043 8.23715C13.0902 8.22556 13.0597 8.20159 13.0107 8.16896C12.9131 8.10389 12.7404 8.00316 12.4764 7.89753C11.9495 7.68679 11.0454 7.45117 9.6299 7.45117C8.21444 7.45117 7.31028 7.68679 6.78344 7.89753C6.51936 8.00316 6.34666 8.10389 6.24905 8.16896C6.20011 8.20159 6.16958 8.22556 6.15551 8.23715L6.14791 8.24355C5.85417 8.52434 5.38839 8.52032 5.09957 8.2315C4.80667 7.93861 4.80667 7.46374 5.09957 7.17084ZM7.8799 11.7012C7.8799 10.7347 8.6634 9.95117 9.6299 9.95117C10.5964 9.95117 11.3799 10.7347 11.3799 11.7012C11.3799 12.6677 10.5964 13.4512 9.6299 13.4512C8.6634 13.4512 7.8799 12.6677 7.8799 11.7012Z" fill="#292927"/>
</g>
</svg>
