<svg preserveAspectRatio="xMidYMid meet" overflow="visible" style="display: block;" viewBox="0 0 24 24" fill="none" xmlns="http://www.w3.org/2000/svg">
<g transform="translate(3.2450, 3.2500)">
<path id="Vector" fill-rule="evenodd" clip-rule="evenodd" d="M17.51 0.75C17.51 0.335786 17.1742 0 16.76 0C16.3458 0 16.01 0.335786 16.01 0.75V16H0.760025C0.345812 16 0.010025 16.3358 0.010025 16.75C0.010025 17.1642 0.345812 17.5 0.760025 17.5H16.76C17.1742 17.5 17.51 17.1642 17.51 16.75V0.75ZM0.259394 13.3175C0.567276 13.5946 1.04149 13.5696 1.31859 13.2617C1.59568 12.9538 1.57072 12.4796 1.26284 12.2025L1.25173 12.1925C0.943848 11.9154 0.469631 11.9404 0.192536 12.2483C-0.0845583 12.5562 -0.0595998 13.0304 0.248283 13.3075L0.259394 13.3175ZM1.31859 9.26173C1.04149 9.56961 0.567276 9.59457 0.259394 9.31748L0.248283 9.30748C-0.0595998 9.03038 -0.0845583 8.55616 0.192536 8.24828C0.469631 7.9404 0.943848 7.91544 1.25173 8.19254L1.26284 8.20254C1.57072 8.47963 1.59568 8.95385 1.31859 9.26173ZM0.259394 5.31748C0.567276 5.59457 1.04149 5.56961 1.31859 5.26173C1.59568 4.95385 1.57072 4.47963 1.26284 4.20254L1.25173 4.19254C0.943848 3.91544 0.469631 3.9404 0.192536 4.24828C-0.0845583 4.55616 -0.0595998 5.03038 0.248283 5.30748L0.259394 5.31748ZM1.31859 1.26173C1.04149 1.56961 0.567276 1.59457 0.259394 1.31748L0.248283 1.30748C-0.0595998 1.03038 -0.0845583 0.556165 0.192536 0.248283C0.469631 -0.0595998 0.943848 -0.0845583 1.25173 0.192536L1.26284 0.202536C1.57072 0.479631 1.59568 0.953848 1.31859 1.26173ZM12.2594 1.31748C12.5673 1.59457 13.0415 1.56961 13.3186 1.26173C13.5957 0.953848 13.5707 0.479631 13.2628 0.202536L13.2517 0.192536C12.9438 -0.0845583 12.4696 -0.0595998 12.1925 0.248283C11.9154 0.556165 11.9404 1.03038 12.2483 1.30748L12.2594 1.31748ZM9.31859 1.26173C9.04149 1.56961 8.56728 1.59457 8.25939 1.31748L8.24828 1.30748C7.9404 1.03038 7.91544 0.556165 8.19254 0.248283C8.46963 -0.0595998 8.94385 -0.0845583 9.25173 0.192536L9.26284 0.202536C9.57072 0.479631 9.59568 0.953848 9.31859 1.26173ZM4.25939 1.31748C4.56728 1.59457 5.04149 1.56961 5.31859 1.26173C5.59568 0.953848 5.57072 0.479631 5.26284 0.202536L5.25173 0.192536C4.94385 -0.0845583 4.46963 -0.0595998 4.19254 0.248283C3.91544 0.556165 3.9404 1.03038 4.24828 1.30748L4.25939 1.31748Z" fill="#292927"/>
</g>
</svg>
