<svg preserveAspectRatio="xMidYMid meet" overflow="visible" style="display: block;" viewBox="0 0 24 24" fill="none" xmlns="http://www.w3.org/2000/svg">
<g transform="translate(2.3459, 2.1685)">
<path id="Vector" fill-rule="evenodd" clip-rule="evenodd" d="M5 7.43934L7.21967 5.21967C7.51256 4.92678 7.98744 4.92678 8.28033 5.21967C8.57322 5.51256 8.57322 5.98744 8.28033 6.28033L4.78155 9.77911C4.77732 9.78336 4.77304 9.78756 4.76871 9.79171C4.634 9.92073 4.45126 10 4.25 10C4.1487 10 4.05209 9.97992 3.96393 9.94351C3.87509 9.90691 3.79185 9.85251 3.71967 9.78033L0.21967 6.28033C-0.0732233 5.98744 -0.0732233 5.51256 0.21967 5.21967C0.512563 4.92678 0.987437 4.92678 1.28033 5.21967L3.5 7.43934L3.5 4.25002L3.5 4.24858L3.50001 4.24683L3.50003 4.24236L3.50017 4.22959C3.50031 4.21941 3.50057 4.20589 3.50104 4.18927C3.50199 4.15605 3.5038 4.1103 3.50726 4.05378C3.51417 3.94097 3.52772 3.78392 3.55442 3.59706C3.60725 3.2272 3.71429 2.72105 3.93564 2.20456C4.15697 1.68814 4.50509 1.1327 5.05517 0.704861C5.61592 0.268722 6.34261 0 7.25 0C8.25624 0 9.06078 0.253715 9.68946 0.672837C10.3135 1.08883 10.7201 1.63812 10.9833 2.16459C11.2451 2.68813 11.3722 3.20258 11.4351 3.57983C11.4668 3.77023 11.483 3.93053 11.4913 4.04617C11.4954 4.10412 11.4976 4.15123 11.4987 4.18571C11.4993 4.20296 11.4996 4.21708 11.4998 4.22786L11.5 4.24151L11.5 4.24641L11.5 4.24837L11.5 4.25V8.75C11.5 9.16421 11.1642 9.5 10.75 9.5C10.3358 9.5 10 9.16421 10 8.75L9.99999 4.25205L9.99956 4.23568C9.999 4.21889 9.99777 4.1908 9.99507 4.15304C9.98966 4.07728 9.97847 3.96415 9.95552 3.82642C9.90902 3.54742 9.81741 3.18687 9.64168 2.83541C9.46742 2.48688 9.2178 2.16117 8.85741 1.92091C8.50172 1.68379 7.99376 1.5 7.25 1.5C6.65739 1.5 6.25908 1.66878 5.97608 1.88889C5.68241 2.1173 5.46804 2.43686 5.31436 2.79544C5.16071 3.15395 5.08025 3.5228 5.03934 3.80919C5.01916 3.95046 5.00927 4.06684 5.00446 4.14544C5.00206 4.18462 5.00094 4.21406 5.00043 4.23211L5.00002 4.25033L5 4.25248V7.43934ZM10.75 4.25C10 4.25 10 4.25069 10 4.25069L10.75 4.25ZM11.5805 10.9847L18.8836 17.4764C19.8341 18.3212 19.0628 19.8804 17.8146 19.6377L10.75 18.264L3.6854 19.6377C2.43716 19.8804 1.66594 18.3212 2.61636 17.4764L9.91954 10.9847C10.3932 10.5637 11.1068 10.5637 11.5805 10.9847ZM10.75 12.2534L4.29522 17.991L10.5114 16.7823C10.669 16.7517 10.831 16.7517 10.9886 16.7823L17.2048 17.991L10.75 12.2534Z" fill="#292927"/>
</g>
</svg>
