<svg preserveAspectRatio="xMidYMid meet" overflow="visible" style="display: block;" viewBox="0 0 24 24" fill="none" xmlns="http://www.w3.org/2000/svg">
<g transform="translate(2.2500, 1.7500)">
<path id="Vector" fill-rule="evenodd" clip-rule="evenodd" d="M13.5 0.75C13.5 0.335786 13.1642 0 12.75 0C12.3358 0 12 0.335786 12 0.75V2H8.25C7.83579 2 7.5 2.33579 7.5 2.75C7.5 3.16421 7.83579 3.5 8.25 3.5H12V4.75C12 5.16421 12.3358 5.5 12.75 5.5C13.1642 5.5 13.5 5.16421 13.5 4.75V0.75ZM0 8.75V4.75C0 3.23122 1.23122 2 2.75 2H4V0.75C4 0.335786 4.33579 0 4.75 0C5.16421 0 5.5 0.335786 5.5 0.75V2.75V4.75C5.5 5.16421 5.16421 5.5 4.75 5.5C4.33579 5.5 4 5.16421 4 4.75V3.5H2.75C2.05964 3.5 1.5 4.05964 1.5 4.75V8H18V4.75C18 4.05964 17.4404 3.5 16.75 3.5H16.25C15.8358 3.5 15.5 3.16421 15.5 2.75C15.5 2.33579 15.8358 2 16.25 2H16.75C18.2688 2 19.5 3.23122 19.5 4.75V8.75V17.75C19.5 19.2688 18.2688 20.5 16.75 20.5H2.75C1.23122 20.5 0 19.2688 0 17.75V8.75ZM1.5 17.75V9.5H18V17.75C18 18.4404 17.4404 19 16.75 19H2.75C2.05964 19 1.5 18.4404 1.5 17.75Z" fill="#292927"/>
</g>
</svg>
