<svg preserveAspectRatio="xMidYMid meet" overflow="visible" style="display: block;" viewBox="0 0 24 24" fill="none" xmlns="http://www.w3.org/2000/svg">
<g transform="translate(2.2500, 1.2517)">
<path id="Vector" fill-rule="evenodd" clip-rule="evenodd" d="M9.75005 0C7.94365 0 6.22184 0.765874 4.96026 2.11156C3.70021 3.45561 3.00005 5.26876 3.00005 7.15C3.00005 10.7806 2.27142 13.0609 1.5823 14.4085C1.23701 15.0838 0.898349 15.5314 0.658043 15.802C0.537698 15.9375 0.441478 16.0292 0.380686 16.0832C0.350277 16.1102 0.328694 16.1279 0.317349 16.1369L0.308626 16.1437C0.0475505 16.3337 -0.0628211 16.6699 0.0355909 16.9781C0.134851 17.289 0.423727 17.5 0.750053 17.5H18.7501C19.0764 17.5 19.3653 17.289 19.4645 16.9781C19.5629 16.6699 19.4526 16.3337 19.1915 16.1437L19.1828 16.1369C19.1714 16.1279 19.1498 16.1102 19.1194 16.0832C19.0586 16.0292 18.9624 15.9375 18.8421 15.802C18.6018 15.5314 18.2631 15.0838 17.9178 14.4085C17.2287 13.0609 16.5001 10.7806 16.5001 7.15C16.5001 5.26876 15.7999 3.45561 14.5398 2.11156C13.2783 0.765874 11.5565 0 9.75005 0ZM16.5823 15.0915C16.76 15.439 16.939 15.7405 17.1112 16H2.38891C2.56108 15.7405 2.74009 15.439 2.91781 15.0915C3.72869 13.5058 4.50005 10.9861 4.50005 7.15C4.50005 5.63647 5.06417 4.19389 6.05457 3.13747C7.04342 2.08269 8.37386 1.5 9.75005 1.5C11.1262 1.5 12.4567 2.08269 13.4455 3.13747C14.4359 4.19389 15.0001 5.63647 15.0001 7.15C15.0001 10.9861 15.7714 13.5058 16.5823 15.0915ZM8.66883 19.3738C8.46098 19.0155 8.00204 18.8935 7.64375 19.1014C7.28545 19.3092 7.16348 19.7682 7.37132 20.1265C7.61306 20.5432 7.96004 20.8891 8.37751 21.1296C8.79499 21.37 9.2683 21.4966 9.75007 21.4966C10.2318 21.4966 10.7052 21.37 11.1226 21.1296C11.5401 20.8891 11.8871 20.5432 12.1288 20.1265C12.3367 19.7682 12.2147 19.3092 11.8564 19.1014C11.4981 18.8935 11.0392 19.0155 10.8313 19.3738C10.7214 19.5632 10.5637 19.7205 10.374 19.8298C10.1842 19.9391 9.96906 19.9966 9.75007 19.9966C9.53109 19.9966 9.31594 19.9391 9.12618 19.8298C8.93642 19.7205 8.77871 19.5632 8.66883 19.3738Z" fill="#292927"/>
</g>
</svg>
