<svg preserveAspectRatio="xMidYMid meet" overflow="visible" style="display: block;" viewBox="0 0 24 24" fill="none" xmlns="http://www.w3.org/2000/svg">
<g transform="translate(2.5000, 2.2500)">
<path id="Vector" fill-rule="evenodd" clip-rule="evenodd" d="M2.5 0.75C2.5 0.335786 2.16421 0 1.75 0C1.33579 0 1 0.335786 1 0.75V2.04581C0.424089 2.19998 0 2.72546 0 3.35V4.75C0 6.26878 1.23122 7.5 2.75 7.5H3V16.75C3 18.2688 4.23122 19.5 5.75 19.5H14.75C16.2688 19.5 17.5 18.2688 17.5 16.75V11.75C17.5 11.3358 17.1642 11 16.75 11C16.3358 11 16 11.3358 16 11.75V16.75C16 17.4404 15.4404 18 14.75 18H5.75C5.05964 18 4.5 17.4404 4.5 16.75V7.5H4.75C6.26878 7.5 7.5 6.26878 7.5 4.75V3.35C7.5 2.72546 7.07591 2.19998 6.5 2.04581V0.75C6.5 0.335786 6.16421 0 5.75 0C5.33579 0 5 0.335786 5 0.75V2H2.5V0.75ZM1.75 3.5H5.75H6V4.75C6 5.44036 5.44036 6 4.75 6H3.75H2.75C2.05964 6 1.5 5.44036 1.5 4.75V3.5H1.75ZM16.5723 2.11437C16.7734 1.75228 16.643 1.29568 16.2809 1.09452C15.9188 0.893359 15.4622 1.02382 15.261 1.3859L13.5944 4.3859C13.4653 4.6182 13.4688 4.90145 13.6036 5.13048C13.7384 5.35952 13.9843 5.50014 14.25 5.50014H16.9754L15.9277 7.3859C15.7266 7.74799 15.857 8.2046 16.2191 8.40576C16.5812 8.60691 17.0378 8.47646 17.239 8.11437L18.9056 5.11437C19.0347 4.88207 19.0312 4.59882 18.8964 4.36979C18.7616 4.14076 18.5157 4.00014 18.25 4.00014H15.5246L16.5723 2.11437Z" fill="#292927"/>
</g>
</svg>
