<svg preserveAspectRatio="xMidYMid meet" overflow="visible" style="display: block;" viewBox="0 0 24 24" fill="none" xmlns="http://www.w3.org/2000/svg">
<g transform="translate(1.2500, 1.2500)">
<path id="Vector" fill-rule="evenodd" clip-rule="evenodd" d="M0 10.75C0 8.35489 0.78328 6.14273 2.10766 4.3557C2.03803 4.16696 2 3.96292 2 3.75C2 2.7835 2.7835 2 3.75 2C3.96292 2 4.16696 2.03803 4.3557 2.10766C6.14273 0.78328 8.35489 0 10.75 0C16.6871 0 21.5 4.81294 21.5 10.75C21.5 13.1451 20.7167 15.3573 19.3923 17.1443C19.462 17.333 19.5 17.5371 19.5 17.75C19.5 18.7165 18.7165 19.5 17.75 19.5C17.5371 19.5 17.333 19.462 17.1443 19.3923C15.3573 20.7167 13.1451 21.5 10.75 21.5C4.81294 21.5 0 16.6871 0 10.75ZM20 10.75C20 12.7389 19.3723 14.5812 18.3042 16.0896C18.13 16.0315 17.9437 16 17.75 16C17.5437 16 17.3457 16.0357 17.1619 16.1013L16.7803 15.7197C16.4874 15.4268 16.0126 15.4268 15.7197 15.7197C15.4268 16.0126 15.4268 16.4874 15.7197 16.7803L16.1013 17.1619C16.0357 17.3457 16 17.5437 16 17.75C16 17.9437 16.0315 18.13 16.0896 18.3042C14.5812 19.3723 12.7389 20 10.75 20C5.64137 20 1.5 15.8586 1.5 10.75C1.5 8.7611 2.12771 6.91881 3.19583 5.41044C3.36998 5.46853 3.55632 5.5 3.75 5.5C3.95631 5.5 4.15428 5.4643 4.33808 5.39874L4.71967 5.78033C5.01256 6.07322 5.48744 6.07322 5.78033 5.78033C6.07322 5.48744 6.07322 5.01256 5.78033 4.71967L5.39874 4.33808C5.4643 4.15428 5.5 3.95631 5.5 3.75C5.5 3.55632 5.46853 3.36998 5.41044 3.19583C6.91881 2.12771 8.7611 1.5 10.75 1.5C15.8586 1.5 20 5.64137 20 10.75ZM14.7803 14.7803C14.4874 15.0732 14.0126 15.0732 13.7197 14.7803L12.7197 13.7803C12.4268 13.4874 12.4268 13.0126 12.7197 12.7197C13.0126 12.4268 13.4874 12.4268 13.7803 12.7197L14.7803 13.7197C15.0732 14.0126 15.0732 14.4874 14.7803 14.7803ZM10.7197 11.7803C11.0126 12.0732 11.4874 12.0732 11.7803 11.7803C12.0732 11.4874 12.0732 11.0126 11.7803 10.7197L10.7803 9.71967C10.4874 9.42678 10.0126 9.42678 9.71967 9.71967C9.42678 10.0126 9.42678 10.4874 9.71967 10.7803L10.7197 11.7803ZM8.78033 8.78033C8.48744 9.07322 8.01256 9.07322 7.71967 8.78033L6.71967 7.78033C6.42678 7.48744 6.42678 7.01256 6.71967 6.71967C7.01256 6.42678 7.48744 6.42678 7.78033 6.71967L8.78033 7.71967C9.07322 8.01256 9.07322 8.48744 8.78033 8.78033Z" fill="#292927"/>
</g>
</svg>
