<svg preserveAspectRatio="xMidYMid meet" overflow="visible" style="display: block;" viewBox="0 0 24 24" fill="none" xmlns="http://www.w3.org/2000/svg">
<g transform="translate(2.2500, 2.2500)">
<path id="Vector" fill-rule="evenodd" clip-rule="evenodd" d="M18 1.5V18H1.5V1.5H18ZM18.15 19.5C18.8956 19.5 19.5 18.8956 19.5 18.15V1.35C19.5 0.604418 18.8956 0 18.15 0H1.35C0.604418 0 0 0.604414 0 1.35V18.15C0 18.8956 0.604414 19.5 1.35 19.5H18.15ZM7.5 12.4573V7.04211L12.2383 9.74973L7.5 12.4573ZM8.01979 5.61151C7.1198 5.09723 6 5.74708 6 6.78364V12.7158C6 13.7524 7.1198 14.4022 8.01979 13.8879L13.2104 10.9219C14.1174 10.4036 14.1174 9.09586 13.2104 8.5776L8.01979 5.61151Z" fill="#292927"/>
</g>
</svg>
