<svg preserveAspectRatio="xMidYMid meet" overflow="visible" style="display: block;" viewBox="0 0 24 24" fill="none" xmlns="http://www.w3.org/2000/svg">
<g transform="translate(1.2500, 1.2500)">
<path id="Vector" fill-rule="evenodd" clip-rule="evenodd" d="M1.5 10.75C1.5 5.64137 5.64137 1.5 10.75 1.5C15.8586 1.5 20 5.64137 20 10.75C20 15.8586 15.8586 20 10.75 20C5.64137 20 1.5 15.8586 1.5 10.75ZM10.75 0C4.81294 0 0 4.81294 0 10.75C0 16.6871 4.81294 21.5 10.75 21.5C16.6871 21.5 21.5 16.6871 21.5 10.75C21.5 4.81294 16.6871 0 10.75 0ZM14.7803 8.71967L11.2803 5.21967C10.9874 4.92678 10.5126 4.92678 10.2197 5.21967L6.71967 8.71967C6.42678 9.01256 6.42678 9.48744 6.71967 9.78033C7.01256 10.0732 7.48744 10.0732 7.78033 9.78033L10.75 6.81066L13.7197 9.78033C14.0126 10.0732 14.4874 10.0732 14.7803 9.78033C15.0732 9.48744 15.0732 9.01256 14.7803 8.71967ZM10.2197 11.2197L6.71967 14.7197C6.42678 15.0126 6.42678 15.4874 6.71967 15.7803C7.01256 16.0732 7.48744 16.0732 7.78033 15.7803L10.75 12.8107L13.7197 15.7803C14.0126 16.0732 14.4874 16.0732 14.7803 15.7803C15.0732 15.4874 15.0732 15.0126 14.7803 14.7197L11.2803 11.2197C10.9874 10.9268 10.5126 10.9268 10.2197 11.2197Z" fill="#292927"/>
</g>
</svg>
