<svg preserveAspectRatio="xMidYMid meet" overflow="visible" style="display: block;" viewBox="0 0 24 24" fill="none" xmlns="http://www.w3.org/2000/svg">
<g transform="translate(1.2500, 1.2501)">
<path id="Vector" fill-rule="evenodd" clip-rule="evenodd" d="M10.75 1.5C9.60969 1.5 8.51919 1.706 7.51255 2.08216C7.12454 2.22715 6.69246 2.03014 6.54747 1.64214C6.40248 1.25413 6.59948 0.822047 6.98749 0.677056C8.15953 0.23909 9.42771 0 10.75 0C16.6871 0 21.5 4.81294 21.5 10.75C21.5 12.1445 21.2341 13.4788 20.7495 14.7035C20.5971 15.0886 20.1613 15.2773 19.7762 15.1249C19.391 14.9725 19.2023 14.5368 19.3547 14.1516C19.7709 13.0997 20 11.9525 20 10.75C20 5.64137 15.8587 1.5 10.75 1.5ZM2.63654 3.6972C0.994844 5.58441 0 8.05167 0 10.7497C0 16.6867 4.81294 21.4997 10.75 21.4997C13.4479 21.4997 15.9152 20.5049 17.8025 18.8631L19.2197 20.2803C19.5126 20.5732 19.9874 20.5732 20.2803 20.2803C20.5732 19.9874 20.5732 19.5126 20.2803 19.2197L2.28033 1.21967C1.98744 0.926777 1.51256 0.926777 1.21967 1.21967C0.926777 1.51256 0.926777 1.98744 1.21967 2.28033L2.63654 3.6972ZM16.7388 17.7995L13.7405 14.8012C13.1599 15.4343 12.3338 15.7574 11.5 15.8583V17.2496C11.5 17.6638 11.1642 17.9996 10.75 17.9996C10.3358 17.9996 10 17.6638 10 17.2496V15.8147C8.90738 15.6251 7.81954 15.0928 7.14998 14.2C6.90145 13.8687 6.96861 13.3986 7.29998 13.15C7.63135 12.9015 8.10145 12.9687 8.34998 13.3C8.81737 13.9232 9.76075 14.3491 10.7543 14.3906C10.7698 14.3907 10.7851 14.3913 10.8004 14.3923C11.6506 14.4177 12.3201 14.1592 12.6768 13.7374L9.90176 10.9624C9.36073 10.7867 8.76479 10.5428 8.30162 10.1227C7.87306 9.73408 7.58925 9.22335 7.51775 8.57841L3.70017 4.76083C2.32746 6.37497 1.5 8.46492 1.5 10.7497C1.5 15.8583 5.64137 19.9997 10.75 19.9997C13.0349 19.9997 15.1247 19.1722 16.7388 17.7995ZM10.75 3.5C11.1642 3.5 11.5 3.83579 11.5 4.25V5.38088C12.5487 5.55659 13.5979 6.03725 14.2803 6.71967C14.5732 7.01256 14.5732 7.48744 14.2803 7.78033C13.9874 8.07322 13.5126 8.07322 13.2197 7.78033C12.6914 7.2521 11.6786 6.83398 10.7298 6.80845C10.3236 6.79752 10 6.46508 10 6.05872V4.25C10 3.83579 10.3358 3.5 10.75 3.5Z" fill="#292927"/>
</g>
</svg>
