<svg preserveAspectRatio="xMidYMid meet" overflow="visible" style="display: block;" viewBox="0 0 24 24" fill="none" xmlns="http://www.w3.org/2000/svg">
<g transform="translate(1.1336, 1.2500)">
<path id="Vector" fill-rule="evenodd" clip-rule="evenodd" d="M10.75 1.5C10.5531 1.5 10.3576 1.50615 10.1637 1.51828C10.0974 1.61835 10.0158 1.74585 9.92267 1.89952C9.65669 2.33844 9.29818 2.98921 8.9386 3.82232C8.61355 4.57541 8.28868 5.47501 8.03012 6.5H13.4701C13.2115 5.47463 12.8865 4.57471 12.5614 3.82139C12.2018 2.98829 11.8433 2.33751 11.5773 1.89859C11.4845 1.74542 11.403 1.61824 11.3369 1.51832C11.1428 1.50617 10.9471 1.5 10.75 1.5ZM7.5 10.7504C7.5 9.77424 7.58289 8.85444 7.72056 8H13.7796C13.9171 8.85418 14 9.77366 14 10.7495C14 11.1637 14.3358 11.4995 14.75 11.4995C15.1642 11.4995 15.5 11.1637 15.5 10.7495C15.5 9.77886 15.4246 8.85991 15.2974 8H19.5843C19.8545 8.86874 20 9.79238 20 10.75C20 11.1642 20.3358 11.5 20.75 11.5C21.1642 11.5 21.5 11.1642 21.5 10.75C21.5 9.4287 21.2616 8.16307 20.8255 6.99379L20.8208 6.98124C19.417 3.23175 15.9793 0.475537 11.8507 0.0556564C11.8328 0.0532392 11.8149 0.0514606 11.7969 0.0503256C11.4524 0.0170341 11.1032 0 10.75 0C4.81294 0 0 4.81294 0 10.75C0 16.3164 4.23072 20.8946 9.65203 21.4446C9.66808 21.4467 9.68419 21.4483 9.70034 21.4494C10.0457 21.4829 10.3959 21.5 10.75 21.5C11.1642 21.5 11.5 21.1642 11.5 20.75C11.5 20.3358 11.1642 20 10.75 20C10.5529 20 10.3572 19.9938 10.1631 19.9817C10.097 19.8817 10.0155 19.7545 9.92267 19.6013C9.65669 19.1624 9.29818 18.5116 8.9386 17.6785C8.61346 16.9252 8.2885 16.0253 8.02991 15H10.75C11.1642 15 11.5 14.6642 11.5 14.25C11.5 13.8358 11.1642 13.5 10.75 13.5H7.72042C7.58284 12.6458 7.5 11.7263 7.5 10.7504ZM7.5614 3.2279C7.17076 4.13296 6.77991 5.23395 6.48697 6.5H2.532C3.69466 4.25638 5.74916 2.54943 8.22615 1.84851C8.01688 2.2389 7.78896 2.70068 7.5614 3.2279ZM6.20275 8H1.91565C1.64552 8.86874 1.5 9.79238 1.5 10.75C1.5 11.7076 1.64552 12.6313 1.91565 13.5H6.20263C6.07535 12.6401 6 11.7211 6 10.7504C6 9.77944 6.0754 8.86018 6.20275 8ZM18.968 6.5H15.0132C14.7203 5.23356 14.3293 4.13225 13.9386 3.22697C13.7112 2.70024 13.4835 2.23883 13.2744 1.84867C15.7511 2.54969 17.8054 4.25654 18.968 6.5ZM2.532 15H6.48678C6.77974 16.2664 7.17068 17.3677 7.5614 18.2729C7.78877 18.7997 8.0165 19.2612 8.22562 19.6513C5.74887 18.9503 3.69458 17.2435 2.532 15ZM15.704 12.7567C15.2747 12.4926 14.7362 12.4707 14.3123 12.7675C13.8885 13.0643 13.7248 13.5778 13.8262 14.0716L15.0814 20.1876C15.1966 20.7489 15.605 21.1548 16.0718 21.3033C16.555 21.4571 17.2201 21.3421 17.5373 20.7051L18.5068 18.7578L20.6682 18.5128C21.3752 18.4327 21.7108 17.847 21.7316 17.3403C21.7516 16.8509 21.5099 16.3283 21.0218 16.0281L15.704 12.7567ZM16.4687 19.4859L15.4122 14.3383L19.888 17.0917L17.5275 17.3592L16.4687 19.4859Z" fill="#292927"/>
</g>
</svg>
