<svg preserveAspectRatio="xMidYMid meet" overflow="visible" style="display: block;" viewBox="0 0 24 24" fill="none" xmlns="http://www.w3.org/2000/svg">
<g transform="translate(2.7514, 1.2458)">
<path id="Vector" fill-rule="evenodd" clip-rule="evenodd" d="M1.5 1.5V20H7.75C8.16421 20 8.5 20.3358 8.5 20.75C8.5 21.1642 8.16421 21.5 7.75 21.5H1.35C0.604415 21.5 0 20.8956 0 20.15V1.35C0 0.604415 0.604417 0 1.35 0H12.75H13.0015C13.3595 0 13.7029 0.142232 13.9561 0.395406L17.1046 3.54393C17.3578 3.79711 17.5 4.14049 17.5 4.49853V4.75V10.75C17.5 11.1642 17.1642 11.5 16.75 11.5C16.3358 11.5 16 11.1642 16 10.75V5.5H13.35C12.6044 5.5 12 4.89558 12 4.15V1.5H1.5ZM13.5 2.06066V4H15.4393L13.5 2.06066ZM14.25 15.0889L13.7339 16.1832C13.6275 16.4089 13.4157 16.5669 13.169 16.6046L11.9457 16.7918L12.8528 17.7165C13.0201 17.8871 13.0962 18.1272 13.0575 18.363L12.8508 19.6243L13.8884 19.0533C14.1135 18.9293 14.3865 18.9293 14.6116 19.0533L15.6492 19.6243L15.4425 18.363C15.4038 18.1272 15.4799 17.8871 15.6472 17.7165L16.5543 16.7918L15.331 16.6046C15.0843 16.5669 14.8725 16.4089 14.7661 16.1832L14.25 15.0889ZM13.2864 13.6157C13.6735 12.7948 14.8265 12.7948 15.2136 13.6157L15.9525 15.1822L17.5909 15.4329C18.5017 15.5722 18.7731 16.6719 18.1889 17.2675L16.9842 18.4955L17.2699 20.2387C17.4026 21.0485 16.5576 21.8365 15.7064 21.368L14.25 20.5664L12.7936 21.368C11.9424 21.8365 11.0974 21.0485 11.2301 20.2387L11.5158 18.4955L10.3111 17.2675C9.72687 16.6719 9.99826 15.5722 10.9091 15.4329L12.5475 15.1822L13.2864 13.6157Z" fill="#292927"/>
</g>
</svg>
