<svg preserveAspectRatio="xMidYMid meet" overflow="visible" style="display: block;" viewBox="0 0 24 24" fill="none" xmlns="http://www.w3.org/2000/svg">
<g transform="translate(2.4681, 5.0575)">
<path id="Vector" fill-rule="evenodd" clip-rule="evenodd" d="M13.8593 2.02043C13.4816 2.34091 13.2093 2.82883 13.2093 3.54422C13.2093 3.95843 12.8735 4.29422 12.4593 4.29422C12.045 4.29422 11.7093 3.95843 11.7093 3.54422C11.7093 2.39679 12.1688 1.48759 12.8888 0.876669C13.5925 0.27958 14.5041 -2.44374e-06 15.3865 0C16.269 2.44384e-06 17.1805 0.279589 17.8843 0.87668C18.6043 1.4876 19.0638 2.3968 19.0638 3.54422C19.0638 4.35039 18.8575 4.96218 18.522 5.46545C18.2391 5.88988 17.8713 6.21811 17.5779 6.48004L17.5777 6.48023C17.5458 6.50867 17.5148 6.53632 17.4849 6.56323C17.1576 6.8578 16.9059 7.10483 16.7211 7.43132C16.5437 7.74484 16.4026 8.17979 16.4026 8.86645C16.4026 9.28067 16.0669 9.61645 15.6526 9.61645C15.2384 9.61645 14.9026 9.28067 14.9026 8.86645C14.9026 7.95643 15.0943 7.26039 15.4158 6.69242C15.7299 6.13742 16.1435 5.75244 16.4815 5.44827L16.5599 5.37786L16.5599 5.37784C16.8778 5.09233 17.1025 4.89058 17.274 4.63339C17.4374 4.38823 17.5638 4.06863 17.5638 3.54422C17.5638 2.82884 17.2915 2.34092 16.9138 2.02044C16.5198 1.68612 15.9677 1.5 15.3865 1.5C14.8054 1.5 14.2533 1.68612 13.8593 2.02043ZM6.07249 0.665039C6.36659 0.665039 6.63356 0.836941 6.75526 1.10469L12.0776 12.8138C12.249 13.1908 12.0822 13.6355 11.7051 13.8069C11.3281 13.9783 10.8834 13.8115 10.712 13.4345L9.84739 11.5323H2.29758L1.43296 13.4345C1.26156 13.8115 0.816917 13.9783 0.439831 13.8069C0.0627452 13.6355 -0.103994 13.1908 0.0674087 12.8138L5.38971 1.10469C5.51141 0.836941 5.77838 0.665039 6.07249 0.665039ZM2.9794 10.0323H9.16558L6.07249 3.2275L2.9794 10.0323ZM16.2207 13.6248C16.4978 13.3169 16.4729 12.8427 16.165 12.5656C15.8571 12.2885 15.3829 12.3134 15.1058 12.6213L15.0952 12.6332C14.8181 12.941 14.843 13.4153 15.1509 13.6924C15.4588 13.9694 15.933 13.9445 16.2101 13.6366L16.2207 13.6248Z" fill="#292927"/>
</g>
</svg>
