<svg preserveAspectRatio="xMidYMid meet" overflow="visible" style="display: block;" viewBox="0 0 24 24" fill="none" xmlns="http://www.w3.org/2000/svg">
<g transform="translate(2.2500, 2.2500)">
<path id="Vector" fill-rule="evenodd" clip-rule="evenodd" d="M1.5 18V1.5H18V18H1.5ZM1.35 0C0.604417 0 0 0.604415 0 1.35V18.15C0 18.8956 0.604415 19.5 1.35 19.5H18.15C18.8956 19.5 19.5 18.8956 19.5 18.15V1.35C19.5 0.604417 18.8956 0 18.15 0H1.35ZM9.21967 4.21967C9.51256 3.92678 9.98744 3.92678 10.2803 4.21967L13.7803 7.71967C14.0732 8.01256 14.0732 8.48744 13.7803 8.78033C13.4874 9.07322 13.0126 9.07322 12.7197 8.78033L9.75 5.81066L6.78033 8.78033C6.48744 9.07322 6.01256 9.07322 5.71967 8.78033C5.42678 8.48744 5.42678 8.01256 5.71967 7.71967L9.21967 4.21967ZM10.2803 10.2197L13.7803 13.7197C14.0732 14.0126 14.0732 14.4874 13.7803 14.7803C13.4874 15.0732 13.0126 15.0732 12.7197 14.7803L9.75 11.8107L6.78033 14.7803C6.48744 15.0732 6.01256 15.0732 5.71967 14.7803C5.42678 14.4874 5.42678 14.0126 5.71967 13.7197L9.21967 10.2197C9.51256 9.92678 9.98744 9.92678 10.2803 10.2197Z" fill="#292927"/>
</g>
</svg>
