<svg preserveAspectRatio="xMidYMid meet" overflow="visible" style="display: block;" viewBox="0 0 24 24" fill="none" xmlns="http://www.w3.org/2000/svg">
<g transform="translate(2.0680, 1.5681)">
<path id="Vector" fill-rule="evenodd" clip-rule="evenodd" d="M12 3.29057L7.5 1.79057V16.2094L12 17.7094V3.29057ZM6 16.2094V1.79057L1.5 3.29057V17.7094L6 16.2094ZM6.75 17.5406L1.77691 19.1983C0.902741 19.4897 0 18.839 0 17.9175V3.18246C0 2.60137 0.371832 2.08549 0.923093 1.90173L6.51283 0.0384876C6.66678 -0.0128292 6.83322 -0.0128292 6.98717 0.0384876L12.5769 1.90173C12.6309 1.91972 12.6831 1.94088 12.7334 1.96498L17.7231 0.301758C18.5973 0.0103689 19.5 0.661027 19.5 1.58248V12.75C19.5 13.1642 19.1642 13.5 18.75 13.5C18.3358 13.5 18 13.1642 18 12.75V1.79059L13.5 3.29059V17.9175C13.5 18.839 12.5973 19.4897 11.7231 19.1983L6.75 17.5406ZM15.4017 15.3408C15.1088 15.0479 14.6339 15.0479 14.341 15.3408C14.0481 15.6337 14.0481 16.1085 14.341 16.4014L15.932 17.9924L14.341 19.5834C14.0481 19.8763 14.0481 20.3512 14.341 20.6441C14.6339 20.937 15.1088 20.937 15.4017 20.6441L16.9927 19.0531L18.5836 20.6441C18.8765 20.937 19.3514 20.937 19.6443 20.6441C19.9372 20.3512 19.9372 19.8763 19.6443 19.5834L18.0533 17.9924L19.6443 16.4014C19.9372 16.1085 19.9372 15.6337 19.6443 15.3408C19.3514 15.0479 18.8765 15.0479 18.5836 15.3408L16.9927 16.9318L15.4017 15.3408Z" fill="#292927"/>
</g>
</svg>
