<svg preserveAspectRatio="xMidYMid meet" overflow="visible" style="display: block;" viewBox="0 0 24 24" fill="none" xmlns="http://www.w3.org/2000/svg">
<g transform="translate(5.2500, 1.2500)">
<path id="Vector" fill-rule="evenodd" clip-rule="evenodd" d="M6.21967 0.21967C6.51256 -0.0732233 6.98744 -0.0732233 7.28033 0.21967L10.2803 3.21967C10.5732 3.51256 10.5732 3.98744 10.2803 4.28033C9.98744 4.57322 9.51256 4.57322 9.21967 4.28033L7.5 2.56066V8.0412C10.875 8.41428 13.5 11.2756 13.5 14.75C13.5 18.4779 10.4779 21.5 6.75 21.5C3.02208 21.5 0 18.4779 0 14.75C0 11.2756 2.62504 8.41428 6 8.0412V2.56066L4.28033 4.28033C3.98744 4.57322 3.51256 4.57322 3.21967 4.28033C2.92678 3.98744 2.92678 3.51256 3.21967 3.21967L6.21967 0.21967ZM6.75 9.5C3.85051 9.5 1.5 11.8505 1.5 14.75C1.5 17.6495 3.85051 20 6.75 20C9.6495 20 12 17.6495 12 14.75C12 11.8505 9.6495 9.5 6.75 9.5Z" fill="#292927"/>
</g>
</svg>
