<svg preserveAspectRatio="xMidYMid meet" overflow="visible" style="display: block;" viewBox="0 0 24 24" fill="none" xmlns="http://www.w3.org/2000/svg">
<g transform="translate(1.2500, 2.2500)">
<path id="Vector" fill-rule="evenodd" clip-rule="evenodd" d="M1.5 14V1.5H20V14H1.5ZM1.35 0C0.604417 0 0 0.604415 0 1.35V14.15C0 14.8956 0.604415 15.5 1.35 15.5H20.15C20.8956 15.5 21.5 14.8956 21.5 14.15V1.35C21.5 0.604417 20.8956 0 20.15 0H1.35ZM0 18.75C0 18.3358 0.335786 18 0.75 18L15.75 18C16.1642 18 16.5 18.3358 16.5 18.75C16.5 19.1642 16.1642 19.5 15.75 19.5L0.75 19.5C0.335787 19.5 0 19.1642 0 18.75ZM19 18.75C19 18.3358 19.3358 18 19.75 18H20.75C21.1642 18 21.5 18.3358 21.5 18.75C21.5 19.1642 21.1642 19.5 20.75 19.5H19.75C19.3358 19.5 19 19.1642 19 18.75Z" fill="#292927"/>
</g>
</svg>
