<svg preserveAspectRatio="xMidYMid meet" overflow="visible" style="display: block;" viewBox="0 0 24 24" fill="none" xmlns="http://www.w3.org/2000/svg">
<g transform="translate(1.2500, 1.7500)">
<path id="Vector" fill-rule="evenodd" clip-rule="evenodd" d="M11.5 4.75V1.52997C13.9895 1.72972 16.2009 2.91515 17.7436 4.69571L15.7197 6.71967C15.4268 7.01256 15.4268 7.48744 15.7197 7.78033C16.0126 8.07322 16.4874 8.07322 16.7803 7.78033L18.6405 5.92018C19.5028 7.32597 20 8.97993 20 10.75C20 11.5263 19.9045 12.2799 19.7246 13H16.75C16.3358 13 16 13.3358 16 13.75C16 14.1642 16.3358 14.5 16.75 14.5H19.2085C18.974 15.0282 18.6914 15.5303 18.3663 16.0009L14.425 16C14.1348 14.5704 13.0313 13.4361 11.6185 13.1011L12.4898 7.87342C12.5579 7.46484 12.2819 7.07842 11.8733 7.01032C11.4647 6.94223 11.0783 7.21824 11.0102 7.62682L10.1055 13.0552C8.58592 13.3184 7.37986 14.4962 7.07482 16.001H3.13378C2.80865 15.5304 2.52604 15.0282 2.29149 14.5H4.75C5.16421 14.5 5.5 14.1642 5.5 13.75C5.5 13.3358 5.16421 13 4.75 13H1.77539C1.59549 12.2799 1.5 11.5263 1.5 10.75C1.5 8.97993 1.99718 7.32597 2.85952 5.92018L4.71967 7.78033C5.01256 8.07322 5.48744 8.07322 5.78033 7.78033C6.07322 7.48744 6.07322 7.01256 5.78033 6.71967L3.75637 4.69571C5.29913 2.91515 7.51052 1.72972 10 1.52997V4.75C10 5.16421 10.3358 5.5 10.75 5.5C11.1642 5.5 11.5 5.16421 11.5 4.75ZM7.07521 17.501H2.75C2.51415 17.501 2.29205 17.39 2.15038 17.2015C0.80032 15.4046 0 13.1697 0 10.75C0 4.81294 4.81294 0 10.75 0C16.6871 0 21.5 4.81294 21.5 10.75C21.5 13.1697 20.6997 15.4046 19.3496 17.2015C19.2079 17.3901 18.9857 17.501 18.7498 17.501L14.425 17.5C14.0775 19.2117 12.5642 20.5 10.75 20.5C8.93613 20.5 7.42304 19.2122 7.07521 17.501ZM10.7345 14.5001C9.49898 14.5084 8.5 15.5125 8.5 16.75C8.5 17.9926 9.50736 19 10.75 19C11.9926 19 13 17.9926 13 16.75C13 15.513 12.0018 14.5091 10.7669 14.5001C10.7561 14.5003 10.7453 14.5003 10.7345 14.5001Z" fill="#292927"/>
</g>
</svg>
