<svg preserveAspectRatio="xMidYMid meet" overflow="visible" style="display: block;" viewBox="0 0 24 24" fill="none" xmlns="http://www.w3.org/2000/svg">
<g transform="translate(2.1893, 2.1893)">
<path id="Vector" fill-rule="evenodd" clip-rule="evenodd" d="M11.5 18.75C11.5 19.1642 11.1642 19.5 10.75 19.5H1.35C0.604414 19.5 0 18.8956 0 18.15V1.35C0 0.604414 0.604418 0 1.35 0H18.15C18.8956 0 19.5 0.604418 19.5 1.35V10.75C19.5 11.1642 19.1642 11.5 18.75 11.5C18.3358 11.5 18 11.1642 18 10.75V1.5H1.5V18H10.75C11.1642 18 11.5 18.3358 11.5 18.75ZM14.0983 14.0983C14.3912 13.8055 14.8661 13.8055 15.159 14.0983L16.75 15.6893L18.341 14.0983C18.6339 13.8055 19.1087 13.8055 19.4016 14.0983C19.6945 14.3912 19.6945 14.8661 19.4016 15.159L17.8106 16.75L19.4016 18.341C19.6945 18.6339 19.6945 19.1088 19.4016 19.4016C19.1087 19.6945 18.6339 19.6945 18.341 19.4016L16.75 17.8107L15.159 19.4016C14.8661 19.6945 14.3912 19.6945 14.0983 19.4016C13.8054 19.1088 13.8054 18.6339 14.0983 18.341L15.6893 16.75L14.0983 15.159C13.8054 14.8661 13.8054 14.3912 14.0983 14.0983ZM7.5 12.4573V7.04211L12.2383 9.74973L7.5 12.4573ZM8.01979 5.61151C7.1198 5.09723 6 5.74708 6 6.78364V12.7158C6 13.7524 7.1198 14.4022 8.01979 13.8879L13.2104 10.9219C14.1174 10.4036 14.1174 9.09586 13.2104 8.5776L8.01979 5.61151Z" fill="#292927"/>
</g>
</svg>
