<svg preserveAspectRatio="xMidYMid meet" overflow="visible" style="display: block;" viewBox="0 0 24 24" fill="none" xmlns="http://www.w3.org/2000/svg">
<g transform="translate(4.2842, 2.2500)">
<path id="Vector" fill-rule="evenodd" clip-rule="evenodd" d="M1.50861 1.5L1.67527 4.5H2.21576C2.90612 4.5 3.46576 3.94036 3.46576 3.25V1.5H1.50861ZM2.42527 18L1.75861 6H2.21576C3.73454 6 4.96576 4.76878 4.96576 3.25V1.5H10.4658V3.25C10.4658 4.76878 11.697 6 13.2158 6H13.673L13.0063 18H10.3827L9.05654 6.72744C8.86951 5.13773 6.56205 5.13777 6.37503 6.72744L5.04885 18H2.42527ZM13.7563 4.5L13.923 1.5H11.9658V3.25C11.9658 3.94036 12.5254 4.5 13.2158 4.5H13.7563ZM0.0021214 1.42488C-0.0408687 0.651061 0.575029 0 1.35004 0H14.0815C14.8565 0 15.4724 0.651063 15.4294 1.42488L14.4961 18.2249C14.4564 18.9403 13.8647 19.5 13.1482 19.5H10.2493C9.56477 19.5 8.98857 18.9876 8.90858 18.3077L7.71578 8.16897L6.52299 18.3077C6.443 18.9876 5.8668 19.5 5.18223 19.5H2.28338C1.56689 19.5 0.975199 18.9403 0.935455 18.2249L0.0021214 1.42488Z" fill="#292927"/>
</g>
</svg>
