<svg preserveAspectRatio="xMidYMid meet" overflow="visible" style="display: block;" viewBox="0 0 24 24" fill="none" xmlns="http://www.w3.org/2000/svg">
<g transform="translate(1.2500, 1.2500)">
<path id="Vector" fill-rule="evenodd" clip-rule="evenodd" d="M20 10.75C20 5.64137 15.8586 1.5 10.75 1.5C5.64137 1.5 1.5 5.64137 1.5 10.75C1.5 15.8586 5.64137 20 10.75 20C15.8586 20 20 15.8586 20 10.75ZM10.75 0C16.6871 0 21.5 4.81294 21.5 10.75C21.5 16.6871 16.6871 21.5 10.75 21.5C4.81294 21.5 0 16.6871 0 10.75C0 4.81294 4.81294 0 10.75 0ZM15.3478 7.48205C15.774 8.32612 16 9.40034 16 10.7497C16 12.099 15.774 13.1733 15.3478 14.0173C14.9158 14.8728 14.2975 15.4528 13.5868 15.832C12.246 16.5477 10.5988 16.5238 9.40294 16.5066L9.33852 16.5056C8.60324 16.4951 8.00003 15.8991 8.00003 15.1517L8.00004 11.5H6.75C6.33579 11.5 6 11.1642 6 10.75C6 10.3358 6.33579 10 6.75 10H8.00004L8.00005 6.34798C8.00004 5.60053 8.60324 5.00448 9.33854 4.99399L9.40315 4.99306C10.599 4.97575 12.246 4.95191 13.5868 5.66744C14.2975 6.04669 14.9158 6.62664 15.3478 7.48205ZM9.50003 15.0077L9.50004 11.5H10.75C11.1642 11.5 11.5 11.1642 11.5 10.75C11.5 10.3358 11.1642 10 10.75 10H9.50004L9.50005 6.49194C10.7416 6.47622 11.9529 6.49571 12.8806 6.99079C13.3338 7.23265 13.7236 7.59341 14.0088 8.15822C14.2998 8.73437 14.5 9.55988 14.5 10.7497C14.5 11.9395 14.2998 12.765 14.0088 13.3412C13.7236 13.906 13.3338 14.2668 12.8806 14.5087C11.9528 15.0038 10.7416 15.0234 9.50003 15.0077Z" fill="#292927"/>
</g>
</svg>
