<svg preserveAspectRatio="xMidYMid meet" overflow="visible" style="display: block;" viewBox="0 0 24 24" fill="none" xmlns="http://www.w3.org/2000/svg">
<g transform="translate(3.2500, 2.2500)">
<path id="Vector" fill-rule="evenodd" clip-rule="evenodd" d="M8.21967 0.21967C8.51256 -0.0732233 8.98744 -0.0732233 9.28033 0.21967L12.7803 3.71967C13.0732 4.01256 13.0732 4.48744 12.7803 4.78033C12.4874 5.07322 12.0126 5.07322 11.7197 4.78033L9.5 2.56066V12.75C9.5 13.1642 9.16421 13.5 8.75 13.5C8.33579 13.5 8 13.1642 8 12.75V2.56066L5.78033 4.78033C5.48744 5.07322 5.01256 5.07322 4.71967 4.78033C4.42678 4.48744 4.42678 4.01256 4.71967 3.71967L8.21967 0.21967ZM1.5 10.75C1.5 10.3358 1.16421 10 0.75 10C0.335786 10 0 10.3358 0 10.75V16.75C0 18.2688 1.23122 19.5 2.75 19.5H14.75C16.2688 19.5 17.5 18.2688 17.5 16.75V10.75C17.5 10.3358 17.1642 10 16.75 10C16.3358 10 16 10.3358 16 10.75V16.75C16 17.4404 15.4404 18 14.75 18H2.75C2.05964 18 1.5 17.4404 1.5 16.75V10.75Z" fill="#292927"/>
</g>
</svg>
