<svg preserveAspectRatio="xMidYMid meet" overflow="visible" style="display: block;" viewBox="0 0 24 24" fill="none" xmlns="http://www.w3.org/2000/svg">
<g transform="translate(1.2500, 1.2500)">
<path id="Vector" fill-rule="evenodd" clip-rule="evenodd" d="M10.75 0C4.81294 0 0 4.81294 0 10.75C0 16.687 4.81293 21.5 10.75 21.5C16.687 21.5 21.5 16.687 21.5 10.75C21.5 4.81293 16.687 0 10.75 0ZM1.5 10.75C1.5 5.64136 5.64136 1.5 10.75 1.5C15.8586 1.5 20 5.64137 20 10.75C20 15.8586 15.8586 20 10.75 20C5.64137 20 1.5 15.8586 1.5 10.75ZM10.2803 6.71967C9.98744 6.42678 9.51256 6.42678 9.21967 6.71967C8.92678 7.01256 8.92678 7.48744 9.21967 7.78033L12.1893 10.75L9.21967 13.7197C8.92678 14.0126 8.92678 14.4874 9.21967 14.7803C9.51256 15.0732 9.98744 15.0732 10.2803 14.7803L13.7803 11.2803C14.0732 10.9874 14.0732 10.5126 13.7803 10.2197L10.2803 6.71967Z" fill="#292927"/>
</g>
</svg>
