<svg preserveAspectRatio="xMidYMid meet" overflow="visible" style="display: block;" viewBox="0 0 24 24" fill="none" xmlns="http://www.w3.org/2000/svg">
<g transform="translate(2.7500, 3.1042)">
<path id="Vector" fill-rule="evenodd" clip-rule="evenodd" d="M14.5 1.75292C14.5 0.359233 12.9502 -0.475258 11.7867 0.291909L5.78762 4.24735C5.74677 4.27428 5.69892 4.28863 5.65 4.28863H2.75C1.23122 4.28863 0 5.51985 0 7.03863V10.7529C0 12.2717 1.23122 13.5029 2.75 13.5029H5.65C5.69892 13.5029 5.74677 13.5173 5.78762 13.5442L11.7867 17.4996C12.9502 18.2668 14.5 17.4323 14.5 16.0386V1.75292ZM12.6124 1.5442C12.7786 1.43461 13 1.55382 13 1.75292V16.0386C13 16.2377 12.7786 16.3569 12.6124 16.2473L6.6133 12.2919C6.3274 12.1034 5.99246 12.0029 5.65 12.0029H2.75C2.05964 12.0029 1.5 11.4433 1.5 10.7529V7.03863C1.5 6.34828 2.05964 5.78863 2.75 5.78863H5.65C5.99246 5.78863 6.3274 5.68815 6.6133 5.49964L12.6124 1.5442ZM18.5 5.896C18.5 5.48178 18.1642 5.146 17.75 5.146C17.3358 5.146 17 5.48178 17 5.896V11.896C17 12.3102 17.3358 12.646 17.75 12.646C18.1642 12.646 18.5 12.3102 18.5 11.896V5.896Z" fill="#292927"/>
</g>
</svg>
