<svg preserveAspectRatio="xMidYMid meet" overflow="visible" style="display: block;" viewBox="0 0 24 24" fill="none" xmlns="http://www.w3.org/2000/svg">
<g transform="translate(1.7500, 3.1042)">
<path id="Vector" fill-rule="evenodd" clip-rule="evenodd" d="M14.5 1.75292C14.5 0.359233 12.9502 -0.475258 11.7867 0.291909L5.78762 4.24735C5.74677 4.27428 5.69892 4.28863 5.65 4.28863H2.75C1.23122 4.28863 0 5.51985 0 7.03863V10.7529C0 12.2717 1.23122 13.5029 2.75 13.5029H5.65C5.69892 13.5029 5.74677 13.5173 5.78762 13.5442L11.7867 17.4996C12.9502 18.2668 14.5 17.4323 14.5 16.0386V1.75292ZM12.6124 1.5442C12.7786 1.43461 13 1.55382 13 1.75292V16.0386C13 16.2377 12.7786 16.3569 12.6124 16.2473L6.6133 12.2919C6.3274 12.1034 5.99246 12.0029 5.65 12.0029H2.75C2.05964 12.0029 1.5 11.4433 1.5 10.7529V7.03863C1.5 6.34828 2.05964 5.78863 2.75 5.78863H5.65C5.99246 5.78863 6.3274 5.68815 6.6133 5.49964L12.6124 1.5442ZM18.7803 3.86567C18.4874 3.57277 18.0126 3.57277 17.7197 3.86567C17.4276 4.1577 17.4268 4.63064 17.7171 4.92373L17.7224 4.92926C17.7286 4.93577 17.7397 4.94776 17.7552 4.96508C17.7862 4.99976 17.8342 5.05562 17.8937 5.13166C18.013 5.28408 18.1767 5.5154 18.3416 5.81764C18.6714 6.42236 19 7.29937 19 8.396C19 9.49263 18.6714 10.3696 18.3416 10.9744C18.1767 11.2766 18.013 11.5079 17.8937 11.6603C17.8342 11.7364 17.7862 11.7922 17.7552 11.8269C17.7397 11.8442 17.7286 11.8562 17.7224 11.8627L17.7182 11.8671L17.7174 11.868L17.7173 11.8681L17.7171 11.8683C17.4268 12.1614 17.4276 12.6343 17.7197 12.9263C18.0126 13.2192 18.4874 13.2192 18.7803 12.9263L18.2707 12.4167C18.7803 12.9263 18.7806 12.9261 18.7808 12.9259L18.7813 12.9254L18.7823 12.9243L18.7849 12.9217L18.7916 12.9149L18.8113 12.8943C18.8271 12.8777 18.8482 12.855 18.8737 12.8264C18.9247 12.7693 18.9939 12.6884 19.075 12.5848C19.237 12.3778 19.4483 12.0779 19.6584 11.6926C20.0786 10.9224 20.5 9.79937 20.5 8.396C20.5 6.99263 20.0786 5.86964 19.6584 5.09936C19.4483 4.7141 19.237 4.41416 19.075 4.2072C18.9939 4.10356 18.9247 4.0227 18.8737 3.96558C18.8482 3.93701 18.8271 3.91432 18.8113 3.89764L18.7916 3.87712L18.7849 3.87026L18.7823 3.86768L18.7813 3.8666L18.7808 3.86612C18.7806 3.86589 18.7803 3.86567 18.25 4.396L18.7803 3.86567ZM17.7197 11.8657L17.7193 11.8661C17.7195 11.8659 17.7197 11.8657 18.25 12.396L17.7197 11.8657Z" fill="#292927"/>
</g>
</svg>
