<svg preserveAspectRatio="xMidYMid meet" overflow="visible" style="display: block;" viewBox="0 0 24 24" fill="none" xmlns="http://www.w3.org/2000/svg">
<g transform="translate(2.2500, 2.2500)">
<path id="Vector" fill-rule="evenodd" clip-rule="evenodd" d="M1.5 18V1.5H18V18H1.5ZM1.35 0C0.604417 0 0 0.604415 0 1.35V18.15C0 18.8956 0.604415 19.5 1.35 19.5H18.15C18.8956 19.5 19.5 18.8956 19.5 18.15V1.35C19.5 0.604417 18.8956 0 18.15 0H1.35ZM12 5.75004C12 5.43304 11.8007 5.15027 11.5021 5.04369C11.2036 4.93712 10.8703 5.02976 10.6695 5.27511L6.16952 10.7751C5.98602 10.9994 5.94814 11.3093 6.07224 11.5712C6.19634 11.8331 6.4602 12 6.74999 12H10.5V13.75C10.5 14.1643 10.8358 14.5 11.25 14.5C11.6642 14.5 12 14.1643 12 13.75V12H12.75C13.1642 12 13.5 11.6643 13.5 11.25C13.5 10.8358 13.1642 10.5 12.75 10.5H12V5.75004ZM10.5 7.8511V10.5H8.33267L10.5 7.8511Z" fill="#292927"/>
</g>
</svg>
