<svg preserveAspectRatio="xMidYMid meet" overflow="visible" style="display: block;" viewBox="0 0 24 24" fill="none" xmlns="http://www.w3.org/2000/svg">
<g transform="translate(1.3476, 1.4217)">
<path id="Vector" fill-rule="evenodd" clip-rule="evenodd" d="M2.61836 2.98023e-07L6.36928 0C6.68165 0 6.96131 0.193609 7.07127 0.485986L8.52671 4.35588C8.57489 4.48398 8.58709 4.62281 8.56201 4.75735L7.83273 8.66931C8.72909 10.7773 10.2097 12.1939 12.6654 13.4646L16.5303 12.7157C16.6675 12.6891 16.8095 12.7014 16.9401 12.7512L20.8218 14.2304C21.1126 14.3412 21.3048 14.62 21.3048 14.9312L21.3048 18.5155C21.3048 20.141 19.8726 21.4601 18.1973 21.0956C15.1437 20.4311 9.48643 18.7423 5.52443 14.7803C1.72929 10.9852 0.457748 5.74252 0.0297136 2.90869C-0.214521 1.29172 1.08228 4.17233e-07 2.61836 2.98023e-07ZM5.85006 1.5L2.61836 1.5C1.89934 1.5 1.42032 2.07183 1.51289 2.68467C1.92567 5.41748 3.13329 10.2679 6.58509 13.7197C10.2335 17.3681 15.5373 18.9817 18.5162 19.6299C19.1705 19.7722 19.8048 19.274 19.8048 18.5155L19.8048 15.448L16.6057 14.229L12.6974 14.9863C12.5348 15.0178 12.3664 14.9946 12.2183 14.9203C9.32408 13.4676 7.44514 11.7454 6.35841 9.02854C6.30561 8.89656 6.29141 8.75229 6.31747 8.61255L7.04908 4.6881L5.85006 1.5Z" fill="#292927"/>
</g>
</svg>
