<svg preserveAspectRatio="xMidYMid meet" overflow="visible" style="display: block;" viewBox="0 0 24 24" fill="none" xmlns="http://www.w3.org/2000/svg">
<g transform="translate(1.8237, 1.8228)">
<path id="Vector" fill-rule="evenodd" clip-rule="evenodd" d="M18.4832 3.63719C18.6465 3.47388 18.8759 3.39492 19.1051 3.42314C19.3343 3.45136 19.5378 3.58361 19.6566 3.78165C20.3011 4.85586 20.4725 6.28854 20.2754 7.64471C20.0772 9.00902 19.4909 10.4076 18.4832 11.4154C16.603 13.2956 13.7117 13.5349 11.4327 12.8108L4.69454 19.5489C3.6206 20.6229 1.8794 20.6229 0.805456 19.5489C-0.268486 18.475 -0.268485 16.7338 0.805456 15.6598L7.54267 8.92262C6.81746 6.64322 7.05627 3.75037 8.93722 1.86942C9.94496 0.861681 11.3436 0.275379 12.7079 0.0771498C14.064 -0.119896 15.4967 0.0514453 16.5709 0.695973C16.769 0.814797 16.9012 1.01823 16.9294 1.24746C16.9577 1.47668 16.8787 1.70612 16.7154 1.86942L13.8667 4.71807L13.6901 6.66247L15.6345 6.48584L18.4832 3.63719ZM9.15353 9.18983C9.13774 9.35756 9.06562 9.52099 8.93718 9.64943L1.86612 16.7205C1.37796 17.2087 1.37796 18.0001 1.86612 18.4883C2.35427 18.9764 3.14573 18.9764 3.63388 18.4883L10.6726 11.4495C10.8752 11.2198 11.2073 11.1292 11.509 11.2474C13.4766 12.0185 15.9559 11.8214 17.4225 10.3547C18.1543 9.62293 18.6286 8.54666 18.791 7.42903C18.8913 6.73889 18.8669 6.07485 18.7372 5.50449L16.5031 7.73852C16.3791 7.8626 16.2154 7.93924 16.0407 7.95512L12.9296 8.23773C12.708 8.25787 12.4888 8.17852 12.3314 8.02114C12.1741 7.86376 12.0947 7.64461 12.1149 7.42295L12.3975 4.31192C12.4133 4.13716 12.49 3.97351 12.6141 3.84944L14.8481 1.6154C14.2777 1.48566 13.6137 1.46129 12.9236 1.56156C11.8059 1.72395 10.7297 2.19831 9.99788 2.93008C8.53123 4.39673 8.33403 6.87602 9.10517 8.84359C9.14984 8.95755 9.1647 9.07583 9.15353 9.18983Z" fill="#292927"/>
</g>
</svg>
