<svg preserveAspectRatio="xMidYMid meet" overflow="visible" style="display: block;" viewBox="0 0 24 24" fill="none" xmlns="http://www.w3.org/2000/svg">
<g transform="translate(1.2500, 1.2500)">
<path id="Vector" fill-rule="evenodd" clip-rule="evenodd" d="M1.5 10.75C1.5 5.64137 5.64137 1.5 10.75 1.5C11.0627 1.5 11.3716 1.51549 11.6759 1.54571C12.0881 1.58663 12.4554 1.28566 12.4963 0.873475C12.5373 0.461289 12.2363 0.0939692 11.8241 0.0530448C11.4706 0.0179481 11.1123 0 10.75 0C4.81294 0 0 4.81294 0 10.75C0 12.6063 0.471126 14.3546 1.30076 15.8798L0.512671 20.1127C0.467419 20.3558 0.544853 20.6055 0.71967 20.7803C0.894487 20.9551 1.14423 21.0326 1.38728 20.9873L5.62016 20.1992C7.14536 21.0289 8.89369 21.5 10.75 21.5C16.6871 21.5 21.5 16.6871 21.5 10.75C21.5 10.3877 21.4821 10.0294 21.447 9.6759C21.406 9.26371 21.0387 8.96274 20.6265 9.00367C20.2143 9.04459 19.9134 9.41191 19.9543 9.8241C19.9845 10.1284 20 10.4373 20 10.75C20 15.8586 15.8586 20 10.75 20C9.06393 20 7.48533 19.5496 6.12554 18.763C5.9706 18.6733 5.7887 18.6421 5.61272 18.6748L2.18742 19.3126L2.82515 15.8873C2.85792 15.7113 2.82666 15.5294 2.73703 15.3745C1.95043 14.0147 1.5 12.4361 1.5 10.75ZM16.75 0C17.1642 0 17.5 0.335786 17.5 0.75V3.75C17.5 4.16421 17.1642 4.5 16.75 4.5C16.3358 4.5 16 4.16421 16 3.75V0.75C16 0.335786 16.3358 0 16.75 0ZM17.2617 7.19156C17.5696 7.46865 17.5946 7.94287 17.3175 8.25075L17.3075 8.26186C17.0304 8.56975 16.5562 8.59471 16.2483 8.31761C15.9404 8.04052 15.9154 7.5663 16.1925 7.25842L16.2025 7.24731C16.4796 6.93942 16.9538 6.91446 17.2617 7.19156Z" fill="#292927"/>
</g>
</svg>
