<svg preserveAspectRatio="xMidYMid meet" overflow="visible" style="display: block;" viewBox="0 0 24 24" fill="none" xmlns="http://www.w3.org/2000/svg">
<g transform="translate(2.2500, 2.2500)">
<path id="Vector" fill-rule="evenodd" clip-rule="evenodd" d="M1.5 18V1.5H18V18H1.5ZM1.35 0C0.604417 0 0 0.604415 0 1.35V18.15C0 18.8956 0.604415 19.5 1.35 19.5H18.15C18.8956 19.5 19.5 18.8956 19.5 18.15V1.35C19.5 0.604417 18.8956 0 18.15 0H1.35ZM7.5 9.75C7.5 9.66604 7.50235 9.58268 7.50697 9.5H11.75C12.1642 9.5 12.5 9.16421 12.5 8.75C12.5 8.33579 12.1642 8 11.75 8H7.86367C8.51283 6.51931 9.95971 5.5 11.6196 5.5C12.2639 5.5 12.8722 5.65209 13.4144 5.92337C13.7848 6.10872 14.2354 5.95868 14.4207 5.58825C14.6061 5.21782 14.456 4.76727 14.0856 4.58192C13.3407 4.20923 12.5032 4 11.6196 4C9.0999 4 6.98713 5.68891 6.26554 8H5.75C5.33579 8 5 8.33579 5 8.75C5 9.16421 5.33579 9.5 5.75 9.5H6.00524C6.00176 9.58291 6 9.66626 6 9.75C6 9.83374 6.00176 9.91709 6.00524 10H5.75C5.33579 10 5 10.3358 5 10.75C5 11.1642 5.33579 11.5 5.75 11.5H6.26554C6.98713 13.8111 9.0999 15.5 11.6196 15.5C12.5032 15.5 13.3407 15.2908 14.0856 14.9181C14.456 14.7327 14.6061 14.2822 14.4207 13.9118C14.2354 13.5413 13.7848 13.3913 13.4144 13.5766C12.8722 13.8479 12.2639 14 11.6196 14C9.95971 14 8.51283 12.9807 7.86367 11.5H11.75C12.1642 11.5 12.5 11.1642 12.5 10.75C12.5 10.3358 12.1642 10 11.75 10H7.50697C7.50235 9.91732 7.5 9.83396 7.5 9.75Z" fill="#292927"/>
</g>
</svg>
