<svg preserveAspectRatio="xMidYMid meet" overflow="visible" style="display: block;" viewBox="0 0 24 24" fill="none" xmlns="http://www.w3.org/2000/svg">
<g transform="translate(2.2500, 3.2500)">
<path id="Vector" fill-rule="evenodd" clip-rule="evenodd" d="M18 7.75C18 12.3063 14.3063 16 9.75 16C5.19365 16 1.5 12.3063 1.5 7.75V2.75C1.5 2.05964 2.05964 1.5 2.75 1.5H16.75C17.4404 1.5 18 2.05964 18 2.75V7.75ZM9.75 17.5C15.1348 17.5 19.5 13.1348 19.5 7.75V2.75C19.5 1.23122 18.2688 0 16.75 0H2.75C1.23122 0 0 1.23122 0 2.75V7.75C0 13.1348 4.36522 17.5 9.75 17.5ZM6.28033 6.21967C5.98744 5.92678 5.51256 5.92678 5.21967 6.21967C4.92678 6.51256 4.92678 6.98744 5.21967 7.28033L9.21967 11.2803C9.51256 11.5732 9.98744 11.5732 10.2803 11.2803L14.2803 7.28033C14.5732 6.98744 14.5732 6.51256 14.2803 6.21967C13.9874 5.92678 13.5126 5.92678 13.2197 6.21967L9.75 9.68934L6.28033 6.21967Z" fill="#292927"/>
</g>
</svg>
