<svg preserveAspectRatio="xMidYMid meet" overflow="visible" style="display: block;" viewBox="0 0 24 24" fill="none" xmlns="http://www.w3.org/2000/svg">
<g transform="translate(1.2095, 1.2691)">
<path id="Vector" fill-rule="evenodd" clip-rule="evenodd" d="M19.2675 14.367C21.2636 9.66451 19.0696 4.23421 14.3671 2.2381C9.66456 0.242002 4.23426 2.43599 2.23816 7.13851C0.426576 11.4063 2.06642 16.275 5.9009 18.6297C6.25387 18.8465 6.36429 19.3084 6.14753 19.6613C5.93077 20.0143 5.46891 20.1247 5.11594 19.908C0.658404 17.1705 -1.24852 11.5136 0.857398 6.55241C3.17719 1.08732 9.48809 -1.46245 14.9532 0.857347C20.4183 3.17714 22.968 9.48804 20.6482 14.9531C19.97 16.5511 18.9496 17.9006 17.7088 18.9517H20.831C21.2452 18.9517 21.581 19.2875 21.581 19.7017C21.581 20.116 21.2452 20.4517 20.831 20.4517H16.431C15.6854 20.4517 15.081 19.8473 15.081 19.1017V14.7017C15.081 14.2875 15.4168 13.9517 15.831 13.9517C16.2452 13.9517 16.581 14.2875 16.581 14.7017V17.9383C17.7194 17.0167 18.6548 15.8105 19.2675 14.367ZM11.3984 21.2025C11.6755 20.8946 11.6506 20.4204 11.3427 20.1433C11.0348 19.8662 10.5606 19.8912 10.2835 20.1991L10.2735 20.2102C9.99641 20.518 10.0214 20.9923 10.3293 21.2694C10.6371 21.5465 11.1114 21.5215 11.3884 21.2136L11.3984 21.2025Z" fill="#292927"/>
</g>
</svg>
