<svg preserveAspectRatio="xMidYMid meet" overflow="visible" style="display: block;" viewBox="0 0 24 24" fill="none" xmlns="http://www.w3.org/2000/svg">
<g transform="translate(0.2500, 6.2500)">
<path id="Vector" fill-rule="evenodd" clip-rule="evenodd" d="M9.13804 3.18416C8.36064 2.1595 7.13248 1.5 5.75 1.5C3.40279 1.5 1.5 3.40279 1.5 5.75C1.5 8.09721 3.40279 10 5.75 10C7.1327 10 8.36115 9.34048 9.13849 8.31573L9.45961 7.834C9.68936 7.48935 10.155 7.39619 10.4997 7.62594C10.8443 7.85569 10.9375 8.32134 10.7077 8.666L10.3744 9.166C10.3666 9.1777 10.3585 9.18919 10.35 9.20043C9.30227 10.5954 7.63167 11.5 5.75 11.5C2.57436 11.5 0 8.92564 0 5.75C0 2.57436 2.57436 0 5.75 0C7.62968 0 9.2984 0.902896 10.3463 2.29511C10.3497 2.29961 10.3531 2.30416 10.3565 2.30875C10.364 2.31913 10.3713 2.32964 10.3782 2.34027L14.3615 8.31572C15.1388 9.34048 16.3673 10 17.75 10C20.0972 10 22 8.09721 22 5.75C22 3.40279 20.0972 1.5 17.75 1.5C16.3691 1.5 15.1421 2.15778 14.3646 3.1802L14.1241 3.541C13.8943 3.88565 13.4287 3.97881 13.084 3.74906C12.7394 3.51931 12.6462 3.05366 12.876 2.709L13.113 2.35349C13.1244 2.33516 13.1367 2.31717 13.1499 2.29957C14.1977 0.904645 15.8683 0 17.75 0C20.9256 0 23.5 2.57436 23.5 5.75C23.5 8.92564 20.9256 11.5 17.75 11.5C15.8683 11.5 14.1977 10.5954 13.1499 9.20043C13.1415 9.18919 13.1334 9.1777 13.1256 9.166L9.13804 3.18416Z" fill="#292927"/>
</g>
</svg>
