<svg preserveAspectRatio="xMidYMid meet" overflow="visible" style="display: block;" viewBox="0 0 24 24" fill="none" xmlns="http://www.w3.org/2000/svg">
<g transform="translate(1.2500, 1.7500)">
<path id="Vector" fill-rule="evenodd" clip-rule="evenodd" d="M10.75 1.5C7.8505 1.5 5.5 3.85051 5.5 6.75C5.5 6.87209 5.50417 6.9932 5.51237 7.11321C5.91358 7.03886 6.32725 7 6.75 7C8.2472 7 9.63054 7.48745 10.75 8.31231C11.8695 7.48745 13.2528 7 14.75 7C15.1727 7 15.5864 7.03886 15.9876 7.11321C15.9958 6.9932 16 6.87209 16 6.75C16 3.85051 13.6495 1.5 10.75 1.5ZM9.62529 9.35666C8.79936 8.81501 7.81147 8.5 6.75 8.5C6.43544 8.5 6.12734 8.52767 5.82801 8.58069C6.29312 9.83068 7.22077 10.8556 8.40292 11.4474C8.68319 10.675 9.10043 9.96832 9.62529 9.35666ZM4.04838 7.56237C4.01644 7.29604 4 7.02494 4 6.75C4 3.02208 7.02208 0 10.75 0C14.4779 0 17.5 3.02208 17.5 6.75C17.5 7.02494 17.4836 7.29604 17.4516 7.56237C19.8347 8.60434 21.5 10.9827 21.5 13.75C21.5 17.4779 18.4779 20.5 14.75 20.5C13.2528 20.5 11.8695 20.0125 10.75 19.1877C9.63055 20.0125 8.2472 20.5 6.75 20.5C3.02208 20.5 0 17.4779 0 13.75C0 10.9827 1.66527 8.60434 4.04838 7.56237ZM9.62529 18.1433C8.79936 18.685 7.81147 19 6.75 19C3.85051 19 1.5 16.6495 1.5 13.75C1.5 11.6941 2.6817 9.91426 4.40292 9.05258C5.03449 10.7931 6.36163 12.2001 8.04839 12.9376C8.01644 13.204 8 13.4751 8 13.75C8 15.4278 8.61215 16.9626 9.62529 18.1433ZM11.8747 18.1433C12.7006 18.685 13.6885 19 14.75 19C17.6495 19 20 16.6495 20 13.75C20 11.6941 18.8183 9.91426 17.0971 9.05258C16.4655 10.7931 15.1384 12.2001 13.4516 12.9376C13.4836 13.204 13.5 13.4751 13.5 13.75C13.5 15.4278 12.8878 16.9626 11.8747 18.1433ZM11.9876 13.3868C11.9958 13.5068 12 13.6279 12 13.75C12 15.0472 11.5296 16.2344 10.75 17.1505C9.97044 16.2344 9.5 15.0472 9.5 13.75C9.5 13.6279 9.50417 13.5068 9.51237 13.3868C9.91358 13.4611 10.3273 13.5 10.75 13.5C11.1727 13.5 11.5864 13.4611 11.9876 13.3868ZM11.672 11.9193C11.3727 11.9723 11.0646 12 10.75 12C10.4354 12 10.1273 11.9723 9.82801 11.9193C10.0432 11.341 10.3574 10.8108 10.75 10.3495C11.1426 10.8108 11.4568 11.341 11.672 11.9193ZM13.0971 11.4474C12.8168 10.675 12.3996 9.96832 11.8747 9.35666C12.7006 8.81501 13.6885 8.5 14.75 8.5C15.0646 8.5 15.3727 8.52767 15.672 8.58069C15.2069 9.83068 14.2792 10.8556 13.0971 11.4474Z" fill="#292927"/>
</g>
</svg>
