<svg preserveAspectRatio="xMidYMid meet" overflow="visible" style="display: block;" viewBox="0 0 24 24" fill="none" xmlns="http://www.w3.org/2000/svg">
<g transform="translate(4.2500, 1.2500)">
<path id="Vector" fill-rule="evenodd" clip-rule="evenodd" d="M0 14.7494C0 16.2687 1.23192 17.5 2.75101 17.4996C3.50067 17.4995 4.25034 17.4994 5 17.4993V18.7499C5 20.2687 6.23122 21.4999 7.75 21.4999C9.26878 21.4999 10.5 20.2687 10.5 18.7499V17.4997L12.7499 17.4999C14.2688 17.5 15.5 16.2688 15.5 14.75V7.75C15.5 3.4698 12.0302 0 7.75 0C3.46979 0 0 3.4698 0 7.75V14.7494ZM9 17.4995C8.16666 17.4994 7.33333 17.4993 6.5 17.4993V18.7499C6.5 19.4403 7.05964 19.9999 7.75 19.9999C8.44036 19.9999 9 19.4403 9 18.7499V17.4995ZM2.75068 15.9996C2.05996 15.9998 1.5 15.4399 1.5 14.7494V11.4999H14V14.75C14 15.4404 13.4404 16 12.7501 15.9999L10.301 15.9997C7.78432 15.9994 5.26748 15.9991 2.75068 15.9996ZM14 9.99991H1.5V7.75C1.5 4.29822 4.29822 1.5 7.75 1.5C11.2018 1.5 14 4.29822 14 7.75V9.99991Z" fill="#292927"/>
</g>
</svg>
