<svg preserveAspectRatio="xMidYMid meet" overflow="visible" style="display: block;" viewBox="0 0 24 24" fill="none" xmlns="http://www.w3.org/2000/svg">
<g transform="translate(4.8376, 1.2500)">
<path id="Vector" fill-rule="evenodd" clip-rule="evenodd" d="M7.91248 0.75V1.59128C8.0236 1.67028 8.12507 1.76889 8.21209 1.88711C8.68451 2.5289 9.44312 3.63072 10.0329 4.83336C10.6011 5.99189 11.1068 7.42709 10.8381 8.65995C10.7218 9.19317 10.519 9.63867 10.2594 10.0062C10.6278 10.0537 10.9125 10.3686 10.9125 10.75C10.9125 11.1642 10.5767 11.5 10.1625 11.5H9.76774C9.99871 12.458 10.5801 13.7068 11.3025 15H12.1625C12.5767 15 12.9125 15.3358 12.9125 15.75C12.9125 16.156 12.5899 16.4866 12.1871 16.4996C12.8832 17.6253 13.58 18.6458 14.0749 19.3477C14.7057 20.2423 14.0726 21.5 12.9625 21.5H1.36247C0.252353 21.5 -0.380739 20.2423 0.250021 19.3477C0.74497 18.6458 1.44177 17.6253 2.13781 16.4996C1.73501 16.4866 1.41248 16.156 1.41248 15.75C1.41248 15.3358 1.74826 15 2.16248 15H3.02244C3.74482 13.7068 4.32624 12.458 4.5572 11.5H4.16248C3.74826 11.5 3.41248 11.1642 3.41248 10.75C3.41248 10.3686 3.69713 10.0537 4.06556 10.0062C3.8059 9.63867 3.60312 9.19317 3.48688 8.65995C3.21814 7.42709 3.72385 5.99189 4.29202 4.83336C4.88181 3.63072 5.64043 2.5289 6.11285 1.88711C6.19987 1.76889 6.30135 1.67027 6.41248 1.59127V0.75C6.41248 0.335786 6.74826 0 7.16248 0C7.57669 0 7.91248 0.335786 7.91248 0.75ZM7.12966 10H7.19528C7.58252 9.99506 8.06205 9.90248 8.46957 9.65929C8.86566 9.42291 9.22208 9.0304 9.37247 8.34047C9.52329 7.64859 9.24112 6.62543 8.68616 5.49384C8.2121 4.52719 7.60653 3.61382 7.16247 2.99438C6.71841 3.61382 6.11284 4.52719 5.63878 5.49384C5.08382 6.62543 4.80165 7.64859 4.95247 8.34047C5.10286 9.0304 5.45928 9.42291 5.85537 9.65929C6.26288 9.90248 6.74242 9.99506 7.12966 10ZM7.12144 11.5L6.08978 11.5C5.9035 12.5331 5.36852 13.778 4.72843 15H9.59652C8.95643 13.778 8.42144 12.533 8.23517 11.5L7.2035 11.5L7.2017 11.5L7.16247 11.5002L7.12336 11.5L7.12144 11.5ZM10.4347 16.5H3.89026C3.09064 17.8549 2.23621 19.1251 1.62482 20H12.7001C12.0887 19.1251 11.2343 17.8549 10.4347 16.5Z" fill="#292927"/>
</g>
</svg>
