<svg preserveAspectRatio="xMidYMid meet" overflow="visible" style="display: block;" viewBox="0 0 24 24" fill="none" xmlns="http://www.w3.org/2000/svg">
<g transform="translate(1.2500, 1.2500)">
<path id="Vector" fill-rule="evenodd" clip-rule="evenodd" d="M20 8.75C20 4.74594 16.7541 1.5 12.75 1.5C9.10084 1.5 6.08023 4.19674 5.57454 7.70582C5.51546 8.1158 5.13521 8.40026 4.72523 8.34117C4.31525 8.28209 4.03079 7.90184 4.08988 7.49186C4.70042 3.25523 8.34441 0 12.75 0C17.5825 0 21.5 3.91751 21.5 8.75C21.5 10.2417 21.1261 11.6481 20.4666 12.8785L21.0873 16.2127C21.1326 16.4558 21.0551 16.7055 20.8803 16.8803C20.7055 17.0551 20.4558 17.1326 20.2127 17.0873L16.8785 16.4666C16.0418 16.9151 15.1235 17.2316 14.1517 17.3882C13.7428 17.4541 13.3578 17.176 13.292 16.7671C13.2261 16.3581 13.5042 15.9732 13.9131 15.9073C14.7972 15.7649 15.6277 15.4625 16.3745 15.0305C16.5294 14.9409 16.7113 14.9096 16.8873 14.9424L19.4126 15.4126L18.9424 12.8873C18.9096 12.7113 18.9409 12.5294 19.0305 12.3745C19.647 11.3088 20 10.0718 20 8.75ZM1.5 15.25C1.5 12.6266 3.62665 10.5 6.25 10.5C8.87335 10.5 11 12.6266 11 15.25C11 17.8734 8.87335 20 6.25 20C5.38357 20 4.57344 19.7687 3.87554 19.365C3.7206 19.2754 3.5387 19.2441 3.36272 19.2769L1.96242 19.5376L2.22313 18.1373C2.2559 17.9613 2.22464 17.7794 2.13501 17.6245C1.73129 16.9266 1.5 16.1164 1.5 15.25ZM6.25 9C2.79822 9 0 11.7982 0 15.25C0 16.2856 0.252444 17.2642 0.699531 18.1256L0.287671 20.3377C0.242419 20.5808 0.319853 20.8305 0.49467 21.0053C0.669487 21.1801 0.919226 21.2576 1.16228 21.2123L3.37441 20.8005C4.23585 21.2476 5.21439 21.5 6.25 21.5C9.70178 21.5 12.5 18.7018 12.5 15.25C12.5 11.7982 9.70178 9 6.25 9Z" fill="#292927"/>
</g>
</svg>
