<svg preserveAspectRatio="xMidYMid meet" overflow="visible" style="display: block;" viewBox="0 0 24 24" fill="none" xmlns="http://www.w3.org/2000/svg">
<g transform="translate(1.2500, 1.2500)">
<path id="Vector" fill-rule="evenodd" clip-rule="evenodd" d="M1.5 10.75C1.5 5.64137 5.64137 1.5 10.75 1.5C15.8586 1.5 20 5.64137 20 10.75C20 15.8586 15.8586 20 10.75 20C10.0286 20 9.32653 19.9174 8.65266 19.7612L9.94395 14.8112C10.5099 15.8647 11.4888 16.5 12.75 16.5C15.265 16.5 17.5 14.0932 17.5 10.75C17.5 8.65853 16.8243 7.06345 15.6403 5.99972C14.4702 4.94841 12.8968 4.5 11.25 4.5C9.49079 4.5 7.40098 5.48903 6.14435 7.10147C5.50445 7.92253 5.06324 8.92747 5.01112 10.0673C4.95884 11.2107 5.30091 12.4284 6.12596 13.666C6.35572 14.0107 6.82138 14.1038 7.16602 13.874C7.51067 13.6443 7.6038 13.1786 7.37404 12.834C6.69909 11.8216 6.47396 10.9143 6.50956 10.1358C6.54532 9.35378 6.84706 8.63997 7.32748 8.02353C8.31145 6.76097 9.97164 6 11.25 6C12.6407 6 13.8174 6.37843 14.6378 7.11553C15.4445 7.84022 16 8.99514 16 10.75C16 13.4819 14.235 15 12.75 15C12.051 15 11.5515 14.676 11.2333 14.0396C10.8922 13.3574 10.7546 12.2846 10.9898 10.8733C10.996 10.8363 10.9993 10.7995 11 10.7631L11.4757 8.9395C11.5803 8.5387 11.3401 8.12903 10.9393 8.02447C10.5385 7.91991 10.1288 8.16007 10.0243 8.56087L7.2219 19.3034C3.86344 17.9165 1.5 14.6093 1.5 10.75ZM10.75 0C4.81294 0 0 4.81294 0 10.75C0 16.6871 4.81294 21.5 10.75 21.5C16.6871 21.5 21.5 16.6871 21.5 10.75C21.5 4.81294 16.6871 0 10.75 0Z" fill="#292927"/>
</g>
</svg>
