<svg preserveAspectRatio="xMidYMid meet" overflow="visible" style="display: block;" viewBox="0 0 24 24" fill="none" xmlns="http://www.w3.org/2000/svg">
<g transform="translate(1.2500, 1.2500)">
<path id="Vector" fill-rule="evenodd" clip-rule="evenodd" d="M1.5 10.75C1.5 5.64137 5.64137 1.5 10.75 1.5C11.0627 1.5 11.3716 1.51549 11.6759 1.54571C12.0881 1.58663 12.4554 1.28566 12.4963 0.873475C12.5373 0.461289 12.2363 0.0939692 11.8241 0.0530448C11.4706 0.0179481 11.1123 0 10.75 0C4.81294 0 0 4.81294 0 10.75C0 12.6063 0.471126 14.3546 1.30076 15.8798L0.512671 20.1127C0.467419 20.3558 0.544853 20.6055 0.71967 20.7803C0.894487 20.9551 1.14423 21.0326 1.38728 20.9873L5.62016 20.1992C7.14536 21.0289 8.89369 21.5 10.75 21.5C16.6871 21.5 21.5 16.6871 21.5 10.75C21.5 10.3877 21.4821 10.0294 21.447 9.6759C21.406 9.26371 21.0387 8.96274 20.6265 9.00367C20.2143 9.04459 19.9134 9.41191 19.9543 9.8241C19.9845 10.1284 20 10.4373 20 10.75C20 15.8586 15.8586 20 10.75 20C9.06393 20 7.48533 19.5496 6.12554 18.763C5.9706 18.6733 5.7887 18.6421 5.61272 18.6748L2.18742 19.3126L2.82515 15.8873C2.85792 15.7113 2.82666 15.5294 2.73703 15.3745C1.95043 14.0147 1.5 12.4361 1.5 10.75ZM18.2803 7.28033L21.2803 4.28033C21.5732 3.98744 21.5732 3.51256 21.2803 3.21967L18.2803 0.21967C17.9874 -0.0732233 17.5126 -0.0732233 17.2197 0.21967C16.9268 0.512563 16.9268 0.987437 17.2197 1.28033L18.9393 3H14.75C14.3358 3 14 3.33579 14 3.75C14 4.16421 14.3358 4.5 14.75 4.5H18.9393L17.2197 6.21967C16.9268 6.51256 16.9268 6.98744 17.2197 7.28033C17.5126 7.57322 17.9874 7.57322 18.2803 7.28033Z" fill="#292927"/>
</g>
</svg>
