<svg preserveAspectRatio="xMidYMid meet" overflow="visible" style="display: block;" viewBox="0 0 24 24" fill="none" xmlns="http://www.w3.org/2000/svg">
<g transform="translate(6.2500, 4.0000)">
<path id="Vector" fill-rule="evenodd" clip-rule="evenodd" d="M0.0569091 12.0371C0.0202391 11.9487 0 11.8517 0 11.75C0 11.6483 0.0202391 11.5513 0.0569091 11.4629C0.0935089 11.3745 0.147762 11.2916 0.21967 11.2197L3.71967 7.71967C4.01256 7.42678 4.48744 7.42678 4.78033 7.71967C5.07322 8.01256 5.07322 8.48744 4.78033 8.78033L2.56066 11H6.75C8.54493 11 10 9.54493 10 7.75V0.75C10 0.335786 10.3358 0 10.75 0C11.1642 0 11.5 0.335786 11.5 0.75V7.75C11.5 10.3734 9.37335 12.5 6.75 12.5H2.56066L4.78033 14.7197C5.07322 15.0126 5.07322 15.4874 4.78033 15.7803C4.48744 16.0732 4.01256 16.0732 3.71967 15.7803L0.21967 12.2803C0.147762 12.2084 0.0935089 12.1255 0.0569091 12.0371Z" fill="#292927"/>
</g>
</svg>
