<svg preserveAspectRatio="xMidYMid meet" overflow="visible" style="display: block;" viewBox="0 0 24 24" fill="none" xmlns="http://www.w3.org/2000/svg">
<g transform="translate(2.1842, 1.3742)">
<path id="Vector" fill-rule="evenodd" clip-rule="evenodd" d="M3.66206 17.2212C0.779313 14.3384 0.779312 9.66454 3.66206 6.78179L8.88172 1.56213L14.1014 6.78181C16.1268 8.8072 16.7302 11.7176 15.9076 14.2715C15.7806 14.6658 15.9972 15.0884 16.3915 15.2154C16.7858 15.3423 17.2083 15.1257 17.3353 14.7314C18.3237 11.6629 17.6007 8.15978 15.1621 5.72115L9.83632 0.395406C9.30911 -0.131802 8.45434 -0.131802 7.92713 0.395406L2.6014 5.72113C-0.867134 9.18967 -0.867133 14.8133 2.6014 18.2818C4.61429 20.2947 7.35371 21.139 9.97343 20.8162C10.3845 20.7656 10.6767 20.3913 10.6261 19.9801C10.5754 19.569 10.2011 19.2768 9.79001 19.3275C7.60903 19.5962 5.33449 18.8936 3.66206 17.2212ZM13.4121 17.9711C13.1192 17.6782 12.6443 17.6782 12.3514 17.9711C12.0585 18.264 12.0585 18.7389 12.3514 19.0318L14.3514 21.0318C14.6443 21.3247 15.1192 21.3247 15.4121 21.0318L19.4121 17.0318C19.7049 16.7389 19.7049 16.264 19.4121 15.9711C19.1192 15.6782 18.6443 15.6782 18.3514 15.9711L14.8817 19.4408L13.4121 17.9711Z" fill="#292927"/>
</g>
</svg>
