<svg preserveAspectRatio="xMidYMid meet" overflow="visible" style="display: block;" viewBox="0 0 24 24" fill="none" xmlns="http://www.w3.org/2000/svg">
<g transform="translate(1.2746, 1.2500)">
<path id="Vector" fill-rule="evenodd" clip-rule="evenodd" d="M1.49639 9.8241C1.9604 5.15058 5.90469 1.5 10.7007 1.5C14.0717 1.5 17.0228 3.30329 18.6398 6H15.7007C15.2865 6 14.9507 6.33579 14.9507 6.75C14.9507 7.16421 15.2865 7.5 15.7007 7.5H19.8522C19.8633 7.50025 19.8746 7.50025 19.8858 7.5H20.1007C20.8463 7.5 21.4507 6.89558 21.4507 6.15V1.75C21.4507 1.33579 21.1149 1 20.7007 1C20.2865 1 19.9507 1.33579 19.9507 1.75V5.2698C18.078 2.11569 14.6371 0 10.7007 0C5.12598 0 0.543158 4.24278 0.003725 9.6759C-0.0371994 10.0881 0.263768 10.4554 0.675955 10.4963C1.08814 10.5373 1.45546 10.2363 1.49639 9.8241ZM10.7501 20C15.5461 20 19.4903 16.3494 19.9544 11.6759C19.9953 11.2637 20.3626 10.9627 20.7748 11.0037C21.187 11.0446 21.4879 11.4119 21.447 11.8241C20.9076 17.2572 16.3248 21.5 10.7501 21.5C6.8136 21.5 3.37262 19.3843 1.5 16.2301V19.75C1.5 20.1642 1.16421 20.5 0.75 20.5C0.335786 20.5 0 20.1642 0 19.75V15.35C0 14.6044 0.604415 14 1.35 14H1.56496C1.57618 13.9997 1.58739 13.9997 1.59857 14H5.75C6.16421 14 6.5 14.3358 6.5 14.75C6.5 15.1642 6.16421 15.5 5.75 15.5H2.81099C4.42798 18.1967 7.37909 20 10.7501 20Z" fill="#FAFAF9"/>
</g>
</svg>
