<svg preserveAspectRatio="xMidYMid meet" overflow="visible" style="display: block;" viewBox="0 0 24 24" fill="none" xmlns="http://www.w3.org/2000/svg">
<g transform="translate(1.7500, 1.9383)">
<path id="Vector" fill-rule="evenodd" clip-rule="evenodd" d="M10.25 1.5C9.83579 1.5 9.5 1.83579 9.5 2.25V6.91745C9.5 7.38292 9.26021 7.81555 8.8655 8.06225L1.5 12.6657V13.2894L7.82258 11.7088C8.67462 11.4958 9.5 12.1402 9.5 13.0185V15.9777C9.5 16.367 9.33195 16.7374 9.03898 16.9937L7.28739 18.5264L10.0085 18.0316C10.1682 18.0026 10.3318 18.0026 10.4915 18.0316L13.2126 18.5264L11.461 16.9937C11.168 16.7374 11 16.367 11 15.9777V13.0185C11 12.1402 11.8254 11.4958 12.6774 11.7088L19 13.2894V12.6657L11.6345 8.06225C11.2398 7.81555 11 7.38292 11 6.91745V2.25C11 1.83579 10.6642 1.5 10.25 1.5ZM8 2.25C8 1.00736 9.00736 0 10.25 0C11.4926 0 12.5 1.00736 12.5 2.25V6.83431L19.8655 11.4378C20.2602 11.6844 20.5 12.1171 20.5 12.5825V13.4815C20.5 14.3598 19.6746 15.0042 18.8226 14.7912L12.5 13.2106V15.9097L14.6091 17.7551C15.6403 18.6574 14.8267 20.3444 13.4786 20.0993L10.25 19.5123L7.02141 20.0993C5.67329 20.3444 4.85973 18.6574 5.89093 17.7551L8 15.9097V13.2106L1.67742 14.7912C0.825374 15.0042 0 14.3598 0 13.4815V12.5825C0 12.1171 0.239787 11.6844 0.634501 11.4378L8 6.83431V2.25Z" fill="#292927"/>
</g>
</svg>
