<svg preserveAspectRatio="xMidYMid meet" overflow="visible" style="display: block;" viewBox="0 0 24 24" fill="none" xmlns="http://www.w3.org/2000/svg">
<g transform="translate(2.2500, 1.7500)">
<path id="Vector" fill-rule="evenodd" clip-rule="evenodd" d="M12.0558 6C12.6668 6 13.1883 5.55823 13.2887 4.9555L13.4897 3.75L13.2887 2.5445C13.1883 1.94177 12.6668 1.5 12.0558 1.5H7.44426C6.83321 1.5 6.31172 1.94177 6.21127 2.5445L6.01035 3.75L6.21127 4.9555C6.31172 5.55823 6.83321 6 7.44426 6H8.6423L8.05364 4.52834C7.89981 4.14376 8.08687 3.70728 8.47146 3.55344C8.85604 3.39961 9.29252 3.58667 9.44636 3.97126L10.2579 6H12.0558ZM9.75035 7.5C9.75027 7.5 9.75019 7.5 9.75011 7.5H7.44426C6.09995 7.5 4.95268 6.52811 4.73168 5.2021L4.61466 4.5H1.5V19H18V4.5H14.8854L14.7683 5.2021C14.5473 6.52811 13.4001 7.5 12.0558 7.5H9.75035ZM4.73168 2.2979L4.61466 3H1.35C0.604416 3 0 3.60442 0 4.35V19.15C0 19.8956 0.604416 20.5 1.35 20.5H18.15C18.8956 20.5 19.5 19.8956 19.5 19.15V4.35C19.5 3.60442 18.8956 3 18.15 3H14.8854L14.7683 2.2979C14.5473 0.971886 13.4001 0 12.0558 0H7.44426C6.09995 0 4.95268 0.971886 4.73168 2.2979Z" fill="#292927"/>
</g>
</svg>
