<svg preserveAspectRatio="xMidYMid meet" overflow="visible" style="display: block;" viewBox="0 0 24 24" fill="none" xmlns="http://www.w3.org/2000/svg">
<g transform="translate(2.2500, 2.2500)">
<path id="Vector" fill-rule="evenodd" clip-rule="evenodd" d="M1.5 1.5V18H18V1.5H1.5ZM0 1.35C0 0.604415 0.604417 0 1.35 0H18.15C18.8956 0 19.5 0.604417 19.5 1.35V18.15C19.5 18.8956 18.8956 19.5 18.15 19.5H1.35C0.604415 19.5 0 18.8956 0 18.15V1.35ZM11.0915 10.8046C11.3168 10.9602 11.5 11.2151 11.5 11.75C11.5 12.2849 11.3168 12.5398 11.0915 12.6954C10.8188 12.8838 10.3713 13 9.75 13C9.1287 13 8.68119 12.8838 8.40849 12.6954C8.18323 12.5398 8 12.2849 8 11.75C8 11.2151 8.18323 10.9602 8.40849 10.8046C8.68119 10.6162 9.1287 10.5 9.75 10.5C10.3713 10.5 10.8188 10.6162 11.0915 10.8046ZM7.32592 9.75C6.792 10.2206 6.5 10.9 6.5 11.75C6.5 12.7151 6.87642 13.4602 7.55598 13.9296C8.1881 14.3662 8.99059 14.5 9.75 14.5C10.5094 14.5 11.3119 14.3662 11.944 13.9296C12.6236 13.4602 13 12.7151 13 11.75C13 10.9 12.708 10.2206 12.1741 9.75C12.708 9.27936 13 8.60005 13 7.75C13 6.78486 12.6236 6.03981 11.944 5.5704C11.3119 5.13377 10.5094 5 9.75 5C8.99059 5 8.1881 5.13377 7.55598 5.5704C6.87642 6.03981 6.5 6.78486 6.5 7.75C6.5 8.60005 6.792 9.27936 7.32592 9.75ZM9.75 9C10.3713 9 10.8188 8.88377 11.0915 8.6954C11.3168 8.53981 11.5 8.28486 11.5 7.75C11.5 7.21514 11.3168 6.96019 11.0915 6.8046C10.8188 6.61623 10.3713 6.5 9.75 6.5C9.1287 6.5 8.68119 6.61623 8.40849 6.8046C8.18323 6.96019 8 7.21514 8 7.75C8 8.28486 8.18323 8.53981 8.40849 8.6954C8.68119 8.88377 9.1287 9 9.75 9Z" fill="#292927"/>
</g>
</svg>
