<svg preserveAspectRatio="xMidYMid meet" overflow="visible" style="display: block;" viewBox="0 0 24 24" fill="none" xmlns="http://www.w3.org/2000/svg">
<g transform="translate(2.4406, 1.8529)">
<path id="Vector" fill-rule="evenodd" clip-rule="evenodd" d="M8.90414 2.07001C8.80366 1.68819 8.42888 1.44576 8.03943 1.51066C7.59569 1.58462 7.31151 2.02395 7.426 2.45899L9.50337 10.353C9.60878 10.7536 9.36951 11.1638 8.96893 11.2692C8.56836 11.3746 8.15817 11.1353 8.05276 10.7347L6.25205 3.89208L6.11105 3.91558C5.37494 4.03826 4.90963 4.77443 5.11465 5.49198L6.49451 10.3215C6.50616 10.3591 6.51494 10.3979 6.5206 10.4377C6.5266 10.4792 6.52902 10.5206 6.52808 10.5615V14.0441C6.52808 14.3565 6.33437 14.6362 6.04188 14.7461C5.74939 14.856 5.41941 14.7731 5.21365 14.5379L2.95891 11.9611C2.61749 11.5709 2.0063 11.5844 1.68241 11.9892C1.43258 12.3015 1.44013 12.7473 1.7004 13.051L6.24888 18.3576C6.48638 18.6346 6.833 18.7941 7.19787 18.7941H13.7781C15.716 18.7941 17.0281 17.1794 17.0281 15.544V10.6101C17.0281 10.5119 17.0388 10.4135 17.0602 10.3171L17.5882 7.94113C17.7437 7.24157 17.2804 6.55479 16.5735 6.43697L16.3711 6.40325L15.5135 10.6914C15.4323 11.0975 15.0372 11.3609 14.631 11.2797C14.2248 11.1985 13.9614 10.8034 14.0427 10.3972L15.0403 5.40904L15.2858 3.93612C15.3571 3.5079 15.0679 3.10291 14.6396 3.03154C14.2175 2.96119 13.8167 3.24143 13.7378 3.66203L12.5174 10.1709C12.5142 10.1893 12.5104 10.2075 12.5059 10.2255C12.4109 10.6083 12.0325 10.855 11.6399 10.7814C11.3389 10.725 11.1138 10.496 11.0478 10.2159L8.90414 2.07001ZM11.6552 6.62997L10.3548 1.68827C10.0571 0.557029 8.94667 -0.161233 7.79283 0.0310733C6.61844 0.226805 5.82126 1.28635 5.90629 2.42902L5.86445 2.43599C4.24502 2.7059 3.22133 4.32545 3.67236 5.90406L5.02808 10.6491V12.048L4.08777 10.9733C3.13115 9.88005 1.41862 9.9178 0.511111 11.0522C-0.188906 11.9272 -0.167741 13.1764 0.561519 14.0272L5.11 19.3337C5.63243 19.9432 6.39504 20.2941 7.19787 20.2941H13.7781C16.6402 20.2941 18.5281 17.9078 18.5281 15.5431V10.6264L19.0525 8.26653C19.3945 6.72748 18.3752 5.21657 16.8201 4.95738L16.6412 4.92757L16.7654 4.18272C16.9729 2.93735 16.1316 1.75951 14.8862 1.55195C13.6586 1.34734 12.4929 2.16236 12.2635 3.3856L11.6552 6.62997Z" fill="#292927"/>
</g>
</svg>
