<svg preserveAspectRatio="xMidYMid meet" overflow="visible" style="display: block;" viewBox="0 0 24 24" fill="none" xmlns="http://www.w3.org/2000/svg">
<g transform="translate(2.2500, 2.2500)">
<path id="Vector" fill-rule="evenodd" clip-rule="evenodd" d="M10.5 2.75C10.5 2.05964 11.0596 1.5 11.75 1.5C12.4404 1.5 13 2.05964 13 2.75C13 3.44036 12.4404 4 11.75 4C11.0596 4 10.5 3.44036 10.5 2.75ZM11.75 0C10.2312 0 9 1.23122 9 2.75C9 4.26878 10.2312 5.5 11.75 5.5C13.2688 5.5 14.5 4.26878 14.5 2.75C14.5 1.23122 13.2688 0 11.75 0ZM13.5 15.75C13.5 14.5074 14.5074 13.5 15.75 13.5C16.9926 13.5 18 14.5074 18 15.75C18 16.9926 16.9926 18 15.75 18C14.5074 18 13.5 16.9926 13.5 15.75ZM15.75 12C13.6789 12 12 13.6789 12 15.75C12 17.8211 13.6789 19.5 15.75 19.5C17.8211 19.5 19.5 17.8211 19.5 15.75C19.5 13.6789 17.8211 12 15.75 12ZM3.75 13.5C2.50736 13.5 1.5 14.5074 1.5 15.75C1.5 16.9926 2.50736 18 3.75 18C4.99264 18 6 16.9926 6 15.75C6 14.5074 4.99264 13.5 3.75 13.5ZM0 15.75C0 13.6789 1.67893 12 3.75 12C5.82107 12 7.5 13.6789 7.5 15.75C7.5 17.8211 5.82107 19.5 3.75 19.5C1.67893 19.5 0 17.8211 0 15.75ZM9.3481 5.67385C9.03302 5.41129 8.56547 5.45051 8.29854 5.76189L5.29827 9.26182C5.14152 9.44467 5.08212 9.69167 5.13859 9.92579C5.19506 10.1599 5.36052 10.3527 5.58338 10.444L9.79221 12.1681L8.54776 15.4866C8.40232 15.8744 8.59883 16.3068 8.98667 16.4522C9.37451 16.5976 9.80682 16.4011 9.95226 16.0133L11.4523 12.0133C11.5946 11.6337 11.4095 11.2096 11.0343 11.0559L7.11301 9.4496L8.95601 7.29967L11.3878 9.32617C11.5226 9.4385 11.6925 9.50001 11.8679 9.50001H15.3679C15.7821 9.50001 16.1179 9.16422 16.1179 8.75001C16.1179 8.33579 15.7821 8.00001 15.3679 8.00001H12.1395L9.3481 5.67385Z" fill="#292927"/>
</g>
</svg>
