<svg preserveAspectRatio="xMidYMid meet" overflow="visible" style="display: block;" viewBox="0 0 24 24" fill="none" xmlns="http://www.w3.org/2000/svg">
<g transform="translate(1.2500, 2.2500)">
<path id="Vector" fill-rule="evenodd" clip-rule="evenodd" d="M6.0259 4.49372C5.33337 4.89652 4.5706 5.22517 3.68202 5.31446C3.6571 5.31697 3.63207 5.31822 3.60703 5.31822L0.74999 5.31818C0.335776 5.31817 -5.66237e-06 4.98238 0 4.56817C5.66251e-06 4.15396 0.335797 3.81818 0.75001 3.81818L3.56751 3.81822C4.15401 3.75282 4.69674 3.53153 5.27174 3.19709C5.69698 2.94976 6.10157 2.66548 6.54933 2.35086C6.74232 2.21527 6.94331 2.07404 7.15744 1.9277C8.54638 0.978506 10.2403 3.6359e-06 12.7496 0C15.1805 -3.57627e-06 17.3959 0.726525 19.0016 2.2517C20.6154 3.78466 21.5295 6.04485 21.4993 8.93967C21.4774 11.0337 20.8689 13.1164 19.6047 14.6922C18.3624 16.2408 16.5185 17.2564 14.1151 17.3155L10.8666 19.3827C10.7463 19.4593 10.6066 19.5 10.464 19.5C9.76826 19.5 9.19627 19.3322 8.73992 19.0418C8.2866 18.7534 7.99047 18.3714 7.79965 18.0071C7.67615 17.7713 7.59458 17.5392 7.54041 17.3351C7.45014 17.3337 7.35291 17.3308 7.24973 17.3259C6.67184 17.2983 5.88425 17.2061 5.0836 16.9386C4.28294 16.6711 3.43317 16.2158 2.78222 15.4391C2.24623 14.7995 1.87708 13.9799 1.75676 12.9545H0.75C0.335786 12.9545 0 12.6188 0 12.2045C0 11.7903 0.335786 11.4545 0.75 11.4545H2.46422C2.87844 11.4545 3.21422 11.7903 3.21422 12.2045C3.21422 13.2752 3.52128 13.9857 3.93188 14.4756C4.35232 14.9773 4.93107 15.3061 5.55894 15.5159C6.18682 15.7257 6.82775 15.804 7.32126 15.8276C7.56567 15.8392 7.76818 15.8372 7.90725 15.8325C7.97665 15.8301 8.02986 15.8271 8.06415 15.8248C8.08129 15.8237 8.09366 15.8227 8.10094 15.8221L8.10706 15.8216C8.31722 15.8017 8.52661 15.8712 8.68283 16.0133C8.83776 16.1541 8.92669 16.3533 8.9283 16.5625C8.92831 16.5632 8.92835 16.5646 8.92842 16.5665C8.92865 16.5733 8.92925 16.5867 8.93069 16.606C8.93359 16.6448 8.9398 16.7053 8.95285 16.7801C8.97956 16.9331 9.03161 17.1263 9.1284 17.3111C9.22328 17.4922 9.35571 17.6557 9.54524 17.7763C9.70134 17.8757 9.92657 17.9654 10.2581 17.992L13.4897 15.9355C13.6101 15.8589 13.7498 15.8182 13.8924 15.8182C15.9512 15.8182 17.4398 14.9937 18.4347 13.7535C19.4459 12.4931 19.9802 10.7575 19.9994 8.92401C20.0261 6.36436 19.2259 4.53363 17.9685 3.33928C16.7029 2.13715 14.8899 1.5 12.7496 1.5C10.6876 1.5 9.29895 2.28102 8.00378 3.16613C7.82818 3.28614 7.64909 3.41195 7.4676 3.53944C6.99682 3.87016 6.5099 4.21221 6.0259 4.49372ZM8.92842 16.5665C8.92842 16.5665 8.92842 16.5665 8.92842 16.5665Z" fill="#292927"/>
</g>
</svg>
