<svg preserveAspectRatio="xMidYMid meet" overflow="visible" style="display: block;" viewBox="0 0 24 24" fill="none" xmlns="http://www.w3.org/2000/svg">
<g transform="translate(1.2500, 3.2449)">
<path id="Vector" fill-rule="evenodd" clip-rule="evenodd" d="M21.5 0.750002C21.5 1.16422 21.1642 1.5 20.75 1.5L0.75 1.5C0.335787 1.5 0 1.16421 0 0.75C0 0.335786 0.335787 0 0.75 0H20.75C21.1642 0 21.5 0.335788 21.5 0.750002ZM2.26173 4.19156C2.56961 4.46866 2.59457 4.94287 2.31748 5.25076L2.30748 5.26187C2.03038 5.56975 1.55616 5.59471 1.24828 5.31761C0.9404 5.04052 0.915442 4.5663 1.19254 4.25842L1.20254 4.24731C1.47963 3.93943 1.95385 3.91447 2.26173 4.19156ZM2.31748 13.2508C2.59457 12.9429 2.56961 12.4687 2.26173 12.1916C1.95385 11.9145 1.47963 11.9394 1.20254 12.2473L1.19254 12.2584C0.915442 12.5663 0.9404 13.0405 1.24828 13.3176C1.55616 13.5947 2.03038 13.5697 2.30748 13.2619L2.31748 13.2508ZM5.26173 8.19156C5.56961 8.46866 5.59457 8.94287 5.31748 9.25076L5.30748 9.26187C5.03038 9.56975 4.55616 9.59471 4.24828 9.31761C3.9404 9.04052 3.91544 8.5663 4.19254 8.25842L4.20254 8.24731C4.47963 7.93943 4.95385 7.91447 5.26173 8.19156ZM5.31748 17.2508C5.59457 16.9429 5.56961 16.4687 5.26173 16.1916C4.95385 15.9145 4.47963 15.9394 4.20254 16.2473L4.19254 16.2584C3.91544 16.5663 3.9404 17.0405 4.24828 17.3176C4.55616 17.5947 5.03038 17.5697 5.30748 17.2619L5.31748 17.2508ZM8.26173 4.19156C8.56961 4.46866 8.59457 4.94287 8.31748 5.25076L8.30748 5.26187C8.03038 5.56975 7.55616 5.59471 7.24828 5.31761C6.9404 5.04052 6.91544 4.5663 7.19254 4.25842L7.20254 4.24731C7.47963 3.93943 7.95385 3.91447 8.26173 4.19156ZM8.31748 13.2508C8.59457 12.9429 8.56961 12.4687 8.26173 12.1916C7.95385 11.9145 7.47963 11.9394 7.20254 12.2473L7.19254 12.2584C6.91544 12.5663 6.9404 13.0405 7.24828 13.3176C7.55616 13.5947 8.03038 13.5697 8.30748 13.2619L8.31748 13.2508ZM11.2617 8.19156C11.5696 8.46866 11.5946 8.94287 11.3175 9.25076L11.3075 9.26187C11.0304 9.56975 10.5562 9.59471 10.2483 9.31761C9.9404 9.04052 9.91544 8.5663 10.1925 8.25842L10.2025 8.24731C10.4796 7.93943 10.9538 7.91447 11.2617 8.19156ZM11.3175 17.2508C11.5946 16.9429 11.5696 16.4687 11.2617 16.1916C10.9538 15.9145 10.4796 15.9394 10.2025 16.2473L10.1925 16.2584C9.91544 16.5663 9.9404 17.0405 10.2483 17.3176C10.5562 17.5947 11.0304 17.5697 11.3075 17.2619L11.3175 17.2508ZM14.2617 4.19156C14.5696 4.46866 14.5946 4.94287 14.3175 5.25076L14.3075 5.26187C14.0304 5.56975 13.5562 5.59471 13.2483 5.31761C12.9404 5.04052 12.9154 4.5663 13.1925 4.25842L13.2025 4.24731C13.4796 3.93943 13.9538 3.91447 14.2617 4.19156ZM14.3175 13.2508C14.5946 12.9429 14.5696 12.4687 14.2617 12.1916C13.9538 11.9145 13.4796 11.9394 13.2025 12.2473L13.1925 12.2584C12.9154 12.5663 12.9404 13.0405 13.2483 13.3176C13.5562 13.5947 14.0304 13.5697 14.3075 13.2619L14.3175 13.2508ZM17.2617 8.19156C17.5696 8.46866 17.5946 8.94287 17.3175 9.25076L17.3075 9.26187C17.0304 9.56975 16.5562 9.59471 16.2483 9.31761C15.9404 9.04052 15.9154 8.5663 16.1925 8.25842L16.2025 8.24731C16.4796 7.93943 16.9538 7.91447 17.2617 8.19156ZM17.3175 17.2508C17.5946 16.9429 17.5696 16.4687 17.2617 16.1916C16.9538 15.9145 16.4796 15.9394 16.2025 16.2473L16.1925 16.2584C15.9154 16.5663 15.9404 17.0405 16.2483 17.3176C16.5562 17.5947 17.0304 17.5697 17.3075 17.2619L17.3175 17.2508ZM20.2617 4.19156C20.5696 4.46866 20.5946 4.94287 20.3175 5.25076L20.3075 5.26187C20.0304 5.56975 19.5562 5.59471 19.2483 5.31761C18.9404 5.04052 18.9154 4.5663 19.1925 4.25842L19.2025 4.24731C19.4796 3.93943 19.9538 3.91447 20.2617 4.19156ZM20.3175 13.2508C20.5946 12.9429 20.5696 12.4687 20.2617 12.1916C19.9538 11.9145 19.4796 11.9394 19.2025 12.2473L19.1925 12.2584C18.9154 12.5663 18.9404 13.0405 19.2483 13.3176C19.5562 13.5947 20.0304 13.5697 20.3075 13.2619L20.3175 13.2508Z" fill="#292927"/>
</g>
</svg>
