<svg preserveAspectRatio="xMidYMid meet" overflow="visible" style="display: block;" viewBox="0 0 24 24" fill="none" xmlns="http://www.w3.org/2000/svg">
<g transform="translate(1.2500, 4.2500)">
<path id="Vector" fill-rule="evenodd" clip-rule="evenodd" d="M1.5 14V1.5H20V14H1.5ZM1.35 0C0.604417 0 0 0.604415 0 1.35V14.15C0 14.8956 0.604415 15.5 1.35 15.5H20.15C20.8956 15.5 21.5 14.8956 21.5 14.15V1.35C21.5 0.604417 20.8956 0 20.15 0H1.35ZM11.5 10.7499L11.5 4.74989C11.5 4.33567 11.8358 3.99989 12.25 3.99989C12.6642 3.99989 13 4.33567 13 4.74989L13 6.7538L15.1856 4.25601C15.4583 3.94428 15.9322 3.91269 16.2439 4.18545C16.5556 4.45821 16.5872 4.93204 16.3144 5.24376L14.544 7.26711L16.3939 10.3654C16.6063 10.721 16.4901 11.1815 16.1345 11.3938C15.7788 11.6062 15.3184 11.49 15.1061 11.1344L13.5056 8.45389L13 9.03169V10.7499C13 11.1641 12.6642 11.4999 12.25 11.4999C11.8358 11.4999 11.5 11.1641 11.5 10.7499ZM4.58875 9.60389C4.45823 9.36003 4.47254 9.06412 4.62596 8.83398L7.62597 4.33398C7.85573 3.98933 8.32138 3.8962 8.66603 4.12596C9.01067 4.35573 9.1038 4.82138 8.87404 5.16603L6.65139 8.5L8.75 8.5C8.94891 8.5 9.13968 8.57902 9.28033 8.71967C9.42098 8.86032 9.5 9.05109 9.5 9.25V10.75C9.5 11.1642 9.16422 11.5 8.75 11.5C8.33579 11.5 8 11.1642 8 10.75V10L5.25 10C4.9734 10 4.71926 9.84776 4.58875 9.60389Z" fill="#292927"/>
</g>
</svg>
