<svg preserveAspectRatio="xMidYMid meet" overflow="visible" style="display: block;" viewBox="0 0 24 24" fill="none" xmlns="http://www.w3.org/2000/svg">
<g transform="translate(2.2500, 4.2500)">
<path id="Vector" fill-rule="evenodd" clip-rule="evenodd" d="M0 0.75C0 0.335786 0.335786 0 0.75 0H7.75H14.75C14.9489 0 15.1397 0.0790176 15.2803 0.21967C15.421 0.360322 15.5 0.551088 15.5 0.75V2.75C15.5 3.16421 15.1642 3.5 14.75 3.5C14.3358 3.5 14 3.16421 14 2.75V1.5H8.5V14H9.75C10.1642 14 10.5 14.3358 10.5 14.75C10.5 15.1642 10.1642 15.5 9.75 15.5H5.75C5.33579 15.5 5 15.1642 5 14.75C5 14.3358 5.33579 14 5.75 14H7V1.5H1.5V2.75C1.5 3.16421 1.16421 3.5 0.75 3.5C0.335786 3.5 0 3.16421 0 2.75V0.75ZM10.75 7C10.3358 7 10 7.33579 10 7.75V9.75C10 10.1642 10.3358 10.5 10.75 10.5C11.1642 10.5 11.5 10.1642 11.5 9.75V8.5H14V14H13.25C12.8358 14 12.5 14.3358 12.5 14.75C12.5 15.1642 12.8358 15.5 13.25 15.5H16.25C16.6642 15.5 17 15.1642 17 14.75C17 14.3358 16.6642 14 16.25 14H15.5V8.5H18V9.75C18 10.1642 18.3358 10.5 18.75 10.5C19.1642 10.5 19.5 10.1642 19.5 9.75V7.75C19.5 7.55109 19.421 7.36032 19.2803 7.21967C19.1397 7.07902 18.9489 7 18.75 7H14.75H10.75Z" fill="#FAFAF9"/>
</g>
</svg>
