<svg preserveAspectRatio="xMidYMid meet" overflow="visible" style="display: block;" viewBox="0 0 24 24" fill="none" xmlns="http://www.w3.org/2000/svg">
<g transform="translate(2.2500, 2.2500)">
<path id="Vector" fill-rule="evenodd" clip-rule="evenodd" d="M14.75 18C16.5449 18 18 16.5449 18 14.75V4.75C18 2.95507 16.5449 1.5 14.75 1.5H4.75C2.95507 1.5 1.5 2.95507 1.5 4.75V14.75C1.5 16.5449 2.95507 18 4.75 18H14.75ZM19.5 14.75C19.5 17.3734 17.3734 19.5 14.75 19.5H4.75C2.12665 19.5 0 17.3734 0 14.75V4.75C0 2.12665 2.12665 0 4.75 0H14.75C17.3734 0 19.5 2.12665 19.5 4.75V14.75ZM4.75 14.5C4.33579 14.5 4 14.1642 4 13.75V5.75C4 5.55109 4.07902 5.36032 4.21967 5.21967C4.36032 5.07902 4.55109 5 4.75 5L6.75 5C8.26878 5 9.5 6.23122 9.5 7.75C9.5 9.26878 8.26878 10.5 6.75 10.5H5.5V13.75C5.5 14.1642 5.16421 14.5 4.75 14.5ZM5.5 9H6.75C7.44036 9 8 8.44036 8 7.75C8 7.05964 7.44036 6.5 6.75 6.5H5.5V9ZM14.0792 9.08541C14.2644 9.45589 14.7149 9.60606 15.0854 9.42082C15.4559 9.23558 15.6061 8.78507 15.4208 8.41459C14.9873 7.54764 14.1013 7 13.132 7H12.75C11.5074 7 10.5 8.00736 10.5 9.25C10.5 10.4926 11.5074 11.5 12.75 11.5H13.25C13.6642 11.5 14 11.8358 14 12.25C14 12.6642 13.6642 13 13.25 13H12.868C12.4669 13 12.1002 12.7734 11.9208 12.4146C11.7356 12.0441 11.2851 11.8939 10.9146 12.0792C10.5441 12.2644 10.3939 12.7149 10.5792 13.0854C11.0127 13.9524 11.8988 14.5 12.868 14.5H13.25C14.4926 14.5 15.5 13.4926 15.5 12.25C15.5 11.0074 14.4926 10 13.25 10H12.75C12.3358 10 12 9.66421 12 9.25C12 8.83579 12.3358 8.5 12.75 8.5H13.132C13.5331 8.5 13.8998 8.72663 14.0792 9.08541Z" fill="#292927"/>
</g>
</svg>
