<svg preserveAspectRatio="xMidYMid meet" overflow="visible" style="display: block;" viewBox="0 0 24 24" fill="none" xmlns="http://www.w3.org/2000/svg">
<g transform="translate(1.2500, 8.2500)">
<path id="Vector" fill-rule="evenodd" clip-rule="evenodd" d="M0.21967 3.21967C-0.0732233 3.51256 -0.0732233 3.98744 0.21967 4.28033L3.21967 7.28033C3.51256 7.57322 3.98744 7.57322 4.28033 7.28033C4.57322 6.98744 4.57322 6.51256 4.28033 6.21967L2.56066 4.5H13.75C14.1642 4.5 14.5 4.16421 14.5 3.75C14.5 3.33579 14.1642 3 13.75 3H2.56066L4.28033 1.28033C4.57322 0.987437 4.57322 0.512563 4.28033 0.21967C3.98744 -0.0732232 3.51256 -0.0732232 3.21967 0.21967L0.21967 3.21967ZM20 3.75C20 3.05964 19.4404 2.5 18.75 2.5C18.0596 2.5 17.5 3.05964 17.5 3.75C17.5 4.44036 18.0596 5 18.75 5C19.4404 5 20 4.44036 20 3.75ZM18.75 1C20.2688 1 21.5 2.23122 21.5 3.75C21.5 5.26878 20.2688 6.5 18.75 6.5C17.2312 6.5 16 5.26878 16 3.75C16 2.23122 17.2312 1 18.75 1Z" fill="#292927"/>
</g>
</svg>
