<svg preserveAspectRatio="xMidYMid meet" overflow="visible" style="display: block;" viewBox="0 0 24 24" fill="none" xmlns="http://www.w3.org/2000/svg">
<g transform="translate(2.2843, 1.5087)">
<path id="Vector" fill-rule="evenodd" clip-rule="evenodd" d="M1.51697 3.08503L1.5712 3.49174C1.78472 3.63937 2.06238 3.78835 2.40928 3.93225C2.95582 4.15896 3.63083 4.35534 4.40369 4.51564C5.94933 4.83621 7.82513 5 9.71566 5C11.6062 5 13.482 4.8362 15.0276 4.51563C15.8005 4.35533 16.4755 4.15895 17.022 3.93224C17.3689 3.78834 17.6466 3.63936 17.8601 3.49174L17.9144 3.08503C17.1893 2.62075 14.904 1.5 9.71566 1.5C4.52732 1.5 2.24204 2.62075 1.51697 3.08503ZM3.19746 15.6887L3.15536 15.3729L5.49167 15.0392L8.20939 17.304L10.3651 19.4597C8.56824 19.586 6.74274 19.1874 5.12638 18.2637L4.8065 18.0809C3.92645 17.5781 3.33142 16.6934 3.19746 15.6887ZM5.33 13.547L2.9571 13.886L1.8135 5.30901L1.83455 5.31778C2.49337 5.59107 3.26479 5.81135 4.09907 5.98438C5.76771 6.33047 7.74905 6.5 9.71566 6.5C11.6823 6.5 13.6636 6.33046 15.3323 5.98437C16.1665 5.81133 16.938 5.59105 17.5968 5.31777L17.6178 5.30901L17.0248 9.75684L11.8193 12.3596L9.65038 10.5522C9.08322 10.0796 8.2416 10.1502 7.76114 10.7107L5.33 13.547ZM6.78002 14.1602L8.62777 15.7L10.6515 13.339L8.80375 11.7992L6.78002 14.1602ZM12.1762 19.1494L9.73726 16.7105L11.904 14.1826L16.098 16.2796C15.8484 17.0346 15.3274 17.6795 14.6248 18.0809L14.3049 18.2637C13.6264 18.6515 12.9109 18.9467 12.1762 19.1494ZM16.3611 14.7341L16.7852 11.5537L13.3927 13.2499L16.3611 14.7341ZM0.511991 1.95403C1.36351 1.34774 3.9132 0 9.71566 0C15.5181 0 18.0678 1.34774 18.9193 1.95403C19.3356 2.2504 19.4748 2.73112 19.4199 3.14303L17.7207 15.8869C17.5249 17.3553 16.6553 18.6483 15.369 19.3833L15.0492 19.5661C11.7443 21.4546 7.68707 21.4546 4.38217 19.5661L4.06229 19.3833C2.77607 18.6483 1.9064 17.3553 1.71062 15.8869L0.011427 3.14303C-0.0434936 2.73112 0.0957431 2.2504 0.511991 1.95403Z" fill="#292927"/>
</g>
</svg>
