<svg preserveAspectRatio="xMidYMid meet" overflow="visible" style="display: block;" viewBox="0 0 24 24" fill="none" xmlns="http://www.w3.org/2000/svg">
<g transform="translate(1.2500, 1.2500)">
<path id="Vector" fill-rule="evenodd" clip-rule="evenodd" d="M11.5 0.75C11.5 0.335786 11.1642 0 10.75 0C10.3358 0 10 0.335786 10 0.75V2.75C10 3.16421 10.3358 3.5 10.75 3.5C11.1642 3.5 11.5 3.16421 11.5 2.75V0.75ZM10.75 15.5783L14.7737 10.7498L10.75 5.92136L6.72628 10.7498L10.75 15.5783ZM11.7871 16.6768C11.2474 17.3245 10.2526 17.3245 9.7129 16.6768L5.49392 11.6141C5.07672 11.1134 5.07672 10.3862 5.49392 9.88558L9.7129 4.82281C10.2526 4.17514 11.2474 4.17514 11.7871 4.82281L16.0061 9.88558C16.4233 10.3862 16.4233 11.1134 16.0061 11.6141L11.7871 16.6768ZM10.75 18C11.1642 18 11.5 18.3358 11.5 18.75V20.75C11.5 21.1642 11.1642 21.5 10.75 21.5C10.3358 21.5 10 21.1642 10 20.75V18.75C10 18.3358 10.3358 18 10.75 18ZM0 10.75C0 10.3358 0.335786 10 0.75 10H2.75C3.16421 10 3.5 10.3358 3.5 10.75C3.5 11.1642 3.16421 11.5 2.75 11.5H0.75C0.335786 11.5 0 11.1642 0 10.75ZM18.75 10C18.3358 10 18 10.3358 18 10.75C18 11.1642 18.3358 11.5 18.75 11.5H20.75C21.1642 11.5 21.5 11.1642 21.5 10.75C21.5 10.3358 21.1642 10 20.75 10H18.75Z" fill="#292927"/>
</g>
</svg>
