<svg preserveAspectRatio="xMidYMid meet" overflow="visible" style="display: block;" viewBox="0 0 24 24" fill="none" xmlns="http://www.w3.org/2000/svg">
<g transform="translate(2.2500, 2.2500)">
<path id="Vector" fill-rule="evenodd" clip-rule="evenodd" d="M1.5 2.75C1.5 2.05964 2.05964 1.5 2.75 1.5H16.75C17.4404 1.5 18 2.05964 18 2.75V16.75C18 17.4404 17.4404 18 16.75 18H2.75C2.05964 18 1.5 17.4404 1.5 16.75V2.75ZM2.75 0C1.23122 0 0 1.23122 0 2.75V16.75C0 18.2688 1.23122 19.5 2.75 19.5H16.75C18.2688 19.5 19.5 18.2688 19.5 16.75V2.75C19.5 1.23122 18.2688 0 16.75 0H2.75ZM14.9954 9.83282C15.0195 9.61558 14.9477 9.39862 14.7987 9.23871C14.6497 9.07879 14.4383 8.99184 14.2199 9.0006L10.9065 9.13353L11.871 7.70902C11.9878 7.53656 12.0276 7.32331 11.9809 7.12034C11.9342 6.91737 11.8052 6.74297 11.6248 6.63889L8.95813 5.10043C8.625 4.90824 8.2005 4.99917 7.97533 5.31095L6.64199 7.1571C6.39947 7.4929 6.47509 7.96171 6.81088 8.20423C7.14668 8.44675 7.61549 8.37113 7.85801 8.03534L8.79496 6.73802L10.1771 7.53541L9.11721 9.10078C8.83886 9.03488 8.5485 9 8.25 9C6.17893 9 4.5 10.6789 4.5 12.75C4.5 14.8211 6.17893 16.5 8.25 16.5C10.3211 16.5 12 14.8211 12 12.75C12 11.9578 11.7544 11.223 11.3351 10.6175L13.4082 10.5344L13.0046 14.1672C12.9588 14.5789 13.2555 14.9497 13.6672 14.9954C14.0789 15.0412 14.4497 14.7445 14.4954 14.3328L14.9954 9.83282ZM14.5 4.75C14.5 4.05964 13.9404 3.5 13.25 3.5C12.5596 3.5 12 4.05964 12 4.75C12 5.44036 12.5596 6 13.25 6C13.9404 6 14.5 5.44036 14.5 4.75ZM10.5 12.75C10.5 11.5074 9.49264 10.5 8.25 10.5C7.00736 10.5 6 11.5074 6 12.75C6 13.9926 7.00736 15 8.25 15C9.49264 15 10.5 13.9926 10.5 12.75Z" fill="#292927"/>
</g>
</svg>
