<svg preserveAspectRatio="xMidYMid meet" overflow="visible" style="display: block;" viewBox="0 0 24 24" fill="none" xmlns="http://www.w3.org/2000/svg">
<g transform="translate(2.2500, 2.2500)">
<path id="Vector" fill-rule="evenodd" clip-rule="evenodd" d="M5.28033 0.21967C5.57322 0.512563 5.57322 0.987437 5.28033 1.28033L2.56066 4H4.75C6.89213 4 8.76066 5.1714 9.75 6.90856C10.7393 5.1714 12.6079 4 14.75 4H16.9393L14.2197 1.28033C13.9268 0.987437 13.9268 0.512563 14.2197 0.21967C14.5126 -0.0732233 14.9874 -0.0732233 15.2803 0.21967L19.2803 4.21967C19.3522 4.29158 19.4065 4.37445 19.4431 4.46291C19.4751 4.54009 19.4946 4.62376 19.499 4.71141C19.4997 4.72419 19.5 4.73706 19.5 4.75C19.5 4.94194 19.4268 5.13388 19.2803 5.28033L15.2803 9.28033C14.9874 9.57322 14.5126 9.57322 14.2197 9.28033C13.9268 8.98744 13.9268 8.51256 14.2197 8.21967L16.9393 5.5H14.75C12.4028 5.5 10.5 7.40283 10.5 9.75V18.75C10.5 19.1642 10.1642 19.5 9.75 19.5C9.33579 19.5 9 19.1642 9 18.75V9.75C9 7.40283 7.0972 5.5 4.75 5.5H2.56066L5.28033 8.21967C5.57322 8.51256 5.57322 8.98744 5.28033 9.28033C4.98744 9.57322 4.51256 9.57322 4.21967 9.28033L0.21967 5.28033C0.147763 5.20842 0.0935089 5.12555 0.0569091 5.03709C0.0202391 4.94866 0 4.85169 0 4.75C0 4.55806 0.0732233 4.36612 0.21967 4.21967L4.21967 0.21967C4.51256 -0.0732233 4.98744 -0.0732233 5.28033 0.21967Z" fill="#292927"/>
</g>
</svg>
