<svg preserveAspectRatio="xMidYMid meet" overflow="visible" style="display: block;" viewBox="0 0 24 24" fill="none" xmlns="http://www.w3.org/2000/svg">
<g transform="translate(2.2500, 2.2500)">
<path id="Vector" fill-rule="evenodd" clip-rule="evenodd" d="M1.5 1.5H18V18H1.5V1.5ZM18.15 19.5C18.8956 19.5 19.5 18.8956 19.5 18.15V1.35C19.5 0.604418 18.8956 0 18.15 0H1.35C0.604418 0 0 0.604414 0 1.35V18.15C0 18.8956 0.604414 19.5 1.35 19.5H18.15ZM4.5 9.75C4.5 6.8505 6.8505 4.5 9.75 4.5C10.1012 4.5 10.4438 4.53438 10.7748 4.59983L7.31086 14.4004C5.63902 13.5217 4.5 11.7681 4.5 9.75ZM8.72517 14.9002L12.1891 5.09958C13.861 5.97831 15 7.73189 15 9.75C15 12.6495 12.6495 15 9.75 15C9.39883 15 9.05622 14.9656 8.72517 14.9002ZM9.75 3C6.02208 3 3 6.02208 3 9.75C3 12.6902 4.87939 15.1894 7.50007 16.1157C8.20478 16.3648 8.96241 16.5 9.75 16.5C13.4779 16.5 16.5 13.4779 16.5 9.75C16.5 6.80984 14.6206 4.31056 11.9999 3.38428C11.2952 3.1352 10.5376 3 9.75 3Z" fill="#292927"/>
</g>
</svg>
