<svg preserveAspectRatio="xMidYMid meet" overflow="visible" style="display: block;" viewBox="0 0 24 24" fill="none" xmlns="http://www.w3.org/2000/svg">
<g transform="translate(1.2500, 2.2500)">
<path id="Vector" fill-rule="evenodd" clip-rule="evenodd" d="M2.28033 0.21967C1.98744 -0.0732233 1.51256 -0.0732233 1.21967 0.21967C0.926777 0.512563 0.926777 0.987437 1.21967 1.28033L2.03359 2.09425C0.862192 2.40946 0 3.47904 0 4.75V14.75C0 16.2688 1.23122 17.5 2.75 17.5H17.4393L19.2197 19.2803C19.5126 19.5732 19.9874 19.5732 20.2803 19.2803C20.5732 18.9874 20.5732 18.5126 20.2803 18.2197L19.4664 17.4058C20.6378 17.0905 21.5 16.021 21.5 14.75V4.75C21.5 3.23122 20.2688 2 18.75 2H8.75C8.33579 2 8 2.33579 8 2.75C8 3.16421 8.33579 3.5 8.75 3.5H18.75C19.4404 3.5 20 4.05964 20 4.75V6H12.75C12.3358 6 12 6.33579 12 6.75C12 7.16421 12.3358 7.5 12.75 7.5H20V14.75C20 15.4404 19.4404 16 18.75 16H18.0607L2.28033 0.21967ZM2.75 3.5H3.43934L5.93934 6H4.75C4.33579 6 4 6.33579 4 6.75C4 7.16421 4.33579 7.5 4.75 7.5H7.43934L15.9393 16H2.75C2.05964 16 1.5 15.4404 1.5 14.75V4.75C1.5 4.05964 2.05964 3.5 2.75 3.5Z" fill="#292927"/>
</g>
</svg>
