<svg preserveAspectRatio="xMidYMid meet" overflow="visible" style="display: block;" viewBox="0 0 24 24" fill="none" xmlns="http://www.w3.org/2000/svg">
<g transform="translate(3.4418, 2.9185)">
<path id="Vector" fill-rule="evenodd" clip-rule="evenodd" d="M15.9834 2.63204C16.1796 2.7673 16.3083 2.99363 16.3083 3.25C16.3083 3.41955 16.252 3.57595 16.1571 3.70157C16.1144 3.75821 16.0635 3.80912 16.0052 3.85235C16.0003 3.85598 15.9954 3.85956 15.9904 3.86308L12.4942 6.36036C12.1571 6.60112 11.6887 6.52305 11.448 6.18599C11.2072 5.84893 11.2853 5.38051 11.6223 5.13976L13.218 4H12.5606L12.5589 4.00002L12.5383 4.00056C12.5179 4.00124 12.4844 4.00272 12.4398 4.00591C12.3504 4.01229 12.2177 4.02543 12.0566 4.0523C11.7307 4.10661 11.3076 4.21384 10.8937 4.42082C10.4826 4.62633 10.0944 4.92283 9.8073 5.35353C9.5233 5.77953 9.30826 6.38124 9.30826 7.25C9.30826 7.66421 8.97248 8 8.55826 8C8.14405 8 7.80826 7.66421 7.80826 7.25C7.80826 6.11876 8.09323 5.22047 8.55922 4.52147C9.02209 3.82717 9.63388 3.37367 10.2229 3.07918C10.8089 2.78616 11.3858 2.64339 11.81 2.5727C12.0238 2.53706 12.2036 2.51896 12.333 2.50972C12.3977 2.50509 12.4502 2.50266 12.4884 2.50139C12.5074 2.50076 12.523 2.50041 12.5347 2.50022L12.5494 2.50004L12.5537 2.50001L12.5555 2.5L12.5566 2.5L12.5583 2.5H13.2178L11.6223 1.36036C11.2853 1.1196 11.2072 0.651189 11.448 0.31413C11.6887 -0.0229298 12.1571 -0.100999 12.4942 0.139758L15.9834 2.63204ZM7.72781 9.48468C8.20142 9.0637 8.91511 9.0637 9.38872 9.48468L16.6919 15.9764C17.6423 16.8212 16.8711 18.3804 15.6229 18.1377L8.55826 16.764L1.49366 18.1377C0.245425 18.3804 -0.525794 16.8212 0.424621 15.9764L7.72781 9.48468ZM8.55826 10.7534L2.10348 16.491L8.31968 15.2823C8.47726 15.2517 8.63927 15.2517 8.79685 15.2823L15.013 16.491L8.55826 10.7534Z" fill="#292927"/>
</g>
</svg>
