<svg preserveAspectRatio="xMidYMid meet" overflow="visible" style="display: block;" viewBox="0 0 24 24" fill="none" xmlns="http://www.w3.org/2000/svg">
<g transform="translate(0.7500, 2.2500)">
<path id="Vector" fill-rule="evenodd" clip-rule="evenodd" d="M4.25 0C2.73122 0 1.5 1.23122 1.5 2.75V7.5H0.75C0.335786 7.5 0 7.83579 0 8.25V11.25C0 11.6642 0.335786 12 0.75 12H1.5V16.75C1.5 18.2688 2.73122 19.5 4.25 19.5H18.25C19.7688 19.5 21 18.2688 21 16.75V12H21.75C22.1642 12 22.5 11.6642 22.5 11.25V8.25C22.5 7.83579 22.1642 7.5 21.75 7.5H21V2.75C21 1.23122 19.7688 0 18.25 0H4.25ZM3 12V16.75C3 17.4404 3.55964 18 4.25 18H18.25C18.9404 18 19.5 17.4404 19.5 16.75V12H18.75C18.3358 12 18 11.6642 18 11.25V8.25C18 7.83579 18.3358 7.5 18.75 7.5H19.5V2.75C19.5 2.05964 18.9404 1.5 18.25 1.5H4.25C3.55964 1.5 3 2.05964 3 2.75V7.5H3.75C4.16421 7.5 4.5 7.83579 4.5 8.25V11.25C4.5 11.6642 4.16421 12 3.75 12H3ZM7.25 5C6.83579 5 6.5 5.33579 6.5 5.75C6.5 6.16421 6.83579 6.5 7.25 6.5H10.5L10.5 13.75C10.5 14.1642 10.8358 14.5 11.25 14.5C11.6642 14.5 12 14.1642 12 13.75L12 6.5H15.25C15.6642 6.5 16 6.16421 16 5.75C16 5.33579 15.6642 5 15.25 5H7.25ZM19.5 9V10.5H21V9H19.5ZM1.5 10.5V9H3V10.5H1.5Z" fill="#292927"/>
</g>
</svg>
