<svg preserveAspectRatio="xMidYMid meet" overflow="visible" style="display: block;" viewBox="0 0 24 24" fill="none" xmlns="http://www.w3.org/2000/svg">
<g transform="translate(1.2500, 2.2500)">
<path id="Vector" fill-rule="evenodd" clip-rule="evenodd" d="M1.75 0C1.33579 0 1 0.335786 1 0.75V3.75C1 4.16421 1.33579 4.5 1.75 4.5C2.16421 4.5 2.5 4.16421 2.5 3.75V1.5H4.75C5.16421 1.5 5.5 1.16421 5.5 0.75C5.5 0.335786 5.16421 0 4.75 0H1.75ZM6.5 3.75C6.5 3.33579 6.16421 3 5.75 3C5.33579 3 5 3.33579 5 3.75L5 9H0.75C0.335786 9 0 9.33579 0 9.75C0 10.1642 0.335786 10.5 0.75 10.5H5.75H8.75H9.75H12.75H15.75H20.75C21.1642 10.5 21.5 10.1642 21.5 9.75C21.5 9.33579 21.1642 9 20.75 9H16.5V3.75C16.5 3.33579 16.1642 3 15.75 3C15.3358 3 15 3.33579 15 3.75V9H13.5V3.75C13.5 3.33579 13.1642 3 12.75 3C12.3358 3 12 3.33579 12 3.75V9H10.5V3.75C10.5 3.33579 10.1642 3 9.75 3H8.75C8.55109 3 8.36032 3.07902 8.21967 3.21967C8.07902 3.36032 8 3.55109 8 3.75V9H6.5L6.5 3.75ZM8.75 12C8.55109 12 8.36032 12.079 8.21967 12.2197C8.07902 12.3603 8 12.5511 8 12.75V15.75C8 16.1642 8.33579 16.5 8.75 16.5H9.75C9.94891 16.5 10.1397 16.421 10.2803 16.2803C10.421 16.1397 10.5 15.9489 10.5 15.75V12.75C10.5 12.3358 10.1642 12 9.75 12H8.75ZM5.75 12C6.16421 12 6.5 12.3358 6.5 12.75V15.75C6.5 16.1642 6.16421 16.5 5.75 16.5C5.33579 16.5 5 16.1642 5 15.75V12.75C5 12.3358 5.33579 12 5.75 12ZM12.75 12C13.1642 12 13.5 12.3358 13.5 12.75V15.75C13.5 16.1642 13.1642 16.5 12.75 16.5C12.3358 16.5 12 16.1642 12 15.75V12.75C12 12.3358 12.3358 12 12.75 12ZM15.75 12C16.1642 12 16.5 12.3358 16.5 12.75V15.75C16.5 16.1642 16.1642 16.5 15.75 16.5C15.3358 16.5 15 16.1642 15 15.75V12.75C15 12.3358 15.3358 12 15.75 12ZM19.75 0C20.1642 0 20.5 0.335786 20.5 0.75V3.75C20.5 4.16421 20.1642 4.5 19.75 4.5C19.3358 4.5 19 4.16421 19 3.75V1.5H16.75C16.3358 1.5 16 1.16421 16 0.75C16 0.335786 16.3358 0 16.75 0H19.75ZM1 18.75C1 19.1642 1.33579 19.5 1.75 19.5H4.75C5.16421 19.5 5.5 19.1642 5.5 18.75C5.5 18.3358 5.16421 18 4.75 18H2.5V15.75C2.5 15.3358 2.16421 15 1.75 15C1.33579 15 1 15.3358 1 15.75V18.75ZM19.75 19.5C20.1642 19.5 20.5 19.1642 20.5 18.75V15.75C20.5 15.3358 20.1642 15 19.75 15C19.3358 15 19 15.3358 19 15.75V18H16.75C16.3358 18 16 18.3358 16 18.75C16 19.1642 16.3358 19.5 16.75 19.5H19.75Z" fill="#292927"/>
</g>
</svg>
