<svg preserveAspectRatio="xMidYMid meet" overflow="visible" style="display: block;" viewBox="0 0 24 24" fill="none" xmlns="http://www.w3.org/2000/svg">
<g transform="translate(2.6287, 2.1287)">
<path id="Vector" fill-rule="evenodd" clip-rule="evenodd" d="M14.5 2.75C14.5 2.05964 15.0596 1.5 15.75 1.5C16.4404 1.5 17 2.05964 17 2.75C17 3.44036 16.4404 4 15.75 4C15.0596 4 14.5 3.44036 14.5 2.75ZM15.75 0C14.2312 0 13 1.23122 13 2.75C13 4.26878 14.2312 5.5 15.75 5.5C17.2688 5.5 18.5 4.26878 18.5 2.75C18.5 1.23122 17.2688 0 15.75 0ZM14.5 9.75C14.5 9.05964 15.0596 8.5 15.75 8.5C16.4404 8.5 17 9.05964 17 9.75C17 10.4404 16.4404 11 15.75 11C15.0596 11 14.5 10.4404 14.5 9.75ZM15.75 7C14.2312 7 13 8.23122 13 9.75C13 11.2688 14.2312 12.5 15.75 12.5C17.2688 12.5 18.5 11.2688 18.5 9.75C18.5 8.23122 17.2688 7 15.75 7ZM0 2.75C0 2.33579 0.335786 2 0.75 2H10.75C11.1642 2 11.5 2.33579 11.5 2.75C11.5 3.16421 11.1642 3.5 10.75 3.5H0.75C0.335786 3.5 0 3.16421 0 2.75ZM0.75 9C0.335786 9 0 9.33579 0 9.75C0 10.1642 0.335786 10.5 0.75 10.5H10.75C11.1642 10.5 11.5 10.1642 11.5 9.75C11.5 9.33579 11.1642 9 10.75 9H0.75ZM0 16.75C0 16.3358 0.335786 16 0.75 16H10.75C11.1642 16 11.5 16.3358 11.5 16.75C11.5 17.1642 11.1642 17.5 10.75 17.5H0.75C0.335786 17.5 0 17.1642 0 16.75ZM14.2803 14.2197C13.9874 13.9268 13.5126 13.9268 13.2197 14.2197C12.9268 14.5126 12.9268 14.9874 13.2197 15.2803L14.8107 16.8713L13.2197 18.4623C12.9268 18.7552 12.9268 19.2301 13.2197 19.523C13.5126 19.8159 13.9874 19.8159 14.2803 19.523L15.8713 17.932L17.4623 19.523C17.7552 19.8159 18.2301 19.8159 18.523 19.523C18.8159 19.2301 18.8159 18.7552 18.523 18.4623L16.932 16.8713L18.523 15.2803C18.8159 14.9874 18.8159 14.5126 18.523 14.2197C18.2301 13.9268 17.7552 13.9268 17.4623 14.2197L15.8713 15.8107L14.2803 14.2197Z" fill="#292927"/>
</g>
</svg>
