<svg preserveAspectRatio="xMidYMid meet" overflow="visible" style="display: block;" viewBox="0 0 24 24" fill="none" xmlns="http://www.w3.org/2000/svg">
<g transform="translate(2.1854, 1.2500)">
<path id="Vector" fill-rule="evenodd" clip-rule="evenodd" d="M4.87912 0C4.4649 0 4.12912 0.335786 4.12912 0.75C4.12912 1.16421 4.4649 1.5 4.87912 1.5H14.0685L18.1291 5.56066V17.75C18.1291 18.1642 18.4649 18.5 18.8791 18.5C19.2933 18.5 19.6291 18.1642 19.6291 17.75V5.25C19.6291 5.05109 19.5501 4.86032 19.4094 4.71967L14.9094 0.21967C14.7688 0.0790176 14.578 0 14.3791 0H4.87912ZM1.28033 15.0983C0.987437 14.8055 0.512563 14.8055 0.21967 15.0983C-0.0732233 15.3912 -0.0732233 15.8661 0.21967 16.159L1.81066 17.75L0.21967 19.341C-0.0732233 19.6339 -0.0732233 20.1088 0.21967 20.4016C0.512563 20.6945 0.987437 20.6945 1.28033 20.4016L2.87132 18.8107L4.46231 20.4016C4.7552 20.6945 5.23008 20.6945 5.52297 20.4016C5.81586 20.1088 5.81586 19.6339 5.52297 19.341L3.93198 17.75L5.52297 16.159C5.81586 15.8661 5.81586 15.3912 5.52297 15.0983C5.23008 14.8055 4.7552 14.8055 4.46231 15.0983L2.87132 16.6893L1.28033 15.0983ZM0.129116 5.25C0.129116 4.00736 1.13648 3 2.37912 3H11.8791H12.1306C12.4886 3 12.832 3.14223 13.0852 3.39541L16.2337 6.54393C16.4869 6.79711 16.6291 7.14049 16.6291 7.49853V7.75V19.25C16.6291 20.4926 15.6218 21.5 14.3791 21.5H8.87912C8.4649 21.5 8.12912 21.1642 8.12912 20.75C8.12912 20.3358 8.4649 20 8.87912 20H14.3791C14.7933 20 15.1291 19.6642 15.1291 19.25V8.5H12.4791C11.7335 8.5 11.1291 7.89558 11.1291 7.15V4.5H2.37912C1.9649 4.5 1.62912 4.83579 1.62912 5.25V11.75C1.62912 12.1642 1.29333 12.5 0.879116 12.5C0.464902 12.5 0.129116 12.1642 0.129116 11.75V5.25ZM12.6291 5.06066V7H14.5685L12.6291 5.06066Z" fill="#292927"/>
</g>
</svg>
