<svg preserveAspectRatio="xMidYMid meet" overflow="visible" style="display: block;" viewBox="0 0 24 24" fill="none" xmlns="http://www.w3.org/2000/svg">
<g transform="translate(5.2500, 1.2500)">
<path id="Vector" fill-rule="evenodd" clip-rule="evenodd" d="M12.75 1.5C13.1642 1.5 13.5 1.16421 13.5 0.75C13.5 0.335786 13.1642 0 12.75 0H0.75C0.335787 0 0 0.335786 0 0.75C0 1.16421 0.335787 1.5 0.75 1.5H12.75ZM12.75 21.5C13.1642 21.5 13.5 21.1642 13.5 20.75C13.5 20.3358 13.1642 20 12.75 20H0.75C0.335787 20 0 20.3358 0 20.75C0 21.1642 0.335787 21.5 0.75 21.5H12.75ZM7.28033 18.2803L10.2803 15.2803C10.5732 14.9874 10.5732 14.5126 10.2803 14.2197C9.98744 13.9268 9.51256 13.9268 9.21967 14.2197L7.5 15.9393V12.75C7.5 12.3358 7.16421 12 6.75 12C6.33579 12 6 12.3358 6 12.75V15.9393L4.28033 14.2197C3.98744 13.9268 3.51256 13.9268 3.21967 14.2197C2.92678 14.5126 2.92678 14.9874 3.21967 15.2803L6.21967 18.2803C6.51256 18.5732 6.98744 18.5732 7.28033 18.2803ZM7.28033 3.21967C6.98744 2.92678 6.51256 2.92678 6.21967 3.21967L3.21967 6.21967C2.92678 6.51256 2.92678 6.98744 3.21967 7.28033C3.51256 7.57322 3.98744 7.57322 4.28033 7.28033L6 5.56066V8.75C6 9.16421 6.33579 9.5 6.75 9.5C7.16421 9.5 7.5 9.16421 7.5 8.75V5.56066L9.21967 7.28033C9.51256 7.57322 9.98744 7.57322 10.2803 7.28033C10.5732 6.98744 10.5732 6.51256 10.2803 6.21967L7.28033 3.21967Z" fill="#292927"/>
</g>
</svg>
