<svg preserveAspectRatio="xMidYMid meet" overflow="visible" style="display: block;" viewBox="0 0 24 24" fill="none" xmlns="http://www.w3.org/2000/svg">
<g transform="translate(1.2500, 1.2500)">
<path id="Vector" fill-rule="evenodd" clip-rule="evenodd" d="M1.5 10.75C1.5 5.64137 5.64137 1.5 10.75 1.5C15.8586 1.5 20 5.64137 20 10.75C20 15.8586 15.8586 20 10.75 20C9.06393 20 7.48533 19.5496 6.12554 18.763C5.9706 18.6733 5.7887 18.6421 5.61272 18.6748L2.18742 19.3126L2.82515 15.8873C2.85792 15.7113 2.82666 15.5294 2.73703 15.3745C1.95043 14.0147 1.5 12.4361 1.5 10.75ZM10.75 0C4.81294 0 0 4.81294 0 10.75C0 12.6063 0.471126 14.3546 1.30076 15.8798L0.512671 20.1127C0.467419 20.3558 0.544853 20.6055 0.71967 20.7803C0.894487 20.9551 1.14423 21.0326 1.38728 20.9873L5.62016 20.1992C7.14536 21.0289 8.89369 21.5 10.75 21.5C16.6871 21.5 21.5 16.6871 21.5 10.75C21.5 4.81294 16.6871 0 10.75 0ZM11.5 5.75C11.5 5.33579 11.1642 5 10.75 5C10.3358 5 10 5.33579 10 5.75V6.51724H5.75C5.33579 6.51724 5 6.85303 5 7.26724C5 7.68146 5.33579 8.01724 5.75 8.01724H12.9231C12.4112 9.34297 11.6372 10.6263 10.7361 11.8275C10.5532 11.5948 10.3686 11.3514 10.1955 11.1138C9.81989 10.5981 9.53774 10.1625 9.42856 9.93055C9.25213 9.55579 8.80531 9.39501 8.43055 9.57144C8.05579 9.74787 7.89501 10.1947 8.07144 10.5695C8.24797 10.9444 8.60868 11.4829 8.98305 11.9969C9.23463 12.3423 9.5099 12.7003 9.77417 13.0273C8.75394 14.2242 7.66148 15.2962 6.67369 16.1954C6.36738 16.4742 6.34512 16.9486 6.62396 17.2549C6.9028 17.5612 7.37715 17.5835 7.68346 17.3046C8.6605 16.4152 9.75293 15.3474 10.791 14.1458L12.355 15.7554C12.6436 16.0525 13.1184 16.0593 13.4155 15.7707C13.7126 15.482 13.7194 15.0072 13.4308 14.7101L11.7466 12.9767C12.8962 11.4847 13.9173 9.80776 14.5173 8.01724H15.75C16.1642 8.01724 16.5 7.68146 16.5 7.26724C16.5 6.85303 16.1642 6.51724 15.75 6.51724H11.5V5.75Z" fill="#292927"/>
</g>
</svg>
