<svg preserveAspectRatio="xMidYMid meet" overflow="visible" style="display: block;" viewBox="0 0 24 24" fill="none" xmlns="http://www.w3.org/2000/svg">
<g transform="translate(1.2500, 1.2500)">
<path id="Vector" fill-rule="evenodd" clip-rule="evenodd" d="M1.5 10.75C1.5 5.64137 5.64137 1.5 10.75 1.5C15.8586 1.5 20 5.64137 20 10.75C20 15.8586 15.8586 20 10.75 20C5.64137 20 1.5 15.8586 1.5 10.75ZM10.75 0C4.81294 0 0 4.81294 0 10.75C0 16.6871 4.81294 21.5 10.75 21.5C16.6871 21.5 21.5 16.6871 21.5 10.75C21.5 4.81294 16.6871 0 10.75 0ZM9 9.82609V7.5L11.3486 7.5C11.7773 7.5 12.0445 7.65412 12.2126 7.8444C12.3932 8.04883 12.5 8.34335 12.5 8.66304C12.5 8.98273 12.3932 9.27726 12.2126 9.48169C12.0445 9.67197 11.7773 9.82609 11.3486 9.82609H9ZM13.3367 10.4748C13.299 10.5176 13.2598 10.559 13.2192 10.599C13.2674 10.6495 13.3135 10.7019 13.3575 10.7562C13.7999 11.3026 14 11.9993 14 12.663C14 13.3268 13.7999 14.0235 13.3575 14.5698C12.9 15.1347 12.2116 15.5 11.3486 15.5H8.25C7.83579 15.5 7.5 15.1642 7.5 14.75V6.75C7.5 6.33579 7.83615 6 8.25036 6H11.3486C12.1875 6 12.871 6.32415 13.3367 6.85125C13.7899 7.36422 14 8.02621 14 8.66304C14 9.29987 13.7899 9.96187 13.3367 10.4748ZM11.3486 14H9V11.3261H11.3486C11.7532 11.3261 12.0155 11.4825 12.1918 11.7003C12.3832 11.9366 12.5 12.2833 12.5 12.663C12.5 13.0428 12.3832 13.3895 12.1918 13.6258C12.0155 13.8436 11.7532 14 11.3486 14Z" fill="#292927"/>
</g>
</svg>
