<svg preserveAspectRatio="xMidYMid meet" overflow="visible" style="display: block;" viewBox="0 0 24 24" fill="none" xmlns="http://www.w3.org/2000/svg">
<g transform="translate(1.2500, 1.7500)">
<path id="Vector" fill-rule="evenodd" clip-rule="evenodd" d="M1.5 2.75C1.5 2.05964 2.05964 1.5 2.75 1.5H18.75C19.4404 1.5 20 2.05964 20 2.75V4H1.5V2.75ZM0 4.75V2.75C0 1.23122 1.23122 0 2.75 0H18.75C20.2688 0 21.5 1.23122 21.5 2.75V4.75V12.75C21.5 13.1642 21.1642 13.5 20.75 13.5C20.3358 13.5 20 13.1642 20 12.75V5.5H1.5V16.75C1.5 17.4404 2.05964 18 2.75 18H11.75C12.1642 18 12.5 18.3358 12.5 18.75C12.5 19.1642 12.1642 19.5 11.75 19.5H2.75C1.23122 19.5 0 18.2688 0 16.75V4.75ZM4.26173 2.19058C4.56961 2.46768 4.59457 2.9419 4.31748 3.24978L4.30748 3.26089C4.03038 3.56877 3.55616 3.59373 3.24828 3.31663C2.9404 3.03954 2.91544 2.56532 3.19254 2.25744L3.20254 2.24633C3.47963 1.93845 3.95385 1.91349 4.26173 2.19058ZM7.31748 3.24978C7.59457 2.9419 7.56961 2.46768 7.26173 2.19058C6.95385 1.91349 6.47963 1.93845 6.20254 2.24633L6.19254 2.25744C5.91544 2.56532 5.9404 3.03954 6.24828 3.31663C6.55616 3.59373 7.03038 3.56877 7.30748 3.26089L7.31748 3.24978ZM10.2617 2.19058C10.5696 2.46768 10.5946 2.9419 10.3175 3.24978L10.3075 3.26089C10.0304 3.56877 9.55616 3.59373 9.24828 3.31663C8.9404 3.03954 8.91544 2.56532 9.19254 2.25744L9.20254 2.24633C9.47963 1.93845 9.95385 1.91349 10.2617 2.19058ZM15.2803 17.2197C14.9874 16.9268 14.5126 16.9268 14.2197 17.2197C13.9268 17.5126 13.9268 17.9874 14.2197 18.2803L16.2197 20.2803C16.5126 20.5732 16.9874 20.5732 17.2803 20.2803L21.2803 16.2803C21.5732 15.9874 21.5732 15.5126 21.2803 15.2197C20.9874 14.9268 20.5126 14.9268 20.2197 15.2197L16.75 18.6893L15.2803 17.2197Z" fill="#292927"/>
</g>
</svg>
