<svg preserveAspectRatio="xMidYMid meet" overflow="visible" style="display: block;" viewBox="0 0 24 24" fill="none" xmlns="http://www.w3.org/2000/svg">
<g transform="translate(1.2500, 1.2500)">
<path id="Vector" fill-rule="evenodd" clip-rule="evenodd" d="M20 10.75C20 5.64137 15.8586 1.5 10.75 1.5C5.64137 1.5 1.5 5.64137 1.5 10.75C1.5 15.8586 5.64137 20 10.75 20C15.8586 20 20 15.8586 20 10.75ZM10.75 0C16.6871 0 21.5 4.81294 21.5 10.75C21.5 16.6871 16.6871 21.5 10.75 21.5C4.81294 21.5 0 16.6871 0 10.75C0 4.81294 4.81294 0 10.75 0ZM4.0108 7.37673C3.96304 7.09807 4.07602 6.81623 4.30305 6.64774C4.53008 6.47926 4.83256 6.45275 5.08543 6.57918L8.76167 8.4173L10.1806 6.76191C10.3231 6.59568 10.5311 6.5 10.75 6.5C10.969 6.5 11.177 6.59568 11.3195 6.76191L12.7384 8.4173L16.4146 6.57918C16.6675 6.45275 16.97 6.47926 17.197 6.64774C17.424 6.81623 17.537 7.09807 17.4892 7.37673L16.2892 14.3767C16.2275 14.7368 15.9153 15 15.55 15H5.95002C5.5847 15 5.27253 14.7368 5.2108 14.3767L4.0108 7.37673ZM8.61461 10.0208L5.73952 8.58328L6.58239 13.5H14.9177L15.7605 8.58328L12.8854 10.0208C12.5776 10.1747 12.2045 10.0994 11.9806 9.8381L10.75 8.40245L9.51946 9.8381C9.29549 10.0994 8.92243 10.1747 8.61461 10.0208Z" fill="#292927"/>
</g>
</svg>
