<svg preserveAspectRatio="xMidYMid meet" overflow="visible" style="display: block;" viewBox="0 0 24 24" fill="none" xmlns="http://www.w3.org/2000/svg">
<g transform="translate(8.2500, 1.2500)">
<path id="Vector" fill-rule="evenodd" clip-rule="evenodd" d="M2.75 0C2.33579 0 2 0.335786 2 0.75C2 1.16421 2.33579 1.5 2.75 1.5H3V3.07501C1.28832 3.42247 0 4.93578 0 6.75V9.75V20.15C0 20.8956 0.604415 21.5 1.35 21.5H6.15C6.89558 21.5 7.5 20.8956 7.5 20.15V9.75V6.75C7.5 4.93578 6.21168 3.42247 4.5 3.07501V1.5H4.75C5.16421 1.5 5.5 1.16421 5.5 0.75C5.5 0.335786 5.16421 0 4.75 0H2.75ZM3.75 4.5C2.50736 4.5 1.5 5.50736 1.5 6.75V9H6V6.75C6 5.50736 4.99264 4.5 3.75 4.5ZM6 20V10.5H1.5V20H6Z" fill="#292927"/>
</g>
</svg>
