<svg preserveAspectRatio="xMidYMid meet" overflow="visible" style="display: block;" viewBox="0 0 24 24" fill="none" xmlns="http://www.w3.org/2000/svg">
<g transform="translate(3.4418, 2.9185)">
<path id="Vector" fill-rule="evenodd" clip-rule="evenodd" d="M1.13314 2.63204C0.936895 2.7673 0.808264 2.99363 0.808264 3.25C0.808264 3.41955 0.864523 3.57595 0.959391 3.70157C1.00209 3.75821 1.05307 3.80912 1.11133 3.85235C1.11622 3.85598 1.12116 3.85956 1.12613 3.86307L4.62234 6.36036C4.95939 6.60112 5.42781 6.52305 5.66856 6.18599C5.90932 5.84893 5.83125 5.38051 5.49419 5.13976L3.89853 4H4.55596L4.55764 4.00002L4.5782 4.00056C4.59865 4.00124 4.63211 4.00272 4.6767 4.00591C4.76614 4.01229 4.8988 4.02543 5.05996 4.0523C5.38585 4.10661 5.80889 4.21384 6.22285 4.42082C6.63388 4.62633 7.02209 4.92283 7.30923 5.35353C7.59323 5.77953 7.80826 6.38124 7.80826 7.25C7.80826 7.66421 8.14405 8 8.55826 8C8.97248 8 9.30826 7.66421 9.30826 7.25C9.30826 6.11876 9.0233 5.22047 8.5573 4.52147C8.09443 3.82717 7.48265 3.37367 6.89367 3.07918C6.30764 2.78616 5.73068 2.64339 5.30656 2.5727C5.09273 2.53706 4.91289 2.51896 4.78357 2.50972C4.71879 2.50509 4.66631 2.50266 4.62817 2.50139C4.60909 2.50076 4.59356 2.50041 4.58183 2.50022L4.56711 2.50004L4.56287 2.50001L4.56105 2.5L4.55992 2.5L4.55826 2.5H3.89869L5.49419 1.36036C5.83125 1.1196 5.90932 0.651189 5.66856 0.31413C5.42781 -0.0229298 4.95939 -0.100999 4.62234 0.139758L1.13314 2.63204ZM9.38872 9.48468L16.6919 15.9764C17.6423 16.8212 16.8711 18.3804 15.6229 18.1377L8.55826 16.764L1.49366 18.1377C0.245425 18.3804 -0.525794 16.8212 0.424621 15.9764L7.72781 9.48468C8.20142 9.0637 8.91511 9.0637 9.38872 9.48468ZM8.55826 10.7534L2.10348 16.491L8.31968 15.2823C8.47726 15.2517 8.63927 15.2517 8.79685 15.2823L15.013 16.491L8.55826 10.7534Z" fill="#292927"/>
</g>
</svg>
