<svg preserveAspectRatio="xMidYMid meet" overflow="visible" style="display: block;" viewBox="0 0 24 24" fill="none" xmlns="http://www.w3.org/2000/svg">
<g transform="translate(2.5807, 2.2500)">
<path id="Vector" fill-rule="evenodd" clip-rule="evenodd" d="M8.16936 2.75C8.16936 2.05964 8.72901 1.5 9.41936 1.5C10.1097 1.5 10.6694 2.05964 10.6694 2.75C10.6694 3.16421 11.0051 3.5 11.4194 3.5C11.8336 3.5 12.1694 3.16421 12.1694 2.75C12.1694 1.23122 10.9381 0 9.41936 0C7.90058 0 6.66936 1.23122 6.66936 2.75C6.66936 3.16421 7.00515 3.5 7.41936 3.5C7.83358 3.5 8.16936 3.16421 8.16936 2.75ZM16.0881 18C16.8543 18 17.4401 17.3171 17.3236 16.5599L15.939 7.55993C15.8452 6.95014 15.3205 6.5 14.7035 6.5H4.13521C3.51824 6.5 2.99355 6.95014 2.89974 7.55993L1.51513 16.5599C1.39863 17.3171 1.98448 18 2.75059 18H4.91937C5.33358 18 5.66937 18.3358 5.66937 18.75C5.66937 19.1642 5.33358 19.5 4.91937 19.5H2.75059C1.06516 19.5 -0.223713 17.9977 0.0325677 16.3318L1.41718 7.33184C1.62357 5.99031 2.77789 5 4.13521 5H14.7035C16.0608 5 17.2152 5.9903 17.4216 7.33184L18.8062 16.3318C19.0625 17.9977 17.7736 19.5 16.0881 19.5H13.9194C13.5052 19.5 13.1694 19.1642 13.1694 18.75C13.1694 18.3358 13.5052 18 13.9194 18H16.0881ZM5.88903 12.2197L8.88903 9.21967C9.18193 8.92678 9.6568 8.92678 9.94969 9.21967L12.9497 12.2197C13.2426 12.5126 13.2426 12.9874 12.9497 13.2803C12.6568 13.5732 12.1819 13.5732 11.889 13.2803L10.1694 11.5607V16.75C10.1694 17.1642 9.83358 17.5 9.41936 17.5C9.00515 17.5 8.66936 17.1642 8.66936 16.75V11.5607L6.94969 13.2803C6.6568 13.5732 6.18193 13.5732 5.88903 13.2803C5.59614 12.9874 5.59614 12.5126 5.88903 12.2197Z" fill="#292927"/>
</g>
</svg>
