<svg preserveAspectRatio="xMidYMid meet" overflow="visible" style="display: block;" viewBox="0 0 24 24" fill="none" xmlns="http://www.w3.org/2000/svg">
<g transform="translate(1.2500, 1.5000)">
<path id="Vector" fill-rule="evenodd" clip-rule="evenodd" d="M7.78033 0.21967C7.48744 -0.0732233 7.01256 -0.0732233 6.71967 0.21967C6.42678 0.512563 6.42678 0.987437 6.71967 1.28033L9.93934 4.5H2.75C1.23122 4.5 0 5.73122 0 7.25V18.25C0 19.7688 1.23122 21 2.75 21H18.75C20.2688 21 21.5 19.7688 21.5 18.25V7.25C21.5 5.73122 20.2688 4.5 18.75 4.5H11.5607L14.7803 1.28033C15.0732 0.987437 15.0732 0.512563 14.7803 0.21967C14.4874 -0.0732233 14.0126 -0.0732233 13.7197 0.21967L10.75 3.18934L7.78033 0.21967ZM2.75 6C2.05964 6 1.5 6.55964 1.5 7.25V18.25C1.5 18.9404 2.05964 19.5 2.75 19.5H18.75C19.4404 19.5 20 18.9404 20 18.25V7.25C20 6.55964 19.4404 6 18.75 6H2.75ZM11.4193 11.0051L9.50532 12.9191C8.45828 12.3337 7.10976 12.4861 6.21964 13.3762C5.92675 13.6691 5.92675 14.144 6.21964 14.4368C6.51253 14.7297 6.98741 14.7297 7.2803 14.4368C7.76639 13.9508 8.55322 13.9487 9.04185 14.4307L9.0481 14.437L9.05435 14.4432C9.53621 14.9318 9.53412 15.7186 9.04807 16.2046C8.75517 16.4975 8.75517 16.9724 9.04807 17.2653C9.34096 17.5582 9.81583 17.5582 10.1087 17.2653C10.9988 16.3752 11.1512 15.0268 10.5659 13.9798L12.4799 12.0659C13.5269 12.6514 14.8755 12.499 15.7656 11.6089C16.0585 11.316 16.0585 10.8411 15.7656 10.5482C15.4727 10.2553 14.9979 10.2553 14.705 10.5482C14.2201 11.033 13.4362 11.0363 12.9473 10.5582L12.9372 10.5479L12.927 10.5379C12.4491 10.049 12.4524 9.26519 12.9372 8.78044C13.2301 8.48755 13.2301 8.01268 12.9372 7.71978C12.6443 7.42689 12.1694 7.42689 11.8765 7.71978C10.9865 8.60982 10.8341 9.95815 11.4193 11.0051Z" fill="#292927"/>
</g>
</svg>
