<svg preserveAspectRatio="xMidYMid meet" overflow="visible" style="display: block;" viewBox="0 0 24 24" fill="none" xmlns="http://www.w3.org/2000/svg">
<g transform="translate(2.2500, 2.2500)">
<path id="Vector" fill-rule="evenodd" clip-rule="evenodd" d="M1.5 1.5V12H6V11.25C6 10.8358 6.33579 10.5 6.75 10.5C7.16421 10.5 7.5 10.8358 7.5 11.25V12H8.25C8.66421 12 9 12.3358 9 12.75C9 13.1642 8.66421 13.5 8.25 13.5H7.5V18H18V7.5H13.5V8.25C13.5 8.66421 13.1642 9 12.75 9C12.3358 9 12 8.66421 12 8.25V7.5H11.25C10.8358 7.5 10.5 7.16421 10.5 6.75C10.5 6.33579 10.8358 6 11.25 6H12V1.5H1.5ZM1.35 13.5H6V18.15C6 18.8956 6.60442 19.5 7.35 19.5H18.15C18.8956 19.5 19.5 18.8956 19.5 18.15V7.35C19.5 6.60442 18.8956 6 18.15 6H13.5V1.35C13.5 0.604415 12.8956 0 12.15 0H1.35C0.604416 0 0 0.604415 0 1.35V12.15C0 12.8956 0.604415 13.5 1.35 13.5ZM12.15 13.5C12.8956 13.5 13.5 12.8956 13.5 12.15V11.25C13.5 10.8358 13.1642 10.5 12.75 10.5C12.3358 10.5 12 10.8358 12 11.25V12H11.25C10.8358 12 10.5 12.3358 10.5 12.75C10.5 13.1642 10.8358 13.5 11.25 13.5H12.15ZM8.25 7.5H7.5V8.25C7.5 8.66421 7.16421 9 6.75 9C6.33579 9 6 8.66421 6 8.25V7.35C6 6.60442 6.60442 6 7.35 6H8.25C8.66421 6 9 6.33579 9 6.75C9 7.16421 8.66421 7.5 8.25 7.5Z" fill="#292927"/>
</g>
</svg>
