<svg preserveAspectRatio="xMidYMid meet" overflow="visible" style="display: block;" viewBox="0 0 24 24" fill="none" xmlns="http://www.w3.org/2000/svg">
<g transform="translate(2.2498, 2.2500)">
<path id="Vector" fill-rule="evenodd" clip-rule="evenodd" d="M18.0002 18V16.2329L7.74128 11.5698L1.5002 14.2445V18H18.0002ZM19.5002 15.7341C19.5004 15.745 19.5004 15.7559 19.5002 15.7667V18.15C19.5002 18.8956 18.8958 19.5 18.1502 19.5H1.3502C0.604612 19.5 0.000198363 18.8956 0.000198363 18.15V13.7675C-6.66952e-05 13.7561 -6.55464e-05 13.7446 0.000198363 13.7332V1.35C0.000198363 0.604414 0.604616 0 1.3502 0H18.1502C18.8958 0 19.5002 0.604418 19.5002 1.35V15.7341ZM1.5002 1.5V12.6126L7.45475 10.0606C7.64862 9.97755 7.86852 9.97994 8.06054 10.0672L18.0002 14.5852V1.5H1.5002ZM15.0002 5.75C15.0002 5.05964 14.4406 4.5 13.7502 4.5C13.0598 4.5 12.5002 5.05964 12.5002 5.75C12.5002 6.44036 13.0598 7 13.7502 7C14.4406 7 15.0002 6.44036 15.0002 5.75ZM13.7502 3C15.269 3 16.5002 4.23122 16.5002 5.75C16.5002 7.26878 15.269 8.5 13.7502 8.5C12.2314 8.5 11.0002 7.26878 11.0002 5.75C11.0002 4.23122 12.2314 3 13.7502 3Z" fill="#292927"/>
</g>
</svg>
