<svg preserveAspectRatio="xMidYMid meet" overflow="visible" style="display: block;" viewBox="0 0 24 24" fill="none" xmlns="http://www.w3.org/2000/svg">
<g transform="translate(5.0000, 1.7500)">
<path id="Vector" fill-rule="evenodd" clip-rule="evenodd" d="M10.8567 0.308924C10.613 -0.0260652 10.144 -0.100128 9.80899 0.143501C9.474 0.387129 9.39994 0.856192 9.64356 1.19118C13.4523 6.42819 13.4523 14.0719 9.64356 19.3089C9.39993 19.6439 9.474 20.113 9.80899 20.3566C10.144 20.6002 10.613 20.5262 10.8567 20.1912C15.0479 14.4282 15.0479 6.07191 10.8567 0.308924ZM7.36455 1.81997C7.12701 1.48063 6.65937 1.3981 6.32003 1.63564C5.98069 1.87318 5.89817 2.34082 6.1357 2.68016C9.45493 7.42192 9.45493 13.0782 6.1357 17.82C5.89817 18.1593 5.98069 18.627 6.32003 18.8645C6.65937 19.102 7.12701 19.0195 7.36455 18.6802C11.0453 13.4219 11.0453 7.07821 7.36455 1.81997ZM3.31548 3.63884C3.65304 3.3988 4.12129 3.47785 4.36134 3.81542C7.21305 7.82564 7.21305 12.6745 4.36134 16.6847C4.12129 17.0223 3.65304 17.1013 3.31548 16.8613C2.97791 16.6212 2.89886 16.153 3.1389 15.8154C5.62053 12.3256 5.62053 8.17448 3.1389 4.6847C2.89886 4.34714 2.97791 3.87889 3.31548 3.63884ZM1.39323 5.86424C1.18012 5.50906 0.719427 5.39388 0.364242 5.60699C0.00905634 5.8201 -0.106117 6.2808 0.106994 6.63598C1.46449 8.89847 1.46449 11.6018 0.106994 13.8642C-0.106117 14.2194 0.00905672 14.6801 0.364242 14.8932C0.719427 15.1063 1.18012 14.9912 1.39323 14.636C3.03574 11.8985 3.03574 8.60175 1.39323 5.86424Z" fill="#292927"/>
</g>
</svg>
