<svg preserveAspectRatio="xMidYMid meet" overflow="visible" style="display: block;" viewBox="0 0 24 24" fill="none" xmlns="http://www.w3.org/2000/svg">
<g transform="translate(1.2500, 1.2500)">
<path id="Vector" fill-rule="evenodd" clip-rule="evenodd" d="M10.75 1.5C15.8586 1.5 20 5.64137 20 10.75C20 15.8586 15.8586 20 10.75 20C5.64137 20 1.5 15.8586 1.5 10.75C1.5 5.64137 5.64137 1.5 10.75 1.5ZM21.5 10.75C21.5 4.81294 16.6871 0 10.75 0C4.81294 0 0 4.81294 0 10.75C0 16.6871 4.81294 21.5 10.75 21.5C16.6871 21.5 21.5 16.6871 21.5 10.75ZM8.84732 3.61735C9.19677 3.39497 9.66034 3.49798 9.88272 3.84744L10.75 5.21031L11.6173 3.84744C11.8397 3.49798 12.3032 3.39497 12.6527 3.61735C13.0021 3.83973 13.1052 4.3033 12.8828 4.65275L11.639 6.60728L15.0707 12H16.25C16.6642 12 17 12.3358 17 12.75C17 13.1642 16.6642 13.5 16.25 13.5H16.0253L16.8827 14.8474C17.1051 15.1969 17.0021 15.6605 16.6526 15.8828C16.3032 16.1052 15.8396 16.0022 15.6172 15.6528L10.75 8.00425L8.20725 12H12.25C12.6642 12 13 12.3358 13 12.75C13 13.1642 12.6642 13.5 12.25 13.5H7.25271L5.88277 15.6528C5.66039 16.0022 5.19683 16.1052 4.84737 15.8828C4.49791 15.6605 4.3949 15.1969 4.61728 14.8474L5.47474 13.5H5.25C4.83579 13.5 4.5 13.1642 4.5 12.75C4.5 12.3358 4.83579 12 5.25 12H6.42929L9.86102 6.60728L8.61723 4.65275C8.39485 4.3033 8.49786 3.83973 8.84732 3.61735Z" fill="#292927"/>
</g>
</svg>
