<svg preserveAspectRatio="xMidYMid meet" overflow="visible" style="display: block;" viewBox="0 0 24 24" fill="none" xmlns="http://www.w3.org/2000/svg">
<g transform="translate(2.2500, 2.5886)">
<path id="Vector" fill-rule="evenodd" clip-rule="evenodd" d="M7.28807 0.687811C8.80125 -0.229269 10.6987 -0.229271 12.2119 0.687809L17.2119 3.71811C18.6324 4.579 19.5 6.11933 19.5 7.78031V14.0727C19.5 16.6961 17.3734 18.8227 14.75 18.8227H4.75C2.12665 18.8227 0 16.6961 0 14.0727V7.7803C0 6.11933 0.867602 4.579 2.28806 3.71812L7.28807 0.687811ZM11.4345 1.97061C10.3991 1.34313 9.10086 1.34313 8.06552 1.97061L3.06552 5.00091C2.09362 5.58994 1.5 6.64385 1.5 7.7803V14.0727C1.5 15.8676 2.95508 17.3227 4.75 17.3227H6V14.0727C6 12.0017 7.67893 10.3227 9.75 10.3227C11.8211 10.3227 13.5 12.0017 13.5 14.0727V17.3227H14.75C16.5449 17.3227 18 15.8676 18 14.0727V7.78031C18 6.64385 17.4064 5.58994 16.4345 5.00091L11.4345 1.97061ZM12 17.3227V14.0727C12 12.8301 10.9926 11.8227 9.75 11.8227C8.50736 11.8227 7.5 12.8301 7.5 14.0727V17.3227H12Z" fill="#292927"/>
</g>
</svg>
