<svg preserveAspectRatio="xMidYMid meet" overflow="visible" style="display: block;" viewBox="0 0 24 24" fill="none" xmlns="http://www.w3.org/2000/svg">
<g transform="translate(2.2500, 1.2500)">
<path id="Vector" fill-rule="evenodd" clip-rule="evenodd" d="M18 20.75C18 21.1642 18.3358 21.5 18.75 21.5C19.1642 21.5 19.5 21.1642 19.5 20.75V0.75C19.5 0.335787 19.1642 0 18.75 0C18.3358 0 18 0.335787 18 0.75V20.75ZM2.75 14C2.05964 14 1.5 13.4404 1.5 12.75V8.75C1.5 8.05964 2.05964 7.5 2.75 7.5H12.75C13.4404 7.5 14 8.05964 14 8.75V12.75C14 13.4404 13.4404 14 12.75 14H2.75ZM0 12.75C0 14.2688 1.23122 15.5 2.75 15.5H12.75C14.2688 15.5 15.5 14.2688 15.5 12.75V8.75C15.5 7.23122 14.2688 6 12.75 6H2.75C1.23122 6 0 7.23122 0 8.75V12.75Z" fill="#292927"/>
</g>
</svg>
