<svg preserveAspectRatio="xMidYMid meet" overflow="visible" style="display: block;" viewBox="0 0 24 24" fill="none" xmlns="http://www.w3.org/2000/svg">
<g transform="translate(4.2500, 3.2500)">
<path id="Vector" fill-rule="evenodd" clip-rule="evenodd" d="M4.5 4.75C4.5 2.95507 5.95507 1.5 7.75 1.5C9.54493 1.5 11 2.95507 11 4.75C11 6.54493 9.54493 8 7.75 8C5.95507 8 4.5 6.54493 4.5 4.75ZM10.6083 8.54412C11.7573 7.67715 12.5 6.30031 12.5 4.75C12.5 2.12665 10.3734 0 7.75 0C5.12665 0 3 2.12665 3 4.75C3 6.30031 3.74271 7.67715 4.89172 8.54412C2.02612 9.68175 0 12.4793 0 15.75V16.75C0 17.1642 0.335786 17.5 0.75 17.5C1.16421 17.5 1.5 17.1642 1.5 16.75V15.75C1.5 12.2982 4.29822 9.5 7.75 9.5C11.2018 9.5 14 12.2982 14 15.75V16.75C14 17.1642 14.3358 17.5 14.75 17.5C15.1642 17.5 15.5 17.1642 15.5 16.75V15.75C15.5 12.4793 13.4739 9.68175 10.6083 8.54412Z" fill="#292927"/>
</g>
</svg>
