<svg preserveAspectRatio="xMidYMid meet" overflow="visible" style="display: block;" viewBox="0 0 24 24" fill="none" xmlns="http://www.w3.org/2000/svg">
<g transform="translate(2.2500, 2.2500)">
<path id="Vector" fill-rule="evenodd" clip-rule="evenodd" d="M18 1.5V18H1.5V1.5H18ZM18.15 19.5C18.8956 19.5 19.5 18.8956 19.5 18.15V1.35C19.5 0.604418 18.8956 0 18.15 0H1.35C0.604418 0 0 0.604414 0 1.35V18.15C0 18.8956 0.604414 19.5 1.35 19.5H18.15ZM9.75 4.5C8.50736 4.5 7.5 5.50736 7.5 6.75C7.5 7.99264 8.50736 9 9.75 9C10.9926 9 12 7.99264 12 6.75C12 5.50736 10.9926 4.5 9.75 4.5ZM13.5 6.75C13.5 7.86952 13.0094 8.87445 12.2315 9.56156C14.1649 10.4879 15.5 12.463 15.5 14.75V15.75C15.5 16.1642 15.1642 16.5 14.75 16.5C14.3358 16.5 14 16.1642 14 15.75V14.75C14 12.4028 12.0972 10.5 9.75 10.5C7.40279 10.5 5.5 12.4028 5.5 14.75V15.75C5.5 16.1642 5.16421 16.5 4.75 16.5C4.33579 16.5 4 16.1642 4 15.75V14.75C4 12.463 5.33514 10.4879 7.26848 9.56156C6.49057 8.87445 6 7.86952 6 6.75C6 4.67893 7.67893 3 9.75 3C11.8211 3 13.5 4.67893 13.5 6.75Z" fill="#292927"/>
</g>
</svg>
