<svg preserveAspectRatio="xMidYMid meet" overflow="visible" style="display: block;" viewBox="0 0 24 24" fill="none" xmlns="http://www.w3.org/2000/svg">
<g transform="translate(0.2500, 6.2500)">
<path id="Vector" fill-rule="evenodd" clip-rule="evenodd" d="M3 1.35C3 0.604417 3.60441 0 4.35 0H7.15C7.89558 0 8.5 0.604416 8.5 1.35V5H15V1.35C15 0.604417 15.6044 0 16.35 0H19.15C19.8956 0 20.5 0.604416 20.5 1.35V2H22.15C22.8956 2 23.5 2.60442 23.5 3.35V8.15C23.5 8.89559 22.8956 9.5 22.15 9.5H20.5V10.15C20.5 10.8956 19.8956 11.5 19.15 11.5H16.35C15.6044 11.5 15 10.8956 15 10.15V6.5H8.5V10.15C8.5 10.8956 7.89559 11.5 7.15 11.5H4.35C3.60442 11.5 3 10.8956 3 10.15V9.5H1.35C0.604416 9.5 0 8.89559 0 8.15V3.35C0 2.60442 0.604415 2 1.35 2H3V1.35ZM7 5.75V1.5H4.5V3.35V8.15V10H7V5.75ZM16.5 5.75V10H19V8.15V3.35V1.5H16.5V5.75ZM3 3.5H1.5V8H3V3.5ZM22 8H20.5V3.5H22V8Z" fill="#292927"/>
</g>
</svg>
