<svg preserveAspectRatio="xMidYMid meet" overflow="visible" style="display: block;" viewBox="0 0 24 24" fill="none" xmlns="http://www.w3.org/2000/svg">
<g transform="translate(1.2500, 1.2500)">
<path id="Vector" fill-rule="evenodd" clip-rule="evenodd" d="M16.75 0C16.3358 0 16 0.335786 16 0.75C16 1.16421 16.3358 1.5 16.75 1.5C17.3585 1.5 18.1916 1.70901 18.8552 2.21947C19.4886 2.70667 20 3.48961 20 4.75C20 6.05242 19.5823 6.68824 19.05 7.0875C18.4442 7.54183 17.6057 7.76299 16.5681 8.02239C16.2342 8.10586 16 8.40585 16 8.75C16 9.09415 16.2342 9.39414 16.5681 9.47761C17.5216 9.71597 18.3345 10.0426 18.9306 10.7381C19.523 11.4293 20 12.6039 20 14.75C20 15.1642 20.3358 15.5 20.75 15.5C21.1642 15.5 21.5 15.1642 21.5 14.75C21.5 12.3961 20.977 10.8207 20.0694 9.76191C19.7402 9.37783 19.3735 9.07748 18.9896 8.83818C19.3278 8.68909 19.6536 8.50983 19.95 8.2875C20.9177 7.56176 21.5 6.44758 21.5 4.75C21.5 3.01039 20.7614 1.79333 19.7698 1.03053C18.8084 0.290991 17.6415 0 16.75 0ZM12.25 5.5C11.2835 5.5 10.5 6.2835 10.5 7.25V9.75C10.5 10.9926 11.5075 12 12.7502 12H13.75C15.95 12 17.5 13.15 17.5 14.75C17.5 15.1642 17.1642 15.5 16.75 15.5C16.3358 15.5 16 15.1642 16 14.75C16 14.35 15.55 13.5 13.75 13.5H12.7502C10.6792 13.5 9 11.8211 9 9.75V7.25C9 5.45507 10.4551 4 12.25 4H12.75C13.1642 4 13.5 4.33579 13.5 4.75C13.5 5.16421 13.1642 5.5 12.75 5.5H12.25ZM16.75 17C17.1642 17 17.5 17.3358 17.5 17.75V20.75C17.5 21.1642 17.1642 21.5 16.75 21.5C16.3358 21.5 16 21.1642 16 20.75V17.75C16 17.3358 16.3358 17 16.75 17ZM20.75 17C21.1642 17 21.5 17.3358 21.5 17.75V20.75C21.5 21.1642 21.1642 21.5 20.75 21.5C20.3358 21.5 20 21.1642 20 20.75V17.75C20 17.3358 20.3358 17 20.75 17ZM1.35 17C0.604416 17 0 17.6044 0 18.35V20.15C0 20.8956 0.604416 21.5 1.35 21.5H12.15C12.8956 21.5 13.5 20.8956 13.5 20.15V18.35C13.5 17.6044 12.8956 17 12.15 17H1.35ZM1.5 20V18.5H12V20H1.5Z" fill="#292927"/>
</g>
</svg>
