<svg preserveAspectRatio="xMidYMid meet" overflow="visible" style="display: block;" viewBox="0 0 24 24" fill="none" xmlns="http://www.w3.org/2000/svg">
<g transform="translate(2.2500, 2.2500)">
<path id="Vector" fill-rule="evenodd" clip-rule="evenodd" d="M1.5 1.5V18H18V1.5H1.5ZM0 1.35C0 0.604415 0.604417 0 1.35 0H18.15C18.8956 0 19.5 0.604417 19.5 1.35V18.15C19.5 18.8956 18.8956 19.5 18.15 19.5H1.35C0.604415 19.5 0 18.8956 0 18.15V1.35ZM10.2803 9.28033L13.7803 5.78033C14.0732 5.48744 14.0732 5.01256 13.7803 4.71967C13.4874 4.42678 13.0126 4.42678 12.7197 4.71967L9.75 7.68934L6.78033 4.71967C6.48744 4.42678 6.01256 4.42678 5.71967 4.71967C5.42678 5.01256 5.42678 5.48744 5.71967 5.78033L9.21967 9.28033C9.51256 9.57322 9.98744 9.57322 10.2803 9.28033ZM13.7803 11.7803L10.2803 15.2803C9.98744 15.5732 9.51256 15.5732 9.21967 15.2803L5.71967 11.7803C5.42678 11.4874 5.42678 11.0126 5.71967 10.7197C6.01256 10.4268 6.48744 10.4268 6.78033 10.7197L9.75 13.6893L12.7197 10.7197C13.0126 10.4268 13.4874 10.4268 13.7803 10.7197C14.0732 11.0126 14.0732 11.4874 13.7803 11.7803Z" fill="#292927"/>
</g>
</svg>
