<svg preserveAspectRatio="xMidYMid meet" overflow="visible" style="display: block;" viewBox="0 0 24 24" fill="none" xmlns="http://www.w3.org/2000/svg">
<g transform="translate(7.2500, 4.2500)">
<path id="Vector" fill-rule="evenodd" clip-rule="evenodd" d="M0 1.35C0 0.604416 0.604415 0 1.35 0H4.75C4.78832 1.78814e-07 5.76204 0.00082469 6.75209 0.495855C7.25772 0.748676 7.78618 1.13968 8.18654 1.74023C8.59004 2.34548 8.83333 3.11877 8.83333 4.08333C8.83333 5.0479 8.59004 5.82119 8.18654 6.42644C7.93687 6.80094 7.63738 7.09396 7.32469 7.3228C7.82612 7.58956 8.33168 7.97259 8.73155 8.52241C9.20722 9.17645 9.5 10.0213 9.5 11.0833C9.5 12.1454 9.20722 12.9902 8.73155 13.6443C8.26173 14.2903 7.646 14.706 7.06249 14.9735C6.48032 15.2403 5.90807 15.37 5.48827 15.4341C5.27648 15.4665 5.09854 15.4829 4.97088 15.4912C4.90692 15.4954 4.85523 15.4976 4.81783 15.4988C4.79911 15.4993 4.78394 15.4996 4.77256 15.4998L4.75836 15.5L4.75344 15.5L4.75153 15.5C4.75116 15.5 4.75 15.5 4.75 14.75V15.5H1.35C0.604415 15.5 0 14.8956 0 14.15V1.35ZM4.74937 8.16667L4.75039 8.1667L4.77202 8.16721C4.7932 8.16786 4.82745 8.16925 4.87287 8.17222C4.96396 8.17819 5.09852 8.19042 5.26173 8.21535C5.59193 8.2658 6.01968 8.36529 6.43751 8.5568C6.854 8.74769 7.23827 9.01943 7.51845 9.40467C7.79278 9.78188 8 10.312 8 11.0833C8 11.8546 7.79278 12.3848 7.51845 12.762C7.23827 13.1472 6.854 13.419 6.43751 13.6099C6.01968 13.8014 5.59193 13.9009 5.26173 13.9513C5.09852 13.9762 4.96396 13.9885 4.87287 13.9944C4.82745 13.9974 4.7932 13.9988 4.77202 13.9995L4.75039 14L4.74883 14L1.5 14V8.16667H4.74791M1.5 6.66667H4.74722C4.7473 6.66667 4.74714 6.66667 4.74722 6.66667L4.76245 6.66627C4.77802 6.66575 4.80432 6.6646 4.83979 6.66206C4.911 6.65698 5.01762 6.64644 5.14753 6.62479C5.41091 6.58089 5.75063 6.49449 6.08126 6.32918C6.40895 6.16533 6.71383 5.93134 6.93846 5.59439C7.15997 5.26213 7.33333 4.78543 7.33333 4.08333C7.33333 3.38124 7.15997 2.90454 6.93846 2.57228C6.71383 2.23533 6.40896 2.00134 6.08126 1.83749C5.42261 1.50817 4.74848 1.5002 4.74848 1.5C4.74848 1.5 4.74795 1.5 4.74848 1.5L1.5 1.5V6.66667Z" fill="#292927"/>
</g>
</svg>
