<svg preserveAspectRatio="xMidYMid meet" overflow="visible" style="display: block;" viewBox="0 0 24 24" fill="none" xmlns="http://www.w3.org/2000/svg">
<g transform="translate(1.2500, 1.2500)">
<path id="Vector" d="M9.58512 14.0394L10.3226 14.176L9.58512 14.0394ZM9.22709 13.332L9.60834 12.6861L9.22709 13.332ZM8.95159 20.5786L9.09022 19.8415L8.95159 20.5786ZM8.50001 19.9007L9.23748 20.0372L8.50001 19.9007ZM15.5989 18.5641L16.336 18.4255L15.5989 18.5641ZM16.4712 18.9416L16.0412 18.3271L16.4712 18.9416ZM6.62166 14.7341L5.88459 14.5955L6.62166 14.7341ZM6.48203 14.2143L5.90066 14.6881L6.48203 14.2143ZM12.2732 13.332L12.6545 13.9779L12.2732 13.332ZM11.9152 14.0394L12.6527 13.9029L11.9152 14.0394ZM15.018 14.2143L14.4366 13.7405L15.018 14.2143ZM14.8783 14.7341L15.6154 14.5955L14.8783 14.7341ZM13.0001 19.9013L12.2626 20.0378L13.0001 19.9013ZM12.5472 20.5797L12.6847 21.317L12.5472 20.5797ZM5.02883 18.9416L4.59889 19.5561L5.02883 18.9416ZM0.75 10.75H1.5C1.5 5.64078 5.64078 1.5 10.75 1.5V0.75V0C4.81235 0 0 4.81235 0 10.75H0.75ZM5.02883 18.9416L5.45878 18.3271C3.0653 16.6525 1.5 13.8868 1.5 10.75H0.75H0C0 14.3998 1.82379 17.6146 4.59889 19.5561L5.02883 18.9416ZM6.62166 14.7341L5.88459 14.5955L5.16403 18.4255L5.9011 18.5641L6.63817 18.7028L7.35873 14.8728L6.62166 14.7341ZM5.25 10.75H4.5C4.5 12.2436 5.02575 13.6146 5.90066 14.6881L6.48203 14.2143L7.0634 13.7405C6.39834 12.9245 6 11.8854 6 10.75H5.25ZM10.75 5.25V4.5C7.29868 4.5 4.5 7.29868 4.5 10.75H5.25H6C6 8.1271 8.1271 6 10.75 6V5.25ZM16.25 10.75H17C17 7.29868 14.2013 4.5 10.75 4.5V5.25V6C13.3729 6 15.5 8.1271 15.5 10.75H16.25ZM15.018 14.2143L15.5993 14.6881C16.4743 13.6146 17 12.2436 17 10.75H16.25H15.5C15.5 11.8854 15.1017 12.9245 14.4366 13.7405L15.018 14.2143ZM15.5989 18.5641L16.336 18.4255L15.6154 14.5955L14.8783 14.7341L14.1413 14.8728L14.8618 18.7028L15.5989 18.5641ZM20.75 10.75H20C20 13.8868 18.4347 16.6525 16.0412 18.3271L16.4712 18.9416L16.9011 19.5561C19.6762 17.6146 21.5 14.3998 21.5 10.75H20.75ZM10.75 0.75V1.5C15.8592 1.5 20 5.64078 20 10.75H20.75H21.5C21.5 4.81235 16.6877 0 10.75 0V0.75ZM13.7502 10.75H14.5002C14.5002 8.67949 12.8206 6.99996 10.7502 6.99996V7.74996V8.49996C11.9922 8.49996 13.0002 9.50792 13.0002 10.75H13.7502ZM12.2732 13.332L12.6545 13.9779C13.7561 13.3277 14.5002 12.1268 14.5002 10.75H13.7502H13.0002C13.0002 11.5729 12.5568 12.2937 11.892 12.6861L12.2732 13.332ZM13.0001 19.9013L13.7376 19.7648L12.6527 13.9029L11.9152 14.0394L11.1777 14.1759L12.2626 20.0378L13.0001 19.9013ZM10.7502 20.75V21.5C11.4154 21.5 12.0608 21.4334 12.6847 21.317L12.5472 20.5797L12.4097 19.8425C11.868 19.9435 11.3149 20 10.7502 20V20.75ZM8.95159 20.5786L8.81295 21.3157C9.43802 21.4332 10.0843 21.5 10.7502 21.5V20.75V20C10.185 20 9.6317 19.9434 9.09022 19.8415L8.95159 20.5786ZM9.58512 14.0394L8.84765 13.9029L7.76255 19.7641L8.50001 19.9007L9.23748 20.0372L10.3226 14.176L9.58512 14.0394ZM7.75018 10.75H7.00018C7.00018 12.1267 7.74426 13.3276 8.84584 13.9779L9.22709 13.332L9.60834 12.6861C8.94354 12.2937 8.50018 11.5729 8.50018 10.75H7.75018ZM10.7502 7.74996V6.99996C8.67971 6.99996 7.00018 8.67949 7.00018 10.75H7.75018H8.50018C8.50018 9.50792 9.50814 8.49996 10.7502 8.49996V7.74996ZM9.58512 14.0394L10.3226 14.176C10.4451 13.5143 10.0642 12.9552 9.60834 12.6861L9.22709 13.332L8.84584 13.9779C8.85051 13.9806 8.85421 13.9837 8.85655 13.9861C8.85892 13.9886 8.85824 13.9886 8.85612 13.9846C8.85391 13.9804 8.84968 13.9709 8.84711 13.9559C8.84444 13.9402 8.84416 13.9218 8.84765 13.9029L9.58512 14.0394ZM8.95159 20.5786L9.09022 19.8415C9.20874 19.8638 9.24998 19.9697 9.23748 20.0372L8.50001 19.9007L7.76255 19.7641C7.63408 20.458 8.0684 21.1756 8.81295 21.3157L8.95159 20.5786ZM15.5989 18.5641L14.8618 18.7028C15.0296 19.5945 16.0738 20.135 16.9011 19.5561L16.4712 18.9416L16.0412 18.3271C16.1008 18.2854 16.1817 18.283 16.2388 18.3082C16.2913 18.3313 16.327 18.3777 16.336 18.4255L15.5989 18.5641ZM6.62166 14.7341L7.35873 14.8728C7.4383 14.4499 7.30779 14.0403 7.0634 13.7405L6.48203 14.2143L5.90066 14.6881C5.89395 14.6799 5.87459 14.6487 5.88459 14.5955L6.62166 14.7341ZM12.2732 13.332L11.892 12.6861C11.4361 12.9552 11.0553 13.5142 11.1777 14.1759L11.9152 14.0394L12.6527 13.9029C12.6562 13.9218 12.6559 13.9403 12.6532 13.9559C12.6506 13.9709 12.6464 13.9804 12.6442 13.9846C12.6421 13.9886 12.6414 13.9886 12.6438 13.9862C12.6461 13.9837 12.6498 13.9807 12.6545 13.9779L12.2732 13.332ZM15.018 14.2143L14.4366 13.7405C14.1922 14.0403 14.0617 14.4499 14.1413 14.8728L14.8783 14.7341L15.6154 14.5955C15.6254 14.6487 15.6061 14.6799 15.5993 14.6881L15.018 14.2143ZM13.0001 19.9013L12.2626 20.0378C12.2501 19.97 12.2917 19.8645 12.4097 19.8425L12.5472 20.5797L12.6847 21.317C13.43 21.178 13.8663 20.4601 13.7376 19.7648L13.0001 19.9013ZM5.02883 18.9416L4.59889 19.5561C5.42624 20.135 6.47041 19.5945 6.63817 18.7028L5.9011 18.5641L5.16403 18.4255C5.17302 18.3777 5.20865 18.3313 5.26117 18.3082C5.31834 18.283 5.39921 18.2854 5.45878 18.3271L5.02883 18.9416Z" fill="var(--stroke-0, #292927)"/>
</g>
</svg>
