<svg preserveAspectRatio="xMidYMid meet" overflow="visible" style="display: block;" viewBox="0 0 24 24" fill="none" xmlns="http://www.w3.org/2000/svg">
<g transform="translate(4.0792, 1.0676)">
<path id="Vector" fill-rule="evenodd" clip-rule="evenodd" d="M6.44531 2.36153C6.44531 1.05729 7.5026 0 8.80684 0C10.1111 0 11.1684 1.05729 11.1684 2.36153V2.87322C11.6504 1.86512 12.8032 1.32066 13.9149 1.63829C15.1662 1.99578 15.8835 3.3073 15.5096 4.55372L13.5217 11.18C13.8369 11.3158 14.1919 11.5068 14.5286 11.773C15.0168 12.159 15.4774 12.713 15.7015 13.4842C15.9256 14.2551 15.8916 15.1676 15.523 16.2326L15.4954 16.3123C15.1801 17.2232 14.9054 18.0169 14.6307 18.6818C14.3483 19.3653 14.0464 19.9624 13.6615 20.4463C13.2649 20.9449 12.7878 21.3139 12.1797 21.5489C11.5873 21.7778 10.9085 21.8648 10.1262 21.8648H5.43809H5.14508C2.38677 21.8648 0.15027 19.6307 0.14651 16.8732L0.000122009 8.6755C-0.00217293 8.54699 0.0279966 8.42544 0.0830787 8.3187C0.196439 7.55275 0.683783 6.85825 1.44044 6.51342C2.0612 6.23053 2.74021 6.23889 3.32412 6.48082C3.55487 6.02665 3.93542 5.64416 4.43631 5.41589C5.1028 5.11216 5.83724 5.14814 6.44531 5.45074V2.36153ZM1.56679 12.3954L1.64639 16.8529L0.896505 16.8663H1.64651C1.64651 18.7985 3.21287 20.3648 5.14508 20.3648H5.43809H10.1262C10.8088 20.3648 11.2838 20.287 11.639 20.1497C11.9787 20.0185 12.2432 19.8197 12.4876 19.5125C12.7436 19.1907 12.982 18.744 13.2444 18.109C13.502 17.4854 13.7641 16.7283 14.0886 15.7908L14.1055 15.7419C14.3961 14.9023 14.3804 14.3132 14.2612 13.9029C14.142 13.4929 13.8975 13.1862 13.5982 12.9496C13.2932 12.7084 12.9433 12.5507 12.6568 12.4533C12.516 12.4054 12.3971 12.3743 12.316 12.3555C12.2756 12.3462 12.2451 12.3401 12.2266 12.3366L12.2243 12.3362L7.46627 11.8935C7.03737 11.8536 6.65614 12.1661 6.61105 12.5945C6.57129 12.9722 6.80706 13.3244 7.17143 13.4316L10.7222 14.4759C11.2755 14.6386 11.5469 15.2622 11.289 15.7781L10.797 16.7622C10.6117 17.1326 10.1612 17.2828 9.79076 17.0976C9.42027 16.9123 9.27011 16.4618 9.45535 16.0913L9.64039 15.7213L6.74818 14.8706C5.77792 14.5852 5.12135 13.7022 5.10686 12.7119C4.92068 12.8897 4.70204 13.0399 4.45459 13.1526C3.41544 13.6262 2.21302 13.2836 1.56679 12.3954ZM5.83738 11.0012C6.24333 10.6245 6.78367 10.396 7.36767 10.3901C7.39702 10.1147 7.35329 9.83401 7.23762 9.57741L6.16449 7.19698C5.97465 6.77587 5.47868 6.58928 5.05835 6.78084C4.68583 6.9506 4.49959 7.3591 4.59452 7.74037L5.62815 10.0332C5.76997 10.3478 5.83722 10.6771 5.83738 11.0012ZM8.86248 10.517L12.0652 10.8149L14.0729 4.12269C14.2065 3.67716 13.9501 3.20836 13.5028 3.08057C13.0578 2.95341 12.5943 3.21279 12.4699 3.65862L11.149 8.39178C11.0719 8.72403 10.7741 8.97163 10.4184 8.97163C10.2329 8.97163 10.0631 8.90429 9.93218 8.79272C9.89933 8.76477 9.86913 8.73416 9.8418 8.70132C9.79248 8.6421 9.75211 8.57517 9.72277 8.5026C9.6834 8.40557 9.66406 8.29983 9.66837 8.1918V2.36153C9.66837 1.88572 9.28265 1.5 8.80684 1.5C8.33103 1.5 7.94531 1.88572 7.94531 2.36153V7.19611C7.94531 7.27454 7.93328 7.35015 7.91095 7.4212L8.60508 8.96094C8.82663 9.45238 8.91313 9.98903 8.86248 10.517ZM3.3106 8.57137C3.26212 8.47299 3.22121 8.37288 3.18765 8.27172C2.97995 7.86258 2.48434 7.68611 2.06248 7.87837C1.63077 8.07511 1.43937 8.58387 1.63435 9.01638L2.6899 11.3578C2.886 11.7928 3.39834 11.9856 3.83255 11.7877C4.26427 11.5909 4.45567 11.0822 4.26068 10.6497L3.45908 8.87153C3.45466 8.86334 3.45038 8.85504 3.44623 8.84663L3.3106 8.57137Z" fill="#292927"/>
</g>
</svg>
