<svg preserveAspectRatio="xMidYMid meet" overflow="visible" style="display: block;" viewBox="0 0 24 24" fill="none" xmlns="http://www.w3.org/2000/svg">
<g transform="translate(1.2500, 1.2500)">
<path id="Vector" fill-rule="evenodd" clip-rule="evenodd" d="M16.7392 3.70047C15.3038 2.47978 13.4908 1.6897 11.5 1.52997V6.05888C12.2523 6.17821 12.9458 6.47416 13.5367 6.90293L16.7392 3.70047ZM17.7998 4.76116L14.5973 7.96363C15.026 8.55444 15.3218 9.24783 15.4411 10H19.97C19.8103 8.00935 19.0203 6.19651 17.7998 4.76116ZM13.0366 8.44043C13.0404 8.44439 13.0442 8.44831 13.0481 8.4522C13.052 8.45608 13.0559 8.4599 13.0598 8.46367C13.6411 9.05085 14 9.85851 14 10.75C14 11.6428 13.64 12.4516 13.0572 13.039L13.0481 13.0479L13.0391 13.057C12.4517 13.6399 11.6429 14 10.75 14C8.95507 14 7.5 12.5449 7.5 10.75C7.5 8.95507 8.95507 7.5 10.75 7.5C11.6416 7.5 12.4494 7.85904 13.0366 8.44043ZM21.5 10.75C21.5 16.6871 16.6871 21.5 10.75 21.5C7.78712 21.5 5.10421 20.3013 3.15973 18.3625L3.14862 18.3516L3.13775 18.3405C1.19876 16.396 0 13.713 0 10.75C0 7.78561 1.19988 5.10147 3.14046 3.15675L3.14859 3.14849L3.15686 3.14035C5.10157 1.19983 7.78567 0 10.75 0C16.6871 0 21.5 4.81294 21.5 10.75ZM10 19.97C8.00933 19.8103 6.19648 19.0203 4.76112 17.7998L7.9636 14.5973C8.55441 15.0259 9.24781 15.3218 10 15.4411V19.97ZM6.05888 11.5C6.17821 12.2523 6.47415 12.9458 6.9029 13.5367L3.70044 16.7391C2.47977 15.3037 1.6897 13.4908 1.52997 11.5H6.05888ZM1.52997 10C1.6897 8.00925 2.47974 6.19633 3.70038 4.76094L6.90284 7.9634C6.47413 8.55426 6.1782 9.24773 6.05888 10H1.52997ZM4.76105 3.70029L7.96352 6.90276C8.55435 6.47409 9.24778 6.17819 10 6.05888V1.52997C8.0093 1.6897 6.19642 2.4797 4.76105 3.70029ZM19.97 11.5H15.4411C15.3218 12.2522 15.0259 12.9456 14.5973 13.5364L17.7998 16.7389C19.0203 15.3035 19.8103 13.4907 19.97 11.5ZM16.7391 17.7996L13.5367 14.5971C12.9458 15.0259 12.2523 15.3218 11.5 15.4411V19.97C13.4908 19.8103 15.3037 19.0202 16.7391 17.7996Z" fill="#292927"/>
</g>
</svg>
