<svg preserveAspectRatio="xMidYMid meet" overflow="visible" style="display: block;" viewBox="0 0 24 24" fill="none" xmlns="http://www.w3.org/2000/svg">
<g transform="translate(2.6782, 1.2500)">
<path id="Vector" fill-rule="evenodd" clip-rule="evenodd" d="M9.32193 21.5C8.90772 21.5 8.57193 21.1642 8.57193 20.75V12.4742L1.13644 16.9418C0.781388 17.1552 0.32062 17.0403 0.107285 16.6852C-0.106051 16.3302 0.00883125 15.8694 0.363882 15.6561L7.86398 11.1496L0.363834 6.64304C0.00878429 6.4297 -0.106098 5.96893 0.107237 5.61388C0.320573 5.25883 0.781341 5.14395 1.13639 5.35729L8.57193 9.82501V0.75C8.57193 0.335787 8.90772 0 9.32193 0C9.73615 0 10.0719 0.335787 10.0719 0.75V9.82291L17.5072 5.35533C17.8623 5.142 18.323 5.25688 18.5364 5.61193C18.7497 5.96698 18.6348 6.42775 18.2798 6.64109L10.7764 11.1496L18.2797 15.658C18.6348 15.8714 18.7497 16.3322 18.5363 16.6872C18.323 17.0423 17.8622 17.1571 17.5072 16.9438L10.0719 12.4763V20.75C10.0719 21.1642 9.73615 21.5 9.32193 21.5Z" fill="#292927"/>
</g>
</svg>
