<svg preserveAspectRatio="xMidYMid meet" overflow="visible" style="display: block;" viewBox="0 0 24 24" fill="none" xmlns="http://www.w3.org/2000/svg">
<g transform="translate(1.2500, 1.7500)">
<path id="Vector" fill-rule="evenodd" clip-rule="evenodd" d="M2.0004 8.6655C2.04575 3.87192 5.9457 0 10.75 0C15.5543 0 19.4542 3.87192 19.4996 8.66549C20.6796 8.99945 21.5 10.078 21.5 11.3114V13.1882C21.5 14.4214 20.6798 15.4999 19.5 15.834V16.25C19.5 17.7688 18.2688 19 16.75 19H14.372C14.0631 19.8739 13.2296 20.5 12.25 20.5H9.25C8.00735 20.5 7 19.4926 7 18.25C7 17.0074 8.00735 16 9.25 16H12.25C13.2296 16 14.0631 16.6261 14.372 17.5H16.75C17.4404 17.5 18 16.9404 18 16.25V16.2103L17.6774 16.291C17.6774 16.291 17.6775 16.291 17.6774 16.291C16.8253 16.504 16 15.8595 16 14.9813V9.51829C16 8.64003 16.8253 7.9955 17.6774 8.20859L17.9854 8.28557C17.7459 4.49792 14.5981 1.5 10.75 1.5C6.90194 1.5 3.75409 4.49792 3.51464 8.28557L3.82253 8.20859C3.82254 8.20859 3.82251 8.2086 3.82253 8.20859C4.67463 7.99554 5.5 8.64001 5.5 9.51829V14.9813C5.5 15.8596 4.67468 16.5041 3.82257 16.291C3.82256 16.291 3.82259 16.291 3.82257 16.291L2.08302 15.8561C0.858833 15.55 0 14.4502 0 13.1882V11.3114C0 10.078 0.820362 8.99946 2.0004 8.6655ZM2.26493 9.37109L2.23461 9.24982ZM17.5 9.7104V14.7892L19.0532 14.4009C19.0532 14.4009 19.0532 14.4009 19.0532 14.4009C19.6096 14.2618 20 13.7618 20 13.1882V11.3114C20 10.7378 19.6096 10.2378 19.0532 10.0987C19.0532 10.0987 19.0532 10.0987 19.0532 10.0987L17.5 9.7104ZM4 9.71039L2.44684 10.0987C1.89035 10.2378 1.5 10.7378 1.5 11.3114V13.1882C1.5 13.7618 1.89035 14.2618 2.44684 14.4009L4 14.7892V9.71039ZM9.25 17.5C8.83579 17.5 8.5 17.8358 8.5 18.25C8.5 18.6642 8.83579 19 9.25 19H12.25C12.6642 19 13 18.6642 13 18.25C13 17.8358 12.6642 17.5 12.25 17.5H9.25Z" fill="#292927"/>
</g>
</svg>
