<svg preserveAspectRatio="xMidYMid meet" overflow="visible" style="display: block;" viewBox="0 0 24 24" fill="none" xmlns="http://www.w3.org/2000/svg">
<g transform="translate(3.2500, 5.5000)">
<path id="Vector" fill-rule="evenodd" clip-rule="evenodd" d="M0.75 0C0.335786 0 0 0.335786 0 0.75C0 1.16421 0.335786 1.5 0.75 1.5H16.75C17.1642 1.5 17.5 1.16421 17.5 0.75C17.5 0.335786 17.1642 0 16.75 0H0.75ZM0.75 10C0.335786 10 0 10.3358 0 10.75C0 11.1642 0.335786 11.5 0.75 11.5H5.75C6.16421 11.5 6.5 11.1642 6.5 10.75C6.5 10.3358 6.16421 10 5.75 10H0.75ZM0 5.75C0 5.33579 0.335786 5 0.75 5H14.25C16.0449 5 17.5 6.45507 17.5 8.25C17.5 10.0449 16.0449 11.5 14.25 11.5H12.5V12.25C12.5 12.5202 12.3547 12.7695 12.1195 12.9026C11.8844 13.0358 11.5958 13.0321 11.3641 12.8931L8.8759 11.4002C8.83605 11.3772 8.79851 11.3507 8.76372 11.321C8.73406 11.2958 8.70657 11.2684 8.68142 11.2391C8.56835 11.1078 8.5 10.9369 8.5 10.75C8.5 10.5631 8.56835 10.3922 8.68142 10.2609C8.70657 10.2316 8.73406 10.2042 8.76372 10.179C8.79851 10.1493 8.83605 10.1228 8.8759 10.0998L11.3641 8.60688C11.5958 8.46786 11.8844 8.46422 12.1195 8.59735C12.3547 8.73048 12.5 8.9798 12.5 9.25V10H14.25C15.2165 10 16 9.2165 16 8.25C16 7.2835 15.2165 6.5 14.25 6.5H0.75C0.335786 6.5 0 6.16421 0 5.75Z" fill="#292927"/>
</g>
</svg>
