<svg preserveAspectRatio="xMidYMid meet" overflow="visible" style="display: block;" viewBox="0 0 24 24" fill="none" xmlns="http://www.w3.org/2000/svg">
<g transform="translate(2.2500, 2.2500)">
<path id="Vector" fill-rule="evenodd" clip-rule="evenodd" d="M9.75 0C10.1642 0 10.5 0.335786 10.5 0.75C10.5 3.84606 11.1631 5.85432 12.4211 7.10408C13.6801 8.35484 15.6897 9 18.75 9C19.1642 9 19.5 9.33579 19.5 9.75C19.5 10.1642 19.1642 10.5 18.75 10.5C15.6947 10.5 13.6837 11.162 12.4228 12.4228C11.162 13.6837 10.5 15.6947 10.5 18.75C10.5 19.1642 10.1642 19.5 9.75 19.5C9.33579 19.5 9 19.1642 9 18.75C9 15.6959 8.33376 13.6846 7.07042 12.4233C5.80684 11.1618 3.79516 10.5 0.75 10.5C0.335786 10.5 0 10.1642 0 9.75C0 9.33579 0.335786 9 0.75 9C3.80016 9 5.81042 8.35512 7.07216 7.10365C8.33265 5.85343 9 3.84482 9 0.75C9 0.335786 9.33579 0 9.75 0ZM9.7483 5.62298C9.36849 6.61745 8.83547 7.4674 8.12848 8.16864C7.42823 8.86319 6.58433 9.38498 5.60346 9.75686C6.5856 10.1345 7.42993 10.6626 8.13022 11.3618C8.83609 12.0665 9.36866 12.918 9.7483 13.9105C10.1265 12.9183 10.6575 12.0669 11.3622 11.3622C12.0616 10.6628 12.9055 10.1345 13.8882 9.75686C12.9068 9.38494 12.0633 8.86303 11.3639 8.16821C10.6581 7.46698 10.1267 6.61714 9.7483 5.62298Z" fill="#292927"/>
</g>
</svg>
