<svg preserveAspectRatio="xMidYMid meet" overflow="visible" style="display: block;" viewBox="0 0 24 24" fill="none" xmlns="http://www.w3.org/2000/svg">
<g transform="translate(0.2500, 4.2500)">
<path id="Vector" fill-rule="evenodd" clip-rule="evenodd" d="M1.5 7.75C1.5 4.29822 4.29822 1.5 7.75 1.5C8.71252 1.5 9.62423 1.71758 10.4386 2.10624C8.93734 3.51964 8 5.52536 8 7.75C8 9.97464 8.93734 11.9804 10.4386 13.3938C9.62423 13.7824 8.71252 14 7.75 14C4.29822 14 1.5 11.2018 1.5 7.75ZM11.75 14.3893C10.5823 15.0943 9.21352 15.5 7.75 15.5C3.46979 15.5 0 12.0302 0 7.75C0 3.46979 3.46979 0 7.75 0C9.21352 0 10.5823 0.405669 11.75 1.11069C12.9177 0.405669 14.2865 0 15.75 0C20.0302 0 23.5 3.46979 23.5 7.75C23.5 12.0302 20.0302 15.5 15.75 15.5C14.2865 15.5 12.9177 15.0943 11.75 14.3893ZM13.0614 2.10624C13.8758 1.71758 14.7875 1.5 15.75 1.5C19.2018 1.5 22 4.29822 22 7.75C22 11.2018 19.2018 14 15.75 14C14.7875 14 13.8758 13.7824 13.0614 13.3938C14.5627 11.9804 15.5 9.97464 15.5 7.75C15.5 5.52536 14.5627 3.51964 13.0614 2.10624ZM11.75 2.94745C13.125 4.09392 14 5.81978 14 7.75C14 9.68022 13.125 11.4061 11.75 12.5525C10.375 11.4061 9.5 9.68022 9.5 7.75C9.5 5.81978 10.375 4.09392 11.75 2.94745Z" fill="#292927"/>
</g>
</svg>
