<svg preserveAspectRatio="xMidYMid meet" overflow="visible" style="display: block;" viewBox="0 0 24 24" fill="none" xmlns="http://www.w3.org/2000/svg">
<g transform="translate(2.7500, 2.2500)">
<path id="Vector" fill-rule="evenodd" clip-rule="evenodd" d="M7.75 1.5C5.95507 1.5 4.5 2.95507 4.5 4.75C4.5 6.54493 5.95507 8 7.75 8C9.54493 8 11 6.54493 11 4.75C11 2.95507 9.54493 1.5 7.75 1.5ZM10.6081 8.54426C11.7572 7.6773 12.5 6.30039 12.5 4.75C12.5 2.12665 10.3734 0 7.75 0C5.12665 0 3 2.12665 3 4.75C3 6.30031 3.74271 7.67715 4.89172 8.54412C2.02613 9.68175 0 12.4793 0 15.75V16.75C0 17.1642 0.335786 17.5 0.75 17.5C1.16421 17.5 1.5 17.1642 1.5 16.75V15.75C1.5 12.2982 4.29822 9.5 7.75 9.5C8.70994 9.5 9.61736 9.7159 10.4282 10.1011C10.8023 10.2788 11.2497 10.1196 11.4274 9.74545C11.6052 9.37131 11.446 8.92392 11.0718 8.74618C10.9199 8.67401 10.7652 8.60664 10.6081 8.54426ZM13.2175 13.0585C13.3583 13.2004 13.55 13.2802 13.7499 13.2802L13.75 12.8865L13.7501 13.2802C13.95 13.2802 14.1416 13.2004 14.2825 13.0585C14.907 12.4291 15.8848 12.275 16.5561 12.9516C17.1479 13.548 17.1479 14.5113 16.5561 15.1078L13.75 17.9357L10.9439 15.1078C10.352 14.5113 10.352 13.548 10.9439 12.9516C11.6152 12.275 12.593 12.4291 13.2175 13.0585ZM13.75 19.4999C13.4038 19.4999 13.058 19.3679 12.7971 19.105L9.87911 16.1643C8.70694 14.983 8.70694 13.0763 9.87911 11.895C10.9298 10.8362 12.5672 10.7169 13.75 11.5373C14.9328 10.7169 16.5702 10.8362 17.6209 11.895C18.793 13.0763 18.793 14.983 17.6209 16.1643L14.7028 19.105C14.442 19.3679 14.0962 19.4999 13.75 19.4999Z" fill="#292927"/>
</g>
</svg>
