<svg preserveAspectRatio="xMidYMid meet" overflow="visible" style="display: block;" viewBox="0 0 24 24" fill="none" xmlns="http://www.w3.org/2000/svg">
<g transform="translate(1.2500, 1.2500)">
<path id="Vector" fill-rule="evenodd" clip-rule="evenodd" d="M10.75 1.5C5.64137 1.5 1.5 5.64137 1.5 10.75C1.5 13.0014 2.30356 15.064 3.64074 16.6683L16.8092 3.7606C15.1856 2.3517 13.0678 1.5 10.75 1.5ZM17.8593 4.83174L4.69081 17.7394C6.31438 19.1483 8.43218 20 10.75 20C15.8586 20 20 15.8586 20 10.75C20 8.49858 19.1964 6.43604 17.8593 4.83174ZM0 10.75C0 4.81294 4.81294 0 10.75 0C13.757 0 16.4768 1.23564 18.427 3.22497C20.3271 5.16323 21.5 7.82039 21.5 10.75C21.5 16.6871 16.6871 21.5 10.75 21.5C7.74296 21.5 5.02316 20.2644 3.07299 18.275C1.17288 16.3368 0 13.6796 0 10.75Z" fill="#292927"/>
</g>
</svg>
