<svg preserveAspectRatio="xMidYMid meet" overflow="visible" style="display: block;" viewBox="0 0 24 24" fill="none" xmlns="http://www.w3.org/2000/svg">
<g transform="translate(3.7306, 1.4785)">
<path id="Vector" fill-rule="evenodd" clip-rule="evenodd" d="M6.30521 0.0576907C7.14164 -0.193236 7.99262 0.403965 8.04105 1.27587L8.49882 9.51568C8.51724 9.84716 8.31553 10.1513 8.00301 10.2633C7.69048 10.3753 7.3415 10.2685 7.14517 10.0008L2.14774 3.18612C1.59624 2.43409 1.95522 1.36269 2.84846 1.09472L6.30521 0.0576907ZM6.55392 1.54912L3.48299 2.47041L6.86102 7.07681L6.55392 1.54912ZM12.1438 6.86483C12.6678 6.07876 13.8164 6.06023 14.3656 6.829L15.8104 8.85179C16.3858 9.6573 15.9273 10.7876 14.9534 10.9647L10.3842 11.7955C10.0881 11.8493 9.78846 11.7209 9.6232 11.4694C9.45793 11.2179 9.45902 10.8919 9.62596 10.6415L12.1438 6.86483ZM13.2713 7.8777L11.854 10.0036L14.4524 9.53119L13.2713 7.8777ZM10.8842 13.8197C10.6047 13.7689 10.3205 13.8804 10.15 14.1076C9.97956 14.3349 9.95214 14.639 10.0792 14.8931L12.145 19.0247C12.5938 19.9223 13.8304 20.0338 14.4325 19.231L16.2675 16.7843C16.8697 15.9814 16.4164 14.8256 15.429 14.6461L10.8842 13.8197ZM13.3781 18.1368L12.0916 15.5639L14.9219 16.0785L13.3781 18.1368ZM8.037 14.3647C8.31726 14.4808 8.49999 14.7543 8.49999 15.0576V19.6918C8.49999 20.6344 7.55854 21.2868 6.67597 20.9559L4.35912 20.0871C3.4398 19.7423 3.18428 18.5627 3.87854 17.8684L7.21966 14.5273C7.43416 14.3128 7.75675 14.2486 8.037 14.3647ZM5.10392 18.7644L6.99999 19.4754V16.8683L5.10392 18.7644ZM1.95374 9.82102C1.05612 9.37221 0 10.0249 0 11.0285V13.6715C0 14.6265 0.96461 15.2796 1.85138 14.9249L6.02854 13.254C6.30276 13.1443 6.48708 12.8839 6.49935 12.5888C6.51163 12.2938 6.34957 12.0189 6.08541 11.8869L1.95374 9.82102ZM1.5 13.4499V11.2712L3.92078 12.4816L1.5 13.4499Z" fill="#292927"/>
</g>
</svg>
