<svg preserveAspectRatio="xMidYMid meet" overflow="visible" style="display: block;" viewBox="0 0 24 24" fill="none" xmlns="http://www.w3.org/2000/svg">
<g transform="translate(2.2500, 2.2491)">
<path id="Vector" fill-rule="evenodd" clip-rule="evenodd" d="M4.7496 0C4.33539 0 3.9996 0.335786 3.9996 0.75V2.0002H3.31319C1.48249 2.0002 0 3.48321 0 5.31208V16.1899C0 17.0671 0.348897 17.911 0.970588 18.532C1.59154 19.1522 2.43365 19.5018 3.31319 19.5018H16.1868C17.0663 19.5018 17.9085 19.1522 18.5294 18.532C19.1511 17.911 19.5 17.0671 19.5 16.1899V9.74768C19.5 5.46896 16.0303 2.0002 11.7516 2.0002H10.5V0.75C10.5 0.335786 10.1642 0 9.75 0H4.7496ZM3.31319 3.5002H4.74959C5.16381 3.5002 5.4996 3.16441 5.4996 2.7502V1.5H9V2.7502C9 3.16441 9.33579 3.5002 9.75 3.5002H11.7516C15.2021 3.5002 18 6.29762 18 9.74768V16.1899C18 16.6697 17.8089 17.1316 17.4694 17.4707C17.1292 17.8105 16.668 18.0018 16.1868 18.0018H3.31319C2.83194 18.0018 2.37088 17.8106 2.03064 17.4707C1.69113 17.1316 1.5 16.6697 1.5 16.1899V5.31208C1.5 4.31186 2.3107 3.5002 3.31319 3.5002ZM9.74906 6.75L10.2788 6.21908L10.2823 6.22258L10.2901 6.23042L10.318 6.25871C10.3419 6.28306 10.3762 6.31823 10.4193 6.36323C10.5056 6.45317 10.6276 6.58262 10.7734 6.74352C11.0644 7.06448 11.4542 7.51468 11.8458 8.02895C12.2355 8.54068 12.6386 9.13097 12.9474 9.73126C13.2487 10.317 13.4993 10.9861 13.4994 11.6364C13.4998 13.7064 11.8194 15.3865 9.7497 15.3865C7.67498 15.3865 6.01494 13.7026 6.00001 11.642L6 11.6326C6.00335 10.9839 6.25443 10.3161 6.55594 9.73057C6.86484 9.13069 7.26727 8.54072 7.65609 8.02914C8.04682 7.51505 8.43542 7.06502 8.72551 6.74417C8.87093 6.58333 8.99252 6.45393 9.07847 6.36402C9.12146 6.31904 9.1556 6.28389 9.17941 6.25955L9.20721 6.23128L9.21497 6.22345L9.21846 6.21995L9.74906 6.75ZM9.21846 6.21995C9.21856 6.21984 9.21846 6.21995 9.74906 6.75C10.2788 6.21908 10.2787 6.21898 10.2788 6.21908C9.98571 5.92663 9.51108 5.92702 9.21846 6.21995ZM10.6524 8.9377C10.3313 8.51605 10.0088 8.13794 9.7499 7.84845C9.49187 8.13779 9.17048 8.51555 8.85031 8.9368C8.49058 9.41009 8.14385 9.92337 7.88951 10.4173C7.62905 10.9231 7.50275 11.338 7.50001 11.636C7.51168 12.8845 8.515 13.8865 9.7497 13.8865C10.9911 13.8865 11.9996 12.8779 11.9994 11.6366C11.9994 11.3403 11.8748 10.9253 11.6135 10.4174C11.3597 9.92398 11.0128 9.41096 10.6524 8.9377Z" fill="#292927"/>
</g>
</svg>
