<svg preserveAspectRatio="xMidYMid meet" overflow="visible" style="display: block;" viewBox="0 0 24 24" fill="none" xmlns="http://www.w3.org/2000/svg">
<g transform="translate(5.2492, 2.2500)">
<path id="Vector" fill-rule="evenodd" clip-rule="evenodd" d="M1.50073 5.7382C1.47957 4.3935 1.91442 3.37227 2.72298 2.67398C3.54861 1.96094 4.86232 1.5 6.75082 1.5C8.63932 1.5 9.95302 1.96094 10.7787 2.67398C11.5872 3.37227 12.0221 4.3935 12.0009 5.7382C11.9808 7.01723 11.5921 7.84794 10.7204 8.71971L10.6779 8.7622L10.6779 8.76221C10.2117 9.2282 9.76008 9.67966 9.45511 10.2896C9.13181 10.9362 9.0009 11.6928 9.00082 12.7499C9.00079 13.1642 9.33655 13.5 9.75076 13.5C10.165 13.5 10.5008 13.1643 10.5008 12.7501C10.5009 11.8072 10.6201 11.3138 10.7968 10.9604C10.9825 10.5889 11.2625 10.2991 11.7812 9.78029C12.9092 8.65206 13.4741 7.45654 13.5007 5.7618C13.5276 4.05678 12.9625 2.57802 11.7591 1.53874C10.5728 0.514201 8.86247 0 6.75082 0C4.63916 0 2.92888 0.514201 1.74256 1.53874C0.53916 2.57802 -0.0259158 4.05678 0.000911387 5.7618C0.0275754 7.45644 0.592016 8.65203 1.72053 9.78037C2.23938 10.2991 2.51937 10.5889 2.70511 10.9604C2.88179 11.3138 3.00089 11.8071 3.00082 12.7499C3.00079 13.1642 3.33655 13.5 3.75076 13.5C4.16498 13.5 4.50079 13.1643 4.50082 12.7501C4.5009 11.6929 4.37008 10.9362 4.04675 10.2896C3.74173 9.67953 3.28988 9.22803 2.82347 8.76197L2.78111 8.71963C1.90932 7.84797 1.52085 7.01733 1.50073 5.7382ZM3.00082 15.75C3.00082 15.3358 3.33661 15 3.75082 15H9.75082C10.165 15 10.5008 15.3358 10.5008 15.75C10.5008 16.1642 10.165 16.5 9.75082 16.5H3.75082C3.33661 16.5 3.00082 16.1642 3.00082 15.75ZM4.00082 18.75C4.00082 18.3358 4.33661 18 4.75082 18H8.75082C9.16503 18 9.50082 18.3358 9.50082 18.75C9.50082 19.1642 9.16503 19.5 8.75082 19.5H4.75082C4.33661 19.5 4.00082 19.1642 4.00082 18.75Z" fill="#292927"/>
</g>
</svg>
