<svg preserveAspectRatio="xMidYMid meet" overflow="visible" style="display: block;" viewBox="0 0 24 24" fill="none" xmlns="http://www.w3.org/2000/svg">
<g transform="translate(1.3476, 1.4217)">
<path id="Vector" fill-rule="evenodd" clip-rule="evenodd" d="M6.36928 0H2.61836C1.08228 0 -0.214521 1.29172 0.0297136 2.90869C0.457748 5.74252 1.72929 10.9852 5.52443 14.7803C9.48643 18.7423 15.1437 20.4311 18.1973 21.0956C19.8726 21.4601 21.3048 20.141 21.3048 18.5155L21.3048 14.9312C21.3048 14.62 21.1126 14.3412 20.8218 14.2304L16.9401 12.7512C16.8095 12.7014 16.6675 12.6891 16.5303 12.7157L12.6654 13.4646C10.2097 12.1939 8.72909 10.7773 7.83273 8.66931L8.56201 4.75735C8.58709 4.62281 8.57489 4.48398 8.52671 4.35588L7.07127 0.485986C6.96131 0.193609 6.68165 0 6.36928 0ZM2.61836 1.5L5.85006 1.5L7.04908 4.6881L6.31747 8.61255C6.29141 8.75229 6.30561 8.89656 6.35841 9.02854C7.44514 11.7454 9.32408 13.4676 12.2183 14.9203C12.3664 14.9946 12.5348 15.0178 12.6974 14.9863L16.6057 14.229L19.8048 15.448L19.8048 18.5155C19.8048 19.274 19.1705 19.7722 18.5162 19.6299C15.5373 18.9817 10.2335 17.3681 6.58509 13.7197C3.13329 10.2679 1.92567 5.41748 1.51289 2.68467C1.42032 2.07183 1.89934 1.5 2.61836 1.5ZM16.5547 6.5C16.1405 6.5 15.8047 6.16421 15.8047 5.75V0.75C15.8047 0.335786 16.1405 0 16.5547 0C16.969 0 17.3047 0.335786 17.3047 0.75V5.75C17.3047 6.16421 16.969 6.5 16.5547 6.5ZM20.5547 6.5C20.1405 6.5 19.8047 6.16421 19.8047 5.75V0.75C19.8047 0.335786 20.1405 0 20.5547 0C20.969 0 21.3047 0.335786 21.3047 0.75V5.75C21.3047 6.16421 20.969 6.5 20.5547 6.5Z" fill="#292927"/>
</g>
</svg>
