<svg preserveAspectRatio="xMidYMid meet" overflow="visible" style="display: block;" viewBox="0 0 24 24" fill="none" xmlns="http://www.w3.org/2000/svg">
<g transform="translate(4.0000, 6.2500)">
<path id="Vector" fill-rule="evenodd" clip-rule="evenodd" d="M12.0371 11.4431C11.9487 11.4798 11.8517 11.5 11.75 11.5C11.6483 11.5 11.5513 11.4798 11.4629 11.4431C11.3745 11.4065 11.2916 11.3522 11.2197 11.2803L7.71967 7.78033C7.42678 7.48744 7.42678 7.01256 7.71967 6.71967C8.01256 6.42678 8.48744 6.42678 8.78033 6.71967L11 8.93934V4.75C11 2.95507 9.54493 1.5 7.75 1.5H0.75C0.335786 1.5 0 1.16421 0 0.75C0 0.335787 0.335786 0 0.75 0H7.75C10.3734 0 12.5 2.12665 12.5 4.75V8.93934L14.7197 6.71967C15.0126 6.42678 15.4874 6.42678 15.7803 6.71967C16.0732 7.01256 16.0732 7.48744 15.7803 7.78033L12.2803 11.2803C12.2084 11.3522 12.1255 11.4065 12.0371 11.4431Z" fill="#292927"/>
</g>
</svg>
