<svg preserveAspectRatio="xMidYMid meet" overflow="visible" style="display: block;" viewBox="0 0 24 24" fill="none" xmlns="http://www.w3.org/2000/svg">
<g transform="translate(1.2500, 2.2500)">
<path id="Vector" fill-rule="evenodd" clip-rule="evenodd" d="M6.75 1.5C3.85051 1.5 1.5 3.85051 1.5 6.75V12.75C1.5 15.6495 3.85051 18 6.75 18H14.75C17.6495 18 20 15.6495 20 12.75V6.75C20 3.85051 17.6495 1.5 14.75 1.5H6.75ZM0 6.75C0 3.02208 3.02208 0 6.75 0H14.75C18.4779 0 21.5 3.02208 21.5 6.75V12.75C21.5 16.4779 18.4779 19.5 14.75 19.5H6.75C3.02208 19.5 0 16.4779 0 12.75V6.75ZM16.08 6.65446C15.8299 6.51441 15.4922 6.50008 15.1071 6.50008H13V9.00008H15.1071L15.1282 9.00006C15.5045 8.99951 15.8345 8.98319 16.08 8.8457C16.2376 8.75744 16.5 8.54392 16.5 7.75008C16.5 6.95624 16.2376 6.74272 16.08 6.65446ZM17.332 9.75008C17.7549 9.29908 18 8.6384 18 7.75008C18 6.54392 17.5481 5.75744 16.8129 5.3457C16.1929 4.99849 15.4882 4.99953 15.1436 5.00004L15.1071 5.00008H12.25C11.8358 5.00008 11.5 5.33586 11.5 5.75008V13.7501C11.5 14.1643 11.8358 14.5001 12.25 14.5001H15.1071L15.1436 14.5001C15.4882 14.5006 16.1929 14.5017 16.8129 14.1545C17.5481 13.7427 18 12.9562 18 11.7501C18 10.8618 17.7549 10.2011 17.332 9.75008ZM15.1288 10.5001L15.1071 10.5001H13V13.0001H15.1071C15.4922 13.0001 15.8299 12.9857 16.08 12.8457C16.2376 12.7574 16.5 12.5439 16.5 11.7501C16.5 10.9562 16.2376 10.7427 16.08 10.6545C15.8346 10.517 15.5049 10.5007 15.1288 10.5001ZM7.10714 6.50008C7.49222 6.50008 7.82989 6.51441 8.07998 6.65446C8.23758 6.74272 8.5 6.95624 8.5 7.75008V11.7501C8.5 12.5439 8.23758 12.7574 8.07998 12.8457C7.82989 12.9857 7.49222 13.0001 7.10714 13.0001H5V6.50008H7.10714ZM10 7.75008C10 6.54392 9.54813 5.75744 8.81288 5.3457C8.19287 4.99849 7.48819 4.99953 7.14361 5.00004L7.10714 5.00008H4.25C3.83579 5.00008 3.5 5.33586 3.5 5.75008V13.7501C3.5 14.1643 3.83579 14.5001 4.25 14.5001H7.10714L7.14361 14.5001C7.48819 14.5006 8.19287 14.5017 8.81288 14.1545C9.54813 13.7427 10 12.9562 10 11.7501V7.75008Z" fill="#292927"/>
</g>
</svg>
