<svg preserveAspectRatio="xMidYMid meet" overflow="visible" style="display: block;" viewBox="0 0 24 24" fill="none" xmlns="http://www.w3.org/2000/svg">
<g transform="translate(1.2498, 2.0000)">
<path id="Vector" fill-rule="evenodd" clip-rule="evenodd" d="M1.7636 9.5H19.7368L19.2432 11.1153C19.0826 11.6409 18.5974 12 18.0478 12H16.7502C16.336 12 16.0002 12.3358 16.0002 12.75C16.0002 13.1642 16.336 13.5 16.7502 13.5H18.0478C19.257 13.5 20.3244 12.7101 20.6778 11.5536L21.4621 8.9865C21.4762 8.94403 21.4867 8.89987 21.493 8.85441C21.4987 8.81383 21.5011 8.77332 21.5002 8.73325V1.35C21.5002 0.604415 20.8958 0 20.1502 0H1.3502C0.604616 0 0.000198399 0.604415 0.000198399 1.35V8.73256C-0.000779977 8.77492 0.00185052 8.81775 0.0083046 8.86066C0.0146694 8.9037 0.0246906 8.94555 0.0380424 8.98588L0.822624 11.5536C1.17599 12.7101 2.24334 13.5 3.45259 13.5H4.7502C5.16441 13.5 5.5002 13.1642 5.5002 12.75C5.5002 12.3358 5.16441 12 4.7502 12H3.45259C2.90293 12 2.41777 11.6409 2.25715 11.1153L1.7636 9.5ZM20.0002 1.5H1.5002V8H20.0002V1.5ZM18.5002 4.75C18.5002 5.16421 18.1644 5.5 17.7502 5.5H16.7502C16.336 5.5 16.0002 5.16421 16.0002 4.75C16.0002 4.33579 16.336 4 16.7502 4H17.7502C18.1644 4 18.5002 4.33579 18.5002 4.75ZM9.0002 12.25C9.0002 11.8358 8.66441 11.5 8.2502 11.5C7.83608 11.5 7.50035 11.8359 7.5002 12.25L7.50019 12.2521L7.50012 12.264L7.49945 12.3161C7.49867 12.363 7.49708 12.4334 7.49384 12.524C7.48736 12.7054 7.47432 12.9669 7.4481 13.2815C7.39539 13.914 7.29068 14.7458 7.08509 15.5681C6.87686 16.401 6.5793 17.1654 6.17364 17.7062C5.78381 18.226 5.33056 18.5 4.7502 18.5C4.33599 18.5 4.0002 18.8358 4.0002 19.25C4.0002 19.6642 4.33599 20 4.7502 20C5.91984 20 6.77908 19.399 7.37364 18.6063C7.95235 17.8346 8.31104 16.849 8.54031 15.9319C8.77222 15.0042 8.88625 14.086 8.94292 13.406C8.97139 13.0644 8.98569 12.779 8.99289 12.5775C8.99648 12.4768 8.99831 12.3968 8.99924 12.3411C8.9997 12.3133 8.99994 12.2915 9.00007 12.2761L9.00018 12.258L9.0002 12.2528L9.0002 12.25ZM8.2502 12.25C9.0002 12.25 9.0002 12.2498 9.0002 12.25H8.2502ZM13.2502 11.5C12.836 11.5 12.5002 11.8358 12.5002 12.25C12.5002 12.2498 12.5002 12.25 13.2502 12.25H12.5002L12.5002 12.2528L12.5002 12.258L12.5003 12.2761C12.5005 12.2915 12.5007 12.3133 12.5012 12.3411C12.5021 12.3968 12.5039 12.4768 12.5075 12.5775C12.5147 12.779 12.529 13.0644 12.5575 13.406C12.6141 14.086 12.7282 15.0042 12.9601 15.9319C13.1894 16.849 13.548 17.8346 14.1268 18.6063C14.7213 19.399 15.5806 20 16.7502 20C17.1644 20 17.5002 19.6642 17.5002 19.25C17.5002 18.8358 17.1644 18.5 16.7502 18.5C16.1698 18.5 15.7166 18.226 15.3268 17.7062C14.9211 17.1654 14.6235 16.401 14.4153 15.5681C14.2097 14.7458 14.105 13.914 14.0523 13.2815C14.0261 12.9669 14.013 12.7054 14.0066 12.524C14.0033 12.4334 14.0017 12.363 14.0009 12.3161L14.0003 12.264L14.0002 12.2521L14.0002 12.25C14 11.8359 13.6643 11.5 13.2502 11.5ZM11.5002 12.25C11.5002 11.8358 11.1644 11.5 10.7502 11.5C10.336 11.5 10.0002 11.8358 10.0002 12.25V19.25C10.0002 19.6642 10.336 20 10.7502 20C11.1644 20 11.5002 19.6642 11.5002 19.25V12.25Z" fill="#292927"/>
</g>
</svg>
