<svg preserveAspectRatio="xMidYMid meet" overflow="visible" style="display: block;" viewBox="0 0 24 24" fill="none" xmlns="http://www.w3.org/2000/svg">
<g transform="translate(1.3749, 2.5000)">
<path id="Vector" fill-rule="evenodd" clip-rule="evenodd" d="M0.534687 0.0318277C0.931431 -0.0871956 1.34954 0.137942 1.46857 0.534687L2.05822 2.5002H20.5002C20.7373 2.5002 20.9604 2.61229 21.1019 2.8025C21.2434 2.99271 21.2867 3.23863 21.2186 3.46571L18.2186 13.4657C18.1234 13.7829 17.8314 14.0002 17.5002 14.0002H4.5002C4.16899 14.0002 3.877 13.7829 3.78183 13.4657L0.0318277 0.965708C-0.0871956 0.568964 0.137942 0.150851 0.534687 0.0318277ZM2.50822 4.0002L5.05822 12.5002H16.9422L19.4922 4.0002H2.50822ZM6.5002 16C6.91441 16 7.2502 16.3358 7.2502 16.75C7.2502 17.1642 7.58598 17.5 8.0002 17.5C8.41441 17.5 8.7502 17.1642 8.7502 16.75C8.7502 16.3358 9.08599 16 9.5002 16C9.91441 16 10.2502 16.3358 10.2502 16.75C10.2502 17.9926 9.24284 19 8.0002 19C6.75756 19 5.7502 17.9926 5.7502 16.75C5.7502 16.3358 6.08598 16 6.5002 16ZM13.2502 16.75C13.2502 16.3358 12.9144 16 12.5002 16C12.086 16 11.7502 16.3358 11.7502 16.75C11.7502 17.9926 12.7576 19 14.0002 19C15.2428 19 16.2502 17.9926 16.2502 16.75C16.2502 16.3358 15.9144 16 15.5002 16C15.086 16 14.7502 16.3358 14.7502 16.75C14.7502 17.1642 14.4144 17.5 14.0002 17.5C13.586 17.5 13.2502 17.1642 13.2502 16.75Z" fill="#292927"/>
</g>
</svg>
