<svg preserveAspectRatio="xMidYMid meet" overflow="visible" style="display: block;" viewBox="0 0 24 24" fill="none" xmlns="http://www.w3.org/2000/svg">
<g transform="translate(1.2500, 3.2500)">
<path id="Vector" fill-rule="evenodd" clip-rule="evenodd" d="M0 1.35C0 0.604416 0.604415 0 1.35 0H7.52805C7.85031 0 8.16194 0.115279 8.40661 0.325004L11.5274 3H20.15C20.8956 3 21.5 3.60442 21.5 4.35V16.15C21.5 16.8956 20.8956 17.5 20.15 17.5H1.35C0.604415 17.5 0 16.8956 0 16.15V1.35ZM1.5 1.5V7H20V4.5H11.472C11.1497 4.5 10.8381 4.38472 10.5934 4.175L7.47256 1.5H1.5ZM20 8.5H1.5V16H20V8.5Z" fill="#292927"/>
</g>
</svg>
