<svg preserveAspectRatio="xMidYMid meet" overflow="visible" style="display: block;" viewBox="0 0 24 24" fill="none" xmlns="http://www.w3.org/2000/svg">
<g transform="translate(2.9280, 1.6543)">
<path id="Vector" fill-rule="evenodd" clip-rule="evenodd" d="M8.88179 0.110608C7.99097 -0.271173 7 0.382269 7 1.35145V12.2103C5.26661 12.2979 3.68254 12.6869 2.46484 13.2957C1.11836 13.969 0 15.0378 0 16.4414C0 17.845 1.11836 18.9139 2.46484 19.5871C3.85618 20.2828 5.72582 20.6914 7.75 20.6914C9.77418 20.6914 11.6438 20.2828 13.0352 19.5871C14.3816 18.9139 15.5 17.845 15.5 16.4414C15.5 15.0378 14.3816 13.969 13.0352 13.2957C11.8175 12.6869 10.2334 12.2979 8.5 12.2103V10.4151L17.3744 6.18917C18.4231 5.68978 18.3934 4.18702 17.3258 3.72946L8.88179 0.110608ZM7 13.7124V15.9415C7 16.3557 7.33579 16.6915 7.75 16.6915C8.16421 16.6915 8.5 16.3557 8.5 15.9415V13.7124C10.0327 13.7987 11.3799 14.1451 12.3643 14.6374C13.5514 15.2309 14 15.912 14 16.4414C14 16.9708 13.5514 17.6519 12.3643 18.2455C11.2222 18.8165 9.59181 19.1914 7.75 19.1914C5.90819 19.1914 4.27782 18.8165 3.13566 18.2455C1.94864 17.6519 1.5 16.9708 1.5 16.4414C1.5 15.912 1.94864 15.2309 3.13566 14.6374C4.12014 14.1451 5.46733 13.7987 7 13.7124ZM16.43 4.97751L8.5 8.75369V1.57893L16.43 4.97751Z" fill="#292927"/>
</g>
</svg>
