<svg preserveAspectRatio="xMidYMid meet" overflow="visible" style="display: block;" viewBox="0 0 24 24" fill="none" xmlns="http://www.w3.org/2000/svg">
<g transform="translate(1.2500, 7.2500)">
<path id="Vector" fill-rule="evenodd" clip-rule="evenodd" d="M8 4.75C8 2.95507 6.54493 1.5 4.75 1.5C2.95507 1.5 1.5 2.95507 1.5 4.75C1.5 6.54493 2.95507 8 4.75 8C6.54493 8 8 6.54493 8 4.75ZM4.75 0C7.11815 0 9.08154 1.73301 9.44112 4H16.75H20.75C21.1642 4 21.5 4.33579 21.5 4.75V7.75C21.5 8.16421 21.1642 8.5 20.75 8.5C20.3358 8.5 20 8.16421 20 7.75V5.5H17.5V7.75C17.5 8.16421 17.1642 8.5 16.75 8.5C16.3358 8.5 16 8.16421 16 7.75V5.5H9.44112C9.08154 7.76699 7.11815 9.5 4.75 9.5C2.12665 9.5 0 7.37335 0 4.75C0 2.12665 2.12665 0 4.75 0Z" fill="#292927"/>
</g>
</svg>
