<svg preserveAspectRatio="xMidYMid meet" overflow="visible" style="display: block;" viewBox="0 0 24 24" fill="none" xmlns="http://www.w3.org/2000/svg">
<g transform="translate(3.2500, 0.7500)">
<path id="Vector" fill-rule="evenodd" clip-rule="evenodd" d="M7.5 0.75C7.5 0.335786 7.16421 0 6.75 0C6.33579 0 6 0.335786 6 0.75V2H2.75C1.23122 2 0 3.23122 0 4.75V19.75C0 21.2688 1.23122 22.5 2.75 22.5H14.75C16.2688 22.5 17.5 21.2688 17.5 19.75V4.75C17.5 3.23122 16.2688 2 14.75 2H11.25C10.8358 2 10.5 2.33579 10.5 2.75C10.5 3.16421 10.8358 3.5 11.25 3.5H14.75C15.4404 3.5 16 4.05964 16 4.75V19.75C16 20.4404 15.4404 21 14.75 21H2.75C2.05964 21 1.5 20.4404 1.5 19.75V4.75C1.5 4.05964 2.05964 3.5 2.75 3.5H6V4.75C6 5.16421 6.33579 5.5 6.75 5.5C7.16421 5.5 7.5 5.16421 7.5 4.75V0.75ZM4.75 9C4.33579 9 4 9.33579 4 9.75C4 10.1642 4.33579 10.5 4.75 10.5H6.75C7.16421 10.5 7.5 10.1642 7.5 9.75C7.5 9.33579 7.16421 9 6.75 9H4.75ZM4.75 13C4.33579 13 4 13.3358 4 13.75C4 14.1642 4.33579 14.5 4.75 14.5L12.75 14.5C13.1642 14.5 13.5 14.1642 13.5 13.75C13.5 13.3358 13.1642 13 12.75 13L4.75 13ZM4 17.75C4 17.3358 4.33579 17 4.75 17H8.75C9.16421 17 9.5 17.3358 9.5 17.75C9.5 18.1642 9.16421 18.5 8.75 18.5H4.75C4.33579 18.5 4 18.1642 4 17.75Z" fill="#292927"/>
</g>
</svg>
