<svg preserveAspectRatio="xMidYMid meet" overflow="visible" style="display: block;" viewBox="0 0 24 24" fill="none" xmlns="http://www.w3.org/2000/svg">
<g transform="translate(1.2500, 1.2500)">
<path id="Vector" fill-rule="evenodd" clip-rule="evenodd" d="M1.5 1.5V20H8V15.5H5.75C5.33579 15.5 5 15.1642 5 14.75C5 14.3358 5.33579 14 5.75 14H8V9.5H5.75C5.33579 9.5 5 9.16421 5 8.75C5 8.33579 5.33579 8 5.75 8H8V5.75C8 5.33579 8.33579 5 8.75 5C9.16421 5 9.5 5.33579 9.5 5.75V8H14V5.75C14 5.33579 14.3358 5 14.75 5C15.1642 5 15.5 5.33579 15.5 5.75V8H20V1.5H1.5ZM9.5 9.5V14.75V20.15C9.5 20.8956 8.89558 21.5 8.15 21.5H1.35C0.604415 21.5 0 20.8956 0 20.15V1.35C0 0.604415 0.604417 0 1.35 0H20.15C20.8956 0 21.5 0.604415 21.5 1.35V8.15C21.5 8.89558 20.8956 9.5 20.15 9.5H14.75H9.5Z" fill="#292927"/>
</g>
</svg>
