<svg preserveAspectRatio="xMidYMid meet" overflow="visible" style="display: block;" viewBox="0 0 24 24" fill="none" xmlns="http://www.w3.org/2000/svg">
<g transform="translate(2.2499, 2.2499)">
<path id="Vector" fill-rule="evenodd" clip-rule="evenodd" d="M19.4823 2.9127C19.5722 2.50835 19.3172 2.10772 18.9129 2.01786L9.91286 0.0178598C9.8057 -0.00595325 9.69462 -0.00595325 9.58746 0.0178598L0.587462 2.01786C0.183113 2.10772 -0.0718363 2.50835 0.0180208 2.9127C0.107876 3.31705 0.508509 3.572 0.912859 3.48214L9.75016 1.5183L18.5875 3.48214C18.9918 3.572 19.3924 3.31705 19.4823 2.9127ZM1.50017 10.5002V18.0002H8.00017V16.7502C8.00017 16.3359 8.33595 16.0002 8.75017 16.0002C9.16438 16.0002 9.50017 16.3359 9.50017 16.7502V18.0002H18.0002V10.5002H14.5002V13.7502C14.5002 13.9491 14.4212 14.1398 14.2805 14.2805C14.1398 14.4211 13.9491 14.5002 13.7502 14.5002H11.7502C11.336 14.5002 11.0002 14.1644 11.0002 13.7502C11.0002 13.3359 11.336 13.0002 11.7502 13.0002H13.0002V10.5002H9.50017V13.7502C9.50017 14.1644 9.16438 14.5002 8.75017 14.5002C8.33595 14.5002 8.00017 14.1644 8.00017 13.7502V10.5002H5.75017C5.33595 10.5002 5.00017 10.1644 5.00017 9.75016C5.00017 9.33595 5.33595 9.00016 5.75017 9.00016H8.75017H13.7502H18.0002V6.50016H1.50017V9.00016H2.75017C3.16438 9.00016 3.50017 9.33595 3.50017 9.75016C3.50017 10.1644 3.16438 10.5002 2.75017 10.5002H1.50017ZM19.5002 9.75016V6.35016C19.5002 5.60458 18.8958 5.00016 18.1502 5.00016H1.35017C0.604586 5.00016 0.000168057 5.60458 0.000168057 6.35016V18.1502C0.000168057 18.8957 0.604582 19.5002 1.35017 19.5002H8.75017H18.1502C18.8958 19.5002 19.5002 18.8957 19.5002 18.1502V9.75016Z" fill="#292927"/>
</g>
</svg>
