<svg preserveAspectRatio="xMidYMid meet" overflow="visible" style="display: block;" viewBox="0 0 24 24" fill="none" xmlns="http://www.w3.org/2000/svg">
<g transform="translate(2.2500, 2.2500)">
<path id="Vector" fill-rule="evenodd" clip-rule="evenodd" d="M1.5 1.5V18H18V1.5H1.5ZM0 1.35C0 0.604415 0.604417 0 1.35 0H18.15C18.8956 0 19.5 0.604417 19.5 1.35V18.15C19.5 18.8956 18.8956 19.5 18.15 19.5H1.35C0.604415 19.5 0 18.8956 0 18.15V1.35ZM13.7197 13.7803L10.2197 10.2803C9.92678 9.98744 9.92678 9.51256 10.2197 9.21967L13.7197 5.71967C14.0126 5.42678 14.4874 5.42678 14.7803 5.71967C15.0732 6.01256 15.0732 6.48744 14.7803 6.78033L11.8107 9.75L14.7803 12.7197C15.0732 13.0126 15.0732 13.4874 14.7803 13.7803C14.4874 14.0732 14.0126 14.0732 13.7197 13.7803ZM4.21967 9.21967C3.92678 9.51256 3.92678 9.98744 4.21967 10.2803L7.71967 13.7803C8.01256 14.0732 8.48744 14.0732 8.78033 13.7803C9.07322 13.4874 9.07322 13.0126 8.78033 12.7197L5.81066 9.75L8.78033 6.78033C9.07322 6.48744 9.07322 6.01256 8.78033 5.71967C8.48744 5.42678 8.01256 5.42678 7.71967 5.71967L4.21967 9.21967Z" fill="#292927"/>
</g>
</svg>
