<svg preserveAspectRatio="xMidYMid meet" overflow="visible" style="display: block;" viewBox="0 0 24 24" fill="none" xmlns="http://www.w3.org/2000/svg">
<g transform="translate(2.2500, 1.7500)">
<path id="Vector" fill-rule="evenodd" clip-rule="evenodd" d="M1.13695 1.68056C2.20304 0.766766 4.16031 0 7.75005 0C11.3398 0 13.2971 0.766766 14.3631 1.68056C14.8989 2.13974 15.1878 2.61876 15.3397 3.00942C15.4148 3.20261 15.4549 3.37009 15.4762 3.49779C15.4868 3.56164 15.4928 3.61565 15.4961 3.65815C15.4977 3.67941 15.4987 3.69782 15.4993 3.71319L15.4999 3.73394L15.5 3.74256L15.5 3.74643L15.5 3.74825L15.5 3.74836L15.5 3.75V3.75164L15.5 3.75175L15.5 3.75357L15.5 3.75744L15.5 3.75826V9.75L15.5 9.75175L15.5 9.75357L15.5 9.75744L15.4998 9.76606L15.4993 9.78681C15.4987 9.80218 15.4977 9.82059 15.496 9.84185C15.4927 9.88435 15.4868 9.93836 15.4761 10.0022C15.4548 10.1299 15.4148 10.2974 15.3396 10.4906C15.1877 10.8812 14.8988 11.3603 14.3631 11.8194C13.297 12.7332 11.3397 13.5 7.75 13.5C4.53434 13.5 2.62865 12.8847 1.50006 12.0996V15.7311C1.50062 15.7362 1.50167 15.7444 1.50353 15.7556C1.50959 15.792 1.5242 15.8589 1.55844 15.9469C1.62527 16.1188 1.77387 16.3897 2.11315 16.6806C2.79706 17.2668 4.3398 18 7.75006 18C8.16427 18 8.50006 18.3358 8.50006 18.75C8.50006 19.1642 8.16427 19.5 7.75006 19.5C4.16032 19.5 2.20306 18.7332 1.13697 17.8194C0.601253 17.3603 0.312354 16.8812 0.160433 16.4906C0.0852994 16.2974 0.045222 16.1299 0.0239375 16.0022C0.0132967 15.9384 0.00733382 15.8843 0.00402832 15.8418C0.00237477 15.8206 0.00138342 15.8022 0.000805199 15.7868L0.000216305 15.7661L9.60231e-05 15.7574L6.93202e-05 15.7536L6.30617e-05 15.7517C6.1512e-05 15.7509 6.10352e-05 15.75 0.750061 15.75H6.10352e-05V9.7593L3.50495e-05 9.75744L8.34666e-06 9.75357L3.64197e-06 9.7522L2.58704e-05 9.75L0 3.75C0 3.73972 0.000206899 3.72948 0.000616761 3.7193L0.000790302 3.71319C0.00136853 3.69782 0.00235987 3.67941 0.00401342 3.65815C0.00731892 3.61565 0.0132818 3.56164 0.0239226 3.49779C0.0452071 3.37009 0.0852845 3.20261 0.160418 3.00942C0.312339 2.61876 0.601238 2.13974 1.13695 1.68056ZM2.08817e-06 9.75175C2.08817e-06 9.75175 0 9.7523 3.64197e-06 9.7522L2.08817e-06 9.75175ZM7.75005 7.5C10.9657 7.5 12.8714 6.88471 14 6.09961V9.73115C13.9994 9.73618 13.9984 9.74443 13.9965 9.75561C13.9905 9.79196 13.9759 9.85886 13.9416 9.94691C13.8748 10.1188 13.7262 10.3897 13.3869 10.6806C12.703 11.2668 11.1603 12 7.75 12C4.33974 12 2.797 11.2668 2.11309 10.6806C1.77381 10.3897 1.62521 10.1188 1.55838 9.94691C1.52414 9.85886 1.50953 9.79196 1.50347 9.75561C1.5016 9.74443 1.50056 9.73618 1.5 9.73114V6.09955C2.62857 6.88467 4.53428 7.5 7.75005 7.5ZM1.50261 3.75L1.50351 3.75561C1.50957 3.79196 1.52418 3.85886 1.55842 3.94692C1.62525 4.11876 1.77385 4.38974 2.11314 4.68056C2.79705 5.26677 4.33979 6 7.75005 6C11.1603 6 12.703 5.26677 13.387 4.68056C13.7262 4.38974 13.8748 4.11876 13.9417 3.94692C13.9759 3.85886 13.9905 3.79196 13.9966 3.75561L13.9975 3.75L13.9966 3.74439C13.9905 3.70804 13.9759 3.64114 13.9417 3.55308C13.8748 3.38124 13.7262 3.11026 13.387 2.81944C12.703 2.23323 11.1603 1.5 7.75005 1.5C4.33979 1.5 2.79705 2.23323 2.11314 2.81944C1.77385 3.11026 1.62525 3.38124 1.55842 3.55308C1.52418 3.64114 1.50957 3.70804 1.50351 3.74439L1.50261 3.75ZM15.7501 15.5C15.5211 15.5 15.3087 15.5609 15.1256 15.6668C14.75 15.884 14.5001 16.2883 14.5001 16.75C14.5001 17.2117 14.75 17.616 15.1256 17.8332C15.3087 17.9391 15.5211 18 15.7501 18C16.4404 18 17.0001 17.4404 17.0001 16.75C17.0001 16.0596 16.4404 15.5 15.7501 15.5ZM14.9421 14.1208C14.8872 14.023 14.8534 13.9113 14.8474 13.7916C14.8265 13.378 15.145 13.0257 15.5587 13.0048C15.6221 13.0016 15.6859 13 15.7501 13C15.8142 13 15.878 13.0016 15.9415 13.0048C16.3552 13.0257 16.6736 13.378 16.6527 13.7916C16.6467 13.9112 16.613 14.0229 16.5581 14.1206C16.7254 14.172 16.8859 14.2388 17.0379 14.3196C17.0682 14.2117 17.1232 14.109 17.2034 14.0202C17.481 13.7127 17.9552 13.6886 18.2626 13.9662C18.3576 14.0519 18.4481 14.1425 18.5339 14.2374C18.8115 14.5448 18.7873 15.0191 18.4799 15.2967C18.3911 15.3769 18.2884 15.4319 18.1805 15.4622C18.2612 15.6142 18.3281 15.7747 18.3794 15.942C18.4772 15.8871 18.5888 15.8534 18.7084 15.8473C19.1221 15.8265 19.4744 16.1449 19.4952 16.5586C19.4984 16.6221 19.5001 16.6859 19.5001 16.75C19.5001 16.8141 19.4984 16.8779 19.4952 16.9414C19.4744 17.3551 19.1221 17.6735 18.7084 17.6527C18.5888 17.6466 18.4772 17.6129 18.3794 17.558C18.3281 17.7253 18.2612 17.8858 18.1805 18.0378C18.2884 18.0681 18.3911 18.1231 18.4799 18.2033C18.7873 18.4809 18.8115 18.9552 18.5339 19.2626C18.4481 19.3575 18.3576 19.4481 18.2626 19.5338C17.9552 19.8114 17.481 19.7873 17.2034 19.4798C17.1232 19.391 17.0682 19.2883 17.0379 19.1804C16.8859 19.2612 16.7254 19.328 16.5581 19.3794C16.613 19.4771 16.6467 19.5888 16.6527 19.7084C16.6736 20.122 16.3552 20.4743 15.9415 20.4952C15.878 20.4984 15.8142 20.5 15.7501 20.5C15.6859 20.5 15.6221 20.4984 15.5587 20.4952C15.145 20.4743 14.8265 20.122 14.8474 19.7084C14.8534 19.5887 14.8872 19.477 14.9421 19.3792C14.7749 19.3279 14.6144 19.261 14.4623 19.1803C14.432 19.2882 14.377 19.391 14.2968 19.4798C14.0192 19.7873 13.5449 19.8114 13.2375 19.5338C13.1425 19.4481 13.052 19.3575 12.9663 19.2626C12.6886 18.9552 12.7128 18.4809 13.0202 18.2033C13.1091 18.1231 13.2118 18.0681 13.3197 18.0378C13.239 17.8858 13.1721 17.7253 13.1207 17.558C13.023 17.6129 12.9113 17.6466 12.7917 17.6527C12.378 17.6735 12.0257 17.3551 12.0049 16.9414C12.0017 16.8779 12.0001 16.8141 12.0001 16.75C12.0001 16.6859 12.0017 16.6221 12.0049 16.5586C12.0257 16.1449 12.378 15.8265 12.7917 15.8473C12.9113 15.8534 13.023 15.8871 13.1207 15.942C13.1721 15.7747 13.239 15.6142 13.3197 15.4622C13.2118 15.4319 13.1091 15.3769 13.0202 15.2967C12.7128 15.0191 12.6886 14.5448 12.9663 14.2374C13.052 14.1425 13.1425 14.0519 13.2375 13.9662C13.5449 13.6886 14.0192 13.7127 14.2968 14.0202C14.377 14.109 14.432 14.2118 14.4623 14.3197C14.6144 14.239 14.7749 14.1721 14.9421 14.1208Z" fill="#292927"/>
</g>
</svg>
