<svg preserveAspectRatio="xMidYMid meet" overflow="visible" style="display: block;" viewBox="0 0 24 24" fill="none" xmlns="http://www.w3.org/2000/svg">
<g transform="translate(4.0000, 6.2500)">
<path id="Vector" fill-rule="evenodd" clip-rule="evenodd" d="M3.96291 11.4431C4.05134 11.4798 4.14831 11.5 4.25 11.5C4.45711 11.5 4.64461 11.4161 4.78033 11.2803L8.28033 7.78033C8.57322 7.48744 8.57322 7.01256 8.28033 6.71967C7.98744 6.42678 7.51256 6.42678 7.21967 6.71967L5 8.93934V4.75C5 2.95507 6.45507 1.5 8.25 1.5H15.25C15.6642 1.5 16 1.16421 16 0.75C16 0.335787 15.6642 0 15.25 0H8.25C5.62665 0 3.5 2.12665 3.5 4.75V8.93934L1.28033 6.71967C0.987436 6.42678 0.512563 6.42678 0.21967 6.71967C-0.0732232 7.01256 -0.0732232 7.48744 0.21967 7.78033L3.71967 11.2803C3.79158 11.3522 3.87445 11.4065 3.96291 11.4431Z" fill="#292927"/>
</g>
</svg>
