<svg preserveAspectRatio="xMidYMid meet" overflow="visible" style="display: block;" viewBox="0 0 24 24" fill="none" xmlns="http://www.w3.org/2000/svg">
<g transform="translate(5.2500, 2.2500)">
<path id="Vector" fill-rule="evenodd" clip-rule="evenodd" d="M6.75 1.5C3.8505 1.5 1.5 3.8505 1.5 6.75C1.5 9.6495 3.8505 12 6.75 12C9.6495 12 12 9.6495 12 6.75C12 3.8505 9.6495 1.5 6.75 1.5ZM0 6.75C0 3.02208 3.02208 0 6.75 0C10.4779 0 13.5 3.02208 13.5 6.75C13.5 10.2244 10.875 13.0857 7.5 13.4588V16H8.75C9.16421 16 9.5 16.3358 9.5 16.75C9.5 17.1642 9.16421 17.5 8.75 17.5H7.5V18.75C7.5 19.1642 7.16421 19.5 6.75 19.5C6.33579 19.5 6 19.1642 6 18.75V17.5H4.75C4.33579 17.5 4 17.1642 4 16.75C4 16.3358 4.33579 16 4.75 16H6V13.4588C2.62504 13.0857 0 10.2244 0 6.75Z" fill="#292927"/>
</g>
</svg>
