<svg preserveAspectRatio="xMidYMid meet" overflow="visible" style="display: block;" viewBox="0 0 24 24" fill="none" xmlns="http://www.w3.org/2000/svg">
<g transform="translate(2.1251, 1.3140)">
<path id="Vector" fill-rule="evenodd" clip-rule="evenodd" d="M3.95052 2.5334C4.0704 1.85353 4.71873 1.39957 5.39859 1.51945L17.2163 3.60323C17.8962 3.72311 18.3501 4.37143 18.2302 5.0513L15.7992 18.8386C15.6793 19.5185 15.031 19.9724 14.3511 19.8526L2.5334 17.7688C1.85353 17.6489 1.39957 17.0006 1.51945 16.3207L3.95052 2.5334ZM5.65907 0.0422385C4.16336 -0.221495 2.73705 0.777218 2.47331 2.27293L0.0422385 16.0602C-0.221496 17.5559 0.777218 18.9823 2.27293 19.246L14.0906 21.3298C15.5863 21.5935 17.0126 20.5948 17.2764 19.0991L19.7074 5.31177C19.9712 3.81606 18.9725 2.38975 17.4768 2.12602L5.65907 0.0422385ZM6.93411 4.32873C6.52619 4.2568 6.1372 4.52918 6.06527 4.9371C5.99334 5.34502 6.26572 5.73402 6.67364 5.80594L14.5521 7.19513C14.96 7.26706 15.349 6.99468 15.4209 6.58676C15.4929 6.17884 15.2205 5.78984 14.8126 5.71792L6.93411 4.32873ZM5.37066 8.87655C5.44259 8.46863 5.83158 8.19626 6.2395 8.26818L14.118 9.65737C14.5259 9.7293 14.7983 10.1183 14.7263 10.5262C14.6544 10.9341 14.2654 11.2065 13.8575 11.1346L5.97903 9.7454C5.57111 9.67347 5.29873 9.28447 5.37066 8.87655ZM5.54492 12.2076C5.137 12.1357 4.74801 12.4081 4.67608 12.816C4.60415 13.2239 4.87653 13.6129 5.28445 13.6848L10.2085 14.5531C10.6164 14.625 11.0054 14.3526 11.0773 13.9447C11.1493 13.5368 10.8769 13.1478 10.469 13.0759L5.54492 12.2076Z" fill="#292927"/>
</g>
</svg>
