<svg preserveAspectRatio="xMidYMid meet" overflow="visible" style="display: block;" viewBox="0 0 24 24" fill="none" xmlns="http://www.w3.org/2000/svg">
<g transform="translate(2.2500, 2.2500)">
<path id="Vector" fill-rule="evenodd" clip-rule="evenodd" d="M8.75 4.5C8.33579 4.5 8 4.16421 8 3.75V1.5H1.5V8L8 8V6.75C8 6.33579 8.33579 6 8.75 6C9.16421 6 9.5 6.33579 9.5 6.75L9.5 8.75V8.75121L9.5 13.75C9.5 14.1642 9.16421 14.5 8.75 14.5C8.33579 14.5 8 14.1642 8 13.75L8 9.5L1.5 9.5V18H8V16.75C8 16.3358 8.33579 16 8.75 16C9.16421 16 9.5 16.3358 9.5 16.75V18H12V15.75C12 15.3358 12.3358 15 12.75 15C13.1642 15 13.5 15.3358 13.5 15.75V18H18V13.5H12.75C12.5511 13.5 12.3603 13.421 12.2197 13.2803C12.079 13.1397 12 12.9489 12 12.75V10.75C12 10.3358 12.3358 10 12.75 10C13.1642 10 13.5 10.3358 13.5 10.75V12H18V6.5H13.5V7.75C13.5 8.16421 13.1642 8.5 12.75 8.5C12.3358 8.5 12 8.16421 12 7.75V5.75C12 5.33579 12.3358 5 12.75 5H18V1.5H9.5V3.75C9.5 4.16421 9.16421 4.5 8.75 4.5ZM19.5 5.75V12.75V18.15C19.5 18.8956 18.8956 19.5 18.15 19.5H12.75H8.75H1.35C0.604414 19.5 0 18.8956 0 18.15V8.75V1.35C0 0.604414 0.604418 0 1.35 0H8.75H18.15C18.8956 0 19.5 0.604418 19.5 1.35V5.75Z" fill="#292927"/>
</g>
</svg>
