<svg preserveAspectRatio="xMidYMid meet" overflow="visible" style="display: block;" viewBox="0 0 24 24" fill="none" xmlns="http://www.w3.org/2000/svg">
<g transform="translate(3.2500, 2.2500)">
<path id="Vector" fill-rule="evenodd" clip-rule="evenodd" d="M0.21967 0.21967C0.360322 0.0790176 0.551088 0 0.75 0H14.75C15.1015 0 15.4059 0.244149 15.4821 0.587302L17.4821 9.5873C17.506 9.69446 17.506 9.80554 17.4821 9.9127L15.4821 18.9127C15.4059 19.2559 15.1015 19.5 14.75 19.5H0.75C0.551088 19.5 0.360322 19.421 0.21967 19.2803C0.0790176 19.1397 0 18.9489 0 18.75V0.75C0 0.551088 0.0790176 0.360322 0.21967 0.21967ZM1.5 1.5V3H12.75C13.1642 3 13.5 3.33579 13.5 3.75V15.75C13.5 16.1642 13.1642 16.5 12.75 16.5H1.5V18H14.1484L15.9817 9.75L14.1484 1.5H1.5ZM1.5 15H4V4.5H1.5V15ZM5.5 4.5V15H8V4.5H5.5ZM9.5 4.5V15H12V4.5H9.5Z" fill="#292927"/>
</g>
</svg>
