<svg preserveAspectRatio="xMidYMid meet" overflow="visible" style="display: block;" viewBox="0 0 24 24" fill="none" xmlns="http://www.w3.org/2000/svg">
<g transform="translate(6.2500, 4.0000)">
<path id="Vector" fill-rule="evenodd" clip-rule="evenodd" d="M11.4431 12.0371C11.4798 11.9487 11.5 11.8517 11.5 11.75C11.5 11.6483 11.4798 11.5513 11.4431 11.4629C11.4065 11.3745 11.3522 11.2916 11.2803 11.2197L7.78033 7.71967C7.48744 7.42678 7.01256 7.42678 6.71967 7.71967C6.42678 8.01256 6.42678 8.48744 6.71967 8.78033L8.93934 11H4.75C2.95507 11 1.5 9.54493 1.5 7.75V0.75C1.5 0.335786 1.16421 0 0.75 0C0.335787 0 0 0.335786 0 0.75V7.75C0 10.3734 2.12665 12.5 4.75 12.5H8.93934L6.71967 14.7197C6.42678 15.0126 6.42678 15.4874 6.71967 15.7803C7.01256 16.0732 7.48744 16.0732 7.78033 15.7803L11.2803 12.2803C11.3522 12.2084 11.4065 12.1255 11.4431 12.0371Z" fill="#292927"/>
</g>
</svg>
