<svg preserveAspectRatio="xMidYMid meet" overflow="visible" style="display: block;" viewBox="0 0 24 24" fill="none" xmlns="http://www.w3.org/2000/svg">
<g transform="translate(1.2500, 1.7500)">
<path id="Vector" fill-rule="evenodd" clip-rule="evenodd" d="M10.75 1.5C5.64137 1.5 1.5 5.64137 1.5 10.75C1.5 12.7011 2.1033 14.5094 3.13378 16.001H7.07482C7.37986 14.4962 8.58592 13.3184 10.1055 13.0552L11.0102 7.62682C11.0783 7.21824 11.4647 6.94223 11.8733 7.01032C12.2819 7.07842 12.5579 7.46484 12.4898 7.87342L11.6185 13.1011C13.0313 13.4361 14.1348 14.5704 14.425 16L18.3663 16.0009C19.3967 14.5094 20 12.7011 20 10.75C20 5.64137 15.8586 1.5 10.75 1.5ZM14.425 17.5L18.7498 17.501C18.9857 17.501 19.2079 17.3901 19.3496 17.2015C20.6997 15.4046 21.5 13.1697 21.5 10.75C21.5 4.81294 16.6871 0 10.75 0C4.81294 0 0 4.81294 0 10.75C0 13.1697 0.80032 15.4046 2.15038 17.2015C2.29205 17.39 2.51415 17.501 2.75 17.501H7.07521C7.42304 19.2122 8.93613 20.5 10.75 20.5C12.5642 20.5 14.0775 19.2117 14.425 17.5ZM10.7345 14.5001C10.7453 14.5003 10.7561 14.5003 10.7669 14.5001C12.0018 14.5091 13 15.513 13 16.75C13 17.9926 11.9926 19 10.75 19C9.50736 19 8.5 17.9926 8.5 16.75C8.5 15.5125 9.49898 14.5084 10.7345 14.5001ZM11.3175 4.25075C11.5946 3.94287 11.5696 3.46865 11.2617 3.19156C10.9538 2.91447 10.4796 2.93942 10.2025 3.24731L10.1925 3.25842C9.91544 3.5663 9.9404 4.04052 10.2483 4.31761C10.5562 4.59471 11.0304 4.56975 11.3075 4.26186L11.3175 4.25075ZM15.3175 6.25075C15.5946 5.94287 15.5696 5.46865 15.2617 5.19156C14.9538 4.91446 14.4796 4.93942 14.2025 5.24731L14.1925 5.25842C13.9154 5.5663 13.9404 6.04052 14.2483 6.31761C14.5562 6.59471 15.0304 6.56975 15.3075 6.26186L15.3175 6.25075ZM7.26173 5.19156C7.56961 5.46865 7.59457 5.94287 7.31748 6.25075L7.30748 6.26186C7.03038 6.56975 6.55616 6.59471 6.24828 6.31761C5.9404 6.04052 5.91544 5.5663 6.19254 5.25842L6.20254 5.24731C6.47963 4.93942 6.95385 4.91446 7.26173 5.19156ZM17.3175 10.2508C17.5946 9.94287 17.5696 9.46865 17.2617 9.19156C16.9538 8.91446 16.4796 8.93942 16.2025 9.24731L16.1925 9.25842C15.9154 9.5663 15.9404 10.0405 16.2483 10.3176C16.5562 10.5947 17.0304 10.5697 17.3075 10.2619L17.3175 10.2508ZM5.26173 9.19156C5.56961 9.46865 5.59457 9.94287 5.31748 10.2508L5.30748 10.2619C5.03038 10.5697 4.55616 10.5947 4.24828 10.3176C3.9404 10.0405 3.91544 9.5663 4.19254 9.25842L4.20254 9.24731C4.47963 8.93942 4.95385 8.91446 5.26173 9.19156ZM16.3175 14.2508C16.5946 13.9429 16.5696 13.4687 16.2617 13.1916C15.9538 12.9145 15.4796 12.9394 15.2025 13.2473L15.1925 13.2584C14.9154 13.5663 14.9404 14.0405 15.2483 14.3176C15.5562 14.5947 16.0304 14.5697 16.3075 14.2619L16.3175 14.2508ZM6.26173 13.1916C6.56961 13.4687 6.59457 13.9429 6.31748 14.2508L6.30748 14.2619C6.03038 14.5697 5.55616 14.5947 5.24828 14.3176C4.9404 14.0405 4.91544 13.5663 5.19254 13.2584L5.20254 13.2473C5.47963 12.9394 5.95385 12.9145 6.26173 13.1916Z" fill="#292927"/>
</g>
</svg>
