<svg preserveAspectRatio="xMidYMid meet" overflow="visible" style="display: block;" viewBox="0 0 24 24" fill="none" xmlns="http://www.w3.org/2000/svg">
<g transform="translate(1.2500, 1.2500)">
<path id="Vector" fill-rule="evenodd" clip-rule="evenodd" d="M20 10.75C20 5.64137 15.8586 1.5 10.75 1.5C5.64137 1.5 1.5 5.64137 1.5 10.75C1.5 15.8586 5.64137 20 10.75 20C15.8586 20 20 15.8586 20 10.75ZM10.75 0C16.6871 0 21.5 4.81294 21.5 10.75C21.5 16.6871 16.6871 21.5 10.75 21.5C4.81294 21.5 0 16.6871 0 10.75C0 4.81294 4.81294 0 10.75 0ZM17 10.75C17 7.29822 14.2018 4.5 10.75 4.5C7.29822 4.5 4.5 7.29822 4.5 10.75C4.5 14.2018 7.29822 17 10.75 17C12.1892 17 13.5128 16.5145 14.569 15.6979C14.8967 15.4445 15.3678 15.5048 15.6211 15.8325C15.8745 16.1602 15.8142 16.6312 15.4865 16.8846C14.1768 17.8971 12.5328 18.5 10.75 18.5C6.46979 18.5 3 15.0302 3 10.75C3 6.46979 6.46979 3 10.75 3C15.0302 3 18.5 6.46979 18.5 10.75C18.5 11.9689 18.1407 12.931 17.5194 13.6029C16.9014 14.2713 16.0822 14.5888 15.2833 14.6243C14.3131 14.6674 13.2526 14.2729 12.6068 13.4879C12.0146 14.1113 11.1777 14.5 10.25 14.5C8.45507 14.5 7 13.0449 7 11.25V10.75V10.25C7 8.45507 8.45507 7 10.25 7C10.8943 7 11.4949 7.1875 12 7.51091V7.25003C12 6.83582 12.3358 6.5 12.75 6.5C13.1642 6.5 13.5 6.83632 13.5 7.25054V10.25V10.75V11.25V11.75C13.5 12.5495 14.2462 13.1689 15.2167 13.1257C15.6678 13.1057 16.0986 12.9301 16.4181 12.5846C16.7343 12.2426 17 11.67 17 10.75ZM12 10.75V11.25C12 12.2165 11.2165 13 10.25 13C9.2835 13 8.5 12.2165 8.5 11.25V10.75V10.25C8.5 9.2835 9.2835 8.5 10.25 8.5C11.2165 8.5 12 9.2835 12 10.25V10.75Z" fill="#292927"/>
</g>
</svg>
