<svg preserveAspectRatio="xMidYMid meet" overflow="visible" style="display: block;" viewBox="0 0 24 24" fill="none" xmlns="http://www.w3.org/2000/svg">
<g transform="translate(1.2500, 1.2500)">
<path id="Vector" fill-rule="evenodd" clip-rule="evenodd" d="M1.5 10.75C1.5 5.64137 5.64137 1.5 10.75 1.5C15.8586 1.5 20 5.64137 20 10.75C20 15.8586 15.8586 20 10.75 20C5.64137 20 1.5 15.8586 1.5 10.75ZM10.75 0C4.81294 0 0 4.81294 0 10.75C0 16.6871 4.81294 21.5 10.75 21.5C16.6871 21.5 21.5 16.6871 21.5 10.75C21.5 4.81294 16.6871 0 10.75 0ZM17.4509 7.01702C17.5546 6.74476 17.4912 6.43706 17.2884 6.22791C17.0856 6.01875 16.78 5.94598 16.5047 6.04128L3.50467 10.5413C3.2011 10.6464 2.99817 10.9331 3.00001 11.2543C3.00186 11.5756 3.20808 11.86 3.51283 11.9615L7.84486 13.4055L12.2197 17.7804C12.3995 17.9602 12.6582 18.0366 12.9069 17.9834C13.1555 17.9302 13.3603 17.7547 13.4509 17.517L17.4509 7.01702ZM12.4614 15.9008L9.40992 12.8493L15.1739 8.78062L12.4614 15.9008ZM6.08151 11.2366L11.9917 9.19078L8.12735 11.9186L6.08151 11.2366Z" fill="#292927"/>
</g>
</svg>
