<svg preserveAspectRatio="xMidYMid meet" overflow="visible" style="display: block;" viewBox="0 0 24 24" fill="none" xmlns="http://www.w3.org/2000/svg">
<g transform="translate(0.2500, 3.2500)">
<path id="Vector" fill-rule="evenodd" clip-rule="evenodd" d="M0 1.35C0 0.604416 0.604416 0 1.35 0H22.15C22.8956 0 23.5 0.604414 23.5 1.35V5.26175C23.5 5.9019 23.0541 6.44415 22.4459 6.58708C21.3962 6.83374 18.8938 7.48323 17.0952 8.41582C15.6172 9.18222 14.7257 10.6365 14.1961 12.2032C13.6689 13.7626 13.5364 15.3307 13.5063 16.1594C13.4801 16.8795 12.8947 17.5 12.1305 17.5H11.3695C10.6053 17.5 10.0199 16.8794 9.99372 16.1594C9.96362 15.3307 9.83115 13.7626 9.30393 12.2032C8.77428 10.6365 7.88282 9.18222 6.40476 8.41582C4.6062 7.48323 2.10376 6.83374 1.05413 6.58708C0.445932 6.44415 0 5.9019 0 5.26175V1.35ZM1.5 1.5V5.15117C2.61751 5.41764 5.17783 6.08997 7.09524 7.08418C9.06074 8.10333 10.1345 9.97647 10.7249 11.7227C11.2954 13.4102 11.4487 15.0761 11.4886 16H12.0114C12.0513 15.0761 12.2046 13.4102 12.7751 11.7228C13.3655 9.97647 14.4393 8.10333 16.4048 7.08418C18.3222 6.08997 20.8825 5.41764 22 5.15117V1.5H1.5Z" fill="#292927"/>
</g>
</svg>
