<svg preserveAspectRatio="xMidYMid meet" overflow="visible" style="display: block;" viewBox="0 0 24 24" fill="none" xmlns="http://www.w3.org/2000/svg">
<g transform="translate(2.1073, 2.0923)">
<path id="Vector" fill-rule="evenodd" clip-rule="evenodd" d="M16.2156 9.70277C16.2339 9.64786 16.2485 9.59231 16.2595 9.53646L18.9801 6.81586C20.054 5.74192 20.054 4.00072 18.9801 2.92678L16.8588 0.805456C15.7848 -0.268486 14.0436 -0.268485 12.9697 0.805456L10.2173 3.55788C10.1493 3.57408 10.0821 3.59569 10.0161 3.62285L4.62954 5.84087C4.26675 5.99025 3.98689 6.29007 3.86283 6.66227L0.0714426 18.0364C-0.273936 19.0726 0.68998 20.0686 1.73687 19.7574L13.4143 16.2857C13.8366 16.1602 14.171 15.8365 14.3103 15.4186L16.2156 9.70277ZM17.9194 5.7552L15.6214 8.05322L11.7323 4.16414L14.0303 1.86612C14.5185 1.37796 15.31 1.37796 15.7981 1.86612L17.9194 3.98744C18.4076 4.47559 18.4076 5.26705 17.9194 5.7552ZM8.03221 11.7781C8.02817 11.7739 8.02408 11.7697 8.01992 11.7656C8.01586 11.7615 8.01177 11.7575 8.00764 11.7536C7.72709 11.4598 7.73119 10.9942 8.01992 10.7055C8.31282 10.4126 8.78769 10.4126 9.08058 10.7055C9.37348 10.9984 9.37348 11.4732 9.08058 11.7661C8.79175 12.055 8.32595 12.059 8.03221 11.7781ZM7.57974 13.2664C8.41615 13.6662 9.44841 13.5196 10.1412 12.8268C11.0199 11.9481 11.0199 10.5235 10.1412 9.64481C9.26256 8.76613 7.83794 8.76613 6.95926 9.64481C6.26664 10.3374 6.11998 11.3693 6.51928 12.2055L2.13467 16.5902L5.26414 7.20174L10.4948 5.04794L14.7632 9.31637L12.912 14.8701L3.04156 17.8046L7.57974 13.2664Z" fill="#292927"/>
</g>
</svg>
