<svg preserveAspectRatio="xMidYMid meet" overflow="visible" style="display: block;" viewBox="0 0 24 24" fill="none" xmlns="http://www.w3.org/2000/svg">
<g transform="translate(2.2500, 2.2500)">
<path id="Vector" fill-rule="evenodd" clip-rule="evenodd" d="M12.5 1.5V7H18V1.5H12.5ZM11 1.35C11 0.604416 11.6044 0 12.35 0H18.15C18.8956 0 19.5 0.604415 19.5 1.35V7.15C19.5 7.89558 18.8956 8.5 18.15 8.5H12.35C11.6044 8.5 11 7.89558 11 7.15V1.35ZM1.5 12.5V18H18V12.5H1.5ZM0 12.35C0 11.6044 0.604417 11 1.35 11H18.15C18.8956 11 19.5 11.6044 19.5 12.35V18.15C19.5 18.8956 18.8956 19.5 18.15 19.5H1.35C0.604416 19.5 0 18.8956 0 18.15V12.35ZM1.5 7V1.5H7V7H1.5ZM1.35 0C0.604415 0 0 0.604416 0 1.35V7.15C0 7.89558 0.604416 8.5 1.35 8.5H7.15C7.89558 8.5 8.5 7.89558 8.5 7.15V1.35C8.5 0.604415 7.89558 0 7.15 0H1.35Z" fill="#292927"/>
</g>
</svg>
