<svg preserveAspectRatio="xMidYMid meet" overflow="visible" style="display: block;" viewBox="0 0 24 24" fill="none" xmlns="http://www.w3.org/2000/svg">
<g transform="translate(0.2500, 6.2500)">
<path id="Vector" fill-rule="evenodd" clip-rule="evenodd" d="M22.75 1.5C23.1642 1.5 23.5 1.16421 23.5 0.75C23.5 0.335786 23.1642 0 22.75 0H19.75H3.75H0.75C0.335787 0 0 0.335786 0 0.75C0 1.16421 0.335787 1.5 0.75 1.5H3V3.75V10.75C3 11.1642 3.33579 11.5 3.75 11.5C4.16421 11.5 4.5 11.1642 4.5 10.75V4.5H19V10.75C19 11.1642 19.3358 11.5 19.75 11.5C20.1642 11.5 20.5 11.1642 20.5 10.75V3.75V1.5H22.75ZM19 1.5H4.5V3H19V1.5Z" fill="#292927"/>
</g>
</svg>
