<svg preserveAspectRatio="xMidYMid meet" overflow="visible" style="display: block;" viewBox="0 0 24 24" fill="none" xmlns="http://www.w3.org/2000/svg">
<g transform="translate(2.0000, 0.5000)">
<path id="Vector" fill-rule="evenodd" clip-rule="evenodd" d="M7.06867 2.16736C6.74962 2.54374 6.60313 3.02181 6.54043 3.38244C6.4536 3.88191 6.0654 4.36406 5.5 4.47581V6H12V4.47581C11.4346 4.36406 11.0464 3.88191 10.9596 3.38244C10.8969 3.02181 10.7504 2.54374 10.4313 2.16736C10.138 1.82135 9.64974 1.5 8.75 1.5C7.85026 1.5 7.36198 1.82135 7.06867 2.16736ZM5.92446 1.19742C6.51184 0.504506 7.42372 0 8.75 0C10.0763 0 10.9882 0.504506 11.5755 1.19742C12.0914 1.80601 12.3146 2.50857 12.4138 3H14.75C16.2688 3 17.5 4.23122 17.5 5.75V14.75C17.5 15.1642 17.1642 15.5 16.75 15.5C16.3358 15.5 16 15.1642 16 14.75V5.75C16 5.05964 15.4404 4.5 14.75 4.5H13.5V6.15C13.5 6.89558 12.8956 7.5 12.15 7.5H5.35C4.60442 7.5 4 6.89558 4 6.15V4.5H2.75C2.05964 4.5 1.5 5.05964 1.5 5.75V19.75C1.5 20.4404 2.05964 21 2.75 21H8.75C9.16421 21 9.5 21.3358 9.5 21.75C9.5 22.1642 9.16421 22.5 8.75 22.5H2.75C1.23122 22.5 0 21.2688 0 19.75V5.75C0 4.23122 1.23122 3 2.75 3H5.08617C5.18535 2.50857 5.40856 1.80601 5.92446 1.19742ZM12.7803 19.7197C12.4874 19.4268 12.0126 19.4268 11.7197 19.7197C11.4268 20.0126 11.4268 20.4874 11.7197 20.7803L13.7197 22.7803C14.0126 23.0732 14.4874 23.0732 14.7803 22.7803L19.7803 17.7803C20.0732 17.4874 20.0732 17.0126 19.7803 16.7197C19.4874 16.4268 19.0126 16.4268 18.7197 16.7197L14.25 21.1893L12.7803 19.7197Z" fill="#292927"/>
</g>
</svg>
