<svg preserveAspectRatio="xMidYMid meet" overflow="visible" style="display: block;" viewBox="0 0 24 24" fill="none" xmlns="http://www.w3.org/2000/svg">
<g transform="translate(1.2500, 1.2500)">
<path id="Vector" fill-rule="evenodd" clip-rule="evenodd" d="M10.75 1.5C5.64137 1.5 1.5 5.64137 1.5 10.75C1.5 15.8586 5.64137 20 10.75 20C15.8586 20 20 15.8586 20 10.75C20 5.64137 15.8586 1.5 10.75 1.5ZM0 10.75C0 4.81294 4.81294 0 10.75 0C16.6871 0 21.5 4.81294 21.5 10.75C21.5 16.6871 16.6871 21.5 10.75 21.5C4.81294 21.5 0 16.6871 0 10.75ZM10.25 5C9.55964 5 9 5.55964 9 6.25C9 6.94036 9.55964 7.5 10.25 7.5C10.9404 7.5 11.5 6.94036 11.5 6.25C11.5 5.55964 10.9404 5 10.25 5ZM6.25 8C5.55964 8 5 8.55964 5 9.25C5 9.94036 5.55964 10.5 6.25 10.5C6.94036 10.5 7.5 9.94036 7.5 9.25C7.5 8.55964 6.94036 8 6.25 8ZM10.25 10C9.55964 10 9 10.5596 9 11.25C9 11.9404 9.55964 12.5 10.25 12.5C10.9404 12.5 11.5 11.9404 11.5 11.25C11.5 10.5596 10.9404 10 10.25 10Z" fill="#292927"/>
</g>
</svg>
