<svg preserveAspectRatio="xMidYMid meet" overflow="visible" style="display: block;" viewBox="0 0 24 24" fill="none" xmlns="http://www.w3.org/2000/svg">
<g transform="translate(2.2500, 1.2500)">
<path id="Vector" fill-rule="evenodd" clip-rule="evenodd" d="M0 20.75C0 21.1642 0.335786 21.5 0.75 21.5C1.16421 21.5 1.5 21.1642 1.5 20.75V0.75C1.5 0.335787 1.16421 0 0.75 0C0.335786 0 0 0.335787 0 0.75V20.75ZM6.75 14C6.05964 14 5.5 13.4404 5.5 12.75V8.75C5.5 8.05964 6.05964 7.5 6.75 7.5H16.75C17.4404 7.5 18 8.05964 18 8.75V12.75C18 13.4404 17.4404 14 16.75 14H6.75ZM4 12.75C4 14.2688 5.23122 15.5 6.75 15.5H16.75C18.2688 15.5 19.5 14.2688 19.5 12.75V8.75C19.5 7.23122 18.2688 6 16.75 6H6.75C5.23122 6 4 7.23122 4 8.75V12.75Z" fill="#292927"/>
</g>
</svg>
