<svg preserveAspectRatio="xMidYMid meet" overflow="visible" style="display: block;" viewBox="0 0 24 24" fill="none" xmlns="http://www.w3.org/2000/svg">
<g transform="translate(0.0000, 1.2623) scale(0.669762)">
<path id="Vector" fill-rule="evenodd" clip-rule="evenodd" d="M33.8334 7.875C24.2778 0.708337 11.5556 0.708331 2.00007 7.875C1.44779 8.28921 0.664287 8.17728 0.250074 7.625C-0.16414 7.07271 -0.0522112 6.28921 0.500073 5.875C10.9445 -1.95834 24.889 -1.95833 35.3334 5.875C35.8857 6.28921 35.9976 7.07271 35.5834 7.625C35.1692 8.17728 34.3857 8.28921 33.8334 7.875ZM18.7696 25.1109C19.2827 25.5728 19.3243 26.3631 18.8625 26.8763L18.8458 26.8948C18.384 27.4079 17.5937 27.4495 17.0805 26.9877C16.5674 26.5259 16.5258 25.7355 16.9876 25.2224L17.0043 25.2038C17.4661 24.6907 18.2565 24.6491 18.7696 25.1109ZM7.00007 14.5417C13.2223 9.875 22.6112 9.875 28.8334 14.5417C29.3857 14.9559 30.1692 14.844 30.5834 14.2917C30.9976 13.7394 30.8857 12.9559 30.3334 12.5417C23.2223 7.20834 12.6112 7.20833 5.50007 12.5417C4.94779 12.9559 4.83586 13.7394 5.25007 14.2917C5.66429 14.844 6.44779 14.9559 7.00007 14.5417ZM23.0898 20.4368C19.7438 18.3546 16.0903 18.355 12.7437 20.437C12.1575 20.8016 11.3867 20.622 11.022 20.0359C10.6574 19.4497 10.8369 18.6789 11.4231 18.3142C15.578 15.7294 20.2557 15.7286 24.4107 18.3143C24.9968 18.6791 25.1763 19.4499 24.8115 20.036C24.4468 20.6222 23.6759 20.8016 23.0898 20.4368ZM27.3361 22.8592C26.848 22.3711 26.0565 22.3711 25.5684 22.8592C25.0802 23.3474 25.0802 24.1388 25.5684 24.627L28.22 27.2786L25.5684 29.9303C25.0802 30.4184 25.0802 31.2099 25.5684 31.6981C26.0565 32.1862 26.848 32.1862 27.3361 31.6981L29.9878 29.0464L32.6394 31.6981C33.1276 32.1862 33.9191 32.1862 34.4072 31.6981C34.8954 31.2099 34.8954 30.4184 34.4072 29.9303L31.7556 27.2786L34.4072 24.627C34.8954 24.1388 34.8954 23.3474 34.4072 22.8592C33.9191 22.3711 33.1276 22.3711 32.6394 22.8592L29.9878 25.5109L27.3361 22.8592Z" fill="#FAFAF9"/>
</g>
</svg>
