<svg preserveAspectRatio="xMidYMid meet" overflow="visible" style="display: block;" viewBox="0 0 24 24" fill="none" xmlns="http://www.w3.org/2000/svg">
<g transform="translate(0.1781, 3.6668)">
<path id="Vector" fill-rule="evenodd" clip-rule="evenodd" d="M5.3114 0C4.04927 0 2.94988 0.859206 2.64321 2.08265C1.80419 5.42979 1.05717 8.36034 0.171354 11.5493C-0.392811 13.5803 0.492953 15.4451 1.99533 16.2536C2.74802 16.6587 3.64506 16.7896 4.54738 16.5388C5.44893 16.2882 6.2989 15.6735 7.00429 14.6859C7.24505 14.3489 7.16698 13.8805 6.82992 13.6397C6.49286 13.3989 6.02445 13.477 5.78369 13.8141C5.23908 14.5765 4.65797 14.9512 4.14567 15.0936C3.63414 15.2358 3.13456 15.1633 2.70617 14.9327C1.84638 14.47 1.23215 13.3349 1.61663 11.9507C2.50772 8.7428 3.2585 5.79719 4.09819 2.44736C4.2378 1.89041 4.73806 1.5 5.3114 1.5H6.99982V2.75C6.99982 4.26878 8.23103 5.5 9.74982 5.5H13.7498C15.2686 5.5 16.4998 4.26878 16.4998 2.75V1.5H18.1883C18.7639 1.5 19.2721 1.89071 19.4222 2.45173C19.8263 3.96247 20.6021 6.82051 22.0272 11.9507C22.4117 13.3349 21.7974 14.47 20.9377 14.9327C20.5093 15.1633 20.0097 15.2358 19.4981 15.0936C18.9858 14.9512 18.4047 14.5765 17.8601 13.8141C17.6194 13.477 17.151 13.3989 16.8139 13.6397C16.4768 13.8805 16.3988 14.3489 16.6395 14.6859C17.3449 15.6735 18.1949 16.2882 19.0964 16.5388C19.9988 16.7896 20.8958 16.6587 21.6485 16.2536C23.1509 15.4451 24.0366 13.5803 23.4725 11.5493C22.0482 6.42175 21.2737 3.56865 20.8712 2.06413C20.547 0.852018 19.4482 0 18.1883 0H15.7498H7.74982H5.3114ZM8.49982 1.5V2.75C8.49982 3.44036 9.05946 4 9.74982 4H13.7498C14.4402 4 14.9998 3.44036 14.9998 2.75V1.5H8.49982ZM7.74982 9.5C7.05946 9.5 6.49982 10.0596 6.49982 10.75C6.49982 11.4404 7.05946 12 7.74982 12C8.44017 12 8.99982 11.4404 8.99982 10.75C8.99982 10.0596 8.44017 9.5 7.74982 9.5ZM4.99982 10.75C4.99982 9.23122 6.23103 8 7.74982 8C9.2686 8 10.4998 9.23122 10.4998 10.75C10.4998 12.2688 9.2686 13.5 7.74982 13.5C6.23103 13.5 4.99982 12.2688 4.99982 10.75ZM14.4998 10.75C14.4998 10.0596 15.0595 9.5 15.7498 9.5C16.4402 9.5 16.9998 10.0596 16.9998 10.75C16.9998 11.4404 16.4402 12 15.7498 12C15.0595 12 14.4998 11.4404 14.4998 10.75ZM15.7498 8C14.231 8 12.9998 9.23122 12.9998 10.75C12.9998 12.2688 14.231 13.5 15.7498 13.5C17.2686 13.5 18.4998 12.2688 18.4998 10.75C18.4998 9.23122 17.2686 8 15.7498 8Z" fill="#292927"/>
</g>
</svg>
