<svg preserveAspectRatio="xMidYMid meet" overflow="visible" style="display: block;" viewBox="0 0 24 24" fill="none" xmlns="http://www.w3.org/2000/svg">
<g transform="translate(4.4999, 3.2500)">
<path id="Vector" fill-rule="evenodd" clip-rule="evenodd" d="M10.75 1.5C7.71932 1.5 5.12297 3.35959 4.03973 6H11.75C12.1642 6 12.5 6.33579 12.5 6.75C12.5 7.16421 12.1642 7.5 11.75 7.5H3.60736C3.53679 7.90607 3.5 8.32374 3.5 8.75C3.5 9.17626 3.53679 9.59393 3.60736 10H11.75C12.1642 10 12.5 10.3358 12.5 10.75C12.5 11.1642 12.1642 11.5 11.75 11.5H4.03973C5.12297 14.1404 7.71932 16 10.75 16C11.8888 16 12.9644 15.738 13.9215 15.2716C14.2938 15.0901 14.7428 15.2449 14.9242 15.6172C15.1057 15.9896 14.9509 16.4385 14.5785 16.62C13.4212 17.1839 12.1215 17.5 10.75 17.5C6.8782 17.5 3.59375 14.9853 2.44088 11.5H0.75C0.335786 11.5 0 11.1642 0 10.75C0 10.3358 0.335786 10 0.75 10H2.08861C2.03022 9.59175 2 9.1744 2 8.75C2 8.3256 2.03022 7.90825 2.08861 7.5H0.75C0.335786 7.5 0 7.16421 0 6.75C0 6.33579 0.335786 6 0.75 6H2.44088C3.59375 2.51474 6.8782 0 10.75 0C12.1215 0 13.4212 0.316065 14.5785 0.880024C14.9509 1.06147 15.1057 1.51042 14.9242 1.88278C14.7428 2.25513 14.2938 2.40989 13.9215 2.22844C12.9644 1.76205 11.8888 1.5 10.75 1.5Z" fill="#292927"/>
</g>
</svg>
