<svg preserveAspectRatio="xMidYMid meet" overflow="visible" style="display: block;" viewBox="0 0 24 24" fill="none" xmlns="http://www.w3.org/2000/svg">
<g transform="translate(1.2500, 2.2500)">
<path id="Vector" fill-rule="evenodd" clip-rule="evenodd" d="M20.75 1.5C21.1642 1.5 21.5 1.16421 21.5 0.75C21.5 0.335786 21.1642 0 20.75 0H0.75C0.335787 0 0 0.335786 0 0.75C0 1.16421 0.335787 1.5 0.75 1.5H20.75ZM7.5 6.75C7.5 6.05964 8.05964 5.5 8.75 5.5H12.75C13.4404 5.5 14 6.05964 14 6.75V16.75C14 17.4404 13.4404 18 12.75 18H8.75C8.05964 18 7.5 17.4404 7.5 16.75V6.75ZM8.75 4C7.23122 4 6 5.23122 6 6.75V16.75C6 18.2688 7.23122 19.5 8.75 19.5H12.75C14.2688 19.5 15.5 18.2688 15.5 16.75V6.75C15.5 5.23122 14.2688 4 12.75 4H8.75Z" fill="#292927"/>
</g>
</svg>
