<svg preserveAspectRatio="xMidYMid meet" overflow="visible" style="display: block;" viewBox="0 0 24 24" fill="none" xmlns="http://www.w3.org/2000/svg">
<g transform="translate(5.2864, 2.2500)">
<path id="Vector" fill-rule="evenodd" clip-rule="evenodd" d="M1.50861 1.5L2.42527 18H5.96578V5.75C5.96578 5.33579 6.30157 5 6.71578 5C7.13 5 7.46578 5.33579 7.46578 5.75V16H11.0112L11.9174 1.5H1.50861ZM7.46578 17.5H11.1521C11.865 17.5 12.455 16.9457 12.4995 16.2342L13.4245 1.43421C13.4731 0.657018 12.8558 0 12.0771 0H1.35004C0.575029 0 -0.0408687 0.651061 0.0021214 1.42488L0.935455 18.2249C0.975199 18.9403 1.56689 19.5 2.28338 19.5H6.11578C6.86137 19.5 7.46578 18.8956 7.46578 18.15V17.5Z" fill="#292927"/>
</g>
</svg>
