<svg preserveAspectRatio="xMidYMid meet" overflow="visible" style="display: block;" viewBox="0 0 24 24" fill="none" xmlns="http://www.w3.org/2000/svg">
<g transform="translate(2.2500, 2.2500)">
<path id="Vector" fill-rule="evenodd" clip-rule="evenodd" d="M1.5 18V1.5H18V18H1.5ZM1.35 0C0.604417 0 0 0.604415 0 1.35V18.15C0 18.8956 0.604415 19.5 1.35 19.5H18.15C18.8956 19.5 19.5 18.8956 19.5 18.15V1.35C19.5 0.604417 18.8956 0 18.15 0H1.35ZM8 7.75C8 7.05964 8.55964 6.5 9.25 6.5H10.25C10.9404 6.5 11.5 7.05964 11.5 7.75V11.75C11.5 12.4404 10.9404 13 10.25 13H9.25C8.55964 13 8 12.4404 8 11.75V7.75ZM9.25 5C7.73122 5 6.5 6.23122 6.5 7.75V11.75C6.5 13.2688 7.73122 14.5 9.25 14.5H10.25C11.7688 14.5 13 13.2688 13 11.75V7.75C13 6.23122 11.7688 5 10.25 5H9.25Z" fill="#292927"/>
</g>
</svg>
