<svg preserveAspectRatio="xMidYMid meet" overflow="visible" style="display: block;" viewBox="0 0 24 24" fill="none" xmlns="http://www.w3.org/2000/svg">
<g transform="translate(3.2500, 2.2500)">
<path id="Vector" fill-rule="evenodd" clip-rule="evenodd" d="M1.5 2.75C1.5 2.05964 2.05964 1.5 2.75 1.5C3.44036 1.5 4 2.05964 4 2.75C4 3.44036 3.44036 4 2.75 4C2.05964 4 1.5 3.44036 1.5 2.75ZM3.5 5.39648C4.65425 5.07002 5.5 4.00878 5.5 2.75C5.5 1.23122 4.26878 0 2.75 0C1.23122 0 0 1.23122 0 2.75C0 4.00878 0.845748 5.07002 2 5.39648V6.75V18.75C2 19.1642 2.33579 19.5 2.75 19.5C3.16421 19.5 3.5 19.1642 3.5 18.75V12.0419C3.69695 12.3758 3.91425 12.7018 4.15248 13.0158C5.65152 14.9918 7.98747 16.5 11.25 16.5H12.1035C12.43 17.6543 13.4912 18.5 14.75 18.5C16.2688 18.5 17.5 17.2688 17.5 15.75C17.5 14.2312 16.2688 13 14.75 13C13.4912 13 12.43 13.8457 12.1035 15H11.25C8.51253 15 6.59848 13.7582 5.34752 12.1092C4.07757 10.4352 3.5 8.34674 3.5 6.75V5.39648ZM14.75 17C14.0596 17 13.5 16.4404 13.5 15.75C13.5 15.0596 14.0596 14.5 14.75 14.5C15.4404 14.5 16 15.0596 16 15.75C16 16.4404 15.4404 17 14.75 17Z" fill="#292927"/>
</g>
</svg>
