<svg preserveAspectRatio="xMidYMid meet" overflow="visible" style="display: block;" viewBox="0 0 24 24" fill="none" xmlns="http://www.w3.org/2000/svg">
<g transform="translate(2.2500, 4.2500)">
<path id="Vector" fill-rule="evenodd" clip-rule="evenodd" d="M1.5 2.75C1.5 2.05964 2.05964 1.5 2.75 1.5H16.75C17.4404 1.5 18 2.05964 18 2.75V12.75C18 13.4404 17.4404 14 16.75 14H2.75C2.05964 14 1.5 13.4404 1.5 12.75V2.75ZM2.75 0C1.23122 0 0 1.23122 0 2.75V12.75C0 14.2688 1.23122 15.5 2.75 15.5H16.75C18.2688 15.5 19.5 14.2688 19.5 12.75V2.75C19.5 1.23122 18.2688 0 16.75 0H2.75ZM3.75 3C3.33579 3 3 3.33579 3 3.75C3 4.16421 3.33579 4.5 3.75 4.5H4.75C5.16421 4.5 5.5 4.16421 5.5 3.75C5.5 3.33579 5.16421 3 4.75 3H3.75Z" fill="#292927"/>
</g>
</svg>
