<svg preserveAspectRatio="xMidYMid meet" overflow="visible" style="display: block;" viewBox="0 0 24 24" fill="none" xmlns="http://www.w3.org/2000/svg">
<g transform="translate(5.2499, 1.7498)">
<path id="Vector" fill-rule="evenodd" clip-rule="evenodd" d="M5.50015 2.75C5.50015 2.05964 6.0598 1.5 6.75015 1.5C7.44051 1.5 8.00015 2.05964 8.00015 2.75C8.00015 3.44036 7.44051 4 6.75015 4C6.0598 4 5.50015 3.44036 5.50015 2.75ZM6.75015 0C5.23137 0 4.00015 1.23122 4.00015 2.75C4.00015 4.26878 5.23137 5.5 6.75015 5.5C8.26894 5.5 9.50015 4.26878 9.50015 2.75C9.50015 1.23122 8.26894 0 6.75015 0ZM3.87418 6.33405C4.10394 6.6787 4.01081 7.14435 3.66616 7.37412C3.06369 7.77577 2.5092 8.5266 2.08547 9.25298C1.94806 9.48855 1.83013 9.71145 1.73415 9.90356L3.08555 10.5793C3.45603 10.7645 3.6062 11.215 3.42096 11.5855C3.23572 11.956 2.78521 12.1061 2.41473 11.9209L0.414729 10.9209C0.065843 10.7465 -0.0910853 10.3337 0.0537818 9.97154L0.0543805 9.97004L0.0553503 9.96764L0.058398 9.96012L0.06889 9.93459C0.0778228 9.91304 0.0906246 9.88255 0.107175 9.84411C0.140256 9.76728 0.188428 9.65842 0.250733 9.5255C0.375024 9.26035 0.557201 8.89593 0.789805 8.49718C1.24108 7.72356 1.93659 6.72439 2.83411 6.12604C3.17876 5.89628 3.64441 5.98941 3.87418 6.33405ZM5.47633 6.05177C5.71832 5.95688 5.99219 5.99405 6.20014 6.15001L9.82932 8.87189L12.0002 7.78647V6.75C12.0002 6.33579 12.3359 6 12.7502 6C13.1644 6 13.5002 6.33579 13.5002 6.75V8.23446C13.5004 8.24445 13.5004 8.25443 13.5002 8.26439V19.75C13.5002 20.1642 13.1644 20.5 12.7502 20.5C12.3359 20.5 12.0002 20.1642 12.0002 19.75V9.46352L10.0855 10.4208C9.83146 10.5479 9.5274 10.5205 9.30014 10.35L6.27096 8.07812L5.56504 11.9607L8.73823 14.6806C8.88258 14.8043 8.97456 14.9782 8.99555 15.1672L9.49555 19.6672C9.54129 20.0789 9.24464 20.4497 8.83296 20.4954C8.42128 20.5412 8.05047 20.2445 8.00473 19.8328L7.5374 15.6269L4.26204 12.8194C4.05965 12.646 3.96455 12.3781 4.01224 12.1158L5.01224 6.61584C5.05873 6.3601 5.23434 6.14667 5.47633 6.05177ZM5.43552 15.5548C5.60374 15.1763 5.43327 14.7331 5.05476 14.5648C4.67625 14.3966 4.23303 14.5671 4.0648 14.9456L2.0648 19.4456C1.89657 19.8241 2.06704 20.2673 2.44555 20.4355C2.82407 20.6038 3.26729 20.4333 3.43552 20.0548L5.43552 15.5548Z" fill="#292927"/>
</g>
</svg>
