<svg preserveAspectRatio="xMidYMid meet" overflow="visible" style="display: block;" viewBox="0 0 24 24" fill="none" xmlns="http://www.w3.org/2000/svg">
<g transform="translate(1.2500, 2.2500)">
<path id="Vector" fill-rule="evenodd" clip-rule="evenodd" d="M1.5 1.75C1.5 1.61193 1.61193 1.5 1.75 1.5C1.88807 1.5 2 1.61193 2 1.75C2 1.88807 1.88807 2 1.75 2C1.61193 2 1.5 1.88807 1.5 1.75ZM2.5 3.33159C3.09124 3.05073 3.5 2.4481 3.5 1.75C3.5 0.783502 2.7165 0 1.75 0C0.783502 0 0 0.783502 0 1.75C0 2.4481 0.408763 3.05073 1 3.33159V18.75C1 19.1642 1.33579 19.5 1.75 19.5C2.16421 19.5 2.5 19.1642 2.5 18.75V17.5H19V18.75C19 19.1642 19.3358 19.5 19.75 19.5C20.1642 19.5 20.5 19.1642 20.5 18.75V3.33159C21.0912 3.05073 21.5 2.4481 21.5 1.75C21.5 0.783502 20.7165 0 19.75 0C18.7835 0 18 0.783502 18 1.75C18 2.4481 18.4088 3.05073 19 3.33159V4H2.5V3.33159ZM19.75 1.5C19.6119 1.5 19.5 1.61193 19.5 1.75C19.5 1.88807 19.6119 2 19.75 2C19.8881 2 20 1.88807 20 1.75C20 1.61193 19.8881 1.5 19.75 1.5ZM19 16V14.5H2.5V16H19ZM19 13V5.5H17.5V13H19ZM13.5 5.5H16V13H13.5V5.5ZM12 5.5H9.5V13H12V5.5ZM5.5 5.5H8V13H5.5V5.5ZM4 5.5H2.5V13H4V5.5Z" fill="#292927"/>
</g>
</svg>
