<svg preserveAspectRatio="xMidYMid meet" overflow="visible" style="display: block;" viewBox="0 0 24 24" fill="none" xmlns="http://www.w3.org/2000/svg">
<g transform="translate(1.4088, 2.2500)">
<path id="Vector" fill-rule="evenodd" clip-rule="evenodd" d="M4.5 4.75C4.5 2.95507 5.95507 1.5 7.75 1.5C9.54493 1.5 11 2.95507 11 4.75C11 6.54493 9.54493 8 7.75 8C5.95507 8 4.5 6.54493 4.5 4.75ZM10.6081 8.54426C11.7572 7.6773 12.5 6.30039 12.5 4.75C12.5 2.12665 10.3734 0 7.75 0C5.12665 0 3 2.12665 3 4.75C3 6.30031 3.74271 7.67715 4.89172 8.54412C2.02612 9.68175 0 12.4793 0 15.75C0 16.1642 0.335786 16.5 0.75 16.5C1.16421 16.5 1.5 16.1642 1.5 15.75C1.5 12.2982 4.29822 9.5 7.75 9.5C9.21061 9.5 10.5523 10.0001 11.6162 10.839C11.9415 11.0954 12.4131 11.0396 12.6695 10.7144C12.926 10.3891 12.8702 9.91751 12.545 9.66105C11.9614 9.20095 11.3099 8.82286 10.6081 8.54426ZM18.4319 18C19.1952 18 19.7802 17.3219 19.6684 16.5668L19.3721 14.5668C19.2813 13.9539 18.7552 13.5 18.1356 13.5H15.3644C14.7448 13.5 14.2187 13.9539 14.1279 14.5668L13.8316 16.5668C13.7198 17.3219 14.3048 18 15.0681 18H18.4319ZM21.1522 16.347C21.3983 18.0081 20.1111 19.5 18.4319 19.5H15.0681C13.3889 19.5 12.1017 18.0081 12.3478 16.347L12.6441 14.347C12.8439 12.9986 14.0013 12 15.3644 12H18.1356C19.4987 12 20.6561 12.9986 20.8559 14.347L21.1522 16.347ZM15.75 10C15.3358 10 15 10.3358 15 10.75C15 11.1642 15.3358 11.5 15.75 11.5H17.75C18.1642 11.5 18.5 11.1642 18.5 10.75C18.5 10.3358 18.1642 10 17.75 10H15.75Z" fill="#292927"/>
</g>
</svg>
