<svg preserveAspectRatio="xMidYMid meet" overflow="visible" style="display: block;" viewBox="0 0 24 24" fill="none" xmlns="http://www.w3.org/2000/svg">
<g transform="translate(1.2500, 3.2500)">
<path id="Vector" fill-rule="evenodd" clip-rule="evenodd" d="M18.2803 0.21967C17.9874 -0.0732233 17.5126 -0.0732233 17.2197 0.21967L14.2197 3.21967C13.9268 3.51256 13.9268 3.98744 14.2197 4.28033C14.5126 4.57322 14.9874 4.57322 15.2803 4.28033L17 2.56066V14.9393L15.2803 13.2197C14.9874 12.9268 14.5126 12.9268 14.2197 13.2197C13.9268 13.5126 13.9268 13.9874 14.2197 14.2803L17.2197 17.2803C17.5126 17.5732 17.9874 17.5732 18.2803 17.2803L21.2803 14.2803C21.5732 13.9874 21.5732 13.5126 21.2803 13.2197C20.9874 12.9268 20.5126 12.9268 20.2197 13.2197L18.5 14.9393V2.56066L20.2197 4.28033C20.5126 4.57322 20.9874 4.57322 21.2803 4.28033C21.5732 3.98744 21.5732 3.51256 21.2803 3.21967L18.2803 0.21967ZM4.75 3.5C5.16421 3.5 5.5 3.16421 5.5 2.75C5.5 2.33579 5.16421 2 4.75 2H0.75C0.335786 2 0 2.33579 0 2.75C0 3.16421 0.335786 3.5 0.75 3.5H4.75ZM7.5 6.75C7.5 7.16421 7.16421 7.5 6.75 7.5H0.75C0.335786 7.5 0 7.16421 0 6.75C0 6.33579 0.335786 6 0.75 6H6.75C7.16421 6 7.5 6.33579 7.5 6.75ZM9.5 10.75C9.5 11.1642 9.16421 11.5 8.75 11.5H0.75C0.335786 11.5 0 11.1642 0 10.75C0 10.3358 0.335786 10 0.75 10H8.75C9.16421 10 9.5 10.3358 9.5 10.75ZM11.5 14.75C11.5 15.1642 11.1642 15.5 10.75 15.5H0.75C0.335787 15.5 0 15.1642 0 14.75C0 14.3358 0.335787 14 0.75 14H10.75C11.1642 14 11.5 14.3358 11.5 14.75Z" fill="#292927"/>
</g>
</svg>
