<svg preserveAspectRatio="xMidYMid meet" overflow="visible" style="display: block;" viewBox="0 0 24 24" fill="none" xmlns="http://www.w3.org/2000/svg">
<g transform="translate(5.4657, 0.4375)">
<path id="Vector" fill-rule="evenodd" clip-rule="evenodd" d="M6.3188 1.59365L3.8472 4.7573C2.78564 6.1161 2.45899 7.90955 2.97331 9.55537L4.87019 15.6254H7.76741L9.66429 9.55537C10.1786 7.90955 9.85197 6.1161 8.7904 4.7573L6.3188 1.59365ZM5.25497 0.51888C5.79547 -0.172961 6.84213 -0.172959 7.38263 0.518881L9.97244 3.83383C11.3373 5.58086 11.7573 7.88673 11.096 10.0028L10.6988 11.2739C12.693 12.7052 13.133 14.5993 13.0616 16.0982C13.0264 16.8374 12.8687 17.4822 12.7219 17.94C12.6481 18.1702 12.5759 18.3565 12.5208 18.488C12.4932 18.5538 12.4699 18.6061 12.4526 18.6436L12.4412 18.668L12.4314 18.6886L12.4247 18.7024L12.4224 18.7072L12.4215 18.709L12.4211 18.7097C12.4209 18.7101 12.4208 18.7104 11.7499 18.375L12.4208 18.7104C12.3245 18.9028 12.1503 19.0447 11.9424 19.0999C11.7345 19.1551 11.5129 19.1184 11.3339 18.999L8.49284 17.105C8.4367 17.1184 8.37838 17.1254 8.3188 17.1254H4.54526L1.73483 18.999C1.55583 19.1184 1.33422 19.1551 1.1263 19.0999C0.918385 19.0447 0.744188 18.9028 0.647982 18.7104L1.31792 18.3754C0.647982 18.7104 0.647818 18.7101 0.647647 18.7097L0.647267 18.709L0.64637 18.7072L0.644039 18.7024L0.637303 18.6886C0.631921 18.6774 0.62479 18.6623 0.616145 18.6436C0.598862 18.6061 0.575485 18.5538 0.547919 18.488C0.492862 18.3565 0.420651 18.1702 0.346828 17.94C0.199986 17.4822 0.0423526 16.8374 0.00715105 16.0982C-0.0598712 14.6907 0.323963 12.9347 2.02221 11.5408L1.54159 10.0028C0.88032 7.88673 1.3003 5.58086 2.66516 3.83383L5.25497 0.51888ZM9.27665 15.8248L10.2198 12.8067C11.3656 13.8154 11.6115 15.0139 11.5633 16.0268C11.5419 16.4753 11.4616 16.886 11.3708 17.2208L9.27665 15.8248ZM2.51845 13.1288C1.65493 14.0639 1.46226 15.1198 1.50545 16.0268C1.52681 16.4753 1.60712 16.886 1.69795 17.2208L3.43529 16.0626L2.51845 13.1288ZM5.98338 23.0458L6.31879 22.375L6.6542 23.0458C6.44306 23.1514 6.19453 23.1514 5.98338 23.0458ZM6.31879 21.4919C6.17898 21.3918 6.01342 21.259 5.84912 21.0947C5.43087 20.6764 5.06879 20.1059 5.06879 19.375C5.06879 18.9608 4.733 18.625 4.31879 18.625C3.90458 18.625 3.56879 18.9608 3.56879 19.375C3.56879 20.6441 4.20671 21.5736 4.78846 22.1553C5.08137 22.4482 5.37227 22.6662 5.59027 22.8115C5.69989 22.8846 5.79283 22.9405 5.86075 22.9793C5.89476 22.9987 5.92265 23.014 5.94339 23.025L5.96907 23.0385L5.97769 23.043L5.98091 23.0446L5.98224 23.0452L5.98283 23.0455C5.98311 23.0457 5.98338 23.0458 6.31879 22.375C6.6542 23.0458 6.65447 23.0457 6.65475 23.0455L6.65534 23.0452L6.65667 23.0446L6.65989 23.043L6.66851 23.0385L6.69419 23.025C6.71493 23.014 6.74282 22.9987 6.77683 22.9793C6.84475 22.9405 6.93769 22.8846 7.04732 22.8115C7.26531 22.6662 7.55621 22.4482 7.84912 22.1553C8.43087 21.5736 9.06879 20.6441 9.06879 19.375C9.06879 18.9608 8.733 18.625 8.31879 18.625C7.90458 18.625 7.56879 18.9608 7.56879 19.375C7.56879 20.1059 7.20671 20.6764 6.78846 21.0947C6.62416 21.259 6.4586 21.3918 6.31879 21.4919ZM7.56879 8.375C7.56879 7.68464 7.00915 7.125 6.31879 7.125C5.62843 7.125 5.06879 7.68464 5.06879 8.375C5.06879 9.06536 5.62843 9.625 6.31879 9.625C7.00915 9.625 7.56879 9.06536 7.56879 8.375ZM6.31879 5.625C7.83757 5.625 9.06879 6.85622 9.06879 8.375C9.06879 9.89378 7.83757 11.125 6.31879 11.125C4.80001 11.125 3.56879 9.89378 3.56879 8.375C3.56879 6.85622 4.80001 5.625 6.31879 5.625Z" fill="#292927"/>
</g>
</svg>
