<svg preserveAspectRatio="xMidYMid meet" overflow="visible" style="display: block;" viewBox="0 0 24 24" fill="none" xmlns="http://www.w3.org/2000/svg">
<g transform="translate(3.2500, 3.2500)">
<path id="Vector" fill-rule="evenodd" clip-rule="evenodd" d="M0.462912 0.0569091C0.551342 0.0202391 0.648308 0 0.75 0H16.75C17.1642 0 17.5 0.335786 17.5 0.75V3.75C17.5 4.16421 17.1642 4.5 16.75 4.5C16.3358 4.5 16 4.16421 16 3.75V1.5H2.56066L9.28033 8.21967C9.57322 8.51256 9.57322 8.98744 9.28033 9.28033L2.56066 16H16V13.75C16 13.3358 16.3358 13 16.75 13C17.1642 13 17.5 13.3358 17.5 13.75V16.75C17.5 17.1642 17.1642 17.5 16.75 17.5H0.75C0.558058 17.5 0.366117 17.4268 0.21967 17.2803C0.147762 17.2084 0.093509 17.1255 0.0569092 17.0371C0.0202392 16.9487 0 16.8517 0 16.75C0 16.6483 0.0202392 16.5513 0.0569092 16.4629C0.093509 16.3745 0.147762 16.2916 0.21967 16.2197L7.68934 8.75L0.219769 1.28043L0.21967 1.28033C0.147763 1.20842 0.0935089 1.12555 0.0569091 1.03709C0.0202391 0.948658 0 0.851692 0 0.75C0 0.558058 0.0732233 0.366117 0.21967 0.21967C0.291577 0.147763 0.374453 0.0935089 0.462912 0.0569091Z" fill="#292927"/>
</g>
</svg>
