<svg preserveAspectRatio="xMidYMid meet" overflow="visible" style="display: block;" viewBox="0 0 24 24" fill="none" xmlns="http://www.w3.org/2000/svg">
<g transform="translate(0.7500, 2.2500)">
<path id="Vector" fill-rule="evenodd" clip-rule="evenodd" d="M3.85 0C3.10442 0 2.5 0.604415 2.5 1.35V3.75C2.5 4.16421 2.83579 4.5 3.25 4.5C3.66421 4.5 4 4.16421 4 3.75V1.5H18.5V3.75C18.5 4.16421 18.8358 4.5 19.25 4.5C19.6642 4.5 20 4.16421 20 3.75V1.35C20 0.604415 19.3956 0 18.65 0H3.85ZM3.85 19.5C3.10442 19.5 2.5 18.8956 2.5 18.15V15.75C2.5 15.3358 2.83579 15 3.25 15C3.66421 15 4 15.3358 4 15.75V18H18.5V15.75C18.5 15.3358 18.8358 15 19.25 15C19.6642 15 20 15.3358 20 15.75V18.15C20 18.8956 19.3956 19.5 18.65 19.5H3.85ZM15.15 6C15.8956 6 16.5 6.60442 16.5 7.35V8.25C16.5 8.82627 16.2834 9.35193 15.9271 9.75C16.2834 10.1481 16.5 10.6737 16.5 11.25V12.15C16.5 12.8956 15.8956 13.5 15.15 13.5H12.75C12.3358 13.5 12 13.1642 12 12.75V9.75V6.75C12 6.55109 12.079 6.36032 12.2197 6.21967C12.3603 6.07902 12.5511 6 12.75 6H15.15ZM13.5 10.5V12H15V11.25C15 10.8358 14.6642 10.5 14.25 10.5H13.5ZM13.5 9V7.5H15V8.25C15 8.66421 14.6642 9 14.25 9H13.5ZM21.75 6C22.1642 6 22.5 6.33579 22.5 6.75V9.75C22.5 9.94891 22.421 10.1397 22.2803 10.2803C22.1397 10.421 21.9489 10.5 21.75 10.5H19.5V12.75C19.5 13.1642 19.1642 13.5 18.75 13.5C18.3358 13.5 18 13.1642 18 12.75V6.75C18 6.55109 18.079 6.36032 18.2197 6.21967C18.3603 6.07902 18.5511 6 18.75 6H21.75ZM19.5 9H21V7.5H19.5V9ZM1.5 6.75C1.5 6.33579 1.16421 6 0.75 6C0.335786 6 0 6.33579 0 6.75V12.75C0 13.0978 0.239157 13.4 0.577685 13.4799C0.916214 13.5599 1.26526 13.3965 1.42082 13.0854L2.25 11.4271L3.07918 13.0854C3.23474 13.3965 3.58379 13.5599 3.92231 13.4799C4.26084 13.4 4.5 13.0978 4.5 12.75V6.75C4.5 6.33579 4.16421 6 3.75 6C3.33579 6 3 6.33579 3 6.75V9.57295L2.92082 9.41459C2.79378 9.1605 2.53408 9 2.25 9C1.96592 9 1.70622 9.1605 1.57918 9.41459L1.5 9.57295V6.75ZM6.21967 13.2803C6.07902 13.1397 6 12.9489 6 12.75V9.75V6.75C6 6.33579 6.33579 6 6.75 6H9.75C10.1642 6 10.5 6.33579 10.5 6.75C10.5 7.16421 10.1642 7.5 9.75 7.5H7.5V9H8.75C9.16421 9 9.5 9.33579 9.5 9.75C9.5 10.1642 9.16421 10.5 8.75 10.5H7.5V12H9.75C10.1642 12 10.5 12.3358 10.5 12.75C10.5 13.1642 10.1642 13.5 9.75 13.5H6.75C6.55109 13.5 6.36032 13.421 6.21967 13.2803Z" fill="#292927"/>
</g>
</svg>
