<svg preserveAspectRatio="xMidYMid meet" overflow="visible" style="display: block;" viewBox="0 0 24 24" fill="none" xmlns="http://www.w3.org/2000/svg">
<g transform="translate(1.2500, 2.2500)">
<path id="Vector" fill-rule="evenodd" clip-rule="evenodd" d="M0 2.75C0 1.23122 1.23122 0 2.75 0H18.75C20.2688 0 21.5 1.23122 21.5 2.75V4.75C21.5 5.16421 21.1642 5.5 20.75 5.5C20.3358 5.5 20 5.16421 20 4.75V2.75C20 2.05964 19.4404 1.5 18.75 1.5H5.5V18H18.75C19.4404 18 20 17.4404 20 16.75V14.75C20 14.3358 20.3358 14 20.75 14C21.1642 14 21.5 14.3358 21.5 14.75V16.75C21.5 18.2688 20.2688 19.5 18.75 19.5H2.75C1.23122 19.5 0 18.2688 0 16.75V2.75ZM4 18V10.5H1.5V16.75C1.5 17.4404 2.05964 18 2.75 18H4ZM4 9V1.5H2.75C2.05964 1.5 1.5 2.05964 1.5 2.75V9H4ZM9 9.75C9 9.33579 9.33579 9 9.75 9H15.2762L14.7261 7.4998H13.325C12.9107 7.4998 12.575 7.16401 12.575 6.7498C12.575 6.33558 12.9107 5.9998 13.325 5.9998H15.25C15.5646 5.9998 15.8458 6.19619 15.9541 6.49161L16.8739 9H17.3873C17.6922 8.20033 18.4704 7.63601 19.375 7.63601C20.5427 7.63601 21.5 8.57646 21.5 9.74965C21.5 10.9228 20.5427 11.8633 19.375 11.8633C18.7678 11.8633 18.2175 11.609 17.8291 11.1999L17.3481 12.9489C17.2586 13.2744 16.9626 13.5 16.625 13.5H14.975C14.5608 13.5 14.225 13.1642 14.225 12.75C14.225 12.3358 14.5608 12 14.975 12H16.0534L16.4659 10.5H16.3505H16.3496H9.75C9.33579 10.5 9 10.1642 9 9.75ZM19.375 10.3633C19.0239 10.3633 18.75 10.0827 18.75 9.74965C18.75 9.4166 19.0239 9.13601 19.375 9.13601C19.7261 9.13601 20 9.4166 20 9.74965C20 10.0827 19.7261 10.3633 19.375 10.3633Z" fill="#292927"/>
</g>
</svg>
