<svg preserveAspectRatio="xMidYMid meet" overflow="visible" style="display: block;" viewBox="0 0 24 24" fill="none" xmlns="http://www.w3.org/2000/svg">
<g transform="translate(2.2500, 2.2500)">
<path id="Vector" fill-rule="evenodd" clip-rule="evenodd" d="M1.5 18V1.5H18V18H1.5ZM1.35 0C0.604417 0 0 0.604415 0 1.35V18.15C0 18.8956 0.604415 19.5 1.35 19.5H18.15C18.8956 19.5 19.5 18.8956 19.5 18.15V1.35C19.5 0.604417 18.8956 0 18.15 0H1.35ZM10.2803 12.2803L13.7803 8.78033C14.0732 8.48744 14.0732 8.01256 13.7803 7.71967C13.4874 7.42678 13.0126 7.42678 12.7197 7.71967L10.5 9.93934V3.75C10.5 3.33579 10.1642 3 9.75 3C9.33579 3 9 3.33579 9 3.75V9.93934L6.78033 7.71967C6.48744 7.42678 6.01256 7.42678 5.71967 7.71967C5.42678 8.01256 5.42678 8.48744 5.71967 8.78033L9.21967 12.2803C9.51256 12.5732 9.98744 12.5732 10.2803 12.2803ZM3 15.75C3 15.3358 3.33579 15 3.75 15L15.75 15C16.1642 15 16.5 15.3358 16.5 15.75C16.5 16.1642 16.1642 16.5 15.75 16.5L3.75 16.5C3.33579 16.5 3 16.1642 3 15.75Z" fill="#292927"/>
</g>
</svg>
