<svg preserveAspectRatio="xMidYMid meet" overflow="visible" style="display: block;" viewBox="0 0 24 24" fill="none" xmlns="http://www.w3.org/2000/svg">
<g transform="translate(4.2500, 2.2500)">
<path id="Vector" fill-rule="evenodd" clip-rule="evenodd" d="M7.75 0C4.16026 0 2.20299 0.766766 1.1369 1.68056C0.60119 2.13974 0.312291 2.61876 0.160369 3.00942C0.0852364 3.20261 0.045159 3.37009 0.0238744 3.49779C0.0132336 3.56164 0.00727076 3.61565 0.00396527 3.65815C0.00231172 3.67941 0.00132037 3.69782 0.000742146 3.71319L0.000153252 3.73394L3.29698e-05 3.74256L6.26688e-06 3.74643L0 3.74825C0 3.74913 -2.02261e-06 3.75 0.749998 3.75H0V3.75175V9.75V15.75H0.75C0 15.75 0 15.7509 2.0305e-06 15.7517L8.28899e-06 15.7536L3.49919e-05 15.7574L0.000155274 15.7661L0.000744168 15.7868C0.00132239 15.8022 0.00231374 15.8206 0.00396729 15.8418C0.00727278 15.8843 0.0132356 15.9384 0.0238764 16.0022C0.045161 16.1299 0.0852384 16.2974 0.160371 16.4906C0.312293 16.8812 0.601192 17.3603 1.13691 17.8194C2.203 18.7332 4.16026 19.5 7.75 19.5C11.3397 19.5 13.297 18.7332 14.3631 17.8194C14.8988 17.3603 15.1877 16.8812 15.3396 16.4906C15.4148 16.2974 15.4548 16.1299 15.4761 16.0022C15.4868 15.9384 15.4927 15.8843 15.496 15.8418C15.4977 15.8206 15.4987 15.8022 15.4993 15.7868L15.4998 15.7661L15.5 15.7574L15.5 15.7536L15.5 15.7517C15.5 15.7509 15.5 15.75 14.75 15.75H15.5V9.75V3.75H14.75C15.5 3.75 15.5 3.74913 15.5 3.74825L15.5 3.74643L15.5 3.74256L15.4998 3.73394L15.4993 3.71319C15.4987 3.69782 15.4977 3.67941 15.496 3.65815C15.4927 3.61565 15.4868 3.56164 15.4761 3.49779C15.4548 3.37009 15.4148 3.20261 15.3396 3.00942C15.1877 2.61876 14.8988 2.13974 14.3631 1.68056C13.297 0.766766 11.3397 0 7.75 0ZM14 6.09958C12.8714 6.88469 10.9657 7.5 7.75 7.5C4.53428 7.5 2.62858 6.88469 1.5 6.09958V9.73114C1.50056 9.73618 1.5016 9.74443 1.50347 9.75561C1.50953 9.79196 1.52414 9.85886 1.55838 9.94691C1.62521 10.1188 1.77381 10.3897 2.11309 10.6806C2.797 11.2668 4.33974 12 7.75 12C11.1603 12 12.703 11.2668 13.3869 10.6806C13.7262 10.3897 13.8748 10.1188 13.9416 9.94691C13.9759 9.85886 13.9905 9.79196 13.9965 9.75561C13.9984 9.74443 13.9994 9.73618 14 9.73115V6.09958ZM1.50347 3.75561L1.50256 3.75L1.50347 3.74439C1.50952 3.70804 1.52413 3.64114 1.55838 3.55308C1.6252 3.38124 1.77381 3.11026 2.11309 2.81944C2.797 2.23323 4.33974 1.5 7.75 1.5C11.1603 1.5 12.703 2.23323 13.3869 2.81944C13.7262 3.11026 13.8748 3.38124 13.9416 3.55308C13.9759 3.64114 13.9905 3.70804 13.9965 3.74439L13.9974 3.75L13.9965 3.75561C13.9905 3.79196 13.9759 3.85886 13.9416 3.94692C13.8748 4.11876 13.7262 4.38974 13.3869 4.68056C12.703 5.26677 11.1603 6 7.75 6C4.33974 6 2.797 5.26677 2.11309 4.68056C1.77381 4.38974 1.6252 4.11876 1.55838 3.94692C1.52413 3.85886 1.50952 3.79196 1.50347 3.75561ZM7.75 13.5C10.9657 13.5 12.8714 12.8847 14 12.0996V15.7311C13.9994 15.7362 13.9984 15.7444 13.9965 15.7556C13.9905 15.792 13.9759 15.8589 13.9416 15.9469C13.8748 16.1188 13.7262 16.3897 13.3869 16.6806C12.703 17.2668 11.1603 18 7.75 18C4.33974 18 2.797 17.2668 2.11309 16.6806C1.77381 16.3897 1.62521 16.1188 1.55838 15.9469C1.52414 15.8589 1.50953 15.792 1.50347 15.7556C1.5016 15.7444 1.50056 15.7362 1.5 15.7311V12.0996C2.62858 12.8847 4.53428 13.5 7.75 13.5Z" fill="#292927"/>
</g>
</svg>
