<svg preserveAspectRatio="xMidYMid meet" overflow="visible" style="display: block;" viewBox="0 0 24 24" fill="none" xmlns="http://www.w3.org/2000/svg">
<g transform="translate(2.2500, 2.2500)">
<path id="Vector" fill-rule="evenodd" clip-rule="evenodd" d="M1.5 5V1.5H7V5H1.5ZM1.35 0C0.604415 0 0 0.604416 0 1.35V5.15C0 5.89558 0.604416 6.5 1.35 6.5H7.15C7.89558 6.5 8.5 5.89558 8.5 5.15V1.35C8.5 0.604416 7.89558 0 7.15 0H1.35ZM12.5 18V14.5H18V18H12.5ZM12.35 13C11.6044 13 11 13.6044 11 14.35V18.15C11 18.8956 11.6044 19.5 12.35 19.5H18.15C18.8956 19.5 19.5 18.8956 19.5 18.15V14.35C19.5 13.6044 18.8956 13 18.15 13H12.35ZM12.5 1.5V10H18V1.5H12.5ZM11 1.35C11 0.604416 11.6044 0 12.35 0H18.15C18.8956 0 19.5 0.604417 19.5 1.35V10.15C19.5 10.8956 18.8956 11.5 18.15 11.5H12.35C11.6044 11.5 11 10.8956 11 10.15V1.35ZM1.5 18V9.5H7V18H1.5ZM1.35 8C0.604415 8 0 8.60442 0 9.35V18.15C0 18.8956 0.604415 19.5 1.35 19.5H7.15C7.89558 19.5 8.5 18.8956 8.5 18.15V9.35C8.5 8.60442 7.89559 8 7.15 8H1.35Z" fill="#292927"/>
</g>
</svg>
