<svg preserveAspectRatio="xMidYMid meet" overflow="visible" style="display: block;" viewBox="0 0 24 24" fill="none" xmlns="http://www.w3.org/2000/svg">
<g transform="translate(3.2500, 2.2500)">
<path id="Vector" fill-rule="evenodd" clip-rule="evenodd" d="M1.35 0C0.604417 0 0 0.604415 0 1.35V3.75C0 4.16421 0.335786 4.5 0.75 4.5C1.16421 4.5 1.5 4.16421 1.5 3.75V1.5H16V3.75C16 4.16421 16.3358 4.5 16.75 4.5C17.1642 4.5 17.5 4.16421 17.5 3.75V1.35C17.5 0.604415 16.8956 0 16.15 0H1.35ZM1.35 19.5C0.604417 19.5 0 18.8956 0 18.15V15.75C0 15.3358 0.335786 15 0.75 15C1.16421 15 1.5 15.3358 1.5 15.75V18H16V15.75C16 15.3358 16.3358 15 16.75 15C17.1642 15 17.5 15.3358 17.5 15.75V18.15C17.5 18.8956 16.8956 19.5 16.15 19.5H1.35ZM12.25 13.5C11.8358 13.5 11.5 13.1642 11.5 12.75V9.75V6.75C11.5 6.33579 11.8358 6 12.25 6H15.25C15.6642 6 16 6.33579 16 6.75C16 7.16421 15.6642 7.5 15.25 7.5H13V9H14.25C14.6642 9 15 9.33579 15 9.75C15 10.1642 14.6642 10.5 14.25 10.5H13V12.75C13 13.1642 12.6642 13.5 12.25 13.5ZM8.75 13.5C8.33579 13.5 8 13.1642 8 12.75V6.75C8 6.33579 8.33579 6 8.75 6C9.16421 6 9.5 6.33579 9.5 6.75V12.75C9.5 13.1642 9.16421 13.5 8.75 13.5ZM1.5 12.75C1.5 12.9489 1.57902 13.1397 1.71967 13.2803C1.86032 13.421 2.05109 13.5 2.25 13.5H5.25C5.66421 13.5 6 13.1642 6 12.75V10.35C6 9.93579 5.66421 9.6 5.25 9.6C4.83579 9.6 4.5 9.93579 4.5 10.35V12H3V7.5H5.25C5.66421 7.5 6 7.16421 6 6.75C6 6.33579 5.66421 6 5.25 6H2.25C1.83579 6 1.5 6.33579 1.5 6.75V12.75Z" fill="#292927"/>
</g>
</svg>
