<svg preserveAspectRatio="xMidYMid meet" overflow="visible" style="display: block;" viewBox="0 0 24 24" fill="none" xmlns="http://www.w3.org/2000/svg">
<g transform="translate(3.7500, 6.2500)">
<path id="Vector" fill-rule="evenodd" clip-rule="evenodd" d="M1.28033 0.219669L6.28033 5.21967C6.57322 5.51256 6.57322 5.98744 6.28033 6.28033L1.28033 11.2803C0.987437 11.5732 0.512563 11.5732 0.21967 11.2803C-0.0732234 10.9874 -0.0732234 10.5126 0.21967 10.2197L4.68934 5.75L0.21967 1.28033C-0.0732234 0.987436 -0.0732234 0.512563 0.21967 0.219669C0.512563 -0.0732231 0.987437 -0.0732231 1.28033 0.219669ZM15.75 11.5C16.1642 11.5 16.5 11.1642 16.5 10.75C16.5 10.3358 16.1642 10 15.75 10H8.75C8.33579 10 8 10.3358 8 10.75C8 11.1642 8.33579 11.5 8.75 11.5H15.75Z" fill="#292927"/>
</g>
</svg>
