<svg preserveAspectRatio="xMidYMid meet" overflow="visible" style="display: block;" viewBox="0 0 24 24" fill="none" xmlns="http://www.w3.org/2000/svg">
<g transform="translate(1.2500, 1.2500)">
<path id="Vector" fill-rule="evenodd" clip-rule="evenodd" d="M2.75 1.5C2.05964 1.5 1.5 2.05964 1.5 2.75V15.75C1.5 16.4404 2.05964 17 2.75 17H18.75C19.4404 17 20 16.4404 20 15.75V2.75C20 2.05964 19.4404 1.5 18.75 1.5H2.75ZM0 2.75C0 1.23122 1.23122 0 2.75 0H18.75C20.2688 0 21.5 1.23122 21.5 2.75V15.75C21.5 17.2688 20.2688 18.5 18.75 18.5H2.75C1.23122 18.5 0 17.2688 0 15.75V2.75ZM5 20.75C5 20.3358 5.33579 20 5.75 20H15.75C16.1642 20 16.5 20.3358 16.5 20.75C16.5 21.1642 16.1642 21.5 15.75 21.5H5.75C5.33579 21.5 5 21.1642 5 20.75ZM8.28033 8.71967C7.98744 8.42678 7.51256 8.42678 7.21967 8.71967C6.92678 9.01256 6.92678 9.48744 7.21967 9.78033L9.21967 11.7803C9.36032 11.921 9.55109 12 9.75 12C9.94891 12 10.1397 11.921 10.2803 11.7803L14.2803 7.78033C14.5732 7.48744 14.5732 7.01256 14.2803 6.71967C13.9874 6.42678 13.5126 6.42678 13.2197 6.71967L9.75 10.1893L8.28033 8.71967Z" fill="#292927"/>
</g>
</svg>
