<svg preserveAspectRatio="xMidYMid meet" overflow="visible" style="display: block;" viewBox="0 0 24 24" fill="none" xmlns="http://www.w3.org/2000/svg">
<g transform="translate(2.2500, 1.8066)">
<path id="Vector" fill-rule="evenodd" clip-rule="evenodd" d="M9.20171 0.116354C9.55078 -0.0387849 9.94922 -0.0387847 10.2983 0.116354L18.6983 3.84969C19.1858 4.06636 19.5 4.54983 19.5 5.08333V15.3035C19.5 15.837 19.1858 16.3205 18.6983 16.5371L10.2983 20.2705C9.94922 20.4256 9.55078 20.4256 9.20171 20.2705L0.801713 16.5371C0.31419 16.3205 0 15.837 0 15.3035V5.08333C0 4.54983 0.31419 4.06636 0.801713 3.84969L9.20171 0.116354ZM1.5 15.206V5.84725L8.99999 9.18058V18.5393L1.5 15.206ZM18 15.206L10.5 18.5393V9.18058L13.5 7.84724V10.6935C13.5 11.1078 13.8358 11.4435 14.25 11.4435C14.6642 11.4435 15 11.1078 15 10.6935V7.18057L18 5.84724V15.206ZM14.2482 5.87323L16.9031 4.69329L9.75 1.51415L7.09651 2.69348L14.1983 5.84982C14.2151 5.85731 14.2318 5.86512 14.2482 5.87323ZM5.24985 3.51422L12.4029 6.69336L9.74999 7.87243L2.59693 4.69329L5.24985 3.51422Z" fill="#292927"/>
</g>
</svg>
