<svg preserveAspectRatio="xMidYMid meet" overflow="visible" style="display: block;" viewBox="0 0 24 24" fill="none" xmlns="http://www.w3.org/2000/svg">
<g transform="translate(3.2500, 3.2500)">
<path id="Vector" fill-rule="evenodd" clip-rule="evenodd" d="M0.75 0C0.335786 0 0 0.335786 0 0.75V3.75C0 4.16421 0.335786 4.5 0.75 4.5C1.16421 4.5 1.5 4.16421 1.5 3.75V1.5H3.75C4.16421 1.5 4.5 1.16421 4.5 0.75C4.5 0.335786 4.16421 0 3.75 0H0.75ZM16.75 0C17.1642 0 17.5 0.335786 17.5 0.75V3.75C17.5 4.16421 17.1642 4.5 16.75 4.5C16.3358 4.5 16 4.16421 16 3.75V1.5H13.75C13.3358 1.5 13 1.16421 13 0.75C13 0.335786 13.3358 0 13.75 0H16.75ZM0 16.75C0 17.1642 0.335786 17.5 0.75 17.5H3.75C4.16421 17.5 4.5 17.1642 4.5 16.75C4.5 16.3358 4.16421 16 3.75 16H1.5V13.75C1.5 13.3358 1.16421 13 0.75 13C0.335786 13 0 13.3358 0 13.75V16.75ZM16.75 17.5C17.1642 17.5 17.5 17.1642 17.5 16.75V13.75C17.5 13.3358 17.1642 13 16.75 13C16.3358 13 16 13.3358 16 13.75V16H13.75C13.3358 16 13 16.3358 13 16.75C13 17.1642 13.3358 17.5 13.75 17.5H16.75Z" fill="#292927"/>
</g>
</svg>
