<svg preserveAspectRatio="xMidYMid meet" overflow="visible" style="display: block;" viewBox="0 0 24 24" fill="none" xmlns="http://www.w3.org/2000/svg">
<g transform="translate(2.2500, 7.2500)">
<path id="Vector" fill-rule="evenodd" clip-rule="evenodd" d="M4.75 1.5C2.95507 1.5 1.5 2.95507 1.5 4.75C1.5 6.54493 2.95507 8 4.75 8C6.54493 8 8 6.54493 8 4.75C8 2.95507 6.54493 1.5 4.75 1.5ZM0 4.75C0 2.12665 2.12665 0 4.75 0C7.37335 0 9.5 2.12665 9.5 4.75C9.5 7.37335 7.37335 9.5 4.75 9.5C2.12665 9.5 0 7.37335 0 4.75ZM12.0066 2.25698C11.707 2.85625 11.5 3.73662 11.5 4.75C11.5 5.76338 11.707 6.64375 12.0066 7.24302C12.3287 7.88715 12.6348 8 12.75 8C12.8652 8 13.1713 7.88715 13.4934 7.24302C13.793 6.64375 14 5.76338 14 4.75C14 3.73662 13.793 2.85625 13.4934 2.25698C13.1713 1.61285 12.8652 1.5 12.75 1.5C12.6348 1.5 12.3287 1.61285 12.0066 2.25698ZM10.665 1.58616C11.0668 0.782577 11.7606 0 12.75 0C13.7394 0 14.4332 0.782577 14.835 1.58616C15.2593 2.43461 15.5 3.55424 15.5 4.75C15.5 5.94576 15.2593 7.06539 14.835 7.91384C14.4332 8.71742 13.7394 9.5 12.75 9.5C11.7606 9.5 11.0668 8.71742 10.665 7.91384C10.2407 7.06539 10 5.94576 10 4.75C10 3.55424 10.2407 2.43461 10.665 1.58616ZM17.5 4.75C17.5 3.73367 17.5992 2.83251 17.75 2.18824C17.9008 2.83251 18 3.73367 18 4.75C18 5.76633 17.9008 6.66749 17.75 7.31176C17.5992 6.66749 17.5 5.76633 17.5 4.75ZM18.0487 1.38512C18.0488 1.38589 18.0445 1.39182 18.0356 1.40061C18.0442 1.38875 18.0486 1.38436 18.0487 1.38512ZM17.4644 1.40061C17.4555 1.39182 17.4512 1.38589 17.4513 1.38512C17.4514 1.38436 17.4558 1.38875 17.4644 1.40061ZM17.4513 8.11488C17.4512 8.11411 17.4555 8.10818 17.4644 8.09938C17.4558 8.11124 17.4514 8.11565 17.4513 8.11488ZM18.0356 8.09938C18.0445 8.10818 18.0488 8.11411 18.0487 8.11488C18.0486 8.11565 18.0442 8.11125 18.0356 8.09938ZM17.75 0C17.1831 0 16.8577 0.441477 16.7151 0.682718C16.5428 0.974165 16.4137 1.34597 16.3153 1.73967C16.1156 2.53861 16 3.60258 16 4.75C16 5.89742 16.1156 6.96139 16.3153 7.76033C16.4137 8.15403 16.5428 8.52584 16.7151 8.81728C16.8577 9.05852 17.1831 9.5 17.75 9.5C18.3169 9.5 18.6423 9.05852 18.7849 8.81728C18.9572 8.52584 19.0863 8.15403 19.1847 7.76033C19.3844 6.96139 19.5 5.89742 19.5 4.75C19.5 3.60258 19.3844 2.53861 19.1847 1.73967C19.0863 1.34597 18.9572 0.974165 18.7849 0.682718C18.6423 0.441477 18.3169 0 17.75 0Z" fill="#292927"/>
</g>
</svg>
