<svg preserveAspectRatio="xMidYMid meet" overflow="visible" style="display: block;" viewBox="0 0 24 24" fill="none" xmlns="http://www.w3.org/2000/svg">
<g transform="translate(1.3997, 0.7499)">
<path id="Vector" fill-rule="evenodd" clip-rule="evenodd" d="M4.75 0C2.12665 0 0 2.12665 0 4.75V6.75C0 7.16421 0.335786 7.5 0.75 7.5C1.16421 7.5 1.5 7.16421 1.5 6.75V4.75C1.5 2.95507 2.95507 1.5 4.75 1.5H14.75C16.5449 1.5 18 2.95508 18 4.75V6.75C18 7.16421 18.3358 7.5 18.75 7.5C19.1642 7.5 19.5 7.16421 19.5 6.75V4.75C19.5 2.12664 17.3733 0 14.75 0H4.75ZM0 10.75C0 10.3358 0.335786 10 0.75 10H18.75C19.1642 10 19.5 10.3358 19.5 10.75C19.5 11.1642 19.1642 11.5 18.75 11.5H1.5V17.75C1.5 17.8881 1.61192 18 1.75 18H2.25H6.25H10.75C11.1642 18 11.5 18.3358 11.5 18.75C11.5 19.1642 11.1642 19.5 10.75 19.5H7V20.65C7 21.3956 6.39556 22 5.65 22H2.85C2.10444 22 1.5 21.3956 1.5 20.65V19.4823C0.651937 19.361 0 18.6316 0 17.75V10.75ZM3 19.5V20.5H5.5V19.5H3ZM5.26202 14.1908C5.56976 14.4681 5.59447 14.9423 5.31722 15.2501L5.30722 15.2612C5.02996 15.5689 4.55573 15.5936 4.24799 15.3164C3.94026 15.0391 3.91554 14.5649 4.1928 14.2571L4.2028 14.246C4.48005 13.9383 4.95428 13.9136 5.26202 14.1908ZM18.2506 17.3085C18.559 17.032 18.5849 16.5578 18.3085 16.2494C18.032 15.941 17.5578 15.9151 17.2494 16.1915C16.445 16.9126 15.8119 17.7864 15.3302 18.6075C15.0393 18.2594 14.8463 17.8238 14.7985 17.3396C14.6725 16.0621 15.6055 14.9302 16.8836 14.8101L19.4727 14.5668L19.6883 16.7515C19.8217 18.1032 18.8344 19.301 17.4821 19.428L17.3476 19.4407C17.0936 19.4646 16.845 19.4466 16.6088 19.3926C17.0361 18.6598 17.5814 17.9083 18.2506 17.3085ZM13.3057 17.4869C13.406 18.5028 13.8951 19.3881 14.6112 20.0094C14.4425 20.387 14.3124 20.7196 14.2187 20.9768C14.1567 21.147 14.1103 21.285 14.079 21.3819C14.0634 21.4304 14.0515 21.4687 14.0432 21.4957L14.0336 21.5277L14.0308 21.5371L14.03 21.5401L14.0294 21.542C14.0294 21.5422 14.0294 21.542 14.75 21.75L14.0294 21.542C13.9145 21.94 14.144 22.3557 14.542 22.4706C14.9398 22.5854 15.3555 22.3558 15.4706 21.958L15.4717 21.9543L15.478 21.9333C15.484 21.9138 15.4934 21.8832 15.5065 21.8428C15.5326 21.7619 15.573 21.6416 15.6281 21.4902C15.7005 21.2917 15.7978 21.0409 15.9212 20.7564C16.4112 20.9193 16.9419 20.9854 17.4882 20.9341L17.6227 20.9214C19.8024 20.7165 21.3961 18.783 21.1811 16.6042L20.9264 14.0232C20.8669 13.421 20.3315 12.9795 19.7289 13.0361L16.7432 13.3166C14.6376 13.5145 13.0981 15.3823 13.3057 17.4869ZM4 6.75C4 6.33579 4.33579 6 4.75 6H14.75C15.1642 6 15.5 6.33579 15.5 6.75C15.5 7.16421 15.1642 7.5 14.75 7.5H4.75C4.33579 7.5 4 7.16421 4 6.75Z" fill="#292927"/>
</g>
</svg>
