<svg preserveAspectRatio="xMidYMid meet" overflow="visible" style="display: block;" viewBox="0 0 24 24" fill="none" xmlns="http://www.w3.org/2000/svg">
<g transform="translate(1.2450, 1.3590)">
<path id="Vector" fill-rule="evenodd" clip-rule="evenodd" d="M1.53242 21.2694C0.721848 21.38 2.28882e-05 20.7499 2.09808e-05 19.9318L0 7.63083C0 7.15026 0.255474 6.70592 0.670797 6.46413L11.4596 0.183312C11.9519 -0.103236 12.571 -0.050046 13.0071 0.31626L19.0182 5.36505C19.3237 5.62156 19.5 5.99998 19.5 6.3988V14.1955C19.5 14.6501 19.2713 15.0741 18.8914 15.3237L12.2756 19.6713C12.2535 19.6858 12.2311 19.6996 12.2083 19.7127C12.0926 19.8021 11.9501 19.8585 11.795 19.8676C11.769 19.8728 11.7429 19.8771 11.7166 19.8807L1.53242 21.2694ZM12.5 17.7289L18 14.1146V7.2043L12.5 11.012V17.7289ZM11 11.1848V18.4645L1.50002 19.76L1.5 8.47048L11 11.1848ZM11.6148 9.80041L17.2894 5.87187L12.1231 1.53272L2.42942 7.176L11.6148 9.80041ZM15.7617 12.0605C16.0696 12.3376 16.0946 12.8118 15.8175 13.1197L15.8075 13.1308C15.5304 13.4387 15.0562 13.4637 14.7483 13.1866C14.4404 12.9095 14.4154 12.4353 14.6925 12.1274L14.7025 12.1163C14.9796 11.8084 15.4538 11.7834 15.7617 12.0605ZM21.3175 16.1197C21.5946 15.8118 21.5696 15.3376 21.2617 15.0605C20.9538 14.7834 20.4796 14.8084 20.2025 15.1163L20.1925 15.1274C19.9154 15.4353 19.9404 15.9095 20.2483 16.1866C20.5562 16.4637 21.0304 16.4387 21.3075 16.1308L21.3175 16.1197Z" fill="#292927"/>
</g>
</svg>
