<svg preserveAspectRatio="xMidYMid meet" overflow="visible" style="display: block;" viewBox="0 0 24 24" fill="none" xmlns="http://www.w3.org/2000/svg">
<g transform="translate(2.2500, 1.2500)">
<path id="Vector" fill-rule="evenodd" clip-rule="evenodd" d="M1.5 1.5V20H10.75C11.1642 20 11.5 20.3358 11.5 20.75C11.5 21.1642 11.1642 21.5 10.75 21.5H1.35C0.604415 21.5 0 20.8956 0 20.15V1.35C0 0.604415 0.604417 0 1.35 0H12.75H13.0015C13.3595 0 13.7029 0.142232 13.9561 0.395406L17.1046 3.54393C17.3578 3.79711 17.5 4.14049 17.5 4.49853V4.75V11.75C17.5 12.1642 17.1642 12.5 16.75 12.5C16.3358 12.5 16 12.1642 16 11.75V5.5H13.35C12.6044 5.5 12 4.89558 12 4.15V1.5H1.5ZM13.5 4V2.06066L15.4393 4H13.5ZM16.2803 21.2803C15.9874 21.5732 15.5126 21.5732 15.2197 21.2803C14.9268 20.9874 14.9268 20.5126 15.2197 20.2197L16.9393 18.5H12.75C12.3358 18.5 12 18.1642 12 17.75C12 17.3358 12.3358 17 12.75 17H16.9393L15.2197 15.2803C14.9268 14.9874 14.9268 14.5126 15.2197 14.2197C15.5126 13.9268 15.9874 13.9268 16.2803 14.2197L19.2803 17.2197C19.5732 17.5126 19.5732 17.9874 19.2803 18.2803L16.2803 21.2803Z" fill="#292927"/>
</g>
</svg>
