<svg preserveAspectRatio="xMidYMid meet" overflow="visible" style="display: block;" viewBox="0 0 24 24" fill="none" xmlns="http://www.w3.org/2000/svg">
<g transform="translate(2.2500, 2.2500)">
<path id="Vector" fill-rule="evenodd" clip-rule="evenodd" d="M1.5 18V1.5H18V18H1.5ZM1.35 0C0.604417 0 0 0.604415 0 1.35V18.15C0 18.8956 0.604415 19.5 1.35 19.5H18.15C18.8956 19.5 19.5 18.8956 19.5 18.15V1.35C19.5 0.604417 18.8956 0 18.15 0H1.35ZM11.5 5.75002C11.5 5.44668 11.3173 5.1732 11.037 5.05711C10.7568 4.94103 10.4342 5.00519 10.2197 5.21969L7.21967 8.21969C6.92678 8.51258 6.92678 8.98746 7.21967 9.28035C7.51256 9.57325 7.98744 9.57325 8.28033 9.28035L10 7.56068V13.75C10 14.1642 10.3358 14.5 10.75 14.5C11.1642 14.5 11.5 14.1642 11.5 13.75V5.75002Z" fill="#292927"/>
</g>
</svg>
