<svg preserveAspectRatio="xMidYMid meet" overflow="visible" style="display: block;" viewBox="0 0 24 24" fill="none" xmlns="http://www.w3.org/2000/svg">
<g transform="translate(0.1781, 3.6668)">
<path id="Vector" fill-rule="evenodd" clip-rule="evenodd" d="M2.64321 2.08265C2.94988 0.859206 4.04927 0 5.3114 0H18.1883C19.4482 0 20.547 0.852018 20.8712 2.06413C21.2737 3.56865 22.0482 6.42175 23.4725 11.5493C24.0366 13.5803 23.1509 15.4451 21.6485 16.2536C20.8958 16.6587 19.9988 16.7896 19.0964 16.5388C18.1949 16.2882 17.3449 15.6735 16.6395 14.6859C16.3988 14.3489 16.4768 13.8805 16.8139 13.6397C17.151 13.3989 17.6194 13.477 17.8601 13.8141C18.4047 14.5765 18.9858 14.9512 19.4981 15.0936C20.0097 15.2358 20.5093 15.1633 20.9377 14.9327C21.7974 14.47 22.4117 13.3349 22.0272 11.9507C20.6021 6.82051 19.8263 3.96247 19.4222 2.45173C19.2721 1.89071 18.7639 1.5 18.1883 1.5H5.3114C4.73806 1.5 4.2378 1.89041 4.09819 2.44736C3.2585 5.79719 2.50772 8.7428 1.61663 11.9507C1.23215 13.3349 1.84638 14.47 2.70617 14.9327C3.13456 15.1633 3.63414 15.2358 4.14567 15.0936C4.65797 14.9512 5.23908 14.5765 5.78369 13.8141C6.02445 13.477 6.49286 13.3989 6.82992 13.6397C7.16698 13.8805 7.24505 14.3489 7.00429 14.6859C6.2989 15.6735 5.44893 16.2882 4.54738 16.5388C3.64506 16.7896 2.74802 16.6587 1.99533 16.2536C0.492953 15.4451 -0.392811 13.5803 0.171354 11.5493C1.05717 8.36034 1.80419 5.42979 2.64321 2.08265ZM18.3184 5.76173C18.0413 6.06961 17.5671 6.09457 17.2592 5.81748L17.2481 5.80748C16.9402 5.53038 16.9152 5.05616 17.1923 4.74828C17.4694 4.4404 17.9436 4.41544 18.2515 4.69254L18.2626 4.70254C18.5705 4.97963 18.5955 5.45385 18.3184 5.76173ZM15.7492 4.31748C16.0571 4.59457 16.5313 4.56961 16.8084 4.26173C17.0855 3.95385 17.0605 3.47963 16.7526 3.20254L16.7415 3.19254C16.4336 2.91544 15.9594 2.9404 15.6823 3.24828C15.4052 3.55616 15.4302 4.03038 15.7381 4.30748L15.7492 4.31748ZM16.8084 7.26173C16.5313 7.56961 16.0571 7.59457 15.7492 7.31748L15.7381 7.30748C15.4302 7.03038 15.4052 6.55616 15.6823 6.24828C15.9594 5.9404 16.4336 5.91544 16.7415 6.19254L16.7526 6.20254C17.0605 6.47963 17.0855 6.95385 16.8084 7.26173ZM14.2592 5.81748C14.5671 6.09457 15.0413 6.06961 15.3184 5.76173C15.5955 5.45385 15.5705 4.97963 15.2626 4.70254L15.2515 4.69254C14.9436 4.41544 14.4694 4.4404 14.1923 4.74828C13.9152 5.05616 13.9402 5.53038 14.2481 5.80748L14.2592 5.81748ZM6.74982 3C7.16403 3 7.49982 3.33579 7.49982 3.75V4.5H8.24982C8.66403 4.5 8.99982 4.83579 8.99982 5.25C8.99982 5.66421 8.66403 6 8.24982 6H7.49982V6.75C7.49982 7.16421 7.16403 7.5 6.74982 7.5C6.3356 7.5 5.99982 7.16421 5.99982 6.75V6H5.24982C4.8356 6 4.49982 5.66421 4.49982 5.25C4.49982 4.83579 4.8356 4.5 5.24982 4.5H5.99982V3.75C5.99982 3.33579 6.3356 3 6.74982 3ZM7.74982 9.5C7.05946 9.5 6.49982 10.0596 6.49982 10.75C6.49982 11.4404 7.05946 12 7.74982 12C8.44017 12 8.99982 11.4404 8.99982 10.75C8.99982 10.0596 8.44017 9.5 7.74982 9.5ZM4.99982 10.75C4.99982 9.23122 6.23103 8 7.74982 8C9.2686 8 10.4998 9.23122 10.4998 10.75C10.4998 12.2688 9.2686 13.5 7.74982 13.5C6.23103 13.5 4.99982 12.2688 4.99982 10.75ZM14.4998 10.75C14.4998 10.0596 15.0595 9.5 15.7498 9.5C16.4402 9.5 16.9998 10.0596 16.9998 10.75C16.9998 11.4404 16.4402 12 15.7498 12C15.0595 12 14.4998 11.4404 14.4998 10.75ZM15.7498 8C14.231 8 12.9998 9.23122 12.9998 10.75C12.9998 12.2688 14.231 13.5 15.7498 13.5C17.2686 13.5 18.4998 12.2688 18.4998 10.75C18.4998 9.23122 17.2686 8 15.7498 8Z" fill="#292927"/>
</g>
</svg>
