<svg preserveAspectRatio="xMidYMid meet" overflow="visible" style="display: block;" viewBox="0 0 24 24" fill="none" xmlns="http://www.w3.org/2000/svg">
<g transform="translate(6.2548, 2.2375)">
<path id="Vector" fill-rule="evenodd" clip-rule="evenodd" d="M2.06064 0.204284C1.16128 -0.352462 6.10342e-05 0.294404 6.10342e-05 1.35214V8.76618C-2.02946e-05 8.77256 -2.03949e-05 8.77895 6.10342e-05 8.78533V18.7751C6.10342e-05 19.1893 0.335847 19.5251 0.750061 19.5251C1.16427 19.5251 1.50006 19.1893 1.50006 18.7751V14.1764L10.8892 7.91702C11.707 7.37179 11.6867 6.16326 10.8509 5.64589L7.65839 3.66956C7.64969 3.66392 7.64088 3.65846 7.63197 3.6532L2.06064 0.204284ZM5.8792 4.33231L1.50006 1.62141V7.34798L5.8792 4.33231ZM1.50006 9.16925V12.3737L9.86292 6.79842L7.27193 5.19448L1.50006 9.16925Z" fill="#292927"/>
</g>
</svg>
