<svg preserveAspectRatio="xMidYMid meet" overflow="visible" style="display: block;" viewBox="0 0 24 24" fill="none" xmlns="http://www.w3.org/2000/svg">
<g transform="translate(3.2500, 1.7500)">
<path id="Vector" fill-rule="evenodd" clip-rule="evenodd" d="M8.72016 3.78033C8.42727 3.48744 8.42727 3.01256 8.72016 2.71967L11.2202 0.21967C11.5131 -0.0732232 11.9879 -0.0732232 12.2808 0.21967C12.5737 0.512563 12.5737 0.987437 12.2808 1.28033L11.0611 2.5H12.75C13.3812 2.5 13.9045 2.65997 14.3223 2.93846C14.7353 3.21383 15.0013 3.57562 15.1708 3.91459C15.3388 4.25063 15.4191 4.57758 15.4585 4.8142C15.4786 4.93429 15.4889 5.036 15.4942 5.11063C15.4969 5.14807 15.4983 5.17906 15.4991 5.20255L15.4998 5.23217L15.5 5.2426L15.5 5.24668L15.5 5.24844L15.5 5.24924C15.5 5.24963 15.5 5.25 14.75 5.25H15.5V14.6035C16.6543 14.93 17.5 15.9912 17.5 17.25C17.5 18.7688 16.2688 20 14.75 20C13.2312 20 12 18.7688 12 17.25C12 15.9912 12.8457 14.93 14 14.6035V5.25488L13.9999 5.25253C13.9997 5.24672 13.9992 5.23475 13.998 5.2175C13.9955 5.18275 13.9902 5.12821 13.979 5.0608C13.9559 4.92242 13.9112 4.74938 13.8292 4.58541C13.7487 4.42438 13.6397 4.28617 13.4902 4.18654C13.3455 4.09004 13.1188 4 12.75 4H11.0611L12.2808 5.21967C12.5737 5.51256 12.5737 5.98744 12.2808 6.28033C11.9879 6.57322 11.5131 6.57322 11.2202 6.28033L8.72016 3.78033ZM1.5 3.25C1.5 2.55964 2.05964 2 2.75 2C3.44036 2 4 2.55964 4 3.25C4 3.94036 3.44036 4.5 2.75 4.5C2.05964 4.5 1.5 3.94036 1.5 3.25ZM3.5 5.89649C4.65425 5.57002 5.5 4.50878 5.5 3.25C5.5 1.73122 4.26878 0.500001 2.75 0.500001C1.23122 0.500001 0 1.73122 0 3.25C0 4.50878 0.845748 5.57002 2 5.89649V15.25H2.75C2 15.25 2 15.2504 2 15.2508L2 15.2516L2.00001 15.2533L2.00003 15.2574L2.00016 15.2678L2.0009 15.2974C2.00169 15.3209 2.00314 15.3519 2.00581 15.3894C2.01114 15.464 2.02144 15.5657 2.04145 15.6858C2.08089 15.9224 2.16116 16.2494 2.32918 16.5854C2.49867 16.9244 2.76467 17.2862 3.17772 17.5615C3.59547 17.84 4.11876 18 4.75 18H5.93934L4.71967 19.2197C4.42678 19.5126 4.42678 19.9874 4.71967 20.2803C5.01256 20.5732 5.48744 20.5732 5.78033 20.2803L8.28033 17.7803C8.35224 17.7084 8.40649 17.6255 8.44309 17.5371C8.47509 17.4599 8.49458 17.3762 8.49902 17.2886C8.49967 17.2758 8.5 17.2629 8.5 17.25C8.5 17.0471 8.4194 16.863 8.28847 16.7279C8.28549 16.7249 8.28248 16.7218 8.27946 16.7188L5.78033 14.2197C5.48744 13.9268 5.01256 13.9268 4.71967 14.2197C4.42678 14.5126 4.42678 14.9874 4.71967 15.2803L5.93934 16.5H4.75C4.38124 16.5 4.15453 16.41 4.00978 16.3135C3.86033 16.2138 3.75133 16.0756 3.67082 15.9146C3.58884 15.7506 3.54411 15.5776 3.52105 15.4392C3.50981 15.3718 3.50448 15.3173 3.502 15.2825C3.50077 15.2653 3.50027 15.2533 3.50007 15.2475L3.5 15.2451V5.89649ZM13.5 17.25C13.5 16.5596 14.0596 16 14.75 16C15.4404 16 16 16.5596 16 17.25C16 17.9404 15.4404 18.5 14.75 18.5C14.0596 18.5 13.5 17.9404 13.5 17.25Z" fill="#292927"/>
</g>
</svg>
