<svg preserveAspectRatio="xMidYMid meet" overflow="visible" style="display: block;" viewBox="0 0 24 24" fill="none" xmlns="http://www.w3.org/2000/svg">
<g transform="translate(1.2500, 8.2500)">
<path id="Vector" fill-rule="evenodd" clip-rule="evenodd" d="M18.2803 0.21967L21.2803 3.21967C21.5732 3.51256 21.5732 3.98744 21.2803 4.28033L18.2803 7.28033C17.9874 7.57322 17.5126 7.57322 17.2197 7.28033C16.9268 6.98744 16.9268 6.51256 17.2197 6.21967L18.9393 4.5H7.75C7.33579 4.5 7 4.16421 7 3.75C7 3.33579 7.33579 3 7.75 3H18.9393L17.2197 1.28033C16.9268 0.987437 16.9268 0.512563 17.2197 0.21967C17.5126 -0.0732232 17.9874 -0.0732232 18.2803 0.21967ZM4 3.75C4 3.05964 3.44036 2.5 2.75 2.5C2.05964 2.5 1.5 3.05964 1.5 3.75C1.5 4.44036 2.05964 5 2.75 5C3.44036 5 4 4.44036 4 3.75ZM2.75 1C4.26878 1 5.5 2.23122 5.5 3.75C5.5 5.26878 4.26878 6.5 2.75 6.5C1.23122 6.5 0 5.26878 0 3.75C0 2.23122 1.23122 1 2.75 1Z" fill="#292927"/>
</g>
</svg>
