<svg preserveAspectRatio="xMidYMid meet" overflow="visible" style="display: block;" viewBox="0 0 24 24" fill="none" xmlns="http://www.w3.org/2000/svg">
<g transform="translate(3.2450, 2.2449)">
<path id="Vector" fill-rule="evenodd" clip-rule="evenodd" d="M4.5 0.75C4.5 0.335786 4.16421 0 3.75 0C3.33579 0 3 0.335786 3 0.75V1.75C3 2.16421 3.33579 2.5 3.75 2.5C4.16421 2.5 4.5 2.16421 4.5 1.75V0.75ZM4.5 5.75C4.5 5.33579 4.16421 5 3.75 5C3.33579 5 3 5.33579 3 5.75V6.75C3 7.16421 3.33579 7.5 3.75 7.5C4.16421 7.5 4.5 7.16421 4.5 6.75V5.75ZM13.2197 0.21967C13.5126 -0.0732232 13.9874 -0.0732232 14.2803 0.21967L17.2803 3.21967C17.5732 3.51256 17.5732 3.98744 17.2803 4.28033C16.9874 4.57322 16.5126 4.57322 16.2197 4.28033L14.5 2.56066V8.75C14.5 9.16421 14.1642 9.5 13.75 9.5C13.3358 9.5 13 9.16421 13 8.75V2.56066L11.2803 4.28033C10.9874 4.57322 10.5126 4.57322 10.2197 4.28033C9.92678 3.98744 9.92678 3.51256 10.2197 3.21967L13.2197 0.21967ZM17.5 14.75V12.75C17.5 12.3358 17.1642 12 16.75 12C16.3358 12 16 12.3358 16 12.75V14.75C16 15.1642 16.3358 15.5 16.75 15.5C17.1642 15.5 17.5 15.1642 17.5 14.75ZM17.2617 18.1916C17.5696 18.4687 17.5946 18.9429 17.3175 19.2508L17.3075 19.2619C17.0304 19.5697 16.5562 19.5947 16.2483 19.3176C15.9404 19.0405 15.9154 18.5663 16.1925 18.2584L16.2025 18.2473C16.4796 17.9394 16.9538 17.9145 17.2617 18.1916ZM4.28033 17.2803C3.98744 17.5732 3.51256 17.5732 3.21967 17.2803L0.21967 14.2803C-0.0732233 13.9874 -0.0732233 13.5126 0.21967 13.2197C0.512563 12.9268 0.987437 12.9268 1.28033 13.2197L3 14.9393V10.75C3 10.3358 3.33579 10 3.75 10C4.16421 10 4.5 10.3358 4.5 10.75V14.9393L6.21967 13.2197C6.51256 12.9268 6.98744 12.9268 7.28033 13.2197C7.57322 13.5126 7.57322 13.9874 7.28033 14.2803L4.28033 17.2803Z" fill="#292927"/>
</g>
</svg>
