<svg preserveAspectRatio="xMidYMid meet" overflow="visible" style="display: block;" viewBox="0 0 24 24" fill="none" xmlns="http://www.w3.org/2000/svg">
<g transform="translate(4.2500, 2.2500)">
<path id="Vector" fill-rule="evenodd" clip-rule="evenodd" d="M2.75 1.5C2.05964 1.5 1.5 2.05964 1.5 2.75C1.5 3.44036 2.05964 4 2.75 4C3.44036 4 4 3.44036 4 2.75C4 2.05964 3.44036 1.5 2.75 1.5ZM5.5 2.75C5.5 4.00878 4.65425 5.07002 3.5 5.39648V10.5528C3.72991 10.3845 3.94857 10.2663 4.12501 10.1854C4.24467 10.1305 4.34693 10.092 4.42309 10.0661C4.46125 10.0532 4.49308 10.0434 4.51754 10.0362L4.53247 10.0319L10.5128 8.03849C10.5286 8.03322 10.5446 8.02849 10.5607 8.02428L10.5625 8.02377C10.5673 8.02236 10.5784 8.01901 10.595 8.0134C10.6282 8.00213 10.6822 7.98211 10.75 7.95101C10.8869 7.88827 11.0719 7.78426 11.2561 7.62307C11.605 7.31781 12 6.76874 12 5.75V5.39648C10.8457 5.07002 10 4.00878 10 2.75C10 1.23122 11.2312 0 12.75 0C14.2688 0 15.5 1.23122 15.5 2.75C15.5 4.00878 14.6543 5.07002 13.5 5.39648V5.75C13.5 7.23126 12.895 8.18219 12.2439 8.75193C11.9281 9.02824 11.6131 9.20548 11.375 9.31461C11.2553 9.36946 11.1531 9.40803 11.0769 9.43387C11.0388 9.44681 11.0069 9.45664 10.9825 9.46377L10.9675 9.46806L4.98717 11.4615C4.97138 11.4668 4.95542 11.4715 4.93931 11.4757L4.93754 11.4762C4.9327 11.4776 4.92157 11.481 4.90504 11.4866C4.87182 11.4979 4.81783 11.5179 4.74999 11.549C4.6131 11.6117 4.4281 11.7157 4.24388 11.8769C3.89501 12.1822 3.5 12.7313 3.5 13.75V14.1035C4.65425 14.43 5.5 15.4912 5.5 16.75C5.5 18.2688 4.26878 19.5 2.75 19.5C1.23122 19.5 0 18.2688 0 16.75C0 15.4912 0.845748 14.43 2 14.1035V13.75V5.39648C0.845748 5.07002 0 4.00878 0 2.75C0 1.23122 1.23122 0 2.75 0C4.26878 0 5.5 1.23122 5.5 2.75ZM2.75 15.5C2.05964 15.5 1.5 16.0596 1.5 16.75C1.5 17.4404 2.05964 18 2.75 18C3.44036 18 4 17.4404 4 16.75C4 16.0596 3.44036 15.5 2.75 15.5ZM12.75 4C13.4404 4 14 3.44036 14 2.75C14 2.05964 13.4404 1.5 12.75 1.5C12.0596 1.5 11.5 2.05964 11.5 2.75C11.5 3.44036 12.0596 4 12.75 4ZM4.9319 11.4776L4.93272 11.4774C4.93231 11.4775 4.9319 11.4776 4.75 10.75L4.9319 11.4776Z" fill="#292927"/>
</g>
</svg>
