<svg preserveAspectRatio="xMidYMid meet" overflow="visible" style="display: block;" viewBox="0 0 24 24" fill="none" xmlns="http://www.w3.org/2000/svg">
<g transform="translate(2.2500, 2.2500)">
<path id="Vector" fill-rule="evenodd" clip-rule="evenodd" d="M7.5 0.75C7.5 0.335786 7.16421 0 6.75 0H2.75C2.33579 0 2 0.335786 2 0.75V9.75V13.75C2 15.2688 3.23122 16.5 4.75 16.5C6.26878 16.5 7.5 15.2688 7.5 13.75V9.75V0.75ZM3.5 13.75V10.5H6V13.75C6 14.4404 5.44036 15 4.75 15C4.05964 15 3.5 14.4404 3.5 13.75ZM3.5 9H6V1.5H3.5V9ZM19.5 18.75C19.5 19.1642 19.1642 19.5 18.75 19.5H0.75C0.335787 19.5 0 19.1642 0 18.75C0 18.3358 0.335787 18 0.75 18H18.75C19.1642 18 19.5 18.3358 19.5 18.75ZM16 9V1.5H13.5V9H16ZM13.5 10.5H16V13.75C16 14.4404 15.4404 15 14.75 15C14.0596 15 13.5 14.4404 13.5 13.75V10.5ZM12 9.75V0.75C12 0.335786 12.3358 0 12.75 0H16.75C17.1642 0 17.5 0.335786 17.5 0.75V9.75V13.75C17.5 15.2688 16.2688 16.5 14.75 16.5C13.2312 16.5 12 15.2688 12 13.75V9.75Z" fill="#292927"/>
</g>
</svg>
