<svg preserveAspectRatio="xMidYMid meet" overflow="visible" style="display: block;" viewBox="0 0 24 24" fill="none" xmlns="http://www.w3.org/2000/svg">
<g transform="translate(2.2500, 4.0682)">
<path id="Vector" fill-rule="evenodd" clip-rule="evenodd" d="M9.5 10.75C9.5 11.1642 9.16421 11.5 8.75 11.5H2.75C1.23122 11.5 0 10.2688 0 8.75V2.75C0 1.23122 1.23122 0 2.75 0H16.75C18.2688 0 19.5 1.23122 19.5 2.75V7.75C19.5 8.16421 19.1642 8.5 18.75 8.5C18.3358 8.5 18 8.16421 18 7.75V2.75C18 2.05964 17.4404 1.5 16.75 1.5H2.75C2.05964 1.5 1.5 2.05964 1.5 2.75V8.75C1.5 9.44036 2.05964 10 2.75 10H8.75C9.16421 10 9.5 10.3358 9.5 10.75ZM12.341 10.3408C12.6339 10.0479 13.1088 10.0479 13.4017 10.3408L14.9927 11.9318L16.5836 10.3408C16.8765 10.0479 17.3514 10.0479 17.6443 10.3408C17.9372 10.6337 17.9372 11.1085 17.6443 11.4014L16.0533 12.9924L17.6443 14.5834C17.9372 14.8763 17.9372 15.3512 17.6443 15.6441C17.3514 15.937 16.8765 15.937 16.5836 15.6441L14.9927 14.0531L13.4017 15.6441C13.1088 15.937 12.6339 15.937 12.341 15.6441C12.0481 15.3512 12.0481 14.8763 12.341 14.5834L13.932 12.9924L12.341 11.4014C12.0481 11.1085 12.0481 10.6337 12.341 10.3408ZM10.3175 6.25075C10.5946 5.94287 10.5696 5.46865 10.2617 5.19156C9.95385 4.91446 9.47963 4.93942 9.20254 5.24731L9.19254 5.25842C8.91544 5.5663 8.9404 6.04052 9.24828 6.31761C9.55616 6.59471 10.0304 6.56975 10.3075 6.26186L10.3175 6.25075ZM14.2617 5.19156C14.5696 5.46865 14.5946 5.94287 14.3175 6.25075L14.3075 6.26186C14.0304 6.56975 13.5562 6.59471 13.2483 6.31761C12.9404 6.04052 12.9154 5.5663 13.1925 5.25842L13.2025 5.24731C13.4796 4.93942 13.9538 4.91446 14.2617 5.19156ZM6.31748 6.25075C6.59457 5.94287 6.56961 5.46865 6.26173 5.19156C5.95385 4.91446 5.47963 4.93942 5.20254 5.24731L5.19254 5.25842C4.91544 5.5663 4.9404 6.04052 5.24828 6.31761C5.55616 6.59471 6.03038 6.56975 6.30748 6.26186L6.31748 6.25075Z" fill="#292927"/>
</g>
</svg>
