<svg preserveAspectRatio="xMidYMid meet" overflow="visible" style="display: block;" viewBox="0 0 24 24" fill="none" xmlns="http://www.w3.org/2000/svg">
<g transform="translate(1.4088, 2.2500)">
<path id="Vector" fill-rule="evenodd" clip-rule="evenodd" d="M3.15689 1.5L1.54943 7.12609C1.92478 7.16681 2.38619 7.20247 2.85675 7.20411C3.43128 7.20613 3.96885 7.15678 4.3706 7.03317C4.83723 6.88959 5.47393 6.54285 5.87545 6.30713L6.27605 1.5H3.15689ZM4.81172 8.46683C5.43273 8.27576 6.16834 7.87295 6.59117 7.6263C7.0097 7.87039 7.74681 8.2749 8.37058 8.46683C9.16363 8.71085 9.8674 8.84454 10.5911 8.84454C11.3149 8.84454 12.0187 8.71085 12.8117 8.46683C13.4355 8.2749 14.1726 7.87038 14.5911 7.6263C15.014 7.87294 15.7496 8.27575 16.3706 8.46683C16.9846 8.65576 17.6975 8.70632 18.3308 8.70411C18.504 8.7035 18.675 8.69889 18.8412 8.69143V16.75C18.8412 17.4404 18.2815 18 17.5912 18H3.59116C2.9008 18 2.34116 17.4404 2.34116 16.75V8.69143C2.50727 8.69889 2.67832 8.7035 2.8515 8.70411C3.48486 8.70632 4.19771 8.65576 4.81172 8.46683ZM0.841156 8.51356C0.203084 8.27149 -0.136433 7.56653 0.0516789 6.90814L1.74568 0.979127C1.91127 0.39957 2.44099 0 3.04374 0H6.40105H7.90626H13.2761H14.7812H18.1386C18.7413 0 19.271 0.399569 19.4366 0.979127L21.1306 6.90814C21.3188 7.56653 20.9792 8.2715 20.3412 8.51356V16.75C20.3412 18.2688 19.1099 19.5 17.5912 19.5H3.59116C2.07237 19.5 0.841156 18.2688 0.841156 16.75V8.51356ZM8.81171 7.03317C8.3739 6.89845 7.78363 6.58365 7.37724 6.3482L7.78126 1.5H13.401L13.8051 6.34819C13.3987 6.58365 12.8084 6.89845 12.3706 7.03317C11.6706 7.24854 11.1209 7.34454 10.5911 7.34454C10.0614 7.34454 9.51169 7.24854 8.81171 7.03317ZM14.9063 1.5L15.3069 6.30713C15.7084 6.54284 16.3451 6.88958 16.8117 7.03317C17.2135 7.15678 17.751 7.20613 18.3256 7.20411C18.7961 7.20247 19.2575 7.16681 19.6329 7.12609L18.0254 1.5H14.9063Z" fill="#292927"/>
</g>
</svg>
