<svg preserveAspectRatio="xMidYMid meet" overflow="visible" style="display: block;" viewBox="0 0 24 24" fill="none" xmlns="http://www.w3.org/2000/svg">
<g transform="translate(2.2500, 2.2500)">
<path id="Vector" fill-rule="evenodd" clip-rule="evenodd" d="M1.5 2.75C1.5 2.05964 2.05964 1.5 2.75 1.5H16.75C17.4404 1.5 18 2.05964 18 2.75V16.75C18 17.4404 17.4404 18 16.75 18H2.75C2.05964 18 1.5 17.4404 1.5 16.75V2.75ZM2.75 0C1.23122 0 0 1.23122 0 2.75V16.75C0 18.2688 1.23122 19.5 2.75 19.5H16.75C18.2688 19.5 19.5 18.2688 19.5 16.75V2.75C19.5 1.23122 18.2688 0 16.75 0H2.75ZM4.5 4.5H8V15H4.5V4.5ZM4.35 3C3.60442 3 3 3.60442 3 4.35V15.15C3 15.8956 3.60442 16.5 4.35 16.5H8.15C8.89558 16.5 9.5 15.8956 9.5 15.15V4.35C9.5 3.60442 8.89558 3 8.15 3H4.35ZM15 4.5H11.5V11H15V4.5ZM10 4.35C10 3.60442 10.6044 3 11.35 3H15.15C15.8956 3 16.5 3.60442 16.5 4.35V11.15C16.5 11.8956 15.8956 12.5 15.15 12.5H11.35C10.6044 12.5 10 11.8956 10 11.15V4.35Z" fill="#292927"/>
</g>
</svg>
