<svg preserveAspectRatio="xMidYMid meet" overflow="visible" style="display: block;" viewBox="0 0 24 24" fill="none" xmlns="http://www.w3.org/2000/svg">
<g transform="translate(2.2500, 1.2501)">
<path id="Vector" fill-rule="evenodd" clip-rule="evenodd" d="M10.2803 0.21967C9.98744 -0.0732233 9.51256 -0.0732233 9.21967 0.21967C8.36736 1.07198 7.5318 1.87726 6.73518 2.64501L6.73516 2.64502C5.24015 4.08585 3.88229 5.39451 2.80823 6.6338C1.14402 8.55404 0 10.4775 0 12.75C0 14.1472 0.425103 15.2813 1.1947 16.0787C1.96141 16.8732 3.00155 17.2623 4.09854 17.301C5.07766 17.3356 6.11802 17.0951 7.11383 16.5989L5.55882 19.5145C5.07922 20.4138 5.73085 21.4998 6.75 21.4998H12.75C13.7691 21.4998 14.4208 20.4138 13.9412 19.5145L12.3862 16.5989C13.382 17.0951 14.4223 17.3356 15.4015 17.301C16.4985 17.2623 17.5386 16.8732 18.3053 16.0787C19.0749 15.2813 19.5 14.1472 19.5 12.75C19.5 10.4775 18.356 8.55404 16.6918 6.6338C15.6177 5.39451 14.2598 4.08585 12.7648 2.64503L12.7648 2.64501L12.7648 2.645C11.9682 1.87725 11.1326 1.07198 10.2803 0.21967ZM1.5 12.75C1.5 11.0225 2.35598 9.44596 3.94177 7.6162C4.97413 6.42501 6.24818 5.19775 7.70473 3.79468L7.70474 3.79468C8.35216 3.17102 9.03565 2.51264 9.75 1.80724C10.4643 2.51264 11.1478 3.17102 11.7953 3.79468C13.2518 5.19775 14.5259 6.42501 15.5582 7.6162C17.144 9.44596 18 11.0225 18 12.75C18 13.8381 17.6751 14.5717 17.226 15.0371C16.7739 15.5055 16.1265 15.7745 15.3485 15.8019C13.7751 15.8575 11.7544 14.9045 10.374 12.834C10.2349 12.6253 10.0008 12.5 9.75 12.5C9.49924 12.5 9.26506 12.6253 9.12596 12.834C7.74558 14.9045 5.72487 15.8575 4.15146 15.8019C3.37345 15.7745 2.72609 15.5055 2.27405 15.0371C1.8249 14.5717 1.5 13.8381 1.5 12.75ZM7 19.9998L9.75 14.8436L12.5 19.9998H7Z" fill="#292927"/>
</g>
</svg>
