<svg preserveAspectRatio="xMidYMid meet" overflow="visible" style="display: block;" viewBox="0 0 24 24" fill="none" xmlns="http://www.w3.org/2000/svg">
<g transform="translate(1.2498, 7.7500)">
<path id="Vector" fill-rule="evenodd" clip-rule="evenodd" d="M0.0318278 0.534686C0.150851 0.137942 0.568964 -0.0871957 0.965709 0.0318278L4.1936 1.0002H17.3068L20.5347 0.0318283C20.9314 -0.0871961 21.3495 0.13794 21.4686 0.534685C21.5876 0.931429 21.3625 1.34954 20.9657 1.46857L17.6324 2.46857C17.5625 2.48954 17.4899 2.5002 17.4169 2.5002H4.08353C4.01053 2.5002 3.93793 2.48954 3.86802 2.46857L0.534686 1.46857C0.137942 1.34954 -0.0871957 0.931431 0.0318278 0.534686ZM3.0002 6.25C3.0002 5.0074 4.00754 4 5.2502 4C6.49285 4 7.5002 5.0074 7.5002 6.25C7.5002 7.4926 6.49285 8.5 5.2502 8.5C4.00754 8.5 3.0002 7.4926 3.0002 6.25ZM5.2502 5.5C4.83599 5.5 4.5002 5.8358 4.5002 6.25C4.5002 6.6642 4.83599 7 5.2502 7C5.6644 7 6.0002 6.6642 6.0002 6.25C6.0002 5.8358 5.6644 5.5 5.2502 5.5ZM16.2502 4C15.0076 4 14.0002 5.00739 14.0002 6.25C14.0002 7.49261 15.0076 8.5 16.2502 8.5C17.4928 8.5 18.5002 7.49261 18.5002 6.25C18.5002 5.00739 17.4928 4 16.2502 4ZM15.5002 6.25C15.5002 5.83581 15.836 5.5 16.2502 5.5C16.6644 5.5 17.0002 5.83581 17.0002 6.25C17.0002 6.66419 16.6644 7 16.2502 7C15.836 7 15.5002 6.66419 15.5002 6.25Z" fill="#292927"/>
</g>
</svg>
