<svg preserveAspectRatio="xMidYMid meet" overflow="visible" style="display: block;" viewBox="0 0 24 24" fill="none" xmlns="http://www.w3.org/2000/svg">
<g transform="translate(1.7500, 2.2500)">
<path id="Vector" fill-rule="evenodd" clip-rule="evenodd" d="M0.75 0C0.335786 0 0 0.335786 0 0.75C0 1.16421 0.335786 1.5 0.75 1.5H5.00001V3.74704L5 3.75L5.00001 3.75296V6H0.75C0.335786 6 0 6.33579 0 6.75C0 7.16421 0.335786 7.5 0.75 7.5H5.75001C6.16422 7.5 6.50001 7.16421 6.50001 6.75V4.5H12V9.75V15H6.50001V12.75C6.50001 12.3358 6.16422 12 5.75001 12H0.75C0.335786 12 0 12.3358 0 12.75C0 13.1642 0.335786 13.5 0.75 13.5H5.00001V15.747C5 15.748 5 15.749 5 15.75C5 15.751 5 15.752 5.00001 15.753V18H0.75C0.335786 18 0 18.3358 0 18.75C0 19.1642 0.335786 19.5 0.75 19.5H5.75001C6.16422 19.5 6.50001 19.1642 6.50001 18.75V16.5H12.75C13.1642 16.5 13.5 16.1642 13.5 15.75V10.5H19.75C20.1642 10.5 20.5 10.1642 20.5 9.75C20.5 9.33579 20.1642 9 19.75 9H13.5V3.75C13.5 3.33579 13.1642 3 12.75 3H6.50001V0.75C6.50001 0.335786 6.16422 0 5.75001 0H0.75Z" fill="#292927"/>
</g>
</svg>
