<svg preserveAspectRatio="xMidYMid meet" overflow="visible" style="display: block;" viewBox="0 0 24 24" fill="none" xmlns="http://www.w3.org/2000/svg">
<g transform="translate(2.2500, 5.2500)">
<path id="Vector" fill-rule="evenodd" clip-rule="evenodd" d="M0 0.75C0 0.335786 0.335786 0 0.75 0H18.75C19.1642 0 19.5 0.335786 19.5 0.75C19.5 1.16421 19.1642 1.5 18.75 1.5H0.75C0.335786 1.5 0 1.16421 0 0.75ZM4 6.75C4 6.33579 4.33579 6 4.75 6L14.75 6C15.1642 6 15.5 6.33579 15.5 6.75C15.5 7.16421 15.1642 7.5 14.75 7.5L4.75 7.5C4.33579 7.5 4 7.16421 4 6.75ZM8.75 12C8.33579 12 8 12.3358 8 12.75C8 13.1642 8.33579 13.5 8.75 13.5L10.75 13.5C11.1642 13.5 11.5 13.1642 11.5 12.75C11.5 12.3358 11.1642 12 10.75 12L8.75 12Z" fill="#292927"/>
</g>
</svg>
