<svg preserveAspectRatio="xMidYMid meet" overflow="visible" style="display: block;" viewBox="0 0 24 24" fill="none" xmlns="http://www.w3.org/2000/svg">
<g transform="translate(1.2500, 1.2500)">
<path id="Vector" fill-rule="evenodd" clip-rule="evenodd" d="M10.75 0C16.6871 0 21.5 4.81294 21.5 10.75C21.5 16.6871 16.6871 21.5 10.75 21.5C4.81294 21.5 0 16.6871 0 10.75C0 4.81294 4.81294 0 10.75 0ZM5.32423 16.0204C5.84094 17.3524 6.58246 18.3652 7.5642 18.862C7.44419 18.6193 7.33118 18.3645 7.22522 18.0996C6.45786 16.1812 6 13.5824 6 10.75C6 8.50938 6.28652 6.41495 6.78611 4.68789C5.20569 6.76504 4.5 9.19712 4.5 11.2501C4.5 12.7385 4.74098 14.5169 5.32423 16.0204ZM1.5 10.75C1.5 13.3355 2.56079 15.6733 4.2709 17.3518C4.14405 17.0939 4.0293 16.8298 3.92577 16.5629C3.25902 14.8442 3 12.8726 3 11.2501C3 8.39814 4.17328 4.95676 6.85116 2.35938C3.69081 3.83038 1.5 7.03435 1.5 10.75ZM10.75 20C11.0296 20 11.3719 19.8614 11.7621 19.4488C12.1538 19.0346 12.5411 18.3951 12.8821 17.5425C13.5624 15.8416 14 13.4404 14 10.75C14 8.05956 13.5624 5.65837 12.8821 3.95748C12.5411 3.10495 12.1538 2.46536 11.7621 2.05118C11.3719 1.63858 11.0296 1.5 10.75 1.5C10.4704 1.5 10.1281 1.63858 9.73794 2.05118C9.34624 2.46536 8.95894 3.10495 8.61793 3.95748C7.93757 5.65837 7.5 8.05956 7.5 10.75C7.5 13.4404 7.93757 15.8416 8.61793 17.5425C8.95894 18.3951 9.34624 19.0346 9.73794 19.4488C10.1281 19.8614 10.4704 20 10.75 20ZM14.6488 19.1406C17.8092 17.6696 20 14.4657 20 10.75C20 8.16448 18.9392 5.82672 17.2291 4.1482C17.356 4.40613 17.4707 4.67022 17.5742 4.93708C18.241 6.65584 18.5 8.62742 18.5 10.2499C18.5 13.1019 17.3267 16.5432 14.6488 19.1406ZM14.7139 16.8121C15.2135 15.085 15.5 12.9906 15.5 10.75C15.5 7.91759 15.0421 5.31878 14.2748 3.40039C14.1688 3.13547 14.0558 2.88068 13.9358 2.63803C14.9175 3.13477 15.6591 4.1476 16.1758 5.47958C16.759 6.98309 17 8.7615 17 10.2499C17 12.3029 16.2943 14.735 14.7139 16.8121Z" fill="#292927"/>
</g>
</svg>
