<svg preserveAspectRatio="xMidYMid meet" overflow="visible" style="display: block;" viewBox="0 0 24 24" fill="none" xmlns="http://www.w3.org/2000/svg">
<g transform="translate(6.2500, 2.2500)">
<path id="Vector" fill-rule="evenodd" clip-rule="evenodd" d="M6.28033 0.21967C5.98744 -0.0732233 5.51256 -0.0732233 5.21967 0.21967L0.21967 5.21967C-0.0732233 5.51256 -0.0732233 5.98744 0.21967 6.28033C0.512563 6.57322 0.987437 6.57322 1.28033 6.28033L5.75 1.81066L10.2197 6.28033C10.5126 6.57322 10.9874 6.57322 11.2803 6.28033C11.5732 5.98744 11.5732 5.51256 11.2803 5.21967L6.28033 0.21967ZM11.2803 14.2803L6.28033 19.2803C5.98744 19.5732 5.51256 19.5732 5.21967 19.2803L0.21967 14.2803C-0.0732233 13.9874 -0.0732233 13.5126 0.21967 13.2197C0.512563 12.9268 0.987437 12.9268 1.28033 13.2197L5.75 17.6893L10.2197 13.2197C10.5126 12.9268 10.9874 12.9268 11.2803 13.2197C11.5732 13.5126 11.5732 13.9874 11.2803 14.2803Z" fill="#292927"/>
</g>
</svg>
