<svg width="20" height="20" viewBox="0 0 19.5 19.5" fill="none" xmlns="http://www.w3.org/2000/svg">
<path fill-rule="evenodd" clip-rule="evenodd" d="M5.75 1.5C3.40279 1.5 1.5 3.40279 1.5 5.75V13.75C1.5 16.0972 3.40279 18 5.75 18H13.75C16.0972 18 18 16.0972 18 13.75V5.75C18 3.40279 16.0972 1.5 13.75 1.5H5.75ZM0 5.75C0 2.57436 2.57436 0 5.75 0H13.75C16.9256 0 19.5 2.57436 19.5 5.75V13.75C19.5 16.9256 16.9256 19.5 13.75 19.5H5.75C2.57436 19.5 0 16.9256 0 13.75V5.75ZM9.75 6.5C7.95507 6.5 6.5 7.95507 6.5 9.75C6.5 11.5449 7.95507 13 9.75 13C11.5449 13 13 11.5449 13 9.75C13 7.95507 11.5449 6.5 9.75 6.5ZM5 9.75C5 7.12665 7.12665 5 9.75 5C12.3734 5 14.5 7.12665 14.5 9.75C14.5 12.3734 12.3734 14.5 9.75 14.5C7.12665 14.5 5 12.3734 5 9.75ZM15.8175 4.75075C16.0946 4.44287 16.0696 3.96865 15.7617 3.69156C15.4538 3.41447 14.9796 3.43942 14.7025 3.74731L14.6925 3.75842C14.4154 4.0663 14.4404 4.54052 14.7483 4.81761C15.0562 5.09471 15.5304 5.06975 15.8075 4.76186L15.8175 4.75075Z" fill="#292927"/>
</svg>
