<svg preserveAspectRatio="xMidYMid meet" overflow="visible" style="display: block;" viewBox="0 0 24 24" fill="none" xmlns="http://www.w3.org/2000/svg">
<g transform="translate(1.2500, 1.4162)">
<path id="Vector" fill-rule="evenodd" clip-rule="evenodd" d="M12.1649 0.391895C11.294 -0.130631 10.206 -0.130632 9.33514 0.391894L1.33514 5.19189C0.506823 5.68888 0 6.58403 0 7.55V18.4176C0 19.9364 1.23122 21.1676 2.75 21.1676H18.75C20.2688 21.1676 21.5 19.9364 21.5 18.4176V7.55C21.5 6.58403 20.9932 5.68888 20.1649 5.19189L12.1649 0.391895ZM10.1069 1.67813C10.5027 1.44062 10.9973 1.44062 11.3931 1.67813L19.3931 6.47813C19.7696 6.70404 20 7.11092 20 7.55V18.4176C20 19.108 19.4404 19.6676 18.75 19.6676H2.75C2.05964 19.6676 1.5 19.108 1.5 18.4176V7.55C1.5 7.11092 1.73037 6.70404 2.10688 6.47813L10.1069 1.67813ZM6.1801 9.80354C5.84076 9.56601 5.37312 9.64853 5.13558 9.98787C4.89804 10.3272 4.98057 10.7949 5.31991 11.0324L10.3199 14.5324C10.5781 14.7132 10.9219 14.7132 11.1801 14.5324L16.1801 11.0324C16.5194 10.7949 16.602 10.3272 16.3644 9.98787C16.1269 9.64853 15.6592 9.56601 15.3199 9.80354L10.75 13.0025L6.1801 9.80354Z" fill="#292927"/>
</g>
</svg>
