<svg preserveAspectRatio="xMidYMid meet" overflow="visible" style="display: block;" viewBox="0 0 24 24" fill="none" xmlns="http://www.w3.org/2000/svg">
<g transform="translate(1.2500, 1.2500)">
<path id="Vector" fill-rule="evenodd" clip-rule="evenodd" d="M3.99128 4.43472C2.44592 6.08789 1.5 8.30848 1.5 10.75C1.5 13.1678 2.42759 15.3689 3.94632 17.0168C5.91968 12.5298 5.91003 8.24648 3.99128 4.43472ZM3.68252 2.6496C1.42576 4.62022 0 7.51861 0 10.75C0 13.9742 1.41939 16.8668 3.6674 18.8372C3.67871 18.8477 3.6904 18.8579 3.70245 18.8678C5.58949 20.5074 8.05383 21.5 10.75 21.5C13.4465 21.5 15.911 20.5072 17.7982 18.8672C17.8098 18.8577 17.821 18.8479 17.832 18.8377C20.0803 16.8674 21.5 13.9745 21.5 10.75C21.5 4.81294 16.6871 0 10.75 0C8.04615 0 5.57546 0.998232 3.68634 2.64626C3.68506 2.64737 3.68379 2.64848 3.68252 2.6496ZM5.14082 3.39415C7.54898 7.88244 7.50943 12.9403 5.11012 18.0823C6.6712 19.2848 8.62708 20 10.75 20C12.8729 20 14.8288 19.2849 16.3899 18.0823C13.9905 12.9403 13.951 7.88243 16.3592 3.39413C14.8032 2.20582 12.859 1.5 10.75 1.5C8.64097 1.5 6.6968 2.20583 5.14082 3.39415ZM17.5087 4.4347C15.5899 8.24646 15.5803 12.5298 17.5537 17.0169C19.0724 15.3689 20 13.1678 20 10.75C20 8.30847 19.0541 6.08787 17.5087 4.4347Z" fill="#292927"/>
</g>
</svg>
