<svg preserveAspectRatio="xMidYMid meet" overflow="visible" style="display: block;" viewBox="0 0 24 24" fill="none" xmlns="http://www.w3.org/2000/svg">
<g transform="translate(1.2500, 1.2500)">
<path id="Vector" fill-rule="evenodd" clip-rule="evenodd" d="M1.5 10.75C1.5 5.64137 5.64137 1.5 10.75 1.5C15.8586 1.5 20 5.64137 20 10.75C20 15.8586 15.8586 20 10.75 20C5.64137 20 1.5 15.8586 1.5 10.75ZM10.75 0C4.81294 0 0 4.81294 0 10.75C0 16.6871 4.81294 21.5 10.75 21.5C16.6871 21.5 21.5 16.6871 21.5 10.75C21.5 4.81294 16.6871 0 10.75 0ZM11.5 4.75C11.5 4.33579 11.1642 4 10.75 4C10.3358 4 10 4.33579 10 4.75V16.75C10 17.1642 10.3358 17.5 10.75 17.5C11.1642 17.5 11.5 17.1642 11.5 16.75V4.75ZM8.5 7.75C8.5 7.33579 8.16421 7 7.75 7C7.33579 7 7 7.33579 7 7.75L7 13.75C7 14.1642 7.33579 14.5 7.75 14.5C8.16421 14.5 8.5 14.1642 8.5 13.75L8.5 7.75ZM16.75 9C17.1642 9 17.5 9.33579 17.5 9.75V11.75C17.5 12.1642 17.1642 12.5 16.75 12.5C16.3358 12.5 16 12.1642 16 11.75V9.75C16 9.33579 16.3358 9 16.75 9ZM5.5 9.75C5.5 9.33579 5.16421 9 4.75 9C4.33579 9 4 9.33579 4 9.75L4 11.75C4 12.1642 4.33579 12.5 4.75 12.5C5.16421 12.5 5.5 12.1642 5.5 11.75L5.5 9.75ZM13.75 5C14.1642 5 14.5 5.33579 14.5 5.75V15.75C14.5 16.1642 14.1642 16.5 13.75 16.5C13.3358 16.5 13 16.1642 13 15.75V5.75C13 5.33579 13.3358 5 13.75 5Z" fill="#292927"/>
</g>
</svg>
