<svg preserveAspectRatio="xMidYMid meet" overflow="visible" style="display: block;" viewBox="0 0 24 24" fill="none" xmlns="http://www.w3.org/2000/svg">
<g transform="translate(1.2500, 1.2500)">
<path id="Vector" fill-rule="evenodd" clip-rule="evenodd" d="M1.5 10.75C1.5 5.64137 5.64137 1.5 10.75 1.5C14.121 1.5 17.0721 3.30329 18.6891 6H15.75C15.3358 6 15 6.33579 15 6.75C15 7.16421 15.3358 7.5 15.75 7.5H19.9015C19.9127 7.50025 19.9239 7.50025 19.9351 7.5H20.15C20.8956 7.5 21.5 6.89558 21.5 6.15V1.75C21.5 1.33579 21.1642 1 20.75 1C20.3358 1 20 1.33579 20 1.75V5.26979C18.1274 2.11569 14.6864 0 10.75 0C4.81294 0 0 4.81294 0 10.75C0 16.6871 4.81294 21.5 10.75 21.5C16.1397 21.5 20.6018 17.5343 21.3799 12.3616C21.4415 11.952 21.1594 11.57 20.7498 11.5083C20.3402 11.4467 19.9582 11.7288 19.8966 12.1384C19.2272 16.5882 15.3864 20 10.75 20C5.64137 20 1.5 15.8586 1.5 10.75Z" fill="#292927"/>
</g>
</svg>
