<svg preserveAspectRatio="xMidYMid meet" overflow="visible" style="display: block;" viewBox="0 0 24 24" fill="none" xmlns="http://www.w3.org/2000/svg">
<g transform="translate(3.7500, 0.7500)">
<path id="Vector" fill-rule="evenodd" clip-rule="evenodd" d="M10.25 0C10.6642 0 11 0.335786 11 0.75V2.5H12.65C13.3956 2.5 14 3.10442 14 3.85V5H15.75C16.1642 5 16.5 5.33579 16.5 5.75C16.5 6.16421 16.1642 6.5 15.75 6.5H14V10.5H15.75C16.1642 10.5 16.5 10.8358 16.5 11.25C16.5 11.6642 16.1642 12 15.75 12H14V16H15.75C16.1642 16 16.5 16.3358 16.5 16.75C16.5 17.1642 16.1642 17.5 15.75 17.5H14V18.65C14 19.3956 13.3956 20 12.65 20H11V21.75C11 22.1642 10.6642 22.5 10.25 22.5C9.83579 22.5 9.5 22.1642 9.5 21.75V20H7V21.75C7 22.1642 6.66421 22.5 6.25 22.5C5.83579 22.5 5.5 22.1642 5.5 21.75V20H3.85C3.10441 20 2.5 19.3956 2.5 18.65V17.5H0.75C0.335786 17.5 0 17.1642 0 16.75C0 16.3358 0.335786 16 0.75 16H2.5V12H0.75C0.335786 12 0 11.6642 0 11.25C0 10.8358 0.335786 10.5 0.75 10.5H2.5V6.5H0.75C0.335786 6.5 0 6.16421 0 5.75C0 5.33579 0.335786 5 0.75 5H2.5V3.85C2.5 3.10441 3.10442 2.5 3.85 2.5H5.5V0.75C5.5 0.335786 5.83579 0 6.25 0C6.66421 0 7 0.335786 7 0.75V2.5H9.5V0.75C9.5 0.335786 9.83579 0 10.25 0ZM12.5 16.75V11.25V5.75V4H10.25H6.25H4V5.75V11.25V16.75V18.5H6.25H10.25H12.5V16.75Z" fill="#292927"/>
</g>
</svg>
