<svg preserveAspectRatio="xMidYMid meet" overflow="visible" style="display: block;" viewBox="0 0 24 24" fill="none" xmlns="http://www.w3.org/2000/svg">
<g transform="translate(1.2500, 2.2500)">
<path id="Vector" fill-rule="evenodd" clip-rule="evenodd" d="M1.5 4.75C1.5 2.95507 2.95507 1.5 4.75 1.5H8.5V18H4.75C2.95507 18 1.5 16.5449 1.5 14.75V4.75ZM4.75 0C2.12665 0 0 2.12665 0 4.75V14.75C0 17.3734 2.12665 19.5 4.75 19.5H8.65C9.39558 19.5 10 18.8956 10 18.15V1.35C10 0.604417 9.39558 0 8.65 0H4.75ZM3.5 4.75C3.5 5.7165 4.2835 6.5 5.25 6.5C6.2165 6.5 7 5.7165 7 4.75C7 3.7835 6.2165 3 5.25 3C4.2835 3 3.5 3.7835 3.5 4.75ZM14.5 10.75C14.5 11.7165 15.2835 12.5 16.25 12.5C17.2165 12.5 18 11.7165 18 10.75C18 9.7835 17.2165 9 16.25 9C15.2835 9 14.5 9.7835 14.5 10.75ZM20 4.75C20 2.95507 18.5449 1.5 16.75 1.5H13V18H16.75C18.5449 18 20 16.5449 20 14.75V4.75ZM16.75 0C19.3734 0 21.5 2.12665 21.5 4.75V14.75C21.5 17.3734 19.3734 19.5 16.75 19.5H12.85C12.1044 19.5 11.5 18.8956 11.5 18.15V1.35C11.5 0.604417 12.1044 0 12.85 0H16.75Z" fill="#292927"/>
</g>
</svg>
