<svg preserveAspectRatio="xMidYMid meet" overflow="visible" style="display: block;" viewBox="0 0 24 24" fill="none" xmlns="http://www.w3.org/2000/svg">
<g transform="translate(2.2500, 2.2500)">
<path id="Vector" fill-rule="evenodd" clip-rule="evenodd" d="M2.75 0C1.23122 0 0 1.23122 0 2.75V4.75C0 5.16421 0.335786 5.5 0.75 5.5C1.16421 5.5 1.5 5.16421 1.5 4.75V2.75C1.5 2.05964 2.05964 1.5 2.75 1.5H4.75C5.16421 1.5 5.5 1.16421 5.5 0.75C5.5 0.335786 5.16421 0 4.75 0H2.75ZM16.75 0C18.2688 0 19.5 1.23122 19.5 2.75V4.75C19.5 5.16421 19.1642 5.5 18.75 5.5C18.3358 5.5 18 5.16421 18 4.75V2.75C18 2.05964 17.4404 1.5 16.75 1.5H14.75C14.3358 1.5 14 1.16421 14 0.75C14 0.335786 14.3358 0 14.75 0H16.75ZM13.75 5C14.1642 5 14.5 5.33579 14.5 5.75L14.5 7.75C14.5 8.16421 14.1642 8.5 13.75 8.5C13.3358 8.5 13 8.16421 13 7.75L13 5.75C13 5.33579 13.3358 5 13.75 5ZM6.5 5.75C6.5 5.33579 6.16421 5 5.75 5C5.33579 5 5 5.33579 5 5.75L5 7.75C5 8.16421 5.33579 8.5 5.75 8.5C6.16421 8.5 6.5 8.16421 6.5 7.75L6.5 5.75ZM7.27478 13.2142C6.98147 12.9268 6.51072 12.9286 6.21967 13.2197C5.92678 13.5126 5.92678 13.9874 6.21967 14.2803L6.74515 13.7549C6.21967 14.2803 6.21993 14.2806 6.2202 14.2809L6.22075 14.2814L6.22194 14.2826L6.22459 14.2852L6.23108 14.2915L6.24876 14.3084C6.26264 14.3214 6.28071 14.3379 6.303 14.3574C6.34754 14.3964 6.40903 14.4474 6.4875 14.5063C6.64435 14.6239 6.86996 14.7735 7.16459 14.9208C7.75631 15.2167 8.62043 15.5 9.75 15.5C10.8796 15.5 11.7437 15.2167 12.3354 14.9208C12.63 14.7735 12.8557 14.6239 13.0125 14.5063C13.091 14.4474 13.1525 14.3964 13.197 14.3574C13.2193 14.3379 13.2374 14.3214 13.2512 14.3084L13.2689 14.2915L13.2754 14.2852L13.2781 14.2826L13.2792 14.2814L13.2798 14.2809C13.2801 14.2806 13.2803 14.2803 12.75 13.75L13.2803 14.2803C13.5732 13.9874 13.5732 13.5126 13.2803 13.2197C12.9893 12.9286 12.5185 12.9268 12.2252 13.2142C12.2233 13.2159 12.218 13.2209 12.2092 13.2285C12.1913 13.2442 12.159 13.2714 12.1125 13.3062C12.0193 13.3761 11.87 13.4765 11.6646 13.5792C11.2563 13.7833 10.6204 14 9.75 14C8.87957 14 8.24369 13.7833 7.83541 13.5792C7.63004 13.4765 7.48065 13.3761 7.3875 13.3062C7.34097 13.2714 7.30871 13.2442 7.29075 13.2285L7.27901 13.2181L7.27478 13.2142ZM10.5 5.75C10.5 5.33579 10.1642 5 9.75001 5C9.3358 5 9.00001 5.33579 9.00001 5.75V10H8.75C8.33579 10 8 10.3358 8 10.75C8 11.1642 8.33579 11.5 8.75 11.5H9.75001C9.94892 11.5 10.1397 11.421 10.2803 11.2803C10.421 11.1397 10.5 10.9489 10.5 10.75V5.75ZM0 16.75C0 18.2688 1.23122 19.5 2.75 19.5H4.75C5.16421 19.5 5.5 19.1642 5.5 18.75C5.5 18.3358 5.16421 18 4.75 18H2.75C2.05964 18 1.5 17.4404 1.5 16.75V14.75C1.5 14.3358 1.16421 14 0.75 14C0.335786 14 0 14.3358 0 14.75V16.75ZM16.75 19.5C18.2688 19.5 19.5 18.2688 19.5 16.75V14.75C19.5 14.3358 19.1642 14 18.75 14C18.3358 14 18 14.3358 18 14.75V16.75C18 17.4404 17.4404 18 16.75 18H14.75C14.3358 18 14 18.3358 14 18.75C14 19.1642 14.3358 19.5 14.75 19.5H16.75Z" fill="#292927"/>
</g>
</svg>
