<svg preserveAspectRatio="xMidYMid meet" overflow="visible" style="display: block;" viewBox="0 0 24 24" fill="none" xmlns="http://www.w3.org/2000/svg">
<g transform="translate(4.2500, 5.0644)">
<path id="Vector" fill-rule="evenodd" clip-rule="evenodd" d="M7.55267 1.59652C7.65276 1.46783 7.84725 1.46783 7.94734 1.59651L13.2165 8.37118H2.28349L7.55267 1.59652ZM9.13137 0.675603C8.43074 -0.225203 7.06926 -0.225199 6.36864 0.675605L0.157992 8.66072C-0.0178718 8.88683 -0.049583 9.19337 0.0762694 9.45069C0.202122 9.70801 0.463556 9.87118 0.750006 9.87118H14.75C15.0365 9.87118 15.2979 9.70801 15.4237 9.45069C15.5496 9.19337 15.5179 8.88683 15.342 8.66072L9.13137 0.675603ZM0.75 12.3711C0.335786 12.3711 0 12.7069 0 13.1211C0 13.5353 0.335786 13.8711 0.75 13.8711H14.75C15.1642 13.8711 15.5 13.5353 15.5 13.1211C15.5 12.7069 15.1642 12.3711 14.75 12.3711H0.75Z" fill="#292927"/>
</g>
</svg>
