<svg preserveAspectRatio="xMidYMid meet" overflow="visible" style="display: block;" viewBox="0 0 24 24" fill="none" xmlns="http://www.w3.org/2000/svg">
<g transform="translate(1.7500, 0.7500)">
<path id="Vector" fill-rule="evenodd" clip-rule="evenodd" d="M10.513 10.5C10.6002 7.99199 11.1206 5.76696 11.8916 4.14783C12.7653 2.31308 13.8257 1.5 14.75 1.5C15.6743 1.5 16.7347 2.31308 17.6084 4.14783C18.4554 5.92665 19 8.43677 19 11.25C19 14.0632 18.4554 16.5734 17.6084 18.3522C16.7347 20.1869 15.6743 21 14.75 21C13.8257 21 12.7653 20.1869 11.8916 18.3522C11.1206 16.733 10.6002 14.508 10.513 12H13.9394L13.2197 12.7197C12.9268 13.0126 12.9268 13.4874 13.2197 13.7803C13.5126 14.0732 13.9875 14.0732 14.2804 13.7803L16.2804 11.7803C16.5732 11.4874 16.5732 11.0126 16.2804 10.7197L14.2804 8.71967C13.9875 8.42678 13.5126 8.42678 13.2197 8.71967C12.9268 9.01256 12.9268 9.48744 13.2197 9.78033L13.9394 10.5H10.513ZM9.01215 10.5C9.09971 7.80714 9.65592 5.35386 10.5373 3.50293C11.4733 1.53742 12.9128 0 14.75 0C16.5872 0 18.0267 1.53742 18.9627 3.50293C19.9253 5.52436 20.5 8.26423 20.5 11.25C20.5 14.2358 19.9253 16.9756 18.9627 18.9971C18.0267 20.9626 16.5872 22.5 14.75 22.5C12.9128 22.5 11.4733 20.9626 10.5373 18.9971C9.65592 17.1461 9.09971 14.6929 9.01215 12H7.06068L5.28035 13.7803C5.1397 13.921 4.94893 14 4.75002 14H0.750022C0.446675 14 0.173198 13.8173 0.0571123 13.537C-0.0589735 13.2568 0.00519335 12.9342 0.219692 12.7197L1.68936 11.25L0.219692 9.78033C0.00519335 9.56583 -0.0589735 9.24324 0.0571123 8.96299C0.173198 8.68273 0.446675 8.5 0.750022 8.5H4.75002C4.94893 8.5 5.1397 8.57902 5.28035 8.71967L7.06068 10.5H9.01215ZM4.43936 10L5.68936 11.25L4.43936 12.5H2.56068L3.28035 11.7803C3.57325 11.4874 3.57325 11.0126 3.28035 10.7197L2.56068 10H4.43936Z" fill="#292927"/>
</g>
</svg>
