<svg preserveAspectRatio="xMidYMid meet" overflow="visible" style="display: block;" viewBox="0 0 24 24" fill="none" xmlns="http://www.w3.org/2000/svg">
<g transform="translate(3.2500, 2.2500)">
<path id="Vector" fill-rule="evenodd" clip-rule="evenodd" d="M0 0.75C0 0.335786 0.335786 0 0.75 0H5.75C6.16421 0 6.5 0.335786 6.5 0.75C6.5 1.16421 6.16421 1.5 5.75 1.5H1.5V3.75C1.5 4.16421 1.16421 4.5 0.75 4.5C0.335786 4.5 0 4.16421 0 3.75V0.75ZM9.5 5.75C9.5 5.33579 9.16421 5 8.75 5C8.33579 5 8 5.33579 8 5.75V9.75C8 10.1642 8.33579 10.5 8.75 10.5C9.16421 10.5 9.5 10.1642 9.5 9.75V5.75ZM9.31748 14.2508C9.59457 13.9429 9.56961 13.4687 9.26173 13.1916C8.95385 12.9145 8.47963 12.9394 8.20254 13.2473L8.19254 13.2584C7.91544 13.5663 7.9404 14.0405 8.24828 14.3176C8.55616 14.5947 9.03038 14.5697 9.30748 14.2619L9.31748 14.2508ZM1.5 8.75C1.5 8.33579 1.16421 8 0.75 8C0.335786 8 0 8.33579 0 8.75V10.75C0 11.1642 0.335786 11.5 0.75 11.5C1.16421 11.5 1.5 11.1642 1.5 10.75V8.75ZM16.75 8C17.1642 8 17.5 8.33579 17.5 8.75V10.75C17.5 11.1642 17.1642 11.5 16.75 11.5C16.3358 11.5 16 11.1642 16 10.75V8.75C16 8.33579 16.3358 8 16.75 8ZM16.75 0C17.1642 0 17.5 0.335786 17.5 0.75V3.75C17.5 4.16421 17.1642 4.5 16.75 4.5C16.3358 4.5 16 4.16421 16 3.75V1.5H11.75C11.3358 1.5 11 1.16421 11 0.75C11 0.335786 11.3358 0 11.75 0H16.75ZM0 18.75C0 19.1642 0.335786 19.5 0.75 19.5H5.75C6.16421 19.5 6.5 19.1642 6.5 18.75C6.5 18.3358 6.16421 18 5.75 18H1.5V15.75C1.5 15.3358 1.16421 15 0.75 15C0.335786 15 0 15.3358 0 15.75V18.75ZM16.75 19.5C17.1642 19.5 17.5 19.1642 17.5 18.75V15.75C17.5 15.3358 17.1642 15 16.75 15C16.3358 15 16 15.3358 16 15.75V18H11.75C11.3358 18 11 18.3358 11 18.75C11 19.1642 11.3358 19.5 11.75 19.5H16.75Z" fill="#292927"/>
</g>
</svg>
