<svg preserveAspectRatio="xMidYMid meet" overflow="visible" style="display: block;" viewBox="0 0 24 24" fill="none" xmlns="http://www.w3.org/2000/svg">
<g transform="translate(3.2450, 3.2500)">
<path id="Vector" fill-rule="evenodd" clip-rule="evenodd" d="M17.51 16.75C17.51 17.1642 17.1742 17.5 16.76 17.5C16.3458 17.5 16.01 17.1642 16.01 16.75V1.5H0.760025C0.345812 1.5 0.010025 1.16421 0.010025 0.75C0.010025 0.335787 0.345812 0 0.760025 0H16.76C17.1742 0 17.51 0.335787 17.51 0.75V16.75ZM0.259394 4.18252C0.567276 3.90543 1.04149 3.93039 1.31859 4.23827C1.59568 4.54615 1.57072 5.02037 1.26284 5.29746L1.25173 5.30746C0.943848 5.58456 0.469631 5.5596 0.192536 5.25172C-0.0845583 4.94384 -0.0595998 4.46962 0.248283 4.19252L0.259394 4.18252ZM1.31859 8.23827C1.04149 7.93039 0.567276 7.90543 0.259394 8.18252L0.248283 8.19252C-0.0595998 8.46962 -0.0845583 8.94384 0.192536 9.25172C0.469631 9.5596 0.943848 9.58456 1.25173 9.30746L1.26284 9.29746C1.57072 9.02037 1.59568 8.54615 1.31859 8.23827ZM0.259394 12.1825C0.567276 11.9054 1.04149 11.9304 1.31859 12.2383C1.59568 12.5462 1.57072 13.0204 1.26284 13.2975L1.25173 13.3075C0.943848 13.5846 0.469631 13.5596 0.192536 13.2517C-0.0845583 12.9438 -0.0595998 12.4696 0.248283 12.1925L0.259394 12.1825ZM1.31859 16.2383C1.04149 15.9304 0.567276 15.9054 0.259394 16.1825L0.248283 16.1925C-0.0595998 16.4696 -0.0845583 16.9438 0.192536 17.2517C0.469631 17.5596 0.943848 17.5846 1.25173 17.3075L1.26284 17.2975C1.57072 17.0204 1.59568 16.5462 1.31859 16.2383ZM12.2594 16.1825C12.5673 15.9054 13.0415 15.9304 13.3186 16.2383C13.5957 16.5462 13.5707 17.0204 13.2628 17.2975L13.2517 17.3075C12.9438 17.5846 12.4696 17.5596 12.1925 17.2517C11.9154 16.9438 11.9404 16.4696 12.2483 16.1925L12.2594 16.1825ZM9.31859 16.2383C9.04149 15.9304 8.56728 15.9054 8.25939 16.1825L8.24828 16.1925C7.9404 16.4696 7.91544 16.9438 8.19254 17.2517C8.46963 17.5596 8.94385 17.5846 9.25173 17.3075L9.26284 17.2975C9.57072 17.0204 9.59568 16.5462 9.31859 16.2383ZM4.25939 16.1825C4.56728 15.9054 5.04149 15.9304 5.31859 16.2383C5.59568 16.5462 5.57072 17.0204 5.26284 17.2975L5.25173 17.3075C4.94385 17.5846 4.46963 17.5596 4.19254 17.2517C3.91544 16.9438 3.9404 16.4696 4.24828 16.1925L4.25939 16.1825Z" fill="#292927"/>
</g>
</svg>
