<svg preserveAspectRatio="xMidYMid meet" overflow="visible" style="display: block;" viewBox="0 0 24 24" fill="none" xmlns="http://www.w3.org/2000/svg">
<g transform="translate(2.2450, 2.2447)">
<path id="Vector" fill-rule="evenodd" clip-rule="evenodd" d="M0.192536 0.259394C-0.0845583 0.567276 -0.0595998 1.04149 0.248283 1.31859C0.556165 1.59568 1.03038 1.57072 1.30748 1.26284L1.31748 1.25173C1.59457 0.943848 1.56961 0.469631 1.26173 0.192536C0.953848 -0.0845583 0.479631 -0.0595998 0.202536 0.248283L0.192536 0.259394ZM4.24828 1.31859C3.9404 1.04149 3.91544 0.567276 4.19254 0.259394L4.20254 0.248283C4.47963 -0.0595998 4.95385 -0.0845583 5.26173 0.192536C5.56961 0.469631 5.59457 0.943848 5.31748 1.25173L5.30748 1.26284C5.03038 1.57072 4.55617 1.59568 4.24828 1.31859ZM8.19254 0.259394C7.91544 0.567276 7.9404 1.04149 8.24828 1.31859C8.55616 1.59568 9.03038 1.57072 9.30748 1.26284L9.31748 1.25173C9.59457 0.943848 9.56961 0.469631 9.26173 0.192536C8.95385 -0.0845583 8.47963 -0.0595998 8.20254 0.248283L8.19254 0.259394ZM12.1925 0.259394C11.9154 0.567276 11.9404 1.04149 12.2483 1.31859C12.5562 1.59568 13.0304 1.57072 13.3075 1.26284L13.3175 1.25173C13.5946 0.943848 13.5696 0.469631 13.2617 0.192536C12.9538 -0.0845583 12.4796 -0.0595998 12.2025 0.248283L12.1925 0.259394ZM0.248283 5.31859C-0.0595998 5.04149 -0.0845583 4.56728 0.192536 4.25939L0.202536 4.24828C0.479631 3.9404 0.953848 3.91544 1.26173 4.19254C1.56961 4.46963 1.59457 4.94385 1.31748 5.25173L1.30748 5.26284C1.03038 5.57072 0.556165 5.59568 0.248283 5.31859ZM0.192536 8.25939C-0.0845583 8.56728 -0.0595998 9.04149 0.248283 9.31859C0.556165 9.59568 1.03038 9.57072 1.30748 9.26284L1.31748 9.25173C1.59457 8.94385 1.56961 8.46963 1.26173 8.19254C0.953848 7.91544 0.479631 7.9404 0.202536 8.24828L0.192536 8.25939ZM0.248283 13.3186C-0.0595998 13.0415 -0.0845583 12.5673 0.192536 12.2594L0.202536 12.2483C0.479631 11.9404 0.953848 11.9154 1.26173 12.1925C1.56961 12.4696 1.59457 12.9438 1.31748 13.2517L1.30748 13.2628C1.03038 13.5707 0.556165 13.5957 0.248283 13.3186ZM7.31748 19.2511C7.59457 18.9433 7.56962 18.469 7.26173 18.1919C6.95385 17.9148 6.47963 17.9398 6.20254 18.2477L6.19254 18.2588C5.91544 18.5667 5.9404 19.0409 6.24829 19.318C6.55617 19.5951 7.03039 19.5701 7.30748 19.2622L7.31748 19.2511ZM11.2617 18.1919C11.5696 18.469 11.5946 18.9433 11.3175 19.2511L11.3075 19.2622C11.0304 19.5701 10.5562 19.5951 10.2483 19.318C9.9404 19.0409 9.91544 18.5667 10.1925 18.2588L10.2025 18.2477C10.4796 17.9398 10.9539 17.9148 11.2617 18.1919ZM15.3175 19.2511C15.5946 18.9433 15.5696 18.469 15.2617 18.1919C14.9539 17.9148 14.4796 17.9398 14.2025 18.2477L14.1925 18.2588C13.9154 18.5667 13.9404 19.0409 14.2483 19.318C14.5562 19.5951 15.0304 19.5701 15.3075 19.2622L15.3175 19.2511ZM19.2617 18.1919C19.5696 18.469 19.5946 18.9433 19.3175 19.2511L19.3075 19.2622C19.0304 19.5701 18.5562 19.5951 18.2483 19.318C17.9404 19.0409 17.9154 18.5667 18.1925 18.2588L18.2025 18.2477C18.4796 17.9398 18.9539 17.9148 19.2617 18.1919ZM19.3175 15.2511C19.5946 14.9433 19.5696 14.469 19.2617 14.1919C18.9539 13.9148 18.4796 13.9398 18.2025 14.2477L18.1925 14.2588C17.9154 14.5667 17.9404 15.0409 18.2483 15.318C18.5562 15.5951 19.0304 15.5701 19.3075 15.2622L19.3175 15.2511ZM19.2617 10.1919C19.5696 10.469 19.5946 10.9433 19.3175 11.2511L19.3075 11.2622C19.0304 11.5701 18.5562 11.5951 18.2483 11.318C17.9404 11.0409 17.9154 10.5667 18.1925 10.2588L18.2025 10.2477C18.4796 9.93981 18.9539 9.91485 19.2617 10.1919ZM19.3175 7.25114C19.5946 6.94325 19.5696 6.46904 19.2617 6.19194C18.9539 5.91485 18.4796 5.93981 18.2025 6.24769L18.1925 6.2588C17.9154 6.56668 17.9404 7.0409 18.2483 7.31799C18.5562 7.59509 19.0304 7.57013 19.3075 7.26225L19.3175 7.25114ZM12.0002 7.50038H7.75025C7.61218 7.50038 7.50025 7.61231 7.50025 7.75038V12.0004H11.7502C11.8883 12.0004 12.0002 11.8885 12.0002 11.7504V7.50038ZM13.5002 7.50038V11.7504C13.5002 12.7169 12.7167 13.5004 11.7502 13.5004H7.50025V14.7504C7.50025 15.1646 7.16446 15.5004 6.75025 15.5004C6.33603 15.5004 6.00025 15.1646 6.00025 14.7504V13.5004H4.75025C4.33604 13.5004 4.00025 13.1646 4.00025 12.7504C4.00025 12.3362 4.33604 12.0004 4.75025 12.0004H6.00025V7.75038C6.00025 6.78388 6.78375 6.00038 7.75025 6.00038H12.0002V4.75038C12.0002 4.33617 12.336 4.00038 12.7502 4.00038C13.1645 4.00038 13.5002 4.33617 13.5002 4.75038V6.00038H14.7502C15.1645 6.00038 15.5002 6.33617 15.5002 6.75038C15.5002 7.1646 15.1645 7.50038 14.7502 7.50038H13.5002Z" fill="#292927"/>
</g>
</svg>
