<svg preserveAspectRatio="xMidYMid meet" overflow="visible" style="display: block;" viewBox="0 0 24 24" fill="none" xmlns="http://www.w3.org/2000/svg">
<g transform="translate(1.2500, 1.2500)">
<path id="Vector" fill-rule="evenodd" clip-rule="evenodd" d="M1.5 10.75C1.5 5.64137 5.64137 1.5 10.75 1.5C15.8586 1.5 20 5.64137 20 10.75C20 11.5268 19.9044 12.2804 19.7246 13H15.75C15.3358 13 15 13.3358 15 13.75C15 14.1642 15.3358 14.5 15.75 14.5H19.2085C17.7696 17.7408 14.5228 20 10.75 20C5.64137 20 1.5 15.8586 1.5 10.75ZM10.75 0C4.81294 0 0 4.81294 0 10.75C0 16.6871 4.81294 21.5 10.75 21.5C15.5646 21.5 19.6381 18.3354 21.0077 13.9747C21.3278 12.9558 21.5 11.8723 21.5 10.75C21.5 4.81294 16.6871 0 10.75 0ZM13 7.25C13 6.55964 13.5596 6 14.25 6C14.9404 6 15.5 6.55964 15.5 7.25C15.5 7.94036 14.9404 8.5 14.25 8.5C13.5596 8.5 13 7.94036 13 7.25Z" fill="#292927"/>
</g>
</svg>
