<svg preserveAspectRatio="xMidYMid meet" overflow="visible" style="display: block;" viewBox="0 0 24 24" fill="none" xmlns="http://www.w3.org/2000/svg">
<g transform="translate(2.2500, 2.2500)">
<path id="Vector" fill-rule="evenodd" clip-rule="evenodd" d="M1.5 18V1.5H18V18H1.5ZM1.35 0C0.604417 0 0 0.604415 0 1.35V18.15C0 18.8956 0.604415 19.5 1.35 19.5H18.15C18.8956 19.5 19.5 18.8956 19.5 18.15V1.35C19.5 0.604417 18.8956 0 18.15 0H1.35ZM8 8.15C8 7.21073 8.72485 6.5 9.55769 6.5C10.3905 6.5 11.1154 7.21073 11.1154 8.15C11.1154 8.47132 11.0293 8.76781 10.8824 9.01832C10.42 9.80703 9.42821 10.8282 8.48775 11.6941C8.02893 12.1165 7.60143 12.4848 7.28856 12.7476C7.1323 12.8789 7.00509 12.9834 6.91743 13.0547C6.8736 13.0904 6.83969 13.1177 6.81701 13.1359L6.79158 13.1563L6.7855 13.1611L6.78393 13.1624C6.53395 13.3607 6.43677 13.6954 6.54174 13.9967C6.64672 14.2981 6.93089 14.5 7.25 14.5H12.25C12.6642 14.5 13 14.1642 13 13.75C13 13.3358 12.6642 13 12.25 13H9.2819C9.3548 12.9341 9.42885 12.8665 9.50374 12.7976C10.4404 11.9353 11.5883 10.7802 12.1765 9.77696C12.4559 9.30036 12.6154 8.74259 12.6154 8.15C12.6154 6.4383 11.2739 5 9.55769 5C7.84152 5 6.5 6.4383 6.5 8.15V8.55C6.5 8.96421 6.83578 9.3 7.25 9.3C7.66421 9.3 8 8.96421 8 8.55V8.15Z" fill="#292927"/>
</g>
</svg>
