<svg preserveAspectRatio="xMidYMid meet" overflow="visible" style="display: block;" viewBox="0 0 24 24" fill="none" xmlns="http://www.w3.org/2000/svg">
<g transform="translate(3.2500, 1.2500)">
<path id="Vector" fill-rule="evenodd" clip-rule="evenodd" d="M9.5 0.75C9.5 0.335786 9.16421 0 8.75 0C8.33579 0 8 0.335786 8 0.75V2H6.75C6.33579 2 6 2.33579 6 2.75C6 3.16421 6.33579 3.5 6.75 3.5H8V4.33431L0.634501 8.93775C0.239787 9.18445 0 9.61708 0 10.0825V20.15C0 20.8956 0.604415 21.5 1.35 21.5H16.15C16.8956 21.5 17.5 20.8956 17.5 20.15V10.0825C17.5 9.61708 17.2602 9.18445 16.8655 8.93775L9.5 4.33431V3.5H10.75C11.1642 3.5 11.5 3.16421 11.5 2.75C11.5 2.33579 11.1642 2 10.75 2H9.5V0.75ZM1.5 10.1657L8.75 5.63444L16 10.1657V20H9.5V15.75C9.5 15.3358 9.16421 15 8.75 15C8.33579 15 8 15.3358 8 15.75V20H1.5V10.1657ZM13.3175 16.2508C13.5946 15.9429 13.5696 15.4687 13.2617 15.1916C12.9538 14.9145 12.4796 14.9394 12.2025 15.2473L12.1925 15.2584C11.9154 15.5663 11.9404 16.0405 12.2483 16.3176C12.5562 16.5947 13.0304 16.5697 13.3075 16.2619L13.3175 16.2508ZM13.2617 11.1916C13.5696 11.4687 13.5946 11.9429 13.3175 12.2508L13.3075 12.2619C13.0304 12.5697 12.5562 12.5947 12.2483 12.3176C11.9404 12.0405 11.9154 11.5663 12.1925 11.2584L12.2025 11.2473C12.4796 10.9394 12.9538 10.9145 13.2617 11.1916ZM9.31748 12.2508C9.59457 11.9429 9.56961 11.4687 9.26173 11.1916C8.95385 10.9145 8.47963 10.9394 8.20254 11.2473L8.19254 11.2584C7.91544 11.5663 7.9404 12.0405 8.24828 12.3176C8.55616 12.5947 9.03038 12.5697 9.30748 12.2619L9.31748 12.2508ZM5.26173 11.1916C5.56961 11.4687 5.59457 11.9429 5.31748 12.2508L5.30748 12.2619C5.03038 12.5697 4.55616 12.5947 4.24828 12.3176C3.9404 12.0405 3.91544 11.5663 4.19254 11.2584L4.20254 11.2473C4.47963 10.9394 4.95385 10.9145 5.26173 11.1916ZM5.31748 16.2508C5.59457 15.9429 5.56961 15.4687 5.26173 15.1916C4.95385 14.9145 4.47963 14.9394 4.20254 15.2473L4.19254 15.2584C3.91544 15.5663 3.9404 16.0405 4.24828 16.3176C4.55616 16.5947 5.03038 16.5697 5.30748 16.2619L5.31748 16.2508Z" fill="#292927"/>
</g>
</svg>
