<svg preserveAspectRatio="xMidYMid meet" overflow="visible" style="display: block;" viewBox="0 0 24 24" fill="none" xmlns="http://www.w3.org/2000/svg">
<g transform="translate(1.0320, 1.5937)">
<path id="Vector" fill-rule="evenodd" clip-rule="evenodd" d="M1.5 2.75C1.5 2.05964 2.05964 1.5 2.75 1.5H18.75C19.4404 1.5 20 2.05964 20 2.75V4H1.5V2.75ZM0 4.75V2.75C0 1.23122 1.23122 0 2.75 0H18.75C20.2688 0 21.5 1.23122 21.5 2.75V4.75V12.75C21.5 13.1642 21.1642 13.5 20.75 13.5C20.3358 13.5 20 13.1642 20 12.75V5.5H1.5V16.75C1.5 17.4404 2.05964 18 2.75 18H12.75C13.1642 18 13.5 18.3358 13.5 18.75C13.5 19.1642 13.1642 19.5 12.75 19.5H2.75C1.23122 19.5 0 18.2688 0 16.75V4.75ZM4.26173 2.19058C4.56961 2.46768 4.59457 2.9419 4.31748 3.24978L4.30748 3.26089C4.03038 3.56877 3.55616 3.59373 3.24828 3.31663C2.9404 3.03954 2.91544 2.56532 3.19254 2.25744L3.20254 2.24633C3.47963 1.93845 3.95385 1.91349 4.26173 2.19058ZM7.31748 3.24978C7.59457 2.9419 7.56961 2.46768 7.26173 2.19058C6.95385 1.91349 6.47963 1.93845 6.20254 2.24633L6.19254 2.25744C5.91544 2.56532 5.9404 3.03954 6.24828 3.31663C6.55616 3.59373 7.03038 3.56877 7.30748 3.26089L7.31748 3.24978ZM10.2617 2.19058C10.5696 2.46768 10.5946 2.9419 10.3175 3.24978L10.3075 3.26089C10.0304 3.56877 9.55616 3.59373 9.24828 3.31663C8.9404 3.03954 8.91544 2.56532 9.19254 2.25744L9.20254 2.24633C9.47963 1.93845 9.95385 1.91349 10.2617 2.19058ZM15.9074 12.2049C15.4781 11.9408 14.9395 11.919 14.5157 12.2158C14.0918 12.5125 13.9282 13.0261 14.0295 13.5198L15.2848 19.6358C15.4 20.1971 15.8084 20.603 16.2751 20.7515C16.7584 20.9053 17.4235 20.7903 17.7407 20.1533L18.7101 18.2061L20.8716 17.9611C21.5786 17.8809 21.9141 17.2952 21.9349 16.7885C21.955 16.2991 21.7132 15.7765 21.2252 15.4763L15.9074 12.2049ZM16.6721 18.9341L15.6155 13.7865L20.0913 16.5399L17.7308 16.8075L16.6721 18.9341Z" fill="#292927"/>
</g>
</svg>
