<svg preserveAspectRatio="xMidYMid meet" overflow="visible" style="display: block;" viewBox="0 0 24 24" fill="none" xmlns="http://www.w3.org/2000/svg">
<g transform="translate(2.2498, 6.4999)">
<path id="Vector" fill-rule="evenodd" clip-rule="evenodd" d="M0.442412 0.0662441C0.820142 -0.103735 1.26415 0.0646815 1.43413 0.442411C4.76879 7.85277 14.7316 7.85277 18.0662 0.442411C18.2362 0.0646815 18.6802 -0.103735 19.058 0.0662441C19.4357 0.236223 19.6041 0.680229 19.4341 1.05796C18.5677 2.98342 17.3107 4.47726 15.8383 5.5395L17.8563 8.30839C18.1003 8.64314 18.0267 9.11227 17.6919 9.35624C17.3572 9.60021 16.888 9.52662 16.6441 9.19187L14.5574 6.3288C13.2828 6.99151 11.8997 7.37302 10.5002 7.47334V10.2502C10.5002 10.6644 10.1644 11.0002 9.75018 11.0002C9.33597 11.0002 9.00018 10.6644 9.00018 10.2502V7.47334C7.60065 7.37302 6.21755 6.9915 4.94293 6.32879L2.85628 9.19187C2.61232 9.52662 2.14318 9.60021 1.80844 9.35624C1.47369 9.11227 1.4001 8.64314 1.64407 8.30839L3.66208 5.53949C2.18967 4.47725 0.932698 2.98341 0.0662441 1.05796C-0.103735 0.680229 0.0646814 0.236223 0.442412 0.0662441Z" fill="#292927"/>
</g>
</svg>
