<svg preserveAspectRatio="xMidYMid meet" overflow="visible" style="display: block;" viewBox="0 0 24 24" fill="none" xmlns="http://www.w3.org/2000/svg">
<g transform="translate(3.2500, 3.2500)">
<path id="Vector" fill-rule="evenodd" clip-rule="evenodd" d="M16.2803 6.28033L13.2803 9.28033C12.9874 9.57322 12.5126 9.57322 12.2197 9.28033L9.21967 6.28033C8.92678 5.98744 8.92678 5.51256 9.21967 5.21967C9.51256 4.92678 9.98744 4.92678 10.2803 5.21967L12 6.93934V0.75C12 0.335787 12.3358 0 12.75 0C13.1642 0 13.5 0.335787 13.5 0.75V6.93934L15.2197 5.21967C15.5126 4.92678 15.9874 4.92678 16.2803 5.21967C16.5732 5.51256 16.5732 5.98744 16.2803 6.28033ZM16.2197 17.2803C16.5126 17.5732 16.9874 17.5732 17.2803 17.2803C17.5732 16.9874 17.5732 16.5126 17.2803 16.2197L12.2803 11.2197C11.9874 10.9268 11.5126 10.9268 11.2197 11.2197L8.75 13.6893L1.28033 6.21967C0.987438 5.92678 0.512564 5.92678 0.219669 6.21967C-0.0732231 6.51256 -0.0732231 6.98744 0.219669 7.28033L8.21967 15.2803C8.51256 15.5732 8.98744 15.5732 9.28033 15.2803L11.75 12.8107L16.2197 17.2803Z" fill="#292927"/>
</g>
</svg>
