<svg preserveAspectRatio="xMidYMid meet" overflow="visible" style="display: block;" viewBox="0 0 24 24" fill="none" xmlns="http://www.w3.org/2000/svg">
<g transform="translate(3.2500, 1.2500)">
<path id="Vector" fill-rule="evenodd" clip-rule="evenodd" d="M5 0.750001C5 0.335787 5.33579 0 5.75 0H11.75C12.1642 0 12.5 0.335786 12.5 0.75C12.5 1.16421 12.1642 1.5 11.75 1.5L5.75 1.5C5.33579 1.5 5 1.16421 5 0.750001ZM8.75 8C9.16421 8 9.5 8.33579 9.5 8.75L9.5 12.75C9.5 13.1642 9.16421 13.5 8.75 13.5C8.33579 13.5 8 13.1642 8 12.75L8 8.75C8 8.33579 8.33579 8 8.75 8ZM1.5 12.75C1.5 8.74594 4.74594 5.5 8.75 5.5C12.7541 5.5 16 8.74594 16 12.75C16 16.7541 12.7541 20 8.75 20C4.74594 20 1.5 16.7541 1.5 12.75ZM8.75 4C3.91751 4 0 7.91751 0 12.75C0 17.5825 3.91751 21.5 8.75 21.5C13.5825 21.5 17.5 17.5825 17.5 12.75C17.5 7.91751 13.5825 4 8.75 4Z" fill="#292927"/>
</g>
</svg>
