<svg preserveAspectRatio="xMidYMid meet" overflow="visible" style="display: block;" viewBox="0 0 24 24" fill="none" xmlns="http://www.w3.org/2000/svg">
<g transform="translate(2.2500, 2.2500)">
<path id="Vector" fill-rule="evenodd" clip-rule="evenodd" d="M14.75 18C16.5449 18 18 16.5449 18 14.75V4.75C18 2.95507 16.5449 1.5 14.75 1.5H4.75C2.95507 1.5 1.5 2.95507 1.5 4.75V14.75C1.5 16.5449 2.95507 18 4.75 18H14.75ZM19.5 14.75C19.5 17.3734 17.3734 19.5 14.75 19.5H4.75C2.12665 19.5 0 17.3734 0 14.75V4.75C0 2.12665 2.12665 0 4.75 0H14.75C17.3734 0 19.5 2.12665 19.5 4.75V14.75ZM16 13.75C16 14.1642 15.6642 14.5 15.25 14.5H13.75C12.2312 14.5 11 13.2688 11 11.75V9.75C11 8.23122 12.2312 7 13.75 7C15.2688 7 16.5 8.23122 16.5 9.75V10.75C16.5 11.1642 16.1642 11.5 15.75 11.5H12.5V11.75C12.5 12.4404 13.0596 13 13.75 13H15.25C15.6642 13 16 13.3358 16 13.75ZM15 10V9.75C15 9.05964 14.4404 8.5 13.75 8.5C13.0596 8.5 12.5 9.05964 12.5 9.75V10H15ZM3.04776 13.4865C2.90232 13.8743 3.09882 14.3066 3.48666 14.452C3.8745 14.5975 4.30681 14.401 4.45225 14.0131L5.39476 11.4998H8.10525L9.04776 14.0131C9.1932 14.401 9.62551 14.5975 10.0133 14.452C10.4012 14.3066 10.5977 13.8743 10.4523 13.4865L7.45225 5.48645C7.34248 5.19373 7.06264 4.9998 6.75 4.9998C6.43737 4.9998 6.15753 5.19373 6.04776 5.48645L3.04776 13.4865ZM7.54275 9.9998H5.95726L6.75 7.8858L7.54275 9.9998Z" fill="#292927"/>
</g>
</svg>
