<svg preserveAspectRatio="xMidYMid meet" overflow="visible" style="display: block;" viewBox="0 0 24 24" fill="none" xmlns="http://www.w3.org/2000/svg">
<g transform="translate(2.2500, 2.2500)">
<path id="Vector" fill-rule="evenodd" clip-rule="evenodd" d="M3.5313 2.10863C3.90168 1.71633 4.27431 1.52817 4.65946 1.50295C4.83396 1.52225 5.09287 1.64197 5.44312 2.02763C5.82233 2.44518 6.21814 3.07757 6.62829 3.89787C7.44738 5.53604 8.23495 7.73773 9.0437 10.0022L9.05575 10.0359L9.05575 10.036C9.85035 12.2609 10.666 14.5448 11.5301 16.2729C11.9637 17.1401 12.4317 17.914 12.9465 18.4808C13.3734 18.9509 13.901 19.3522 14.5295 19.4671C14.5992 19.4885 14.6732 19.5 14.75 19.5C14.7761 19.5 14.8022 19.4997 14.8281 19.499C14.8496 19.4997 14.8712 19.5 14.8929 19.5C14.9432 19.5 14.9923 19.495 15.0398 19.4856C15.8438 19.4051 16.5193 18.9932 17.0594 18.4211C17.6537 17.7916 18.1132 16.942 18.4639 16.0155C19.1664 14.1601 19.5 11.8157 19.5 9.75C19.5 9.33579 19.1642 9 18.75 9L18.7488 9H16.75C16.3358 9 16 9.33579 16 9.75C16 10.1642 16.3358 10.5 16.75 10.5H17.9846C17.9142 12.2263 17.6042 14.0499 17.0611 15.4845C16.7493 16.308 16.3775 16.9584 15.9687 17.3914C15.5983 17.7837 15.2257 17.9718 14.8406 17.997C14.6661 17.9777 14.4071 17.858 14.0569 17.4723C13.6777 17.0548 13.2819 16.4224 12.8717 15.6021C12.0526 13.9639 11.2651 11.7622 10.4563 9.49771L10.4443 9.46405C9.64968 7.23913 8.83399 4.95515 7.96993 3.22705C7.53633 2.35984 7.0683 1.58599 6.55354 1.01918C6.12656 0.549029 5.59901 0.147723 4.97049 0.032923C4.90078 0.0115194 4.82675 0 4.75003 0C4.72387 0 4.69783 0.000345835 4.67192 0.00103222C4.65043 0.000345996 4.62883 0 4.60713 0C4.55684 0 4.50771 0.00495169 4.4602 0.0143905C3.65621 0.0949342 2.9807 0.506818 2.44061 1.07887C1.84628 1.70837 1.38683 2.55798 1.03608 3.48446C0.333646 5.33995 0 7.68433 0 9.75C0 10.1642 0.335786 10.5 0.75 10.5L0.751209 10.5H2.75C3.16421 10.5 3.5 10.1642 3.5 9.75C3.5 9.33579 3.16421 9 2.75 9H1.51544C1.58575 7.2737 1.89582 5.45014 2.43892 4.01554C2.75068 3.19202 3.12249 2.54163 3.5313 2.10863ZM12.5 9.75C12.5 9.33579 12.8358 9 13.25 9H14.25C14.6642 9 15 9.33579 15 9.75C15 10.1642 14.6642 10.5 14.25 10.5H13.25C12.8358 10.5 12.5 10.1642 12.5 9.75ZM5.25 9C4.83579 9 4.5 9.33579 4.5 9.75C4.5 10.1642 4.83579 10.5 5.25 10.5H6.25C6.66421 10.5 7 10.1642 7 9.75C7 9.33579 6.66421 9 6.25 9H5.25Z" fill="#292927"/>
</g>
</svg>
