<svg preserveAspectRatio="xMidYMid meet" overflow="visible" style="display: block;" viewBox="0 0 24 24" fill="none" xmlns="http://www.w3.org/2000/svg">
<g transform="translate(1.8306, 1.8305)">
<path id="Vector" fill-rule="evenodd" clip-rule="evenodd" d="M0.75 19.5C0.335787 19.5 0 19.1642 0 18.75V14.75C0 6.6038 6.6038 0 14.75 0H18.75C19.1642 0 19.5 0.335787 19.5 0.75C19.5 1.16421 19.1642 1.5 18.75 1.5H14.75C7.43223 1.5 1.5 7.43223 1.5 14.75V18.75C1.5 19.1642 1.16421 19.5 0.75 19.5ZM20.3388 19.5891C20.3388 20.0033 20.003 20.3391 19.5888 20.3391H16.0533C15.639 20.3391 15.3033 20.0033 15.3033 19.5891C15.3033 19.1748 15.639 18.8391 16.0533 18.8391H17.7781L16.2197 17.2806C15.9268 16.9877 15.9268 16.5128 16.2197 16.2199C16.5126 15.927 16.9874 15.927 17.2803 16.2199L18.8388 17.7784V16.0535C18.8388 15.6393 19.1746 15.3035 19.5888 15.3035C20.003 15.3035 20.3388 15.6393 20.3388 16.0535V19.5891ZM14.2197 15.2803C14.5126 15.5732 14.9874 15.5732 15.2803 15.2803C15.5732 14.9874 15.5732 14.5126 15.2803 14.2197L14.5803 13.5197C14.2874 13.2268 13.8126 13.2268 13.5197 13.5197C13.2268 13.8126 13.2268 14.2874 13.5197 14.5803L14.2197 15.2803ZM11.4197 12.4803C11.7126 12.7732 12.1874 12.7732 12.4803 12.4803C12.7732 12.1874 12.7732 11.7126 12.4803 11.4197L11.0803 10.0197C10.7874 9.72678 10.3126 9.72678 10.0197 10.0197C9.72677 10.3126 9.72677 10.7874 10.0197 11.0803L11.4197 12.4803ZM7.91966 8.98033C8.21256 9.27322 8.68743 9.27322 8.98032 8.98033C9.27322 8.68744 9.27322 8.21256 8.98032 7.91967L8.28032 7.21967C7.98743 6.92678 7.51256 6.92678 7.21966 7.21967C6.92677 7.51256 6.92677 7.98744 7.21966 8.28033L7.91966 8.98033Z" fill="#292927"/>
</g>
</svg>
