<svg preserveAspectRatio="xMidYMid meet" overflow="visible" style="display: block;" viewBox="0 0 24 24" fill="none" xmlns="http://www.w3.org/2000/svg">
<g transform="translate(1.2500, 4.2500)">
<path id="Vector" fill-rule="evenodd" clip-rule="evenodd" d="M17.5 0.75C17.5 1.16421 17.1642 1.5 16.75 1.5H0.75C0.335787 1.5 0 1.16421 0 0.75C0 0.335786 0.335787 0 0.75 0H16.75C17.1642 0 17.5 0.335786 17.5 0.75ZM13.5 4.75C13.5 5.16421 13.1642 5.5 12.75 5.5H0.75C0.335787 5.5 0 5.16421 0 4.75C0 4.33579 0.335787 4 0.75 4H12.75C13.1642 4 13.5 4.33579 13.5 4.75ZM9.5 8.75C9.5 9.16421 9.16421 9.5 8.75 9.5H0.75C0.335786 9.5 0 9.16421 0 8.75C0 8.33579 0.335786 8 0.75 8H8.75C9.16421 8 9.5 8.33579 9.5 8.75ZM4.75 13.5C5.16421 13.5 5.5 13.1642 5.5 12.75C5.5 12.3358 5.16421 12 4.75 12H0.75C0.335786 12 0 12.3358 0 12.75C0 13.1642 0.335786 13.5 0.75 13.5H4.75ZM21.2803 12.2803L18.2803 15.2803C17.9874 15.5732 17.5126 15.5732 17.2197 15.2803L14.2197 12.2803C13.9268 11.9874 13.9268 11.5126 14.2197 11.2197C14.5126 10.9268 14.9874 10.9268 15.2803 11.2197L17 12.9393V4.75C17 4.33579 17.3358 4 17.75 4C18.1642 4 18.5 4.33579 18.5 4.75V12.9393L20.2197 11.2197C20.5126 10.9268 20.9874 10.9268 21.2803 11.2197C21.5732 11.5126 21.5732 11.9874 21.2803 12.2803Z" fill="#292927"/>
</g>
</svg>
