<svg preserveAspectRatio="xMidYMid meet" overflow="visible" style="display: block;" viewBox="0 0 24 24" fill="none" xmlns="http://www.w3.org/2000/svg">
<g transform="translate(4.2500, 2.2500)">
<path id="Vector" fill-rule="evenodd" clip-rule="evenodd" d="M12.891 1.2306L15.291 3.7306C15.5697 4.02082 15.5697 4.47918 15.291 4.7694L12.891 7.2694C12.6042 7.56821 12.1294 7.5779 11.8306 7.29104C11.5318 7.00418 11.5221 6.52941 11.809 6.2306L12.9903 5H8.43403C8.0798 6.98951 6.3413 8.5 4.25 8.5C1.90279 8.5 0 6.59721 0 4.25C0 1.90279 1.90279 0 4.25 0C6.3413 0 8.0798 1.51049 8.43403 3.5H12.9903L11.809 2.2694C11.5221 1.97059 11.5318 1.49582 11.8306 1.20896C12.1294 0.922103 12.6042 0.931793 12.891 1.2306ZM4.25 7C5.76878 7 7 5.76878 7 4.25C7 2.73122 5.76878 1.5 4.25 1.5C2.73122 1.5 1.5 2.73122 1.5 4.25C1.5 5.76878 2.73122 7 4.25 7ZM12.891 12.2306L15.291 14.7306C15.5697 15.0208 15.5697 15.4792 15.291 15.7694L12.891 18.2694C12.6042 18.5682 12.1294 18.5779 11.8306 18.291C11.5318 18.0042 11.5221 17.5294 11.809 17.2306L12.9903 16H8.43403C8.0798 17.9895 6.3413 19.5 4.25 19.5C1.90279 19.5 0 17.5972 0 15.25C0 12.9028 1.90279 11 4.25 11C6.3413 11 8.0798 12.5105 8.43403 14.5H12.9903L11.809 13.2694C11.5221 12.9706 11.5318 12.4958 11.8306 12.209C12.1294 11.9221 12.6042 11.9318 12.891 12.2306ZM4.25 18C5.76878 18 7 16.7688 7 15.25C7 13.7312 5.76878 12.5 4.25 12.5C2.73122 12.5 1.5 13.7312 1.5 15.25C1.5 16.7688 2.73122 18 4.25 18Z" fill="#292927"/>
</g>
</svg>
