<svg preserveAspectRatio="xMidYMid meet" overflow="visible" style="display: block;" viewBox="0 0 24 24" fill="none" xmlns="http://www.w3.org/2000/svg">
<g transform="translate(4.2500, 2.2500)">
<path id="Vector" fill-rule="evenodd" clip-rule="evenodd" d="M2.75 1.5C2.05964 1.5 1.5 2.05964 1.5 2.75V12.1065C1.73271 12.0359 1.98439 12 2.25 12H14V1.5H2.75ZM0 2.75V14.25V17.25C0 17.8109 0.170159 18.381 0.573324 18.8187C0.98579 19.2666 1.57262 19.5 2.25 19.5H14.75C15.1642 19.5 15.5 19.1642 15.5 18.75L15.5 15.75V12.75L15.5 1.35C15.5 0.604417 14.8956 0 14.15 0H2.75C1.23122 0 0 1.23122 0 2.75ZM2.25 18H14V16.5H2.25C1.92738 16.5 1.76421 16.6024 1.67668 16.6974C1.57984 16.8026 1.5 16.9824 1.5 17.25C1.5 17.5176 1.57984 17.6974 1.67668 17.8026C1.76421 17.8976 1.92738 18 2.25 18ZM2.25 15H14V13.5H2.25C1.92738 13.5 1.76421 13.6024 1.67668 13.6974C1.57984 13.8026 1.5 13.9824 1.5 14.25C1.5 14.5176 1.57984 14.6974 1.67668 14.8026C1.76421 14.8976 1.92738 15 2.25 15ZM4 4.75C4 4.33579 4.33579 4 4.75 4H10.75C11.1642 4 11.5 4.33579 11.5 4.75C11.5 5.16421 11.1642 5.5 10.75 5.5H4.75C4.33579 5.5 4 5.16421 4 4.75Z" fill="#292927"/>
</g>
</svg>
