<svg preserveAspectRatio="xMidYMid meet" overflow="visible" style="display: block;" viewBox="0 0 24 24" fill="none" xmlns="http://www.w3.org/2000/svg">
<g transform="translate(2.2500, 2.2500)">
<path id="Vector" fill-rule="evenodd" clip-rule="evenodd" d="M9 6.34861V2.15139L2.10208 6.75L5.25 8.84861L9 6.34861ZM10.5 6.34861L14.25 8.84861L17.3979 6.75L10.5 2.15139V6.34861ZM12.8979 9.75L9.75 7.65139L6.60208 9.75L9.75 11.8486L12.8979 9.75ZM3.89792 9.75L1.5 8.15139V11.3486L3.89792 9.75ZM0.344605 13.3811L9.3255 19.3684C9.4441 19.45 9.58733 19.4983 9.74175 19.5C9.7445 19.5 9.74725 19.5 9.75 19.5M10.5 17.3486V13.1514L14.25 10.6514L17.3979 12.75L10.5 17.3486ZM9.75825 19.5C9.91267 19.4983 10.0559 19.45 10.1745 19.3684L19.1564 13.3805C19.2157 13.3421 19.2694 13.2956 19.3156 13.2425C19.4305 13.1108 19.5 12.9385 19.5 12.75V6.75C19.5 6.5615 19.4305 6.38924 19.3156 6.25748C19.294 6.23267 19.2708 6.2093 19.2461 6.18753C19.218 6.1627 19.188 6.13995 19.1564 6.11951L10.1746 0.131646C10.0538 0.0486065 9.90759 0 9.75 0C9.59241 0 9.44617 0.0486065 9.32545 0.131646L0.343653 6.11951C0.312012 6.13994 0.282007 6.1627 0.253879 6.18753C0.0981919 6.32495 0 6.52601 0 6.75V12.75V12.75C0 13.0149 0.137298 13.2477 0.344605 13.3811M18 11.3486V8.15139L15.6021 9.75L18 11.3486ZM9 17.3486L2.10208 12.75L5.25 10.6514L9 13.1514V17.3486Z" fill="#292927"/>
</g>
</svg>
