<svg preserveAspectRatio="xMidYMid meet" overflow="visible" style="display: block;" viewBox="0 0 24 24" fill="none" xmlns="http://www.w3.org/2000/svg">
<g transform="translate(1.2491, 1.2491)">
<path id="Vector" fill-rule="evenodd" clip-rule="evenodd" d="M18.8834 3.71932C17.0591 1.60427 14.5471 0.352407 11.9176 0.0642761C11.9003 0.0617934 11.8827 0.0599105 11.8651 0.0586475C9.38266 -0.201091 6.79902 0.397687 4.59301 1.93942L4.58498 1.94496L4.57704 1.9506C2.37074 3.49837 0.923445 5.72538 0.319948 8.15078C0.317166 8.16108 0.314615 8.17141 0.312291 8.18175C-0.321053 10.7595 -0.0021531 13.5588 1.37057 16.0034L1.37463 16.0106C1.54794 16.3187 1.73801 16.6212 1.94504 16.9169C5.3504 21.7802 12.0535 22.9622 16.9169 19.5568C19.1285 18.0082 20.5788 15.7777 21.1826 13.3483C21.1849 13.3396 21.187 13.331 21.189 13.3223C21.9036 10.4164 21.4081 7.22885 19.5568 4.58498C19.3531 4.29407 19.1376 4.01634 18.9114 3.75197C18.9024 3.74086 18.8931 3.72997 18.8834 3.71932ZM1.59226 9.45397C1.34146 11.2224 1.59928 13.0661 2.40755 14.748C3.74473 14.3524 4.98565 13.9219 6.14261 13.4482C4.94995 11.7782 3.42489 10.4399 1.59226 9.45397ZM6.95816 14.7335C5.7848 15.2249 4.53226 15.6709 3.18982 16.0794C4.57613 18.0468 6.59134 19.3099 8.77224 19.7869C8.39609 17.8974 7.78706 16.2094 6.95816 14.7335ZM10.3367 19.9921C9.95229 17.8086 9.28016 15.8423 8.3326 14.1198C9.3194 13.6501 10.2472 13.1422 11.1234 12.5904L15.425 18.7337C13.8395 19.6644 12.0711 20.0711 10.3367 19.9921ZM7.54332 12.8342C6.1264 10.7594 4.24863 9.10913 1.93713 7.94226C2.45917 6.29989 3.44199 4.79125 4.8482 3.62846L10.262 11.3602C9.41201 11.8919 8.50863 12.3813 7.54332 12.8342ZM6.07693 2.7681C7.65063 1.84437 9.40453 1.43683 11.1265 1.50806C11.4374 4.12058 12.3704 6.483 13.8772 8.54747C13.135 9.26068 12.3484 9.91718 11.5074 10.5236L6.07693 2.7681ZM12.665 1.70109C12.9714 3.80588 13.7335 5.73461 14.9397 7.45485C15.8085 6.49986 16.6165 5.45273 17.383 4.30079C16.0755 2.95315 14.4224 2.0724 12.665 1.70109ZM12.3678 11.7525C13.2357 11.1279 14.051 10.4522 14.8222 9.71912C16.1035 11.1621 17.6948 12.4362 19.5766 13.522C19.0577 15.1789 18.0706 16.7017 16.6537 17.8733L12.3678 11.7525ZM15.8785 8.64983C16.9668 9.89277 18.3153 11.0083 19.9187 11.9816C20.2141 9.78568 19.726 7.47827 18.3746 5.51232C17.5908 6.65412 16.7639 7.6962 15.8785 8.64983Z" fill="#292927"/>
</g>
</svg>
