<svg preserveAspectRatio="xMidYMid meet" overflow="visible" style="display: block;" viewBox="0 0 24 24" fill="none" xmlns="http://www.w3.org/2000/svg">
<g transform="translate(4.0000, 1.2500)">
<path id="Vector" fill-rule="evenodd" clip-rule="evenodd" d="M8.25 0C8.35169 0 8.44866 0.0202391 8.53709 0.0569091C8.62555 0.0935089 8.70842 0.147763 8.78033 0.21967L10.7803 2.21967C11.0732 2.51256 11.0732 2.98744 10.7803 3.28033C10.4874 3.57322 10.0126 3.57322 9.71967 3.28033L9 2.56066V11.6792L13 10.2247V8H12.25C11.8358 8 11.5 7.66421 11.5 7.25V4.25C11.5 3.83579 11.8358 3.5 12.25 3.5H15.25C15.6642 3.5 16 3.83579 16 4.25V7.25C16 7.66421 15.6642 8 15.25 8H14.5V10.75C14.5 11.0654 14.3027 11.3471 14.0063 11.4548L9 13.2753V14.7328C9.00025 14.7439 9.00025 14.7551 9 14.7663V15.087C10.4334 15.4255 11.5 16.7132 11.5 18.25C11.5 20.0449 10.0449 21.5 8.25 21.5C6.45507 21.5 5 20.0449 5 18.25C5 16.8625 5.86943 15.6781 7.09321 15.2119L2.55266 13.9736C2.22637 13.8846 2 13.5882 2 13.25V10.3965C0.845748 10.07 0 9.00878 0 7.75C0 6.23122 1.23122 5 2.75 5C4.26878 5 5.5 6.23122 5.5 7.75C5.5 9.00878 4.65425 10.07 3.5 10.3965V12.6772L7.5 13.7681V12.7666C7.49976 12.7555 7.49976 12.7445 7.5 12.7335V2.56066L6.78033 3.28033C6.48744 3.57322 6.01256 3.57322 5.71967 3.28033C5.42678 2.98744 5.42678 2.51256 5.71967 2.21967L7.71967 0.21967C7.79158 0.147762 7.87445 0.0935089 7.96291 0.0569091C8.05134 0.0202391 8.14831 0 8.25 0ZM13.75 6.5H14.5V5H13V6.5H13.75ZM6.5 18.25C6.5 17.2835 7.2835 16.5 8.25 16.5C9.2165 16.5 10 17.2835 10 18.25C10 19.2165 9.2165 20 8.25 20C7.2835 20 6.5 19.2165 6.5 18.25ZM1.5 7.75C1.5 7.05964 2.05964 6.5 2.75 6.5C3.44036 6.5 4 7.05964 4 7.75C4 8.44036 3.44036 9 2.75 9C2.05964 9 1.5 8.44036 1.5 7.75Z" fill="#292927"/>
</g>
</svg>
