<svg preserveAspectRatio="xMidYMid meet" overflow="visible" style="display: block;" viewBox="0 0 24 24" fill="none" xmlns="http://www.w3.org/2000/svg">
<g transform="translate(2.2500, 2.2500)">
<path id="Vector" fill-rule="evenodd" clip-rule="evenodd" d="M14.75 18C16.5449 18 18 16.5449 18 14.75V4.75C18 2.95507 16.5449 1.5 14.75 1.5H4.75C2.95507 1.5 1.5 2.95507 1.5 4.75V14.75C1.5 16.5449 2.95507 18 4.75 18H14.75ZM19.5 14.75C19.5 17.3734 17.3734 19.5 14.75 19.5H4.75C2.12665 19.5 0 17.3734 0 14.75V4.75C0 2.12665 2.12665 0 4.75 0H14.75C17.3734 0 19.5 2.12665 19.5 4.75V14.75ZM4.41457 14.4207C4.04409 14.2354 3.89392 13.7849 4.07916 13.4144L5.91146 9.74984L4.07916 6.08525C3.89392 5.71476 4.04409 5.26426 4.41457 5.07902C4.78505 4.89377 5.23556 5.04394 5.4208 5.41443L6.74998 8.07278L8.07916 5.41443C8.2644 5.04394 8.71491 4.89377 9.08539 5.07902C9.45588 5.26426 9.60604 5.71476 9.4208 6.08525L7.58851 9.74984L9.4208 13.4144C9.60604 13.7849 9.45588 14.2354 9.08539 14.4207C8.71491 14.6059 8.2644 14.4557 8.07916 14.0852L6.74998 11.4269L5.4208 14.0852C5.23556 14.4557 4.78505 14.6059 4.41457 14.4207ZM12.75 10.5H14V13H12.75C12.0596 13 11.5 12.4404 11.5 11.75C11.5 11.0596 12.0596 10.5 12.75 10.5ZM12.75 9H14V6.75C14 6.33579 14.3358 6 14.75 6C15.1642 6 15.5 6.33579 15.5 6.75V13.15C15.5 13.8956 14.8956 14.5 14.15 14.5H12.75C11.2312 14.5 10 13.2688 10 11.75C10 10.2312 11.2312 9 12.75 9Z" fill="#292927"/>
</g>
</svg>
