<svg preserveAspectRatio="xMidYMid meet" overflow="visible" style="display: block;" viewBox="0 0 24 24" fill="none" xmlns="http://www.w3.org/2000/svg">
<g transform="translate(1.2500, 1.2500)">
<path id="Vector" fill-rule="evenodd" clip-rule="evenodd" d="M1 3.33159C0.408763 3.05073 0 2.4481 0 1.75C0 0.783502 0.783502 0 1.75 0C2.4481 0 3.05073 0.408763 3.33159 1H19.15C19.8956 1 20.5 1.60442 20.5 2.35V18.1684C21.0912 18.4493 21.5 19.0519 21.5 19.75C21.5 20.7165 20.7165 21.5 19.75 21.5C19.0519 21.5 18.4493 21.0912 18.1684 20.5H2.35C1.60441 20.5 1 19.8956 1 19.15V3.33159ZM19 18.1684C18.6361 18.3413 18.3413 18.6361 18.1684 19H2.5V3.33159C2.86392 3.15871 3.15871 2.86392 3.33159 2.5H19V18.1684Z" fill="#292927"/>
</g>
</svg>
