<svg preserveAspectRatio="xMidYMid meet" overflow="visible" style="display: block;" viewBox="0 0 24 24" fill="none" xmlns="http://www.w3.org/2000/svg">
<g transform="translate(1.2500, 1.2500)">
<path id="Vector" fill-rule="evenodd" clip-rule="evenodd" d="M20 10.75C20 5.64137 15.8586 1.5 10.75 1.5C5.64137 1.5 1.5 5.64137 1.5 10.75C1.5 15.8586 5.64137 20 10.75 20C15.8586 20 20 15.8586 20 10.75ZM10.75 0C16.6871 0 21.5 4.81294 21.5 10.75C21.5 16.6871 16.6871 21.5 10.75 21.5C4.81294 21.5 0 16.6871 0 10.75C0 4.81294 4.81294 0 10.75 0ZM17.3641 10.3932C12.5987 7.53397 7.82268 7.9983 4.87329 8.48985C4.46471 8.55794 4.07829 8.28193 4.0102 7.87335C3.9421 7.46477 4.21812 7.07835 4.6267 7.01026C7.67731 6.50184 12.9012 5.96619 18.1359 9.10691C18.491 9.32002 18.6062 9.78071 18.3931 10.1359C18.18 10.4911 17.7193 10.6063 17.3641 10.3932ZM5.48464 11.4653L5.4319 11.4776C5.03018 11.5778 4.62282 11.3336 4.52239 10.9319C4.42193 10.5301 4.66625 10.1229 5.06809 10.0224C5.09563 10.0155 5.28729 9.9728 5.3689 9.9563C5.55478 9.9187 5.82209 9.86942 6.15702 9.82041C6.82614 9.72249 7.76931 9.625 8.87499 9.625C11.0775 9.625 13.9777 10.012 16.6359 11.6069C16.9911 11.82 17.1062 12.2807 16.8931 12.6359C16.68 12.991 16.2193 13.1062 15.8641 12.8931C13.5223 11.488 10.9225 11.125 8.875 11.125C7.85568 11.125 6.98635 11.215 6.37422 11.3046C6.06852 11.3493 5.82803 11.3938 5.66625 11.4265C5.58539 11.4429 5.52429 11.4563 5.48464 11.4653ZM5.91834 14.4809L5.91271 14.4821C5.50849 14.5717 5.10769 14.3169 5.01787 13.9127C4.92801 13.5083 5.18296 13.1077 5.58731 13.0179L5.75001 13.75C5.58731 13.0179 5.58817 13.0177 5.58843 13.0176L5.58996 13.0173L5.59426 13.0163L5.60776 13.0134L5.65405 13.0039C5.69333 12.996 5.74931 12.9852 5.82088 12.9725C5.96398 12.9471 6.16964 12.9139 6.42897 12.881C6.9472 12.8152 7.68225 12.75 8.56251 12.75C10.3184 12.75 12.6802 13.0093 15.0546 14.0646C15.4331 14.2329 15.6036 14.6761 15.4354 15.0546C15.2671 15.4331 14.8239 15.6036 14.4454 15.4354C12.3199 14.4907 10.1816 14.25 8.56251 14.25C7.75526 14.25 7.08407 14.3098 6.61792 14.369C6.38506 14.3986 6.204 14.4279 6.08343 14.4494C6.02316 14.4601 5.97807 14.4688 5.94924 14.4746L5.91834 14.4809Z" fill="#292927"/>
</g>
</svg>
