<svg preserveAspectRatio="xMidYMid meet" overflow="visible" style="display: block;" viewBox="0 0 24 24" fill="none" xmlns="http://www.w3.org/2000/svg">
<g transform="translate(0.8925, 1.2499)">
<path id="Vector" fill-rule="evenodd" clip-rule="evenodd" d="M3.0574 2.75C3.0574 2.05964 3.61705 1.5 4.3074 1.5H11.1074C11.5216 1.5 11.8574 1.16421 11.8574 0.75C11.8574 0.335786 11.5216 0 11.1074 0H4.3074C2.78862 0 1.5574 1.23122 1.5574 2.75V12.9614C1.51842 13.0382 1.48639 13.1197 1.46226 13.205L0.105469 18.0017C-0.39099 19.7569 0.927629 21.5002 2.75165 21.5002H19.4633C21.2873 21.5002 22.6059 19.7569 22.1095 18.0017L20.6575 12.8684V6.86133C20.6575 6.44711 20.3217 6.11133 19.9075 6.11133C19.4933 6.11133 19.1575 6.44711 19.1575 6.86133V12.2224H3.0574V2.75ZM2.87475 13.7224H19.3402L20.6661 18.41C20.8918 19.2078 20.2924 20.0002 19.4633 20.0002H2.75165C1.92255 20.0002 1.32318 19.2078 1.54884 18.41L2.87475 13.7224ZM9.35745 17.75C9.35745 17.3358 9.69324 17 10.1075 17L12.1075 17C12.5217 17 12.8575 17.3358 12.8575 17.75C12.8575 18.1642 12.5217 18.5 12.1075 18.5L10.1075 18.5C9.69324 18.5 9.35745 18.1642 9.35745 17.75ZM13.8628 5.41912L15.7767 3.50515C15.1915 2.45815 15.3439 1.10982 16.234 0.219783C16.5269 -0.0731101 17.0017 -0.0731101 17.2946 0.219783C17.5875 0.512676 17.5875 0.98755 17.2946 1.28044C16.8099 1.76519 16.8065 2.54903 17.2845 3.03795L17.2946 3.04791L17.3047 3.05817C17.7936 3.53634 18.5776 3.53302 19.0624 3.04821C19.3553 2.75532 19.8302 2.75532 20.1231 3.04821C20.416 3.3411 20.416 3.81598 20.1231 4.10887C19.2329 4.99901 17.8844 5.15136 16.8373 4.5659L14.9234 6.47983C15.5086 7.52684 15.3562 8.87521 14.4662 9.76527C14.1733 10.0582 13.6984 10.0582 13.4055 9.76527C13.1126 9.47238 13.1126 8.9975 13.4055 8.70461C13.8916 8.21856 13.8937 7.43183 13.4118 6.94319C13.4097 6.94114 13.4076 6.93907 13.4056 6.937C13.4035 6.93489 13.4014 6.93278 13.3993 6.93066C12.9107 6.4487 12.1238 6.45076 11.6378 6.93684C11.3449 7.22974 10.87 7.22974 10.5771 6.93684C10.2842 6.64395 10.2842 6.16908 10.5771 5.87618C11.4672 4.98606 12.8157 4.8337 13.8628 5.41912Z" fill="#292927"/>
</g>
</svg>
