<svg preserveAspectRatio="xMidYMid meet" overflow="visible" style="display: block;" viewBox="0 0 24 24" fill="none" xmlns="http://www.w3.org/2000/svg">
<g transform="translate(1.2500, 1.2500)">
<path id="Vector" fill-rule="evenodd" clip-rule="evenodd" d="M1.5 10.75C1.5 5.64137 5.64137 1.5 10.75 1.5C15.8586 1.5 20 5.64137 20 10.75C20 15.8586 15.8586 20 10.75 20C5.64137 20 1.5 15.8586 1.5 10.75ZM10.75 21.5C6.81469 21.5 3.37328 19.3854 1.5 16.2305V20.75C1.5 21.1642 1.16421 21.5 0.75 21.5C0.335786 21.5 0 21.1642 0 20.75V10.75C0 4.81294 4.81294 0 10.75 0C16.6871 0 21.5 4.81294 21.5 10.75C21.5 16.6871 16.6871 21.5 10.75 21.5ZM9.5 5.75C9.5 5.05964 10.0596 4.5 10.75 4.5C11.4404 4.5 12 5.05964 12 5.75C12 6.44036 11.4404 7 10.75 7C10.0596 7 9.5 6.44036 9.5 5.75ZM10.75 3C9.23122 3 8 4.23122 8 5.75C8 7.26878 9.23122 8.5 10.75 8.5C12.2688 8.5 13.5 7.26878 13.5 5.75C13.5 4.23122 12.2688 3 10.75 3ZM5.75 9.5C5.05964 9.5 4.5 10.0596 4.5 10.75C4.5 11.4404 5.05964 12 5.75 12C6.44036 12 7 11.4404 7 10.75C7 10.0596 6.44036 9.5 5.75 9.5ZM3 10.75C3 9.23122 4.23122 8 5.75 8C7.26878 8 8.5 9.23122 8.5 10.75C8.5 12.2688 7.26878 13.5 5.75 13.5C4.23122 13.5 3 12.2688 3 10.75ZM15.75 9.5C15.0596 9.5 14.5 10.0596 14.5 10.75C14.5 11.4404 15.0596 12 15.75 12C16.4404 12 17 11.4404 17 10.75C17 10.0596 16.4404 9.5 15.75 9.5ZM13 10.75C13 9.23122 14.2312 8 15.75 8C17.2688 8 18.5 9.23122 18.5 10.75C18.5 12.2688 17.2688 13.5 15.75 13.5C14.2312 13.5 13 12.2688 13 10.75ZM10.75 14.5C10.0596 14.5 9.5 15.0596 9.5 15.75C9.5 16.4404 10.0596 17 10.75 17C11.4404 17 12 16.4404 12 15.75C12 15.0596 11.4404 14.5 10.75 14.5ZM8 15.75C8 14.2312 9.23122 13 10.75 13C12.2688 13 13.5 14.2312 13.5 15.75C13.5 17.2688 12.2688 18.5 10.75 18.5C9.23122 18.5 8 17.2688 8 15.75Z" fill="#292927"/>
</g>
</svg>
