<svg preserveAspectRatio="xMidYMid meet" overflow="visible" style="display: block;" viewBox="0 0 24 24" fill="none" xmlns="http://www.w3.org/2000/svg">
<g transform="translate(2.2500, 2.2500)">
<path id="Vector" fill-rule="evenodd" clip-rule="evenodd" d="M1.5 1.5V9H9V1.5H1.5ZM10.5 10.5V18H18V10.5H10.5ZM10.5 19.5H18.15C18.8956 19.5 19.5 18.8956 19.5 18.15V10.5V9V1.35C19.5 0.604417 18.8956 0 18.15 0H10.5H9H1.35C0.604417 0 0 0.604415 0 1.35V9V10.5V18.15C0 18.8956 0.604417 19.5 1.35 19.5H9H10.5ZM9 18V10.5H1.5V18H9ZM10.5 9V1.5H18V9H10.5Z" fill="#292927"/>
</g>
</svg>
