<svg preserveAspectRatio="xMidYMid meet" overflow="visible" style="display: block;" viewBox="0 0 24 24" fill="none" xmlns="http://www.w3.org/2000/svg">
<g transform="translate(1.2500, 1.5000)">
<path id="Vector" fill-rule="evenodd" clip-rule="evenodd" d="M7.71967 2.71967C7.42678 3.01256 7.42678 3.48744 7.71967 3.78033L10.2197 6.28033C10.5126 6.57322 10.9874 6.57322 11.2803 6.28033C11.5732 5.98744 11.5732 5.51256 11.2803 5.21967L10.1157 4.05499C13.4347 4.47989 16 7.31537 16 10.75C16 14.4779 12.9779 17.5 9.25 17.5H0.75C0.335786 17.5 0 17.8358 0 18.25C0 18.6642 0.335786 19 0.75 19H9.25C13.8063 19 17.5 15.3063 17.5 10.75C17.5 6.45492 14.2178 2.92644 10.0248 2.5359L11.2803 1.28033C11.5732 0.987437 11.5732 0.512563 11.2803 0.21967C10.9874 -0.0732232 10.5126 -0.0732232 10.2197 0.21967L7.71967 2.71967ZM18.7803 14.7197L21.2803 17.2197C21.5732 17.5126 21.5732 17.9874 21.2803 18.2803L18.7803 20.7803C18.4874 21.0732 18.0126 21.0732 17.7197 20.7803C17.4268 20.4874 17.4268 20.0126 17.7197 19.7197L18.9393 18.5H16.25C15.8358 18.5 15.5 18.1642 15.5 17.75C15.5 17.3358 15.8358 17 16.25 17H18.9393L17.7197 15.7803C17.4268 15.4874 17.4268 15.0126 17.7197 14.7197C18.0126 14.4268 18.4874 14.4268 18.7803 14.7197ZM5.88079 4.89967C6.23952 4.69258 6.36245 4.2339 6.15537 3.87516C5.94828 3.51643 5.4896 3.3935 5.13086 3.60058C2.66336 5.025 1 7.69287 1 10.7501C1 12.6065 1.61404 14.3216 2.64978 15.7006C2.89854 16.0317 3.36869 16.0986 3.69988 15.8498C4.03108 15.601 4.09789 15.1309 3.84913 14.7997C3.0018 13.6716 2.5 12.2706 2.5 10.7501C2.5 8.25046 3.85836 6.06715 5.88079 4.89967Z" fill="#292927"/>
</g>
</svg>
