<svg preserveAspectRatio="xMidYMid meet" overflow="visible" style="display: block;" viewBox="0 0 24 24" fill="none" xmlns="http://www.w3.org/2000/svg">
<g transform="translate(1.7500, 1.2500)">
<path id="Vector" fill-rule="evenodd" clip-rule="evenodd" d="M17 0.75C17 0.335786 17.3358 0 17.75 0H19.75C20.1642 0 20.5 0.335787 20.5 0.75C20.5 1.16421 20.1642 1.5 19.75 1.5L17.75 1.5C17.3358 1.5 17 1.16421 17 0.75ZM15.9625 0.914192C16.0919 1.30769 15.8777 1.73154 15.4842 1.86088C14.7668 2.09668 14.0989 2.44141 13.5 2.87547V11.0999C13.9794 10.833 14.4865 10.6099 15.0158 10.4359C15.4093 10.3065 15.8332 10.5207 15.9625 10.9142C16.0919 11.3077 15.8777 11.7315 15.4842 11.8609C12.5889 12.8125 10.5 15.5383 10.5 18.75L10.5 19.75L10.5 20.7362C10.5012 20.7964 10.4951 20.857 10.4814 20.9168C10.4563 21.0275 10.4066 21.1289 10.3385 21.215C10.2934 21.2722 10.2411 21.3214 10.1836 21.362C10.0612 21.4489 9.91158 21.5 9.75002 21.5C9.72413 21.5 9.69855 21.4987 9.67334 21.4961C9.5632 21.4849 9.46012 21.4499 9.36931 21.3963L0.6944 16.5769C0.265821 16.3388 1.81198e-05 15.8871 1.71661e-05 15.3968L0 6.10291C0 5.61263 0.265804 5.16089 0.694383 4.92279L9.0944 0.256124C9.50213 0.0296078 9.99791 0.0296097 10.4056 0.256126L12.758 1.56301C13.4453 1.08476 14.2044 0.702579 15.0158 0.435879C15.4093 0.306541 15.8332 0.520689 15.9625 0.914192ZM12 12.1546V4.33343C11.0592 5.55658 10.5 7.08824 10.5 8.75V10.7356C10.5002 10.7457 10.5002 10.7557 10.5 10.7658V13.8495C10.9254 13.2215 11.4302 12.6517 12 12.1546ZM6.38815 9.74028L9.00002 11.1913L9.00002 18.75V19.4752L1.50002 15.3086L1.5 7.02465L6.38577 9.73896L6.38815 9.74028ZM2.29421 5.74994L7.11423 8.42773L9.00002 9.47538V8.75C9.00002 6.35027 9.96586 4.17687 11.5295 2.59645L9.75002 1.60783L2.29421 5.74994ZM17.75 10C17.3358 10 17 10.3358 17 10.75C17 11.1642 17.3358 11.5 17.75 11.5L19.75 11.5C20.1642 11.5 20.5 11.1642 20.5 10.75C20.5 10.3358 20.1642 10 19.75 10L17.75 10Z" fill="#292927"/>
</g>
</svg>
