<svg preserveAspectRatio="xMidYMid meet" overflow="visible" style="display: block;" viewBox="0 0 24 24" fill="none" xmlns="http://www.w3.org/2000/svg">
<g transform="translate(0.2995, 0.2995)">
<path id="Vector" fill-rule="evenodd" clip-rule="evenodd" d="M11.1839 0.102763C11.5147 -0.0342542 11.8864 -0.0342543 12.2172 0.102763L19.5361 3.13437C19.8669 3.27139 20.1297 3.5342 20.2668 3.86499L23.2984 11.1839C23.4354 11.5147 23.4354 11.8864 23.2984 12.2172L20.2668 19.5361C20.1297 19.8669 19.8669 20.1297 19.5361 20.2668L12.2172 23.2984C11.8864 23.4354 11.5147 23.4354 11.1839 23.2984L3.86499 20.2668C3.5342 20.1297 3.27139 19.8669 3.13437 19.5361L0.102763 12.2172C-0.0342541 11.8864 -0.0342543 11.5147 0.102763 11.1839L3.13437 3.86499C3.27139 3.5342 3.5342 3.27139 3.86499 3.13437L11.1839 0.102763ZM11.7006 1.51236L4.49642 4.49642L1.51236 11.7006L4.49642 18.9047L11.7006 21.8888L18.9047 18.9047L21.8888 11.7006L18.9047 4.49642L11.7006 1.51236Z" fill="#292927"/>
</g>
</svg>
