<svg preserveAspectRatio="xMidYMid meet" overflow="visible" style="display: block;" viewBox="0 0 24 24" fill="none" xmlns="http://www.w3.org/2000/svg">
<g transform="translate(2.2500, 2.2500)">
<path id="Vector" fill-rule="evenodd" clip-rule="evenodd" d="M1.5 18V1.5H18V18H1.5ZM1.35 0C0.604417 0 0 0.604415 0 1.35V18.15C0 18.8956 0.604415 19.5 1.35 19.5H18.15C18.8956 19.5 19.5 18.8956 19.5 18.15V1.35C19.5 0.604417 18.8956 0 18.15 0H1.35ZM7.22727 8.75C7.22727 8.22335 7.24424 7.6977 7.51389 7.28574C7.73836 6.9428 8.26911 6.5 9.75 6.5C11.2309 6.5 11.7616 6.9428 11.9861 7.28574C12.2558 7.6977 12.2727 8.22335 12.2727 8.75C12.2727 9.16421 12.6085 9.5 13.0227 9.5C13.3697 9.5 13.8977 9.60109 14.3141 9.87596C14.6902 10.1242 15 10.5231 15 11.25C15 11.9769 14.6902 12.3758 14.3141 12.624C13.8977 12.8989 13.3697 13 13.0227 13H6.47727C6.13032 13 5.60232 12.8989 5.18586 12.624C4.80978 12.3758 4.5 11.9769 4.5 11.25C4.5 10.5231 4.80978 10.1242 5.18586 9.87596C5.60232 9.60109 6.13032 9.5 6.47727 9.5C6.89149 9.5 7.22727 9.16421 7.22727 8.75ZM9.75 5C7.95816 5 6.85255 5.5572 6.25884 6.46426C5.90806 7.00017 5.78854 7.59183 5.74795 8.07257C5.30315 8.15808 4.80884 8.32754 4.3596 8.62404C3.59931 9.12583 3 9.97694 3 11.25C3 12.5231 3.59931 13.3742 4.3596 13.876C5.0795 14.3511 5.91513 14.5 6.47727 14.5H13.0227C13.5849 14.5 14.4205 14.3511 15.1404 13.876C15.9007 13.3742 16.5 12.5231 16.5 11.25C16.5 9.97694 15.9007 9.12583 15.1404 8.62404C14.6912 8.32754 14.1968 8.15808 13.7521 8.07257C13.7115 7.59183 13.5919 7.00017 13.2412 6.46426C12.6475 5.5572 11.5418 5 9.75 5Z" fill="#292927"/>
</g>
</svg>
