<svg preserveAspectRatio="xMidYMid meet" overflow="visible" style="display: block;" viewBox="0 0 24 24" fill="none" xmlns="http://www.w3.org/2000/svg">
<g transform="translate(1.2500, 4.2500)">
<path id="Vector" fill-rule="evenodd" clip-rule="evenodd" d="M1.5 14V1.5H20V14H1.5ZM1.35 0C0.604417 0 0 0.604415 0 1.35V14.15C0 14.8956 0.604415 15.5 1.35 15.5H20.15C20.8956 15.5 21.5 14.8956 21.5 14.15V1.35C21.5 0.604417 20.8956 0 20.15 0H1.35ZM9.50225 11.9563C9.11216 12.0956 8.683 11.8923 8.54369 11.5023L8.10777 10.2817H5.39222L4.9563 11.5023C4.81699 11.8923 4.38782 12.0956 3.99774 11.9563C3.60766 11.817 3.40437 11.3878 3.54369 10.9977L6.04369 3.99775C6.15029 3.69925 6.43303 3.5 6.74999 3.5C7.06695 3.5 7.3497 3.69925 7.4563 3.99775L9.9563 10.9977C10.0956 11.3878 9.89233 11.817 9.50225 11.9563ZM7.57205 8.78167L6.74999 6.47991L5.92794 8.78167H7.57205ZM17.2058 11.8457C16.8769 12.0974 16.4061 12.0348 16.1544 11.7059L14.2367 9.20008H12.5V11.2501C12.5 11.6643 12.1642 12.0001 11.75 12.0001C11.3358 12.0001 11 11.6643 11 11.2501V4.25008C11 3.83587 11.3358 3.50008 11.75 3.50008H14.6071L14.6436 3.50004C14.9889 3.4995 15.7013 3.49839 16.3266 3.86607C17.0612 4.29802 17.5 5.11073 17.5 6.35008C17.5 7.58943 17.0612 8.40215 16.3266 8.8341C16.2111 8.90198 16.0927 8.95728 15.9742 9.00235L17.3456 10.7943C17.5973 11.1232 17.5347 11.5939 17.2058 11.8457ZM12.5 7.70008H14.6071C14.992 7.70008 15.3216 7.6849 15.5663 7.54107C15.7245 7.44802 16 7.21073 16 6.35008C16 5.48943 15.7245 5.25215 15.5663 5.1591C15.3216 5.01526 14.992 5.00008 14.6071 5.00008H12.5V7.70008Z" fill="#292927"/>
</g>
</svg>
