<svg preserveAspectRatio="xMidYMid meet" overflow="visible" style="display: block;" viewBox="0 0 24 24" fill="none" xmlns="http://www.w3.org/2000/svg">
<g transform="translate(1.2500, 4.2500)">
<path id="Vector" fill-rule="evenodd" clip-rule="evenodd" d="M1.5 4.75C1.5 2.95507 2.95507 1.5 4.75 1.5H16.75C18.5449 1.5 20 2.95507 20 4.75V10.75C20 12.5449 18.5449 14 16.75 14H4.75C2.95507 14 1.5 12.5449 1.5 10.75V4.75ZM4.75 0C2.12665 0 0 2.12665 0 4.75V10.75C0 13.3734 2.12665 15.5 4.75 15.5H16.75C19.3734 15.5 21.5 13.3734 21.5 10.75V4.75C21.5 2.12665 19.3734 0 16.75 0H4.75ZM13.2803 11.0303L16.0303 8.28033C16.3232 7.98744 16.3232 7.51256 16.0303 7.21967L13.2803 4.46967C12.9874 4.17678 12.5126 4.17678 12.2197 4.46967C11.9268 4.76256 11.9268 5.23744 12.2197 5.53033L13.6893 7H5.5C5.08579 7 4.75 7.33579 4.75 7.75C4.75 8.16421 5.08579 8.5 5.5 8.5H13.6893L12.2197 9.96967C11.9268 10.2626 11.9268 10.7374 12.2197 11.0303C12.5126 11.3232 12.9874 11.3232 13.2803 11.0303Z" fill="#292927"/>
</g>
</svg>
