<svg preserveAspectRatio="xMidYMid meet" overflow="visible" style="display: block;" viewBox="0 0 24 24" fill="none" xmlns="http://www.w3.org/2000/svg">
<g transform="translate(6.0000, 1.2500)">
<path id="Vector" fill-rule="evenodd" clip-rule="evenodd" d="M5.46301 0.0571123C5.74327 -0.0589735 6.06586 0.00519335 6.28035 0.219692L11.7804 5.71969C11.9307 5.87001 12.0101 6.07705 11.999 6.28933C11.9879 6.50162 11.8871 6.6992 11.7219 6.83296L6.88319 10.75L11.7219 14.6671C11.8871 14.8008 11.9879 14.9984 11.999 15.2107C12.0101 15.423 11.9307 15.63 11.7804 15.7804L6.28035 21.2804C6.06586 21.4949 5.74327 21.559 5.46301 21.4429C5.18276 21.3268 5.00002 21.0534 5.00002 20.75V12.2745L1.22192 15.333C0.899978 15.5936 0.427714 15.5439 0.167091 15.2219C-0.0935312 14.9 -0.0438191 14.4277 0.278126 14.1671L4.49921 10.75L0.278126 7.33296C-0.0438191 7.07233 -0.0935312 6.60007 0.167091 6.27812C0.427714 5.95618 0.899978 5.90647 1.22192 6.16709L5.00002 9.22555V0.750022C5.00002 0.446675 5.18276 0.173198 5.46301 0.0571123ZM6.50002 12.3697L10.1306 15.3088L6.50002 18.9394V12.3697ZM6.50002 9.13031V2.56068L10.1306 6.19127L6.50002 9.13031Z" fill="#292927"/>
</g>
</svg>
