<svg preserveAspectRatio="xMidYMid meet" overflow="visible" style="display: block;" viewBox="0 0 24 24" fill="none" xmlns="http://www.w3.org/2000/svg">
<g transform="translate(1.2500, 1.2500)">
<path id="Vector" fill-rule="evenodd" clip-rule="evenodd" d="M1 3.33159C0.408763 3.05073 0 2.4481 0 1.75C0 0.783502 0.783502 0 1.75 0C2.4481 0 3.05073 0.408763 3.33159 1H18.1684C18.4493 0.408763 19.0519 0 19.75 0C20.7165 0 21.5 0.783502 21.5 1.75C21.5 2.7165 20.7165 3.5 19.75 3.5C19.0519 3.5 18.4493 3.09124 18.1684 2.5H3.33159C3.15871 2.86392 2.86392 3.15871 2.5 3.33159V18.1684C3.09124 18.4493 3.5 19.0519 3.5 19.75C3.5 20.7165 2.7165 21.5 1.75 21.5C0.783502 21.5 0 20.7165 0 19.75C0 19.0519 0.408763 18.4493 1 18.1684V3.33159ZM20.5 15.75C20.5 15.3358 20.1642 15 19.75 15C19.3358 15 19 15.3358 19 15.75V19H15.75C15.3358 19 15 19.3358 15 19.75C15 20.1642 15.3358 20.5 15.75 20.5H19.15C19.8956 20.5 20.5 19.8956 20.5 19.15V15.75ZM19.75 5C20.1642 5 20.5 5.33579 20.5 5.75V7.75C20.5 8.16421 20.1642 8.5 19.75 8.5C19.3358 8.5 19 8.16421 19 7.75V5.75C19 5.33579 19.3358 5 19.75 5ZM20.5 10.75C20.5 10.3358 20.1642 10 19.75 10C19.3358 10 19 10.3358 19 10.75V12.75C19 13.1642 19.3358 13.5 19.75 13.5C20.1642 13.5 20.5 13.1642 20.5 12.75V10.75ZM5 19.75C5 19.3358 5.33579 19 5.75 19H7.75C8.16421 19 8.5 19.3358 8.5 19.75C8.5 20.1642 8.16421 20.5 7.75 20.5H5.75C5.33579 20.5 5 20.1642 5 19.75ZM10.75 19C10.3358 19 10 19.3358 10 19.75C10 20.1642 10.3358 20.5 10.75 20.5H12.75C13.1642 20.5 13.5 20.1642 13.5 19.75C13.5 19.3358 13.1642 19 12.75 19H10.75Z" fill="#292927"/>
</g>
</svg>
