<svg preserveAspectRatio="xMidYMid meet" overflow="visible" style="display: block;" viewBox="0 0 24 24" fill="none" xmlns="http://www.w3.org/2000/svg">
<g transform="translate(0.2500, 1.2500)">
<path id="Vector" fill-rule="evenodd" clip-rule="evenodd" d="M3.75 1.5C2.50736 1.5 1.5 2.50736 1.5 3.75C1.5 4.99264 2.50736 6 3.75 6C4.4163 6 5.01419 5.71132 5.42726 5.24981C5.78398 4.85125 6 4.32675 6 3.75C6 2.50736 4.99264 1.5 3.75 1.5ZM0 3.75C0 1.67893 1.67893 0 3.75 0C5.82107 0 7.5 1.67893 7.5 3.75C7.5 4.43453 7.31609 5.07702 6.9954 5.62973L11.7879 9.75991L18.2604 4.18187C18.5742 3.91146 19.0477 3.94661 19.3181 4.26038C19.5885 4.57415 19.5534 5.04772 19.2396 5.31813L12.9367 10.75L19.2396 16.1819C19.5534 16.4523 19.5885 16.9258 19.3181 17.2396C19.0477 17.5534 18.5742 17.5885 18.2604 17.3181L11.7879 11.7401L6.9954 15.8703C7.31609 16.423 7.5 17.0655 7.5 17.75C7.5 19.8211 5.82107 21.5 3.75 21.5C1.67893 21.5 0 19.8211 0 17.75C0 15.6789 1.67893 14 3.75 14C4.59359 14 5.37257 14.2791 5.99882 14.749L10.639 10.75L5.99882 6.75105C5.37257 7.2209 4.59359 7.5 3.75 7.5C1.67893 7.5 0 5.82107 0 3.75ZM16.75 10C16.3358 10 16 10.3358 16 10.75C16 11.1642 16.3358 11.5 16.75 11.5H17.75C18.1642 11.5 18.5 11.1642 18.5 10.75C18.5 10.3358 18.1642 10 17.75 10H16.75ZM21.75 10C21.3358 10 21 10.3358 21 10.75C21 11.1642 21.3358 11.5 21.75 11.5H22.75C23.1642 11.5 23.5 11.1642 23.5 10.75C23.5 10.3358 23.1642 10 22.75 10H21.75ZM1.5 17.75C1.5 18.9926 2.50736 20 3.75 20C4.99264 20 6 18.9926 6 17.75C6 17.1733 5.78398 16.6488 5.42726 16.2502C5.01419 15.7887 4.4163 15.5 3.75 15.5C2.50736 15.5 1.5 16.5074 1.5 17.75Z" fill="#292927"/>
</g>
</svg>
