<svg preserveAspectRatio="xMidYMid meet" overflow="visible" style="display: block;" viewBox="0 0 24 24" fill="none" xmlns="http://www.w3.org/2000/svg">
<g transform="translate(3.2500, 3.2500)">
<path id="Vector" fill-rule="evenodd" clip-rule="evenodd" d="M1.5 8.75C1.5 4.74594 4.74594 1.5 8.75 1.5C9.6098 1.5 10.4331 1.64935 11.1964 1.92289C11.5863 2.06263 12.0157 1.85981 12.1554 1.46988C12.2951 1.07995 12.0923 0.650569 11.7024 0.510827C10.7791 0.179925 9.78472 0 8.75 0C3.91751 0 0 3.91751 0 8.75C0 13.5825 3.91751 17.5 8.75 17.5C13.5825 17.5 17.5 13.5825 17.5 8.75C17.5 8.33579 17.1642 8 16.75 8C16.3358 8 16 8.33579 16 8.75C16 12.7541 12.7541 16 8.75 16C4.74594 16 1.5 12.7541 1.5 8.75ZM6.28032 7.21967C5.98743 6.92678 5.51255 6.92678 5.21966 7.21967C4.92677 7.51256 4.92677 7.98744 5.21966 8.28033L8.21966 11.2803C8.51255 11.5732 8.98743 11.5732 9.28032 11.2803L17.2803 3.28033C17.5732 2.98743 17.5732 2.51256 17.2803 2.21967C16.9874 1.92677 16.5126 1.92677 16.2197 2.21967L8.74999 9.68934L6.28032 7.21967Z" fill="#292927"/>
</g>
</svg>
