<svg preserveAspectRatio="xMidYMid meet" overflow="visible" style="display: block;" viewBox="0 0 24 24" fill="none" xmlns="http://www.w3.org/2000/svg">
<g transform="translate(5.2500, 2.2500)">
<path id="Vector" fill-rule="evenodd" clip-rule="evenodd" d="M3.75 1.5C3.15326 1.5 2.58097 1.73705 2.15901 2.15901C1.73705 2.58097 1.5 3.15326 1.5 3.75C1.5 4.34674 1.73705 4.91903 2.15901 5.34099C2.58097 5.76295 3.15326 6 3.75 6H6V1.5H3.75ZM6 13.5H3.75C3.15326 13.5 2.58097 13.7371 2.15901 14.159C1.73705 14.581 1.5 15.1533 1.5 15.75C1.5 16.3467 1.73705 16.919 2.15901 17.341C2.58097 17.7629 3.15326 18 3.75 18C4.34674 18 4.91903 17.7629 5.34099 17.341C5.76295 16.919 6 16.3467 6 15.75V13.5ZM1.49997 12.75C1.35884 12.8559 1.22456 12.9721 1.09835 13.0983C0.395088 13.8016 0 14.7554 0 15.75C0 16.7446 0.395088 17.6984 1.09835 18.4017C1.80161 19.1049 2.75544 19.5 3.75 19.5C4.74456 19.5 5.69839 19.1049 6.40165 18.4017C7.10491 17.6984 7.5 16.7446 7.5 15.75V12.75C7.75057 12.9379 8.02427 13.0942 8.31494 13.2145C8.76991 13.403 9.25754 13.5 9.75 13.5C10.2425 13.5 10.7301 13.403 11.1851 13.2145C11.64 13.0261 12.0534 12.7499 12.4017 12.4017C12.7499 12.0534 13.0261 11.64 13.2145 11.1851C13.403 10.7301 13.5 10.2425 13.5 9.75C13.5 9.25754 13.403 8.76991 13.2145 8.31494C13.0261 7.85997 12.7499 7.44657 12.4017 7.09835C12.2759 6.9726 12.1416 6.85623 12 6.75C12.1416 6.64377 12.2759 6.5274 12.4017 6.40165C12.7499 6.05343 13.0261 5.64003 13.2145 5.18506C13.403 4.73009 13.5 4.24246 13.5 3.75C13.5 3.25754 13.403 2.76991 13.2145 2.31494C13.0261 1.85997 12.7499 1.44657 12.4017 1.09835C12.0534 0.750129 11.64 0.473907 11.1851 0.285452C10.7301 0.0969965 10.2425 0 9.75 0H6.75H3.75C2.75544 0 1.80161 0.395088 1.09835 1.09835C0.395088 1.80161 0 2.75544 0 3.75C0 4.74456 0.395088 5.69839 1.09835 6.40165C1.22456 6.52786 1.35884 6.64414 1.49998 6.75C1.35884 6.85586 1.22456 6.97214 1.09835 7.09835C0.395088 7.80161 0 8.75544 0 9.75C0 10.7446 0.395088 11.6984 1.09835 12.4017C1.22456 12.5279 1.35884 12.6441 1.49997 12.75ZM3.75 7.5C3.15326 7.5 2.58097 7.73705 2.15901 8.15901C1.73705 8.58097 1.5 9.15326 1.5 9.75C1.5 10.3467 1.73705 10.919 2.15901 11.341C2.58097 11.7629 3.15326 12 3.75 12H6V9.75V7.5H3.75ZM7.5 9.75C7.5 10.0455 7.5582 10.3381 7.67127 10.611C7.78434 10.884 7.95008 11.1321 8.15901 11.341C8.36794 11.5499 8.61598 11.7157 8.88896 11.8287C9.16195 11.9418 9.45452 12 9.75 12C10.0455 12 10.3381 11.9418 10.611 11.8287C10.884 11.7157 11.1321 11.5499 11.341 11.341C11.5499 11.1321 11.7157 10.884 11.8287 10.611C11.9418 10.3381 12 10.0455 12 9.75C12 9.45453 11.9418 9.16195 11.8287 8.88896C11.7157 8.61598 11.5499 8.36794 11.341 8.15901C11.1321 7.95008 10.884 7.78434 10.611 7.67127C10.3381 7.5582 10.0455 7.5 9.75 7.5C9.45452 7.5 9.16195 7.5582 8.88896 7.67127C8.61598 7.78434 8.36794 7.95008 8.15901 8.15901C7.95008 8.36794 7.78434 8.61598 7.67127 8.88896C7.5582 9.16195 7.5 9.45452 7.5 9.75ZM9.75 6C10.0455 6 10.3381 5.9418 10.611 5.82873C10.884 5.71566 11.1321 5.54992 11.341 5.34099C11.5499 5.13206 11.7157 4.88402 11.8287 4.61104C11.9418 4.33805 12 4.04547 12 3.75C12 3.45453 11.9418 3.16195 11.8287 2.88896C11.7157 2.61598 11.5499 2.36794 11.341 2.15901C11.1321 1.95008 10.884 1.78434 10.611 1.67127C10.3381 1.5582 10.0455 1.5 9.75 1.5H7.5V6H9.75Z" fill="#292927"/>
</g>
</svg>
