<svg preserveAspectRatio="xMidYMid meet" overflow="visible" style="display: block;" viewBox="0 0 24 24" fill="none" xmlns="http://www.w3.org/2000/svg">
<g transform="translate(3.2500, 1.2500)">
<path id="Vector" fill-rule="evenodd" clip-rule="evenodd" d="M5.75 0C5.33579 0 5 0.335787 5 0.750001C5 1.16421 5.33579 1.5 5.75 1.5L11.75 1.5C12.1642 1.5 12.5 1.16421 12.5 0.75C12.5 0.335786 12.1642 0 11.75 0H5.75ZM2.28955 5.22906C2.00184 4.93107 1.52704 4.92274 1.22905 5.21045C0.931069 5.49816 0.922739 5.97296 1.21045 6.27095L2.04165 7.13184C0.767829 8.65144 0 10.6117 0 12.75C0 17.5825 3.91751 21.5 8.75 21.5C10.7777 21.5 12.6458 20.8094 14.1295 19.6514L15.2105 20.7709C15.4982 21.0689 15.973 21.0773 16.2709 20.7896C16.5689 20.5018 16.5773 20.027 16.2896 19.7291L9.5 12.697L9.5 8.75C9.5 8.33579 9.16421 8 8.75 8C8.33579 8 8 8.33579 8 8.75L8 11.1434L2.28955 5.22906ZM13.0807 18.5651L3.09054 8.21818C2.09484 9.45978 1.5 11.0348 1.5 12.75C1.5 16.7541 4.74594 20 8.75 20C10.3741 20 11.8721 19.4668 13.0807 18.5651ZM6.22148 5.9529C7.00776 5.66027 7.85931 5.5 8.75 5.5C12.7541 5.5 16 8.74594 16 12.75C16 13.7128 15.8127 14.63 15.4733 15.4686C15.3179 15.8525 15.5031 16.2898 15.8871 16.4452C16.271 16.6006 16.7083 16.4154 16.8637 16.0314C17.2743 15.0171 17.5 13.909 17.5 12.75C17.5 7.91751 13.5825 4 8.75 4C7.67803 4 6.64945 4.19311 5.69829 4.5471C5.31009 4.69158 5.11251 5.12339 5.25698 5.5116C5.40146 5.8998 5.83328 6.09738 6.22148 5.9529Z" fill="#292927"/>
</g>
</svg>
