<svg preserveAspectRatio="xMidYMid meet" overflow="visible" style="display: block;" viewBox="0 0 24 24" fill="none" xmlns="http://www.w3.org/2000/svg">
<g transform="translate(1.2500, 1.2500)">
<path id="Vector" fill-rule="evenodd" clip-rule="evenodd" d="M2.75 1.5C2.05964 1.5 1.5 2.05964 1.5 2.75V15.75C1.5 16.4404 2.05964 17 2.75 17H18.75C19.4404 17 20 16.4404 20 15.75V2.75C20 2.05964 19.4404 1.5 18.75 1.5H2.75ZM0 2.75C0 1.23122 1.23122 0 2.75 0H18.75C20.2688 0 21.5 1.23122 21.5 2.75V15.75C21.5 17.2688 20.2688 18.5 18.75 18.5H2.75C1.23122 18.5 0 17.2688 0 15.75V2.75ZM5 20.75C5 20.3358 5.33579 20 5.75 20H15.75C16.1642 20 16.5 20.3358 16.5 20.75C16.5 21.1642 16.1642 21.5 15.75 21.5H5.75C5.33579 21.5 5 21.1642 5 20.75ZM11.417 4.14363C10.9791 4.03415 10.5209 4.03415 10.083 4.14363L7.02258 4.90874C6.42146 5.05903 5.98946 5.60773 6.00656 6.24188C6.09882 9.66147 7.1519 11.7239 8.26611 12.9404C8.81754 13.5425 9.36896 13.9207 9.79294 14.1508C10.0047 14.2658 10.1848 14.3439 10.3174 14.3947C10.3838 14.4201 10.4385 14.4387 10.4795 14.4518C10.5 14.4583 10.5171 14.4634 10.5306 14.4673L10.548 14.4723L10.5547 14.4741L10.5575 14.4748L10.5587 14.4752C10.5593 14.4753 10.5599 14.4755 10.75 13.75L10.5599 14.4755C10.6845 14.5081 10.8155 14.5081 10.9401 14.4755L10.75 13.75C10.9401 14.4755 10.9407 14.4753 10.9413 14.4752L10.9425 14.4748L10.9453 14.4741L10.952 14.4723L10.9694 14.4673C10.9829 14.4634 11 14.4583 11.0205 14.4518C11.0616 14.4387 11.1162 14.4201 11.1826 14.3947C11.3152 14.3439 11.4953 14.2658 11.7071 14.1508C12.1311 13.9207 12.6825 13.5425 13.2339 12.9404C14.3481 11.7239 15.4012 9.66147 15.4934 6.24188C15.5106 5.60773 15.0786 5.05903 14.4774 4.90874L11.417 4.14363ZM10.9914 12.8325C10.8984 12.883 10.8169 12.9219 10.75 12.9511C10.6832 12.9219 10.6016 12.883 10.5086 12.8325C10.2112 12.6711 9.79725 12.3913 9.37227 11.9273C8.54556 11.0246 7.61666 9.35805 7.51011 6.33303L10.4468 5.59885C10.6459 5.54908 10.8541 5.54908 11.0532 5.59885L13.9899 6.33303C13.8833 9.35805 12.9544 11.0246 12.1277 11.9273C11.7028 12.3913 11.2888 12.6711 10.9914 12.8325Z" fill="#292927"/>
</g>
</svg>
