<svg preserveAspectRatio="xMidYMid meet" overflow="visible" style="display: block;" viewBox="0 0 24 24" fill="none" xmlns="http://www.w3.org/2000/svg">
<g transform="translate(3.2500, 3.2500)">
<path id="Vector" fill-rule="evenodd" clip-rule="evenodd" d="M4.75 0C5.16421 0 5.5 0.335786 5.5 0.75C5.5 1.16421 5.16421 1.5 4.75 1.5H2.56066L6.28033 5.21967C6.57322 5.51256 6.57322 5.98744 6.28033 6.28033C5.98744 6.57322 5.51256 6.57322 5.21967 6.28033L1.5 2.56066V4.75C1.5 5.16421 1.16421 5.5 0.75 5.5C0.335786 5.5 0 5.16421 0 4.75V0.75C0 0.335786 0.335786 0 0.75 0H4.75ZM12.75 0C12.3358 0 12 0.335786 12 0.75C12 1.16421 12.3358 1.5 12.75 1.5H14.9393L11.2197 5.21967C10.9268 5.51256 10.9268 5.98744 11.2197 6.28033C11.5126 6.57322 11.9874 6.57322 12.2803 6.28033L16 2.56066V4.75C16 5.16421 16.3358 5.5 16.75 5.5C17.1642 5.5 17.5 5.16421 17.5 4.75V0.75C17.5 0.335786 17.1642 0 16.75 0H12.75ZM5.5 16.75C5.5 17.1642 5.16421 17.5 4.75 17.5H0.75C0.335786 17.5 0 17.1642 0 16.75V12.75C0 12.3358 0.335786 12 0.75 12C1.16421 12 1.5 12.3358 1.5 12.75V14.9393L5.21967 11.2197C5.51256 10.9268 5.98744 10.9268 6.28033 11.2197C6.57322 11.5126 6.57322 11.9874 6.28033 12.2803L2.56066 16H4.75C5.16421 16 5.5 16.3358 5.5 16.75ZM12.75 17.5C12.3358 17.5 12 17.1642 12 16.75C12 16.3358 12.3358 16 12.75 16H14.9393L11.2197 12.2803C10.9268 11.9874 10.9268 11.5126 11.2197 11.2197C11.5126 10.9268 11.9874 10.9268 12.2803 11.2197L16 14.9393V12.75C16 12.3358 16.3358 12 16.75 12C17.1642 12 17.5 12.3358 17.5 12.75V16.75C17.5 17.1642 17.1642 17.5 16.75 17.5H12.75Z" fill="#292927"/>
</g>
</svg>
