<svg preserveAspectRatio="xMidYMid meet" overflow="visible" style="display: block;" viewBox="0 0 24 24" fill="none" xmlns="http://www.w3.org/2000/svg">
<g transform="translate(1.4999, 2.2499)">
<path id="Vector" fill-rule="evenodd" clip-rule="evenodd" d="M8.5 0.75C8.5 0.335786 8.16421 0 7.75 0C7.33579 0 7 0.335786 7 0.75V2H0.75C0.335786 2 0 2.33579 0 2.75C0 3.16421 0.335786 3.5 0.75 3.5H11.2012C10.436 5.49282 9.19207 7.41286 7.74312 9.18538C7.38493 8.74912 6.9945 8.24199 6.63048 7.74401C6.05398 6.95535 5.58928 6.2515 5.42082 5.91459C5.23558 5.54411 4.78507 5.39394 4.41459 5.57918C4.04411 5.76442 3.89394 6.21493 4.07918 6.58541C4.31072 7.0485 4.84602 7.84465 5.41952 8.62921C5.84778 9.21508 6.32242 9.8285 6.75294 10.3409C5.27896 11.986 3.69102 13.4556 2.26191 14.6806C1.94741 14.9501 1.91099 15.4236 2.18056 15.7381C2.45012 16.0526 2.9236 16.089 3.23809 15.8194C4.67222 14.5902 6.28183 13.1039 7.79239 11.4283L10.2281 13.7886C10.5255 14.0769 11.0003 14.0694 11.2886 13.7719C11.5769 13.4745 11.5694 12.9997 11.2719 12.7114L8.77517 10.2919C10.4621 8.25411 11.9568 5.95445 12.7967 3.5H14.75C15.1642 3.5 15.5 3.16421 15.5 2.75C15.5 2.33579 15.1642 2 14.75 2H8.5V0.75ZM16.9509 7.983C16.8401 7.69219 16.5612 7.5 16.25 7.5C15.9388 7.5 15.6599 7.69219 15.5491 7.983L11.5491 18.483C11.4017 18.8701 11.5959 19.3034 11.983 19.4509C12.3701 19.5983 12.8034 19.4041 12.9509 19.017L13.9097 16.5H18.5903L19.5491 19.017C19.6966 19.4041 20.1299 19.5983 20.517 19.4509C20.9041 19.3034 21.0983 18.8701 20.9509 18.483L16.9509 7.983ZM16.25 10.3568L18.0189 15H14.4812L16.25 10.3568Z" fill="#292927"/>
</g>
</svg>
