<svg preserveAspectRatio="xMidYMid meet" overflow="visible" style="display: block;" viewBox="0 0 24 24" fill="none" xmlns="http://www.w3.org/2000/svg">
<g transform="translate(1.2500, 4.2500)">
<path id="Vector" fill-rule="evenodd" clip-rule="evenodd" d="M0 2.75C0 1.23122 1.23122 0 2.75 0H18.75C20.2688 0 21.5 1.23122 21.5 2.75V12.75C21.5 14.2688 20.2688 15.5 18.75 15.5H2.75C1.23122 15.5 0 14.2688 0 12.75V2.75ZM2.75 1.5C2.05964 1.5 1.5 2.05964 1.5 2.75V12.75C1.5 13.4404 2.05964 14 2.75 14H18.75C19.4404 14 20 13.4404 20 12.75V5.5H4.75C4.33579 5.5 4 5.16421 4 4.75C4 4.33579 4.33579 4 4.75 4H20V2.75C20 2.05964 19.4404 1.5 18.75 1.5H2.75ZM15.5804 9.80545C15.3714 9.90814 15.1262 9.90676 14.9196 9.80545C14.8573 9.77493 14.7985 9.73534 14.7453 9.6868C14.6127 9.56999 14.4404 9.5 14.25 9.5C13.8358 9.5 13.5 9.83579 13.5 10.25C13.5 10.6642 13.8358 11 14.25 11C14.4404 11 14.6127 10.93 14.7453 10.8132C14.8871 10.6839 15.0682 10.6181 15.25 10.618C15.363 10.618 15.4762 10.6433 15.5804 10.6945C15.6427 10.7251 15.7015 10.7647 15.7547 10.8132C15.8873 10.93 16.0596 11 16.25 11C16.6642 11 17 10.6642 17 10.25C17 9.83579 16.6642 9.5 16.25 9.5C16.0596 9.5 15.8873 9.56999 15.7547 9.6868C15.7015 9.73534 15.6427 9.77493 15.5804 9.80545ZM15.25 12.2659C15.5514 12.4156 15.8912 12.5 16.25 12.5C17.4926 12.5 18.5 11.4926 18.5 10.25C18.5 9.00736 17.4926 8 16.25 8C15.8912 8 15.5514 8.08438 15.25 8.23409C14.9486 8.08438 14.6088 8 14.25 8C13.0074 8 12 9.00736 12 10.25C12 11.4926 13.0074 12.5 14.25 12.5C14.6088 12.5 14.9486 12.4156 15.25 12.2659Z" fill="#292927"/>
</g>
</svg>
