<svg preserveAspectRatio="xMidYMid meet" overflow="visible" style="display: block;" viewBox="0 0 24 24" fill="none" xmlns="http://www.w3.org/2000/svg">
<g transform="translate(1.7500, 5.7495)">
<path id="Vector" fill-rule="evenodd" clip-rule="evenodd" d="M13.3175 1.25173C13.5946 0.943848 13.5696 0.469631 13.2617 0.192536C12.9538 -0.0845583 12.4796 -0.0595998 12.2025 0.248283L12.1925 0.259394C11.9154 0.567276 11.9404 1.04149 12.2483 1.31859C12.5562 1.59568 13.0304 1.57072 13.3075 1.26284L13.3175 1.25173ZM6.5 9.75098C6.5 6.2992 9.29822 3.50098 12.75 3.50098C16.2018 3.50098 19 6.2992 19 9.75098V11.001H6.5V9.75098ZM0.75 11.001H5V9.75098C5 5.47077 8.46979 2.00098 12.75 2.00098C17.0302 2.00098 20.5 5.47077 20.5 9.75098V11.751C20.5 12.1652 20.1642 12.501 19.75 12.501H0.75C0.335786 12.501 0 12.1652 0 11.751C0 11.3368 0.335786 11.001 0.75 11.001Z" fill="#292927"/>
</g>
</svg>
