<svg preserveAspectRatio="xMidYMid meet" overflow="visible" style="display: block;" viewBox="0 0 24 24" fill="none" xmlns="http://www.w3.org/2000/svg">
<g transform="translate(1.2499, 2.2853)">
<path id="Vector" fill-rule="evenodd" clip-rule="evenodd" d="M0.414754 5.00836C0.0442702 5.1936 -0.105898 5.64411 0.0793439 6.01459C0.264586 6.38507 0.715091 6.53524 1.08557 6.35L10.7502 1.51771L20.4148 6.35C20.7852 6.53524 21.2357 6.38508 21.421 6.01459C21.6062 5.64411 21.4561 5.1936 21.0856 5.00836L11.3539 0.142523C10.9738 -0.0475085 10.5265 -0.0475071 10.1464 0.142523L0.414754 5.00836ZM3.50017 8.67934C3.50017 8.26513 3.16438 7.92934 2.75017 7.92934C2.33595 7.92934 2.00017 8.26513 2.00017 8.67934V16.6793C2.00017 18.1981 3.23138 19.4293 4.75017 19.4293H16.7502C18.269 19.4293 19.5002 18.1981 19.5002 16.6793V8.67934C19.5002 8.26513 19.1644 7.92934 18.7502 7.92934C18.336 7.92934 18.0002 8.26513 18.0002 8.67934V16.6793C18.0002 17.3697 17.4405 17.9293 16.7502 17.9293H4.75017C4.05981 17.9293 3.50017 17.3697 3.50017 16.6793V8.67934ZM10.7502 12.4293C10.0598 12.4293 9.50017 12.989 9.50017 13.6793C9.50017 14.3697 10.0598 14.9293 10.7502 14.9293C11.4405 14.9293 12.0002 14.3697 12.0002 13.6793C12.0002 12.989 11.4405 12.4293 10.7502 12.4293ZM10.0002 11.0329C8.84591 11.3593 8.00017 12.4206 8.00017 13.6793C8.00017 15.1981 9.23138 16.4293 10.7502 16.4293C12.269 16.4293 13.5002 15.1981 13.5002 13.6793C13.5002 12.4206 12.6544 11.3593 11.5002 11.0329V10.4293H12.7502C13.1644 10.4293 13.5002 10.0936 13.5002 9.67934C13.5002 9.26513 13.1644 8.92934 12.7502 8.92934H11.5002V7.42934H12.7502C13.1644 7.42934 13.5002 7.09356 13.5002 6.67934C13.5002 6.26513 13.1644 5.92934 12.7502 5.92934H11.5002V5.17934C11.5002 4.76513 11.1644 4.42934 10.7502 4.42934C10.336 4.42934 10.0002 4.76513 10.0002 5.17934V6.67934V9.67934V11.0329Z" fill="#292927"/>
</g>
</svg>
