<svg preserveAspectRatio="xMidYMid meet" overflow="visible" style="display: block;" viewBox="0 0 24 24" fill="none" xmlns="http://www.w3.org/2000/svg">
<g transform="translate(2.2843, 1.5087)">
<path id="Vector" fill-rule="evenodd" clip-rule="evenodd" d="M1.51697 3.08503L1.5712 3.49174C1.78472 3.63937 2.06238 3.78835 2.40928 3.93225C2.95582 4.15896 3.63083 4.35534 4.40369 4.51564C5.94933 4.83621 7.82513 5 9.71566 5C11.6062 5 13.482 4.8362 15.0276 4.51563C15.8005 4.35533 16.4755 4.15895 17.022 3.93224C17.3689 3.78834 17.6466 3.63936 17.8601 3.49174L17.9144 3.08503C17.1893 2.62075 14.904 1.5 9.71566 1.5C4.52732 1.5 2.24204 2.62075 1.51697 3.08503ZM2.47614 10.2788L1.8135 5.30901L1.83455 5.31778C2.49337 5.59107 3.26479 5.81135 4.09907 5.98438C5.76771 6.33047 7.74905 6.5 9.71566 6.5C11.6823 6.5 13.6636 6.33046 15.3323 5.98437C16.1665 5.81133 16.938 5.59105 17.5968 5.31777L17.6178 5.30901L16.9552 10.2788C16.3047 9.95221 15.5394 9.70539 14.7432 9.51962C13.2463 9.17034 11.4729 9 9.71568 9C7.95843 9 6.18503 9.17033 4.68812 9.51961C3.89192 9.70538 3.12667 9.95221 2.47614 10.2788ZM2.90653 11.7499C3.33017 11.9963 3.91053 12.2277 4.64285 12.4232C5.81183 12.7353 7.24608 12.9244 8.74426 12.9816C10.5656 13.051 12.4411 12.9239 13.9981 12.6077C14.7767 12.4496 15.4584 12.2477 16.007 12.0091C16.2019 11.9243 16.3741 11.8375 16.5247 11.7499C16.0253 11.4595 15.3122 11.1927 14.4024 10.9804C13.0422 10.663 11.387 10.5 9.71568 10.5C8.04437 10.5 6.38919 10.663 5.02896 10.9804C4.11904 11.1927 3.40599 11.4596 2.90653 11.7499ZM1.21612 12.1782L1.14624 12.2381C1.17576 12.2726 1.20625 12.3065 1.23767 12.3399L1.71062 15.8869C1.9064 17.3553 2.77607 18.6483 4.06229 19.3833L4.38217 19.5661C7.68707 21.4546 11.7443 21.4546 15.0492 19.5661L15.369 19.3833C16.6553 18.6483 17.5249 17.3553 17.7207 15.8869L18.1936 12.34C18.225 12.3066 18.2555 12.2726 18.2851 12.2381L18.2152 12.1782L19.4199 3.14303C19.4748 2.73112 19.3356 2.2504 18.9193 1.95403C18.0678 1.34774 15.5181 0 9.71566 0C3.9132 0 1.36351 1.34774 0.511991 1.95403C0.0957431 2.2504 -0.0434936 2.73112 0.011427 3.14303L1.21612 12.1782ZM16.5372 13.4139L16.2339 15.6887C16.0999 16.6934 15.5049 17.5781 14.6248 18.0809L14.3049 18.2637C14.0308 18.4204 13.7507 18.5619 13.4657 18.6884V14.2259C13.7493 14.1819 14.0268 14.1325 14.2967 14.0777C15.1156 13.9114 15.8799 13.6923 16.5372 13.4139ZM5.12638 18.2637C7.22688 19.464 9.68055 19.7777 11.9657 19.2049V14.405C10.8939 14.4974 9.77759 14.5221 8.68711 14.4805C7.11033 14.4204 5.56033 14.2207 4.25594 13.8725C3.78097 13.7457 3.32009 13.5944 2.89416 13.4139L3.19746 15.6887C3.33142 16.6934 3.92645 17.5781 4.8065 18.0809L5.12638 18.2637Z" fill="#292927"/>
</g>
</svg>
