<svg preserveAspectRatio="xMidYMid meet" overflow="visible" style="display: block;" viewBox="0 0 24 24" fill="none" xmlns="http://www.w3.org/2000/svg">
<g transform="translate(1.2500, 1.2500)">
<path id="Vector" fill-rule="evenodd" clip-rule="evenodd" d="M1.5 10.75C1.5 5.64137 5.64137 1.5 10.75 1.5C15.8586 1.5 20 5.64137 20 10.75C20 15.8586 15.8586 20 10.75 20C5.64137 20 1.5 15.8586 1.5 10.75ZM10.75 0C4.81294 0 0 4.81294 0 10.75C0 16.6871 4.81294 21.5 10.75 21.5C16.6871 21.5 21.5 16.6871 21.5 10.75C21.5 4.81294 16.6871 0 10.75 0ZM6 9.25C6 9.38807 6.11193 9.5 6.25 9.5C6.38807 9.5 6.5 9.38807 6.5 9.25C6.5 9.11193 6.38807 9 6.25 9C6.11193 9 6 9.11193 6 9.25ZM6.25 8C6.94036 8 7.5 8.55964 7.5 9.25C7.5 9.94036 6.94036 10.5 6.25 10.5C5.55964 10.5 5 9.94036 5 9.25C5 8.55964 5.55964 8 6.25 8ZM11.75 15.5C11.8881 15.5 12 15.6119 12 15.75C12 15.8881 11.8881 16 11.75 16C11.6119 16 11.5 15.8881 11.5 15.75C11.5 15.6119 11.6119 15.5 11.75 15.5ZM13.5 15.75C13.5 14.7835 12.7165 14 11.75 14C10.7835 14 10 14.7835 10 15.75C10 16.7165 10.7835 17.5 11.75 17.5C12.7165 17.5 13.5 16.7165 13.5 15.75ZM10.3175 6.25075C10.5946 5.94287 10.5696 5.46865 10.2617 5.19156C9.95384 4.91446 9.47962 4.93942 9.20253 5.24731L9.19253 5.25842C8.91543 5.5663 8.94039 6.04052 9.24827 6.31761C9.55616 6.59471 10.0304 6.56975 10.3075 6.26186L10.3175 6.25075ZM7.26172 14.1916C7.5696 14.4687 7.59456 14.9429 7.31747 15.2508L7.30747 15.2619C7.03037 15.5697 6.55616 15.5947 6.24827 15.3176C5.94039 15.0405 5.91543 14.5663 6.19253 14.2584L6.20253 14.2473C6.47962 13.9394 6.95384 13.9145 7.26172 14.1916ZM15.3175 8.25075C15.5946 7.94287 15.5696 7.46865 15.2617 7.19156C14.9538 6.91446 14.4796 6.93942 14.2025 7.24731L14.1925 7.25842C13.9154 7.5663 13.9404 8.04052 14.2483 8.31761C14.5562 8.59471 15.0304 8.56975 15.3075 8.26186L15.3175 8.25075ZM16.2617 12.1916C16.5696 12.4687 16.5946 12.9429 16.3175 13.2508L16.3075 13.2619C16.0304 13.5697 15.5562 13.5947 15.2483 13.3176C14.9404 13.0405 14.9154 12.5663 15.1925 12.2584L15.2025 12.2473C15.4796 11.9394 15.9538 11.9145 16.2617 12.1916ZM12.3175 11.2508C12.5946 10.9429 12.5696 10.4687 12.2617 10.1916C11.9538 9.91446 11.4796 9.93942 11.2025 10.2473L11.1925 10.2584C10.9154 10.5663 10.9404 11.0405 11.2483 11.3176C11.5562 11.5947 12.0304 11.5697 12.3075 11.2619L12.3175 11.2508Z" fill="#292927"/>
</g>
</svg>
