<svg preserveAspectRatio="xMidYMid meet" overflow="visible" style="display: block;" viewBox="0 0 24 24" fill="none" xmlns="http://www.w3.org/2000/svg">
<g transform="translate(1.2487, 1.7495)">
<path id="Vector" fill-rule="evenodd" clip-rule="evenodd" d="M10.6656 1.52202C10.646 1.53355 10.6255 1.55194 10.608 1.58726L8.01046 6.81947C7.90097 7.04001 7.69021 7.19276 7.44655 7.22817L1.6377 8.07237C1.50259 8.09201 1.46101 8.24811 1.54882 8.33315L5.75133 12.403C5.92945 12.5755 6.0108 12.8249 5.96865 13.0693L4.97685 18.8189C4.97024 18.8572 4.97599 18.8829 4.98439 18.9023C4.99405 18.9246 5.01195 18.9482 5.03858 18.9674C5.06521 18.9867 5.09431 18.997 5.12068 18.9994C5.14402 19.0016 5.17276 18.9986 5.20926 18.9795L10.4038 16.2634C10.6215 16.1495 10.8811 16.1495 11.0988 16.2634L16.2934 18.9795C16.3299 18.9986 16.3586 19.0016 16.3819 18.9994C16.4083 18.997 16.4374 18.9867 16.464 18.9674C16.4907 18.9482 16.5086 18.9246 16.5182 18.9023C16.5266 18.8829 16.5324 18.8572 16.5258 18.8189L15.534 13.0693C15.4918 12.8249 15.5732 12.5755 15.7513 12.403L19.9538 8.33315C20.0416 8.24811 20 8.09201 19.8649 8.07237L14.0561 7.22817C13.8124 7.19276 13.6017 7.04001 13.4922 6.81947L10.8947 1.58726C10.8771 1.55194 10.8566 1.53355 10.837 1.52202C10.8147 1.50889 10.785 1.5 10.7513 1.5C10.7176 1.5 10.6879 1.50889 10.6656 1.52202ZM9.26443 0.92026C9.87358 -0.306753 11.629 -0.306753 12.2382 0.92026L14.6609 5.80031L20.0807 6.58797C21.4361 6.78496 21.9887 8.45064 20.9973 9.41069L17.0795 13.2048L18.0039 18.5639C18.2386 19.9242 16.8069 20.9407 15.5983 20.3087L10.7513 17.7743L5.90431 20.3087C4.69573 20.9407 3.26405 19.9242 3.49868 18.5639L4.42312 13.2048L0.505307 9.41069C-0.486032 8.45064 0.0664787 6.78496 1.42197 6.58797L6.84174 5.80031L9.26443 0.92026Z" fill="#292927"/>
</g>
</svg>
