<svg preserveAspectRatio="xMidYMid meet" overflow="visible" style="display: block;" viewBox="0 0 24 24" fill="none" xmlns="http://www.w3.org/2000/svg">
<g transform="translate(1.2500, 1.2500)">
<path id="Vector" fill-rule="evenodd" clip-rule="evenodd" d="M1.5 10.75C1.5 5.64137 5.64137 1.5 10.75 1.5C15.8586 1.5 20 5.64137 20 10.75C20 15.8586 15.8586 20 10.75 20C5.64137 20 1.5 15.8586 1.5 10.75ZM10.75 0C4.81294 0 0 4.81294 0 10.75C0 16.6871 4.81294 21.5 10.75 21.5C16.6871 21.5 21.5 16.6871 21.5 10.75C21.5 4.81294 16.6871 0 10.75 0ZM6.28032 10.7197C5.98743 10.4268 5.51255 10.4268 5.21966 10.7197C4.92677 11.0126 4.92677 11.4874 5.21966 11.7803L8.21966 14.7803C8.51255 15.0732 8.98743 15.0732 9.28032 14.7803L16.2803 7.78033C16.5732 7.48744 16.5732 7.01256 16.2803 6.71967C15.9874 6.42678 15.5126 6.42678 15.2197 6.71967L8.74999 13.1893L6.28032 10.7197Z" fill="#292927"/>
</g>
</svg>
