<svg preserveAspectRatio="xMidYMid meet" overflow="visible" style="display: block;" viewBox="0 0 24 24" fill="none" xmlns="http://www.w3.org/2000/svg">
<g transform="translate(3.2500, 2.2500)">
<path id="Vector" fill-rule="evenodd" clip-rule="evenodd" d="M8.75 0.75L9.15621 0.119532L9.15876 0.121175L9.1642 0.124703L9.1836 0.137349C9.20025 0.148244 9.22426 0.164044 9.25515 0.184587C9.31693 0.225668 9.40623 0.28574 9.51914 0.363498C9.74489 0.518964 10.0654 0.745424 10.4492 1.03243C11.2154 1.60548 12.2402 2.42461 13.268 3.40614C14.293 4.38504 15.3392 5.54244 16.1333 6.79424C16.9238 8.04029 17.5 9.43555 17.5 10.875C17.5 13.5089 16.7151 15.6897 15.1697 17.211C13.6413 18.7154 11.461 19.4845 8.83011 19.4998C8.80348 19.5 8.77677 19.5001 8.75 19.5001C8.67108 19.5001 8.59199 19.4994 8.51284 19.498C5.95215 19.4535 3.82817 18.6854 2.33031 17.211C0.784872 15.6897 0 13.5089 0 10.875C0 9.43555 0.576192 8.04029 1.36669 6.79424C2.16084 5.54244 3.20695 4.38504 4.23202 3.40614C5.25984 2.42461 6.28456 1.60548 7.05082 1.03243C7.43459 0.745424 7.75511 0.518964 7.98086 0.363498C8.09377 0.28574 8.18307 0.225668 8.24485 0.184587C8.27574 0.164044 8.29975 0.148244 8.3164 0.137349L8.3358 0.124703L8.34124 0.121175L8.34379 0.119532L8.75 0.75ZM8.82552 17.9998C8.80041 17.9999 8.77524 18 8.75 18C8.68902 18 8.62843 17.9996 8.56823 17.9987C7.58812 17.9826 6.82607 17.8336 6.31637 17.518C5.84551 17.2265 5.5 16.738 5.5 15.7501C5.5 13.8053 6.09897 11.9992 6.94102 10.1269C7.01338 10.672 7.12663 11.2097 7.29163 11.684C7.43335 12.0915 7.62751 12.4944 7.90077 12.8164C8.18111 13.1468 8.57197 13.4205 9.07945 13.4727C9.57673 13.5239 10.0561 13.3487 10.4947 13.0519C10.6775 12.9281 10.862 12.7775 11.0488 12.6005C11.8531 14.5033 11.9454 15.8081 11.6446 16.6123C11.3412 17.4232 10.514 17.9836 8.82552 17.9998ZM13.1232 16.92C13.5907 15.3822 13.1312 13.3354 11.9208 10.9147C11.8056 10.6843 11.5802 10.5292 11.3239 10.5038C11.0676 10.4784 10.8161 10.5863 10.658 10.7897C10.247 11.3181 9.91201 11.6349 9.65378 11.8097C9.39699 11.9836 9.26702 11.9841 9.23305 11.9806C9.20928 11.9782 9.14702 11.9667 9.04454 11.846C8.93499 11.7168 8.81665 11.5025 8.70837 11.1912C8.49237 10.5702 8.3731 9.73063 8.34326 8.90281C8.31327 8.07061 8.37653 7.33634 8.47761 6.93203C8.57039 6.56091 8.36899 6.17944 8.01021 6.04672C7.65143 5.91399 7.25026 6.07256 7.07918 6.41472C6.99503 6.58301 6.91046 6.75144 6.82579 6.92007C5.42664 9.70658 4 12.5478 4 15.7501C4 16.1051 4.03404 16.4344 4.10021 16.7381C3.84091 16.5567 3.60169 16.3577 3.38259 16.142C2.1904 14.9684 1.5 13.2116 1.5 10.875C1.5 9.82917 1.92381 8.71616 2.63331 7.59779C3.33916 6.48515 4.29305 5.42197 5.26798 4.49094C6.24016 3.56254 7.21544 2.7824 7.94918 2.23366C8.2707 1.99321 8.54462 1.7981 8.75 1.65536C8.95538 1.7981 9.2293 1.99321 9.55082 2.23366C10.2846 2.7824 11.2598 3.56254 12.232 4.49094C13.207 5.42197 14.1608 6.48515 14.8667 7.59779C15.5762 8.71616 16 9.82917 16 10.875C16 13.2116 15.3096 14.9684 14.1174 16.142C13.8224 16.4323 13.491 16.6926 13.1232 16.92ZM8.34379 0.119532C8.59115 -0.0398439 8.90885 -0.0398439 9.15621 0.119532C9.15602 0.119405 9.15621 0.119532 8.75 0.75C8.34611 0.123142 8.34399 0.119427 8.34379 0.119532Z" fill="#292927"/>
</g>
</svg>
