<svg preserveAspectRatio="xMidYMid meet" overflow="visible" style="display: block;" viewBox="0 0 24 24" fill="none" xmlns="http://www.w3.org/2000/svg">
<g transform="translate(2.2500, 2.2500)">
<path id="Vector" fill-rule="evenodd" clip-rule="evenodd" d="M1.5 8.75C1.5 4.74594 4.74594 1.5 8.75 1.5C12.7541 1.5 16 4.74594 16 8.75C16 10.7488 15.1921 12.5574 13.8833 13.8697C12.57 15.1865 10.7557 16 8.75 16C4.74594 16 1.5 12.7541 1.5 8.75ZM8.75 0C3.91751 0 0 3.91751 0 8.75C0 13.5825 3.91751 17.5 8.75 17.5C10.8959 17.5 12.8624 16.7267 14.3842 15.4449L18.2197 19.2803C18.5126 19.5732 18.9874 19.5732 19.2803 19.2803C19.5732 18.9874 19.5732 18.5126 19.2803 18.2197L15.4449 14.3842C16.7267 12.8624 17.5 10.8959 17.5 8.75C17.5 3.91751 13.5825 0 8.75 0ZM8.75 5C9.16421 5 9.5 5.33579 9.5 5.75V8H11.75C12.1642 8 12.5 8.33579 12.5 8.75C12.5 9.16421 12.1642 9.5 11.75 9.5H9.5V11.75C9.5 12.1642 9.16421 12.5 8.75 12.5C8.33579 12.5 8 12.1642 8 11.75V9.5H5.75C5.33579 9.5 5 9.16421 5 8.75C5 8.33579 5.33579 8 5.75 8H8V5.75C8 5.33579 8.33579 5 8.75 5Z" fill="#292927"/>
</g>
</svg>
