<svg preserveAspectRatio="xMidYMid meet" overflow="visible" style="display: block;" viewBox="0 0 24 24" fill="none" xmlns="http://www.w3.org/2000/svg">
<g transform="translate(1.2500, 2.2500)">
<path id="Vector" fill-rule="evenodd" clip-rule="evenodd" d="M21.5 0.75C21.5 1.16421 21.1642 1.5 20.75 1.5H0.75C0.335787 1.5 0 1.16421 0 0.75C0 0.335786 0.335787 0 0.75 0H20.75C21.1642 0 21.5 0.335786 21.5 0.75ZM21.5 18.75C21.5 19.1642 21.1642 19.5 20.75 19.5H0.75C0.335787 19.5 0 19.1642 0 18.75C0 18.3358 0.335787 18 0.75 18H20.75C21.1642 18 21.5 18.3358 21.5 18.75ZM7.5 6.75C7.5 6.05964 8.05964 5.5 8.75 5.5H12.75C13.4404 5.5 14 6.05964 14 6.75V12.75C14 13.4404 13.4404 14 12.75 14H8.75C8.05964 14 7.5 13.4404 7.5 12.75V6.75ZM8.75 4C7.23122 4 6 5.23122 6 6.75V12.75C6 14.2688 7.23122 15.5 8.75 15.5H12.75C14.2688 15.5 15.5 14.2688 15.5 12.75V6.75C15.5 5.23122 14.2688 4 12.75 4H8.75Z" fill="#292927"/>
</g>
</svg>
