<svg preserveAspectRatio="xMidYMid meet" overflow="visible" style="display: block;" viewBox="0 0 24 24" fill="none" xmlns="http://www.w3.org/2000/svg">
<g transform="translate(1.6540, 3.7500)">
<path id="Vector" fill-rule="evenodd" clip-rule="evenodd" d="M19.942 16.5C20.3562 16.5 20.692 16.1642 20.692 15.75C20.692 15.3358 20.3562 15 19.942 15H1.70538L14.9266 1.27023C15.214 0.971866 15.205 0.497076 14.9066 0.20976C14.6083 -0.0775553 14.1335 -0.0685965 13.8462 0.22977L0.380258 14.2136C-0.445507 15.0711 0.162212 16.5 1.35269 16.5H19.942ZM17.1995 12.856C17.2581 13.266 17.638 13.5509 18.048 13.4924C18.4581 13.4338 18.743 13.0539 18.6844 12.6438C18.4323 10.8788 18.1735 9.5661 17.7082 8.30313C17.2418 7.03714 16.5812 5.85662 15.566 4.33388C15.3363 3.98923 14.8706 3.8961 14.526 4.12587C14.1813 4.35563 14.0882 4.82128 14.3179 5.16593C15.3028 6.64319 15.8921 7.71267 16.3007 8.82168C16.7104 9.93371 16.9517 11.121 17.1995 12.856Z" fill="#292927"/>
</g>
</svg>
