<svg preserveAspectRatio="xMidYMid meet" overflow="visible" style="display: block;" viewBox="0 0 24 24" fill="none" xmlns="http://www.w3.org/2000/svg">
<g transform="translate(2.2500, 4.2500)">
<path id="Vector" fill-rule="evenodd" clip-rule="evenodd" d="M4.7694 0.20896C4.47918 -0.0696532 4.02082 -0.0696532 3.7306 0.20896L1.2306 2.60896C0.931793 2.89582 0.922104 3.37059 1.20896 3.6694C1.49582 3.96821 1.97059 3.9779 2.2694 3.69104L3.5 2.50966V7.06597C1.51049 7.4202 0 9.1587 0 11.25C0 13.5972 1.90279 15.5 4.25 15.5C6.59721 15.5 8.5 13.5972 8.5 11.25C8.5 9.1587 6.98951 7.4202 5 7.06597V2.50966L6.2306 3.69104C6.52941 3.9779 7.00418 3.96821 7.29104 3.6694C7.5779 3.37059 7.56821 2.89582 7.2694 2.60896L4.7694 0.20896ZM1.5 11.25C1.5 9.73122 2.73122 8.5 4.25 8.5C5.76878 8.5 7 9.73122 7 11.25C7 12.7688 5.76878 14 4.25 14C2.73122 14 1.5 12.7688 1.5 11.25ZM15.7694 0.20896C15.4792 -0.0696532 15.0208 -0.0696532 14.7306 0.20896L12.2306 2.60896C11.9318 2.89582 11.9221 3.37059 12.209 3.6694C12.4958 3.96821 12.9706 3.9779 13.2694 3.69104L14.5 2.50966V7.06597C12.5105 7.4202 11 9.1587 11 11.25C11 13.5972 12.9028 15.5 15.25 15.5C17.5972 15.5 19.5 13.5972 19.5 11.25C19.5 9.1587 17.9895 7.4202 16 7.06597V2.50966L17.2306 3.69104C17.5294 3.9779 18.0042 3.96821 18.291 3.6694C18.5779 3.37059 18.5682 2.89582 18.2694 2.60896L15.7694 0.20896ZM12.5 11.25C12.5 9.73122 13.7312 8.5 15.25 8.5C16.7688 8.5 18 9.73122 18 11.25C18 12.7688 16.7688 14 15.25 14C13.7312 14 12.5 12.7688 12.5 11.25Z" fill="#292927"/>
</g>
</svg>
