<svg preserveAspectRatio="xMidYMid meet" overflow="visible" style="display: block;" viewBox="0 0 24 24" fill="none" xmlns="http://www.w3.org/2000/svg">
<g transform="translate(2.2843, 1.5087)">
<path id="Vector" fill-rule="evenodd" clip-rule="evenodd" d="M1.8135 5.30901L3.19746 15.6887C3.33142 16.6934 3.92645 17.5781 4.8065 18.0809L5.12638 18.2637C7.97013 19.8887 11.4612 19.8887 14.3049 18.2637L14.6248 18.0809C15.5049 17.5781 16.0999 16.6934 16.2339 15.6887L17.6178 5.30901C17.6108 5.31193 17.6038 5.31486 17.5968 5.31777C16.938 5.59105 16.1665 5.81133 15.3323 5.98437C13.6636 6.33046 11.6823 6.5 9.71566 6.5C7.74905 6.5 5.76771 6.33047 4.09907 5.98438C3.26479 5.81135 2.49337 5.59107 1.83455 5.31778C1.82752 5.31487 1.82051 5.31194 1.8135 5.30901ZM1.5712 3.49174C1.78472 3.63937 2.06238 3.78835 2.40928 3.93225C2.95582 4.15896 3.63083 4.35534 4.40369 4.51564C5.94933 4.83621 7.82513 5 9.71566 5C11.6062 5 13.482 4.8362 15.0276 4.51563C15.8005 4.35533 16.4755 4.15895 17.022 3.93224C17.3689 3.78834 17.6466 3.63936 17.8601 3.49174L17.9144 3.08503C17.1893 2.62075 14.904 1.5 9.71566 1.5C4.52732 1.5 2.24204 2.62075 1.51697 3.08503L1.5712 3.49174ZM0.511991 1.95403C1.36351 1.34774 3.9132 0 9.71566 0C15.5181 0 18.0678 1.34774 18.9193 1.95403C19.3356 2.2504 19.4748 2.73112 19.4199 3.14303L17.7207 15.8869C17.5249 17.3553 16.6553 18.6483 15.369 19.3833L15.0492 19.5661C11.7443 21.4546 7.68707 21.4546 4.38217 19.5661L4.06229 19.3833C2.77607 18.6483 1.9064 17.3553 1.71062 15.8869L0.011427 3.14303C-0.0434936 2.73112 0.0957431 2.2504 0.511991 1.95403ZM5.06853 9.01502C5.4747 8.93379 5.86982 9.1972 5.95106 9.60337L6.95106 14.6034C7.03229 15.0095 6.76888 15.4047 6.36271 15.4859C5.95654 15.5671 5.56142 15.3037 5.48019 14.8975L4.48019 9.89754C4.39895 9.49137 4.66236 9.09626 5.06853 9.01502Z" fill="#292927"/>
</g>
</svg>
