<svg preserveAspectRatio="xMidYMid meet" overflow="visible" style="display: block;" viewBox="0 0 24 24" fill="none" xmlns="http://www.w3.org/2000/svg">
<g transform="translate(1.2500, 1.2500)">
<path id="Vector" fill-rule="evenodd" clip-rule="evenodd" d="M1.5 10.75C1.5 5.64137 5.64137 1.5 10.75 1.5C15.8586 1.5 20 5.64137 20 10.75C20 14.122 18.1958 17.0725 15.5 18.6889V12.75C15.5 12.6195 15.4659 12.4912 15.4012 12.3779L11.4012 5.3779C11.2677 5.14421 11.0191 5 10.75 5C10.4809 5 10.2324 5.14421 10.0988 5.3779L6.09882 12.3779C6.03406 12.4912 6 12.6195 6 12.75V18.6889C3.30425 17.0725 1.5 14.122 1.5 10.75ZM7.5 19.4129V12.9492L10.75 7.26167L14 12.9492V19.4129C12.9889 19.7924 11.8937 20 10.75 20C9.60632 20 8.51111 19.7924 7.5 19.4129ZM6.45092 20.6059C2.65373 18.9473 0 15.1585 0 10.75C0 4.81294 4.81294 0 10.75 0C16.6871 0 21.5 4.81294 21.5 10.75C21.5 15.1585 18.8463 18.9472 15.0491 20.6059C13.7326 21.181 12.2785 21.5 10.75 21.5C9.22148 21.5 7.76747 21.181 6.45092 20.6059Z" fill="#292927"/>
</g>
</svg>
