<svg preserveAspectRatio="xMidYMid meet" overflow="visible" style="display: block;" viewBox="0 0 24 24" fill="none" xmlns="http://www.w3.org/2000/svg">
<g transform="translate(0.7500, 0.7500)">
<path id="Vector" fill-rule="evenodd" clip-rule="evenodd" d="M1.91565 8C1.64552 8.86874 1.5 9.79238 1.5 10.75C1.5 11.7076 1.64552 12.6313 1.91565 13.5H6.20263C6.07535 12.6401 6 11.7211 6 10.7504C6 9.77944 6.0754 8.86018 6.20275 8H1.91565ZM2.532 6.5H6.48697C6.77991 5.23395 7.17076 4.13296 7.5614 3.2279C7.78896 2.70068 8.01688 2.2389 8.22615 1.84851C5.74916 2.54943 3.69466 4.25638 2.532 6.5ZM7.72056 8C7.58289 8.85444 7.5 9.77424 7.5 10.7504C7.5 11.7263 7.58284 12.6458 7.72042 13.5H10.75C11.1642 13.5 11.5 13.8358 11.5 14.25C11.5 14.6642 11.1642 15 10.75 15H8.02991C8.2885 16.0253 8.61346 16.9252 8.9386 17.6785C9.29818 18.5116 9.65669 19.1624 9.92267 19.6013C10.0155 19.7545 10.097 19.8817 10.1631 19.9817C10.3572 19.9938 10.5529 20 10.75 20C11.1642 20 11.5 20.3358 11.5 20.75C11.5 21.1642 11.1642 21.5 10.75 21.5C10.3959 21.5 10.0457 21.4829 9.70034 21.4494C9.68419 21.4483 9.66808 21.4467 9.65203 21.4446C4.23072 20.8946 0 16.3164 0 10.75C0 4.81294 4.81294 0 10.75 0C11.1032 0 11.4524 0.0170329 11.7969 0.0503222C11.8149 0.0514582 11.8328 0.0532406 11.8507 0.0556642C15.9793 0.47557 19.417 3.23177 20.8208 6.98121L20.8255 6.99381C21.2616 8.16309 21.5 9.42871 21.5 10.75C21.5 11.1642 21.1642 11.5 20.75 11.5C20.3358 11.5 20 11.1642 20 10.75C20 9.79238 19.8545 8.86874 19.5843 8H15.2974C15.4247 8.85991 15.5 9.77886 15.5 10.7495C15.5 11.1637 15.1642 11.4995 14.75 11.4995C14.3358 11.4995 14 11.1637 14 10.7495C14 9.77366 13.9172 8.85418 13.7796 8H7.72056ZM13.4701 6.5H8.03012C8.28868 5.47501 8.61355 4.57541 8.9386 3.82232C9.29818 2.98921 9.65669 2.33844 9.92267 1.89952C10.0158 1.74585 10.0974 1.61835 10.1637 1.51828C10.3576 1.50615 10.5531 1.5 10.75 1.5C10.9472 1.5 11.1429 1.50617 11.337 1.51832C11.4031 1.61824 11.4845 1.74542 11.5773 1.89859C11.8433 2.33751 12.2018 2.98829 12.5614 3.82139C12.8865 4.57471 13.2115 5.47463 13.4701 6.5ZM15.0132 6.5H18.968C17.8054 4.25655 15.7512 2.5497 13.2744 1.84867C13.4835 2.23884 13.7113 2.70024 13.9386 3.22697C14.3293 4.13225 14.7203 5.23356 15.0132 6.5ZM8.22562 19.6513C5.74887 18.9503 3.69458 17.2435 2.532 15H6.48678C6.77974 16.2664 7.17068 17.3677 7.5614 18.2729C7.78877 18.7997 8.0165 19.2612 8.22562 19.6513ZM17.75 15.5C18.1642 15.5 18.5 15.8358 18.5 16.25V17H19.25C19.6642 17 20 17.3358 20 17.75C20 18.1642 19.6642 18.5 19.25 18.5H17.75C17.3358 18.5 17 18.1642 17 17.75V16.25C17 15.8358 17.3358 15.5 17.75 15.5ZM14.5 17.75C14.5 15.9551 15.9551 14.5 17.75 14.5C19.5449 14.5 21 15.9551 21 17.75C21 19.5449 19.5449 21 17.75 21C15.9551 21 14.5 19.5449 14.5 17.75ZM17.75 13C15.1266 13 13 15.1266 13 17.75C13 20.3734 15.1266 22.5 17.75 22.5C20.3734 22.5 22.5 20.3734 22.5 17.75C22.5 15.1266 20.3734 13 17.75 13Z" fill="#292927"/>
</g>
</svg>
