<svg preserveAspectRatio="xMidYMid meet" overflow="visible" style="display: block;" viewBox="0 0 24 24" fill="none" xmlns="http://www.w3.org/2000/svg">
<g transform="translate(2.2500, 2.2500)">
<path id="Vector" fill-rule="evenodd" clip-rule="evenodd" d="M18 1.5H1.5V18H18V1.5ZM19.5 18.15C19.5 18.8956 18.8956 19.5 18.15 19.5H1.35C0.604414 19.5 0 18.8956 0 18.15V1.35C0 0.604414 0.604418 0 1.35 0H18.15C18.8956 0 19.5 0.604418 19.5 1.35V18.15ZM9.75 4.5C6.8505 4.5 4.5 6.8505 4.5 9.75C4.5 12.6495 6.8505 15 9.75 15C12.6495 15 15 12.6495 15 9.75C15 8.3361 14.4411 7.05274 13.5321 6.10883L10.342 10.2104C10.0877 10.5374 9.61648 10.5963 9.28952 10.342C8.96256 10.0877 8.90366 9.61647 9.15796 9.28951L12.3486 5.18721C11.5824 4.74989 10.6954 4.5 9.75 4.5ZM3 9.75C3 6.02208 6.02208 3 9.75 3C13.4779 3 16.5 6.02208 16.5 9.75C16.5 13.4779 13.4779 16.5 9.75 16.5C6.02208 16.5 3 13.4779 3 9.75Z" fill="#292927"/>
</g>
</svg>
