<svg preserveAspectRatio="xMidYMid meet" overflow="visible" style="display: block;" viewBox="0 0 24 24" fill="none" xmlns="http://www.w3.org/2000/svg">
<g transform="translate(1.2500, 1.2500)">
<path id="Vector" fill-rule="evenodd" clip-rule="evenodd" d="M8.24995 1.5C9.21645 1.5 9.99995 2.2835 9.99995 3.25V18.75C9.99995 19.4404 9.44031 20 8.74995 20C8.0596 20 7.49995 19.4404 7.49995 18.75C7.49995 18.7213 7.49833 18.6929 7.49519 18.665C7.50791 18.5551 7.49641 18.4407 7.45706 18.3294C7.31903 17.9388 6.89053 17.7341 6.5 17.8722C6.26637 17.9547 6.01425 18 5.74993 18C4.50729 18 3.49993 16.9926 3.49993 15.75C3.49993 14.5074 4.50729 13.5 5.74993 13.5C6.16414 13.5 6.49993 13.1642 6.49993 12.75C6.49993 12.3358 6.16414 12 5.74993 12C4.57712 12 3.53006 12.5384 2.84242 13.3815C2.02809 12.7902 1.5 11.8312 1.5 10.7498C1.5 9.76548 1.93665 8.88398 2.62941 8.28685C2.73874 8.19261 2.81423 8.07371 2.85476 7.9455C2.95681 7.71769 2.94292 7.44401 2.79389 7.22121C2.60823 6.94365 2.49997 6.61061 2.49997 6.25C2.49997 5.2835 3.28347 4.5 4.24997 4.5C4.64487 4.5 5.00727 4.6299 5.29971 4.84962C5.4127 4.93452 5.54189 4.98267 5.67293 4.99612C5.8674 5.08589 6.09875 5.09217 6.30763 4.99364C6.68225 4.81692 6.84268 4.36997 6.66596 3.99535C6.55972 3.77014 6.49995 3.51809 6.49995 3.25C6.49995 2.2835 7.28345 1.5 8.24995 1.5ZM6.09898 19.4839C5.98395 19.4946 5.86752 19.5 5.74993 19.5C3.67886 19.5 1.99993 17.8211 1.99993 15.75C1.99993 15.3931 2.04979 15.0479 2.14291 14.7209C0.853118 13.8724 0 12.4113 0 10.7498C0 9.50584 0.478868 8.37311 1.26064 7.52693C1.09285 7.13453 0.99997 6.70259 0.99997 6.25C0.99997 4.45507 2.45504 3 4.24997 3C4.50931 3 4.7618 3.03049 5.00392 3.08806C5.0883 1.36837 6.50933 0 8.24995 0C9.25519 0 10.1538 0.456383 10.75 1.17325C11.3461 0.456383 12.2448 0 13.25 0C14.9906 0 16.4117 1.36837 16.496 3.08806C16.7382 3.03049 16.9907 3 17.25 3C19.0449 3 20.5 4.45507 20.5 6.25C20.5 6.70259 20.4071 7.13453 20.2393 7.52693C21.0211 8.37311 21.5 9.50584 21.5 10.7498C21.5 12.4113 20.6468 13.8724 19.357 14.7209C19.4501 15.0479 19.5 15.3931 19.5 15.75C19.5 17.8211 17.821 19.5 15.75 19.5C15.6324 19.5 15.516 19.4946 15.401 19.4839C15.0799 20.6464 14.0146 21.5 12.75 21.5C11.962 21.5 11.2514 21.1685 10.75 20.6374C10.2486 21.1685 9.53798 21.5 8.74995 21.5C7.48534 21.5 6.4201 20.6464 6.09898 19.4839ZM11.5 18.7403C11.5 18.7435 11.5 18.7468 11.5 18.75C11.5 19.4404 12.0597 20 12.75 20C13.4404 20 14 19.4404 14 18.75C14 18.7214 14.0016 18.6931 14.0047 18.6653C13.992 18.5553 14.0035 18.4408 14.0428 18.3294C14.1809 17.9388 14.6094 17.7341 14.9999 17.8722C15.2335 17.9547 15.4857 18 15.75 18C16.9926 18 18 16.9926 18 15.75C18 14.5074 16.9926 13.5 15.75 13.5C15.3358 13.5 15 13.1642 15 12.75C15 12.3358 15.3358 12 15.75 12C16.9228 12 17.9699 12.5384 18.6575 13.3815C19.4719 12.7902 20 11.8312 20 10.7498C20 9.76548 19.5633 8.88398 18.8706 8.28685C18.7612 8.19261 18.6857 8.07371 18.6452 7.9455C18.5432 7.71768 18.557 7.44401 18.7061 7.22121C18.8917 6.94365 19 6.61061 19 6.25C19 5.2835 18.2165 4.5 17.25 4.5C16.8551 4.5 16.4927 4.6299 16.2003 4.84962C16.0873 4.93452 15.9581 4.98267 15.827 4.99612C15.6326 5.08589 15.4012 5.09217 15.1923 4.99364C14.8177 4.81692 14.6573 4.36997 14.834 3.99535C14.9402 3.77014 15 3.51809 15 3.25C15 2.2835 14.2165 1.5 13.25 1.5C12.2835 1.5 11.5 2.2835 11.5 3.25L11.5 3.25967V5.74033L11.5 5.75C11.5 6.99264 12.5074 8 13.75 8C14.1642 8 14.5 8.33579 14.5 8.75C14.5 9.16421 14.1642 9.5 13.75 9.5C12.9058 9.5 12.1267 9.22102 11.5 8.75023V18.7403Z" fill="#292927"/>
</g>
</svg>
