<svg preserveAspectRatio="xMidYMid meet" overflow="visible" style="display: block;" viewBox="0 0 24 24" fill="none" xmlns="http://www.w3.org/2000/svg">
<g transform="translate(1.7237, 0.2964)">
<path id="Vector" fill-rule="evenodd" clip-rule="evenodd" d="M9.60128 0.180866C10.019 -0.0602887 10.5336 -0.0602884 10.9513 0.180866L19.8776 5.33446C20.2952 5.57561 20.5526 6.02128 20.5526 6.50359V16.8108C20.5526 17.2931 20.2952 17.7387 19.8776 17.9799L10.9513 23.1335C10.8932 23.167 10.8333 23.1959 10.772 23.2201C10.6369 23.3391 10.4612 23.4073 10.2763 23.4073C10.0913 23.4073 9.91568 23.3391 9.78051 23.2201C9.71924 23.1959 9.65932 23.167 9.60128 23.1335L0.675 17.9799C0.257308 17.7387 0 17.2931 0 16.8108V6.50359C0 6.02128 0.257309 5.57561 0.675 5.33446L9.60128 0.180866ZM12.507 20.5033L18.2676 17.1774L15.5346 15.6591L12.507 20.5033ZM13.9231 15.4072H6.62943L10.2763 21.2422L13.9231 15.4072ZM5.01796 15.6591L8.04559 20.5033L2.28498 17.1774L5.01796 15.6591ZM4.26954 14.3589L1.5 15.8975V9.12754L4.26954 14.3589ZM19.0526 15.8975V9.12753L16.283 14.3589L19.0526 15.8975ZM11.0263 1.95621L17.2336 5.54L11.0263 5.86666V1.95621ZM3.31906 5.53996L9.52627 1.95622V5.86665L3.31906 5.53996ZM15.2225 13.1561L11.587 7.33923L18.4945 6.97572L15.2225 13.1561ZM8.96559 7.33922L5.33002 13.1561L2.05801 6.97566L8.96559 7.33922ZM13.9231 13.9072L10.2763 8.07232L6.62946 13.9072H13.9231Z" fill="#292927"/>
</g>
</svg>
