<svg preserveAspectRatio="xMidYMid meet" overflow="visible" style="display: block;" viewBox="0 0 24 24" fill="none" xmlns="http://www.w3.org/2000/svg">
<g transform="translate(2.2500, 2.2500)">
<path id="Vector" fill-rule="evenodd" clip-rule="evenodd" d="M1.5 18V1.5H18V18H1.5ZM1.35 0C0.604417 0 0 0.604415 0 1.35V18.15C0 18.8956 0.604415 19.5 1.35 19.5H18.15C18.8956 19.5 19.5 18.8956 19.5 18.15V1.35C19.5 0.604417 18.8956 0 18.15 0H1.35ZM6.5 5.75C6.5 5.33579 6.16421 5 5.75 5C5.33579 5 5 5.33579 5 5.75V13.75C5 14.1642 5.33579 14.5 5.75 14.5C6.16421 14.5 6.5 14.1642 6.5 13.75V5.75ZM10.5 8.75C10.5 8.33579 10.1642 8 9.75 8C9.33579 8 9 8.33579 9 8.75V13.75C9 14.1642 9.33579 14.5 9.75 14.5C10.1642 14.5 10.5 14.1642 10.5 13.75V8.75ZM13.75 10C14.1642 10 14.5 10.3358 14.5 10.75V13.75C14.5 14.1642 14.1642 14.5 13.75 14.5C13.3358 14.5 13 14.1642 13 13.75V10.75C13 10.3358 13.3358 10 13.75 10Z" fill="#292927"/>
</g>
</svg>
