<svg preserveAspectRatio="xMidYMid meet" overflow="visible" style="display: block;" viewBox="0 0 24 24" fill="none" xmlns="http://www.w3.org/2000/svg">
<g transform="translate(1.2500, 1.2500)">
<path id="Vector" fill-rule="evenodd" clip-rule="evenodd" d="M10.75 1.5C5.64137 1.5 1.5 5.64137 1.5 10.75C1.5 15.8586 5.64137 20 10.75 20C15.8586 20 20 15.8586 20 10.75C20 5.64137 15.8586 1.5 10.75 1.5ZM0 10.75C0 4.81294 4.81294 0 10.75 0C16.6871 0 21.5 4.81294 21.5 10.75C21.5 16.6871 16.6871 21.5 10.75 21.5C4.81294 21.5 0 16.6871 0 10.75ZM6 7.75C6 7.33579 6.33579 7 6.75 7H8.75C9.16421 7 9.5 7.33579 9.5 7.75C9.5 8.16421 9.16421 8.5 8.75 8.5H6.75C6.33579 8.5 6 8.16421 6 7.75ZM12 7.75C12 7.33579 12.3358 7 12.75 7H14.75C15.1642 7 15.5 7.33579 15.5 7.75C15.5 8.16421 15.1642 8.5 14.75 8.5H12.75C12.3358 8.5 12 8.16421 12 7.75ZM4 13.75C4 13.3358 4.33579 13 4.75 13H16.75C17.1642 13 17.5 13.3358 17.5 13.75C17.5 14.1642 17.1642 14.5 16.75 14.5H4.75C4.33579 14.5 4 14.1642 4 13.75Z" fill="#292927"/>
</g>
</svg>
