<svg preserveAspectRatio="xMidYMid meet" overflow="visible" style="display: block;" viewBox="0 0 24 24" fill="none" xmlns="http://www.w3.org/2000/svg">
<g transform="translate(1.2500, 2.2500)">
<path id="Vector" fill-rule="evenodd" clip-rule="evenodd" d="M1.5 6.75C1.5 3.85051 3.85051 1.5 6.75 1.5H14.75C17.6495 1.5 20 3.85051 20 6.75V12.75C20 15.6495 17.6495 18 14.75 18H6.75C3.85051 18 1.5 15.6495 1.5 12.75V6.75ZM6.75 0C3.02208 0 0 3.02208 0 6.75V12.75C0 16.4779 3.02208 19.5 6.75 19.5H14.75C18.4779 19.5 21.5 16.4779 21.5 12.75V6.75C21.5 3.02208 18.4779 0 14.75 0H6.75ZM11.1503 3.23278C10.9388 3.01071 10.6134 2.93977 10.3286 3.05367C10.0439 3.16757 9.85716 3.44335 9.85716 3.75003V8.15677L8.23575 6.77857C7.92015 6.51031 7.44683 6.54868 7.17856 6.86429C6.9103 7.1799 6.94867 7.65322 7.26428 7.92148L9.41551 9.75003L7.26428 11.5786C6.94867 11.8468 6.9103 12.3202 7.17856 12.6358C7.44683 12.9514 7.92015 12.9897 8.23575 12.7215L9.85716 11.3433V15.75C9.85716 16.0567 10.0439 16.3325 10.3286 16.4464C10.6134 16.5603 10.9388 16.4893 11.1503 16.2673L14.2931 12.9673C14.4354 12.8179 14.5098 12.6165 14.499 12.4106C14.4881 12.2046 14.3929 12.0122 14.2358 11.8786L11.7316 9.75003L14.2358 7.62148C14.3929 7.48789 14.4881 7.29547 14.499 7.08949C14.5098 6.88351 14.4354 6.68215 14.2931 6.53278L11.1503 3.23278ZM12.6596 12.5075L11.3572 11.4004V13.875L12.6596 12.5075ZM11.3572 5.62503V8.09962L12.6596 6.99257L11.3572 5.62503Z" fill="#292927"/>
</g>
</svg>
