<svg preserveAspectRatio="xMidYMid meet" overflow="visible" style="display: block;" viewBox="0 0 24 24" fill="none" xmlns="http://www.w3.org/2000/svg">
<g transform="translate(2.5000, 2.7500)">
<path id="Vector" fill-rule="evenodd" clip-rule="evenodd" d="M14.2197 0.21967L10.7197 3.71967C10.4268 4.01256 10.4268 4.48744 10.7197 4.78033C11.0126 5.07322 11.4874 5.07322 11.7803 4.78033L14 2.56066V14.25C14 15.7688 12.7688 17 11.25 17C9.73121 17 8.5 15.7688 8.5 14.25V5.25C8.5 2.90279 6.59721 1 4.25 1C1.90279 1 0 2.90279 0 5.25V17.25C0 17.6642 0.335786 18 0.75 18C1.16421 18 1.5 17.6642 1.5 17.25V5.25C1.5 3.73121 2.73121 2.5 4.25 2.5C5.76879 2.5 7 3.73121 7 5.25V14.25C7 16.5972 8.90279 18.5 11.25 18.5C13.5972 18.5 15.5 16.5972 15.5 14.25V2.56066L17.7197 4.78033C18.0126 5.07322 18.4874 5.07322 18.7803 4.78033C19.0732 4.48744 19.0732 4.01256 18.7803 3.71967L15.2803 0.21967C15.2084 0.147763 15.1255 0.0935089 15.0371 0.0569091C14.9487 0.0202391 14.8517 0 14.75 0C14.6483 0 14.5513 0.0202391 14.4629 0.0569091C14.3745 0.0935089 14.2916 0.147763 14.2197 0.21967Z" fill="#292927"/>
</g>
</svg>
