<svg preserveAspectRatio="xMidYMid meet" overflow="visible" style="display: block;" viewBox="0 0 24 24" fill="none" xmlns="http://www.w3.org/2000/svg">
<g transform="translate(1.2500, 1.2500)">
<path id="Vector" fill-rule="evenodd" clip-rule="evenodd" d="M20 10.75C20 5.64137 15.8586 1.5 10.75 1.5C5.64137 1.5 1.5 5.64137 1.5 10.75C1.5 15.8586 5.64137 20 10.75 20C15.8586 20 20 15.8586 20 10.75ZM10.75 0C16.6871 0 21.5 4.81294 21.5 10.75C21.5 16.6871 16.6871 21.5 10.75 21.5C4.81294 21.5 0 16.6871 0 10.75C0 4.81294 4.81294 0 10.75 0ZM11.3603 3.31407C11.2195 3.11697 10.9922 3 10.75 3C10.5078 3 10.2805 3.11697 10.1397 3.31407L5.1397 10.3141C4.95343 10.5748 4.95343 10.9252 5.1397 11.1859L10.1397 18.1859C10.2805 18.383 10.5078 18.5 10.75 18.5C10.9922 18.5 11.2195 18.383 11.3603 18.1859L16.3603 11.1859C16.5466 10.9252 16.5466 10.5748 16.3603 10.3141L11.3603 3.31407ZM10.75 16.4597L7.46267 11.8574L10.6029 12.4854C10.7 12.5049 10.8 12.5049 10.8971 12.4854L14.0373 11.8574L10.75 16.4597ZM11.5 10.8351L14.4655 10.242L11.5 6.09035L11.5 10.8351ZM10 10.8351L10 6.09035L7.0345 10.242L10 10.8351Z" fill="#292927"/>
</g>
</svg>
