<svg preserveAspectRatio="xMidYMid meet" overflow="visible" style="display: block;" viewBox="0 0 24 24" fill="none" xmlns="http://www.w3.org/2000/svg">
<g transform="translate(1.2500, 1.2500)">
<path id="Vector" fill-rule="evenodd" clip-rule="evenodd" d="M1.5 1.5V20H20V1.5H1.5ZM0 1.35C0 0.604415 0.604417 0 1.35 0H20.15C20.8956 0 21.5 0.604417 21.5 1.35V20.15C21.5 20.8956 20.8956 21.5 20.15 21.5H1.35C0.604415 21.5 0 20.8956 0 20.15V1.35ZM4.75 4C4.33579 4 4 4.33579 4 4.75C4 5.16421 4.33579 5.5 4.75 5.5H16.75C17.1642 5.5 17.5 5.16421 17.5 4.75C17.5 4.33579 17.1642 4 16.75 4H4.75ZM4.75 8C4.33579 8 4 8.33579 4 8.75C4 9.16421 4.33579 9.5 4.75 9.5H16.75C17.1642 9.5 17.5 9.16421 17.5 8.75C17.5 8.33579 17.1642 8 16.75 8H4.75ZM11 12.75C11 12.3358 11.3358 12 11.75 12L16.75 12C17.1642 12 17.5 12.3358 17.5 12.75C17.5 13.1642 17.1642 13.5 16.75 13.5L11.75 13.5C11.3358 13.5 11 13.1642 11 12.75ZM11.75 16C11.3358 16 11 16.3358 11 16.75C11 17.1642 11.3358 17.5 11.75 17.5H16.75C17.1642 17.5 17.5 17.1642 17.5 16.75C17.5 16.3358 17.1642 16 16.75 16H11.75ZM4.75 12C4.33579 12 4 12.3358 4 12.75V16.75C4 17.1642 4.33579 17.5 4.75 17.5H7.75C8.16421 17.5 8.5 17.1642 8.5 16.75V12.75C8.5 12.3358 8.16421 12 7.75 12H4.75ZM5.5 16V13.5H7V16H5.5Z" fill="#292927"/>
</g>
</svg>
