<svg preserveAspectRatio="xMidYMid meet" overflow="visible" style="display: block;" viewBox="0 0 24 24" fill="none" xmlns="http://www.w3.org/2000/svg">
<g transform="translate(1.2500, 1.2500)">
<path id="Vector" fill-rule="evenodd" clip-rule="evenodd" d="M1.5 10.75C1.5 5.64137 5.64137 1.5 10.75 1.5C15.8586 1.5 20 5.64137 20 10.75C20 15.8586 15.8586 20 10.75 20C5.64137 20 1.5 15.8586 1.5 10.75ZM10.75 0C4.81294 0 0 4.81294 0 10.75C0 16.6871 4.81294 21.5 10.75 21.5C16.6871 21.5 21.5 16.6871 21.5 10.75C21.5 4.81294 16.6871 0 10.75 0ZM10.75 5C11.1642 5 11.5 5.33579 11.5 5.75V11.75C11.5 12.1642 11.1642 12.5 10.75 12.5C10.3358 12.5 10 12.1642 10 11.75V5.75C10 5.33579 10.3358 5 10.75 5ZM11.2617 15.1916C11.5696 15.4687 11.5946 15.9429 11.3175 16.2508L11.3075 16.2619C11.0304 16.5697 10.5562 16.5947 10.2483 16.3176C9.94039 16.0405 9.91543 15.5663 10.1925 15.2584L10.2025 15.2473C10.4796 14.9394 10.9538 14.9145 11.2617 15.1916Z" fill="#292927"/>
</g>
</svg>
