<svg preserveAspectRatio="xMidYMid meet" overflow="visible" style="display: block;" viewBox="0 0 24 24" fill="none" xmlns="http://www.w3.org/2000/svg">
<g transform="translate(1.2500, 1.5000)">
<path id="Vector" fill-rule="evenodd" clip-rule="evenodd" d="M10.75 0C11.1642 0 11.5 0.335786 11.5 0.75V2H20.15C20.8956 2 21.5 2.60442 21.5 3.35V16.15C21.5 16.8956 20.8956 17.5 20.15 17.5H12.5607L14.7803 19.7197C15.0732 20.0126 15.0732 20.4874 14.7803 20.7803C14.4874 21.0732 14.0126 21.0732 13.7197 20.7803L10.75 17.8107L7.78033 20.7803C7.48744 21.0732 7.01256 21.0732 6.71967 20.7803C6.42678 20.4874 6.42678 20.0126 6.71967 19.7197L8.93934 17.5H1.35C0.604416 17.5 0 16.8956 0 16.15V3.35C0 2.60441 0.604418 2 1.35 2H10V0.75C10 0.335786 10.3358 0 10.75 0ZM1.5 3.5H10.75H20V16H10.75H1.5V3.5ZM8.5 10.75C8.5 10.3358 8.16421 10 7.75 10C7.33579 10 7 10.3358 7 10.75V12.75C7 13.1642 7.33579 13.5 7.75 13.5C8.16421 13.5 8.5 13.1642 8.5 12.75V10.75ZM10.75 8C11.1642 8 11.5 8.33579 11.5 8.75V12.75C11.5 13.1642 11.1642 13.5 10.75 13.5C10.3358 13.5 10 13.1642 10 12.75V8.75C10 8.33579 10.3358 8 10.75 8ZM14.5 6.75C14.5 6.33579 14.1642 6 13.75 6C13.3358 6 13 6.33579 13 6.75V12.75C13 13.1642 13.3358 13.5 13.75 13.5C14.1642 13.5 14.5 13.1642 14.5 12.75V6.75Z" fill="#292927"/>
</g>
</svg>
