<svg preserveAspectRatio="xMidYMid meet" overflow="visible" style="display: block;" viewBox="0 0 24 24" fill="none" xmlns="http://www.w3.org/2000/svg">
<g transform="translate(2.2500, 1.0000)">
<path id="Vector" fill-rule="evenodd" clip-rule="evenodd" d="M0 4.75C0 2.12665 2.12665 0 4.75 0H14.75C17.3733 0 19.5 2.12664 19.5 4.75V6.75C19.5 7.16421 19.1642 7.5 18.75 7.5C18.3358 7.5 18 7.16421 18 6.75V4.75C18 2.95508 16.5449 1.5 14.75 1.5H4.75C2.95507 1.5 1.5 2.95507 1.5 4.75V6.75C1.5 7.16421 1.16421 7.5 0.75 7.5C0.335786 7.5 0 7.16421 0 6.75V4.75ZM0.75 10C0.335786 10 0 10.3358 0 10.75V17.75C0 18.6316 0.651937 19.361 1.5 19.4823V20.65C1.5 21.3956 2.10444 22 2.85 22H5.65C6.39556 22 7 21.3956 7 20.65V19.5H12.5V20.65C12.5 21.3956 13.1044 22 13.85 22H16.65C17.3956 22 18 21.3956 18 20.65V19.4823C18.8481 19.361 19.5 18.6316 19.5 17.75V10.75C19.5 10.3358 19.1642 10 18.75 10H0.75ZM16.5 19.5V20.5H14V19.5H16.5ZM17.25 18H17.75C17.8881 18 18 17.8881 18 17.75V11.5H1.5V17.75C1.5 17.8881 1.61192 18 1.75 18H2.25H6.25H13.25H17.25ZM3 20.5V19.5H5.5V20.5H3ZM5.26202 14.1908C5.56976 14.4681 5.59447 14.9423 5.31722 15.2501L5.30722 15.2612C5.02996 15.5689 4.55573 15.5936 4.24799 15.3164C3.94026 15.0391 3.91554 14.5649 4.1928 14.2571L4.2028 14.246C4.48005 13.9383 4.95428 13.9136 5.26202 14.1908ZM15.262 14.1908C15.5698 14.4681 15.5945 14.9423 15.3172 15.2501L15.3072 15.2612C15.03 15.5689 14.5557 15.5936 14.248 15.3164C13.9403 15.0391 13.9155 14.5649 14.1928 14.2571L14.2028 14.246C14.48 13.9383 14.9543 13.9136 15.262 14.1908ZM4.75 6C4.33579 6 4 6.33579 4 6.75C4 7.16421 4.33579 7.5 4.75 7.5H14.75C15.1642 7.5 15.5 7.16421 15.5 6.75C15.5 6.33579 15.1642 6 14.75 6H4.75Z" fill="#292927"/>
</g>
</svg>
