<svg preserveAspectRatio="xMidYMid meet" overflow="visible" style="display: block;" viewBox="0 0 24 24" fill="none" xmlns="http://www.w3.org/2000/svg">
<g transform="translate(1.2500, 1.2500)">
<path id="Vector" fill-rule="evenodd" clip-rule="evenodd" d="M1.5 10.75C1.5 5.64137 5.64137 1.5 10.75 1.5C15.8586 1.5 20 5.64137 20 10.75C20 15.8586 15.8586 20 10.75 20C5.64137 20 1.5 15.8586 1.5 10.75ZM10.75 0C4.81294 0 0 4.81294 0 10.75C0 16.6871 4.81294 21.5 10.75 21.5C16.6871 21.5 21.5 16.6871 21.5 10.75C21.5 4.81294 16.6871 0 10.75 0ZM10.7803 10.2197L7.28033 6.71967C6.98744 6.42678 6.51256 6.42678 6.21967 6.71967C5.92678 7.01256 5.92678 7.48744 6.21967 7.78033L9.18934 10.75L6.21967 13.7197C5.92678 14.0126 5.92678 14.4874 6.21967 14.7803C6.51256 15.0732 6.98744 15.0732 7.28033 14.7803L10.7803 11.2803C11.0732 10.9874 11.0732 10.5126 10.7803 10.2197ZM16.7803 10.2197L13.2803 6.71967C12.9874 6.42678 12.5126 6.42678 12.2197 6.71967C11.9268 7.01256 11.9268 7.48744 12.2197 7.78033L15.1893 10.75L12.2197 13.7197C11.9268 14.0126 11.9268 14.4874 12.2197 14.7803C12.5126 15.0732 12.9874 15.0732 13.2803 14.7803L16.7803 11.2803C17.0732 10.9874 17.0732 10.5126 16.7803 10.2197Z" fill="#292927"/>
</g>
</svg>
