<svg preserveAspectRatio="xMidYMid meet" overflow="visible" style="display: block;" viewBox="0 0 24 24" fill="none" xmlns="http://www.w3.org/2000/svg">
<g transform="translate(0.2500, 5.2500)">
<path id="Vector" fill-rule="evenodd" clip-rule="evenodd" d="M9.5 3.75C9.5 2.50736 10.5074 1.5 11.75 1.5C12.9926 1.5 14 2.50736 14 3.75C14 4.99264 12.9926 6 11.75 6C10.5074 6 9.5 4.99264 9.5 3.75ZM14.2315 6.56156C15.0094 5.87445 15.5 4.86952 15.5 3.75C15.5 1.67893 13.8211 0 11.75 0C9.67893 0 8 1.67893 8 3.75C8 4.86952 8.49057 5.87445 9.26848 6.56156C7.33514 7.48791 6 9.46303 6 11.75V12.75C6 13.1642 6.33579 13.5 6.75 13.5C7.16421 13.5 7.5 13.1642 7.5 12.75V11.75C7.5 9.40279 9.40279 7.5 11.75 7.5C14.0972 7.5 16 9.40279 16 11.75V12.75C16 13.1642 16.3358 13.5 16.75 13.5C17.1642 13.5 17.5 13.1642 17.5 12.75V11.75C17.5 9.46303 16.1649 7.48791 14.2315 6.56156ZM1.5 11.75C1.5 10.5074 2.50736 9.5 3.75 9.5C5.26878 9.5 6.5 8.26878 6.5 6.75C6.5 5.23122 5.26878 4 3.75 4C2.23122 4 1 5.23122 1 6.75C1 7.46224 1.27077 8.11124 1.71498 8.59967C0.682939 9.26772 0 10.4291 0 11.75V12.75C0 13.1642 0.335786 13.5 0.75 13.5C1.16421 13.5 1.5 13.1642 1.5 12.75V11.75ZM19.75 9.5C20.9926 9.5 22 10.5074 22 11.75V12.75C22 13.1642 22.3358 13.5 22.75 13.5C23.1642 13.5 23.5 13.1642 23.5 12.75V11.75C23.5 10.4291 22.8171 9.26772 21.785 8.59967C22.2292 8.11124 22.5 7.46224 22.5 6.75C22.5 5.23122 21.2688 4 19.75 4C18.2312 4 17 5.23122 17 6.75C17 8.26878 18.2312 9.5 19.75 9.5ZM19.75 8C20.4404 8 21 7.44036 21 6.75C21 6.05964 20.4404 5.5 19.75 5.5C19.0596 5.5 18.5 6.05964 18.5 6.75C18.5 7.44036 19.0596 8 19.75 8ZM3.75 5.5C3.05964 5.5 2.5 6.05964 2.5 6.75C2.5 7.44036 3.05964 8 3.75 8C4.44036 8 5 7.44036 5 6.75C5 6.05964 4.44036 5.5 3.75 5.5Z" fill="#292927"/>
</g>
</svg>
