<svg preserveAspectRatio="xMidYMid meet" overflow="visible" style="display: block;" viewBox="0 0 24 24" fill="none" xmlns="http://www.w3.org/2000/svg">
<g transform="translate(3.2449, 1.7449)">
<path id="Vector" fill-rule="evenodd" clip-rule="evenodd" d="M7.75005 0C4.16031 0 2.20304 0.766766 1.13695 1.68056C0.601238 2.13974 0.312339 2.61876 0.160418 3.00942C0.0852845 3.20261 0.0452071 3.37009 0.0239226 3.49779C0.0132818 3.56164 0.00731892 3.61565 0.00401342 3.65815C0.00235987 3.67941 0.00136853 3.69782 0.000790302 3.71319L0.000616761 3.7193C0.000206899 3.72948 0 3.73972 0 3.75L2.58704e-05 9.75L3.64197e-06 9.7522L2.08817e-06 9.75175C2.08817e-06 9.75175 0 9.7523 3.64197e-06 9.7522L8.34666e-06 9.75357L3.50495e-05 9.75744L6.10352e-05 9.7593V15.75H0.750061C6.10352e-05 15.75 6.1512e-05 15.7509 6.30617e-05 15.7517L6.93202e-05 15.7536L9.60231e-05 15.7574L0.000216305 15.7661L0.000805199 15.7868C0.00138342 15.8022 0.00237477 15.8206 0.00402832 15.8418C0.00733382 15.8843 0.0132967 15.9384 0.0239375 16.0022C0.045222 16.1299 0.0852994 16.2974 0.160433 16.4906C0.312354 16.8812 0.601253 17.3603 1.13697 17.8194C2.20306 18.7332 4.16032 19.5 7.75006 19.5C8.16427 19.5 8.50006 19.1642 8.50006 18.75C8.50006 18.3358 8.16427 18 7.75006 18C4.3398 18 2.79706 17.2668 2.11315 16.6806C1.77387 16.3897 1.62527 16.1188 1.55844 15.9469C1.5242 15.8589 1.50959 15.792 1.50353 15.7556C1.50167 15.7444 1.50062 15.7362 1.50006 15.7311V12.0996C2.62865 12.8847 4.53434 13.5 7.75 13.5C11.3397 13.5 13.297 12.7332 14.3631 11.8194C14.8988 11.3603 15.1877 10.8812 15.3396 10.4906C15.4148 10.2974 15.4548 10.1299 15.4761 10.0022C15.4868 9.93836 15.4927 9.88435 15.496 9.84185C15.4977 9.82059 15.4987 9.80218 15.4993 9.78681L15.4998 9.76606L15.5 9.75744L15.5 9.75357L15.5 9.75175L15.5 9.75V3.75826L15.5 3.75744L15.5 3.75357L15.5 3.75175L15.5 3.75164V3.75L15.5 3.74836L15.5 3.74825L15.5 3.74643L15.5 3.74256L15.4999 3.73394L15.4993 3.71319C15.4987 3.69782 15.4977 3.67941 15.4961 3.65815C15.4928 3.61565 15.4868 3.56164 15.4762 3.49779C15.4549 3.37009 15.4148 3.20261 15.3397 3.00942C15.1878 2.61876 14.8989 2.13974 14.3631 1.68056C13.2971 0.766766 11.3398 0 7.75005 0ZM14 6.09961C12.8714 6.88471 10.9657 7.5 7.75005 7.5C4.53428 7.5 2.62857 6.88467 1.5 6.09955V9.73114C1.50056 9.73618 1.5016 9.74443 1.50347 9.75561C1.50953 9.79196 1.52414 9.85886 1.55838 9.94691C1.62521 10.1188 1.77381 10.3897 2.11309 10.6806C2.797 11.2668 4.33974 12 7.75 12C11.1603 12 12.703 11.2668 13.3869 10.6806C13.7262 10.3897 13.8748 10.1188 13.9416 9.94691C13.9759 9.85886 13.9905 9.79196 13.9965 9.75561C13.9984 9.74443 13.9994 9.73618 14 9.73115V6.09961ZM1.50351 3.75561L1.50261 3.75L1.50351 3.74439C1.50957 3.70804 1.52418 3.64114 1.55842 3.55308C1.62525 3.38124 1.77385 3.11026 2.11314 2.81944C2.79705 2.23323 4.33979 1.5 7.75005 1.5C11.1603 1.5 12.703 2.23323 13.387 2.81944C13.7262 3.11026 13.8748 3.38124 13.9417 3.55308C13.9759 3.64114 13.9905 3.70804 13.9966 3.74439L13.9975 3.75L13.9966 3.75561C13.9905 3.79196 13.9759 3.85886 13.9417 3.94692C13.8748 4.11876 13.7262 4.38974 13.387 4.68056C12.703 5.26677 11.1603 6 7.75005 6C4.33979 6 2.79705 5.26677 2.11314 4.68056C1.77385 4.38974 1.62525 4.11876 1.55842 3.94692C1.52418 3.85886 1.50957 3.79196 1.50351 3.75561ZM16.7501 13C17.1643 13 17.5001 13.3358 17.5001 13.75V15.75C17.5001 16.1642 17.1643 16.5 16.7501 16.5C16.3358 16.5 16.0001 16.1642 16.0001 15.75V13.75C16.0001 13.3358 16.3358 13 16.7501 13ZM17.2618 19.1916C17.5697 19.4687 17.5946 19.9429 17.3175 20.2508L17.3075 20.2619C17.0304 20.5697 16.5562 20.5947 16.2483 20.3176C15.9405 20.0405 15.9155 19.5663 16.1926 19.2584L16.2026 19.2473C16.4797 18.9394 16.9539 18.9145 17.2618 19.1916Z" fill="#292927"/>
</g>
</svg>
