<svg preserveAspectRatio="xMidYMid meet" overflow="visible" style="display: block;" viewBox="0 0 24 24" fill="none" xmlns="http://www.w3.org/2000/svg">
<g transform="translate(2.7500, 3.2500)">
<path id="Vector" fill-rule="evenodd" clip-rule="evenodd" d="M0 0.75C0 0.551088 0.0790176 0.360322 0.21967 0.21967C0.360322 0.0790176 0.551088 0 0.75 0H6.75H12.75C13.1642 0 13.5 0.335786 13.5 0.75V2.75C13.5 3.16421 13.1642 3.5 12.75 3.5C12.3358 3.5 12 3.16421 12 2.75V1.5H7.5V12H8.75C9.16421 12 9.5 12.3358 9.5 12.75C9.5 13.1642 9.16421 13.5 8.75 13.5H4.75C4.33579 13.5 4 13.1642 4 12.75C4 12.3358 4.33579 12 4.75 12H6V1.5H1.5V2.75C1.5 3.16421 1.16421 3.5 0.75 3.5C0.335786 3.5 0 3.16421 0 2.75V0.75ZM16.2803 6.21967C15.9874 5.92678 15.5126 5.92678 15.2197 6.21967L13.2197 8.21967C12.9268 8.51256 12.9268 8.98744 13.2197 9.28033C13.5126 9.57322 13.9874 9.57322 14.2803 9.28033L15 8.56066V14.6119L14.3357 13.7815C14.0769 13.458 13.6049 13.4056 13.2815 13.6643C12.958 13.9231 12.9056 14.3951 13.1643 14.7185L15.1643 17.2185C15.3067 17.3964 15.5222 17.5 15.75 17.5C15.9778 17.5 16.1933 17.3964 16.3357 17.2185L18.3357 14.7185C18.5944 14.3951 18.542 13.9231 18.2185 13.6643C17.8951 13.4056 17.4231 13.458 17.1643 13.7815L16.5 14.6119V8.56066L17.2197 9.28033C17.5126 9.57322 17.9874 9.57322 18.2803 9.28033C18.5732 8.98744 18.5732 8.51256 18.2803 8.21967L16.2803 6.21967Z" fill="#292927"/>
</g>
</svg>
