<svg preserveAspectRatio="xMidYMid meet" overflow="visible" style="display: block;" viewBox="0 0 24 24" fill="none" xmlns="http://www.w3.org/2000/svg">
<g transform="translate(1.2500, 2.2500)">
<path id="Vector" fill-rule="evenodd" clip-rule="evenodd" d="M1.5 2.75C1.5 2.05964 2.05964 1.5 2.75 1.5H18.75C19.4404 1.5 20 2.05964 20 2.75V4H1.5V2.75ZM0 4.75V2.75C0 1.23122 1.23122 0 2.75 0H18.75C20.2688 0 21.5 1.23122 21.5 2.75V4.75V16.75C21.5 18.2688 20.2688 19.5 18.75 19.5H2.75C1.23122 19.5 0 18.2688 0 16.75V4.75ZM20 5.5V16.75C20 17.4404 19.4404 18 18.75 18H2.75C2.05964 18 1.5 17.4404 1.5 16.75V5.5H20ZM4.26173 2.19058C4.56961 2.46768 4.59457 2.9419 4.31748 3.24978L4.30748 3.26089C4.03038 3.56877 3.55616 3.59373 3.24828 3.31663C2.9404 3.03954 2.91544 2.56532 3.19254 2.25744L3.20254 2.24633C3.47963 1.93845 3.95385 1.91349 4.26173 2.19058ZM7.31748 3.24978C7.59457 2.9419 7.56961 2.46768 7.26173 2.19058C6.95385 1.91349 6.47963 1.93845 6.20254 2.24633L6.19254 2.25744C5.91544 2.56532 5.9404 3.03954 6.24828 3.31663C6.55616 3.59373 7.03038 3.56877 7.30748 3.26089L7.31748 3.24978ZM10.2617 2.19058C10.5696 2.46768 10.5946 2.9419 10.3175 3.24978L10.3075 3.26089C10.0304 3.56877 9.55616 3.59373 9.24828 3.31663C8.9404 3.03954 8.91544 2.56532 9.19254 2.25744L9.20254 2.24633C9.47963 1.93845 9.95385 1.91349 10.2617 2.19058ZM11.0723 9.11437C11.2734 8.75228 11.143 8.29568 10.7809 8.09452C10.4188 7.89336 9.96221 8.02382 9.76105 8.3859L8.09438 11.3859C7.96533 11.6182 7.96883 11.9014 8.1036 12.1305C8.23836 12.3595 8.48426 12.5001 8.75 12.5001H11.4754L10.4277 14.3859C10.2266 14.748 10.357 15.2046 10.7191 15.4058C11.0812 15.6069 11.5378 15.4765 11.739 15.1144L13.4056 12.1144C13.5347 11.8821 13.5312 11.5988 13.3964 11.3698C13.2616 11.1408 13.0157 11.0001 12.75 11.0001H10.0246L11.0723 9.11437Z" fill="#292927"/>
</g>
</svg>
