<svg preserveAspectRatio="xMidYMid meet" overflow="visible" style="display: block;" viewBox="0 0 24 24" fill="none" xmlns="http://www.w3.org/2000/svg">
<g transform="translate(1.6183, 1.5342)">
<path id="Vector" fill-rule="evenodd" clip-rule="evenodd" d="M7.2477 8.21185L4.8866 5.85075L3.20502 6.41128C2.87153 6.52244 2.50558 6.38707 2.32472 6.08564L0.203404 2.5501C0.0263405 2.255 0.0728427 1.87725 0.316194 1.6339L1.73041 0.219686C1.97376 -0.0236651 2.3515 -0.0701672 2.64661 0.106897L6.18214 2.22822C6.48357 2.40907 6.61895 2.77502 6.50778 3.10851L5.94726 4.79009L7.2266 6.06943C7.39896 4.73847 7.93497 3.44893 8.93722 2.44668C9.94496 1.43894 11.3436 0.85264 12.7079 0.654411C14.064 0.457365 15.4967 0.628707 16.5709 1.27323C16.769 1.39206 16.9012 1.5955 16.9294 1.82472C16.9577 2.05394 16.8787 2.28338 16.7154 2.44668L13.8667 5.29533L13.6901 7.23973L15.6345 7.0631L18.4832 4.21445C18.6465 4.05114 18.8759 3.97218 19.1051 4.0004C19.3343 4.02862 19.5378 4.16087 19.6566 4.35891C20.3011 5.43312 20.4725 6.8658 20.2754 8.22197C20.0772 9.58628 19.4909 10.9849 18.4832 11.9926C17.9981 12.4777 17.4457 12.8535 16.854 13.1318L19.958 16.2358C21.0319 17.3098 21.0319 19.051 19.958 20.1249C18.884 21.1989 17.1428 21.1989 16.0689 20.1249L10.3823 14.4384L4.69454 20.1262C3.6206 21.2001 1.8794 21.2001 0.805456 20.1262C-0.268486 19.0522 -0.268485 17.311 0.805456 16.2371L7.54267 9.49988C7.41144 9.08742 7.31178 8.65486 7.2477 8.21185ZM9.15353 9.76707C9.13774 9.93481 9.06563 10.0983 8.93718 10.2267L1.86612 17.2978C1.37796 17.7859 1.37796 18.5774 1.86612 19.0655C2.35427 19.5537 3.14573 19.5537 3.63388 19.0655L10.6726 12.0268C10.8752 11.7971 11.2073 11.7064 11.509 11.8247C13.4766 12.5958 15.9559 12.3986 17.4225 10.932C18.1543 10.2002 18.6286 9.12392 18.791 8.00629C18.8913 7.31615 18.8669 6.65211 18.7372 6.08175L16.5031 8.31579C16.3791 8.43986 16.2154 8.5165 16.0407 8.53238L12.9296 8.81499C12.708 8.83513 12.4888 8.75578 12.3314 8.5984C12.1741 8.44102 12.0947 8.22187 12.1149 8.00022L12.3975 4.88918C12.4133 4.71443 12.49 4.55077 12.6141 4.4267L14.8481 2.19266C14.2777 2.06292 13.6137 2.03855 12.9236 2.13882C11.8059 2.30121 10.7297 2.77557 9.99788 3.50734C8.53123 4.97399 8.33403 7.45328 9.10517 9.42085C9.14983 9.53481 9.1647 9.65308 9.15353 9.76707ZM11.4628 13.3975L17.1295 19.0643C17.6177 19.5524 18.4091 19.5524 18.8973 19.0643C19.3855 18.5761 19.3855 17.7846 18.8973 17.2965L15.244 13.6432C13.9707 13.8779 12.6368 13.7653 11.4628 13.3975ZM4.49624 4.39973L3.30143 4.798L1.79092 2.28049L2.377 1.69442L4.89451 3.20492L4.49624 4.39973Z" fill="#292927"/>
</g>
</svg>
