<svg preserveAspectRatio="xMidYMid meet" overflow="visible" style="display: block;" viewBox="0 0 24 24" fill="none" xmlns="http://www.w3.org/2000/svg">
<g transform="translate(1.2500, 2.2500)">
<path id="Vector" fill-rule="evenodd" clip-rule="evenodd" d="M8.75 0C9.16421 0 9.5 0.335786 9.5 0.75V9.75V18.75C9.5 19.1642 9.16421 19.5 8.75 19.5C8.33579 19.5 8 19.1642 8 18.75V11.5607L5.78033 13.7803C5.48744 14.0732 5.01256 14.0732 4.71967 13.7803C4.42678 13.4874 4.42678 13.0126 4.71967 12.7197L6.93934 10.5H0.75C0.335787 10.5 0 10.1642 0 9.75C0 9.33579 0.335787 9 0.75 9H6.93934L4.71967 6.78033C4.42678 6.48744 4.42678 6.01256 4.71967 5.71967C5.01256 5.42678 5.48744 5.42678 5.78033 5.71967L8 7.93934V0.75C8 0.335786 8.33579 0 8.75 0ZM16.7803 6.78033C17.0732 6.48744 17.0732 6.01256 16.7803 5.71967C16.4874 5.42678 16.0126 5.42678 15.7197 5.71967L13.5 7.93934V0.75C13.5 0.335786 13.1642 0 12.75 0C12.3358 0 12 0.335786 12 0.75V9.75V18.75C12 19.1642 12.3358 19.5 12.75 19.5C13.1642 19.5 13.5 19.1642 13.5 18.75V11.5607L15.7197 13.7803C16.0126 14.0732 16.4874 14.0732 16.7803 13.7803C17.0732 13.4874 17.0732 13.0126 16.7803 12.7197L14.5607 10.5H20.75C21.1642 10.5 21.5 10.1642 21.5 9.75C21.5 9.33579 21.1642 9 20.75 9H14.5607L16.7803 6.78033Z" fill="#292927"/>
</g>
</svg>
