<svg preserveAspectRatio="xMidYMid meet" overflow="visible" style="display: block;" viewBox="0 0 24 24" fill="none" xmlns="http://www.w3.org/2000/svg">
<g transform="translate(1.2513, 1.2498)">
<path id="Vector" fill-rule="evenodd" clip-rule="evenodd" d="M0.75 0C0.335786 0 0 0.335786 0 0.75V3.7484C0 4.16261 0.335786 4.4984 0.75 4.4984H1.5V17H0.75C0.335786 17 0 17.3358 0 17.75V20.7484C0 21.1626 0.335786 21.4984 0.75 21.4984H3.7484C4.16261 21.4984 4.4984 21.1626 4.4984 20.7484V20.001H16.999V20.7504C16.999 21.1646 17.3348 21.5004 17.749 21.5004H20.7474C21.1616 21.5004 21.4974 21.1646 21.4974 20.7504V17.752C21.4974 17.3377 21.1616 17.002 20.7474 17.002H19.9978V4.50035H20.7474C21.1616 4.50035 21.4974 4.16457 21.4974 3.75035V0.751953C21.4974 0.33774 21.1616 0.00195312 20.7474 0.00195312H17.749C17.3348 0.00195312 16.999 0.33774 16.999 0.751953V1.50098H4.4984V0.75C4.4984 0.335786 4.16261 0 3.7484 0H0.75ZM19.2414 18.502L19.2478 18.502L19.2542 18.502H19.9974V20.0004H18.499V18.502H19.2414ZM18.4978 17.002V4.50035H17.749C17.3348 4.50035 16.999 4.16457 16.999 3.75035V3.00098H4.4984V3.7484C4.4984 4.16261 4.16261 4.4984 3.7484 4.4984H3V17H3.7484C4.16261 17 4.4984 17.3358 4.4984 17.75V18.501H16.999V17.752C16.999 17.3377 17.3348 17.002 17.749 17.002H18.4978ZM19.2478 3C19.2556 3 19.2633 3.00012 19.271 3.00035H19.9974V1.50195H18.499V3.00035H19.2246C19.2323 3.00012 19.24 3 19.2478 3ZM2.2436 18.5L2.25 18.5L2.2564 18.5H2.9984V19.9984H1.5V18.5H2.2436ZM2.25 2.99805C2.25777 2.99805 2.26552 2.99817 2.27324 2.9984H2.9984V1.5H1.5V2.9984H2.22676C2.23448 2.99817 2.24223 2.99805 2.25 2.99805ZM6.21626 6.22165C6.43311 6.00479 6.76014 5.94181 7.04203 6.06262L14.0421 9.06262C14.3283 9.18528 14.5089 9.47205 14.496 9.78318C14.483 10.0943 14.2791 10.3651 13.9837 10.4635L12.1363 11.0791L14.2775 13.2218C14.5703 13.5148 14.5702 13.9897 14.2772 14.2825C13.9842 14.5753 13.5093 14.5751 13.2165 14.2821L11.0756 12.1398L10.458 13.9895C10.3594 14.2848 10.0887 14.4885 9.77761 14.5013C9.46656 14.5142 9.1799 14.3336 9.05726 14.0474L6.05723 7.04742C5.93642 6.76554 5.9994 6.4385 6.21626 6.22165ZM8.17455 8.17993L9.65948 11.6447L10.0372 10.5135C10.1119 10.2896 10.2876 10.114 10.5115 10.0394L11.6377 9.66415L8.17455 8.17993Z" fill="#292927"/>
</g>
</svg>
