<svg preserveAspectRatio="xMidYMid meet" overflow="visible" style="display: block;" viewBox="0 0 24 24" fill="none" xmlns="http://www.w3.org/2000/svg">
<g transform="translate(3.2500, 1.2854)">
<path id="Vector" fill-rule="evenodd" clip-rule="evenodd" d="M1.5 1.5V14.2779C1.5 15.5089 2.19551 16.6342 3.29656 17.1848L8.75 19.9115L14.2034 17.1848C15.3045 16.6342 16 15.5089 16 14.2779V1.5H1.5ZM0 1.35C0 0.604415 0.604417 0 1.35 0H16.15C16.8956 0 17.5 0.604417 17.5 1.35V14.2779C17.5 16.077 16.4835 17.7218 14.8743 18.5264L9.35374 21.2867C8.97368 21.4767 8.52632 21.4767 8.14626 21.2867L2.62574 18.5264C1.01651 17.7218 0 16.077 0 14.2779V1.35Z" fill="#292927"/>
</g>
</svg>
