<svg preserveAspectRatio="xMidYMid meet" overflow="visible" style="display: block;" viewBox="0 0 24 24" fill="none" xmlns="http://www.w3.org/2000/svg">
<g transform="translate(1.2500, 2.2500)">
<path id="Vector" fill-rule="evenodd" clip-rule="evenodd" d="M2.5 2.75C2.5 2.05964 3.05964 1.5 3.75 1.5H10.75C11.4404 1.5 12 2.05964 12 2.75V16.75C12 17.4404 11.4404 18 10.75 18H3.75C3.05964 18 2.5 17.4404 2.5 16.75V15.75V13.75V5.75V3.75V2.75ZM1 16.75V16.5H0.75C0.335786 16.5 0 16.1642 0 15.75C0 15.3358 0.335786 15 0.75 15H1V14.5H0.75C0.335786 14.5 0 14.1642 0 13.75C0 13.3358 0.335786 13 0.75 13H1V6.5H0.75C0.335786 6.5 0 6.16421 0 5.75C0 5.33579 0.335786 5 0.75 5H1V4.5H0.75C0.335786 4.5 0 4.16421 0 3.75C0 3.33579 0.335786 3 0.75 3H1V2.75C1 1.23122 2.23122 0 3.75 0H10.75H17.75C19.2688 0 20.5 1.23122 20.5 2.75V3.25C20.5 3.66421 20.1642 4 19.75 4C19.3358 4 19 3.66421 19 3.25V2.75C19 2.05964 18.4404 1.5 17.75 1.5H13.2001C13.3919 1.87503 13.5 2.29989 13.5 2.75V9.04268C13.5782 9.01504 13.6623 9 13.75 9H18.9393L16.7197 6.78033C16.4268 6.48744 16.4268 6.01256 16.7197 5.71967C17.0126 5.42678 17.4874 5.42678 17.7803 5.71967L21.2803 9.21967C21.5732 9.51256 21.5732 9.98744 21.2803 10.2803L17.7803 13.7803C17.4874 14.0732 17.0126 14.0732 16.7197 13.7803C16.4268 13.4874 16.4268 13.0126 16.7197 12.7197L18.9393 10.5H13.75C13.6623 10.5 13.5782 10.485 13.5 10.4573V16.75C13.5 17.2001 13.3919 17.625 13.2001 18H17.75C18.4404 18 19 17.4404 19 16.75V16.25C19 15.8358 19.3358 15.5 19.75 15.5C20.1642 15.5 20.5 15.8358 20.5 16.25V16.75C20.5 18.2688 19.2688 19.5 17.75 19.5H10.75H3.75C2.23122 19.5 1 18.2688 1 16.75ZM7.63984 7.96409C7.84899 8.38239 8 9.01276 8 9.75C8 10.4872 7.84899 11.1176 7.63984 11.5359C7.53537 11.7449 7.43035 11.8732 7.34949 11.9416C7.31079 11.9744 7.28304 11.9889 7.26823 11.9949C7.26092 11.9979 7.2563 11.9991 7.25408 11.9995L7.25169 11.9999L7.25 12C7.2492 12 7.24804 12 7.24592 11.9995C7.2437 11.9991 7.23908 11.9979 7.23177 11.9949C7.21696 11.9889 7.18921 11.9744 7.15051 11.9416C7.06965 11.8732 6.96463 11.7449 6.86016 11.5359C6.65101 11.1176 6.5 10.4872 6.5 9.75C6.5 9.01276 6.65101 8.38239 6.86016 7.96409C6.96463 7.75515 7.06965 7.62676 7.15051 7.55836C7.18921 7.52563 7.21696 7.51113 7.23177 7.50507C7.23908 7.50208 7.2437 7.50093 7.24592 7.50048C7.24804 7.50005 7.2492 7.5 7.25 7.5C7.2508 7.5 7.25196 7.50005 7.25408 7.50048C7.2563 7.50093 7.26092 7.50208 7.26823 7.50507C7.28304 7.51113 7.31079 7.52563 7.34949 7.55836C7.43035 7.62676 7.53537 7.75515 7.63984 7.96409ZM8.15306 6.28639C7.89799 6.11176 7.59753 6 7.25 6C6.90247 6 6.60201 6.11176 6.34694 6.28639L5.78033 5.71978C5.48744 5.42689 5.01256 5.42689 4.71967 5.71978C4.42678 6.01268 4.42678 6.48755 4.71967 6.78044L5.42765 7.48842C5.1514 8.12608 5 8.91757 5 9.75C5 10.5825 5.15143 11.374 5.42772 12.0117L4.71967 12.7198C4.42678 13.0127 4.42678 13.4875 4.71967 13.7804C5.01256 14.0733 5.48744 14.0733 5.78033 13.7804L6.34707 13.2137C6.60212 13.3883 6.90253 13.5 7.25 13.5C7.59747 13.5 7.89788 13.3883 8.15293 13.2137L8.71967 13.7804C9.01256 14.0733 9.48744 14.0733 9.78033 13.7804C10.0732 13.4875 10.0732 13.0127 9.78033 12.7198L9.07228 12.0117C9.34857 11.374 9.5 10.5825 9.5 9.75C9.5 8.91757 9.3486 8.12608 9.07235 7.48842L9.78033 6.78044C10.0732 6.48755 10.0732 6.01268 9.78033 5.71978C9.48744 5.42689 9.01256 5.42689 8.71967 5.71978L8.15306 6.28639Z" fill="#292927"/>
</g>
</svg>
