<svg preserveAspectRatio="xMidYMid meet" overflow="visible" style="display: block;" viewBox="0 0 24 24" fill="none" xmlns="http://www.w3.org/2000/svg">
<g transform="translate(2.2500, 2.2500)">
<path id="Vector" fill-rule="evenodd" clip-rule="evenodd" d="M18.114 0.352601C18.3335 0.00134879 18.7962 -0.105431 19.1475 0.114102C19.4988 0.333634 19.6055 0.796347 19.386 1.1476L18.75 0.7501C19.386 1.1476 19.3861 1.14737 19.386 1.1476L19.3853 1.14878L19.3776 1.16101L19.3548 1.19717C19.3348 1.22869 19.3054 1.27491 19.267 1.33482C19.1901 1.45465 19.0769 1.62934 18.9304 1.85104C18.6375 2.29439 18.2111 2.92615 17.6745 3.68361C16.6024 5.19725 15.0863 7.21896 13.3144 9.24398C11.5458 11.2653 9.50412 13.3108 7.37863 14.8567C5.26864 16.3912 2.98543 17.5001 0.75 17.5001C0.335786 17.5001 0 17.1643 0 16.7501C0 16.3359 0.335786 16.0001 0.75 16.0001C2.51457 16.0001 4.48136 15.109 6.49637 13.6435C8.49588 12.1894 10.4542 10.2349 12.1856 8.25622C13.9137 6.28124 15.3976 4.30295 16.4505 2.81659C16.9764 2.07405 17.3937 1.45581 17.6789 1.02416C17.8215 0.808363 17.931 0.639297 18.0045 0.524752C18.0413 0.467482 18.069 0.42385 18.0874 0.394831L18.1079 0.362388L18.1127 0.354617L18.114 0.352601ZM16.75 15.5C17.4404 15.5 18 16.0596 18 16.75C18 17.4404 17.4404 18 16.75 18C16.0596 18 15.5 17.4404 15.5 16.75C15.5 16.0596 16.0596 15.5 16.75 15.5ZM19.5 16.75C19.5 15.2312 18.2688 14 16.75 14C15.4912 14 14.43 14.8457 14.1035 16H12.75C12.3358 16 12 16.3358 12 16.75C12 17.1642 12.3358 17.5 12.75 17.5H14.1035C14.43 18.6543 15.4912 19.5 16.75 19.5C18.2688 19.5 19.5 18.2688 19.5 16.75ZM7.75 16C7.33579 16 7 16.3358 7 16.75C7 17.1642 7.33579 17.5 7.75 17.5H9.75C10.1642 17.5 10.5 17.1642 10.5 16.75C10.5 16.3358 10.1642 16 9.75 16H7.75Z" fill="#292927"/>
</g>
</svg>
