<svg preserveAspectRatio="xMidYMid meet" overflow="visible" style="display: block;" viewBox="0 0 24 24" fill="none" xmlns="http://www.w3.org/2000/svg">
<g transform="translate(0.2500, 1.2500)">
<path id="Vector" fill-rule="evenodd" clip-rule="evenodd" d="M7 1.35C7 0.604416 7.60442 0 8.35 0H15.15C15.8956 0 16.5 0.604417 16.5 1.35V5.75V10H20.9393L20.2197 9.28033C19.9268 8.98744 19.9268 8.51256 20.2197 8.21967C20.5126 7.92678 20.9874 7.92678 21.2803 8.21967L23.2803 10.2197C23.5732 10.5126 23.5732 10.9874 23.2803 11.2803L21.2803 13.2803C20.9874 13.5732 20.5126 13.5732 20.2197 13.2803C19.9268 12.9874 19.9268 12.5126 20.2197 12.2197L20.9393 11.5H16.5V15.75V20.15C16.5 20.8956 15.8956 21.5 15.15 21.5H8.35C7.60441 21.5 7 20.8956 7 20.15V11.5H2.56066L3.28033 12.2197C3.57322 12.5126 3.57322 12.9874 3.28033 13.2803C2.98744 13.5732 2.51256 13.5732 2.21967 13.2803L0.21967 11.2803C-0.0732233 10.9874 -0.0732233 10.5126 0.21967 10.2197L2.21967 8.21967C2.51256 7.92678 2.98744 7.92678 3.28033 8.21967C3.57322 8.51256 3.57322 8.98744 3.28033 9.28033L2.56066 10H7V1.35ZM8.5 10.75V20H15V16.5H12.75C12.3358 16.5 12 16.1642 12 15.75C12 15.3358 12.3358 15 12.75 15H15V11.5H12.75C12.3358 11.5 12 11.1642 12 10.75C12 10.3358 12.3358 10 12.75 10H15V6.5H12.75C12.3358 6.5 12 6.16421 12 5.75C12 5.33579 12.3358 5 12.75 5H15V1.5H8.5V10.75Z" fill="#292927"/>
</g>
</svg>
