<svg preserveAspectRatio="xMidYMid meet" overflow="visible" style="display: block;" viewBox="0 0 24 24" fill="none" xmlns="http://www.w3.org/2000/svg">
<g transform="translate(1.5991, 1.5988)">
<path id="Vector" fill-rule="evenodd" clip-rule="evenodd" d="M7.92609 4.03701L10.401 6.51188L12.8758 4.03701L10.401 1.56213L7.92609 4.03701ZM6.75937 4.9916C6.23216 4.46439 6.23216 3.60962 6.75937 3.08241L9.44637 0.395406C9.97358 -0.131802 10.8284 -0.131802 11.3556 0.395406L14.0426 3.08241C14.5698 3.60962 14.5698 4.46439 14.0426 4.9916L11.3556 7.67861C10.8284 8.20581 9.97358 8.20581 9.44637 7.67861L6.75937 4.9916ZM4.03701 12.8761L1.56213 10.4013L4.03701 7.92639L6.51188 10.4013L4.03701 12.8761ZM0.395406 9.44667C-0.131802 9.97388 -0.131802 10.8286 0.395406 11.3559L3.08241 14.0429C3.60962 14.5701 4.46439 14.5701 4.9916 14.0429L7.67861 11.3559C8.20581 10.8286 8.20581 9.97388 7.67861 9.44667L4.9916 6.75966C4.46439 6.23246 3.60962 6.23246 3.08241 6.75966L0.395406 9.44667ZM10.401 19.2404L7.92609 16.7655L10.401 14.2906L12.8758 16.7655L10.401 19.2404ZM6.75937 15.8109C6.23216 16.3381 6.23216 17.1929 6.75937 17.7201L9.44637 20.4071C9.97358 20.9343 10.8284 20.9343 11.3556 20.4071L14.0426 17.7201C14.5698 17.1929 14.5698 16.3381 14.0426 15.8109L11.3556 13.1239C10.8284 12.5967 9.97358 12.5967 9.44637 13.1239L6.75937 15.8109ZM16.7649 12.8761L14.2901 10.4013L16.7649 7.92639L19.2398 10.4013L16.7649 12.8761ZM13.1233 9.44667C12.5961 9.97388 12.5961 10.8286 13.1233 11.3559L15.8103 14.0429C16.3375 14.5701 17.1923 14.5701 17.7195 14.0429L20.4065 11.3559C20.9337 10.8286 20.9337 9.97388 20.4065 9.44667L17.7195 6.75966C17.1923 6.23246 16.3375 6.23246 15.8103 6.75966L13.1233 9.44667Z" fill="#292927"/>
</g>
</svg>
