<svg preserveAspectRatio="xMidYMid meet" overflow="visible" style="display: block;" viewBox="0 0 24 24" fill="none" xmlns="http://www.w3.org/2000/svg">
<g transform="translate(3.1500, 4.2500)">
<path id="Vector" fill-rule="evenodd" clip-rule="evenodd" d="M1.28033 1.41967C0.987437 1.12677 0.512563 1.12677 0.21967 1.41967C-0.0732233 1.71256 -0.0732233 2.18743 0.21967 2.48033L1.01967 3.28032C1.31256 3.57322 1.78743 3.57322 2.08033 3.28032L4.08032 1.28033C4.37321 0.987437 4.37321 0.512563 4.08032 0.21967C3.78743 -0.0732233 3.31255 -0.0732233 3.01966 0.21967L1.55 1.68933L1.28033 1.41967ZM5.94996 1.40019C5.53575 1.40019 5.19996 1.73598 5.19996 2.15019C5.19996 2.5644 5.53575 2.90019 5.94996 2.90019L16.95 2.90019C17.3642 2.90019 17.7 2.56441 17.7 2.15019C17.7 1.73598 17.3642 1.40019 16.95 1.40019L5.94996 1.40019ZM0.21967 7.41967C0.512563 7.12677 0.987437 7.12677 1.28033 7.41967L1.55 7.68933L3.01966 6.21967C3.31255 5.92678 3.78743 5.92678 4.08032 6.21967C4.37321 6.51256 4.37321 6.98744 4.08032 7.28033L2.08033 9.28032C1.78743 9.57322 1.31256 9.57322 1.01967 9.28032L0.21967 8.48033C-0.0732233 8.18743 -0.0732233 7.71256 0.21967 7.41967ZM1.28033 13.4197C0.987437 13.1268 0.512563 13.1268 0.21967 13.4197C-0.0732233 13.7126 -0.0732233 14.1874 0.21967 14.4803L1.01967 15.2803C1.31256 15.5732 1.78743 15.5732 2.08033 15.2803L4.08032 13.2803C4.37321 12.9874 4.37321 12.5126 4.08032 12.2197C3.78743 11.9268 3.31255 11.9268 3.01966 12.2197L1.55 13.6893L1.28033 13.4197ZM5.19996 8.15019C5.19996 7.73598 5.53575 7.40019 5.94996 7.40019L16.95 7.40019C17.3642 7.40019 17.7 7.73598 17.7 8.15019C17.7 8.56441 17.3642 8.90019 16.95 8.90019L5.94996 8.90019C5.53575 8.90019 5.19996 8.5644 5.19996 8.15019ZM5.94996 13.4002C5.53575 13.4002 5.19996 13.736 5.19996 14.1502C5.19996 14.5644 5.53575 14.9002 5.94996 14.9002L16.95 14.9002C17.3642 14.9002 17.7 14.5644 17.7 14.1502C17.7 13.736 17.3642 13.4002 16.95 13.4002L5.94996 13.4002Z" fill="#292927"/>
</g>
</svg>
