<svg preserveAspectRatio="xMidYMid meet" overflow="visible" style="display: block;" viewBox="0 0 24 24" fill="none" xmlns="http://www.w3.org/2000/svg">
<g transform="translate(2.2450, 2.2445)">
<path id="Vector" fill-rule="evenodd" clip-rule="evenodd" d="M10.5 0.75C10.5 0.335786 10.1642 0 9.75001 0C9.33579 0 9.00001 0.335786 9.00001 0.75V3.75C9.00001 4.16421 9.33579 4.5 9.75001 4.5C10.1642 4.5 10.5 4.16421 10.5 3.75V0.75ZM13.5 9.75C13.5 9.33579 13.1642 9 12.75 9C12.3358 9 12 9.33579 12 9.75V12.75C12 13.1642 12.3358 13.5 12.75 13.5C13.1642 13.5 13.5 13.1642 13.5 12.75V9.75ZM15.75 9C16.1642 9 16.5 9.33579 16.5 9.75V12.75C16.5 13.1642 16.1642 13.5 15.75 13.5C15.3358 13.5 15 13.1642 15 12.75V9.75C15 9.33579 15.3358 9 15.75 9ZM9.75001 15C9.33579 15 9.00001 15.3358 9.00001 15.75C9.00001 16.1642 9.33579 16.5 9.75001 16.5H18.75C19.1642 16.5 19.5 16.1642 19.5 15.75C19.5 15.3358 19.1642 15 18.75 15H9.75001ZM15 18.75C15 18.3358 15.3358 18 15.75 18H18.75C19.1642 18 19.5 18.3358 19.5 18.75C19.5 19.1642 19.1642 19.5 18.75 19.5H15.75C15.3358 19.5 15 19.1642 15 18.75ZM3.75001 9C3.33579 9 3.00001 9.33579 3.00001 9.75C3.00001 10.1642 3.33579 10.5 3.75001 10.5H6.75001C7.16422 10.5 7.50001 10.1642 7.50001 9.75C7.50001 9.33579 7.16422 9 6.75001 9H3.75001ZM4.26177 3.19257C4.56963 3.46969 4.59456 3.9439 4.31744 4.25177L4.30744 4.26288C4.03033 4.57074 3.55611 4.59567 3.24824 4.31855C2.94038 4.04144 2.91545 3.56722 3.19257 3.25935L3.20257 3.24824C3.47969 2.94038 3.95391 2.91545 4.26177 3.19257ZM10.3172 10.252C10.5945 9.94428 10.5698 9.47005 10.262 9.19279C9.95428 8.91554 9.48005 8.94026 9.2028 9.24799L9.19279 9.25909C8.91554 9.56683 8.94026 10.0411 9.24799 10.3183C9.55573 10.5956 10.03 10.5709 10.3072 10.2631L10.3172 10.252ZM1.26201 9.19279C1.56975 9.47004 1.59447 9.94427 1.31722 10.252L1.30722 10.2631C1.02997 10.5709 0.555744 10.5956 0.248001 10.3183C-0.0597413 10.0411 -0.0844605 9.56684 0.192789 9.2591L0.202789 9.248C0.480039 8.94026 0.954269 8.91554 1.26201 9.19279ZM10.3175 7.25176C10.5946 6.94389 10.5696 6.46967 10.2618 6.19256C9.95389 5.91545 9.47967 5.94039 9.20256 6.24826L9.19256 6.25937C8.91545 6.56724 8.94039 7.04145 9.24826 7.31856C9.55613 7.59567 10.0303 7.57074 10.3075 7.26287L10.3175 7.25176ZM10.262 12.1928C10.5698 12.47 10.5945 12.9443 10.3172 13.252L10.3072 13.2631C10.03 13.5709 9.55573 13.5956 9.24799 13.3183C8.94026 13.0411 8.91554 12.5668 9.19279 12.2591L9.2028 12.248C9.48005 11.9403 9.95428 11.9155 10.262 12.1928ZM13.3172 19.252C13.5945 18.9442 13.5697 18.47 13.262 18.1928C12.9542 17.9155 12.48 17.9403 12.2028 18.248L12.1928 18.2591C11.9155 18.5669 11.9403 19.0411 12.248 19.3183C12.5558 19.5956 13.03 19.5708 13.3072 19.2631L13.3172 19.252ZM10.262 18.1928C10.5697 18.47 10.5945 18.9442 10.3172 19.252L10.3072 19.2631C10.03 19.5708 9.55577 19.5956 9.24802 19.3183C8.94027 19.0411 8.91553 18.5669 9.19277 18.2591L9.20277 18.248C9.48001 17.9403 9.95424 17.9155 10.262 18.1928ZM19.3172 10.252C19.5945 9.94428 19.5698 9.47005 19.262 9.19279C18.9543 8.91554 18.48 8.94026 18.2028 9.24799L18.1928 9.25909C17.9155 9.56683 17.9403 10.0411 18.248 10.3183C18.5557 10.5956 19.03 10.5709 19.3072 10.2631L19.3172 10.252ZM19.262 12.1928C19.5698 12.47 19.5945 12.9443 19.3172 13.252L19.3072 13.2631C19.03 13.5709 18.5557 13.5956 18.248 13.3183C17.9403 13.0411 17.9155 12.5668 18.1928 12.2591L18.2028 12.248C18.48 11.9403 18.9543 11.9155 19.262 12.1928ZM16.3174 4.25177C16.5946 3.9439 16.5696 3.46969 16.2618 3.19257C15.9539 2.91545 15.4797 2.94038 15.2026 3.24824L15.1926 3.25935C14.9155 3.56722 14.9404 4.04144 15.2482 4.31855C15.5561 4.59567 16.0303 4.57074 16.3074 4.26288L16.3174 4.25177ZM1.50001 1.5V6H6.00001V1.5H1.50001ZM7.63346e-06 1.35C7.63346e-06 0.604416 0.604424 0 1.35001 0H6.15001C6.89559 0 7.50001 0.604416 7.50001 1.35V6.15C7.50001 6.89558 6.89559 7.5 6.15001 7.5H1.35001C0.604423 7.5 7.63346e-06 6.89558 7.63346e-06 6.15V1.35ZM13.5 6V1.5H18V6H13.5ZM13.35 0C12.6044 0 12 0.60444 12 1.35V6.15C12 6.89556 12.6044 7.5 13.35 7.5H18.15C18.8956 7.5 19.5 6.89556 19.5 6.15V1.35C19.5 0.60444 18.8956 0 18.15 0H13.35ZM4.26199 15.1928C4.56975 15.47 4.59448 15.9442 4.31724 16.252L4.30724 16.2631C4.03 16.5708 3.55577 16.5956 3.24802 16.3183C2.94027 16.0411 2.91553 15.5669 3.19277 15.2591L3.20277 15.248C3.48001 14.9403 3.95424 14.9155 4.26199 15.1928ZM1.50001 18V13.5H6.00001V18H1.50001ZM1.35001 12C0.604448 12 7.63346e-06 12.6044 7.63346e-06 13.35V18.15C7.63346e-06 18.8956 0.604448 19.5 1.35001 19.5H6.15001C6.89557 19.5 7.50001 18.8956 7.50001 18.15V13.35C7.50001 12.6044 6.89557 12 6.15001 12H1.35001Z" fill="#292927"/>
</g>
</svg>
