<svg preserveAspectRatio="xMidYMid meet" overflow="visible" style="display: block;" viewBox="0 0 24 24" fill="none" xmlns="http://www.w3.org/2000/svg">
<g transform="translate(1.2500, 3.7500)">
<path id="Vector" fill-rule="evenodd" clip-rule="evenodd" d="M0.75 0C0.335786 0 0 0.335786 0 0.75C0 1.16421 0.335786 1.5 0.75 1.5H18.75C19.1642 1.5 19.5 1.16421 19.5 0.75C19.5 0.335786 19.1642 0 18.75 0H0.75ZM17.6859 10.1397C17.4573 9.97641 17.1566 9.95457 16.9068 10.0831C16.657 10.2117 16.5 10.4691 16.5 10.75V15.75C16.5 16.0309 16.657 16.2883 16.9068 16.4169C17.1566 16.5454 17.4573 16.5236 17.6859 16.3603L21.1859 13.8603C21.383 13.7195 21.5 13.4922 21.5 13.25C21.5 13.0078 21.383 12.7805 21.1859 12.6397L17.6859 10.1397ZM18 14.2926V12.2074L19.4597 13.25L18 14.2926ZM0 6.75C0 6.33579 0.335786 6 0.75 6H18.75C19.1642 6 19.5 6.33579 19.5 6.75C19.5 7.16421 19.1642 7.5 18.75 7.5H0.75C0.335786 7.5 0 7.16421 0 6.75ZM0.75 12C0.335786 12 0 12.3358 0 12.75C0 13.1642 0.335786 13.5 0.75 13.5H12.75C13.1642 13.5 13.5 13.1642 13.5 12.75C13.5 12.3358 13.1642 12 12.75 12H0.75Z" fill="#292927"/>
</g>
</svg>
