<svg preserveAspectRatio="xMidYMid meet" overflow="visible" style="display: block;" viewBox="0 0 24 24" fill="none" xmlns="http://www.w3.org/2000/svg">
<g transform="translate(0.7500, 2.2500)">
<path id="Vector" fill-rule="evenodd" clip-rule="evenodd" d="M2.5 1.35C2.5 0.604415 3.10442 0 3.85 0H18.65C19.3956 0 20 0.604415 20 1.35V3.75C20 4.16421 19.6642 4.5 19.25 4.5C18.8358 4.5 18.5 4.16421 18.5 3.75V1.5H4V3.75C4 4.16421 3.66421 4.5 3.25 4.5C2.83579 4.5 2.5 4.16421 2.5 3.75V1.35ZM2.5 18.15C2.5 18.8956 3.10442 19.5 3.85 19.5H18.65C19.3956 19.5 20 18.8956 20 18.15V15.75C20 15.3358 19.6642 15 19.25 15C18.8358 15 18.5 15.3358 18.5 15.75V18H4V15.75C4 15.3358 3.66421 15 3.25 15C2.83579 15 2.5 15.3358 2.5 15.75V18.15ZM10.5 6.75C10.5 6.33579 10.1642 6 9.75 6H6.75C6.55109 6 6.36032 6.07902 6.21967 6.21967C6.07902 6.36032 6 6.55109 6 6.75V12.75C6 13.1642 6.33579 13.5 6.75 13.5C7.16421 13.5 7.5 13.1642 7.5 12.75V10.5H9.75C9.94891 10.5 10.1397 10.421 10.2803 10.2803C10.421 10.1397 10.5 9.94891 10.5 9.75V6.75ZM9 9H7.5V7.5H9V9ZM0.75 13.5C0.335786 13.5 0 13.1642 0 12.75V6.75C0 6.40217 0.239157 6.09998 0.577685 6.02006C0.916214 5.94015 1.26526 6.10348 1.42082 6.41459L2.25 8.07295L3.07918 6.41459C3.23474 6.10348 3.58379 5.94015 3.92231 6.02006C4.26084 6.09998 4.5 6.40217 4.5 6.75V12.75C4.5 13.1642 4.16421 13.5 3.75 13.5C3.33579 13.5 3 13.1642 3 12.75V9.92705L2.92082 10.0854C2.79378 10.3395 2.53408 10.5 2.25 10.5C1.96592 10.5 1.70622 10.3395 1.57918 10.0854L1.5 9.92705V12.75C1.5 13.1642 1.16421 13.5 0.75 13.5ZM12 12.75C12 12.9489 12.079 13.1397 12.2197 13.2803C12.3603 13.421 12.5511 13.5 12.75 13.5H15.75C16.1642 13.5 16.5 13.1642 16.5 12.75C16.5 12.3358 16.1642 12 15.75 12H13.5V10.5H14.75C15.1642 10.5 15.5 10.1642 15.5 9.75C15.5 9.33579 15.1642 9 14.75 9H13.5V7.5H15.75C16.1642 7.5 16.5 7.16421 16.5 6.75C16.5 6.33579 16.1642 6 15.75 6H12.75C12.3358 6 12 6.33579 12 6.75V9.75V12.75ZM18.2197 13.2803C18.079 13.1397 18 12.9489 18 12.75V6.75C18 6.33579 18.3358 6 18.75 6H21.75C22.1642 6 22.5 6.33579 22.5 6.75C22.5 7.16421 22.1642 7.5 21.75 7.5H19.5V12H21V10.35C21 9.93579 21.3358 9.6 21.75 9.6C22.1642 9.6 22.5 9.93579 22.5 10.35V12.75C22.5 13.1642 22.1642 13.5 21.75 13.5H18.75C18.5511 13.5 18.3603 13.421 18.2197 13.2803Z" fill="#292927"/>
</g>
</svg>
