<svg preserveAspectRatio="xMidYMid meet" overflow="visible" style="display: block;" viewBox="0 0 24 24" fill="none" xmlns="http://www.w3.org/2000/svg">
<g transform="translate(2.1892, 2.1893)">
<path id="Vector" fill-rule="evenodd" clip-rule="evenodd" d="M10.7502 19.5C11.1644 19.5 11.5002 19.1642 11.5002 18.75C11.5002 18.3358 11.1644 18 10.7502 18H1.50018V14.2445L7.74128 11.5698L11.4398 13.251C11.8169 13.4224 12.2616 13.2556 12.433 12.8785C12.6044 12.5014 12.4376 12.0568 12.0605 11.8854L8.06054 10.0672C7.86852 9.97994 7.64862 9.97755 7.45475 10.0606L1.50018 12.6126V1.5H18.0002V10.75C18.0002 11.1642 18.336 11.5 18.7502 11.5C19.1644 11.5 19.5002 11.1642 19.5002 10.75V1.35C19.5002 0.604418 18.8958 0 18.1502 0H1.35018C0.604601 0 0.000183134 0.604414 0.000183134 1.35V13.7338C-6.0535e-05 13.7448 -6.1554e-05 13.7558 0.000183134 13.7669V18.15C0.000183134 18.8956 0.604597 19.5 1.35018 19.5H10.7502ZM15.0002 5.75C15.0002 5.05964 14.4405 4.5 13.7502 4.5C13.0598 4.5 12.5002 5.05964 12.5002 5.75C12.5002 6.44036 13.0598 7 13.7502 7C14.4405 7 15.0002 6.44036 15.0002 5.75ZM13.7502 3C15.269 3 16.5002 4.23122 16.5002 5.75C16.5002 7.26878 15.269 8.5 13.7502 8.5C12.2314 8.5 11.0002 7.26878 11.0002 5.75C11.0002 4.23122 12.2314 3 13.7502 3ZM14.0985 14.0983C14.3914 13.8055 14.8663 13.8055 15.1592 14.0983L16.7502 15.6893L18.3412 14.0983C18.6341 13.8055 19.1089 13.8055 19.4018 14.0983C19.6947 14.3912 19.6947 14.8661 19.4018 15.159L17.8108 16.75L19.4018 18.341C19.6947 18.6339 19.6947 19.1088 19.4018 19.4016C19.1089 19.6945 18.6341 19.6945 18.3412 19.4016L16.7502 17.8107L15.1592 19.4016C14.8663 19.6945 14.3914 19.6945 14.0985 19.4016C13.8056 19.1088 13.8056 18.6339 14.0985 18.341L15.6895 16.75L14.0985 15.159C13.8056 14.8661 13.8056 14.3912 14.0985 14.0983Z" fill="#292927"/>
</g>
</svg>
