<svg preserveAspectRatio="xMidYMid meet" overflow="visible" style="display: block;" viewBox="0 0 24 24" fill="none" xmlns="http://www.w3.org/2000/svg">
<g transform="translate(2.2500, 2.2500)">
<path id="Vector" fill-rule="evenodd" clip-rule="evenodd" d="M18 1.5V18H1.5V1.5H18ZM18.15 19.5C18.8956 19.5 19.5 18.8956 19.5 18.15V1.35C19.5 0.604418 18.8956 0 18.15 0H1.35C0.604418 0 0 0.604414 0 1.35V18.15C0 18.8956 0.604414 19.5 1.35 19.5H18.15ZM9.30444 5.67904C7.2411 5.87772 5.72949 7.71145 5.92817 9.77478C6.02429 10.773 6.51478 11.6445 7.23148 12.2538C7.71552 11.2382 8.36401 10.1393 9.20071 9.23934C9.48274 8.93597 9.9573 8.91868 10.2607 9.20071C10.564 9.48275 10.5813 9.95731 10.2993 10.2607C9.89557 10.6949 9.53615 11.195 9.21992 11.7168C8.96779 12.1329 8.74312 12.5628 8.54536 12.9843C8.58961 12.9985 8.63419 13.0118 8.67907 13.0244C9.11848 13.1474 9.58698 13.1931 10.0664 13.147C12.1864 12.9428 13.766 11.0546 13.5636 8.95294L13.2121 5.30277L9.30444 5.67904ZM4.43508 9.91855C4.58655 11.4916 5.42746 12.8302 6.62531 13.6807C6.44289 14.1639 6.30396 14.5888 6.20577 14.9123C6.14466 15.1136 6.09912 15.2763 6.06853 15.39C6.05323 15.4468 6.04165 15.4915 6.03373 15.5227L6.02456 15.5592L6.02201 15.5696L6.02124 15.5728L6.0208 15.5746C5.92392 15.9773 6.17185 16.3823 6.57458 16.4792C6.97722 16.5761 7.38232 16.3276 7.47931 15.925L7.48072 15.9192L7.48751 15.8922C7.49379 15.8675 7.5036 15.8295 7.51701 15.7797C7.54385 15.68 7.58502 15.5327 7.6411 15.348C7.72034 15.087 7.82892 14.7525 7.96827 14.3727C8.0129 14.3881 8.05779 14.403 8.1029 14.4173C8.76587 14.6275 9.47962 14.7104 10.2102 14.6401C13.1364 14.3583 15.3402 11.7537 15.0567 8.80917L14.6822 4.91992C14.6155 4.22735 14 3.71997 13.3074 3.78666L9.16067 4.18595C6.27272 4.46403 4.157 7.0306 4.43508 9.91855ZM6.75 15.75L6.0208 15.5746C6.02076 15.5748 6.0208 15.5746 6.75 15.75Z" fill="#292927"/>
</g>
</svg>
