<svg preserveAspectRatio="xMidYMid meet" overflow="visible" style="display: block;" viewBox="0 0 24 24" fill="none" xmlns="http://www.w3.org/2000/svg">
<g transform="translate(1.2500, 1.2500)">
<path id="Vector" fill-rule="evenodd" clip-rule="evenodd" d="M20 7.25C20 4.07436 17.4256 1.5 14.25 1.5C11.1219 1.5 8.57728 3.99779 8.50173 7.10766C11.5026 7.62993 13.8701 9.99736 14.3923 12.9983C17.5022 12.9227 20 10.3781 20 7.25ZM14.4959 14.4959C18.3861 14.3663 21.5 11.1718 21.5 7.25C21.5 3.24594 18.2541 0 14.25 0C10.3282 0 7.13375 3.11388 7.00409 7.00409C3.11388 7.13375 0 10.3282 0 14.25C0 18.2541 3.24594 21.5 7.25 21.5C11.1718 21.5 14.3663 18.3861 14.4959 14.4959ZM13 14.25C13 11.0744 10.4256 8.5 7.25 8.5C4.07436 8.5 1.5 11.0744 1.5 14.25C1.5 17.4256 4.07436 20 7.25 20C10.4256 20 13 17.4256 13 14.25ZM20.75 15C20.3358 15 20 15.3358 20 15.75C20 16.9926 18.9926 18 17.75 18H17.5607L18.2803 17.2803C18.5732 16.9874 18.5732 16.5126 18.2803 16.2197C17.9874 15.9268 17.5126 15.9268 17.2197 16.2197L15.2197 18.2197C14.9268 18.5126 14.9268 18.9874 15.2197 19.2803L17.2197 21.2803C17.5126 21.5732 17.9874 21.5732 18.2803 21.2803C18.5732 20.9874 18.5732 20.5126 18.2803 20.2197L17.5607 19.5H17.75C19.8211 19.5 21.5 17.8211 21.5 15.75C21.5 15.3358 21.1642 15 20.75 15ZM1.5 5.75C1.5 6.16421 1.16421 6.5 0.75 6.5C0.335786 6.5 0 6.16421 0 5.75C0 3.67893 1.67893 2 3.75 2H3.93934L3.21967 1.28033C2.92678 0.987437 2.92678 0.512563 3.21967 0.21967C3.51256 -0.0732231 3.98744 -0.0732231 4.28033 0.21967L6.28033 2.21967C6.57322 2.51256 6.57322 2.98744 6.28033 3.28033L4.28033 5.28033C3.98744 5.57322 3.51256 5.57322 3.21967 5.28033C2.92678 4.98744 2.92678 4.51256 3.21967 4.21967L3.93934 3.5H3.75C2.50736 3.5 1.5 4.50736 1.5 5.75Z" fill="#292927"/>
</g>
</svg>
