<svg preserveAspectRatio="xMidYMid meet" overflow="visible" style="display: block;" viewBox="0 0 24 24" fill="none" xmlns="http://www.w3.org/2000/svg">
<g transform="translate(3.2500, 1.7500)">
<path id="Vector" fill-rule="evenodd" clip-rule="evenodd" d="M17.3071 0.247854C17.1649 0.0900726 16.9624 0 16.75 0H0.750004C0.537586 0 0.335132 0.0900726 0.192913 0.247854C0.0506934 0.405634 -0.0179483 0.616322 0.00402817 0.827599L1.78181 17.9175C1.81295 18.2169 2.01999 18.4686 2.30769 18.5569L8.52991 20.467C8.67334 20.511 8.82667 20.511 8.9701 20.467L15.1923 18.5569C15.48 18.4686 15.6871 18.2169 15.7182 17.9175L17.496 0.827599C17.518 0.616322 17.4493 0.405634 17.3071 0.247854ZM14.2776 17.2686L8.75 18.9655L3.2224 17.2686L1.58207 1.5H15.9179L14.2776 17.2686ZM13.8061 4.24675C13.6639 4.08963 13.4619 4 13.25 4H3.75C3.33579 4 3 4.33579 3 4.75C3 5.16421 3.33579 5.5 3.75 5.5H12.4213L12.1213 8.5H4.25001C3.83579 8.5 3.50001 8.83579 3.50001 9.25C3.50001 9.66421 3.83579 10 4.25001 10H11.9713L11.5544 14.1687L8.75 14.97L5.94562 14.1687L5.74628 12.1754C5.70507 11.7632 5.33753 11.4625 4.92538 11.5037C4.51322 11.5449 4.21251 11.9125 4.25373 12.3246L4.50373 14.8246C4.53431 15.1305 4.74842 15.3867 5.04396 15.4711L8.54396 16.4711C8.67863 16.5096 8.82138 16.5096 8.95605 16.4711L12.456 15.4711C12.7516 15.3867 12.9657 15.1305 12.9963 14.8246L13.9963 4.82463C14.0174 4.61378 13.9483 4.40386 13.8061 4.24675Z" fill="#292927"/>
</g>
</svg>
