<svg preserveAspectRatio="xMidYMid meet" overflow="visible" style="display: block;" viewBox="0 0 24 24" fill="none" xmlns="http://www.w3.org/2000/svg">
<g transform="translate(2.8325, 1.2500)">
<path id="Vector" fill-rule="evenodd" clip-rule="evenodd" d="M8.58501 1.5C5.34104 1.5 2.50993 3.15174 1.46413 6.40065C1.33721 6.79494 0.914685 7.01169 0.520395 6.88477C0.126105 6.75785 -0.0906417 6.33533 0.0362772 5.94104C1.31705 1.96216 4.8131 0 8.58501 0C11.186 0 13.6523 0.654179 15.4682 2.39629C17.2903 4.1444 18.335 6.86976 18.335 10.75C18.335 14.6302 17.2903 17.3556 15.4682 19.1037C13.6523 20.8458 11.186 21.5 8.58501 21.5C5.33054 21.5 2.56039 19.766 1.3575 17.4593C0.751302 16.2968 0.538655 14.9731 0.901657 13.6719C1.26528 12.3685 2.18275 11.1715 3.68236 10.2173C3.7041 10.2034 3.72655 10.1907 3.7496 10.1792C3.93086 10.0885 4.11877 10.0043 4.31209 9.92661C4.33121 9.67101 4.35785 9.41324 4.39113 9.15436C4.64049 7.21486 5.84279 5.87957 7.38224 5.3566C8.90429 4.83953 10.6982 5.13364 12.1408 6.29353C12.4636 6.55308 12.5149 7.02518 12.2554 7.34799C11.9958 7.6708 11.5237 7.72208 11.2009 7.46253C10.1391 6.60877 8.87802 6.43265 7.86473 6.77688C6.86882 7.11521 6.0554 7.97273 5.87888 9.34564C5.87383 9.38495 5.86896 9.42409 5.86428 9.46307C7.049 9.21739 8.30356 9.18164 9.41281 9.37347C10.3223 9.53075 11.197 9.85174 11.86 10.3975C12.5432 10.9597 12.9824 11.7492 12.985 12.7411L12.9851 12.7453C12.9852 12.7504 12.9852 12.7562 12.9853 12.7626C12.9853 12.769 12.9854 12.776 12.9853 12.7837C12.9852 12.8145 12.9845 12.8556 12.9821 12.9057C12.9774 13.0055 12.9662 13.1424 12.9407 13.3044C12.8901 13.6251 12.7802 14.063 12.5374 14.5087C12.2917 14.9599 11.9098 15.4181 11.3277 15.7595C10.7463 16.1004 10.0074 16.3 9.08501 16.3C7.09842 16.3 5.72131 15.4846 4.9665 14.071C4.58207 13.3511 4.3772 12.509 4.30623 11.6019C3.17433 12.3691 2.58006 13.2377 2.34649 14.075C2.10011 14.9581 2.23122 15.8907 2.68752 16.7657C3.60962 18.534 5.83948 20 8.58501 20C10.9546 20 12.9883 19.4042 14.4297 18.0213C15.865 16.6444 16.835 14.3698 16.835 10.75C16.835 7.13024 15.865 4.8556 14.4297 3.47871C12.9883 2.09582 10.9546 1.5 8.58501 1.5ZM5.7791 11.0224C5.79895 11.9674 5.96756 12.7613 6.28967 13.3645C6.74781 14.2224 7.57159 14.8 9.08501 14.8C9.78759 14.8 10.255 14.6496 10.5689 14.4655C10.8821 14.2819 11.0846 14.0401 11.2201 13.7913C11.3586 13.537 11.4268 13.2749 11.459 13.0706C11.4749 12.9701 11.4813 12.8883 11.4838 12.835C11.485 12.8084 11.4853 12.7894 11.4853 12.7792L11.4853 12.7711C11.4851 12.7641 11.485 12.757 11.485 12.75C11.485 12.246 11.281 11.8636 10.9068 11.5557C10.5106 11.2295 9.91022 10.9818 9.15721 10.8515C8.10682 10.6699 6.88181 10.7378 5.7791 11.0224Z" fill="#292927"/>
</g>
</svg>
