<svg preserveAspectRatio="xMidYMid meet" overflow="visible" style="display: block;" viewBox="0 0 24 24" fill="none" xmlns="http://www.w3.org/2000/svg">
<g transform="translate(2.2500, 1.3364)">
<path id="Vector" fill-rule="evenodd" clip-rule="evenodd" d="M0.694401 16.4907L9.0944 21.1574C9.50213 21.3839 9.99791 21.3839 10.4056 21.1574L18.8056 16.4907C19.2342 16.2526 19.5 15.8009 19.5 15.3106L19.5 6.01666C19.5 5.52639 19.2342 5.07465 18.8056 4.83655L10.4056 0.169888C9.99791 -0.0566301 9.50213 -0.0566282 9.0944 0.169887L0.694384 4.83655C0.265804 5.07465 0 5.52639 0 6.01667L1.90735e-05 15.3106C1.90735e-05 15.8009 0.265823 16.2526 0.694401 16.4907ZM9.00002 19.389L1.50002 15.2223L1.5 6.93849L5.28443 9.04094C5.10039 9.54727 5.00002 10.0938 5.00002 10.6637C5.00002 13.0318 6.73303 14.9952 9.00002 15.3548V19.389ZM10.5 19.389L18 15.2223L18 6.93851L14.2156 9.04095C14.3996 9.54728 14.5 10.0938 14.5 10.6637C14.5 13.0318 12.767 14.9952 10.5 15.3548V19.389ZM9.75002 13.9137C7.95509 13.9137 6.50002 12.4586 6.50002 10.6637C6.50002 8.86875 7.95509 7.41368 9.75002 7.41368C11.5449 7.41368 13 8.86875 13 10.6637C13 12.4582 11.5455 13.9131 9.75111 13.9137C9.75075 13.9137 9.75038 13.9137 9.75002 13.9137ZM9.75002 1.52159L2.29414 5.66374L6.01381 7.73022C6.88349 6.62409 8.23379 5.91368 9.75002 5.91368C11.2663 5.91368 12.6166 6.62409 13.4862 7.73023L17.2059 5.66375L9.75002 1.52159Z" fill="#292927"/>
</g>
</svg>
