<svg preserveAspectRatio="xMidYMid meet" overflow="visible" style="display: block;" viewBox="0 0 24 24" fill="none" xmlns="http://www.w3.org/2000/svg">
<g transform="translate(1.7237, 0.3428)">
<path id="Vector" fill-rule="evenodd" clip-rule="evenodd" d="M10.9513 0.180866C10.5336 -0.0602884 10.019 -0.0602887 9.60128 0.180866L0.675 5.33446C0.257309 5.57561 0 6.02128 0 6.50359V16.8108C0 17.2931 0.257308 17.7387 0.675 17.9799L9.60128 23.1335C10.019 23.3746 10.5336 23.3746 10.9513 23.1335L19.8776 17.9799C20.2952 17.7387 20.5526 17.2931 20.5526 16.8108V6.50359C20.5526 6.02128 20.2952 5.57561 19.8776 5.33446L10.9513 0.180866ZM1.5 16.7242V6.59019L10.2763 1.5232L19.0526 6.59019V16.7242L10.2763 21.7912L1.5 16.7242ZM7.27628 10.9072C6.86206 10.9072 6.52628 11.243 6.52628 11.6572C6.52628 12.0714 6.86206 12.4072 7.27628 12.4072H13.2763C13.6905 12.4072 14.0263 12.0714 14.0263 11.6572C14.0263 11.243 13.6905 10.9072 13.2763 10.9072H7.27628Z" fill="#292927"/>
</g>
</svg>
