<svg preserveAspectRatio="xMidYMid meet" overflow="visible" style="display: block;" viewBox="0 0 24 24" fill="none" xmlns="http://www.w3.org/2000/svg">
<g transform="translate(0.8925, 1.2500)">
<path id="Vector" fill-rule="evenodd" clip-rule="evenodd" d="M3.05746 2.75C3.05746 2.05964 3.61711 1.5 4.30747 1.5H17.9075C18.5978 1.5 19.1575 2.05964 19.1575 2.75V12.2222H3.05746V2.75ZM2.87475 13.7222H19.3402L20.6661 18.4098C20.8918 19.2076 20.2924 20 19.4633 20H2.75165C1.92255 20 1.32318 19.2076 1.54884 18.4098L2.87475 13.7222ZM1.55746 2.75V12.8682L0.105469 18.0015C-0.39099 19.7567 0.927629 21.5 2.75165 21.5H19.4633C21.2873 21.5 22.6059 19.7567 22.1095 18.0015L20.6575 12.8682V2.75C20.6575 1.23122 19.4262 0 17.9075 0H4.30747C2.78868 0 1.55746 1.23122 1.55746 2.75ZM11.8575 3.75C11.8575 3.33579 11.5217 3 11.1075 3C10.6933 3 10.3575 3.33579 10.3575 3.75V6.75C10.3575 7.16421 10.6933 7.5 11.1075 7.5C11.5217 7.5 11.8575 7.16421 11.8575 6.75V3.75ZM11.6192 9.19156C11.9271 9.46865 11.952 9.94287 11.6749 10.2508L11.6649 10.2619C11.3878 10.5697 10.9136 10.5947 10.6058 10.3176C10.2979 10.0405 10.2729 9.5663 10.55 9.25842L10.56 9.24731C10.8371 8.93942 11.3113 8.91446 11.6192 9.19156ZM10.1075 17C9.69325 17 9.35747 17.3358 9.35747 17.75C9.35747 18.1642 9.69325 18.5 10.1075 18.5L12.1075 18.5C12.5217 18.5 12.8575 18.1642 12.8575 17.75C12.8575 17.3358 12.5217 17 12.1075 17L10.1075 17Z" fill="#292927"/>
</g>
</svg>
