<svg preserveAspectRatio="xMidYMid meet" overflow="visible" style="display: block;" viewBox="0 0 24 24" fill="none" xmlns="http://www.w3.org/2000/svg">
<g transform="translate(3.7500, 2.2500)">
<path id="Vector" fill-rule="evenodd" clip-rule="evenodd" d="M1.5 3.75C1.5 2.50736 2.50736 1.5 3.75 1.5C4.99264 1.5 6 2.50736 6 3.75C6 4.32675 5.78398 4.85125 5.42726 5.24981C5.01419 5.71132 4.4163 6 3.75 6C2.50736 6 1.5 4.99264 1.5 3.75ZM3.75 0C1.67893 0 0 1.67893 0 3.75C0 5.82107 1.67893 7.5 3.75 7.5C4.59961 7.5 5.38367 7.2169 6.01219 6.74097L9.68467 9.75L6.01219 12.759C5.38367 12.2831 4.59961 12 3.75 12C1.67893 12 0 13.6789 0 15.75C0 17.8211 1.67893 19.5 3.75 19.5C5.82107 19.5 7.5 17.8211 7.5 15.75C7.5 15.0717 7.31943 14.4347 7.00417 13.8855L10.8681 10.7196L15.2747 14.3301C15.5951 14.5927 16.0676 14.5457 16.3301 14.2253C16.5927 13.9049 16.5457 13.4324 16.2253 13.1699L12.0514 9.75L16.2253 6.33014C16.5457 6.06762 16.5927 5.59507 16.3301 5.27467C16.0676 4.95427 15.5951 4.90734 15.2747 5.16986L10.8681 8.7804L7.00417 5.61454C7.31943 5.06527 7.5 4.42827 7.5 3.75C7.5 1.67893 5.82107 0 3.75 0ZM1.5 15.75C1.5 16.9926 2.50736 18 3.75 18C4.99264 18 6 16.9926 6 15.75C6 15.1733 5.78398 14.6488 5.42726 14.2502C5.01419 13.7887 4.4163 13.5 3.75 13.5C2.50736 13.5 1.5 14.5074 1.5 15.75Z" fill="#292927"/>
</g>
</svg>
