<svg preserveAspectRatio="xMidYMid meet" overflow="visible" style="display: block;" viewBox="0 0 24 24" fill="none" xmlns="http://www.w3.org/2000/svg">
<g transform="translate(1.2500, 1.2500)">
<path id="Vector" fill-rule="evenodd" clip-rule="evenodd" d="M10.75 1.5C5.64137 1.5 1.5 5.64137 1.5 10.75C1.5 15.8586 5.64137 20 10.75 20C15.8586 20 20 15.8586 20 10.75C20 5.64137 15.8586 1.5 10.75 1.5ZM0 10.75C0 4.81294 4.81294 0 10.75 0C16.6871 0 21.5 4.81294 21.5 10.75C21.5 16.6871 16.6871 21.5 10.75 21.5C4.81294 21.5 0 16.6871 0 10.75ZM12 7.75C12 7.33579 12.3358 7 12.75 7H14.75C15.1642 7 15.5 7.33579 15.5 7.75C15.5 8.16421 15.1642 8.5 14.75 8.5H12.75C12.3358 8.5 12 8.16421 12 7.75ZM7.25 6C7.94036 6 8.5 6.55964 8.5 7.25C8.5 7.94036 7.94036 8.5 7.25 8.5C6.55964 8.5 6 7.94036 6 7.25C6 6.55964 6.55964 6 7.25 6ZM5.81227 12.6409C5.47592 12.8827 5.41971 13.3375 5.64099 13.6876C5.66565 13.7267 5.68216 13.746 5.7079 13.7761C5.71717 13.7869 5.72763 13.7992 5.74011 13.8142C5.79717 13.8831 5.87869 13.9764 5.98518 14.0857C6.19783 14.304 6.51225 14.5888 6.93252 14.8719C7.77712 15.4409 9.04556 15.9999 10.75 15.9999C12.4544 15.9999 13.7229 15.4409 14.5675 14.8719C14.9877 14.5888 15.3022 14.304 15.5148 14.0857C15.6213 13.9764 15.6694 13.9248 15.7599 13.8142C15.7996 13.7656 15.8301 13.7279 15.859 13.6876C16.1008 13.3513 16.0241 12.8827 15.6877 12.6409C15.3041 12.3652 14.8772 12.5283 14.6046 12.8575C14.5711 12.898 14.5164 12.961 14.4403 13.0391C14.2877 13.1958 14.0513 13.411 13.7294 13.6279C13.0896 14.0589 12.1081 14.4999 10.75 14.4999C9.39194 14.4999 8.41038 14.0589 7.7706 13.6279C7.44868 13.411 7.21233 13.1958 7.05974 13.0391C6.98361 12.961 6.92891 12.898 6.89539 12.8575C6.62277 12.5283 6.19586 12.3652 5.81227 12.6409Z" fill="#292927"/>
</g>
</svg>
