<svg preserveAspectRatio="xMidYMid meet" overflow="visible" style="display: block;" viewBox="0 0 24 24" fill="none" xmlns="http://www.w3.org/2000/svg">
<g transform="translate(4.1878, 2.5997)">
<path id="Vector" fill-rule="evenodd" clip-rule="evenodd" d="M1.52902 8.88238C1.20158 5.48176 3.69287 2.45957 7.09349 2.13213L13.5153 1.51378L14.0954 7.53893C14.429 11.0034 11.8276 14.1052 8.34474 14.4405C6.90297 14.5794 5.52028 14.2134 4.37979 13.4884C4.93275 12.382 5.67892 11.1909 6.68213 10.0444C6.95489 9.73266 6.9233 9.25883 6.61157 8.98607C6.29985 8.71331 5.82602 8.7449 5.55326 9.05663C4.54682 10.2068 3.77865 11.3953 3.19374 12.5133C2.27818 11.5511 1.66499 10.2945 1.52902 8.88238ZM2.51897 13.9496C1.15489 12.7144 0.225522 10.9952 0.0359252 9.02614C-0.370918 4.80092 2.72449 1.04588 6.94972 0.639035L13.5208 0.00631019C14.263 -0.0651511 14.9225 0.478554 14.994 1.2207L15.5885 7.39516C16.0033 11.7025 12.7776 15.5207 8.48851 15.9336C6.7834 16.0978 5.14162 15.692 3.76388 14.8702C3.67197 15.1035 3.58892 15.3292 3.51394 15.5458C3.24445 16.3244 3.08056 16.9809 2.98455 17.4388C2.93657 17.6676 2.90563 17.8464 2.88697 17.9655C2.87764 18.025 2.87139 18.0695 2.86761 18.0979L2.86373 18.1282L2.86311 18.1333L2.86306 18.1338C2.8171 18.5452 2.44641 18.8416 2.03487 18.7959C1.62319 18.7502 1.32654 18.3794 1.37228 17.9677L2.1177 18.0505C1.37228 17.9677 1.37231 17.9674 1.37234 17.9671L1.37242 17.9665L1.3726 17.9649L1.37311 17.9605L1.37475 17.9467C1.37613 17.9354 1.37809 17.9198 1.38072 17.9C1.38598 17.8606 1.39388 17.8045 1.40506 17.7332C1.42741 17.5906 1.46288 17.3865 1.51647 17.131C1.62358 16.6201 1.80344 15.9017 2.09646 15.0552C2.21696 14.707 2.35684 14.3366 2.51897 13.9496Z" fill="#292927"/>
</g>
</svg>
