<svg preserveAspectRatio="xMidYMid meet" overflow="visible" style="display: block;" viewBox="0 0 24 24" fill="none" xmlns="http://www.w3.org/2000/svg">
<g transform="translate(1.2500, 1.2500)">
<path id="Vector" fill-rule="evenodd" clip-rule="evenodd" d="M10.75 1.5C5.64137 1.5 1.5 5.64137 1.5 10.75C1.5 15.8586 5.64137 20 10.75 20C15.8586 20 20 15.8586 20 10.75C20 5.64137 15.8586 1.5 10.75 1.5ZM0 10.75C0 4.81294 4.81294 0 10.75 0C16.6871 0 21.5 4.81294 21.5 10.75C21.5 16.6871 16.6871 21.5 10.75 21.5C4.81294 21.5 0 16.6871 0 10.75ZM7.75 8C8.16421 8 8.5 8.33579 8.5 8.75V12.75C8.5 13.1642 8.16421 13.5 7.75 13.5C7.33579 13.5 7 13.1642 7 12.75V8.75C7 8.33579 7.33579 8 7.75 8ZM14.5 8.75C14.5 8.33579 14.1642 8 13.75 8C13.3358 8 13 8.33579 13 8.75V12.75C13 13.1642 13.3358 13.5 13.75 13.5C14.1642 13.5 14.5 13.1642 14.5 12.75V8.75Z" fill="#292927"/>
</g>
</svg>
