<svg preserveAspectRatio="xMidYMid meet" overflow="visible" style="display: block;" viewBox="0 0 24 24" fill="none" xmlns="http://www.w3.org/2000/svg">
<g transform="translate(0.2500, 0.2500)">
<path id="Vector" fill-rule="evenodd" clip-rule="evenodd" d="M1.5 2.75C1.5 2.05964 2.05964 1.5 2.75 1.5H20.75C21.4404 1.5 22 2.05964 22 2.75V20.75C22 21.4404 21.4404 22 20.75 22H2.75C2.05964 22 1.5 21.4404 1.5 20.75V2.75ZM2.75 0C1.23122 0 0 1.23122 0 2.75V20.75C0 22.2688 1.23122 23.5 2.75 23.5H20.75C22.2688 23.5 23.5 22.2688 23.5 20.75V2.75C23.5 1.23122 22.2688 0 20.75 0H2.75ZM14.75 6C14.3358 6 14 6.33579 14 6.75C14 7.16421 14.3358 7.5 14.75 7.5H18.75C19.1642 7.5 19.5 7.16421 19.5 6.75C19.5 6.33579 19.1642 6 18.75 6H14.75ZM14 15.25C14 14.8358 14.3358 14.5 14.75 14.5H18.75C19.1642 14.5 19.5 14.8358 19.5 15.25C19.5 15.6642 19.1642 16 18.75 16H14.75C14.3358 16 14 15.6642 14 15.25ZM14.75 17.5C14.3358 17.5 14 17.8358 14 18.25C14 18.6642 14.3358 19 14.75 19H18.75C19.1642 19 19.5 18.6642 19.5 18.25C19.5 17.8358 19.1642 17.5 18.75 17.5H14.75ZM6.75 4C7.16421 4 7.5 4.33579 7.5 4.75V6H8.75C9.16421 6 9.5 6.33579 9.5 6.75C9.5 7.16421 9.16421 7.5 8.75 7.5H7.5V8.75C7.5 9.16421 7.16421 9.5 6.75 9.5C6.33579 9.5 6 9.16421 6 8.75V7.5H4.75C4.33579 7.5 4 7.16421 4 6.75C4 6.33579 4.33579 6 4.75 6H6V4.75C6 4.33579 6.33579 4 6.75 4ZM5.8661 14.8055C5.57321 14.5126 5.09834 14.5126 4.80544 14.8055C4.51255 15.0983 4.51255 15.5732 4.80544 15.8661L5.68933 16.75L4.80544 17.6339C4.51255 17.9268 4.51255 18.4016 4.80544 18.6945C5.09834 18.9874 5.57321 18.9874 5.8661 18.6945L6.74999 17.8107L7.63387 18.6945C7.92676 18.9874 8.40164 18.9874 8.69453 18.6945C8.98742 18.4016 8.98742 17.9268 8.69453 17.6339L7.81065 16.75L8.69453 15.8661C8.98742 15.5732 8.98742 15.0983 8.69453 14.8055C8.40164 14.5126 7.92676 14.5126 7.63387 14.8055L6.74999 15.6893L5.8661 14.8055Z" fill="#292927"/>
</g>
</svg>
