<svg preserveAspectRatio="xMidYMid meet" overflow="visible" style="display: block;" viewBox="0 0 24 24" fill="none" xmlns="http://www.w3.org/2000/svg">
<g transform="translate(1.7500, 2.2500)">
<path id="Vector" fill-rule="evenodd" clip-rule="evenodd" d="M5.5 4.31472C5.5 2.74718 6.74411 1.5 8.25 1.5C9.75589 1.5 11 2.74718 11 4.31472C11 4.5577 10.9701 4.7926 10.9141 5.01618C10.7784 5.00575 10.6447 5 10.5147 5C8.88426 5 7.34962 5.35987 6.0428 5.99403C5.70214 5.526 5.5 4.94578 5.5 4.31472ZM4.75061 6.76383C4.27696 6.06733 4 5.22273 4 4.31472C4 1.94478 5.88989 0 8.25 0C10.6101 0 12.5 1.94478 12.5 4.31472C12.5 4.63951 12.4645 4.9566 12.3971 5.26196C12.6963 5.33087 12.9779 5.40386 13.224 5.46813L17.5128 4.03849C17.7445 3.96129 17.9992 4.00165 18.1956 4.14669C18.392 4.29173 18.5055 4.52328 18.4998 4.76736L18.4277 7.88392L20.0394 8.5581C20.3184 8.67479 20.5 8.94761 20.5 9.25001V12.75C20.5 13.03 20.3441 13.2866 20.0956 13.4156L18.3675 14.3129C17.8734 15.2411 17.1302 16.0485 16.2212 16.694L16.5439 17.7583C16.8068 18.6253 16.1579 19.5 15.252 19.5H13.4879C13.1956 19.5 12.9113 19.4052 12.6775 19.2298L11.483 18.3333H9.54631L8.35178 19.2298C8.11805 19.4052 7.83371 19.5 7.54147 19.5H5.77736C4.8714 19.5 4.22257 18.6253 4.48544 17.7583L4.80816 16.6939C3.12443 15.4972 2 13.7352 2 11.7083C2 11.56 2.00604 11.4131 2.0179 11.2677C1.05706 10.8006 0.552818 9.97703 0.296688 9.28549C0.14745 8.88254 0.0742781 8.50687 0.0378291 8.2335C0.0194601 8.09573 0.0100356 7.98102 0.00518543 7.89808C0.00275582 7.85654 0.00146097 7.82274 0.000772715 7.79775L0.00012821 7.76694L2.39611e-05 7.75669L5.00679e-06 7.7529L0 7.75133V7.75064C0 7.75031 0 7.75 0.75 7.75H0C0 7.33579 0.335786 7 0.75 7C1.16316 7 1.49829 7.33408 1.49999 7.74683L1.49999 7.74686L1.5002 7.75645C1.50049 7.76691 1.50115 7.78526 1.50263 7.81051C1.50559 7.86117 1.51179 7.93864 1.52467 8.03525C1.55072 8.23063 1.60255 8.49246 1.70331 8.76451C1.83757 9.12703 2.04418 9.47645 2.3734 9.73105C2.80249 8.62783 3.57687 7.66043 4.56763 6.90015C4.62779 6.85399 4.68879 6.80855 4.75061 6.76383ZM17.1451 13.4314C17.2126 13.2873 17.3263 13.1634 17.4785 13.0844L19 12.2944V9.74926L17.3766 9.07021C17.0918 8.95108 16.9091 8.66959 16.9162 8.36095L16.9755 5.79873L13.4966 6.95837C13.4289 6.98203 13.3574 6.99611 13.2842 6.99942C13.2046 7.00309 13.126 6.9939 13.051 6.9732L12.9426 6.94506C12.1485 6.73871 11.2299 6.5 10.5147 6.5C8.52116 6.5 6.74392 7.12088 5.4808 8.09016C4.21844 9.05885 3.5 10.3446 3.5 11.7083C3.5 13.2727 4.4499 14.7427 6.07867 15.7357C6.37057 15.9137 6.50518 16.2665 6.40598 16.5937L5.97959 18H7.49145L8.84601 16.9835C8.97587 16.886 9.13384 16.8333 9.29619 16.8333H11.7331C11.8955 16.8333 12.0535 16.886 12.1833 16.9835L13.5379 18H15.0497L14.6233 16.5937C14.5241 16.2665 14.6588 15.9137 14.9507 15.7357C15.9179 15.146 16.6505 14.3819 17.0816 13.5348C17.1003 13.4981 17.1216 13.4636 17.1451 13.4314ZM14.25 9C14.9404 9 15.5 9.55964 15.5 10.25C15.5 10.9404 14.9404 11.5 14.25 11.5C13.5596 11.5 13 10.9404 13 10.25C13 9.55964 13.5596 9 14.25 9Z" fill="#292927"/>
</g>
</svg>
