<svg preserveAspectRatio="xMidYMid meet" overflow="visible" style="display: block;" viewBox="0 0 24 24" fill="none" xmlns="http://www.w3.org/2000/svg">
<g transform="translate(1.2500, 2.2500)">
<path id="Vector" fill-rule="evenodd" clip-rule="evenodd" d="M0 7.15C0 7.89558 0.604416 8.5 1.35 8.5H5.15C5.89558 8.5 6.5 7.89558 6.5 7.15V5H9.25C9.94036 5 10.5 5.55964 10.5 6.25V13.25C10.5 13.9404 9.94036 14.5 9.25 14.5H6.5V12.35C6.5 11.6044 5.89558 11 5.15 11H1.35C0.604416 11 0 11.6044 0 12.35V18.15C0 18.8956 0.604416 19.5 1.35 19.5H5.15C5.89558 19.5 6.5 18.8956 6.5 18.15V16H9.25C10.7688 16 12 14.7688 12 13.25V10.5H15V12.65C15 13.3956 15.6044 14 16.35 14H20.15C20.8956 14 21.5 13.3956 21.5 12.65V6.85C21.5 6.10442 20.8956 5.5 20.15 5.5H16.35C15.6044 5.5 15 6.10442 15 6.85V9H12V6.25C12 4.73122 10.7688 3.5 9.25 3.5H6.5V1.35C6.5 0.604415 5.89558 0 5.15 0H1.35C0.604416 0 0 0.604415 0 1.35V7.15ZM5 7H1.5V1.5H5V7ZM16.5 12.5H20V7H16.5V12.5ZM1.5 18H5V12.5H1.5V18Z" fill="#292927"/>
</g>
</svg>
