<svg preserveAspectRatio="xMidYMid meet" overflow="visible" style="display: block;" viewBox="0 0 24 24" fill="none" xmlns="http://www.w3.org/2000/svg">
<g transform="translate(1.2500, 1.8750)">
<path id="Vector" fill-rule="evenodd" clip-rule="evenodd" d="M1.5 11V1.5H12V3.75V11H8.39648C8.07002 9.84575 7.00878 9 5.75 9C4.49122 9 3.42998 9.84575 3.10352 11H1.5ZM13.5 3V1.35C13.5 0.604416 12.8956 0 12.15 0H1.35C0.604416 0 0 0.604415 0 1.35V11.15C0 11.8956 0.604416 12.5 1.35 12.5H3.10352C3.42998 13.6543 4.49122 14.5 5.75 14.5C7.00878 14.5 8.07002 13.6543 8.39648 12.5H12.75H12.75H13.1035C13.43 13.6543 14.4912 14.5 15.75 14.5C17.0088 14.5 18.07 13.6543 18.3965 12.5H20.15C20.8956 12.5 21.5 11.8956 21.5 11.15V8.37733C21.5 8.18844 21.4604 8.00165 21.3836 7.82904L19.5937 3.80171C19.377 3.31419 18.8936 3 18.3601 3H13.5ZM15.75 13C15.0596 13 14.5 12.4404 14.5 11.75C14.5 11.0596 15.0596 10.5 15.75 10.5C16.4404 10.5 17 11.0596 17 11.75C17 12.4404 16.4404 13 15.75 13ZM13.5 4.5V10.1685C13.9977 9.46172 14.8199 9 15.75 9C17.0088 9 18.07 9.84575 18.3965 11H20V8.40916L18.2626 4.5H13.5ZM5.75 10.5C5.05964 10.5 4.5 11.0596 4.5 11.75C4.5 12.4404 5.05964 13 5.75 13C6.44036 13 7 12.4404 7 11.75C7 11.0596 6.44036 10.5 5.75 10.5ZM20.0303 18.2803C20.171 18.1397 20.25 17.9489 20.25 17.75C20.25 17.5511 20.171 17.3603 20.0303 17.2197L18.2803 15.4697C17.9874 15.1768 17.5126 15.1768 17.2197 15.4697C16.9268 15.7626 16.9268 16.2374 17.2197 16.5303L17.6893 17H3.56066L4.03033 16.5303C4.32322 16.2374 4.32322 15.7626 4.03033 15.4697C3.73744 15.1768 3.26256 15.1768 2.96967 15.4697L1.21967 17.2197C0.926777 17.5126 0.926777 17.9874 1.21967 18.2803L2.96967 20.0303C3.26256 20.3232 3.73744 20.3232 4.03033 20.0303C4.32322 19.7374 4.32322 19.2626 4.03033 18.9697L3.56066 18.5H17.6893L17.2197 18.9697C16.9268 19.2626 16.9268 19.7374 17.2197 20.0303C17.5126 20.3232 17.9874 20.3232 18.2803 20.0303L20.0303 18.2803Z" fill="#292927"/>
</g>
</svg>
