<svg preserveAspectRatio="xMidYMid meet" overflow="visible" style="display: block;" viewBox="0 0 24 24" fill="none" xmlns="http://www.w3.org/2000/svg">
<g transform="translate(4.2500, 4.2450)">
<path id="Vector" fill-rule="evenodd" clip-rule="evenodd" d="M10.3697 5.13033C12.6601 7.42075 14 10.7204 14 14.75C14 15.1642 14.3358 15.5 14.75 15.5C15.1642 15.5 15.5 15.1642 15.5 14.75C15.5 10.3796 14.0399 6.67926 11.4303 4.06967C8.82075 1.46009 5.12044 0 0.750002 0C0.335789 0 0 0.335787 0 0.75C0 1.16421 0.335789 1.5 0.750002 1.5C4.77957 1.5 8.07926 2.83992 10.3697 5.13033ZM5.29467 10.2053C6.36009 11.2707 7 12.8204 7 14.75C7 15.1642 7.33579 15.5 7.75 15.5C8.16421 15.5 8.5 15.1642 8.5 14.75C8.5 12.4796 7.73991 10.5293 6.35533 9.14467C4.97075 7.76009 3.02044 7 0.750001 7C0.335787 7 0 7.33579 0 7.75C0 8.16421 0.335787 8.5 0.750001 8.5C2.67956 8.5 4.22925 9.13992 5.29467 10.2053ZM1.31748 15.2508C1.59457 14.9429 1.56961 14.4687 1.26173 14.1916C0.953848 13.9145 0.479631 13.9394 0.202536 14.2473L0.192536 14.2584C-0.0845582 14.5663 -0.0595997 15.0405 0.248283 15.3176C0.556165 15.5947 1.03038 15.5697 1.30748 15.2619L1.31748 15.2508Z" fill="#292927"/>
</g>
</svg>
