<svg preserveAspectRatio="xMidYMid meet" overflow="visible" style="display: block;" viewBox="0 0 24 24" fill="none" xmlns="http://www.w3.org/2000/svg">
<g transform="translate(1.2500, 3.7500)">
<path id="Vector" fill-rule="evenodd" clip-rule="evenodd" d="M0.75 0C0.335786 0 0 0.335788 0 0.750001C0 1.16421 0.335786 1.5 0.75 1.5L18.75 1.5C19.1642 1.5 19.5 1.16421 19.5 0.75C19.5 0.335787 19.1642 0 18.75 0H0.75ZM0.75 6C0.335786 6 0 6.33579 0 6.75C0 7.16422 0.335786 7.5 0.75 7.5L18.75 7.5C19.1642 7.5 19.5 7.16421 19.5 6.75C19.5 6.33579 19.1642 6 18.75 6L0.75 6ZM19.5 11.75C19.5 11.3358 19.1642 11 18.75 11C18.3358 11 18 11.3358 18 11.75V13H16.75C16.3358 13 16 13.3358 16 13.75C16 14.1642 16.3358 14.5 16.75 14.5H18V15.75C18 16.1642 18.3358 16.5 18.75 16.5C19.1642 16.5 19.5 16.1642 19.5 15.75V14.5H20.75C21.1642 14.5 21.5 14.1642 21.5 13.75C21.5 13.3358 21.1642 13 20.75 13H19.5V11.75ZM12.75 13.5L0.75 13.5C0.335786 13.5 0 13.1642 0 12.75C0 12.3358 0.335786 12 0.75 12L12.75 12C13.1642 12 13.5 12.3358 13.5 12.75C13.5 13.1642 13.1642 13.5 12.75 13.5Z" fill="#292927"/>
</g>
</svg>
