<svg preserveAspectRatio="xMidYMid meet" overflow="visible" style="display: block;" viewBox="0 0 24 24" fill="none" xmlns="http://www.w3.org/2000/svg">
<g transform="translate(1.2500, 2.2500)">
<path id="Vector" fill-rule="evenodd" clip-rule="evenodd" d="M2.75 1.5C2.05964 1.5 1.5 2.05964 1.5 2.75V14.75C1.5 15.4404 2.05964 16 2.75 16H8.75C9.16421 16 9.5 16.3358 9.5 16.75C9.5 17.1642 9.16421 17.5 8.75 17.5H2.75C1.23122 17.5 0 16.2688 0 14.75V2.75C0 1.23122 1.23122 0 2.75 0H18.75C20.2688 0 21.5 1.23122 21.5 2.75V9.60714C21.5 10.0214 21.1642 10.3571 20.75 10.3571C20.3358 10.3571 20 10.0214 20 9.60714V2.75C20 2.05964 19.4404 1.5 18.75 1.5H2.75ZM5.10687 4.36413C5.31998 4.00894 5.78068 3.89377 6.13586 4.10688L10.75 6.87536L15.3641 4.10688C15.7193 3.89377 16.18 4.00894 16.3931 4.36413C16.6062 4.71931 16.491 5.18001 16.1359 5.39312L11.1359 8.39312C10.8984 8.53563 10.6016 8.53563 10.3641 8.39312L5.36412 5.39312C5.00893 5.18001 4.89376 4.71931 5.10687 4.36413ZM15.427 11.2836C15.7217 10.9925 15.7247 10.5177 15.4336 10.223C15.1425 9.92827 14.6677 9.92532 14.373 10.2164L11.223 13.3275C11.0803 13.4684 11 13.6606 11 13.8611C11 14.0616 11.0803 14.2538 11.223 14.3947L14.373 17.5058C14.6677 17.7969 15.1425 17.794 15.4336 17.4992C15.7247 17.2045 15.7217 16.7297 15.427 16.4386L13.5767 14.6111H18.05C18.7711 14.6111 19.2458 14.851 19.5398 15.1504C19.8418 15.458 20 15.8757 20 16.3056C20 16.7354 19.8418 17.1531 19.5398 17.4607C19.2458 17.7601 18.7711 18 18.05 18C17.6358 18 17.3 18.3358 17.3 18.75C17.3 19.1642 17.6358 19.5 18.05 19.5C19.1289 19.5 20.0042 19.1287 20.6102 18.5116C21.2082 17.9025 21.5 17.0979 21.5 16.3056C21.5 15.5132 21.2082 14.7087 20.6102 14.0996C20.0042 13.4824 19.1289 13.1111 18.05 13.1111H13.5767L15.427 11.2836Z" fill="#292927"/>
</g>
</svg>
