<svg preserveAspectRatio="xMidYMid meet" overflow="visible" style="display: block;" viewBox="0 0 24 24" fill="none" xmlns="http://www.w3.org/2000/svg">
<g transform="translate(2.2500, 2.2500)">
<path id="Vector" fill-rule="evenodd" clip-rule="evenodd" d="M1.5 18V1.5H18V18H1.5ZM1.35 0C0.604417 0 0 0.604415 0 1.35V18.15C0 18.8956 0.604415 19.5 1.35 19.5H18.15C18.8956 19.5 19.5 18.8956 19.5 18.15V1.35C19.5 0.604417 18.8956 0 18.15 0H1.35ZM7.35 4C6.60442 4 6 4.60442 6 5.35V14.65C6 15.3956 6.60442 16 7.35 16H9.75V15.25C9.75 16 9.75113 16 9.75148 16L9.75325 16L9.75763 16L9.76969 15.9998C9.77918 15.9997 9.79155 15.9994 9.8066 15.999C9.83668 15.9981 9.87763 15.9963 9.92791 15.993C10.0282 15.9865 10.1671 15.9736 10.332 15.9484C10.6581 15.8986 11.1053 15.7976 11.5625 15.588C12.021 15.3779 12.5117 15.0481 12.8878 14.531C13.2697 14.0058 13.5 13.3329 13.5 12.5C13.5 11.6671 13.2697 10.9942 12.8878 10.469C12.6328 10.1184 12.3251 9.85389 12.0105 9.6544C12.1807 9.50295 12.3419 9.32358 12.4834 9.11133C12.8088 8.62328 13 8.00624 13 7.25C13 6.49377 12.8088 5.87673 12.4834 5.38867C12.1612 4.90531 11.7369 4.59242 11.3354 4.39169C10.5537 4.00082 9.78831 4 9.75 4H7.35ZM7.5 10.5H9.74739L9.76079 10.5003C9.77465 10.5007 9.79815 10.5017 9.8299 10.5038C9.89365 10.5079 9.98914 10.5166 10.1055 10.5344C10.3419 10.5705 10.6447 10.6413 10.9375 10.7755C11.229 10.9091 11.4883 11.0949 11.6747 11.3513C11.8553 11.5996 12 11.9579 12 12.5C12 13.0421 11.8553 13.4004 11.6747 13.6487C11.4883 13.9051 11.229 14.0909 10.9375 14.2245C10.6447 14.3587 10.3419 14.4295 10.1055 14.4656C9.98914 14.4834 9.89365 14.4921 9.8299 14.4962C9.79815 14.4983 9.77465 14.4993 9.76079 14.4997L9.74708 14.5L7.5 14.5V10.5ZM9.74708 14.5L9.74672 14.5L9.74879 14.5H9.74708ZM9.74587 9H7.5V5.5H9.74898L9.74787 5.50001C9.74787 5.50002 9.7484 5.50003 9.74944 5.50007C9.77932 5.50103 10.229 5.51554 10.6646 5.73333C10.8881 5.84509 11.0888 6.00096 11.2353 6.22072C11.3787 6.43578 11.5 6.75624 11.5 7.25C11.5 7.74376 11.3787 8.06422 11.2353 8.27928C11.0888 8.49905 10.8881 8.65491 10.6646 8.76668C10.4381 8.87991 10.2026 8.94026 10.0173 8.97114C9.92647 8.98628 9.85241 8.99356 9.80398 8.99702C9.7799 8.99874 9.76255 8.99949 9.75309 8.99981L9.74587 9Z" fill="#292927"/>
</g>
</svg>
