<svg preserveAspectRatio="xMidYMid meet" overflow="visible" style="display: block;" viewBox="0 0 24 24" fill="none" xmlns="http://www.w3.org/2000/svg">
<g transform="translate(1.2500, 1.2500)">
<path id="Vector" fill-rule="evenodd" clip-rule="evenodd" d="M10.75 1.5C5.64137 1.5 1.5 5.64137 1.5 10.75C1.5 15.8586 5.64137 20 10.75 20C15.8586 20 20 15.8586 20 10.75C20 5.64137 15.8586 1.5 10.75 1.5ZM0 10.75C0 4.81294 4.81294 0 10.75 0C16.6871 0 21.5 4.81294 21.5 10.75C21.5 16.6871 16.6871 21.5 10.75 21.5C4.81294 21.5 0 16.6871 0 10.75ZM7.36412 6.10699C7.7193 5.89388 8.18 6.00906 8.39311 6.36424L10.75 10.2924L13.1069 6.36424C13.32 6.00906 13.7807 5.89388 14.1359 6.10699C14.4911 6.3201 14.6062 6.7808 14.3931 7.13599L11.5 11.9579V14.7501C11.5 15.1643 11.1642 15.5001 10.75 15.5001C10.3358 15.5001 10 15.1643 10 14.7501V11.9579L7.10687 7.13599C6.89376 6.7808 7.00893 6.3201 7.36412 6.10699Z" fill="#292927"/>
</g>
</svg>
