<svg preserveAspectRatio="xMidYMid meet" overflow="visible" style="display: block;" viewBox="0 0 24 24" fill="none" xmlns="http://www.w3.org/2000/svg">
<g transform="translate(2.2499, 2.3900)">
<path id="Vector" fill-rule="evenodd" clip-rule="evenodd" d="M0.000206485 1.74977C0.000332311 0.783363 0.783797 0 1.75021 0H17.7503C18.7168 0 19.5003 0.783501 19.5003 1.75V3.33579C19.5003 3.79992 19.316 4.24503 18.9878 4.57322L12.5736 10.9874C12.5267 11.0343 12.5003 11.0979 12.5003 11.1642L12.5003 16.9692C12.5003 17.7722 11.9538 18.4722 11.1748 18.667L9.17477 19.167C8.07027 19.4431 7.00034 18.6077 7.00034 17.4692L7.00034 11.1642C7.00034 11.0979 6.974 11.0343 6.92711 10.9874L0.512598 4.5733C0.184332 4.24505 -6.04243e-05 3.79982 1.48531e-08 3.3356L0.000206485 1.74977ZM1.75021 1.5C1.61215 1.5 1.50022 1.61191 1.50021 1.74997L1.5 3.33579C1.49999 3.40211 1.52633 3.46571 1.57323 3.51261L7.98774 9.92676C8.31595 10.255 8.50034 10.7001 8.50034 11.1642L8.50034 17.4692C8.50034 17.6319 8.65318 17.7512 8.81097 17.7118L10.811 17.2118C10.9223 17.1839 11.0003 17.0839 11.0003 16.9692L11.0003 11.1642C11.0003 10.7001 11.1847 10.255 11.5129 9.92678L17.9271 3.51256C17.974 3.46568 18.0003 3.40209 18.0003 3.33579V1.75C18.0003 1.61193 17.8884 1.5 17.7503 1.5H1.75021Z" fill="#292927"/>
</g>
</svg>
