<svg preserveAspectRatio="xMidYMid meet" overflow="visible" style="display: block;" viewBox="0 0 24 24" fill="none" xmlns="http://www.w3.org/2000/svg">
<g transform="translate(1.2500, 1.2500)">
<path id="Vector" fill-rule="evenodd" clip-rule="evenodd" d="M10.75 1.5C5.64137 1.5 1.5 5.64137 1.5 10.75C1.5 15.8586 5.64137 20 10.75 20C13.0343 20 15.1253 19.172 16.739 17.7997L15.7197 16.7803C15.4268 16.4874 15.4268 16.0126 15.7197 15.7197C16.0126 15.4268 16.4874 15.4268 16.7803 15.7197L17.7997 16.739C19.172 15.1253 20 13.0343 20 10.75C20 5.64137 15.8586 1.5 10.75 1.5ZM0 10.75C0 4.81294 4.81294 0 10.75 0C16.6871 0 21.5 4.81294 21.5 10.75C21.5 16.6871 16.6871 21.5 10.75 21.5C4.81294 21.5 0 16.6871 0 10.75ZM10.75 12.5C9.7835 12.5 9 11.7165 9 10.75C9 9.7835 9.7835 9 10.75 9C11.7165 9 12.5 9.7835 12.5 10.75C12.5 11.7165 11.7165 12.5 10.75 12.5ZM13.7197 14.7803C14.0126 15.0732 14.4874 15.0732 14.7803 14.7803C15.0732 14.4874 15.0732 14.0126 14.7803 13.7197L13.7803 12.7197C13.4874 12.4268 13.0126 12.4268 12.7197 12.7197C12.4268 13.0126 12.4268 13.4874 12.7197 13.7803L13.7197 14.7803Z" fill="#292927"/>
</g>
</svg>
