<svg preserveAspectRatio="xMidYMid meet" overflow="visible" style="display: block;" viewBox="0 0 24 24" fill="none" xmlns="http://www.w3.org/2000/svg">
<g transform="translate(1.2500, 2.1013)">
<path id="Vector" fill-rule="evenodd" clip-rule="evenodd" d="M1.5 7.95C1.5 4.36771 4.318 1.5 7.75 1.5C11.182 1.5 14 4.36771 14 7.95C14 8.75219 13.6368 9.78858 12.9984 10.955C12.3704 12.1021 11.5238 13.2907 10.6627 14.3747C9.80385 15.4559 8.94301 16.4174 8.29593 17.1094C8.08943 17.3303 7.90509 17.5233 7.75 17.6835C7.59491 17.5233 7.41057 17.3303 7.20407 17.1094C6.55699 16.4174 5.69615 15.4559 4.83726 14.3747C3.97616 13.2907 3.12955 12.1021 2.50164 10.955C1.86319 9.78858 1.5 8.75219 1.5 7.95ZM7.22625 19.2868C7.22638 19.287 7.22648 19.2871 7.75 18.75L7.22625 19.2868ZM8.27414 19.2864C8.27401 19.2866 8.27352 19.2871 7.75 18.75L8.27414 19.2864ZM8.27414 19.2864L8.27983 19.2809L8.2961 19.2649L8.35727 19.2044C8.41034 19.1517 8.48744 19.0745 8.58514 18.9753C8.7805 18.7769 9.05848 18.4902 9.39157 18.1339C10.057 17.4223 10.9461 16.4294 11.8373 15.3077C12.7262 14.1887 13.6296 12.9258 14.3141 11.6752C14.9882 10.4438 15.5 9.13603 15.5 7.95C15.5 3.57939 12.05 0 7.75 0C3.45002 0 0 3.57939 0 7.95C0 9.13603 0.511808 10.4438 1.18586 11.6752C1.87045 12.9258 2.77384 14.1887 3.66275 15.3077C4.55385 16.4294 5.44301 17.4223 6.10843 18.1339C6.44152 18.4902 6.7195 18.7769 6.91486 18.9753C7.01256 19.0745 7.08966 19.1517 7.14273 19.2044L7.2039 19.2649L7.22017 19.2809L7.22625 19.2868L7.75 19.7974L8.27414 19.2864ZM14.75 17C14.3358 17 14 17.3358 14 17.75C14 18.1642 14.3358 18.5 14.75 18.5H20.75C21.1642 18.5 21.5 18.1642 21.5 17.75C21.5 17.3358 21.1642 17 20.75 17H14.75ZM7.75 6C6.7835 6 6 6.7835 6 7.75C6 8.7165 6.7835 9.5 7.75 9.5C8.7165 9.5 9.5 8.7165 9.5 7.75C9.5 6.7835 8.7165 6 7.75 6Z" fill="#292927"/>
</g>
</svg>
