<svg preserveAspectRatio="xMidYMid meet" overflow="visible" style="display: block;" viewBox="0 0 24 24" fill="none" xmlns="http://www.w3.org/2000/svg">
<g transform="translate(4.0000, 6.2500)">
<path id="Vector" fill-rule="evenodd" clip-rule="evenodd" d="M12.0371 0.0569091C11.9487 0.0202391 11.8517 0 11.75 0C11.6483 0 11.5513 0.0202391 11.4629 0.0569091C11.3745 0.0935089 11.2916 0.147762 11.2197 0.21967L7.71967 3.71967C7.42678 4.01256 7.42678 4.48744 7.71967 4.78033C8.01256 5.07322 8.48744 5.07322 8.78033 4.78033L11 2.56066V6.75C11 8.54493 9.54493 10 7.75 10H0.75C0.335786 10 0 10.3358 0 10.75C0 11.1642 0.335786 11.5 0.75 11.5H7.75C10.3734 11.5 12.5 9.37335 12.5 6.75V2.56066L14.7197 4.78033C15.0126 5.07322 15.4874 5.07322 15.7803 4.78033C16.0732 4.48744 16.0732 4.01256 15.7803 3.71967L12.2803 0.21967C12.2084 0.147762 12.1255 0.0935089 12.0371 0.0569091Z" fill="#292927"/>
</g>
</svg>
