<svg preserveAspectRatio="xMidYMid meet" overflow="visible" style="display: block;" viewBox="0 0 24 24" fill="none" xmlns="http://www.w3.org/2000/svg">
<g transform="translate(2.2500, 2.2500)">
<path id="Vector" fill-rule="evenodd" clip-rule="evenodd" d="M1.28033 0.21967C0.987437 -0.0732233 0.512563 -0.0732233 0.21967 0.21967C-0.0732233 0.512563 -0.0732233 0.987437 0.21967 1.28033L3.15425 4.21491C3.04168 4.70545 2.99146 5.22322 2.99994 5.76198C3.0266 7.45663 3.59104 8.65221 4.71956 9.78055C5.23841 10.2993 5.5184 10.5891 5.70414 10.9606C5.88081 11.3139 5.99992 11.8073 5.99985 12.7501C5.99982 13.1643 6.33558 13.5002 6.74979 13.5002C7.164 13.5002 7.49982 13.1645 7.49985 12.7502C7.49993 11.6931 7.36911 10.9364 7.04578 10.2898C6.74076 9.67972 6.28891 9.22821 5.82251 8.76216L5.78014 8.71981C4.90835 7.84815 4.51988 7.01751 4.49975 5.73838C4.49881 5.67836 4.49878 5.619 4.49966 5.56032L18.2197 19.2803C18.5126 19.5732 18.9874 19.5732 19.2803 19.2803C19.5732 18.9874 19.5732 18.5126 19.2803 18.2197L1.28033 0.21967ZM7.01272 1.92967C7.74231 1.65663 8.6511 1.5 9.74985 1.5C11.6383 1.5 12.9521 1.96094 13.7777 2.67398C14.5862 3.37227 15.0211 4.3935 14.9999 5.7382C14.9798 7.01723 14.5911 7.84794 13.7195 8.71971C13.4266 9.01263 13.4266 9.4875 13.7196 9.78037C14.0125 10.0732 14.4873 10.0732 14.7802 9.78029C15.9083 8.65206 16.4731 7.45654 16.4998 5.7618C16.5266 4.05678 15.9615 2.57802 14.7581 1.53874C13.5718 0.514201 11.8615 0 9.74985 0C8.51361 0 7.42002 0.175638 6.48697 0.524822C6.09904 0.670004 5.90224 1.10218 6.04743 1.49012C6.19261 1.87806 6.62479 2.07485 7.01272 1.92967ZM6 15.75C6 15.3358 6.33579 15 6.75 15H12.75C13.1642 15 13.5 15.3358 13.5 15.75C13.5 16.1642 13.1642 16.5 12.75 16.5H6.75C6.33579 16.5 6 16.1642 6 15.75ZM7.75 19.5C7.33579 19.5 7 19.1642 7 18.75C7 18.3358 7.33579 18 7.75 18H11.75C12.1642 18 12.5 18.3358 12.5 18.75C12.5 19.1642 12.1642 19.5 11.75 19.5H7.75Z" fill="#292927"/>
</g>
</svg>
