<svg preserveAspectRatio="xMidYMid meet" overflow="visible" style="display: block;" viewBox="0 0 24 24" fill="none" xmlns="http://www.w3.org/2000/svg">
<g transform="translate(1.8332, 1.7500)">
<path id="Vector" fill-rule="evenodd" clip-rule="evenodd" d="M18.6443 12.6285L12.4258 1.96832L7.52263 6.87153L13.7411 17.5317L18.6443 12.6285ZM20.2219 12.356L16.2858 5.60839L18.6138 3.28033C18.9067 2.98744 18.9067 2.51256 18.6138 2.21967C18.3209 1.92678 17.8461 1.92678 17.5532 2.21967L15.5042 4.26861L13.2412 0.389068C13.2177 0.346415 13.1898 0.305559 13.1575 0.267184C13.0127 0.0947208 12.8005 0.000178512 12.5834 2.50699e-07C12.5326 -4.12846e-05 12.4816 0.00507802 12.4311 0.0155686C12.3105 0.0404666 12.195 0.0952296 12.0962 0.179856C12.078 0.195377 12.0606 0.211655 12.0442 0.228614L6.05892 6.21391C6.04151 6.23095 6.02487 6.24889 6.00909 6.26769C5.97785 6.30481 5.95078 6.34425 5.92787 6.38538L0.102288 16.3721C-0.106422 16.7299 0.0144299 17.1891 0.372219 17.3978C0.730008 17.6065 1.18925 17.4857 1.39796 17.1279L6.58346 8.23848L12.2777 18H5.0835C4.66928 18 4.3335 18.3358 4.3335 18.75C4.3335 19.1642 4.66928 19.5 5.0835 19.5H13.5835C13.6002 19.5 13.6169 19.4994 13.6335 19.4983C13.8085 19.4867 13.9801 19.414 14.1138 19.2803L20.1 13.2942C20.1534 13.2436 20.1982 13.1861 20.2338 13.124C20.2814 13.0413 20.312 12.9515 20.3255 12.8597C20.3411 12.7541 20.3344 12.6446 20.3033 12.539C20.2848 12.4754 20.2576 12.4138 20.2219 12.356ZM0.553166 19.2197C0.260273 19.5126 0.260273 19.9874 0.553166 20.2803C0.846059 20.5732 1.32093 20.5732 1.61383 20.2803L7.11383 14.7803C7.40672 14.4874 7.40672 14.0126 7.11383 13.7197C6.82093 13.4268 6.34606 13.4268 6.05317 13.7197L0.553166 19.2197Z" fill="#292927"/>
</g>
</svg>
