<svg preserveAspectRatio="xMidYMid meet" overflow="visible" style="display: block;" viewBox="0 0 24 24" fill="none" xmlns="http://www.w3.org/2000/svg">
<g transform="translate(5.2500, 1.2500)">
<path id="Vector" fill-rule="evenodd" clip-rule="evenodd" d="M10.2803 4.28033L7.28033 7.28033C6.98744 7.57322 6.51256 7.57322 6.21967 7.28033L3.21967 4.28033C2.92678 3.98744 2.92678 3.51256 3.21967 3.21967C3.51256 2.92678 3.98744 2.92678 4.28033 3.21967L6 4.93934V0.75C6 0.335786 6.33579 0 6.75 0C7.16421 0 7.5 0.335786 7.5 0.75V4.93934L9.21967 3.21967C9.51256 2.92678 9.98744 2.92678 10.2803 3.21967C10.5732 3.51256 10.5732 3.98744 10.2803 4.28033ZM13.5 10.75C13.5 11.1642 13.1642 11.5 12.75 11.5H0.75C0.335787 11.5 0 11.1642 0 10.75C0 10.3358 0.335787 10 0.75 10H12.75C13.1642 10 13.5 10.3358 13.5 10.75ZM3.21967 17.2197L6.21967 14.2197C6.51256 13.9268 6.98744 13.9268 7.28033 14.2197L10.2803 17.2197C10.5732 17.5126 10.5732 17.9874 10.2803 18.2803C9.98744 18.5732 9.51256 18.5732 9.21967 18.2803L7.5 16.5607V20.75C7.5 21.1642 7.16421 21.5 6.75 21.5C6.33579 21.5 6 21.1642 6 20.75V16.5607L4.28033 18.2803C3.98744 18.5732 3.51256 18.5732 3.21967 18.2803C2.92678 17.9874 2.92678 17.5126 3.21967 17.2197Z" fill="#292927"/>
</g>
</svg>
