<svg preserveAspectRatio="xMidYMid meet" overflow="visible" style="display: block;" viewBox="0 0 24 24" fill="none" xmlns="http://www.w3.org/2000/svg">
<g transform="translate(2.2500, 2.2500)">
<path id="Vector" fill-rule="evenodd" clip-rule="evenodd" d="M0.75 4.5C0.335786 4.5 0 4.16421 0 3.75V1.35C0 0.604416 0.604415 0 1.35 0H3.75C4.16421 0 4.5 0.335786 4.5 0.75C4.5 1.16421 4.16421 1.5 3.75 1.5H1.5V3.75C1.5 4.16421 1.16421 4.5 0.75 4.5ZM1.5 10H8.15C8.89558 10 9.5 10.6044 9.5 11.35V18H11.75C12.1642 18 12.5 18.3358 12.5 18.75C12.5 19.1642 12.1642 19.5 11.75 19.5H8.75H1.35C0.604416 19.5 0 18.8956 0 18.15V10.75V7.75C0 7.33579 0.335786 7 0.75 7C1.16421 7 1.5 7.33579 1.5 7.75V10ZM8 18V11.5H1.5V18H8ZM11.75 1.5C12.1642 1.5 12.5 1.16421 12.5 0.75C12.5 0.335786 12.1642 0 11.75 0H7.75C7.33579 0 7 0.335786 7 0.75C7 1.16421 7.33579 1.5 7.75 1.5H11.75ZM18.75 12.5C18.3358 12.5 18 12.1642 18 11.75V7.75C18 7.33579 18.3358 7 18.75 7C19.1642 7 19.5 7.33579 19.5 7.75V11.75C19.5 12.1642 19.1642 12.5 18.75 12.5ZM19.5 3.75C19.5 4.16421 19.1642 4.5 18.75 4.5C18.3358 4.5 18 4.16421 18 3.75V1.5H15.75C15.3358 1.5 15 1.16421 15 0.75C15 0.335786 15.3358 0 15.75 0H18.15C18.8956 0 19.5 0.604416 19.5 1.35V3.75ZM18.75 15C19.1642 15 19.5 15.3358 19.5 15.75V18.15C19.5 18.8956 18.8956 19.5 18.15 19.5H15.75C15.3358 19.5 15 19.1642 15 18.75C15 18.3358 15.3358 18 15.75 18H18V15.75C18 15.3358 18.3358 15 18.75 15ZM8.75 7C8.33579 7 8 7.33579 8 7.75C8 8.16421 8.33579 8.5 8.75 8.5H11V10.75C11 11.1642 11.3358 11.5 11.75 11.5C12.1642 11.5 12.5 11.1642 12.5 10.75V7.75C12.5 7.33579 12.1642 7 11.75 7H8.75Z" fill="#292927"/>
</g>
</svg>
