<svg preserveAspectRatio="xMidYMid meet" overflow="visible" style="display: block;" viewBox="0 0 24 24" fill="none" xmlns="http://www.w3.org/2000/svg">
<g transform="translate(2.2500, 2.2500)">
<path id="Vector" fill-rule="evenodd" clip-rule="evenodd" d="M0 0.75C0 0.335786 0.335787 0 0.75 0H18.75C19.1642 0 19.5 0.335788 19.5 0.750002C19.5 1.16422 19.1642 1.5 18.75 1.5L0.75 1.5C0.335786 1.5 0 1.16421 0 0.75ZM7 9.75C7 9.33579 7.33579 9 7.75 9H11.75C12.1642 9 12.5 9.33579 12.5 9.75C12.5 10.1642 12.1642 10.5 11.75 10.5H7.75C7.33579 10.5 7 10.1642 7 9.75ZM1.5 4.75C1.5 4.33579 1.16421 4 0.75 4C0.335786 4 0 4.33579 0 4.75V18.15C0 18.8956 0.604415 19.5 1.35 19.5H18.15C18.8956 19.5 19.5 18.8956 19.5 18.15V4.75C19.5 4.33579 19.1642 4 18.75 4C18.3358 4 18 4.33579 18 4.75V18H1.5V4.75Z" fill="#292927"/>
</g>
</svg>
