<svg preserveAspectRatio="xMidYMid meet" overflow="visible" style="display: block;" viewBox="0 0 24 24" fill="none" xmlns="http://www.w3.org/2000/svg">
<g transform="translate(0.7500, 1.3750)">
<path id="Vector" fill-rule="evenodd" clip-rule="evenodd" d="M7.65533 2.96784C6.68724 3.93595 6 5.42472 6 7.50004V9.00004C6 9.19895 5.92098 9.38972 5.78033 9.53037C5.63968 9.67102 5.44891 9.75004 5.25 9.75004L4.09039 9.75002L5.68593 10.8897C5.94409 11.0741 6.0583 11.401 5.97115 11.706C5.64448 12.8494 4.45758 15.1379 2.06899 16.2963C2.08372 16.3074 2.09862 16.3183 2.11369 16.3292C2.46927 16.5856 2.85957 16.75 3.25 16.75C3.50077 16.75 3.73494 16.8753 3.87404 17.084L4.59543 18.1661L6.60292 17.7646C6.82017 17.7211 7.04552 17.7759 7.21852 17.9143C7.59912 18.2188 8.28123 18.69 9.05198 19.0812C9.84002 19.4812 10.6287 19.75 11.25 19.75C11.8713 19.75 12.66 19.4812 13.448 19.0812C14.2188 18.69 14.9009 18.2188 15.2815 17.9143C15.4545 17.7759 15.6798 17.7211 15.8971 17.7646L17.9046 18.1661L18.626 17.084C18.7651 16.8753 18.9992 16.75 19.25 16.75C19.6404 16.75 20.0307 16.5856 20.3863 16.3292C20.4014 16.3183 20.4163 16.3074 20.431 16.2963C18.0424 15.1379 16.8555 12.8494 16.5289 11.706C16.4417 11.401 16.5559 11.0741 16.8141 10.8897L18.4096 9.75002L17.25 9.75004C17.0511 9.75004 16.8603 9.67102 16.7197 9.53037C16.579 9.38972 16.5 9.19895 16.5 9.00004V7.50004C16.5 5.42471 15.8128 3.93593 14.8447 2.96783C13.8695 1.99267 12.5645 1.5 11.25 1.5C9.93553 1.5 8.63049 1.99268 7.65533 2.96784ZM15.9053 1.90717C17.1872 3.18908 18 5.07533 18 7.50004V8.25003L18.8777 8.25002C20.191 8.25001 20.7311 9.9352 19.6624 10.6986L18.1467 11.7812C18.6273 12.9119 19.8356 14.673 21.956 15.2789C22.1863 15.3447 22.3713 15.5165 22.454 15.7412C22.5366 15.966 22.5069 16.2168 22.374 16.416C22.161 16.7355 21.7747 17.1773 21.2637 17.5458C20.8437 17.8487 20.3009 18.1293 19.6716 18.2197L19.024 19.1911L18.9877 19.2456L18.9836 19.2517L18.9612 19.2853L18.9534 19.297L18.943 19.3125L18.9421 19.314L18.9411 19.3155L18.9401 19.3169L18.9336 19.3266L18.9328 19.328L18.9319 19.3293L18.9301 19.3319L18.9293 19.3332L18.9276 19.3357L18.9268 19.3369L18.926 19.3382L18.9251 19.3394L18.9243 19.3406L18.9235 19.3418L18.9228 19.3429L18.922 19.3441L18.9205 19.3464L18.9168 19.3519L18.9161 19.353L18.9147 19.3551L18.912 19.3592L18.9113 19.3601L18.9094 19.363L18.9087 19.364L18.9069 19.3667L18.9063 19.3676L18.9057 19.3685L18.9051 19.3694L18.904 19.3711L18.9034 19.3719L18.9023 19.3736L18.9002 19.3768L18.8992 19.3783L18.8982 19.3798L18.8972 19.3812L18.8963 19.3827L18.8954 19.384L18.8945 19.3854L18.8936 19.3867L18.8928 19.3879L18.892 19.3891L18.8912 19.3903L18.8904 19.3915L18.8897 19.3926L18.8889 19.3937L18.8882 19.3947L18.8876 19.3957L18.8869 19.3967L18.8863 19.3977L18.8857 19.3986L18.8851 19.3995L18.8845 19.4003L18.8837 19.4016L18.8829 19.4027L18.8822 19.4038L18.8815 19.4049L18.8808 19.4058L18.8802 19.4067L18.8797 19.4076L18.8789 19.4087L18.8783 19.4096L18.8777 19.4105L18.8771 19.4115L18.8765 19.4124L18.8759 19.4132L18.8753 19.4142L18.8747 19.415L18.8742 19.4158C18.7056 19.6687 18.4009 19.795 18.1029 19.7354L15.9363 19.3021C15.4782 19.6405 14.8368 20.0584 14.127 20.4188C13.2733 20.8521 12.2287 21.25 11.25 21.25C10.2713 21.25 9.22666 20.8521 8.37303 20.4188C7.66319 20.0584 7.02179 19.6405 6.56369 19.3021L4.39709 19.7354C4.09907 19.795 3.79455 19.6689 3.62597 19.416L2.82842 18.2197C2.19907 18.1293 1.65627 17.8487 1.23631 17.5458C0.725331 17.1773 0.338978 16.7355 0.125966 16.416C-0.00687902 16.2168 -0.0365722 15.966 0.0460536 15.7412C0.128679 15.5165 0.313687 15.3447 0.543963 15.2789C2.6644 14.673 3.87269 12.9119 4.35327 11.7812L2.83764 10.6986C1.76893 9.9352 2.30898 8.25001 3.62232 8.25002L4.5 8.25003V7.50004C4.5 5.07534 5.31277 3.1891 6.59467 1.90719C7.86952 0.632333 9.56448 2.80143e-06 11.25 0C12.9355 -2.80141e-06 14.6305 0.632322 15.9053 1.90717Z" fill="#292927"/>
</g>
</svg>
