<svg preserveAspectRatio="xMidYMid meet" overflow="visible" style="display: block;" viewBox="0 0 24 24" fill="none" xmlns="http://www.w3.org/2000/svg">
<g transform="translate(2.2500, 4.2500)">
<path id="Vector" fill-rule="evenodd" clip-rule="evenodd" d="M2.2197 0.21967C2.51259 -0.0732233 2.98746 -0.0732233 3.28036 0.21967L5.28036 2.21967C5.57325 2.51256 5.57325 2.98744 5.28036 3.28033C4.98746 3.57322 4.51259 3.57322 4.2197 3.28033L3.50003 2.56066V12.6119L4.16438 11.7815C4.42313 11.458 4.8951 11.4056 5.21855 11.6643C5.542 11.9231 5.59444 12.3951 5.33568 12.7185L3.33568 15.2185C3.19335 15.3964 2.97787 15.5 2.75003 15.5C2.52219 15.5 2.30671 15.3964 2.16438 15.2185L0.164376 12.7185C-0.0943813 12.3951 -0.0419402 11.9231 0.281507 11.6643C0.604953 11.4056 1.07692 11.458 1.33568 11.7815L2.00003 12.6119V2.56066L1.28036 3.28033C0.987464 3.57322 0.512591 3.57322 0.219698 3.28033C-0.0731954 2.98744 -0.0731954 2.51256 0.219698 2.21967L2.2197 0.21967ZM8.75003 1C8.33582 1 8.00003 1.33579 8.00003 1.75C8.00003 2.16421 8.33582 2.5 8.75003 2.5H18.75C19.1642 2.5 19.5 2.16421 19.5 1.75C19.5 1.33579 19.1642 1 18.75 1H8.75003ZM8.75003 7C8.33582 7 8.00003 7.33579 8.00003 7.75C8.00003 8.16421 8.33582 8.5 8.75003 8.5H18.75C19.1642 8.5 19.5 8.16421 19.5 7.75C19.5 7.33579 19.1642 7 18.75 7H8.75003ZM8.00003 13.75C8.00003 13.3358 8.33582 13 8.75003 13H18.75C19.1642 13 19.5 13.3358 19.5 13.75C19.5 14.1642 19.1642 14.5 18.75 14.5H8.75003C8.33582 14.5 8.00003 14.1642 8.00003 13.75Z" fill="#292927"/>
</g>
</svg>
