<svg preserveAspectRatio="xMidYMid meet" overflow="visible" style="display: block;" viewBox="0 0 24 24" fill="none" xmlns="http://www.w3.org/2000/svg">
<g transform="translate(2.2500, 1.2500)">
<path id="Vector" fill-rule="evenodd" clip-rule="evenodd" d="M4.78033 4.21967C5.07322 4.51256 5.07322 4.98744 4.78033 5.28033C4.48744 5.57322 4.01256 5.57322 3.71967 5.28033L1.71967 3.28033C1.42678 2.98744 1.42678 2.51256 1.71967 2.21967L3.71967 0.21967C4.01256 -0.0732232 4.48744 -0.0732232 4.78033 0.21967C5.07322 0.512563 5.07322 0.987437 4.78033 1.28033L4.06066 2H9.75C15.1348 2 19.5 6.36522 19.5 11.75C19.5 17.1348 15.1348 21.5 9.75 21.5C4.36522 21.5 0 17.1348 0 11.75C0 11.3358 0.335786 11 0.75 11C1.16421 11 1.5 11.3358 1.5 11.75C1.5 16.3063 5.19365 20 9.75 20C14.3063 20 18 16.3063 18 11.75C18 7.19365 14.3063 3.5 9.75 3.5H4.06066L4.78033 4.21967ZM7.5 7.75C7.5 7.33579 7.16421 7 6.75 7C6.33579 7 6 7.33579 6 7.75V14.75C6 15.1642 6.33579 15.5 6.75 15.5C7.16421 15.5 7.5 15.1642 7.5 14.75V7.75ZM9 8.75C9 7.7835 9.7835 7 10.75 7H12.75C13.1642 7 13.5 7.33579 13.5 7.75C13.5 8.16421 13.1642 8.5 12.75 8.5H10.75C10.6119 8.5 10.5 8.61193 10.5 8.75V10.25C10.5 10.3881 10.6119 10.5 10.75 10.5H11.75C12.7165 10.5 13.5 11.2835 13.5 12.25V13.75C13.5 14.7165 12.7165 15.5 11.75 15.5H9.75C9.33579 15.5 9 15.1642 9 14.75C9 14.3358 9.33579 14 9.75 14H11.75C11.8881 14 12 13.8881 12 13.75V12.25C12 12.1119 11.8881 12 11.75 12H10.75C9.7835 12 9 11.2165 9 10.25V8.75Z" fill="#292927"/>
</g>
</svg>
