<svg preserveAspectRatio="xMidYMid meet" overflow="visible" style="display: block;" viewBox="0 0 24 24" fill="none" xmlns="http://www.w3.org/2000/svg">
<g transform="translate(2.2500, 1.2500)">
<path id="Vector" fill-rule="evenodd" clip-rule="evenodd" d="M7.5 2.75C7.5 2.05964 8.05964 1.5 8.75 1.5C9.44036 1.5 10 2.05964 10 2.75V3.75C10 4.16421 10.3358 4.5 10.75 4.5H15V8.75C15 9.16421 15.3358 9.5 15.75 9.5H16.75C17.4404 9.5 18 10.0596 18 10.75C18 11.4404 17.4404 12 16.75 12H15.75C15.3358 12 15 12.3358 15 12.75V17H10.75C10.3358 17 10 17.3358 10 17.75V18.75C10 19.4404 9.44036 20 8.75 20C8.05964 20 7.5 19.4404 7.5 18.75V17.75C7.5 17.3358 7.16421 17 6.75 17H1.5V13.5H1.75C3.26878 13.5 4.5 12.2688 4.5 10.75C4.5 9.23122 3.26878 8 1.75 8H1.5V4.5H6.75C7.16421 4.5 7.5 4.16421 7.5 3.75V2.75ZM6 3V2.75C6 1.23122 7.23122 0 8.75 0C10.2688 0 11.5 1.23122 11.5 2.75V3H15.15C15.8956 3 16.5 3.60442 16.5 4.35V8H16.75C18.2688 8 19.5 9.23122 19.5 10.75C19.5 12.2688 18.2688 13.5 16.75 13.5H16.5V17.15C16.5 17.8956 15.8956 18.5 15.15 18.5H11.5V18.75C11.5 20.2688 10.2688 21.5 8.75 21.5C7.23122 21.5 6 20.2688 6 18.75V18.5H1.35C0.604415 18.5 0 17.8956 0 17.15V12.75C0 12.3358 0.335786 12 0.75 12H1.75C2.44036 12 3 11.4404 3 10.75C3 10.0596 2.44036 9.5 1.75 9.5H0.75C0.335786 9.5 0 9.16421 0 8.75V4.35C0 3.60442 0.604416 3 1.35 3H6Z" fill="#292927"/>
</g>
</svg>
