<svg preserveAspectRatio="xMidYMid meet" overflow="visible" style="display: block;" viewBox="0 0 24 24" fill="none" xmlns="http://www.w3.org/2000/svg">
<g transform="translate(2.7174, 2.5325)">
<path id="Vector" fill-rule="evenodd" clip-rule="evenodd" d="M9.76561 2.4519C8.49641 3.72111 8.49641 5.77889 9.76561 7.0481C11.0348 8.3173 13.0926 8.3173 14.3618 7.0481C15.631 5.77889 15.631 3.72111 14.3618 2.4519C13.0926 1.1827 11.0348 1.1827 9.76561 2.4519ZM8.21625 7.53679C6.86752 5.67953 7.03041 3.06578 8.70495 1.39124C10.5599 -0.463747 13.5675 -0.463748 15.4225 1.39124C17.2775 3.24623 17.2775 6.25377 15.4225 8.10876C13.7479 9.78329 11.1342 9.94619 9.27691 8.59745L4.6391 13.2353L6.2301 14.8263C6.52299 15.1192 6.52299 15.594 6.2301 15.8869C5.93721 16.1798 5.46233 16.1798 5.16944 15.8869L3.57844 14.2959L1.81066 16.0637L3.40165 17.6547C3.69454 17.9476 3.69454 18.4225 3.40165 18.7154C3.10876 19.0082 2.63388 19.0083 2.34099 18.7154L0.21967 16.594C-0.0732233 16.3011 -0.0732233 15.8263 0.21967 15.5334L8.21625 7.53679ZM11.0651 15.2353C11.0651 14.8211 11.4009 14.4853 11.8151 14.4853H17.8151C18.2294 14.4853 18.5651 14.8211 18.5651 15.2353C18.5651 15.6495 18.2294 15.9853 17.8151 15.9853H11.8151C11.4009 15.9853 11.0651 15.6495 11.0651 15.2353Z" fill="#292927"/>
</g>
</svg>
