<svg preserveAspectRatio="xMidYMid meet" overflow="visible" style="display: block;" viewBox="0 0 24 24" fill="none" xmlns="http://www.w3.org/2000/svg">
<g transform="translate(1.2500, 2.7500)">
<path id="Vector" fill-rule="evenodd" clip-rule="evenodd" d="M2.75 0C1.23122 0 0 1.23122 0 2.75V12.75C0 14.2688 1.23122 15.5 2.75 15.5H10.75C11.1642 15.5 11.5 15.1642 11.5 14.75C11.5 14.3358 11.1642 14 10.75 14H2.75C2.05964 14 1.5 13.4404 1.5 12.75V2.75C1.5 2.05964 2.05964 1.5 2.75 1.5H18.75C19.4404 1.5 20 2.05964 20 2.75V4H4.75C4.33579 4 4 4.33579 4 4.75C4 5.16421 4.33579 5.5 4.75 5.5H20V6.75C20 7.16421 20.3358 7.5 20.75 7.5C21.1642 7.5 21.5 7.16421 21.5 6.75V2.75C21.5 1.23122 20.2688 0 18.75 0H2.75ZM17.9269 9.14809C17.4827 9.03527 17.0173 9.03527 16.5731 9.14809L14.0177 9.79708C13.4211 9.94859 12.9883 10.494 13.0072 11.13C13.0976 14.1618 14.0242 16.0007 15.0119 17.0915C15.5003 17.631 15.9891 17.9711 16.3667 18.1789C16.5553 18.2827 16.716 18.3535 16.8353 18.3998C16.895 18.423 16.9444 18.4401 16.9819 18.4523C17.0006 18.4583 17.0164 18.4631 17.029 18.4668L17.0455 18.4716L17.0519 18.4734L17.0546 18.4741L17.0559 18.4744C17.0565 18.4746 17.0571 18.4747 17.25 17.75L17.0571 18.4747C17.1835 18.5084 17.3165 18.5084 17.4429 18.4747L17.25 17.75C17.4429 18.4747 17.4435 18.4746 17.4441 18.4744L17.4453 18.4741L17.4481 18.4734L17.4545 18.4716L17.471 18.4668C17.4762 18.4653 17.4819 18.4636 17.4881 18.4617C17.497 18.459 17.5071 18.4558 17.5181 18.4523C17.5556 18.4401 17.605 18.423 17.6647 18.3998C17.784 18.3535 17.9447 18.2827 18.1333 18.1789C18.5108 17.9711 18.9997 17.631 19.4881 17.0915C20.4758 16.0007 21.4024 14.1618 21.4928 11.13C21.5117 10.494 21.0789 9.94859 20.4823 9.79708L17.9269 9.14809ZM17.41 16.8648C17.3506 16.8975 17.2968 16.9245 17.25 16.9464C17.2032 16.9245 17.1494 16.8975 17.09 16.8648C16.8394 16.7269 16.4872 16.4861 16.1238 16.0848C15.4196 15.307 14.6149 13.8605 14.5112 11.2194L16.9423 10.6019C17.1442 10.5507 17.3558 10.5507 17.5577 10.6019L19.9888 11.2194C19.8851 13.8605 19.0804 15.307 18.3762 16.0848C18.0128 16.4861 17.6606 16.7269 17.41 16.8648Z" fill="#292927"/>
</g>
</svg>
