<svg preserveAspectRatio="xMidYMid meet" overflow="visible" style="display: block;" viewBox="0 0 24 24" fill="none" xmlns="http://www.w3.org/2000/svg">
<g transform="translate(2.2500, 2.2500)">
<path id="Vector" fill-rule="evenodd" clip-rule="evenodd" d="M1.5 2.75C1.5 2.05964 2.05964 1.5 2.75 1.5H16.75C17.4404 1.5 18 2.05964 18 2.75V16.75C18 17.4404 17.4404 18 16.75 18H2.75C2.05964 18 1.5 17.4404 1.5 16.75V2.75ZM2.75 0C1.23122 0 0 1.23122 0 2.75V16.75C0 18.2688 1.23122 19.5 2.75 19.5H16.75C18.2688 19.5 19.5 18.2688 19.5 16.75V2.75C19.5 1.23122 18.2688 0 16.75 0H2.75ZM10.2803 7.21967C9.98744 6.92678 9.51256 6.92678 9.21967 7.21967L5.21967 11.2197C4.92678 11.5126 4.92678 11.9874 5.21967 12.2803C5.51256 12.5732 5.98744 12.5732 6.28033 12.2803L9.75 8.81066L13.2197 12.2803C13.5126 12.5732 13.9874 12.5732 14.2803 12.2803C14.5732 11.9874 14.5732 11.5126 14.2803 11.2197L10.2803 7.21967Z" fill="#292927"/>
</g>
</svg>
