<svg preserveAspectRatio="xMidYMid meet" overflow="visible" style="display: block;" viewBox="0 0 24 24" fill="none" xmlns="http://www.w3.org/2000/svg">
<g transform="translate(2.2500, 2.2500)">
<path id="Vector" fill-rule="evenodd" clip-rule="evenodd" d="M18 1.5V18H1.5V1.5H18ZM18.15 19.5C18.8956 19.5 19.5 18.8956 19.5 18.15V1.35C19.5 0.604418 18.8956 0 18.15 0H1.35C0.604418 0 0 0.604414 0 1.35V18.15C0 18.8956 0.604414 19.5 1.35 19.5H18.15ZM9.75 5.5C8.85371 5.5 8.02899 5.7359 7.3504 6.13213C6.9927 6.34099 6.53341 6.22034 6.32455 5.86264C6.11569 5.50494 6.23634 5.04565 6.59404 4.83679C7.50445 4.3052 8.59057 4 9.75 4C12.3047 4 14.5488 5.49451 15.2666 7.66445C15.3967 8.05771 15.1834 8.48196 14.7901 8.61205C14.3969 8.74214 13.9726 8.5288 13.8425 8.13555C13.3566 6.66672 11.7543 5.5 9.75 5.5ZM5.31616 6.96259C5.70006 7.11814 5.88517 7.55544 5.72962 7.93934C5.58046 8.30745 5.5 8.70134 5.5 9.11154V13.75C5.5 14.1642 5.16421 14.5 4.75 14.5C4.33579 14.5 4 14.1642 4 13.75V9.11154C4 8.5022 4.12005 7.9174 4.3394 7.37604C4.49495 6.99215 4.93226 6.80703 5.31616 6.96259ZM14.75 9.81538C15.1642 9.81538 15.5 10.1512 15.5 10.5654V13.75C15.5 14.1642 15.1642 14.5 14.75 14.5C14.3358 14.5 14 14.1642 14 13.75V10.5654C14 10.1512 14.3358 9.81538 14.75 9.81538ZM9.75 8.5C9.00468 8.5 8.5 9.04671 8.5 9.60294V10.3971C8.5 10.8113 8.16421 11.1471 7.75 11.1471C7.33579 11.1471 7 10.8113 7 10.3971V9.60294C7 8.11247 8.28618 7 9.75 7C11.2138 7 12.5 8.11247 12.5 9.60294V14.75C12.5 15.1642 12.1642 15.5 11.75 15.5C11.3358 15.5 11 15.1642 11 14.75V9.60294C11 9.04671 10.4953 8.5 9.75 8.5ZM7.75 11.8235C8.16421 11.8235 8.5 12.1593 8.5 12.5735V14.75C8.5 15.1642 8.16421 15.5 7.75 15.5C7.33579 15.5 7 15.1642 7 14.75V12.5735C7 12.1593 7.33579 11.8235 7.75 11.8235Z" fill="#292927"/>
</g>
</svg>
