<svg preserveAspectRatio="xMidYMid meet" overflow="visible" style="display: block;" viewBox="0 0 24 24" fill="none" xmlns="http://www.w3.org/2000/svg">
<g transform="translate(1.2500, 3.0910)">
<path id="Vector" fill-rule="evenodd" clip-rule="evenodd" d="M8.37274 0.332115C8.60358 0.676046 8.51189 1.14198 8.16796 1.37282C7.94418 1.52301 7.71217 1.68584 7.4763 1.85137C7.02566 2.16763 6.56092 2.49378 6.11253 2.76066C5.39706 3.18651 4.6077 3.53937 3.68202 3.63238C3.6571 3.63489 3.63207 3.63614 3.60703 3.63614L0.74999 3.6361C0.335776 3.6361 -5.66237e-06 3.3003 0 2.88609C5.66251e-06 2.47188 0.335797 2.1361 0.75001 2.1361L3.56751 2.13614C4.17905 2.06794 4.74281 1.83033 5.34534 1.4717C5.75099 1.23026 6.12848 0.96473 6.54245 0.673541C6.78827 0.500632 7.04695 0.318674 7.33204 0.127336C7.67597 -0.103499 8.14191 -0.0118159 8.37274 0.332115ZM18.8047 1.37648C19.138 1.13053 19.6075 1.20133 19.8535 1.53461C20.936 3.00158 21.5236 4.92542 21.4993 7.25759C21.4774 9.35166 20.8689 11.4343 19.6047 13.0101C18.3624 14.5587 16.5185 15.5743 14.1151 15.6334L10.8666 17.7007C10.7463 17.7772 10.6066 17.8179 10.464 17.8179C9.76826 17.8179 9.19627 17.6502 8.73992 17.3598C8.2866 17.0713 7.99047 16.6893 7.79965 16.325C7.67615 16.0893 7.59459 15.8571 7.54041 15.653C7.45014 15.6516 7.35291 15.6487 7.24973 15.6438C6.67184 15.6162 5.88425 15.524 5.0836 15.2565C4.28295 14.989 3.43317 14.5338 2.78223 13.757C2.24623 13.1175 1.87708 12.2978 1.75676 11.2725H0.75C0.335786 11.2725 0 10.9367 0 10.5225C0 10.1082 0.335786 9.77246 0.75 9.77246H2.46422C2.87844 9.77246 3.21422 10.1082 3.21422 10.5225C3.21422 11.5931 3.52128 12.3036 3.93188 12.7935C4.35232 13.2952 4.93107 13.6241 5.55894 13.8338C6.18682 14.0436 6.82775 14.1219 7.32126 14.1455C7.56567 14.1572 7.76818 14.1552 7.90725 14.1504C7.97665 14.148 8.02986 14.145 8.06415 14.1427C8.08129 14.1416 8.09366 14.1406 8.10094 14.14L8.10706 14.1395C8.31722 14.1196 8.52661 14.1892 8.68283 14.3312C8.83777 14.472 8.9267 14.6712 8.9283 14.8804L8.92842 14.8845C8.92865 14.8912 8.92925 14.9047 8.93069 14.9239C8.93359 14.9627 8.9398 15.0233 8.95285 15.098C8.97956 15.251 9.03161 15.4442 9.1284 15.629C9.22328 15.8102 9.35572 15.9737 9.54524 16.0943C9.70134 16.1936 9.92657 16.2833 10.2581 16.3099L13.4897 14.2534C13.6101 14.1768 13.7498 14.1361 13.8924 14.1361C15.9512 14.1361 17.4398 13.3117 18.4347 12.0715C19.4459 10.811 19.9802 9.07544 19.9994 7.24193C20.021 5.17324 19.5015 3.58384 18.6465 2.42528C18.4006 2.09199 18.4714 1.62243 18.8047 1.37648ZM8.92842 14.8845V14.8845Z" fill="#292927"/>
</g>
</svg>
