<svg preserveAspectRatio="xMidYMid meet" overflow="visible" style="display: block;" viewBox="0 0 24 24" fill="none" xmlns="http://www.w3.org/2000/svg">
<g transform="translate(2.2500, 3.0508)">
<path id="Vector" fill-rule="evenodd" clip-rule="evenodd" d="M13.4279 1.54371C14.2215 1.33209 15 1.93021 15 2.7515V3.39844H6.47269L13.4279 1.54371ZM0 6.14828V5.68483C0 4.43895 0.837606 3.34871 2.04143 3.02769L13.0414 0.0943559C14.7873 -0.371198 16.5 0.944665 16.5 2.7515V3.39844H16.75C18.2688 3.39844 19.5 4.62965 19.5 6.14844V15.1484C19.5 16.6672 18.2688 17.8984 16.75 17.8984H2.75C1.23122 17.8984 0 16.6672 0 15.1484V6.14844C0 6.14838 0 6.14833 0 6.14828ZM1.5 6.14828C1.5 6.14833 1.5 6.14838 1.5 6.14844V15.1484C1.5 15.8388 2.05964 16.3984 2.75 16.3984H16.75C17.4404 16.3984 18 15.8388 18 15.1484V6.14844C18 5.45808 17.4404 4.89844 16.75 4.89844H2.75C2.0597 4.89844 1.50009 5.458 1.5 6.14828ZM15.5 10.6484C15.5 9.95808 14.9404 9.39844 14.25 9.39844C13.5596 9.39844 13 9.95808 13 10.6484C13 11.3388 13.5596 11.8984 14.25 11.8984C14.9404 11.8984 15.5 11.3388 15.5 10.6484Z" fill="#292927"/>
</g>
</svg>
