<svg preserveAspectRatio="xMidYMid meet" overflow="visible" style="display: block;" viewBox="0 0 24 24" fill="none" xmlns="http://www.w3.org/2000/svg">
<g transform="translate(3.2500, 1.2500)">
<path id="Vector" fill-rule="evenodd" clip-rule="evenodd" d="M8.75 1.5C4.74594 1.5 1.5 4.74594 1.5 8.75V12.75C1.5 16.7541 4.74594 20 8.75 20C12.7541 20 16 16.7541 16 12.75V8.75C16 4.74594 12.7541 1.5 8.75 1.5ZM0 8.75C0 3.91751 3.91751 0 8.75 0C13.5825 0 17.5 3.91751 17.5 8.75V12.75C17.5 17.5825 13.5825 21.5 8.75 21.5C3.91751 21.5 0 17.5825 0 12.75V8.75ZM6.21967 5.21967L8.21967 3.21967C8.51256 2.92678 8.98744 2.92678 9.28033 3.21967L11.2803 5.21967C11.5732 5.51256 11.5732 5.98744 11.2803 6.28033C10.9874 6.57322 10.5126 6.57322 10.2197 6.28033L9.5 5.56066V9.93934L10.2197 9.21967C10.5126 8.92678 10.9874 8.92678 11.2803 9.21967C11.5732 9.51256 11.5732 9.98744 11.2803 10.2803L9.28033 12.2803C8.98744 12.5732 8.51256 12.5732 8.21967 12.2803L6.21967 10.2803C5.92678 9.98744 5.92678 9.51256 6.21967 9.21967C6.51256 8.92678 6.98744 8.92678 7.28033 9.21967L8 9.93934V5.56066L7.28033 6.28033C6.98744 6.57322 6.51256 6.57322 6.21967 6.28033C5.92678 5.98744 5.92678 5.51256 6.21967 5.21967Z" fill="#292927"/>
</g>
</svg>
