<svg preserveAspectRatio="xMidYMid meet" overflow="visible" style="display: block;" viewBox="0 0 24 24" fill="none" xmlns="http://www.w3.org/2000/svg">
<g transform="translate(2.3294, 3.2500)">
<path id="Vector" fill-rule="evenodd" clip-rule="evenodd" d="M17.3522 5.25L16.0084 16H3.33262L1.52012 1.5H17.8209L17.5397 3.75H5.59524C4.78714 3.75 4.16007 4.45517 4.25449 5.25774L5.11331 12.5577C5.1933 13.2376 5.7695 13.75 6.45407 13.75H12.887C13.5715 13.75 14.1477 13.2376 14.2277 12.5577L15.0875 5.25H17.3522ZM16.1409 17.5C16.8217 17.5 17.396 16.993 17.4804 16.3174L19.3304 1.51745C19.4312 0.711695 18.8029 0 17.9909 0H1.3502C0.538175 0 -0.090094 0.711697 0.0106235 1.51745L1.86062 16.3174C1.94507 16.993 2.51936 17.5 3.2002 17.5H16.1409ZM13.5771 5.25L12.7536 12.25H6.58745L5.76392 5.25H13.5771Z" fill="#292927"/>
</g>
</svg>
