<svg preserveAspectRatio="xMidYMid meet" overflow="visible" style="display: block;" viewBox="0 0 24 24" fill="none" xmlns="http://www.w3.org/2000/svg">
<g transform="translate(1.2500, 1.2500)">
<path id="Vector" fill-rule="evenodd" clip-rule="evenodd" d="M1.5 10.75C1.5 5.64137 5.64137 1.5 10.75 1.5C15.8586 1.5 20 5.64137 20 10.75C20 15.8586 15.8586 20 10.75 20C5.64137 20 1.5 15.8586 1.5 10.75ZM10.75 0C4.81294 0 0 4.81294 0 10.75C0 16.6871 4.81294 21.5 10.75 21.5C16.6871 21.5 21.5 16.6871 21.5 10.75C21.5 4.81294 16.6871 0 10.75 0ZM11.5 4.75C11.5 4.33579 11.1642 4 10.75 4C10.3358 4 10 4.33579 10 4.75L10 10.75C10 11.1642 10.3358 11.5 10.75 11.5H16.75C17.1642 11.5 17.5 11.1642 17.5 10.75C17.5 10.3358 17.1642 10 16.75 10H11.5L11.5 4.75Z" fill="#292927"/>
</g>
</svg>
