<svg preserveAspectRatio="xMidYMid meet" overflow="visible" style="display: block;" viewBox="0 0 24 24" fill="none" xmlns="http://www.w3.org/2000/svg">
<g transform="translate(2.2500, 8.2500)">
<path id="Vector" fill-rule="evenodd" clip-rule="evenodd" d="M9.75 1.5C8.50736 1.5 7.5 2.50736 7.5 3.75C7.5 4.99264 8.50736 6 9.75 6C10.9926 6 12 4.99264 12 3.75C12 2.50736 10.9926 1.5 9.75 1.5ZM13.425 3C13.0775 1.28832 11.5642 0 9.75 0C7.93578 0 6.42247 1.28832 6.07501 3H0.75C0.335786 3 0 3.33579 0 3.75C0 4.16421 0.335786 4.5 0.75 4.5H6.07501C6.42247 6.21168 7.93578 7.5 9.75 7.5C11.5642 7.5 13.0775 6.21168 13.425 4.5H18.75C19.1642 4.5 19.5 4.16421 19.5 3.75C19.5 3.33579 19.1642 3 18.75 3H13.425Z" fill="#292927"/>
</g>
</svg>
