<svg preserveAspectRatio="xMidYMid meet" overflow="visible" style="display: block;" viewBox="0 0 24 24" fill="none" xmlns="http://www.w3.org/2000/svg">
<g transform="translate(1.7500, 2.2500)">
<path id="Vector" fill-rule="evenodd" clip-rule="evenodd" d="M2.5 2.75C2.5 2.05964 3.05964 1.5 3.75 1.5H11.75C12.4404 1.5 13 2.05964 13 2.75V16.75C13 17.4404 12.4404 18 11.75 18H3.75C3.05964 18 2.5 17.4404 2.5 16.75V15.75V13.75V5.75V3.75V2.75ZM1 16.5V16.75C1 18.2688 2.23122 19.5 3.75 19.5H11.75H17.75C19.2688 19.5 20.5 18.2688 20.5 16.75V2.75C20.5 1.23122 19.2688 0 17.75 0H11.75H3.75C2.23122 0 1 1.23122 1 2.75V3H0.75C0.335786 3 0 3.33579 0 3.75C0 4.16421 0.335786 4.5 0.75 4.5H1V5H0.75C0.335786 5 0 5.33579 0 5.75C0 6.16421 0.335786 6.5 0.75 6.5H1V13H0.75C0.335786 13 0 13.3358 0 13.75C0 14.1642 0.335786 14.5 0.75 14.5H1V15H0.75C0.335786 15 0 15.3358 0 15.75C0 16.1642 0.335786 16.5 0.75 16.5H1ZM14.2001 1.5H17.75C18.4404 1.5 19 2.05964 19 2.75V16.75C19 17.4404 18.4404 18 17.75 18H14.2001C14.3919 17.625 14.5 17.2001 14.5 16.75V2.75C14.5 2.29989 14.3919 1.87503 14.2001 1.5ZM6.63984 7.96409C6.84899 8.38239 7 9.01276 7 9.75C7 10.4872 6.84899 11.1176 6.63984 11.5359C6.53537 11.7449 6.43035 11.8732 6.34949 11.9416C6.31079 11.9744 6.28304 11.9889 6.26823 11.9949C6.26092 11.9979 6.2563 11.9991 6.25408 11.9995C6.25196 12 6.2508 12 6.25 12C6.2492 12 6.24804 12 6.24592 11.9995C6.2437 11.9991 6.23908 11.9979 6.23177 11.9949C6.21696 11.9889 6.18921 11.9744 6.15051 11.9416C6.06965 11.8732 5.96463 11.7449 5.86016 11.5359C5.65101 11.1176 5.5 10.4872 5.5 9.75C5.5 9.01276 5.65101 8.38239 5.86016 7.96409C5.96463 7.75515 6.06965 7.62676 6.15051 7.55836C6.18921 7.52563 6.21696 7.51113 6.23177 7.50507C6.23908 7.50208 6.2437 7.50093 6.24592 7.50048C6.24804 7.50005 6.2492 7.5 6.25 7.5C6.2508 7.5 6.25196 7.50005 6.25408 7.50048C6.2563 7.50093 6.26092 7.50208 6.26823 7.50507C6.28304 7.51113 6.31079 7.52563 6.34949 7.55836C6.43035 7.62676 6.53537 7.75515 6.63984 7.96409ZM6.25 6C6.59753 6 6.89799 6.11176 7.15306 6.28639L7.71967 5.71978C8.01256 5.42689 8.48744 5.42689 8.78033 5.71978C9.07322 6.01268 9.07322 6.48755 8.78033 6.78044L8.07235 7.48842C8.3486 8.12608 8.5 8.91757 8.5 9.75C8.5 10.5825 8.34857 11.374 8.07228 12.0117L8.78033 12.7198C9.07322 13.0127 9.07322 13.4875 8.78033 13.7804C8.48744 14.0733 8.01256 14.0733 7.71967 13.7804L7.15293 13.2137C6.89788 13.3883 6.59747 13.5 6.25 13.5C5.90253 13.5 5.60212 13.3883 5.34707 13.2137L4.78033 13.7804C4.48744 14.0733 4.01256 14.0733 3.71967 13.7804C3.42678 13.4875 3.42678 13.0127 3.71967 12.7198L4.42772 12.0117C4.15143 11.374 4 10.5825 4 9.75C4 8.91757 4.1514 8.12608 4.42765 7.48842L3.71967 6.78044C3.42678 6.48755 3.42678 6.01268 3.71967 5.71978C4.01256 5.42689 4.48744 5.42689 4.78033 5.71978L5.34694 6.28639C5.60201 6.11176 5.90247 6 6.25 6ZM12.5 7.75C12.5 7.33579 12.1642 7 11.75 7C11.3358 7 11 7.33579 11 7.75V11.75C11 12.1642 11.3358 12.5 11.75 12.5C12.1642 12.5 12.5 12.1642 12.5 11.75V7.75Z" fill="#292927"/>
</g>
</svg>
