<svg preserveAspectRatio="xMidYMid meet" overflow="visible" style="display: block;" viewBox="0 0 24 24" fill="none" xmlns="http://www.w3.org/2000/svg">
<g transform="translate(1.2500, 1.2500)">
<path id="Vector" fill-rule="evenodd" clip-rule="evenodd" d="M10.75 0C4.81294 0 0 4.81294 0 10.75C0 16.687 4.81293 21.5 10.75 21.5C16.687 21.5 21.5 16.687 21.5 10.75C21.5 4.81293 16.687 0 10.75 0ZM1.5 10.75C1.5 5.64136 5.64136 1.5 10.75 1.5C15.8586 1.5 20 5.64137 20 10.75C20 15.8586 15.8586 20 10.75 20C5.64137 20 1.5 15.8586 1.5 10.75ZM14.7803 11.2197L11.2803 7.71967C10.9874 7.42678 10.5126 7.42678 10.2197 7.71967L6.71967 11.2197C6.42678 11.5126 6.42678 11.9874 6.71967 12.2803C7.01256 12.5732 7.48744 12.5732 7.78033 12.2803L10.75 9.31066L13.7197 12.2803C14.0126 12.5732 14.4874 12.5732 14.7803 12.2803C15.0732 11.9874 15.0732 11.5126 14.7803 11.2197Z" fill="#292927"/>
</g>
</svg>
