<svg preserveAspectRatio="xMidYMid meet" overflow="visible" style="display: block;" viewBox="0 0 24 24" fill="none" xmlns="http://www.w3.org/2000/svg">
<g transform="translate(3.2500, 3.2450)">
<path id="Vector" fill-rule="evenodd" clip-rule="evenodd" d="M0.259394 0.192536C0.567276 -0.0845583 1.04149 -0.0595998 1.31859 0.248283C1.59568 0.556165 1.57072 1.03038 1.26284 1.30748L1.25173 1.31748C0.943848 1.59457 0.469631 1.56961 0.192536 1.26173C-0.0845583 0.953848 -0.0595998 0.479631 0.248283 0.202536L0.259394 0.192536ZM1.31859 4.24828C1.04149 3.9404 0.567276 3.91544 0.259394 4.19254L0.248283 4.20254C-0.0595998 4.47963 -0.0845583 4.95385 0.192536 5.26173C0.469631 5.56961 0.943848 5.59457 1.25173 5.31748L1.26284 5.30748C1.57072 5.03038 1.59568 4.55617 1.31859 4.24828ZM0.259394 8.19254C0.567276 7.91544 1.04149 7.9404 1.31859 8.24828C1.59568 8.55616 1.57072 9.03038 1.26284 9.30748L1.25173 9.31748C0.943848 9.59457 0.469631 9.56961 0.192536 9.26173C-0.0845583 8.95385 -0.0595998 8.47963 0.248283 8.20254L0.259394 8.19254ZM1.31859 12.2483C1.04149 11.9404 0.567276 11.9154 0.259394 12.1925L0.248283 12.2025C-0.0595998 12.4796 -0.0845583 12.9538 0.192536 13.2617C0.469631 13.5696 0.943848 13.5946 1.25173 13.3175L1.26284 13.3075C1.57072 13.0304 1.59568 12.5562 1.31859 12.2483ZM0.259394 16.1925C0.567276 15.9154 1.04149 15.9404 1.31859 16.2483C1.59568 16.5562 1.57072 17.0304 1.26284 17.3075L1.25173 17.3175C0.943848 17.5946 0.469631 17.5696 0.192536 17.2617C-0.0845583 16.9538 -0.0595998 16.4796 0.248283 16.2025L0.259394 16.1925ZM4.25939 16.1925C4.56728 15.9154 5.04149 15.9404 5.31859 16.2483C5.59568 16.5562 5.57072 17.0304 5.26284 17.3075L5.25173 17.3175C4.94385 17.5946 4.46963 17.5696 4.19254 17.2617C3.91544 16.9538 3.9404 16.4796 4.24828 16.2025L4.25939 16.1925ZM5.31859 0.248283C5.04149 -0.0595998 4.56728 -0.0845583 4.25939 0.192536L4.24828 0.202536C3.9404 0.479631 3.91544 0.953848 4.19254 1.26173C4.46963 1.56961 4.94385 1.59457 5.25173 1.31748L5.26284 1.30748C5.57072 1.03038 5.59568 0.556165 5.31859 0.248283ZM17.5 16.76C17.5 17.1742 17.1642 17.51 16.75 17.51H8.75002C8.3358 17.51 8.00002 17.1742 8.00002 16.76V0.760014C8.00002 0.3458 8.3358 0.0100136 8.75002 0.0100136H16.75C17.1642 0.0100136 17.5 0.3458 17.5 0.760014V16.76ZM9.50002 16.01H16V1.51001H9.50002V16.01Z" fill="#292927"/>
</g>
</svg>
