<svg preserveAspectRatio="xMidYMid meet" overflow="visible" style="display: block;" viewBox="0 0 24 24" fill="none" xmlns="http://www.w3.org/2000/svg">
<g transform="translate(1.2500, 4.2500)">
<path id="Vector" fill-rule="evenodd" clip-rule="evenodd" d="M1.5 4.75C1.5 2.95507 2.95507 1.5 4.75 1.5H16.75C18.5449 1.5 20 2.95507 20 4.75V10.75C20 12.5449 18.5449 14 16.75 14H4.75C2.95507 14 1.5 12.5449 1.5 10.75V4.75ZM4.75 0C2.12665 0 0 2.12665 0 4.75V10.75C0 13.3734 2.12665 15.5 4.75 15.5H16.75C19.3734 15.5 21.5 13.3734 21.5 10.75V4.75C21.5 2.12665 19.3734 0 16.75 0H4.75ZM4.96967 8.28033C4.67678 7.98744 4.67678 7.51256 4.96967 7.21967L7.71967 4.46967C8.01256 4.17678 8.48744 4.17678 8.78033 4.46967C9.07322 4.76256 9.07322 5.23744 8.78033 5.53033L7.31066 7H15.5C15.9142 7 16.25 7.33579 16.25 7.75C16.25 8.16421 15.9142 8.5 15.5 8.5H7.31066L8.78033 9.96967C9.07322 10.2626 9.07322 10.7374 8.78033 11.0303C8.48744 11.3232 8.01256 11.3232 7.71967 11.0303L4.96967 8.28033Z" fill="#292927"/>
</g>
</svg>
