<svg preserveAspectRatio="xMidYMid meet" overflow="visible" style="display: block;" viewBox="0 0 24 24" fill="none" xmlns="http://www.w3.org/2000/svg">
<g transform="translate(1.2500, 1.2500)">
<path id="Vector" fill-rule="evenodd" clip-rule="evenodd" d="M20 10.75C20 5.64137 15.8586 1.5 10.75 1.5C5.64137 1.5 1.5 5.64137 1.5 10.75C1.5 15.8586 5.64137 20 10.75 20C15.8586 20 20 15.8586 20 10.75ZM10.75 0C16.6871 0 21.5 4.81294 21.5 10.75C21.5 16.6871 16.6871 21.5 10.75 21.5C4.81294 21.5 0 16.6871 0 10.75C0 4.81294 4.81294 0 10.75 0ZM7.28021 13.2197C7.5731 13.5126 7.5731 13.9874 7.28021 14.2803C6.98731 14.5732 6.51244 14.5732 6.21955 14.2803L3.21955 11.2803C2.92665 10.9874 2.92665 10.5126 3.21955 10.2197L6.21955 7.21967C6.51244 6.92678 6.98731 6.92678 7.28021 7.21967C7.5731 7.51256 7.5731 7.98744 7.28021 8.28033L5.56054 10H15.9392L14.2195 8.28033C13.9267 7.98744 13.9267 7.51256 14.2195 7.21967C14.5124 6.92678 14.9873 6.92678 15.2802 7.21967L18.2802 10.2197C18.5731 10.5126 18.5731 10.9874 18.2802 11.2803L15.2802 14.2803C14.9873 14.5732 14.5124 14.5732 14.2195 14.2803C13.9267 13.9874 13.9267 13.5126 14.2195 13.2197L15.9392 11.5H5.56054L7.28021 13.2197Z" fill="#292927"/>
</g>
</svg>
