<svg preserveAspectRatio="xMidYMid meet" overflow="visible" style="display: block;" viewBox="0 0 24 24" fill="none" xmlns="http://www.w3.org/2000/svg">
<g transform="translate(2.2500, 1.2500)">
<path id="Vector" fill-rule="evenodd" clip-rule="evenodd" d="M9.75 0C7.67893 0 6 1.67893 6 3.75V4.25C6 4.66421 6.33579 5 6.75 5C7.16421 5 7.5 4.66421 7.5 4.25V3.75C7.5 2.50736 8.50736 1.5 9.75 1.5C10.9926 1.5 12 2.50736 12 3.75V9.25C12 9.66421 12.3358 10 12.75 10C13.1642 10 13.5 9.66421 13.5 9.25V3.75C13.5 1.67893 11.8211 0 9.75 0ZM1.28033 1.21967C0.987437 0.926777 0.512563 0.926777 0.21967 1.21967C-0.0732233 1.51256 -0.0732233 1.98744 0.21967 2.28033L13.0179 15.0786C12.0671 15.663 10.9479 16 9.75 16C6.29822 16 3.5 13.2018 3.5 9.75V8.75C3.5 8.33579 3.16421 8 2.75 8C2.33579 8 2 8.33579 2 8.75V9.75C2 13.7772 5.0717 17.087 9 17.4642V20H6.75C6.33579 20 6 20.3358 6 20.75C6 21.1642 6.33579 21.5 6.75 21.5H12.75C13.1642 21.5 13.5 21.1642 13.5 20.75C13.5 20.3358 13.1642 20 12.75 20H10.5V17.4642C11.8271 17.3367 13.0564 16.8746 14.1026 16.1632L18.2197 20.2803C18.5126 20.5732 18.9874 20.5732 19.2803 20.2803C19.5732 19.9874 19.5732 19.5126 19.2803 19.2197L15.2603 15.1997C16.645 13.7997 17.5 11.8747 17.5 9.75V8.75C17.5 8.33579 17.1642 8 16.75 8C16.3358 8 16 8.33579 16 8.75V9.75C16 11.4605 15.3129 13.0104 14.1996 14.139L1.28033 1.21967Z" fill="#292927"/>
</g>
</svg>
