<svg preserveAspectRatio="xMidYMid meet" overflow="visible" style="display: block;" viewBox="0 0 24 24" fill="none" xmlns="http://www.w3.org/2000/svg">
<g transform="translate(1.2500, 2.2500)">
<path id="Vector" fill-rule="evenodd" clip-rule="evenodd" d="M11.5 0.750006C11.5 0.525312 11.3993 0.312454 11.2255 0.17C11.0517 0.0275458 10.8232 -0.0294954 10.6029 0.014571L5.60291 1.01457C5.25234 1.08468 5 1.3925 5 1.75001V13H2.75C1.23122 13 0 14.2312 0 15.75V16.75C0 18.2688 1.23122 19.5 2.75 19.5H3.75C5.26878 19.5 6.5 18.2688 6.5 16.75V6.36486L10.8971 5.48544C11.2477 5.41533 11.5 5.10752 11.5 4.75001V0.750006ZM2.75 14.5H5V16.75C5 17.4404 4.44036 18 3.75 18H2.75C2.05964 18 1.5 17.4404 1.5 16.75V15.75C1.5 15.0597 2.05964 14.5 2.75 14.5ZM10 4.13515L6.5 4.83515V2.36486L10 1.66486V4.13515ZM18.5 4.75C18.5 4.33579 18.1642 4 17.75 4C17.3358 4 17 4.33579 17 4.75V7H14.75C14.3358 7 14 7.33579 14 7.75C14 8.16421 14.3358 8.5 14.75 8.5H17V10.75C17 11.1642 17.3358 11.5 17.75 11.5C18.1642 11.5 18.5 11.1642 18.5 10.75V8.5H20.75C21.1642 8.5 21.5 8.16421 21.5 7.75C21.5 7.33579 21.1642 7 20.75 7H18.5V4.75Z" fill="#292927"/>
</g>
</svg>
