<svg preserveAspectRatio="xMidYMid meet" overflow="visible" style="display: block;" viewBox="0 0 24 24" fill="none" xmlns="http://www.w3.org/2000/svg">
<g transform="translate(1.2500, 4.2500)">
<path id="Vector" fill-rule="evenodd" clip-rule="evenodd" d="M18.2803 0.21967C17.9874 -0.0732233 17.5126 -0.0732233 17.2197 0.21967L14.2197 3.21967C13.9268 3.51256 13.9268 3.98744 14.2197 4.28033C14.5126 4.57322 14.9874 4.57322 15.2803 4.28033L17 2.56066V10.75C17 11.1642 17.3358 11.5 17.75 11.5C18.1642 11.5 18.5 11.1642 18.5 10.75V2.56066L20.2197 4.28033C20.5126 4.57322 20.9874 4.57322 21.2803 4.28033C21.5732 3.98744 21.5732 3.51256 21.2803 3.21967L18.2803 0.21967ZM4.75 3.5C5.16421 3.5 5.5 3.16421 5.5 2.75C5.5 2.33579 5.16421 2 4.75 2H0.75C0.335786 2 0 2.33579 0 2.75C0 3.16421 0.335786 3.5 0.75 3.5H4.75ZM9.5 6.75C9.5 7.16421 9.16421 7.5 8.75 7.5H0.75C0.335786 7.5 0 7.16421 0 6.75C0 6.33579 0.335786 6 0.75 6H8.75C9.16421 6 9.5 6.33579 9.5 6.75ZM13.5 10.75C13.5 11.1642 13.1642 11.5 12.75 11.5H0.75C0.335787 11.5 0 11.1642 0 10.75C0 10.3358 0.335787 10 0.75 10H12.75C13.1642 10 13.5 10.3358 13.5 10.75ZM17.5 14.75C17.5 15.1642 17.1642 15.5 16.75 15.5H0.75C0.335787 15.5 0 15.1642 0 14.75C0 14.3358 0.335787 14 0.75 14H16.75C17.1642 14 17.5 14.3358 17.5 14.75Z" fill="#292927"/>
</g>
</svg>
