<svg preserveAspectRatio="xMidYMid meet" overflow="visible" style="display: block;" viewBox="0 0 24 24" fill="none" xmlns="http://www.w3.org/2000/svg">
<g transform="translate(3.2500, 1.2500)">
<path id="Vector" fill-rule="evenodd" clip-rule="evenodd" d="M1.5 12.75C1.5 10.7027 2.34384 7.83328 3.73869 5.47495C4.33597 4.46511 5.01841 3.57656 5.75153 2.89701L7.84472 6.66476L5.67385 9.2698C5.45547 9.53186 5.44144 9.90829 5.63972 10.1859L8.13971 13.6859C8.38047 14.0229 8.84888 14.101 9.18594 13.8602C9.523 13.6195 9.60107 13.1511 9.36031 12.814L7.19689 9.78522L9.32618 7.23008C9.52454 6.99206 9.5561 6.65656 9.40563 6.38571L6.96815 1.99824C7.55985 1.67089 8.1569 1.5 8.75 1.5C9.63153 1.5 10.5218 1.87752 11.3902 2.58512C12.2594 3.29331 13.0678 4.30236 13.7613 5.47495C15.1562 7.83328 16 10.7027 16 12.75C16 16.7541 12.7541 20 8.75 20C4.74594 20 1.5 16.7541 1.5 12.75ZM8.75 0C7.42239 0 6.20805 0.570197 5.1623 1.42224C4.11728 2.27369 3.20178 3.43622 2.44761 4.71134C0.947022 7.24844 0 10.379 0 12.75C0 17.5825 3.91751 21.5 8.75 21.5C13.5825 21.5 17.5 17.5825 17.5 12.75C17.5 10.379 16.553 7.24844 15.0524 4.71134C14.2982 3.43622 13.3827 2.27369 12.3377 1.42224C11.292 0.570197 10.0776 0 8.75 0Z" fill="#292927"/>
</g>
</svg>
