<svg preserveAspectRatio="xMidYMid meet" overflow="visible" style="display: block;" viewBox="0 0 24 24" fill="none" xmlns="http://www.w3.org/2000/svg">
<g transform="translate(1.2500, 1.7500)">
<path id="Vector" fill-rule="evenodd" clip-rule="evenodd" d="M1.5 2.75C1.5 2.05964 2.05964 1.5 2.75 1.5H18.75C19.4404 1.5 20 2.05964 20 2.75V4H1.5V2.75ZM0 4.75V2.75C0 1.23122 1.23122 0 2.75 0H18.75C20.2688 0 21.5 1.23122 21.5 2.75V4.75V10.75C21.5 11.1642 21.1642 11.5 20.75 11.5C20.3358 11.5 20 11.1642 20 10.75V5.5H1.5V16.75C1.5 17.4404 2.05964 18 2.75 18H12.75C13.1642 18 13.5 18.3358 13.5 18.75C13.5 19.1642 13.1642 19.5 12.75 19.5H2.75C1.23122 19.5 0 18.2688 0 16.75V4.75ZM4.26173 2.19058C4.56961 2.46768 4.59457 2.9419 4.31748 3.24978L4.30748 3.26089C4.03038 3.56877 3.55616 3.59373 3.24828 3.31663C2.9404 3.03954 2.91544 2.56532 3.19254 2.25744L3.20254 2.24633C3.47963 1.93845 3.95385 1.91349 4.26173 2.19058ZM7.31748 3.24978C7.59457 2.9419 7.56961 2.46768 7.26173 2.19058C6.95385 1.91349 6.47963 1.93845 6.20254 2.24633L6.19254 2.25744C5.91544 2.56532 5.9404 3.03954 6.24828 3.31663C6.55616 3.59373 7.03038 3.56877 7.30748 3.26089L7.31748 3.24978ZM10.2617 2.19058C10.5696 2.46768 10.5946 2.9419 10.3175 3.24978L10.3075 3.26089C10.0304 3.56877 9.55616 3.59373 9.24828 3.31663C8.9404 3.03954 8.91544 2.56532 9.19254 2.25744L9.20254 2.24633C9.47963 1.93845 9.95385 1.91349 10.2617 2.19058ZM18.25 12C17.3231 12 16.6805 12.4245 16.2981 12.9821C15.943 13.5 15.8333 14.0955 15.8333 14.5V15.6024C15.3441 15.8052 15 16.2874 15 16.85V19.15C15 19.8956 15.6044 20.5 16.35 20.5H20.15C20.8956 20.5 21.5 19.8956 21.5 19.15V16.85C21.5 16.2874 21.1559 15.8052 20.6667 15.6024V14.5C20.6667 14.0955 20.557 13.5 20.2019 12.9821C19.8195 12.4245 19.1769 12 18.25 12ZM19.1667 14.5V15.5H17.3333V14.5C17.3333 14.3212 17.3903 14.0417 17.5352 13.8304C17.6528 13.6589 17.8436 13.5 18.25 13.5C18.6564 13.5 18.8472 13.6589 18.9648 13.8304C19.1097 14.0417 19.1667 14.3212 19.1667 14.5ZM16.5 19V17H20V19H16.5Z" fill="#292927"/>
</g>
</svg>
