<svg preserveAspectRatio="xMidYMid meet" overflow="visible" style="display: block;" viewBox="0 0 24 24" fill="none" xmlns="http://www.w3.org/2000/svg">
<g transform="translate(2.2500, 2.2500)">
<path id="Vector" fill-rule="evenodd" clip-rule="evenodd" d="M3.75 16.5C3.33579 16.5 3 16.1642 3 15.75V4.5H0.75C0.335787 4.5 0 4.16421 0 3.75C0 3.33579 0.335787 3 0.75 3H3V0.75C3 0.335787 3.33579 0 3.75 0C4.16421 0 4.5 0.335787 4.5 0.75V3H15.75C16.1642 3 16.5 3.33579 16.5 3.75V15H18.75C19.1642 15 19.5 15.3358 19.5 15.75C19.5 16.1642 19.1642 16.5 18.75 16.5H16.5V18.75C16.5 19.1642 16.1642 19.5 15.75 19.5C15.3358 19.5 15 19.1642 15 18.75V16.5H3.75ZM15 15V4.5H4.5V15H15Z" fill="#292927"/>
</g>
</svg>
