<svg preserveAspectRatio="xMidYMid meet" overflow="visible" style="display: block;" viewBox="0 0 24 24" fill="none" xmlns="http://www.w3.org/2000/svg">
<g transform="translate(0.8958, 4.2500)">
<path id="Vector" fill-rule="evenodd" clip-rule="evenodd" d="M11.6044 15.3195C11.2899 15.0499 11.2535 14.5764 11.523 14.2619L16.4074 8.5635C16.8086 8.09539 16.8086 7.40464 16.4074 6.93652L11.523 1.23811C11.2535 0.923613 11.2899 0.450137 11.6044 0.180571C11.9189 -0.0889957 12.3923 -0.0525739 12.6619 0.26192L17.5463 5.96034C18.429 6.99018 18.429 8.50984 17.5463 9.53969L12.6619 15.2381C12.3923 15.5526 11.9189 15.589 11.6044 15.3195ZM6.15175 13.536C6.64976 14.1052 7.53517 14.1052 8.03319 13.536L12.3757 8.57323C12.788 8.10195 12.788 7.39825 12.3756 6.92697L8.03318 1.96415C7.53517 1.39499 6.64976 1.39499 6.15174 1.96416L1.80928 6.92697C1.39691 7.39825 1.39691 8.10195 1.80928 8.57323L6.15175 13.536ZM9.16205 14.5238C8.06642 15.776 6.11851 15.776 5.02288 14.5238L0.680415 9.56099C-0.226803 8.52417 -0.226806 6.97604 0.680413 5.93921L5.02288 0.976398C6.11851 -0.275751 8.06642 -0.275755 9.16205 0.976396L13.5045 5.93921C14.4117 6.97603 14.4117 8.52416 13.5045 9.56099L9.16205 14.5238ZM15.523 14.2619C15.2535 14.5764 15.2899 15.0499 15.6044 15.3195C15.9189 15.589 16.3923 15.5526 16.6619 15.2381L21.5463 9.53969C22.429 8.50984 22.429 6.99018 21.5463 5.96034L16.6619 0.26192C16.3923 -0.0525739 15.9189 -0.0889957 15.6044 0.180571C15.2899 0.450137 15.2535 0.923613 15.523 1.23811L20.4074 6.93652C20.8086 7.40464 20.8086 8.09539 20.4074 8.5635L15.523 14.2619Z" fill="#292927"/>
</g>
</svg>
