<svg preserveAspectRatio="xMidYMid meet" overflow="visible" style="display: block;" viewBox="0 0 24 24" fill="none" xmlns="http://www.w3.org/2000/svg">
<g transform="translate(1.2500, 1.2500)">
<path id="Vector" fill-rule="evenodd" clip-rule="evenodd" d="M1.5 10.75C1.5 5.64137 5.64137 1.5 10.75 1.5C15.8586 1.5 20 5.64137 20 10.75C20 15.8586 15.8586 20 10.75 20C5.64137 20 1.5 15.8586 1.5 10.75ZM10.75 0C4.81294 0 0 4.81294 0 10.75C0 16.6871 4.81294 21.5 10.75 21.5C16.6871 21.5 21.5 16.6871 21.5 10.75C21.5 4.81294 16.6871 0 10.75 0ZM9.71967 14.7803L6.21967 11.2803C5.92678 10.9874 5.92678 10.5126 6.21967 10.2197L9.71967 6.71967C10.0126 6.42678 10.4874 6.42678 10.7803 6.71967C11.0732 7.01256 11.0732 7.48744 10.7803 7.78033L8.56066 10H14.75C15.1642 10 15.5 10.3358 15.5 10.75C15.5 11.1642 15.1642 11.5 14.75 11.5H8.56066L10.7803 13.7197C11.0732 14.0126 11.0732 14.4874 10.7803 14.7803C10.4874 15.0732 10.0126 15.0732 9.71967 14.7803Z" fill="#292927"/>
</g>
</svg>
