<svg preserveAspectRatio="xMidYMid meet" overflow="visible" style="display: block;" viewBox="0 0 24 24" fill="none" xmlns="http://www.w3.org/2000/svg">
<g transform="translate(1.2499, 4.2500)">
<path id="Vector" fill-rule="evenodd" clip-rule="evenodd" d="M18.0549 12.9461C17.9585 13.5532 17.4351 14.0001 16.8204 14.0001H4.67992C4.06521 14.0001 3.54174 13.5532 3.44537 12.9461L2.56325 7.38871C2.94917 7.2867 3.31853 7.12392 3.65611 6.93978C4.23371 6.62473 4.77769 6.21427 5.23819 5.81955C5.62028 5.49205 5.95563 5.16608 6.21743 4.8967C6.45478 5.16503 6.75944 5.48522 7.1159 5.80691C7.97557 6.5827 9.28123 7.50011 10.7501 7.50011C12.219 7.50011 13.5246 6.5827 14.3843 5.80691C14.7408 5.48522 15.0454 5.16503 15.2828 4.8967C15.5446 5.16608 15.8799 5.49205 16.262 5.81955C16.7225 6.21427 17.2665 6.62473 17.8441 6.93978C18.1817 7.12392 18.5511 7.28672 18.937 7.38872L18.0549 12.9461ZM19.1741 5.89494C18.9848 5.83234 18.7801 5.74173 18.5624 5.62294C18.1087 5.37549 17.6527 5.03595 17.2382 4.68067C16.8261 4.32747 16.4705 3.97202 16.2172 3.70389C16.0911 3.57031 15.9915 3.4596 15.9242 3.38324C15.8906 3.34509 15.8651 3.31561 15.8486 3.29623L15.8305 3.27495L15.826 3.26964C15.6773 3.09146 15.4546 2.99212 15.2227 3.00061C14.9907 3.0091 14.7756 3.12477 14.6404 3.31339L14.6378 3.31695L14.6232 3.33675C14.6096 3.35512 14.5882 3.38356 14.5596 3.42062C14.5023 3.4948 14.4163 3.60313 14.3053 3.73416C14.0824 3.99734 13.7637 4.3465 13.3794 4.69331C12.5768 5.41752 11.6325 6.00011 10.7501 6.00011C9.8677 6.00011 8.92336 5.41752 8.12084 4.69331C7.73653 4.3465 7.41779 3.99734 7.19491 3.73416C7.08394 3.60313 6.99792 3.4948 6.94063 3.42062C6.91201 3.38356 6.89064 3.35512 6.877 3.33675L6.86242 3.31695L6.85947 3.31289C6.72424 3.12441 6.50939 3.0091 6.27754 3.00061C6.04557 2.99212 5.82227 3.09208 5.67361 3.27035L5.66974 3.27495L5.65164 3.29623C5.63507 3.31561 5.60961 3.34509 5.576 3.38324C5.50874 3.4596 5.40912 3.57031 5.28296 3.70389C5.02973 3.97202 4.67407 4.32747 4.262 4.68067C3.84751 5.03595 3.39149 5.37549 2.93783 5.62294C2.72007 5.74172 2.51545 5.83232 2.32614 5.89492L1.49084 0.632534C1.4259 0.223442 1.04163 -0.0555515 0.632535 0.00938322C0.223443 0.0743189 -0.0555523 0.458594 0.00938342 0.867686L1.96392 13.1812C2.17593 14.5169 3.32756 15.5001 4.67992 15.5001H16.8204C18.1727 15.5001 19.3243 14.5168 19.5363 13.1812L21.4908 0.867683C21.5558 0.458591 21.2768 0.074317 20.8677 0.00938322C20.4586 -0.0555506 20.0743 0.223445 20.0094 0.632537L19.1929 5.77671L19.1741 5.89494Z" fill="#292927"/>
</g>
</svg>
