<svg preserveAspectRatio="xMidYMid meet" overflow="visible" style="display: block;" viewBox="0 0 24 24" fill="none" xmlns="http://www.w3.org/2000/svg">
<g transform="translate(2.2500, 4.2500)">
<path id="Vector" fill-rule="evenodd" clip-rule="evenodd" d="M2.75 1.5C2.05964 1.5 1.5 2.05964 1.5 2.75V12.75C1.5 13.4404 2.05964 14 2.75 14H16.75C17.4404 14 18 13.4404 18 12.75V2.75C18 2.05964 17.4404 1.5 16.75 1.5H2.75ZM0 2.75C0 1.23122 1.23122 0 2.75 0H16.75C18.2688 0 19.5 1.23122 19.5 2.75V12.75C19.5 14.2688 18.2688 15.5 16.75 15.5H2.75C1.23122 15.5 0 14.2688 0 12.75V2.75ZM9.7809 4.09452C10.143 4.29568 10.2734 4.75228 10.0723 5.11437L9.02464 7.00014H11.75C12.0157 7.00014 12.2616 7.14076 12.3964 7.36979C12.5312 7.59882 12.5347 7.88207 12.4056 8.11437L10.739 11.1144C10.5378 11.4765 10.0812 11.6069 9.7191 11.4058C9.35701 11.2046 9.22656 10.748 9.42772 10.3859L10.4754 8.50014H7.75C7.48426 8.50014 7.23836 8.35952 7.1036 8.13048C6.96883 7.90145 6.96533 7.6182 7.09438 7.3859L8.76105 4.3859C8.96221 4.02382 9.41881 3.89336 9.7809 4.09452ZM3.75 3C3.33579 3 3 3.33579 3 3.75C3 4.16421 3.33579 4.5 3.75 4.5H4.75C5.16421 4.5 5.5 4.16421 5.5 3.75C5.5 3.33579 5.16421 3 4.75 3H3.75Z" fill="#292927"/>
</g>
</svg>
