<svg preserveAspectRatio="xMidYMid meet" overflow="visible" style="display: block;" viewBox="0 0 24 24" fill="none" xmlns="http://www.w3.org/2000/svg">
<g transform="translate(1.2500, 2.2500)">
<path id="Vector" fill-rule="evenodd" clip-rule="evenodd" d="M21.5 7.15C21.5 7.89558 20.8956 8.5 20.15 8.5H16.35C15.6044 8.5 15 7.89558 15 7.15V5H12.25C11.5596 5 11 5.55964 11 6.25V13.25C11 13.9404 11.5596 14.5 12.25 14.5H15V12.35C15 11.6044 15.6044 11 16.35 11H20.15C20.8956 11 21.5 11.6044 21.5 12.35V18.15C21.5 18.8956 20.8956 19.5 20.15 19.5H16.35C15.6044 19.5 15 18.8956 15 18.15V16H12.25C10.7312 16 9.5 14.7688 9.5 13.25V10.5H6.5V12.65C6.5 13.3956 5.89558 14 5.15 14H1.35C0.604416 14 0 13.3956 0 12.65V6.85C0 6.10442 0.604415 5.5 1.35 5.5H5.15C5.89558 5.5 6.5 6.10442 6.5 6.85V9H9.5V6.25C9.5 4.73122 10.7312 3.5 12.25 3.5H15V1.35C15 0.604415 15.6044 0 16.35 0H20.15C20.8956 0 21.5 0.604415 21.5 1.35V7.15ZM16.5 7H20V1.5H16.5V7ZM5 12.5H1.5V7H5V12.5ZM20 18H16.5V12.5H20V18Z" fill="#292927"/>
</g>
</svg>
