<svg preserveAspectRatio="xMidYMid meet" overflow="visible" style="display: block;" viewBox="0 0 24 24" fill="none" xmlns="http://www.w3.org/2000/svg">
<g transform="translate(1.2500, 2.2500)">
<path id="Vector" fill-rule="evenodd" clip-rule="evenodd" d="M2.75 1.5C2.05964 1.5 1.5 2.05964 1.5 2.75V4H20V2.75C20 2.05964 19.4404 1.5 18.75 1.5H2.75ZM0 2.75V4.75V16.75C0 18.2688 1.23122 19.5 2.75 19.5H18.75C20.2688 19.5 21.5 18.2688 21.5 16.75V4.75V2.75C21.5 1.23122 20.2688 0 18.75 0H2.75C1.23122 0 0 1.23122 0 2.75ZM20 16.75V5.5H1.5V16.75C1.5 17.4404 2.05964 18 2.75 18H18.75C19.4404 18 20 17.4404 20 16.75ZM4.31748 3.24978C4.59457 2.9419 4.56961 2.46768 4.26173 2.19058C3.95385 1.91349 3.47963 1.93845 3.20254 2.24633L3.19254 2.25744C2.91544 2.56532 2.9404 3.03954 3.24828 3.31663C3.55616 3.59373 4.03038 3.56877 4.30748 3.26089L4.31748 3.24978ZM7.26173 2.19058C7.56961 2.46768 7.59457 2.9419 7.31748 3.24978L7.30748 3.26089C7.03038 3.56877 6.55616 3.59373 6.24828 3.31663C5.9404 3.03954 5.91544 2.56532 6.19254 2.25744L6.20254 2.24633C6.47963 1.93845 6.95385 1.91349 7.26173 2.19058ZM10.3175 3.24978C10.5946 2.9419 10.5696 2.46768 10.2617 2.19058C9.95385 1.91349 9.47963 1.93845 9.20254 2.24633L9.19254 2.25744C8.91544 2.56532 8.9404 3.03954 9.24828 3.31663C9.55616 3.59373 10.0304 3.56877 10.3075 3.26089L10.3175 3.24978Z" fill="#292927"/>
</g>
</svg>
