<svg preserveAspectRatio="xMidYMid meet" overflow="visible" style="display: block;" viewBox="0 0 24 24" fill="none" xmlns="http://www.w3.org/2000/svg">
<g transform="translate(2.2500, 2.2500)">
<path id="Vector" fill-rule="evenodd" clip-rule="evenodd" d="M1.28033 0.21967C0.987437 -0.0732233 0.512563 -0.0732233 0.21967 0.21967C-0.0732233 0.512563 -0.0732233 0.987437 0.21967 1.28033L5 6.06066V9H4.35C3.60442 9 3 9.60442 3 10.35V17.15C3 17.8956 3.60442 18.5 4.35 18.5H15.15C15.7703 18.5 16.2929 18.0816 16.451 17.5117L18.2197 19.2803C18.5126 19.5732 18.9874 19.5732 19.2803 19.2803C19.5732 18.9874 19.5732 18.5126 19.2803 18.2197L1.28033 0.21967ZM15.0193 16.08L9.41999 10.4807C9.36537 10.4933 9.30847 10.5 9.25 10.5H4.5V17H15V16.25C15 16.1915 15.0067 16.1346 15.0193 16.08ZM7.93934 9L6.5 7.56066V9H7.93934ZM7.56017 1.45715C8.17627 1.16519 8.9037 1 9.75001 1C11.5945 1 12.8196 1.78532 13.5587 2.81177C14.2702 3.79998 14.5 4.96332 14.5 5.75V9H15.15C15.8956 9 16.5 9.60442 16.5 10.35V10.75C16.5 11.1642 16.1642 11.5 15.75 11.5C15.3358 11.5 15 11.1642 15 10.75V10.5H14C13.9574 10.5 13.9157 10.4965 13.875 10.4896C13.8344 10.4965 13.7926 10.5 13.75 10.5C13.3358 10.5 13 10.1642 13 9.75V5.75C13 5.20335 12.8299 4.36668 12.3414 3.68823C11.8804 3.04802 11.1056 2.5 9.75001 2.5C9.10265 2.5 8.59786 2.62531 8.20251 2.81266C7.8282 2.99004 7.38097 2.83039 7.20359 2.45608C7.02621 2.08177 7.18585 1.63453 7.56017 1.45715Z" fill="#292927"/>
</g>
</svg>
