<svg preserveAspectRatio="xMidYMid meet" overflow="visible" style="display: block;" viewBox="0 0 24 24" fill="none" xmlns="http://www.w3.org/2000/svg">
<g transform="translate(1.2500, 3.2500)">
<path id="Vector" fill-rule="evenodd" clip-rule="evenodd" d="M9.28033 5.28033C9.57322 4.98744 9.57322 4.51256 9.28033 4.21967L5.28033 0.21967C4.98744 -0.0732234 4.51256 -0.0732234 4.21967 0.21967L0.21967 4.21967C-0.0732234 4.51256 -0.0732234 4.98744 0.21967 5.28033C0.512563 5.57322 0.987437 5.57322 1.28033 5.28033L4 2.56066V13.75C4 14.1642 4.33579 14.5 4.75 14.5C5.16421 14.5 5.5 14.1642 5.5 13.75V2.56066L8.21967 5.28033C8.51256 5.57322 8.98744 5.57322 9.28033 5.28033ZM0.999999 16.75C0.999999 16.3358 1.33579 16 1.75 16L19.75 16C20.1642 16 20.5 16.3358 20.5 16.75C20.5 17.1642 20.1642 17.5 19.75 17.5L1.75 17.5C1.33579 17.5 1 17.1642 0.999999 16.75ZM21.2803 4.21967C21.5732 4.51256 21.5732 4.98744 21.2803 5.28033C20.9874 5.57322 20.5126 5.57322 20.2197 5.28033L17.5 2.56066V13.75C17.5 14.1642 17.1642 14.5 16.75 14.5C16.3358 14.5 16 14.1642 16 13.75V2.56066L13.2803 5.28033C12.9874 5.57322 12.5126 5.57322 12.2197 5.28033C11.9268 4.98744 11.9268 4.51256 12.2197 4.21967L16.2197 0.21967C16.5126 -0.0732234 16.9874 -0.0732234 17.2803 0.21967L21.2803 4.21967Z" fill="#292927"/>
</g>
</svg>
