<svg preserveAspectRatio="xMidYMid meet" overflow="visible" style="display: block;" viewBox="0 0 24 24" fill="none" xmlns="http://www.w3.org/2000/svg">
<g transform="translate(1.2500, 1.7454)">
<path id="Vector" fill-rule="evenodd" clip-rule="evenodd" d="M2.75 1.5C2.05964 1.5 1.5 2.05964 1.5 2.75V4H20V2.75C20 2.05964 19.4404 1.5 18.75 1.5H2.75ZM0 2.75V4.75V16.75C0 18.2688 1.23122 19.5 2.75 19.5H16.75C17.1642 19.5 17.5 19.1642 17.5 18.75C17.5 18.3358 17.1642 18 16.75 18H2.75C2.05964 18 1.5 17.4404 1.5 16.75V5.5H20V10.75C20 11.1642 20.3358 11.5 20.75 11.5C21.1642 11.5 21.5 11.1642 21.5 10.75V4.75V2.75C21.5 1.23122 20.2688 0 18.75 0H2.75C1.23122 0 0 1.23122 0 2.75ZM4.31748 3.24978C4.59457 2.9419 4.56961 2.46768 4.26173 2.19058C3.95385 1.91349 3.47963 1.93845 3.20254 2.24633L3.19254 2.25744C2.91544 2.56532 2.9404 3.03954 3.24828 3.31663C3.55616 3.59373 4.03038 3.56877 4.30748 3.26089L4.31748 3.24978ZM7.26173 2.19058C7.56961 2.46768 7.59457 2.9419 7.31748 3.24978L7.30748 3.26089C7.03038 3.56877 6.55616 3.59373 6.24828 3.31663C5.9404 3.03954 5.91544 2.56532 6.19254 2.25744L6.20254 2.24633C6.47963 1.93845 6.95385 1.91349 7.26173 2.19058ZM10.3175 3.24978C10.5946 2.9419 10.5696 2.46768 10.2617 2.19058C9.95385 1.91349 9.47963 1.93845 9.20254 2.24633L9.19254 2.25744C8.91544 2.56532 8.9404 3.03954 9.24828 3.31663C9.55616 3.59373 10.0304 3.56877 10.3075 3.26089L10.3175 3.24978ZM19.75 13C20.1642 13 20.5 13.3358 20.5 13.75V15.75C20.5 16.1642 20.1642 16.5 19.75 16.5C19.3358 16.5 19 16.1642 19 15.75V13.75C19 13.3358 19.3358 13 19.75 13ZM20.3175 20.2498C20.5946 19.9419 20.5696 19.4677 20.2617 19.1906C19.9538 18.9135 19.4796 18.9384 19.2025 19.2463L19.1925 19.2574C18.9154 19.5653 18.9404 20.0395 19.2483 20.3166C19.5562 20.5937 20.0304 20.5688 20.3075 20.2609L20.3175 20.2498Z" fill="#292927"/>
</g>
</svg>
