<svg preserveAspectRatio="xMidYMid meet" overflow="visible" style="display: block;" viewBox="0 0 24 24" fill="none" xmlns="http://www.w3.org/2000/svg">
<g transform="translate(2.2500, 2.2500)">
<path id="Vector" fill-rule="evenodd" clip-rule="evenodd" d="M1.5 1.5H18V18H1.5V1.5ZM18.15 19.5C18.8956 19.5 19.5 18.8956 19.5 18.15V1.35C19.5 0.604418 18.8956 0 18.15 0H1.35C0.604418 0 0 0.604414 0 1.35V18.15C0 18.8956 0.604414 19.5 1.35 19.5H18.15ZM10.5 4.75C10.5 4.33579 10.1642 4 9.75 4C9.33579 4 9 4.33579 9 4.75V8.47536L5.61423 6.59438C5.25214 6.39322 4.79554 6.52368 4.59438 6.88577C4.39322 7.24786 4.52368 7.70446 4.88577 7.90562L8.20566 9.75L4.88577 11.5944C4.52368 11.7955 4.39322 12.2521 4.59438 12.6142C4.79554 12.9763 5.25214 13.1068 5.61423 12.9056L9 11.0246V14.75C9 15.1642 9.33579 15.5 9.75 15.5C10.1642 15.5 10.5 15.1642 10.5 14.75V11.0246L13.8858 12.9056C14.2479 13.1068 14.7045 12.9763 14.9056 12.6142C15.1068 12.2521 14.9763 11.7955 14.6142 11.5944L11.2943 9.75L14.6142 7.90562C14.9763 7.70446 15.1068 7.24786 14.9056 6.88577C14.7045 6.52368 14.2479 6.39322 13.8858 6.59438L10.5 8.47536V4.75Z" fill="#292927"/>
</g>
</svg>
