<svg preserveAspectRatio="xMidYMid meet" overflow="visible" style="display: block;" viewBox="0 0 24 24" fill="none" xmlns="http://www.w3.org/2000/svg">
<g transform="translate(1.2500, 4.7500)">
<path id="Vector" fill-rule="evenodd" clip-rule="evenodd" d="M1.5 6.21739V1.5L6.94718 1.5C8.05822 1.5 8.81779 1.83776 9.29161 2.27351C9.7683 2.7119 10 3.28766 10 3.85869C10 4.42973 9.7683 5.00549 9.29161 5.44388C8.81779 5.87963 8.05822 6.21739 6.94718 6.21739H1.5ZM10.307 6.54796C10.1284 6.71217 9.93227 6.86167 9.71925 6.99478C9.942 7.14423 10.146 7.31264 10.3305 7.49771C11.1138 8.28359 11.5 9.32611 11.5 10.3587C11.5 11.3913 11.1138 12.4338 10.3305 13.2197C9.53994 14.0128 8.39022 14.5 6.94718 14.5H0.75C0.335786 14.5 0 14.1642 0 13.75V0.749999C0 0.335787 0.336505 0 0.750719 0H6.94718C8.37136 0 9.5132 0.439418 10.307 1.16943C11.0979 1.89679 11.5 2.87539 11.5 3.85869C11.5 4.842 11.0979 5.8206 10.307 6.54796ZM6.94718 13H1.5V7.71739H6.94718C8.03936 7.71739 8.79104 8.07802 9.2681 8.55664C9.75238 9.04249 10 9.69563 10 10.3587C10 11.0218 9.75238 11.6749 9.2681 12.1608C8.79104 12.6394 8.03936 13 6.94718 13ZM16.75 5.5C18.2587 5.5 19.629 6.73408 19.936 8.5H13.564C13.871 6.73408 15.2413 5.5 16.75 5.5ZM16.75 4C14.046 4 12 6.43599 12 9.25C12 12.064 14.046 14.5 16.75 14.5C18.3308 14.5 19.3868 13.9185 20.0476 13.2958C20.3714 12.9906 20.5918 12.6841 20.7331 12.4493C20.804 12.3316 20.8557 12.2308 20.8912 12.1554C20.9089 12.1177 20.9227 12.0861 20.9329 12.0619C20.9379 12.0498 20.9421 12.0394 20.9454 12.031L20.9498 12.0199L20.9515 12.0154L20.9522 12.0135L20.9525 12.0126C20.9527 12.0122 20.9528 12.0117 20.25 11.75L16.2115 10H20.75C21.1642 10 21.5 9.66421 21.5 9.25C21.5 6.43599 19.454 4 16.75 4ZM16.75 13C15.2413 13 13.871 11.7659 13.564 10H16.163L19.5472 11.4874C19.5446 11.4935 19.5403 11.5033 19.5341 11.5165C19.5181 11.5505 19.49 11.6059 19.448 11.6757C19.3636 11.8159 19.2256 12.0094 19.0189 12.2042C18.6185 12.5815 17.9245 13 16.75 13ZM19.5472 11.4874L19.5491 11.483L19.5499 11.4811L19.5491 11.483L19.5483 11.4853L19.5477 11.4867L19.5475 11.4875L19.5472 11.4874ZM14.25 1C13.8358 1 13.5 1.33579 13.5 1.75C13.5 2.16421 13.8358 2.5 14.25 2.5H19.25C19.6642 2.5 20 2.16421 20 1.75C20 1.33579 19.6642 1 19.25 1H14.25Z" fill="#292927"/>
</g>
</svg>
