<svg preserveAspectRatio="xMidYMid meet" overflow="visible" style="display: block;" viewBox="0 0 24 24" fill="none" xmlns="http://www.w3.org/2000/svg">
<g transform="translate(1.2500, 0.2500)">
<path id="Vector" fill-rule="evenodd" clip-rule="evenodd" d="M10.4091 3.0816C13.1684 1.57652 16.0587 0 20.75 0C21.1642 0 21.5 0.335786 21.5 0.749998C21.5 1.16421 21.1642 1.5 20.75 1.5C16.4516 1.5 13.8443 2.91649 11.1091 4.40838L11.0909 4.41831C8.3316 5.92338 5.44129 7.4999 0.75 7.4999C0.335786 7.4999 0 7.16412 0 6.7499C0 6.33569 0.335787 5.9999 0.75 5.9999C5.04839 5.9999 7.65569 4.58342 10.3909 3.09153L10.4091 3.0816ZM10.4091 19.0816C13.1684 17.5765 16.0587 16 20.75 16C21.1642 16 21.5 16.3358 21.5 16.75C21.5 17.1642 21.1642 17.5 20.75 17.5C16.4516 17.5 13.8443 18.9165 11.1091 20.4084L11.0909 20.4183C8.3316 21.9234 5.44129 23.4999 0.75 23.4999C0.335786 23.4999 0 23.1641 0 22.7499C0 22.3357 0.335787 21.9999 0.75 21.9999C5.04839 21.9999 7.65569 20.5834 10.3909 19.0915L10.4091 19.0816ZM11.2803 6.71967C10.9874 6.42678 10.5126 6.42678 10.2197 6.71967L7.71967 9.21967C7.42678 9.51256 7.42678 9.98744 7.71967 10.2803C8.01256 10.5732 8.48744 10.5732 8.78033 10.2803L10 9.06066V14.4393L8.78033 13.2197C8.48744 12.9268 8.01256 12.9268 7.71967 13.2197C7.42678 13.5126 7.42678 13.9874 7.71967 14.2803L10.2197 16.7803C10.5126 17.0732 10.9874 17.0732 11.2803 16.7803L13.7803 14.2803C14.0732 13.9874 14.0732 13.5126 13.7803 13.2197C13.4874 12.9268 13.0126 12.9268 12.7197 13.2197L11.5 14.4393V9.06066L12.7197 10.2803C13.0126 10.5732 13.4874 10.5732 13.7803 10.2803C14.0732 9.98744 14.0732 9.51256 13.7803 9.21967L11.2803 6.71967Z" fill="#292927"/>
</g>
</svg>
