<svg preserveAspectRatio="xMidYMid meet" overflow="visible" style="display: block;" viewBox="0 0 24 24" fill="none" xmlns="http://www.w3.org/2000/svg">
<g transform="translate(3.2500, 1.0000)">
<path id="Vector" fill-rule="evenodd" clip-rule="evenodd" d="M9.78942 1.50018H3.75C3.33579 1.50018 3 1.16439 3 0.750177C3 0.335964 3.33579 0.000177428 3.75 0.000177428H10.7332C10.744 -5.84867e-05 10.7548 -5.9798e-05 10.7657 0.000177428H13.75C14.1642 0.000177428 14.5 0.335964 14.5 0.750177C14.5 1.16439 14.1642 1.50018 13.75 1.50018H11.3356L10.7106 4.00018H11.75C14.9256 4.00018 17.5 6.57454 17.5 9.75018V16.7502C17.5 18.2489 16.3011 19.4676 14.8101 19.4995L15.8356 20.7815C16.0944 21.105 16.042 21.5769 15.7185 21.8357C15.3951 22.0944 14.9231 22.042 14.6643 21.7185L12.8896 19.5002H11.8106L12.8356 20.7815C13.0944 21.105 13.042 21.5769 12.7185 21.8357C12.3951 22.0944 11.9231 22.042 11.6643 21.7185L9.88965 19.5002H7.61035L5.83565 21.7185C5.57689 22.042 5.10492 22.0944 4.78148 21.8357C4.45803 21.5769 4.40559 21.105 4.66435 20.7815L5.68941 19.5002H4.61035L2.83565 21.7185C2.57689 22.042 2.10492 22.0944 1.78148 21.8357C1.45803 21.5769 1.40559 21.105 1.66435 20.7815L2.68992 19.4995C1.19889 19.4676 0 18.2489 0 16.7502V9.75018C0 6.57454 2.57437 4.00018 5.75 4.00018H9.16442L9.78942 1.50018ZM7.2341 18.0002H4.26684C4.25593 17.9999 4.24501 17.9999 4.2341 18.0002H2.75C2.05964 18.0002 1.5 17.4406 1.5 16.7502V9.75018C1.5 7.40297 3.40279 5.50018 5.75 5.50018H9.73432C9.74518 5.50041 9.75601 5.50041 9.76681 5.50018H11.75C14.0972 5.50018 16 7.40297 16 9.75018V16.7502C16 17.4406 15.4404 18.0002 14.75 18.0002H13.2659L13.2502 18L13.2332 18.0002H10.2659C10.255 17.9999 10.2441 17.9999 10.2332 18.0002H7.26684C7.25593 17.9999 7.24501 17.9999 7.2341 18.0002ZM6.31721 15.2501C6.59446 14.9423 6.56975 14.4681 6.26201 14.1908C5.95427 13.9136 5.48004 13.9383 5.20279 14.246L5.19279 14.2571C4.91553 14.5649 4.94025 15.0391 5.24799 15.3164C5.55573 15.5936 6.02996 15.5689 6.30721 15.2612L6.31721 15.2501ZM12.3172 15.2501C12.5945 14.9423 12.5697 14.4681 12.262 14.1908C11.9543 13.9136 11.48 13.9383 11.2028 14.246L11.1928 14.2571C10.9155 14.5649 10.9402 15.0391 11.248 15.3164C11.5557 15.5936 12.03 15.5689 12.3072 15.2612L12.3172 15.2501ZM12.9654 10H4.53458C4.70173 9.14513 5.45488 8.5 6.3587 8.5H11.1413C12.0451 8.5 12.7983 9.14514 12.9654 10ZM6.3587 7C4.50373 7 3 8.5038 3 10.3587C3 10.989 3.51096 11.5 4.1413 11.5H13.3587C13.989 11.5 14.5 10.989 14.5 10.3587C14.5 8.50379 12.9962 7 11.1413 7H6.3587Z" fill="#292927"/>
</g>
</svg>
