<svg preserveAspectRatio="xMidYMid meet" overflow="visible" style="display: block;" viewBox="0 0 24 24" fill="none" xmlns="http://www.w3.org/2000/svg">
<g transform="translate(1.2341, 1.2568)">
<path id="Vector" fill-rule="evenodd" clip-rule="evenodd" d="M16.5776 5.98624L1.5563 1.56822L5.07548 16.5248C7.67867 15.8932 10.3636 14.118 12.5759 11.9057C14.7968 9.6847 16.1887 7.38108 16.5776 5.98624ZM3.71043 17.2724L0.0371045 1.66076C-0.200034 0.652918 0.738853 -0.235735 1.73214 0.0564088L17.3379 4.64632C17.9361 4.09668 18.7904 3.84881 19.6375 4.06059C20.977 4.39546 21.7914 5.75279 21.4565 7.09228C20.802 9.71034 18.7078 12.8448 16.1114 15.4412C13.479 18.0736 9.95706 20.5303 6.09328 21.4219C4.74793 21.7324 3.40562 20.8934 3.09515 19.5481C2.90024 18.7035 3.15837 17.86 3.71043 17.2724ZM7.04261 5.92691C7.3505 6.20401 7.37545 6.67822 7.09836 6.98611L7.08836 6.99722C6.81127 7.3051 6.33705 7.33006 6.02917 7.05296C5.72128 6.77587 5.69633 6.30165 5.97342 5.99377L5.98342 5.98266C6.26051 5.67478 6.73473 5.64982 7.04261 5.92691ZM13.0426 6.92691C13.3505 7.20401 13.3755 7.67822 13.0984 7.98611L13.0884 7.99722C12.8113 8.3051 12.337 8.33006 12.0292 8.05296C11.7213 7.77587 11.6963 7.30165 11.9734 6.99377L11.9834 6.98266C12.2605 6.67478 12.7347 6.64982 13.0426 6.92691ZM7.09836 12.9861C7.37545 12.6782 7.3505 12.204 7.04261 11.9269C6.73473 11.6498 6.26051 11.6748 5.98342 11.9827L5.97342 11.9938C5.69633 12.3017 5.72128 12.7759 6.02917 13.053C6.33705 13.3301 6.81127 13.3051 7.08836 12.9972L7.09836 12.9861ZM19.2737 5.5158C19.8095 5.64975 20.1352 6.19268 20.0013 6.72848C19.4395 8.9757 17.5518 11.8795 15.0507 14.3805C12.5353 16.896 9.25148 19.1537 5.75599 19.9603C5.21785 20.0845 4.68093 19.7489 4.55674 19.2108C4.43256 18.6727 4.76813 18.1357 5.30627 18.0116C8.31078 17.3182 11.277 15.3259 13.6365 12.9663C16.0105 10.5924 17.6228 7.99619 18.061 6.24341C18.1949 5.70761 18.7379 5.38185 19.2737 5.5158Z" fill="#292927"/>
</g>
</svg>
