<svg preserveAspectRatio="xMidYMid meet" overflow="visible" style="display: block;" viewBox="0 0 24 24" fill="none" xmlns="http://www.w3.org/2000/svg">
<g transform="translate(1.2500, 2.2500)">
<path id="Vector" fill-rule="evenodd" clip-rule="evenodd" d="M7.5 1.5V4H14V1.5H7.5ZM15.5 4V1.35C15.5 0.604416 14.8956 0 14.15 0H7.35C6.60442 0 6 0.604415 6 1.35V4H2.75C1.23122 4 0 5.23122 0 6.75V16.75C0 18.2688 1.23122 19.5 2.75 19.5H18.75C20.2688 19.5 21.5 18.2688 21.5 16.75V6.75C21.5 5.23122 20.2688 4 18.75 4H15.5ZM2.75 5.5C2.05964 5.5 1.5 6.05964 1.5 6.75V16.75C1.5 17.4404 2.05964 18 2.75 18H18.75C19.4404 18 20 17.4404 20 16.75V6.75C20 6.05964 19.4404 5.5 18.75 5.5H2.75Z" fill="#292927"/>
</g>
</svg>
