<svg preserveAspectRatio="xMidYMid meet" overflow="visible" style="display: block;" viewBox="0 0 24 24" fill="none" xmlns="http://www.w3.org/2000/svg">
<g transform="translate(2.2500, 1.2500)">
<path id="Vector" fill-rule="evenodd" clip-rule="evenodd" d="M12.3701 0.10553C12.6067 -0.0352752 12.9014 -0.0351698 13.1378 0.105805L19.1341 3.68081C19.361 3.8161 19.5 4.06081 19.5 4.325V17.1821C19.5 17.4466 19.3608 17.6915 19.1335 17.8267L13.1373 21.3945C12.9009 21.5352 12.6066 21.5352 12.3702 21.3945L0.366476 14.2517C0.13909 14.1164 -0.000173645 13.8712 1.62499e-07 13.6067L0.00375382 7.89236C0.00392739 7.62816 0.143107 7.38353 0.370141 7.24839L12.3701 0.10553ZM1.50295 9.1236L1.50081 12.3761L4.654 10.7501L1.50295 9.1236ZM6.28959 11.5944L2.29546 13.654L12.0038 19.431V14.5439L6.28959 11.5944ZM12.0038 12.8559L7.92553 10.7508L12.0038 8.64772V12.8559ZM13.5038 15.3182V19.431L17.205 17.2287L13.5038 15.3182ZM18 15.951L13.5038 13.6301V7.87421L18 5.55561V15.951ZM17.2057 4.27749L13.5038 6.18651V2.07034L17.2057 4.27749ZM12.0038 2.06924V6.96002L6.28993 9.9065L2.29848 7.84619L12.0038 2.06924Z" fill="#292927"/>
</g>
</svg>
