<svg preserveAspectRatio="xMidYMid meet" overflow="visible" style="display: block;" viewBox="0 0 24 24" fill="none" xmlns="http://www.w3.org/2000/svg">
<g transform="translate(2.2500, 3.2500)">
<path id="Vector" fill-rule="evenodd" clip-rule="evenodd" d="M16.75 16C17.4404 16 18 15.4404 18 14.75L18 2.75C18 2.05964 17.4403 1.5 16.75 1.5H11.5V5.75C11.5 6.16421 11.1642 6.5 10.75 6.5C10.3358 6.5 9.99999 6.16421 9.99999 5.75V1.5H0.75C0.335787 1.5 0 1.16421 0 0.75C0 0.335787 0.335787 0 0.75 0H10.75H16.75C18.2687 0 19.4999 1.23121 19.5 2.74999L19.5 14.75C19.5 16.2688 18.2688 17.5 16.75 17.5H4.75C3.23122 17.5 2 16.2688 2 14.75V8.75C2 8.33579 2.33579 8 2.75 8C3.16421 8 3.5 8.33579 3.5 8.75V14.75C3.5 15.4404 4.05964 16 4.75 16H16.75ZM6.74999 5.5C7.16421 5.5 7.49999 5.16421 7.49999 4.75C7.49999 4.33579 7.16421 4 6.74999 4H1.74999C1.33578 4 0.999994 4.33579 0.999994 4.75C0.999994 5.16421 1.33578 5.5 1.74999 5.5H6.74999Z" fill="#292927"/>
</g>
</svg>
