<svg preserveAspectRatio="xMidYMid meet" overflow="visible" style="display: block;" viewBox="0 0 24 24" fill="none" xmlns="http://www.w3.org/2000/svg">
<g transform="translate(1.2500, 1.2500)">
<path id="Vector" fill-rule="evenodd" clip-rule="evenodd" d="M10.75 1.5C5.64137 1.5 1.5 5.64137 1.5 10.75C1.5 15.8586 5.64137 20 10.75 20C15.8586 20 20 15.8586 20 10.75C20 5.64137 15.8586 1.5 10.75 1.5ZM0 10.75C0 4.81294 4.81294 0 10.75 0C16.6871 0 21.5 4.81294 21.5 10.75C21.5 16.6871 16.6871 21.5 10.75 21.5C4.81294 21.5 0 16.6871 0 10.75ZM7.29998 6.15004C7.63135 5.90152 8.10145 5.96867 8.34998 6.30004L10.75 9.50007L13.15 6.30004C13.3985 5.96867 13.8686 5.90152 14.2 6.15004C14.5314 6.39857 14.5985 6.86867 14.35 7.20004L11.6875 10.7501L14.35 14.3C14.5985 14.6314 14.5314 15.1015 14.2 15.35C13.8686 15.5986 13.3985 15.5314 13.15 15.2L10.75 12.0001L8.35002 15.2C8.10149 15.5314 7.63139 15.5986 7.30002 15.35C6.96865 15.1015 6.90149 14.6314 7.15002 14.3L9.8125 10.7501L7.14998 7.20004C6.90145 6.86867 6.96861 6.39857 7.29998 6.15004Z" fill="#292927"/>
</g>
</svg>
