<svg preserveAspectRatio="xMidYMid meet" overflow="visible" style="display: block;" viewBox="0 0 24 24" fill="none" xmlns="http://www.w3.org/2000/svg">
<g transform="translate(1.2500, 2.2500)">
<path id="Vector" fill-rule="evenodd" clip-rule="evenodd" d="M2 1.35C2 0.604415 2.60442 0 3.35 0H18.15C18.8956 0 19.5 0.604415 19.5 1.35V3.75C19.5 4.16421 19.1642 4.5 18.75 4.5C18.3358 4.5 18 4.16421 18 3.75V1.5H3.5V3.75C3.5 4.16421 3.16421 4.5 2.75 4.5C2.33579 4.5 2 4.16421 2 3.75V1.35ZM0.745219 12C0.333203 12.0026 -3.39739e-06 12.3374 0 12.75C3.39754e-06 13.1642 0.335793 13.5 0.749999 13.5L0.751421 13.5L0.753028 13.5L0.756813 13.5L0.766629 13.4999L0.794957 13.4992C0.817567 13.4985 0.847615 13.4973 0.884058 13.4949C0.956702 13.4903 1.05614 13.4812 1.17376 13.4636C1.4052 13.4289 1.72646 13.358 2.05777 13.2089C2.39006 13.0594 2.75646 12.82 3.04017 12.437C3.33036 12.0453 3.5 11.5486 3.5 10.95V6.75098C3.5 6.33677 3.16421 6 2.75 6C2.33579 6 2 6.33579 2 6.75V10.95C2 11.2514 1.91964 11.4297 1.83483 11.5442C1.74354 11.6674 1.60994 11.7656 1.44223 11.8411C1.27354 11.917 1.0948 11.9586 0.951241 11.9802C0.881359 11.9907 0.824548 11.9957 0.787817 11.998C0.769573 11.9992 0.756652 11.9997 0.749965 11.9999L0.745219 12ZM0.749999 13.5C0.749833 13.5 0.749834 13.4986 0.749876 13.4062L0.75 12.75L0.749999 13.5ZM8.75 6C9.16421 6 9.5 6.33579 9.5 6.75V9.75C9.5 9.94891 9.42098 10.1397 9.28033 10.2803C9.13968 10.421 8.94891 10.5 8.75 10.5H6.5V12.75C6.5 13.1642 6.16421 13.5 5.75 13.5C5.33579 13.5 5 13.1642 5 12.75V6.75C5 6.55109 5.07902 6.36032 5.21967 6.21967C5.36032 6.07902 5.55109 6 5.75 6H8.75ZM6.5 9H8V7.5H6.5V9ZM11.2197 13.2803C11.079 13.1397 11 12.9489 11 12.75V9.75V6.75C11 6.33579 11.3358 6 11.75 6H14.75C15.1642 6 15.5 6.33579 15.5 6.75C15.5 7.16421 15.1642 7.5 14.75 7.5H12.5V9H13.75C14.1642 9 14.5 9.33579 14.5 9.75C14.5 10.1642 14.1642 10.5 13.75 10.5H12.5V12H14.75C15.1642 12 15.5 12.3358 15.5 12.75C15.5 13.1642 15.1642 13.5 14.75 13.5H11.75C11.5511 13.5 11.3603 13.421 11.2197 13.2803ZM17 12.75C17 12.9489 17.079 13.1397 17.2197 13.2803C17.3603 13.421 17.5511 13.5 17.75 13.5H20.75C21.1642 13.5 21.5 13.1642 21.5 12.75V10.35C21.5 9.93579 21.1642 9.6 20.75 9.6C20.3358 9.6 20 9.93579 20 10.35V12H18.5V7.5H20.75C21.1642 7.5 21.5 7.16421 21.5 6.75C21.5 6.33579 21.1642 6 20.75 6H17.75C17.3358 6 17 6.33579 17 6.75V12.75ZM3.35 19.5C2.60442 19.5 2 18.8956 2 18.15V15.75C2 15.3358 2.33579 15 2.75 15C3.16421 15 3.5 15.3358 3.5 15.75V18H18V15.75C18 15.3358 18.3358 15 18.75 15C19.1642 15 19.5 15.3358 19.5 15.75V18.15C19.5 18.8956 18.8956 19.5 18.15 19.5H3.35Z" fill="#292927"/>
</g>
</svg>
