<svg preserveAspectRatio="xMidYMid meet" overflow="visible" style="display: block;" viewBox="0 0 24 24" fill="none" xmlns="http://www.w3.org/2000/svg">
<g transform="translate(4.2500, 5.2500)">
<path id="Vector" fill-rule="evenodd" clip-rule="evenodd" d="M1.28033 0.21967C0.987437 -0.0732233 0.512563 -0.0732233 0.21967 0.21967C-0.0732233 0.512563 -0.0732233 0.987437 0.21967 1.28033L5.68934 6.75L0.21967 12.2197C-0.0732233 12.5126 -0.0732233 12.9874 0.21967 13.2803C0.512563 13.5732 0.987437 13.5732 1.28033 13.2803L7.28033 7.28033C7.57322 6.98744 7.57322 6.51256 7.28033 6.21967L1.28033 0.21967ZM9.28033 0.21967C8.98744 -0.0732233 8.51256 -0.0732233 8.21967 0.21967C7.92678 0.512563 7.92678 0.987437 8.21967 1.28033L13.6893 6.75L8.21967 12.2197C7.92678 12.5126 7.92678 12.9874 8.21967 13.2803C8.51256 13.5732 8.98744 13.5732 9.28033 13.2803L15.2803 7.28033C15.5732 6.98744 15.5732 6.51256 15.2803 6.21967L9.28033 0.21967Z" fill="#292927"/>
</g>
</svg>
