<svg preserveAspectRatio="xMidYMid meet" overflow="visible" style="display: block;" viewBox="0 0 24 24" fill="none" xmlns="http://www.w3.org/2000/svg">
<g transform="translate(3.2450, 3.2449)">
<path id="Vector" fill-rule="evenodd" clip-rule="evenodd" d="M0.75 0C0.335786 0 0 0.335786 0 0.75C0 1.16421 0.335786 1.5 0.75 1.5H16.75C17.1642 1.5 17.5 1.16421 17.5 0.75C17.5 0.335786 17.1642 0 16.75 0H0.75ZM1.26173 4.19156C1.56961 4.46865 1.59457 4.94287 1.31748 5.25075L1.30748 5.26186C1.03038 5.56975 0.556165 5.59471 0.248283 5.31761C-0.0595997 5.04052 -0.0845583 4.5663 0.192536 4.25842L0.202536 4.24731C0.479631 3.93942 0.953848 3.91447 1.26173 4.19156ZM1.31748 17.2508C1.59457 16.9429 1.56961 16.4687 1.26173 16.1916C0.953848 15.9145 0.479631 15.9394 0.202536 16.2473L0.192536 16.2584C-0.0845583 16.5663 -0.0595997 17.0405 0.248283 17.3176C0.556165 17.5947 1.03038 17.5697 1.30748 17.2619L1.31748 17.2508ZM5.26173 16.1916C5.56961 16.4687 5.59457 16.9429 5.31748 17.2508L5.30748 17.2619C5.03038 17.5697 4.55616 17.5947 4.24828 17.3176C3.9404 17.0405 3.91544 16.5663 4.19254 16.2584L4.20254 16.2473C4.47963 15.9394 4.95385 15.9145 5.26173 16.1916ZM9.31748 17.2508C9.59457 16.9429 9.56961 16.4687 9.26173 16.1916C8.95385 15.9145 8.47963 15.9394 8.20254 16.2473L8.19254 16.2584C7.91544 16.5663 7.9404 17.0405 8.24828 17.3176C8.55616 17.5947 9.03038 17.5697 9.30748 17.2619L9.31748 17.2508ZM13.2617 16.1916C13.5696 16.4687 13.5946 16.9429 13.3175 17.2508L13.3075 17.2619C13.0304 17.5697 12.5562 17.5947 12.2483 17.3176C11.9404 17.0405 11.9154 16.5663 12.1925 16.2584L12.2025 16.2473C12.4796 15.9394 12.9538 15.9145 13.2617 16.1916ZM17.2617 16.1916C17.5696 16.4687 17.5946 16.9429 17.3175 17.2508L17.3075 17.2619C17.0304 17.5697 16.5562 17.5947 16.2483 17.3176C15.9404 17.0405 15.9154 16.5663 16.1925 16.2584L16.2025 16.2473C16.4796 15.9394 16.9538 15.9145 17.2617 16.1916ZM1.31748 9.25075C1.59457 8.94287 1.56961 8.46865 1.26173 8.19156C0.953848 7.91446 0.479631 7.93942 0.202536 8.24731L0.192536 8.25842C-0.0845583 8.5663 -0.0595997 9.04052 0.248283 9.31761C0.556165 9.59471 1.03038 9.56975 1.30748 9.26186L1.31748 9.25075ZM9.26173 8.19156C9.56961 8.46865 9.59457 8.94287 9.31748 9.25075L9.30748 9.26186C9.03038 9.56975 8.55616 9.59471 8.24828 9.31761C7.9404 9.04052 7.91544 8.5663 8.19254 8.25842L8.20254 8.24731C8.47963 7.93942 8.95385 7.91446 9.26173 8.19156ZM1.31748 13.2508C1.59457 12.9429 1.56961 12.4687 1.26173 12.1916C0.953848 11.9145 0.479631 11.9394 0.202536 12.2473L0.192536 12.2584C-0.0845583 12.5663 -0.0595997 13.0405 0.248283 13.3176C0.556165 13.5947 1.03038 13.5697 1.30748 13.2619L1.31748 13.2508ZM17.2617 4.19156C17.5696 4.46865 17.5946 4.94287 17.3175 5.25075L17.3075 5.26186C17.0304 5.56975 16.5562 5.59471 16.2483 5.31761C15.9404 5.04052 15.9154 4.5663 16.1925 4.25842L16.2025 4.24731C16.4796 3.93942 16.9538 3.91447 17.2617 4.19156ZM17.3175 9.25075C17.5946 8.94287 17.5696 8.46865 17.2617 8.19156C16.9538 7.91446 16.4796 7.93942 16.2025 8.24731L16.1925 8.25842C15.9154 8.5663 15.9404 9.04052 16.2483 9.31761C16.5562 9.59471 17.0304 9.56975 17.3075 9.26186L17.3175 9.25075ZM17.2617 12.1916C17.5696 12.4687 17.5946 12.9429 17.3175 13.2508L17.3075 13.2619C17.0304 13.5697 16.5562 13.5947 16.2483 13.3176C15.9404 13.0405 15.9154 12.5663 16.1925 12.2584L16.2025 12.2473C16.4796 11.9394 16.9538 11.9145 17.2617 12.1916Z" fill="#292927"/>
</g>
</svg>
