<svg preserveAspectRatio="xMidYMid meet" overflow="visible" style="display: block;" viewBox="0 0 24 24" fill="none" xmlns="http://www.w3.org/2000/svg">
<g transform="translate(0.7539, 1.2500)">
<path id="Vector" fill-rule="evenodd" clip-rule="evenodd" d="M18.7422 0C19.1564 0 19.4922 0.335786 19.4922 0.75V3H21.7422C22.1564 3 22.4922 3.33579 22.4922 3.75C22.4922 4.16421 22.1564 4.5 21.7422 4.5H19.4922V6.75C19.4922 7.16421 19.1564 7.5 18.7422 7.5C18.328 7.5 17.9922 7.16421 17.9922 6.75V4.5H15.7422C15.328 4.5 14.9922 4.16421 14.9922 3.75C14.9922 3.33579 15.328 3 15.7422 3H17.9922V0.75C17.9922 0.335786 18.328 0 18.7422 0ZM7.75 3.5C6.50736 3.5 5.5 4.50736 5.5 5.75V12H16.75C17.1642 12 17.5 12.3358 17.5 12.75C17.5 13.1642 17.1642 13.5 16.75 13.5C14.9551 13.5 13.5 14.9551 13.5 16.75C13.5 18.5449 14.9551 20 16.75 20C18.5449 20 20 18.5449 20 16.75V13.75V8.25C20 7.83579 20.3358 7.5 20.75 7.5C21.1642 7.5 21.5 7.83579 21.5 8.25V13.75V16.75C21.5 19.3734 19.3734 21.5 16.75 21.5C14.1266 21.5 12 19.3734 12 16.75C12 15.4928 12.4884 14.3497 13.2859 13.5H4.75C2.95507 13.5 1.5 14.9551 1.5 16.75C1.5 18.5449 2.95507 20 4.75 20H10.75C11.1642 20 11.5 20.3358 11.5 20.75C11.5 21.1642 11.1642 21.5 10.75 21.5H4.75C2.12665 21.5 0 19.3734 0 16.75C0 14.3818 1.73301 12.4185 4 12.0589V5.75C4 3.67893 5.67893 2 7.75 2H12.75C13.1642 2 13.5 2.33579 13.5 2.75C13.5 3.16421 13.1642 3.5 12.75 3.5H7.75Z" fill="#292927"/>
</g>
</svg>
