<svg preserveAspectRatio="xMidYMid meet" overflow="visible" style="display: block;" viewBox="0 0 24 24" fill="none" xmlns="http://www.w3.org/2000/svg">
<g transform="translate(1.2500, 1.2500)">
<path id="Vector" fill-rule="evenodd" clip-rule="evenodd" d="M9.99995 3.25C9.99995 2.2835 9.21645 1.5 8.24995 1.5C7.28345 1.5 6.49995 2.2835 6.49995 3.25C6.49995 3.51809 6.55972 3.77014 6.66596 3.99535C6.84268 4.36997 6.68225 4.81692 6.30763 4.99364C6.09875 5.09217 5.8674 5.08589 5.67293 4.99612C5.54189 4.98267 5.4127 4.93452 5.29971 4.84962C5.00727 4.6299 4.64487 4.5 4.24997 4.5C3.28347 4.5 2.49997 5.2835 2.49997 6.25C2.49997 6.61061 2.60823 6.94365 2.79389 7.22121C2.94292 7.44401 2.95681 7.71769 2.85476 7.9455C2.81423 8.07371 2.73874 8.19261 2.62941 8.28685C1.93665 8.88398 1.5 9.76548 1.5 10.7498C1.5 11.8312 2.02809 12.7902 2.84242 13.3815C3.53006 12.5384 4.57712 12 5.74993 12C6.16414 12 6.49993 12.3358 6.49993 12.75C6.49993 13.1642 6.16414 13.5 5.74993 13.5C4.50729 13.5 3.49993 14.5074 3.49993 15.75C3.49993 16.9926 4.50729 18 5.74993 18C6.01425 18 6.26637 17.9547 6.5 17.8722C6.89053 17.7341 7.31903 17.9388 7.45706 18.3294C7.49641 18.4407 7.50791 18.5551 7.49519 18.665C7.49833 18.6929 7.49995 18.7213 7.49995 18.75C7.49995 19.4404 8.0596 20 8.74995 20C9.44031 20 9.99995 19.4404 9.99995 18.75C9.99995 18.3876 10.257 18.0852 10.5988 18.0152C10.6476 18.0052 10.6982 18 10.75 18H10.75L10.7596 18.0001C10.808 18.0007 10.8553 18.0059 10.9011 18.0152C11.2429 18.0851 11.5 18.3875 11.5 18.75C11.5 19.4404 12.0597 20 12.75 20C13.4404 20 14 19.4404 14 18.75C14 18.7214 14.0016 18.6931 14.0047 18.6653C13.992 18.5553 14.0035 18.4408 14.0428 18.3294C14.1809 17.9388 14.6094 17.7341 14.9999 17.8722C15.2335 17.9547 15.4857 18 15.75 18C16.9926 18 18 16.9926 18 15.75C18 14.5074 16.9926 13.5 15.75 13.5C15.3358 13.5 15 13.1642 15 12.75C15 12.3358 15.3358 12 15.75 12C16.9228 12 17.9699 12.5384 18.6575 13.3815C19.4719 12.7902 20 11.8312 20 10.7498C20 9.76548 19.5633 8.88398 18.8706 8.28685C18.7612 8.19261 18.6857 8.07371 18.6452 7.9455C18.5432 7.71768 18.557 7.44401 18.7061 7.22121C18.8917 6.94365 19 6.61061 19 6.25C19 5.2835 18.2165 4.5 17.25 4.5C16.8551 4.5 16.4927 4.6299 16.2003 4.84962C16.0873 4.93452 15.9581 4.98267 15.827 4.99612C15.6326 5.08589 15.4012 5.09217 15.1923 4.99364C14.8177 4.81692 14.6573 4.36997 14.834 3.99535C14.9402 3.77014 15 3.51809 15 3.25C15 2.2835 14.2165 1.5 13.25 1.5C12.2835 1.5 11.5 2.2835 11.5 3.25C11.5 3.63347 11.2122 3.94971 10.8409 3.99455C10.8142 3.99777 10.7871 3.99959 10.7596 3.99994L10.75 4H10.75C10.3357 4 9.99995 3.66421 9.99995 3.25ZM15.401 19.4839C15.516 19.4946 15.6324 19.5 15.75 19.5C17.821 19.5 19.5 17.8211 19.5 15.75C19.5 15.3931 19.4501 15.0479 19.357 14.7209C20.6468 13.8724 21.5 12.4113 21.5 10.7498C21.5 9.50584 21.0211 8.37311 20.2393 7.52693C20.4071 7.13453 20.5 6.70259 20.5 6.25C20.5 4.45507 19.0449 3 17.25 3C16.9907 3 16.7382 3.03049 16.496 3.08806C16.4117 1.36837 14.9906 0 13.25 0C12.2448 0 11.3461 0.456383 10.75 1.17325C10.1538 0.456383 9.25519 0 8.24995 0C6.50933 0 5.0883 1.36837 5.00392 3.08806C4.7618 3.03049 4.50931 3 4.24997 3C2.45504 3 0.99997 4.45507 0.99997 6.25C0.99997 6.70259 1.09285 7.13453 1.26064 7.52693C0.478868 8.37311 0 9.50584 0 10.7498C0 12.4113 0.853118 13.8724 2.14291 14.7209C2.04979 15.0479 1.99993 15.3931 1.99993 15.75C1.99993 17.8211 3.67886 19.5 5.74993 19.5C5.86752 19.5 5.98395 19.4946 6.09898 19.4839C6.4201 20.6464 7.48534 21.5 8.74995 21.5C9.53798 21.5 10.2486 21.1685 10.75 20.6374C11.2514 21.1685 11.962 21.5 12.75 21.5C14.0146 21.5 15.0799 20.6464 15.401 19.4839ZM10.75 6C11.1642 6 11.5 6.33579 11.5 6.75V10.75C11.5 11.1642 11.1642 11.5 10.75 11.5C10.3357 11.5 9.99995 11.1642 9.99995 10.75V6.75C9.99995 6.33579 10.3357 6 10.75 6ZM11.3174 15.2508C11.5945 14.9429 11.5696 14.4687 11.2617 14.1916C10.9538 13.9145 10.4796 13.9394 10.2025 14.2473L10.1925 14.2584C9.91539 14.5663 9.94035 15.0405 10.2482 15.3176C10.5561 15.5947 11.0303 15.5697 11.3074 15.2619L11.3174 15.2508Z" fill="#292927"/>
</g>
</svg>
