<svg preserveAspectRatio="xMidYMid meet" overflow="visible" style="display: block;" viewBox="0 0 24 24" fill="none" xmlns="http://www.w3.org/2000/svg">
<g transform="translate(1.2500, 1.7500)">
<path id="Vector" fill-rule="evenodd" clip-rule="evenodd" d="M2.75 1.5C2.05964 1.5 1.5 2.05964 1.5 2.75V4H20V2.75C20 2.05964 19.4404 1.5 18.75 1.5H2.75ZM0 2.75V4.75V16.75C0 18.2688 1.23122 19.5 2.75 19.5H7.75C8.16421 19.5 8.5 19.1642 8.5 18.75C8.5 18.3358 8.16421 18 7.75 18H2.75C2.05964 18 1.5 17.4404 1.5 16.75V5.5H20V8.75C20 9.16421 20.3358 9.5 20.75 9.5C21.1642 9.5 21.5 9.16421 21.5 8.75V4.75V2.75C21.5 1.23122 20.2688 0 18.75 0H2.75C1.23122 0 0 1.23122 0 2.75ZM15.75 10.5C14.8537 10.5 14.029 10.7359 13.3504 11.1321C12.9927 11.341 12.5334 11.2203 12.3245 10.8626C12.1157 10.5049 12.2363 10.0456 12.594 9.83679C13.5044 9.30519 14.5906 9 15.75 9C18.3047 9 20.5488 10.4945 21.2666 12.6645C21.3967 13.0577 21.1834 13.482 20.7901 13.6121C20.3969 13.7421 19.9726 13.5288 19.8425 13.1355C19.3566 11.6667 17.7543 10.5 15.75 10.5ZM11.3162 11.9626C11.7001 12.1181 11.8852 12.5554 11.7296 12.9393C11.5805 13.3074 11.5 13.7013 11.5 14.1115V18.75C11.5 19.1642 11.1642 19.5 10.75 19.5C10.3358 19.5 10 19.1642 10 18.75V14.1115C10 13.5022 10.12 12.9174 10.3394 12.376C10.495 11.9921 10.9323 11.807 11.3162 11.9626ZM20.75 14.8154C21.1642 14.8154 21.5 15.1512 21.5 15.5654V18.75C21.5 19.1642 21.1642 19.5 20.75 19.5C20.3358 19.5 20 19.1642 20 18.75V15.5654C20 15.1512 20.3358 14.8154 20.75 14.8154ZM14.5 14.6029C14.5 14.0467 15.0047 13.5 15.75 13.5C16.4953 13.5 17 14.0467 17 14.6029V19.75C17 20.1642 17.3358 20.5 17.75 20.5C18.1642 20.5 18.5 20.1642 18.5 19.75V14.6029C18.5 13.1125 17.2138 12 15.75 12C14.2862 12 13 13.1125 13 14.6029V15.3971C13 15.8113 13.3358 16.1471 13.75 16.1471C14.1642 16.1471 14.5 15.8113 14.5 15.3971V14.6029ZM14.5 17.5735C14.5 17.1593 14.1642 16.8235 13.75 16.8235C13.3358 16.8235 13 17.1593 13 17.5735V19.75C13 20.1642 13.3358 20.5 13.75 20.5C14.1642 20.5 14.5 20.1642 14.5 19.75V17.5735ZM4.31747 3.24978C4.59457 2.9419 4.56961 2.46768 4.26172 2.19058C3.95384 1.91349 3.47962 1.93845 3.20253 2.24633L3.19253 2.25744C2.91544 2.56532 2.94039 3.03954 3.24828 3.31663C3.55616 3.59373 4.03038 3.56877 4.30747 3.26089L4.31747 3.24978ZM7.26172 2.19058C7.56961 2.46768 7.59457 2.9419 7.31747 3.24978L7.30747 3.26089C7.03038 3.56877 6.55616 3.59373 6.24828 3.31663C5.94039 3.03954 5.91544 2.56532 6.19253 2.25744L6.20253 2.24633C6.47962 1.93845 6.95384 1.91349 7.26172 2.19058ZM10.3175 3.24978C10.5946 2.9419 10.5696 2.46768 10.2617 2.19058C9.95384 1.91349 9.47962 1.93845 9.20253 2.24633L9.19253 2.25744C8.91543 2.56532 8.94039 3.03954 9.24827 3.31663C9.55616 3.59373 10.0304 3.56877 10.3075 3.26089L10.3175 3.24978Z" fill="#292927"/>
</g>
</svg>
