<svg preserveAspectRatio="xMidYMid meet" overflow="visible" style="display: block;" viewBox="0 0 24 24" fill="none" xmlns="http://www.w3.org/2000/svg">
<g transform="translate(2.2498, 1.2500)">
<path id="Vector" fill-rule="evenodd" clip-rule="evenodd" d="M9.75019 0C10.1644 0 10.5002 0.335786 10.5002 0.75V2.64223L11.9716 2.05364C12.3562 1.89981 12.7927 2.08687 12.9466 2.47146C13.1004 2.85604 12.9133 3.29252 12.5287 3.44636L10.5002 4.25777V9.48659L14.5609 7.27166L15.0077 4.14393C15.0663 3.73388 15.4462 3.44896 15.8563 3.50754C16.2663 3.56612 16.5512 3.94602 16.4927 4.35607L16.2095 6.338L18.3781 5.09882C18.7377 4.89331 19.1959 5.01826 19.4014 5.3779C19.6069 5.73753 19.4819 6.19567 19.1223 6.40118L17.168 7.51793L18.9562 8.02886C19.3545 8.14265 19.5851 8.55776 19.4713 8.95604C19.3575 9.35432 18.9424 9.58494 18.5442 9.47114L15.3396 8.55555L11.3164 10.75L15.3396 12.9444L18.5442 12.0289C18.9424 11.9151 19.3575 12.1457 19.4713 12.544C19.5851 12.9422 19.3545 13.3573 18.9562 13.4711L17.168 13.9821L19.1223 15.0988C19.4819 15.3043 19.6069 15.7625 19.4014 16.1221C19.1959 16.4817 18.7377 16.6067 18.3781 16.4012L16.2095 15.162L16.4927 17.1439C16.5512 17.554 16.2663 17.9339 15.8563 17.9925C15.4462 18.051 15.0663 17.7661 15.0077 17.3561L14.5609 14.2283L10.5002 12.0134V16.8254L12.6361 18.1069C12.9913 18.32 13.1064 18.7807 12.8933 19.1359C12.6802 19.4911 12.2195 19.6062 11.8643 19.3931L10.5002 18.5746V20.75C10.5002 21.1642 10.1644 21.5 9.75019 21.5C9.33598 21.5 9.00019 21.1642 9.00019 20.75V18.5746L7.63607 19.3931C7.28088 19.6062 6.82018 19.4911 6.60707 19.1359C6.39396 18.7807 6.50914 18.32 6.86432 18.1069L9.00019 16.8254V12.0134L4.93947 14.2283L4.49266 17.3561C4.43408 17.7661 4.05418 18.051 3.64413 17.9925C3.23408 17.9339 2.94915 17.554 3.00773 17.1439L3.29086 15.162L1.1223 16.4012C0.762659 16.6067 0.304518 16.4817 0.0990107 16.1221C-0.106497 15.7625 0.0184508 15.3043 0.378089 15.0988L2.3324 13.9821L0.544152 13.4711C0.145876 13.3573 -0.0847431 12.9422 0.0290502 12.544C0.142843 12.1457 0.557958 11.9151 0.956234 12.0289L4.1608 12.9444L8.18395 10.75L4.1608 8.55555L0.956234 9.47114C0.557958 9.58494 0.142843 9.35432 0.0290502 8.95604C-0.0847431 8.55776 0.145876 8.14265 0.544152 8.02886L2.3324 7.51793L0.378089 6.40118C0.0184508 6.19567 -0.106497 5.73753 0.0990107 5.3779C0.304518 5.01826 0.762659 4.89331 1.1223 5.09882L3.29086 6.338L3.00773 4.35607C2.94915 3.94602 3.23408 3.56612 3.64413 3.50754C4.05418 3.44896 4.43408 3.73388 4.49266 4.14393L4.93947 7.27166L9.00019 9.48659V4.25777L6.97165 3.44636C6.58706 3.29252 6.4 2.85604 6.55384 2.47146C6.70767 2.08687 7.14415 1.89981 7.52874 2.05364L9.00019 2.64223V0.75C9.00019 0.335786 9.33598 0 9.75019 0Z" fill="#292927"/>
</g>
</svg>
