<svg preserveAspectRatio="xMidYMid meet" overflow="visible" style="display: block;" viewBox="0 0 24 24" fill="none" xmlns="http://www.w3.org/2000/svg">
<g transform="translate(0.7500, 1.2500)">
<path id="Vector" fill-rule="evenodd" clip-rule="evenodd" d="M1.5 10.75C1.5 5.64137 5.64137 1.5 10.75 1.5C12.0669 1.5 13.3177 1.77475 14.4497 2.26935C14.8293 2.43519 15.2714 2.26193 15.4373 1.88237C15.6031 1.5028 15.4298 1.06066 15.0503 0.894823C13.7324 0.319036 12.2775 0 10.75 0C4.81294 0 0 4.81294 0 10.75C0 16.6871 4.81294 21.5 10.75 21.5C16.3247 21.5 20.9075 17.2572 21.447 11.8241C21.4879 11.4119 21.1869 11.0446 20.7747 11.0037C20.3625 10.9627 19.9952 11.2637 19.9543 11.6759C19.4903 16.3494 15.546 20 10.75 20C5.64137 20 1.5 15.8586 1.5 10.75ZM21.75 2.5H20.3V6.85C20.3 7.76127 19.5613 8.5 18.65 8.5C17.7387 8.5 17 7.76127 17 6.85C17 5.93873 17.7387 5.2 18.65 5.2C18.7006 5.2 18.7506 5.20228 18.8 5.20673V2.35C18.8 1.60441 19.4044 1 20.15 1H21.75C22.1642 1 22.5 1.33579 22.5 1.75C22.5 2.16421 22.1642 2.5 21.75 2.5ZM14.75 12.5C15.4404 12.5 16 13.0596 16 13.75C16 14.4404 15.4404 15 14.75 15C14.0596 15 13.5 14.4404 13.5 13.75C13.5 13.0596 14.0596 12.5 14.75 12.5ZM17.5 13.75C17.5 12.2312 16.2688 11 14.75 11C13.2312 11 12 12.2312 12 13.75C12 15.2688 13.2312 16.5 14.75 16.5C16.2688 16.5 17.5 15.2688 17.5 13.75ZM7.25 6C7.94036 6 8.5 6.55964 8.5 7.25C8.5 7.94036 7.94036 8.5 7.25 8.5C6.55964 8.5 6 7.94036 6 7.25C6 6.55964 6.55964 6 7.25 6ZM14.25 6C14.9404 6 15.5 6.55964 15.5 7.25C15.5 7.94036 14.9404 8.5 14.25 8.5C13.5596 8.5 13 7.94036 13 7.25C13 6.55964 13.5596 6 14.25 6Z" fill="#292927"/>
</g>
</svg>
