<svg preserveAspectRatio="xMidYMid meet" overflow="visible" style="display: block;" viewBox="0 0 24 24" fill="none" xmlns="http://www.w3.org/2000/svg">
<g transform="translate(1.1508, 3.2500)">
<path id="Vector" fill-rule="evenodd" clip-rule="evenodd" d="M3.77197 6.56116C4.70008 3.62691 7.44451 1.5 10.6857 1.5C14.6898 1.5 17.9357 4.74594 17.9357 8.75C17.9357 10.3155 17.4395 11.7651 16.5958 12.9501C14.7048 12.4963 12.3384 11.6199 9.86011 10.3843C7.38993 9.15267 5.27167 7.79509 3.77197 6.56116ZM2.57281 5.46611C2.84758 4.78795 3.20491 4.15206 3.63235 3.57093C3.1262 3.50382 2.6913 3.48304 2.33625 3.50564C1.63471 3.5503 1.51319 3.73952 1.51056 3.74479C1.50953 3.74684 1.43482 3.92723 1.75086 4.44477C1.93336 4.74361 2.20767 5.08736 2.57281 5.46611ZM4.82439 2.25317C3.84827 2.054 2.96654 1.96248 2.24095 2.00867C1.45203 2.0589 0.55744 2.29471 0.168157 3.07549C-0.196312 3.8065 0.0903955 4.60379 0.470686 5.22653C0.832889 5.81966 1.39502 6.45087 2.09288 7.0904C1.98972 7.62775 1.9357 8.18256 1.9357 8.75C1.9357 13.5825 5.85321 17.5 10.6857 17.5C13.2649 17.5 15.5834 16.3841 17.1848 14.6088C18.1077 14.7786 18.9432 14.8462 19.63 14.779C20.3562 14.7079 21.1654 14.4571 21.5299 13.7261C21.9201 12.9435 21.5677 12.0851 21.131 11.4234C20.7344 10.8225 20.1383 10.1805 19.4016 9.52773C19.4242 9.2715 19.4357 9.0121 19.4357 8.75C19.4357 3.91751 15.5182 0 10.6857 0C8.43114 0 6.37574 0.852692 4.82439 2.25317ZM19.066 11.2745C18.856 11.9727 18.5611 12.6341 18.1934 13.2467C18.7069 13.3083 19.1398 13.3198 19.4839 13.2861C20.0874 13.2271 20.1865 13.0588 20.1875 13.0568C20.1902 13.0514 20.2683 12.8393 19.8791 12.2497C19.6866 11.958 19.4147 11.6302 19.066 11.2745ZM15.4615 14.2049C14.1859 15.3226 12.5149 16 10.6857 16C6.68164 16 3.4357 12.7541 3.4357 8.75C3.4357 8.57275 3.44207 8.39699 3.45457 8.22293C4.99199 9.3974 6.96839 10.6186 9.19082 11.7267C11.4213 12.8388 13.5937 13.6843 15.4615 14.2049Z" fill="#292927"/>
</g>
</svg>
