<svg preserveAspectRatio="xMidYMid meet" overflow="visible" style="display: block;" viewBox="0 0 24 24" fill="none" xmlns="http://www.w3.org/2000/svg">
<g transform="translate(4.0480, 1.2500)">
<path id="Vector" fill-rule="evenodd" clip-rule="evenodd" d="M3.90411 2.25C3.90411 1.83579 4.2399 1.5 4.65411 1.5C5.06899 1.5 5.40411 1.83543 5.40411 2.24899V6.25042V8.74998V8.7504C5.40411 9.16462 5.7399 9.50042 6.15411 9.50042C6.56833 9.50042 6.90411 9.16386 6.90411 8.74965V8.74923V6.25042C6.90411 5.85012 7.03127 5.61893 7.15735 5.49084C7.28962 5.35648 7.46836 5.28613 7.65411 5.28613C7.83987 5.28613 8.01861 5.35648 8.15087 5.49084C8.27696 5.61893 8.40411 5.85035 8.40411 6.25065V7.03557V8.74985V8.75041C8.40411 9.16462 8.7399 9.50042 9.15411 9.50042C9.56833 9.50042 9.90411 9.1637 9.90411 8.74948V8.74893V7.03557C9.90411 6.63528 10.0313 6.40409 10.1574 6.276C10.2896 6.14164 10.4684 6.07129 10.6541 6.07129C10.8399 6.07129 11.0186 6.14164 11.1509 6.276C11.277 6.40409 11.4041 6.63528 11.4041 7.03557V8.17815V8.74958V8.74986C11.4041 9.16407 11.7399 9.49986 12.1541 9.49986C12.5683 9.49986 12.9041 9.1633 12.9041 8.74908V8.74881V8.17815C12.9041 7.77786 13.0313 7.54666 13.1574 7.41858C13.2896 7.28421 13.4684 7.21387 13.6541 7.21387C13.8399 7.21387 14.0186 7.28421 14.1509 7.41858C14.2766 7.5463 14.4034 7.77655 14.4041 8.17474L14.4041 8.17871V16.7501C14.4041 18.3855 13.092 20.0001 11.1541 20.0001H6.53297C6.18296 20.0001 5.84948 19.8534 5.61246 19.5948L1.82857 15.4669C1.42211 15.0235 1.3891 14.3535 1.75001 13.8723L2.40411 13.0001V13.75C2.40411 14.1642 2.7399 14.5 3.15411 14.5C3.56833 14.5 3.90411 14.1642 3.90411 13.75V10.7576C3.90416 10.753 3.90415 10.7484 3.90411 10.7439V2.25ZM2.40411 10.5001V2.25C2.40411 1.00736 3.41147 0 4.65411 0C5.8961 0 6.90411 1.00569 6.90411 2.24899V3.91664C7.14662 3.82945 7.40107 3.78613 7.65411 3.78613C8.21836 3.78613 8.78962 4.0015 9.21985 4.43857C9.34584 4.56655 9.45611 4.70975 9.54924 4.86659C9.89052 4.66908 10.2739 4.57129 10.6541 4.57129C11.2184 4.57129 11.7896 4.78666 12.2199 5.22372C12.4178 5.42482 12.577 5.66349 12.6918 5.93358C12.9955 5.78669 13.326 5.71387 13.6541 5.71387C14.2184 5.71387 14.7896 5.92923 15.2199 6.3663C15.6563 6.80964 15.9041 7.43559 15.9041 8.17815L15.9041 8.18268V16.7501C15.9041 19.1147 14.0162 21.5001 11.1541 21.5001H6.53297C5.76176 21.5001 5.02736 21.1763 4.50673 20.6084L0.722839 16.4805C-0.171376 15.505 -0.243993 14.0309 0.550012 12.9723L2.40411 10.5001Z" fill="#292927"/>
</g>
</svg>
