<svg preserveAspectRatio="xMidYMid meet" overflow="visible" style="display: block;" viewBox="0 0 24 24" fill="none" xmlns="http://www.w3.org/2000/svg">
<g transform="translate(2.2500, 2.2500)">
<path id="Vector" fill-rule="evenodd" clip-rule="evenodd" d="M18 1.5V18H1.5V1.5H18ZM18.15 19.5C18.8956 19.5 19.5 18.8956 19.5 18.15V1.35C19.5 0.604418 18.8956 0 18.15 0H1.35C0.604418 0 0 0.604414 0 1.35V18.15C0 18.8956 0.604414 19.5 1.35 19.5H18.15ZM5.17429 10.2302C6.00294 11.2246 6.18938 12.1468 6.09796 12.966C6.00278 13.819 5.59777 14.6267 5.12631 15.3342C4.89662 15.6789 4.98985 16.1445 5.33455 16.3742C5.67924 16.6039 6.14488 16.5107 6.37457 16.166C6.90265 15.3735 7.45506 14.33 7.58871 13.1324C7.72611 11.901 7.41278 10.5733 6.32659 9.26993C5.49788 8.27553 5.3113 7.35324 5.40263 6.53405C5.49772 5.68119 5.9027 4.87354 6.37441 4.1662C6.60423 3.82159 6.51117 3.35592 6.16656 3.12611C5.82195 2.89629 5.35628 2.98935 5.12647 3.33396C4.59785 4.12662 4.04541 5.17013 3.91187 6.36784C3.77458 7.59923 4.08816 8.92695 5.17429 10.2302ZM14.098 12.966C14.1895 12.1468 14.003 11.2246 13.1744 10.2302C12.0882 8.92695 11.7747 7.59923 11.9119 6.36784C12.0455 5.17013 12.5979 4.12662 13.1265 3.33396C13.3564 2.98935 13.822 2.89629 14.1666 3.12611C14.5112 3.35592 14.6043 3.82159 14.3745 4.1662C13.9028 4.87354 13.4978 5.68119 13.4027 6.53405C13.3114 7.35324 13.498 8.27553 14.3267 9.26993C15.4129 10.5733 15.7262 11.901 15.5888 13.1324C15.4551 14.33 14.9027 15.3735 14.3746 16.166C14.145 16.5107 13.6793 16.6039 13.3346 16.3742C12.9899 16.1445 12.8967 15.6789 13.1264 15.3342C13.5978 14.6267 14.0029 13.819 14.098 12.966ZM9.17436 10.2302C10.003 11.2246 10.1895 12.1468 10.098 12.966C10.0029 13.819 9.59784 14.6267 9.12639 15.3342C8.8967 15.6789 8.98993 16.1445 9.33462 16.3742C9.67932 16.6039 10.145 16.5107 10.3746 16.166C10.9027 15.3735 11.4551 14.33 11.5888 13.1324C11.7262 11.901 11.4129 10.5733 10.3267 9.26993C9.49796 8.27553 9.31138 7.35324 9.40271 6.53405C9.4978 5.68119 9.90277 4.87354 10.3745 4.1662C10.6043 3.82159 10.5112 3.35592 10.1666 3.12611C9.82203 2.89629 9.35636 2.98935 9.12654 3.33396C8.59793 4.12662 8.04548 5.17013 7.91195 6.36784C7.77466 7.59923 8.08824 8.92695 9.17436 10.2302Z" fill="#292927"/>
</g>
</svg>
