<svg preserveAspectRatio="xMidYMid meet" overflow="visible" style="display: block;" viewBox="0 0 24 24" fill="none" xmlns="http://www.w3.org/2000/svg">
<g transform="translate(2.2500, 2.5886)">
<path id="Vector" fill-rule="evenodd" clip-rule="evenodd" d="M12.2119 0.687809C10.6987 -0.229271 8.80125 -0.229269 7.28807 0.687811L2.28806 3.71812C0.867602 4.579 0 6.11933 0 7.7803V14.0727C0 16.6961 2.12665 18.8227 4.75 18.8227H14.75C17.3734 18.8227 19.5 16.6961 19.5 14.0727V7.78031C19.5 6.11933 18.6324 4.579 17.2119 3.71811L12.2119 0.687809ZM8.06552 1.97061C9.10086 1.34313 10.3991 1.34313 11.4345 1.97061L16.4345 5.00091C17.4064 5.58994 18 6.64385 18 7.78031V14.0727C18 15.8676 16.5449 17.3227 14.75 17.3227H4.75C2.95508 17.3227 1.5 15.8676 1.5 14.0727V7.7803C1.5 6.64385 2.09362 5.58994 3.06552 5.00091L8.06552 1.97061ZM12.75 14.8223C13.1642 14.8223 13.5 14.4865 13.5 14.0723C13.5 13.6581 13.1642 13.3223 12.75 13.3223H6.75C6.33579 13.3223 6 13.6581 6 14.0723C6 14.4865 6.33579 14.8223 6.75 14.8223H12.75Z" fill="#292927"/>
</g>
</svg>
