<svg preserveAspectRatio="xMidYMid meet" overflow="visible" style="display: block;" viewBox="0 0 24 24" fill="none" xmlns="http://www.w3.org/2000/svg">
<g transform="translate(3.5224, 2.2147)">
<path id="Vector" fill-rule="evenodd" clip-rule="evenodd" d="M8.4776 0.75L8.92549 0.148424C8.92532 0.148295 8.92549 0.148424 8.4776 0.75ZM8.02971 0.148424L8.02771 0.149918L8.02389 0.152777L8.01092 0.162548L7.96445 0.197995C7.92466 0.228576 7.8676 0.272933 7.79573 0.330121C7.65208 0.444445 7.44888 0.610356 7.20595 0.820294C6.72118 1.23923 6.07273 1.83817 5.42184 2.55643C4.15968 3.94925 2.7276 5.96316 2.7276 8.0625C2.7276 9.97809 3.21974 11.5975 4.23085 12.7476C4.7901 13.3838 5.48337 13.8481 6.2834 14.1384C6.83484 14.3711 7.47365 14.4642 8.10909 14.4911C8.23047 14.497 8.35333 14.5 8.4776 14.5L8.49679 14.5L8.55343 14.5001C9.14482 14.5001 9.71407 14.4343 10.2214 14.2804C11.2132 14.0126 12.0626 13.5004 12.7243 12.7476C13.7355 11.5975 14.2276 9.97809 14.2276 8.0625C14.2276 5.96316 12.7955 3.94925 11.5334 2.55643C10.8825 1.83817 10.234 1.23923 9.74925 0.820294C9.50632 0.610356 9.30312 0.444445 9.15947 0.330121C9.0876 0.272933 9.03054 0.228576 8.99075 0.197995L8.94428 0.162548L8.93131 0.152777L8.92749 0.149918L8.92549 0.148424M8.92549 0.148424C8.65969 -0.0494747 8.29551 -0.0494747 8.02971 0.148424ZM8.02971 0.148424L8.4776 0.75ZM6.83477 12.7427C7.22396 12.8796 7.65991 12.9645 8.1442 12.991C8.25767 12.9963 8.37601 12.9993 8.49916 13C8.99213 12.9983 9.43865 12.9396 9.84022 12.83C10.2954 12.6777 10.5275 12.4422 10.6308 12.2029C10.7996 11.8117 10.7854 11.1027 10.267 9.97191C9.79654 10.3267 9.30639 10.5268 8.79915 10.4815C7.95025 10.4058 7.50089 9.70334 7.28064 9.15437C7.20507 8.966 7.14304 8.76527 7.09278 8.55889C6.57145 9.63208 6.2276 10.6588 6.2276 11.7501C6.2276 12.0435 6.2894 12.2325 6.36473 12.3598C6.43958 12.4862 6.55457 12.5971 6.73319 12.693C6.76548 12.7103 6.79934 12.7269 6.83477 12.7427ZM11.1255 8.37542C11.6457 9.27743 12.0067 10.1344 12.154 10.9174C12.5183 10.1799 12.7276 9.23069 12.7276 8.0625C12.7276 6.57199 11.6597 4.92965 10.4218 3.56368C9.82273 2.90255 9.22118 2.34646 8.76845 1.95522C8.66236 1.86353 8.56475 1.78116 8.4776 1.70888C8.39045 1.78116 8.29284 1.86353 8.18675 1.95522C7.73402 2.34646 7.13247 2.90255 6.53336 3.56368C5.29552 4.92965 4.2276 6.57199 4.2276 8.0625C4.2276 9.21259 4.43046 10.1504 4.78434 10.8829C5.02674 9.01256 6.00514 7.32475 6.9292 5.73065L6.92937 5.73037L6.92977 5.72967C6.99852 5.61108 7.06696 5.49301 7.13478 5.37542C7.3242 5.04698 7.72894 4.91156 8.07788 5.05988C8.42681 5.2082 8.61016 5.59361 8.50511 5.95791C8.44024 6.1829 8.39135 6.63482 8.41368 7.17209C8.43578 7.70386 8.52407 8.22516 8.67278 8.59585C8.74671 8.78012 8.8208 8.88964 8.87618 8.94623C8.90163 8.97223 8.91806 8.98189 8.92369 8.98478C8.92781 8.98689 8.92917 8.98716 8.93249 8.98745C8.95988 8.9899 9.26897 8.97225 9.91756 8.24928C10.0781 8.07035 10.3146 7.9792 10.5537 8.00417C10.7928 8.02913 11.0054 8.16718 11.1255 8.37542ZM8.02971 0.148424C8.02988 0.148295 8.02971 0.148424 8.4776 0.75ZM8.47806 15.9731L0.944306 13.9545C0.544207 13.8472 0.132954 14.0847 0.0257477 14.4848C-0.0814586 14.8849 0.155979 15.2961 0.556078 15.4033L5.58028 16.7496L0.556072 18.0958C0.155972 18.203 -0.0814646 18.6143 0.0257418 19.0144C0.132948 19.4145 0.544201 19.6519 0.9443 19.5447L16.3991 15.4036C16.7992 15.2964 17.0366 14.8851 16.9294 14.485C16.8222 14.0849 16.411 13.8475 16.0109 13.9547L8.47806 15.9731ZM16.9295 19.0145C17.0367 18.6144 16.7992 18.2031 16.3991 18.0959L12.5354 17.0606C12.1353 16.9534 11.7241 17.1909 11.6169 17.591C11.5097 17.9911 11.7471 18.4023 12.1472 18.5095L16.0109 19.5448C16.411 19.652 16.8223 19.4146 16.9295 19.0145Z" fill="#292927"/>
</g>
</svg>
