<svg preserveAspectRatio="xMidYMid meet" overflow="visible" style="display: block;" viewBox="0 0 24 24" fill="none" xmlns="http://www.w3.org/2000/svg">
<g transform="translate(0.7500, 0.7500)">
<path id="Vector" fill-rule="evenodd" clip-rule="evenodd" d="M1.5 3.25C1.5 2.2835 2.2835 1.5 3.25 1.5C4.2165 1.5 5 2.2835 5 3.25C5 3.38038 4.98574 3.50743 4.9587 3.62967L3.71039 2.65876C3.38343 2.40446 2.91222 2.46336 2.65792 2.79032C2.40362 3.11728 2.46252 3.58849 2.78948 3.84279L4.0373 4.81332C3.80065 4.93274 3.53318 5 3.25 5C2.2835 5 1.5 4.2165 1.5 3.25ZM6.5 3.25C6.5 3.73187 6.39513 4.18924 6.20697 4.60055L8.06636 6.04674C8.17893 6.01629 8.29756 6 8.42036 6H13.0796C13.2024 6 13.321 6.01628 13.4336 6.04673L15.293 4.60051C15.1049 4.18922 15 3.73185 15 3.25C15 1.45507 16.4551 0 18.25 0C20.0449 0 21.5 1.45507 21.5 3.25C21.5 5.04493 20.0449 6.5 18.25 6.5C17.4796 6.5 16.7717 6.23191 16.2147 5.78393L14.4194 7.1803C14.4323 7.28371 14.4335 7.39047 14.4214 7.49908L13.7454 13.5828C13.6997 13.9945 13.3289 14.2912 12.9172 14.2454C12.5055 14.1997 12.2088 13.8289 12.2546 13.4172L12.9121 7.5H8.58795L9.42128 15H9.75C10.1642 15 10.5 15.3358 10.5 15.75C10.5 16.1642 10.1642 16.5 9.75 16.5H9.28702C8.64577 16.5 8.10012 16.0505 7.96753 15.4357L6.1882 16.8592C6.38814 17.2808 6.5 17.7523 6.5 18.25C6.5 20.0449 5.04493 21.5 3.25 21.5C1.45507 21.5 0 20.0449 0 18.25C0 16.4551 1.45507 15 3.25 15C4.00447 15 4.69889 15.2571 5.25045 15.6884L7.76503 13.6768L7.07862 7.49908C7.06655 7.39049 7.06767 7.28374 7.08062 7.18035L5.28526 5.78396C4.72825 6.23192 4.02043 6.5 3.25 6.5C1.45507 6.5 0 5.04493 0 3.25C0 1.45507 1.45507 0 3.25 0C5.04493 0 6.5 1.45507 6.5 3.25ZM18.7105 3.84279L17.4627 4.8133C17.6993 4.93273 17.9668 5 18.25 5C19.2165 5 20 4.2165 20 3.25C20 2.2835 19.2165 1.5 18.25 1.5C17.2835 1.5 16.5 2.2835 16.5 3.25C16.5 3.38036 16.5143 3.5074 16.5413 3.62963L17.7895 2.65876C18.1165 2.40446 18.5877 2.46336 18.842 2.79032C19.0963 3.11728 19.0374 3.58849 18.7105 3.84279ZM4.01588 16.6761C3.78456 16.5633 3.52467 16.5 3.25 16.5C2.2835 16.5 1.5 17.2835 1.5 18.25C1.5 19.2165 2.2835 20 3.25 20C4.2165 20 5 19.2165 5 18.25C5 18.1113 4.98387 17.9764 4.95337 17.847L3.71851 18.8349C3.39506 19.0936 2.92309 19.0412 2.66434 18.7177C2.40559 18.3943 2.45803 17.9223 2.78149 17.6635L4.01588 16.6761ZM22.5 17.75C22.5 17.3358 22.1642 17 21.75 17C21.3358 17 21 17.3358 21 17.75V19.75C21 20.1642 21.3358 20.5 21.75 20.5C22.1642 20.5 22.5 20.1642 22.5 19.75V17.75ZM13.75 17C14.1642 17 14.5 17.3358 14.5 17.75V19.75C14.5 20.1642 14.1642 20.5 13.75 20.5C13.3358 20.5 13 20.1642 13 19.75V17.75C13 17.3358 13.3358 17 13.75 17ZM12.5 21V16.5H19V21H12.5ZM12.35 15C11.6044 15 11 15.6044 11 16.35V21.15C11 21.8956 11.6044 22.5 12.35 22.5H19.15C19.8956 22.5 20.5 21.8956 20.5 21.15V16.35C20.5 15.6044 19.8956 15 19.15 15H12.35Z" fill="#292927"/>
</g>
</svg>
