<svg preserveAspectRatio="xMidYMid meet" overflow="visible" style="display: block;" viewBox="0 0 24 24" fill="none" xmlns="http://www.w3.org/2000/svg">
<g transform="translate(1.5879, 1.7552)">
<path id="Vector" fill-rule="evenodd" clip-rule="evenodd" d="M17.8241 0.75C17.8241 0.335786 17.4883 0 17.0741 0C16.6599 0 16.3241 0.335786 16.3241 0.75V3H14.0741C13.6599 3 13.3241 3.33579 13.3241 3.75C13.3241 4.16421 13.6599 4.5 14.0741 4.5H16.3241V6.75C16.3241 7.16421 16.6599 7.5 17.0741 7.5C17.4883 7.5 17.8241 7.16421 17.8241 6.75V4.5H20.0741C20.4883 4.5 20.8241 4.16421 20.8241 3.75C20.8241 3.33579 20.4883 3 20.0741 3H17.8241V0.75ZM9.00835 18.5702C8.51111 19.1296 7.63707 19.1296 7.13983 18.5702L1.81574 12.5806C1.39475 12.107 1.39475 11.3933 1.81574 10.9197L7.13983 4.93009C7.63707 4.3707 8.51111 4.3707 9.00835 4.93009L14.3324 10.9197C14.7534 11.3933 14.7534 12.107 14.3324 12.5806L9.00835 18.5702ZM6.01871 19.5667C7.11264 20.7974 9.03554 20.7974 10.1295 19.5667L15.4536 13.5771C16.3797 12.5352 16.3797 10.9651 15.4536 9.92314L10.1295 3.93354C9.03554 2.70288 7.11264 2.70288 6.01871 3.93354L0.694624 9.92314C-0.231541 10.9651 -0.231541 12.5352 0.694624 13.5771L6.01871 19.5667Z" fill="#292927"/>
</g>
</svg>
