<svg preserveAspectRatio="xMidYMid meet" overflow="visible" style="display: block;" viewBox="0 0 24 24" fill="none" xmlns="http://www.w3.org/2000/svg">
<g transform="translate(1.5902, 4.4937)">
<path id="Vector" fill-rule="evenodd" clip-rule="evenodd" d="M3.0243 14.9986C1.24796 15.1762 -0.224163 13.6406 0.0283031 11.8733L0.626911 7.68309C0.643661 7.56584 0.643661 7.44679 0.626911 7.32954L0.0283031 3.13929C-0.224163 1.37203 1.24796 -0.163607 3.0243 0.0140266L10.2854 0.740136C10.3681 0.748408 10.4514 0.748408 10.5342 0.740136L17.7953 0.0140266C19.5716 -0.163607 21.0437 1.37203 20.7913 3.13929L20.1926 7.32954C20.1759 7.44679 20.1759 7.56584 20.1926 7.68309L20.7913 11.8733C21.0437 13.6406 19.5716 15.1762 17.7953 14.9986L10.5342 14.2725C10.4514 14.2642 10.3681 14.2642 10.2854 14.2725L3.0243 14.9986ZM2.6566 13.5091C2.72791 13.5143 2.8009 13.5135 2.87504 13.506L10.1361 12.7799C10.3181 12.7617 10.5014 12.7617 10.6834 12.7799L17.9445 13.506C18.7519 13.5868 19.4211 12.8888 19.3063 12.0855L18.7077 7.89522C18.6709 7.63726 18.6709 7.37537 18.7077 7.11741L19.3063 2.92715C19.326 2.78952 19.3226 2.65498 19.2995 2.52692L15.8598 5.10673C15.5284 5.35526 15.0583 5.2881 14.8098 4.95673C14.5613 4.62536 14.6284 4.15526 14.9598 3.90673L18.164 1.50359C18.0923 1.49831 18.019 1.49913 17.9445 1.50658L10.6834 2.23269C10.5014 2.25089 10.3181 2.25089 10.1361 2.23269L2.87505 1.50658C2.06762 1.42584 1.39847 2.12386 1.51323 2.92716L2.11184 7.11741C2.14869 7.37537 2.14869 7.63726 2.11184 7.89522L1.51323 12.0855C1.49353 12.2234 1.49693 12.3582 1.52016 12.4864L4.95978 9.90673C5.29115 9.6582 5.76125 9.72536 6.00978 10.0567C6.25831 10.3881 6.19115 10.8582 5.85978 11.1067L2.6566 13.5091Z" fill="#292927"/>
</g>
</svg>
