<svg preserveAspectRatio="xMidYMid meet" overflow="visible" style="display: block;" viewBox="0 0 24 24" fill="none" xmlns="http://www.w3.org/2000/svg">
<g transform="translate(1.2500, 1.0000)">
<path id="Vector" fill-rule="evenodd" clip-rule="evenodd" d="M1.5 10.75C1.5 5.64136 5.64136 1.5 10.75 1.5C15.8586 1.5 20 5.64137 20 10.75V13.75C20 16.0972 18.0972 18 15.75 18H15.623C16.7763 16.9484 17.5 15.4337 17.5 13.75V10.75C17.5 7.57436 14.9256 5 11.75 5H9.75C6.57437 5 4 7.57437 4 10.75V13.75C4 15.4337 4.72368 16.9484 5.87697 18H5.75C3.4028 18 1.5 16.0972 1.5 13.75V10.75ZM9.75 19.5H11.75H11.8895L13.6643 21.7185C13.9231 22.042 14.3951 22.0944 14.7185 21.8357C15.042 21.5769 15.0944 21.105 14.8356 20.7815L13.8104 19.5H14.8895L16.6643 21.7185C16.9231 22.042 17.3951 22.0944 17.7185 21.8357C18.042 21.5769 18.0944 21.105 17.8356 20.7815L16.7422 19.4147C19.445 18.9446 21.5 16.5873 21.5 13.75V10.75C21.5 4.81293 16.687 0 10.75 0C4.81294 0 0 4.81294 0 10.75V13.75C0 16.5873 2.055 18.9446 4.75778 19.4147L3.66435 20.7815C3.40559 21.105 3.45803 21.5769 3.78148 21.8357C4.10492 22.0944 4.57689 22.042 4.83565 21.7185L6.61049 19.5H7.68955L6.66435 20.7815C6.40559 21.105 6.45803 21.5769 6.78148 21.8357C7.10492 22.0944 7.57689 22.042 7.83565 21.7185L9.61049 19.5H9.75ZM16 13.75C16 16.0972 14.0972 18 11.75 18H9.75C7.4028 18 5.5 16.0972 5.5 13.75V10.75C5.5 8.40279 7.40279 6.5 9.75 6.5H11.75C14.0972 6.5 16 8.4028 16 10.75V13.75ZM9.26202 14.1908C9.56976 14.4681 9.59447 14.9423 9.31722 15.2501L9.30722 15.2612C9.02996 15.5689 8.55573 15.5936 8.24799 15.3164C7.94026 15.0391 7.91554 14.5649 8.19279 14.2571L8.2028 14.246C8.48005 13.9383 8.95428 13.9136 9.26202 14.1908ZM13.262 14.1908C13.5698 14.4681 13.5945 14.9423 13.3172 15.2501L13.3072 15.2612C13.03 15.5689 12.5557 15.5936 12.248 15.3164C11.9403 15.0391 11.9155 14.5649 12.1928 14.2571L12.2028 14.246C12.48 13.9383 12.9543 13.9136 13.262 14.1908ZM10.9643 9.5C11.3402 9.5 11.6694 9.7003 11.8509 10H9.64913C9.83061 9.7003 10.1598 9.5 10.5357 9.5H10.9643ZM10.5357 8C9.13529 8 8 9.13529 8 10.5357C8 11.0683 8.43169 11.5 8.9643 11.5H12.5357C13.0683 11.5 13.5 11.0683 13.5 10.5357C13.5 9.13529 12.3647 8 10.9643 8H10.5357Z" fill="#292927"/>
</g>
</svg>
