<svg preserveAspectRatio="xMidYMid meet" overflow="visible" style="display: block;" viewBox="0 0 24 24" fill="none" xmlns="http://www.w3.org/2000/svg">
<g transform="translate(3.4556, 2.2500)">
<path id="Vector" fill-rule="evenodd" clip-rule="evenodd" d="M1.35089 11.5C0.446571 11.5 -0.202033 10.6283 0.0578197 9.76208L2.69782 0.962081C2.86913 0.391053 3.39471 0 3.99089 0H13.098C13.6942 0 14.2198 0.391051 14.3911 0.96208L17.0311 9.76208C17.291 10.6283 16.6424 11.5 15.738 11.5H1.35089ZM1.55249 10H15.5364L12.9864 1.5H4.10249L1.55249 10ZM8.54446 12C8.95868 12 9.29446 12.3358 9.29446 12.75V14.0447C10.6178 14.2083 11.5429 14.8038 12.1627 15.558C12.8667 16.4148 13.1273 17.4142 13.2272 18.0352C13.364 18.8852 12.6671 19.5 11.9445 19.5H5.14446C4.42182 19.5 3.72494 18.8852 3.86168 18.0352C3.96158 17.4142 4.2222 16.4148 4.92624 15.558C5.54601 14.8038 6.47117 14.2083 7.79446 14.0447V12.75C7.79446 12.3358 8.13025 12 8.54446 12ZM8.54446 15.5C7.25019 15.5 6.5241 15.9761 6.08515 16.5103C5.70008 16.9789 5.49846 17.5405 5.39528 18H11.6936C11.5905 17.5405 11.3888 16.9789 11.0038 16.5103C10.5648 15.9761 9.83874 15.5 8.54446 15.5Z" fill="#292927"/>
</g>
</svg>
