<svg preserveAspectRatio="xMidYMid meet" overflow="visible" style="display: block;" viewBox="0 0 24 24" fill="none" xmlns="http://www.w3.org/2000/svg">
<g transform="translate(4.7500, 2.7500)">
<path id="Vector" fill-rule="evenodd" clip-rule="evenodd" d="M11.7501 1.5C11.0597 1.5 10.5001 2.05964 10.5001 2.75C10.5001 3.44036 11.0597 4 11.7501 4C12.4404 4 13.0001 3.44036 13.0001 2.75C13.0001 2.05964 12.4404 1.5 11.7501 1.5ZM9.00006 2.75C9.00006 1.23122 10.2313 0 11.7501 0C13.2688 0 14.5001 1.23122 14.5001 2.75C14.5001 4.26878 13.2688 5.5 11.7501 5.5C10.2313 5.5 9.00006 4.26878 9.00006 2.75ZM10.0064 6.21838C10.1861 6.39721 10.2633 6.65473 10.2116 6.90293L9.12067 12.141C9.10665 12.2084 9.08342 12.2735 9.05166 12.3345L6.32439 17.5726C6.20837 17.7954 5.98852 17.9453 5.73873 17.972L0.829637 18.4958C0.417761 18.5397 0.0482435 18.2415 0.0042955 17.8296C-0.0396524 17.4177 0.258612 17.0482 0.670487 17.0042L5.17966 16.5231L7.67332 11.7337L8.50847 7.72366L5.8973 8.2809L6.7957 9.43123C7.05066 9.75768 6.9927 10.229 6.66625 10.484C6.33979 10.7389 5.86847 10.681 5.61351 10.3545L3.97715 8.25927C3.81805 8.05555 3.77506 7.78426 3.86339 7.54134C3.95172 7.29841 4.15892 7.11809 4.41172 7.06415L9.32081 6.01653C9.56875 5.96362 9.82665 6.03955 10.0064 6.21838ZM10.5682 12.2856C10.154 12.2856 9.81818 12.6214 9.81818 13.0356C9.81818 13.4499 10.154 13.7856 10.5682 13.7856H12V17.7499C12 18.1641 12.3358 18.4999 12.75 18.4999C13.1642 18.4999 13.5 18.1641 13.5 17.7499V13.0356C13.5 12.6214 13.1642 12.2856 12.75 12.2856H10.5682Z" fill="#292927"/>
</g>
</svg>
