<svg preserveAspectRatio="xMidYMid meet" overflow="visible" style="display: block;" viewBox="0 0 24 24" fill="none" xmlns="http://www.w3.org/2000/svg">
<g transform="translate(2.2500, 1.7500)">
<path id="Vector" fill-rule="evenodd" clip-rule="evenodd" d="M13.2887 4.9555C13.1883 5.55823 12.6668 6 12.0557 6H10.2579L9.44636 3.97126C9.29252 3.58667 8.85604 3.39961 8.47146 3.55344C8.08687 3.70728 7.89981 4.14376 8.05364 4.52834L8.6423 6H7.44425C6.8332 6 6.31172 5.55823 6.21126 4.9555L6.01034 3.75L6.21126 2.5445C6.31172 1.94177 6.8332 1.5 7.44425 1.5H12.0557C12.6668 1.5 13.1883 1.94177 13.2887 2.5445L13.4897 3.75L13.2887 4.9555ZM9.75011 7.5H9.75035H12.0557C13.4001 7.5 14.5473 6.52811 14.7683 5.2021L14.8853 4.5H18V19H1.5V4.5H4.61465L4.73167 5.2021C4.95267 6.52811 6.09994 7.5 7.44425 7.5H9.75011ZM4.61465 3L4.73167 2.2979C4.95267 0.971886 6.09995 0 7.44425 0H12.0557C13.4001 0 14.5473 0.971886 14.7683 2.2979L14.8853 3H18.15C18.8956 3 19.5 3.60442 19.5 4.35V19.15C19.5 19.8956 18.8956 20.5 18.15 20.5H1.35C0.604416 20.5 0 19.8956 0 19.15V4.35C0 3.60442 0.604416 3 1.35 3H4.61465ZM4.75 15C4.33579 15 4 15.3358 4 15.75C4 16.1642 4.33579 16.5 4.75 16.5L14.75 16.5C15.1642 16.5 15.5 16.1642 15.5 15.75C15.5 15.3358 15.1642 15 14.75 15L4.75 15Z" fill="#292927"/>
</g>
</svg>
