<svg preserveAspectRatio="xMidYMid meet" overflow="visible" style="display: block;" viewBox="0 0 24 24" fill="none" xmlns="http://www.w3.org/2000/svg">
<g transform="translate(3.2500, 2.2500)">
<path id="Vector" fill-rule="evenodd" clip-rule="evenodd" d="M0 1.35C0 0.604415 0.604417 0 1.35 0H16.15C16.8956 0 17.5 0.604415 17.5 1.35V3.75C17.5 4.16421 17.1642 4.5 16.75 4.5C16.3358 4.5 16 4.16421 16 3.75V1.5H1.5V3.75C1.5 4.16421 1.16421 4.5 0.75 4.5C0.335786 4.5 0 4.16421 0 3.75V1.35ZM7.25 13.4999C6.83579 13.4999 6.5 13.1641 6.5 12.7499V6.74993C6.5 6.40209 6.73916 6.09991 7.07769 6.01999C7.41621 5.94007 7.76526 6.1034 7.92082 6.41452L9.5 9.57288V6.74993C9.5 6.33571 9.83579 5.99993 10.25 5.99993C10.6642 5.99993 11 6.33571 11 6.74993V12.7499C11 13.0978 10.7608 13.3999 10.4223 13.4799C10.0838 13.5598 9.73474 13.3964 9.57918 13.0853L8 9.92698V12.7499C8 13.1641 7.66421 13.4999 7.25 13.4999ZM4.25 6C4.66421 6 5 6.33579 5 6.75V9.75C5 9.94891 4.92098 10.1397 4.78033 10.2803C4.63968 10.421 4.44891 10.5 4.25 10.5H2V12.75C2 13.1642 1.66421 13.5 1.25 13.5C0.835786 13.5 0.5 13.1642 0.5 12.75V6.75C0.5 6.55109 0.579018 6.36032 0.71967 6.21967C0.860322 6.07902 1.05109 6 1.25 6H4.25ZM2 9H3.5V7.5H2V9ZM12.5 12.75C12.5 12.9489 12.579 13.1397 12.7197 13.2803C12.8603 13.421 13.0511 13.5 13.25 13.5H16.25C16.6642 13.5 17 13.1642 17 12.75V10.35C17 9.93579 16.6642 9.6 16.25 9.6C15.8358 9.6 15.5 9.93579 15.5 10.35V12H14V7.5H16.25C16.6642 7.5 17 7.16421 17 6.75C17 6.33579 16.6642 6 16.25 6H13.25C12.8358 6 12.5 6.33579 12.5 6.75V12.75ZM1.35 19.5C0.604417 19.5 0 18.8956 0 18.15V15.75C0 15.3358 0.335786 15 0.75 15C1.16421 15 1.5 15.3358 1.5 15.75V18H16V15.75C16 15.3358 16.3358 15 16.75 15C17.1642 15 17.5 15.3358 17.5 15.75V18.15C17.5 18.8956 16.8956 19.5 16.15 19.5H1.35Z" fill="#292927"/>
</g>
</svg>
