<svg preserveAspectRatio="xMidYMid meet" overflow="visible" style="display: block;" viewBox="0 0 24 24" fill="none" xmlns="http://www.w3.org/2000/svg">
<g transform="translate(2.2500, 2.2500)">
<path id="Vector" fill-rule="evenodd" clip-rule="evenodd" d="M9.75 0C7.16414 0 4.68419 1.02723 2.85571 2.85571C1.02723 4.68419 0 7.16414 0 9.75V14.75V18.75C0 19.1642 0.335786 19.5 0.75 19.5H18.75C19.1642 19.5 19.5 19.1642 19.5 18.75V14.75V10.75V9.75C19.5 7.16414 18.4728 4.68419 16.6443 2.85571C14.8158 1.02723 12.3359 0 9.75 0ZM18 9.75V10H11.5V7.5H17.6873C17.893 8.22568 18 8.98232 18 9.75ZM17.0985 6H10.75C10.3358 6 10 6.33579 10 6.75V10H6.75C6.33579 10 6 10.3358 6 10.75V14H1.5V9.75C1.5 7.56196 2.36919 5.46354 3.91637 3.91637C5.46354 2.36919 7.56196 1.5 9.75 1.5C11.938 1.5 14.0365 2.36919 15.5836 3.91637C16.2003 4.53307 16.7093 5.23736 17.0985 6ZM10.75 11.5H7.5V14H18V11.5H10.75ZM1.5 15.5H6.75H18V18H1.5V15.5Z" fill="#292927"/>
</g>
</svg>
