<svg preserveAspectRatio="xMidYMid meet" overflow="visible" style="display: block;" viewBox="0 0 24 24" fill="none" xmlns="http://www.w3.org/2000/svg">
<g transform="translate(1.9038, 2.1642)">
<path id="Vector" fill-rule="evenodd" clip-rule="evenodd" d="M11.0585 1.86612C11.5467 1.37796 12.3381 1.37796 12.8263 1.86612L17.776 6.81586C18.2642 7.30402 18.2642 8.09548 17.776 8.58363L14.4706 11.889L7.75311 5.17151L11.0585 1.86612ZM6.69245 6.23217L1.86612 11.0585C1.37796 11.5467 1.37796 12.3381 1.86612 12.8263L6.86612 17.8263C7.08333 18.0435 7.37659 18.1672 7.68332 18.1715H7.71618C8.02291 18.1672 8.31616 18.0435 8.53338 17.8263L13.41 12.9497L6.69245 6.23217ZM10.3095 18.1715L18.8367 9.64429C19.9106 8.57035 19.9106 6.82914 18.8367 5.7552L13.8869 0.805456C12.813 -0.268485 11.0718 -0.268485 9.99784 0.805456L0.805456 9.99784C-0.268486 11.0718 -0.268485 12.813 0.805456 13.8869L5.80546 18.8869C6.17888 19.2604 6.65118 19.5121 7.16083 19.6168C7.24777 19.6521 7.34281 19.6715 7.44239 19.6715H7.67517C7.68336 19.6715 7.69155 19.6716 7.69975 19.6716C7.70794 19.6716 7.71613 19.6715 7.72432 19.6715H19.4424C19.8566 19.6715 20.1924 19.3357 20.1924 18.9215C20.1924 18.5072 19.8566 18.1715 19.4424 18.1715H10.3095Z" fill="#292927"/>
</g>
</svg>
