<svg preserveAspectRatio="xMidYMid meet" overflow="visible" style="display: block;" viewBox="0 0 24 24" fill="none" xmlns="http://www.w3.org/2000/svg">
<g transform="translate(2.2500, 1.5000)">
<path id="Vector" d="M15.75 11.25H11.25C11.0511 11.2498 10.8605 11.1708 10.7198 11.0302C10.5792 10.8895 10.5002 10.6989 10.5 10.5V1.5C10.4995 1.10233 10.3413 0.721085 10.0601 0.439888C9.77891 0.158691 9.39767 0.000496161 9 0H1.5C1.10233 0.000496161 0.721085 0.158691 0.439888 0.439888C0.158691 0.721085 0.000496161 1.10233 0 1.5V19.5C0.000496161 19.8977 0.158691 20.2789 0.439888 20.5601C0.721085 20.8413 1.10233 20.9995 1.5 21H18C18.3977 20.9995 18.7789 20.8413 19.0601 20.5601C19.3413 20.2789 19.4995 19.8977 19.5 19.5V15C19.4989 14.0058 19.1034 13.0526 18.4004 12.3496C17.6974 11.6466 16.7442 11.2511 15.75 11.25V11.25ZM18 15V16.5H15V12.75H15.75C16.3465 12.7507 16.9185 12.9879 17.3403 13.4097C17.7621 13.8315 17.9993 14.4035 18 15V15ZM9 1.5V3H6V4.5H9V6H6V7.5H9V9H6V10.5H9C9.00066 11.0965 9.23792 11.6685 9.65973 12.0903C10.0815 12.5121 10.6535 12.7493 11.25 12.75H13.5V16.5H8.3718L6.1218 15.75H1.5V1.5H9ZM16.5 19.5V18.75H15V19.5H13.5V18.75H12V19.5H10.5V18.75H9V19.5H7.5V18.75H6V19.5H1.5V17.25H5.8782L8.1282 18H18V19.5H16.5Z" fill="#292927"/>
</g>
</svg>
