<svg preserveAspectRatio="xMidYMid meet" overflow="visible" style="display: block;" viewBox="0 0 24 24" fill="none" xmlns="http://www.w3.org/2000/svg">
<g transform="translate(1.2500, 2.2500)">
<path id="Vector" fill-rule="evenodd" clip-rule="evenodd" d="M2.25 1.5C1.83579 1.5 1.5 1.83579 1.5 2.25C1.5 2.66421 1.83579 3 2.25 3H3V1.5H2.25ZM2.25 4.5H3V16.75C3 18.2688 4.23122 19.5 5.75 19.5H13.75H15.75C17.2688 19.5 18.5 18.2688 18.5 16.75V4.5H19.25C20.4926 4.5 21.5 3.49264 21.5 2.25C21.5 1.00736 20.4926 0 19.25 0H18.5H13.75H3H2.25C1.00736 0 0 1.00736 0 2.25C0 3.49264 1.00736 4.5 2.25 4.5ZM13 1.5H4.5V16.75C4.5 17.4404 5.05964 18 5.75 18H13L13 1.5ZM14.5 18L14.5 1.5H17V16.75C17 17.4404 16.4404 18 15.75 18H14.5ZM19.25 3H18.5V1.5H19.25C19.6642 1.5 20 1.83579 20 2.25C20 2.66421 19.6642 3 19.25 3Z" fill="#292927"/>
</g>
</svg>
