<svg preserveAspectRatio="xMidYMid meet" overflow="visible" style="display: block;" viewBox="0 0 24 24" fill="none" xmlns="http://www.w3.org/2000/svg">
<g transform="translate(1.7533, 0.7500)">
<path id="Vector" fill-rule="evenodd" clip-rule="evenodd" d="M1.5 20V1.5H12V4.15C12 4.89558 12.6044 5.5 13.35 5.5H16V10.75C16 11.1642 16.3358 11.5 16.75 11.5C17.1642 11.5 17.5 11.1642 17.5 10.75V4.75V4.49853C17.5 4.14049 17.3578 3.79711 17.1046 3.54393L13.9561 0.395406C13.7029 0.142232 13.3595 0 13.0015 0H12.75H1.35C0.604417 0 0 0.604415 0 1.35V20.15C0 20.8956 0.604415 21.5 1.35 21.5H9.75C10.1642 21.5 10.5 21.1642 10.5 20.75C10.5 20.3358 10.1642 20 9.75 20H1.5ZM13.5 4V2.06066L15.4393 4H13.5ZM4.75 4C4.33579 4 4 4.33579 4 4.75C4 5.16421 4.33579 5.5 4.75 5.5H8.75C9.16421 5.5 9.5 5.16421 9.5 4.75C9.5 4.33579 9.16421 4 8.75 4H4.75ZM4.75 8C4.33579 8 4 8.33579 4 8.75C4 9.16421 4.33579 9.5 4.75 9.5H12.75C13.1642 9.5 13.5 9.16421 13.5 8.75C13.5 8.33579 13.1642 8 12.75 8H4.75ZM4.75 12C4.33579 12 4 12.3358 4 12.75C4 13.1642 4.33579 13.5 4.75 13.5H7.75C8.16421 13.5 8.5 13.1642 8.5 12.75C8.5 12.3358 8.16421 12 7.75 12H4.75ZM16.9269 13.1481C16.4827 13.0353 16.0173 13.0353 15.5731 13.1481L13.0177 13.7971C12.4211 13.9486 11.9883 14.494 12.0072 15.13C12.0976 18.1618 13.0242 20.0007 14.0119 21.0915C14.5003 21.631 14.9891 21.9711 15.3667 22.1789C15.5553 22.2827 15.716 22.3535 15.8353 22.3998C15.895 22.423 15.9444 22.4401 15.9819 22.4523C15.9939 22.4562 16.0048 22.4595 16.0143 22.4624C16.0196 22.4641 16.0245 22.4655 16.029 22.4668L16.0455 22.4716L16.0519 22.4734L16.0546 22.4741L16.0559 22.4744C16.0565 22.4746 16.0571 22.4747 16.25 21.75L16.0571 22.4747C16.1835 22.5084 16.3165 22.5084 16.4429 22.4747L16.25 21.75C16.4429 22.4747 16.4435 22.4746 16.4441 22.4744L16.4453 22.4741L16.4481 22.4734L16.4545 22.4716L16.471 22.4668C16.4836 22.4631 16.4994 22.4583 16.5181 22.4523C16.5556 22.4401 16.605 22.423 16.6647 22.3998C16.784 22.3535 16.9447 22.2827 17.1333 22.1789C17.5108 21.9711 17.9997 21.631 18.4881 21.0915C19.4758 20.0007 20.4024 18.1618 20.4928 15.13C20.5117 14.494 20.0789 13.9486 19.4823 13.7971L16.9269 13.1481ZM16.41 20.8648C16.3506 20.8975 16.2968 20.9245 16.25 20.9464C16.2032 20.9245 16.1494 20.8975 16.09 20.8648C15.8394 20.7269 15.4872 20.4861 15.1238 20.0848C14.4196 19.307 13.6149 17.8605 13.5112 15.2194L15.9423 14.6019C16.1442 14.5507 16.3558 14.5507 16.5577 14.6019L18.9888 15.2194C18.8851 17.8605 18.0804 19.307 17.3762 20.0848C17.0128 20.4861 16.6606 20.7269 16.41 20.8648Z" fill="#292927"/>
</g>
</svg>
