<svg preserveAspectRatio="xMidYMid meet" overflow="visible" style="display: block;" viewBox="0 0 24 24" fill="none" xmlns="http://www.w3.org/2000/svg">
<g transform="translate(3.0455, 1.2935)">
<path id="Vector" fill-rule="evenodd" clip-rule="evenodd" d="M3.33468 3.4282C1.07843 5.18306 0.870785 8.51831 2.89194 10.5395L8.2045 15.852V6.66298C8.2045 6.24877 8.54029 5.91298 8.9545 5.91298C9.36872 5.91298 9.7045 6.24877 9.7045 6.66298V8.85232L11.4242 7.13265C11.7171 6.83976 12.1919 6.83976 12.4848 7.13265C12.7777 7.42554 12.7777 7.90042 12.4848 8.19331L9.7045 10.9736L9.7045 15.852L15.017 10.5394C17.0382 8.51827 16.8305 5.18304 14.5743 3.42819C11.2688 0.857264 6.64017 0.857271 3.33468 3.4282ZM9.7045 17.9369C9.77671 17.8886 9.84528 17.8325 9.90906 17.7687L16.0777 11.6001C18.7368 8.94094 18.4636 4.55294 15.4952 2.24417C11.6481 -0.748062 6.26092 -0.748052 2.41377 2.24418C-0.554663 4.55296 -0.827862 8.94098 1.83128 11.6001L7.99987 17.7687C8.06367 17.8325 8.13227 17.8886 8.2045 17.937V20.663C8.2045 21.0772 8.54029 21.413 8.9545 21.413C9.36872 21.413 9.7045 21.0772 9.7045 20.663V17.9369Z" fill="#292927"/>
</g>
</svg>
