<svg preserveAspectRatio="xMidYMid meet" overflow="visible" style="display: block;" viewBox="0 0 24 24" fill="none" xmlns="http://www.w3.org/2000/svg">
<g transform="translate(2.2500, 2.2500)">
<path id="Vector" fill-rule="evenodd" clip-rule="evenodd" d="M1.5 18V1.5H18V18H1.5ZM1.35 0C0.604417 0 0 0.604415 0 1.35V18.15C0 18.8956 0.604415 19.5 1.35 19.5H18.15C18.8956 19.5 19.5 18.8956 19.5 18.15V1.35C19.5 0.604417 18.8956 0 18.15 0H1.35ZM12 13.25C12 12.5596 12.5596 12 13.25 12C13.9404 12 14.5 12.5596 14.5 13.25C14.5 13.9404 13.9404 14.5 13.25 14.5C12.5596 14.5 12 13.9404 12 13.25ZM5 6.25C5 5.55964 5.55964 5 6.25 5C6.94036 5 7.5 5.55964 7.5 6.25C7.5 6.94036 6.94036 7.5 6.25 7.5C5.55964 7.5 5 6.94036 5 6.25ZM13.2197 5.21967C13.5126 4.92678 13.9874 4.92678 14.2803 5.21967C14.5732 5.51256 14.5732 5.98744 14.2803 6.28033L6.28033 14.2803C5.98744 14.5732 5.51256 14.5732 5.21967 14.2803C4.92678 13.9874 4.92678 13.5126 5.21967 13.2197L13.2197 5.21967Z" fill="#292927"/>
</g>
</svg>
