<svg preserveAspectRatio="xMidYMid meet" overflow="visible" style="display: block;" viewBox="0 0 24 24" fill="none" xmlns="http://www.w3.org/2000/svg">
<g transform="translate(1.2500, 2.2500)">
<path id="Vector" fill-rule="evenodd" clip-rule="evenodd" d="M2.78843 9.50914C3.63314 10.3803 4.93183 11 6.75 11H18.9393L13.2197 5.28033C12.9268 4.98744 12.9268 4.51256 13.2197 4.21967C13.5126 3.92678 13.9874 3.92678 14.2803 4.21967L21.2803 11.2197C21.5732 11.5126 21.5732 11.9874 21.2803 12.2803L14.2803 19.2803C13.9874 19.5732 13.5126 19.5732 13.2197 19.2803C12.9268 18.9874 12.9268 18.5126 13.2197 18.2197L18.9393 12.5H6.75C4.56817 12.5 2.86686 11.7447 1.71157 10.5534C0.56483 9.37078 0 7.80344 0 6.25C0 4.69656 0.56483 3.12922 1.71157 1.94664C2.86686 0.755251 4.56817 0 6.75 0C7.16421 0 7.5 0.335786 7.5 0.75C7.5 1.16421 7.16421 1.5 6.75 1.5C4.93183 1.5 3.63314 2.11975 2.78843 2.99086C1.93517 3.87078 1.5 5.05344 1.5 6.25C1.5 7.44656 1.93517 8.62922 2.78843 9.50914Z" fill="#292927"/>
</g>
</svg>
