<svg preserveAspectRatio="xMidYMid meet" overflow="visible" style="display: block;" viewBox="0 0 24 24" fill="none" xmlns="http://www.w3.org/2000/svg">
<g transform="translate(2.2500, 2.2500)">
<path id="Vector" fill-rule="evenodd" clip-rule="evenodd" d="M3.75 0C4.16421 0 4.5 0.335786 4.5 0.75V3L15 3V0.75C15 0.335786 15.3358 0 15.75 0C16.1642 0 16.5 0.335786 16.5 0.75V3H18.75C19.1642 3 19.5 3.33579 19.5 3.75C19.5 4.16421 19.1642 4.5 18.75 4.5H16.5V15H18.75C19.1642 15 19.5 15.3358 19.5 15.75C19.5 16.1642 19.1642 16.5 18.75 16.5H16.5V18.75C16.5 19.1642 16.1642 19.5 15.75 19.5C15.3358 19.5 15 19.1642 15 18.75V16.5H4.5V18.75C4.5 19.1642 4.16421 19.5 3.75 19.5C3.33579 19.5 3 19.1642 3 18.75V16.5H0.75C0.335786 16.5 0 16.1642 0 15.75C0 15.3358 0.335786 15 0.75 15H3L3 4.5H0.75C0.335786 4.5 0 4.16421 0 3.75C0 3.33579 0.335786 3 0.75 3H3V0.75C3 0.335786 3.33579 0 3.75 0ZM4.5 15L15 15L15 4.5L4.5 4.5L4.5 15ZM7.35 6.75H12.15C12.4814 6.75 12.75 7.01863 12.75 7.35V12.15C12.75 12.4814 12.4814 12.75 12.15 12.75H7.35C7.01863 12.75 6.75 12.4814 6.75 12.15V7.35C6.75 7.01863 7.01863 6.75 7.35 6.75Z" fill="#292927"/>
</g>
</svg>
