<svg preserveAspectRatio="xMidYMid meet" overflow="visible" style="display: block;" viewBox="0 0 24 24" fill="none" xmlns="http://www.w3.org/2000/svg">
<g transform="translate(4.2498, 1.2449)">
<path id="Vector" fill-rule="evenodd" clip-rule="evenodd" d="M11.5002 2.75C11.5002 2.05964 12.0598 1.5 12.7502 1.5C13.4405 1.5 14.0002 2.05964 14.0002 2.75C14.0002 3.44036 13.4405 4 12.7502 4C12.0598 4 11.5002 3.44036 11.5002 2.75ZM12.7502 0C11.2314 0 10.0002 1.23122 10.0002 2.75C10.0002 4.26878 11.2314 5.5 12.7502 5.5C14.269 5.5 15.5002 4.26878 15.5002 2.75C15.5002 1.23122 14.269 0 12.7502 0ZM8.4027 5.70531C7.67402 5.46743 6.83412 5.38009 6.0856 5.75435L3.08593 7.25418L2.75019 6.58353C3.0856 7.25435 3.08592 7.25419 3.08593 7.25418C2.71545 7.43942 2.26461 7.28942 2.07937 6.91894C1.89413 6.54845 2.04432 6.09794 2.4148 5.9127L5.41478 4.41271C6.66627 3.78696 7.96162 3.98342 8.86818 4.27936C9.32943 4.42992 9.71729 4.61461 9.99003 4.76135C10.1271 4.83509 10.2369 4.90024 10.3144 4.94829C10.3532 4.97235 10.3841 4.9922 10.4063 5.0068L10.4332 5.02467L10.4417 5.03043L10.4447 5.03248L10.4459 5.03329C10.4461 5.03345 10.4468 5.03395 10.0207 5.65114L10.4468 5.03395C10.6469 5.1721 10.7676 5.39869 10.7706 5.64183C10.7737 5.88497 10.6586 6.11448 10.462 6.25756L6.9401 8.82055L10.2246 11.5026C10.399 11.645 10.5002 11.8583 10.5002 12.0835V16.0835C10.5002 16.4977 10.1644 16.8335 9.75019 16.8335C9.33598 16.8335 9.00019 16.4977 9.00019 16.0835V12.4394L5.23809 9.36729C5.05798 9.22022 4.95628 8.99793 4.96275 8.76549C4.96923 8.53306 5.08314 8.31677 5.27115 8.17995L8.58466 5.76861C8.52572 5.74684 8.465 5.72564 8.4027 5.70531ZM0.0608336 17.4548C0.224 17.074 0.66491 16.8977 1.04563 17.0608L3.23747 18.0002H12.2629L14.4548 17.0608C14.8355 16.8977 15.2764 17.074 15.4396 17.4548C15.6027 17.8355 15.4264 18.2764 15.0456 18.4396L12.7123 19.4396C12.6189 19.4796 12.5184 19.5002 12.4169 19.5002H3.08353C2.98196 19.5002 2.88144 19.4796 2.78809 19.4396L0.454753 18.4396C0.0740303 18.2764 -0.102333 17.8355 0.0608336 17.4548ZM4.26191 20.1916C4.5698 20.4687 4.59475 20.9429 4.31766 21.2508L4.30766 21.2619C4.03057 21.5697 3.55635 21.5947 3.24847 21.3176C2.94058 21.0405 2.91562 20.5663 3.19272 20.2584L3.20272 20.2473C3.47981 19.9394 3.95403 19.9145 4.26191 20.1916ZM12.3177 21.2508C12.5948 20.9429 12.5698 20.4687 12.2619 20.1916C11.954 19.9145 11.4798 19.9394 11.2027 20.2473L11.1927 20.2584C10.9156 20.5663 10.9406 21.0405 11.2485 21.3176C11.5563 21.5947 12.0306 21.5697 12.3077 21.2619L12.3177 21.2508ZM5.71496 12.7184C6.0596 12.4886 6.15273 12.0229 5.92297 11.6783C5.69321 11.3336 5.22755 11.2405 4.88291 11.4703L3.83128 12.1714H0.750183C0.335969 12.1714 0.000183042 12.5071 0.000183042 12.9214C0.000183042 13.3356 0.335969 13.6714 0.750183 13.6714H4.05836C4.20643 13.6714 4.35119 13.6275 4.47439 13.5454L5.71496 12.7184ZM10.1655 7.95947C10.1655 7.54526 10.5013 7.20947 10.9155 7.20947H13.6372C14.0514 7.20947 14.3872 7.54526 14.3872 7.95947C14.3872 8.37369 14.0514 8.70947 13.6372 8.70947H10.9155C10.5013 8.70947 10.1655 8.37369 10.1655 7.95947Z" fill="#292927"/>
</g>
</svg>
