<svg preserveAspectRatio="xMidYMid meet" overflow="visible" style="display: block;" viewBox="0 0 24 24" fill="none" xmlns="http://www.w3.org/2000/svg">
<g transform="translate(1.4088, 2.2500)">
<path id="Vector" fill-rule="evenodd" clip-rule="evenodd" d="M1.54943 7.12609L3.15689 1.5H6.27605L5.87545 6.30713C5.47393 6.54285 4.83723 6.88959 4.3706 7.03317C3.96885 7.15678 3.43128 7.20613 2.85675 7.20411C2.38619 7.20247 1.92478 7.16681 1.54943 7.12609ZM6.59117 7.6263C6.16834 7.87295 5.43273 8.27576 4.81172 8.46683C4.19771 8.65576 3.48486 8.70632 2.8515 8.70411C2.67832 8.7035 2.50727 8.69889 2.34116 8.69143V16.75C2.34116 17.4404 2.9008 18 3.59116 18H6.67447V12.75C6.67447 11.2312 7.90569 10 9.42447 10H11.4245C12.9433 10 14.1745 11.2312 14.1745 12.75V18H17.5912C18.2815 18 18.8412 17.4404 18.8412 16.75V8.69143C18.675 8.69889 18.504 8.7035 18.3308 8.70411C17.6975 8.70632 16.9846 8.65576 16.3706 8.46683C15.7496 8.27575 15.014 7.87294 14.5911 7.62629C14.1726 7.87038 13.4355 8.2749 12.8117 8.46683C12.0187 8.71085 11.3149 8.84454 10.5911 8.84454C9.8674 8.84454 9.16363 8.71085 8.37058 8.46683C7.74681 8.2749 7.0097 7.87039 6.59117 7.6263ZM0.841156 8.51356C0.203084 8.27149 -0.136433 7.56653 0.0516789 6.90814L1.74568 0.979127C1.91127 0.39957 2.44099 0 3.04374 0H6.40105H7.90626H13.2761H14.7812H18.1386C18.7413 0 19.271 0.399569 19.4366 0.979127L21.1306 6.90814C21.3188 7.56653 20.9792 8.2715 20.3412 8.51356V16.75C20.3412 18.2688 19.1099 19.5 17.5912 19.5H3.59116C2.07237 19.5 0.841156 18.2688 0.841156 16.75V8.51356ZM7.37724 6.3482L7.78126 1.5H13.401L13.8051 6.34819C13.3987 6.58365 12.8084 6.89845 12.3706 7.03317C11.6706 7.24854 11.1209 7.34454 10.5911 7.34454C10.0614 7.34454 9.51169 7.24854 8.81171 7.03317C8.3739 6.89845 7.78363 6.58365 7.37724 6.3482ZM15.3069 6.30713L14.9063 1.5H18.0254L19.6329 7.12609C19.2575 7.16681 18.7961 7.20247 18.3256 7.20411C17.751 7.20613 17.2135 7.15678 16.8117 7.03317C16.3451 6.88958 15.7084 6.54284 15.3069 6.30713ZM12.6745 18H8.17447V12.75C8.17447 12.0596 8.73411 11.5 9.42447 11.5H11.4245C12.1148 11.5 12.6745 12.0596 12.6745 12.75V18Z" fill="#292927"/>
</g>
</svg>
