<svg preserveAspectRatio="xMidYMid meet" overflow="visible" style="display: block;" viewBox="0 0 24 24" fill="none" xmlns="http://www.w3.org/2000/svg">
<g transform="translate(1.2500, 1.9193)">
<path id="Vector" fill-rule="evenodd" clip-rule="evenodd" d="M9.32467 0.398206C10.2007 -0.132735 11.2993 -0.132735 12.1753 0.398206L15.6753 2.51942C16.4977 3.01783 17 3.90959 17 4.87121V8.41136C17 8.47033 16.9932 8.52771 16.9803 8.58277L20.1753 10.5191C20.9977 11.0175 21.5 11.9093 21.5 12.8709V17.4111C21.5 18.9299 20.2688 20.1611 18.75 20.1611H16.7587C16.7558 20.1611 16.7529 20.1611 16.75 20.1611C16.7471 20.1611 16.7442 20.1611 16.7413 20.1611H14.75C14.3358 20.1611 14 19.8253 14 19.4111C14 18.9969 14.3358 18.6611 14.75 18.6611H16V16.1611H14.75C14.3358 16.1611 14 15.8253 14 15.4111C14 14.9969 14.3358 14.6611 14.75 14.6611H16.15C16.8956 14.6611 17.5 15.2655 17.5 16.0111V18.6611H18.75C19.4404 18.6611 20 18.1014 20 17.4111V12.8709C20 12.4338 19.7717 12.0285 19.3979 11.8019L15.8927 9.67758C15.4962 9.43728 14.9993 9.43618 14.6017 9.67472L13.9692 10.0542C13.6141 10.2673 13.1534 10.1521 12.9402 9.79696C12.7271 9.44177 12.8423 8.98108 13.1975 8.76797L13.83 8.38848C14.3412 8.08173 14.9271 7.95511 15.5 8.00843V4.87121C15.5 4.43411 15.2717 4.02876 14.8979 3.80221L11.3979 1.681C10.9997 1.43967 10.5003 1.43967 10.1021 1.681L6.60212 3.80221C6.22832 4.02876 6 4.43411 6 4.87121V8.01137C6.57522 7.95893 7.16328 8.08787 7.67533 8.39821L11.1753 10.5194C11.9977 11.0178 12.5 11.9096 12.5 12.8712V17.4114C12.5 18.9301 11.2688 20.1614 9.75 20.1614H2.75C1.23122 20.1614 0 18.9301 0 17.4114V12.8712C0 11.9096 0.502297 11.0178 1.32467 10.5194L4.51973 8.58302C4.50683 8.52789 4.5 8.47042 4.5 8.41136V4.87121C4.5 3.90959 5.0023 3.01783 5.82467 2.51942L9.32467 0.398206ZM6.89788 9.681C6.49967 9.43967 6.00033 9.43967 5.60212 9.681L2.10212 11.8022C1.72832 12.0288 1.5 12.4341 1.5 12.8712V17.4114C1.5 18.1017 2.05964 18.6614 2.75 18.6614H4V16.0111C4 15.2655 4.60442 14.6611 5.35 14.6611H7.15C7.89558 14.6611 8.5 15.2655 8.5 16.0111V18.6614H9.75C10.4404 18.6614 11 18.1017 11 17.4114V12.8712C11 12.4341 10.7717 12.0288 10.3979 11.8022L6.89788 9.681ZM7 18.6614H5.5V16.1611H7V18.6614Z" fill="#292927"/>
</g>
</svg>
