<svg preserveAspectRatio="xMidYMid meet" overflow="visible" style="display: block;" viewBox="0 0 24 24" fill="none" xmlns="http://www.w3.org/2000/svg">
<g transform="translate(4.7498, 1.2499)">
<path id="Vector" fill-rule="evenodd" clip-rule="evenodd" d="M9.41769 0.462128C9.57679 0.0796863 10.0158 -0.101371 10.3982 0.0577243C10.7807 0.21682 10.9617 0.655822 10.8026 1.03826L9.76263 3.53826C9.60354 3.92071 9.16454 4.10176 8.78209 3.94267C8.39965 3.78357 8.2186 3.34457 8.37769 2.96213L9.41769 0.462128ZM13.064 0.447297C13.2313 0.0683667 13.6741 -0.103205 14.0531 0.0640819C14.432 0.231368 14.6036 0.674165 14.4363 1.05309L11.0015 8.83342C13.0871 9.98191 14.5002 12.201 14.5002 14.7502C14.5002 18.4781 11.4781 21.5002 7.75016 21.5002C4.02224 21.5002 1.00016 18.4781 1.00016 14.7502C1.00016 12.3761 2.22586 10.2882 4.07898 9.08489L0.0793437 1.08561C-0.105898 0.715121 0.0442704 0.264617 0.414754 0.0793752C0.785238 -0.105866 1.23574 0.0443021 1.42098 0.414786L5.42015 8.41314C6.01082 8.19589 6.64027 8.05887 7.29528 8.01528L3.91111 1.07906C3.72948 0.706796 3.88403 0.257773 4.2563 0.0761442C4.62856 -0.105485 5.07759 0.0490589 5.25922 0.421327L9.01462 8.11843C9.21797 8.15697 9.41809 8.20463 9.61455 8.26097L13.064 0.447297ZM13.0002 14.7502C13.0002 12.0777 11.0033 9.87165 8.4203 9.54256C8.20086 9.51461 7.97719 9.5002 7.75016 9.5002C4.85067 9.5002 2.50016 11.8507 2.50016 14.7502C2.50016 17.6497 4.85067 20.0002 7.75016 20.0002C10.6497 20.0002 13.0002 17.6497 13.0002 14.7502ZM7.80017 11.65C8.02743 11.4796 8.33149 11.4521 8.58558 11.5792C8.83967 11.7062 9.00017 11.9659 9.00017 12.25V17.25C9.00017 17.6642 8.66438 18 8.25017 18C7.83596 18 7.50017 17.6642 7.50017 17.25V13.75L6.70017 14.35C6.3688 14.5985 5.8987 14.5314 5.65017 14.2C5.40164 13.8686 5.4688 13.3985 5.80017 13.15L7.80017 11.65Z" fill="#292927"/>
</g>
</svg>
