<svg preserveAspectRatio="xMidYMid meet" overflow="visible" style="display: block;" viewBox="0 0 24 24" fill="none" xmlns="http://www.w3.org/2000/svg">
<g transform="translate(2.2500, 2.2500)">
<path id="Vector" fill-rule="evenodd" clip-rule="evenodd" d="M0 0.75C0 0.335786 0.335786 0 0.75 0H5.25H9.75H14.25H18.75C19.1642 0 19.5 0.335786 19.5 0.75V5.25V9.75V14.25V18.75C19.5 19.1642 19.1642 19.5 18.75 19.5H14.25H9.75H5.25H0.75C0.335786 19.5 0 19.1642 0 18.75V14.25V9.75V5.25V0.75ZM6 18H9V15H6V18ZM4.5 15V18H1.5V15H4.5ZM6 13.5H9V10.5H6V13.5ZM4.5 10.5V13.5H1.5V10.5H4.5ZM6 9H9V6H6V9ZM4.5 6V9H1.5V6H4.5ZM6 4.5H9V1.5H6V4.5ZM4.5 1.5V4.5H1.5V1.5H4.5ZM10.5 1.5V4.5H13.5V1.5H10.5ZM10.5 6V9H13.5V6H10.5ZM10.5 10.5V13.5H13.5V10.5H10.5ZM10.5 15V18H13.5V15H10.5ZM15 18H18V15H15V18ZM15 13.5H18V10.5H15V13.5ZM15 9H18V6H15V9ZM15 4.5H18V1.5H15V4.5Z" fill="#292927"/>
</g>
</svg>
