<svg preserveAspectRatio="xMidYMid meet" overflow="visible" style="display: block;" viewBox="0 0 24 24" fill="none" xmlns="http://www.w3.org/2000/svg">
<g transform="translate(1.2500, 1.2500)">
<path id="Vector" fill-rule="evenodd" clip-rule="evenodd" d="M10.75 1.5C5.64137 1.5 1.5 5.64137 1.5 10.75C1.5 15.8586 5.64137 20 10.75 20C15.8586 20 20 15.8586 20 10.75C20 5.64137 15.8586 1.5 10.75 1.5ZM0 10.75C0 4.81294 4.81294 0 10.75 0C16.6871 0 21.5 4.81294 21.5 10.75C21.5 16.6871 16.6871 21.5 10.75 21.5C4.81294 21.5 0 16.6871 0 10.75ZM8.25 8.5C7.00736 8.5 6 9.50736 6 10.75C6 11.9926 7.00736 13 8.25 13C8.51432 13 8.76644 12.9547 9.00007 12.8722C9.3906 12.7341 9.8191 12.9388 9.95713 13.3294C10.0952 13.7199 9.89047 14.1484 9.49994 14.2864C9.108 14.425 8.68695 14.5 8.25 14.5C6.17893 14.5 4.5 12.8211 4.5 10.75C4.5 8.67893 6.17893 7 8.25 7C8.68695 7 9.108 7.07505 9.49994 7.21358C9.89047 7.35161 10.0952 7.7801 9.95713 8.17064C9.8191 8.56118 9.3906 8.76587 9.00007 8.62784C8.76644 8.54526 8.51432 8.5 8.25 8.5ZM12.25 10.75C12.25 9.50736 13.2574 8.5 14.5 8.5C14.7643 8.5 15.0164 8.54526 15.2501 8.62784C15.6406 8.76587 16.0691 8.56118 16.2071 8.17064C16.3452 7.7801 16.1405 7.35161 15.7499 7.21358C15.358 7.07505 14.937 7 14.5 7C12.4289 7 10.75 8.67893 10.75 10.75C10.75 12.8211 12.4289 14.5 14.5 14.5C14.937 14.5 15.358 14.425 15.7499 14.2864C16.1405 14.1484 16.3452 13.7199 16.2071 13.3294C16.0691 12.9388 15.6406 12.7341 15.2501 12.8722C15.0164 12.9547 14.7643 13 14.5 13C13.2574 13 12.25 11.9926 12.25 10.75Z" fill="#292927"/>
</g>
</svg>
