<svg preserveAspectRatio="xMidYMid meet" overflow="visible" style="display: block;" viewBox="0 0 24 24" fill="none" xmlns="http://www.w3.org/2000/svg">
<g transform="translate(1.2500, 5.2500)">
<path id="Vector" fill-rule="evenodd" clip-rule="evenodd" d="M1.5 1.5V10H20V1.5H1.5ZM0 1.35C0 0.604415 0.604417 0 1.35 0H20.15C20.8956 0 21.5 0.604417 21.5 1.35V10.15C21.5 10.8956 20.8956 11.5 20.15 11.5H1.35C0.604415 11.5 0 10.8956 0 10.15V1.35ZM2.75 12C2.33579 12 2 12.3358 2 12.75C2 13.1642 2.33579 13.5 2.75 13.5H4.75C5.16421 13.5 5.5 13.1642 5.5 12.75C5.5 12.3358 5.16421 12 4.75 12H2.75ZM16.75 12C16.3358 12 16 12.3358 16 12.75C16 13.1642 16.3358 13.5 16.75 13.5H18.75C19.1642 13.5 19.5 13.1642 19.5 12.75C19.5 12.3358 19.1642 12 18.75 12H16.75ZM4.31748 4.25075C4.59457 3.94287 4.56961 3.46865 4.26173 3.19156C3.95385 2.91447 3.47963 2.93942 3.20254 3.24731L3.19254 3.25842C2.91544 3.5663 2.9404 4.04052 3.24828 4.31761C3.55616 4.59471 4.03038 4.56975 4.30748 4.26186L4.31748 4.25075ZM7.26173 3.19156C7.56961 3.46865 7.59457 3.94287 7.31748 4.25075L7.30748 4.26186C7.03038 4.56975 6.55616 4.59471 6.24828 4.31761C5.9404 4.04052 5.91544 3.5663 6.19254 3.25842L6.20254 3.24731C6.47963 2.93942 6.95385 2.91447 7.26173 3.19156ZM10.3175 4.25075C10.5946 3.94287 10.5696 3.46865 10.2617 3.19156C9.95385 2.91447 9.47963 2.93942 9.20254 3.24731L9.19254 3.25842C8.91544 3.5663 8.9404 4.04052 9.24828 4.31761C9.55616 4.59471 10.0304 4.56975 10.3075 4.26186L10.3175 4.25075ZM4.26173 7.19156C4.56961 7.46865 4.59457 7.94287 4.31748 8.25075L4.30748 8.26186C4.03038 8.56975 3.55616 8.59471 3.24828 8.31761C2.9404 8.04052 2.91544 7.5663 3.19254 7.25842L3.20254 7.24731C3.47963 6.93942 3.95385 6.91446 4.26173 7.19156ZM7.31748 8.25075C7.59457 7.94287 7.56961 7.46865 7.26173 7.19156C6.95385 6.91446 6.47963 6.93942 6.20254 7.24731L6.19254 7.25842C5.91544 7.5663 5.9404 8.04052 6.24828 8.31761C6.55616 8.59471 7.03038 8.56975 7.30748 8.26186L7.31748 8.25075ZM10.2617 7.19156C10.5696 7.46865 10.5946 7.94287 10.3175 8.25075L10.3075 8.26186C10.0304 8.56975 9.55616 8.59471 9.24828 8.31761C8.9404 8.04052 8.91544 7.5663 9.19254 7.25842L9.20254 7.24731C9.47963 6.93942 9.95385 6.91446 10.2617 7.19156ZM14.5 5.75C14.5 5.05964 15.0596 4.5 15.75 4.5C16.4404 4.5 17 5.05964 17 5.75C17 6.44036 16.4404 7 15.75 7C15.0596 7 14.5 6.44036 14.5 5.75ZM15.75 3C14.2312 3 13 4.23122 13 5.75C13 7.26878 14.2312 8.5 15.75 8.5C17.2688 8.5 18.5 7.26878 18.5 5.75C18.5 4.23122 17.2688 3 15.75 3Z" fill="#292927"/>
</g>
</svg>
