<svg preserveAspectRatio="xMidYMid meet" overflow="visible" style="display: block;" viewBox="0 0 24 24" fill="none" xmlns="http://www.w3.org/2000/svg">
<g transform="translate(6.2500, 4.0000)">
<path id="Vector" fill-rule="evenodd" clip-rule="evenodd" d="M11.4431 4.53709C11.4065 4.62555 11.3522 4.70842 11.2803 4.78033L7.78033 8.28033C7.48744 8.57322 7.01256 8.57322 6.71967 8.28033C6.42678 7.98744 6.42678 7.51256 6.71967 7.21967L8.93934 5H4.75C2.95507 5 1.5 6.45507 1.5 8.25V15.25C1.5 15.6642 1.16421 16 0.75 16C0.335787 16 0 15.6642 0 15.25V8.25C0 5.62665 2.12665 3.5 4.75 3.5H8.93934L6.71967 1.28033C6.42678 0.987436 6.42678 0.512563 6.71967 0.21967C7.01256 -0.0732232 7.48744 -0.0732232 7.78033 0.21967L11.2803 3.71967C11.3522 3.79158 11.4065 3.87445 11.4431 3.96291C11.4798 4.05134 11.5 4.14831 11.5 4.25C11.5 4.35169 11.4798 4.44866 11.4431 4.53709Z" fill="#292927"/>
</g>
</svg>
