<svg preserveAspectRatio="xMidYMid meet" overflow="visible" style="display: block;" viewBox="0 0 24 24" fill="none" xmlns="http://www.w3.org/2000/svg">
<g transform="translate(1.5000, 3.0001)">
<path id="Vector" fill-rule="evenodd" clip-rule="evenodd" d="M6.00001 5.24966C6.00002 5.66387 5.66424 5.99965 5.25003 5.99966L1.25013 5.99977C0.835914 5.99978 0.500118 5.664 0.500107 5.24979C0.500096 4.83558 0.835873 4.49978 1.25009 4.49977L3.4393 4.49971L0.219691 1.28035C-0.0732138 0.987469 -0.0732327 0.512595 0.219649 0.219691C0.512531 -0.0732141 0.987405 -0.0732325 1.28031 0.219649L4.50001 3.4391L4.5 1.25C4.5 0.835789 4.83578 0.500001 5.25 0.5C5.66421 0.499998 6 0.835783 6 1.25L6.00001 5.24966ZM9.21968 9.21951C9.51258 8.92662 9.98745 8.92662 10.2803 9.21951L13.7803 12.7195C14.0732 13.0124 14.0732 13.4873 13.7803 13.7802C13.4874 14.0731 13.0126 14.0731 12.7197 13.7802L9.21968 10.2802C8.92679 9.98728 8.92679 9.5124 9.21968 9.21951ZM6.00001 13.5832C6.00001 9.9631 9.00611 6.99984 12.75 6.99984C16.4939 6.99984 19.5 9.9631 19.5 13.5832C19.5 14.5993 19.2645 15.56 18.844 16.4181C18.8288 16.449 18.7779 16.4998 18.6764 16.4998H6.82366C6.72213 16.4998 6.67119 16.449 6.65603 16.4181C6.23551 15.56 6.00001 14.5993 6.00001 13.5832ZM12.75 5.49984C8.20964 5.49984 4.50001 9.10307 4.50001 13.5832C4.50001 14.8339 4.79047 16.0199 5.30907 17.0782C5.605 17.682 6.21826 17.9998 6.82366 17.9998H18.6764C19.2818 17.9998 19.895 17.682 20.191 17.0782C20.7096 16.0199 21 14.8339 21 13.5832C21 9.10307 17.2904 5.49984 12.75 5.49984Z" fill="#292927"/>
</g>
</svg>
