<svg preserveAspectRatio="xMidYMid meet" overflow="visible" style="display: block;" viewBox="0 0 24 24" fill="none" xmlns="http://www.w3.org/2000/svg">
<g transform="translate(2.2500, 2.2500)">
<path id="Vector" fill-rule="evenodd" clip-rule="evenodd" d="M9.15552e-05 2.75C9.15552e-05 4.26878 1.23131 5.5 2.75009 5.5C4.00887 5.5 5.07011 4.65425 5.39658 3.5H6.75009C7.16431 3.5 7.50009 3.16421 7.50009 2.75C7.50009 2.33579 7.16431 2 6.75009 2H5.39658C5.07011 0.845747 4.00887 0 2.75009 0C1.23131 0 9.15552e-05 1.23122 9.15552e-05 2.75ZM2.75009 4C2.05974 4 1.50009 3.44036 1.50009 2.75C1.50009 2.05964 2.05974 1.5 2.75009 1.5C3.44045 1.5 4.00009 2.05964 4.00009 2.75C4.00009 3.44036 3.44045 4 2.75009 4ZM1.3861 19.1475L1.38736 19.1455L1.39224 19.1377L1.41272 19.1053C1.43109 19.0763 1.45884 19.0326 1.49558 18.9753C1.56908 18.8608 1.67859 18.6917 1.82116 18.4759C2.10637 18.0443 2.52365 17.4261 3.04962 16.6835C4.10246 15.1971 5.58642 13.2189 7.31453 11.2439C9.04585 9.26523 11.0042 7.31074 13.0037 5.85655C15.0187 4.39109 16.9855 3.5 18.7501 3.5C19.1643 3.5 19.5001 3.16421 19.5001 2.75C19.5001 2.33579 19.1643 2 18.7501 2C16.5147 2 14.2315 3.10891 12.1215 4.64345C9.99598 6.18926 7.95435 8.23477 6.18567 10.2561C4.41378 12.2811 2.89774 14.3029 1.82558 15.8165C1.28905 16.5739 0.862584 17.2057 0.569661 17.6491C0.423177 17.8708 0.310023 18.0454 0.233133 18.1653C0.194686 18.2252 0.165299 18.2714 0.14534 18.3029L0.122515 18.3391L0.11649 18.3487L0.114839 18.3513C0.114693 18.3516 0.114102 18.3525 0.7501 18.75L0.114102 18.3525C-0.105431 18.7038 0.0013488 19.1665 0.352601 19.386C0.703854 19.6055 1.16657 19.4988 1.3861 19.1475ZM9.75009 2C9.33588 2 9.00009 2.33579 9.00009 2.75C9.00009 3.16421 9.33588 3.5 9.75009 3.5H11.7501C12.1643 3.5 12.5001 3.16421 12.5001 2.75C12.5001 2.33579 12.1643 2 11.7501 2H9.75009Z" fill="#292927"/>
</g>
</svg>
