<svg preserveAspectRatio="xMidYMid meet" overflow="visible" style="display: block;" viewBox="0 0 24 24" fill="none" xmlns="http://www.w3.org/2000/svg">
<g transform="translate(2.2498, 2.3900)">
<path id="Vector" fill-rule="evenodd" clip-rule="evenodd" d="M0.00029296 1.74983C0.000387315 0.783397 0.783862 0 1.75029 0H17.7504C18.7169 0 19.5004 0.783501 19.5004 1.75V4.75C19.5004 4.96894 19.4047 5.17696 19.2385 5.31944L12.5877 11.0201C12.5323 11.0676 12.5004 11.137 12.5004 11.2099V17.4692C12.5004 18.6077 11.4305 19.4431 10.326 19.167L8.32595 18.667C7.54691 18.4722 7.00039 17.7722 7.00039 16.9692V11.21C7.00039 11.137 6.9685 11.0676 6.91308 11.0201L0.261922 5.31946C0.0956589 5.17695 -2.13945e-05 4.9689 3.58835e-09 4.74993L0.00029296 1.74983ZM1.75029 1.5C1.61223 1.5 1.50031 1.61191 1.50029 1.74998L1.50007 4H18.0004V1.75C18.0004 1.61193 17.8885 1.5 17.7504 1.5H1.75029ZM16.7229 5.5H2.77753L7.88924 9.88122C8.27714 10.2137 8.50039 10.6991 8.50039 11.21V16.9692C8.50039 17.0839 8.57846 17.1839 8.68976 17.2118L10.6898 17.7118C10.8475 17.7512 11.0004 17.6319 11.0004 17.4692V11.2099C11.0004 10.6991 11.2236 10.2137 11.6115 9.88124L16.7229 5.5Z" fill="#292927"/>
</g>
</svg>
