<svg preserveAspectRatio="xMidYMid meet" overflow="visible" style="display: block;" viewBox="0 0 24 24" fill="none" xmlns="http://www.w3.org/2000/svg">
<g transform="translate(1.7499, 2.2500)">
<path id="Vector" fill-rule="evenodd" clip-rule="evenodd" d="M1.75 0C2.16421 0 2.5 0.335786 2.5 0.75V2H5V0.75C5 0.335786 5.33579 0 5.75 0C6.16421 0 6.5 0.335786 6.5 0.75V2.04581C7.07591 2.19998 7.5 2.72546 7.5 3.35V4.75C7.5 6.26878 6.26878 7.5 4.75 7.5H4.5V16.75C4.5 17.4404 5.05964 18 5.75 18H14.75C15.4404 18 16 17.4404 16 16.75V11.75C16 11.3358 16.3358 11 16.75 11C17.1642 11 17.5 11.3358 17.5 11.75V16.75C17.5 18.2688 16.2688 19.5 14.75 19.5H5.75C4.23122 19.5 3 18.2688 3 16.75V7.5H2.75C1.23122 7.5 0 6.26878 0 4.75V3.35C0 2.72546 0.424089 2.19998 1 2.04581V0.75C1 0.335786 1.33579 0 1.75 0ZM5.75 3.5H1.75H1.5V4.75C1.5 5.44036 2.05964 6 2.75 6H3.75H4.75C5.44036 6 6 5.44036 6 4.75V3.5H5.75ZM11.2197 7.28033C11.079 7.13968 11 6.94891 11 6.75V4.75V2.75C11 2.33579 11.3358 2 11.75 2H13.75C14.1642 2 14.5 2.33579 14.5 2.75C14.5 3.16421 14.1642 3.5 13.75 3.5H12.5V4H13.25C13.6642 4 14 4.33579 14 4.75C14 5.16421 13.6642 5.5 13.25 5.5H12.5V6H13.75C14.1642 6 14.5 6.33579 14.5 6.75C14.5 7.16421 14.1642 7.5 13.75 7.5H11.75C11.5511 7.5 11.3603 7.42098 11.2197 7.28033ZM15.4146 2.07934C15.7851 1.8941 16.2356 2.04427 16.4208 2.41475L17.75 5.07311L19.0792 2.41475C19.2644 2.04427 19.7149 1.8941 20.0854 2.07934C20.4559 2.26459 20.6061 2.71509 20.4208 3.08557L18.4208 7.08558C18.2938 7.33966 18.0341 7.50016 17.75 7.50016C17.4659 7.50016 17.2062 7.33966 17.0792 7.08558L15.0792 3.08557C14.8939 2.71509 15.0441 2.26459 15.4146 2.07934Z" fill="#292927"/>
</g>
</svg>
