<svg preserveAspectRatio="xMidYMid meet" overflow="visible" style="display: block;" viewBox="0 0 24 24" fill="none" xmlns="http://www.w3.org/2000/svg">
<g transform="translate(5.2500, 4.3856)">
<path id="Vector" fill-rule="evenodd" clip-rule="evenodd" d="M4.46037 7.61439L12 13.5667V1.66205L4.46037 7.61439ZM11.3135 0.292927C12.1988 -0.405994 13.5 0.224585 13.5 1.35252V13.8763C13.5 15.0042 12.1988 15.6348 11.3135 14.9359L3.38178 8.67398C2.69714 8.13347 2.69714 7.0953 3.38178 6.5548L11.3135 0.292927ZM0 2.61426C0 2.20004 0.335786 1.86426 0.75 1.86426C1.16421 1.86426 1.5 2.20004 1.5 2.61426V12.6143C1.5 13.0285 1.16421 13.3643 0.75 13.3643C0.335786 13.3643 0 13.0285 0 12.6143V2.61426Z" fill="#292927"/>
</g>
</svg>
