<svg preserveAspectRatio="xMidYMid meet" overflow="visible" style="display: block;" viewBox="0 0 24 24" fill="none" xmlns="http://www.w3.org/2000/svg">
<g transform="translate(0.2500, 2.2500)">
<path id="Vector" fill-rule="evenodd" clip-rule="evenodd" d="M6.75 1.5C3.8505 1.5 1.5 3.85051 1.5 6.75V12.75C1.5 15.6495 3.85051 18 6.75 18H16.75C19.6495 18 22 15.6495 22 12.75V6.75C22 3.85051 19.6495 1.5 16.75 1.5H6.75ZM0 6.75C0 3.02208 3.02208 0 6.75 0H16.75C20.4779 0 23.5 3.02208 23.5 6.75V12.75C23.5 16.4779 20.4779 19.5 16.75 19.5H6.75C3.02208 19.5 0 16.4779 0 12.75V6.75ZM8.75 7.5C7.50736 7.5 6.5 8.50736 6.5 9.75C6.5 10.9926 7.50736 12 8.75 12C9.99264 12 11 10.9926 11 9.75C11 8.50736 9.99264 7.5 8.75 7.5ZM5 9.75C5 7.67893 6.67893 6 8.75 6C10.8211 6 12.5 7.67893 12.5 9.75C12.5 11.8211 10.8211 13.5 8.75 13.5C6.67893 13.5 5 11.8211 5 9.75ZM18.5 6.75006C18.5 6.33584 18.1642 6.00006 17.75 6.00006C17.3358 6.00006 17 6.33584 17 6.75006V10.273L14.374 6.33403C14.1907 6.05904 13.849 5.93647 13.5327 6.03224C13.2163 6.12801 13 6.41956 13 6.75006V12.7501C13 13.1643 13.3358 13.5001 13.75 13.5001C14.1642 13.5001 14.5 13.1643 14.5 12.7501V9.22714L17.126 13.1661C17.3093 13.4411 17.651 13.5637 17.9673 13.4679C18.2837 13.3721 18.5 13.0806 18.5 12.7501V6.75006Z" fill="#292927"/>
</g>
</svg>
