<svg preserveAspectRatio="xMidYMid meet" overflow="visible" style="display: block;" viewBox="0 0 24 24" fill="none" xmlns="http://www.w3.org/2000/svg">
<g transform="translate(0.2500, 1.2500)">
<path id="Vector" fill-rule="evenodd" clip-rule="evenodd" d="M6.5 6.75C6.5 5.72236 6.51553 4.43186 7.14312 3.38587C7.72061 2.42338 8.93264 1.5 11.75 1.5C14.5674 1.5 15.7794 2.42338 16.3569 3.38587C16.9845 4.43186 17 5.72236 17 6.75C17 7.16421 17.3358 7.5 17.75 7.5C18.4633 7.5 19.55 7.72016 20.4368 8.35865C21.2853 8.9696 22 9.99444 22 11.75C22 12.9455 21.6684 13.7884 21.2126 14.3893C20.7508 14.9981 20.1258 15.4045 19.4764 15.6589C19.0908 15.81 18.9006 16.2451 19.0517 16.6308C19.2027 17.0165 19.6379 17.2067 20.0236 17.0556C20.8679 16.7248 21.743 16.1721 22.4077 15.2958C23.0784 14.4116 23.5 13.2434 23.5 11.75C23.5 9.50556 22.548 8.0304 21.3132 7.14135C20.3993 6.48336 19.359 6.16468 18.4937 6.05083C18.4675 5.07248 18.3327 3.76348 17.6431 2.61413C16.7206 1.07662 14.9326 0 11.75 0C8.56736 0 6.77939 1.07662 5.85688 2.61413C5.16727 3.76348 5.03248 5.07248 5.00627 6.05083C4.14099 6.16468 3.10065 6.48336 2.18677 7.14135C0.951983 8.0304 0 9.50556 0 11.75C0 13.2434 0.42158 14.4116 1.09232 15.2958C1.75705 16.1721 2.63209 16.7248 3.47645 17.0556C3.86213 17.2067 4.29726 17.0165 4.44833 16.6308C4.59941 16.2451 4.40923 15.81 4.02355 15.6589C3.37419 15.4045 2.74923 14.9981 2.28739 14.3893C1.83156 13.7884 1.5 12.9455 1.5 11.75C1.5 9.99444 2.21468 8.9696 3.06323 8.35865C3.95002 7.72016 5.03668 7.5 5.75 7.5C6.16421 7.5 6.5 7.16421 6.5 6.75ZM11.75 12C12.1642 12 12.5 12.3358 12.5 12.75V14.75C12.5 15.1642 12.1642 15.5 11.75 15.5C11.3358 15.5 11 15.1642 11 14.75V12.75C11 12.3358 11.3358 12 11.75 12ZM11.75 18C12.1642 18 12.5 18.3358 12.5 18.75V20.75C12.5 21.1642 12.1642 21.5 11.75 21.5C11.3358 21.5 11 21.1642 11 20.75V18.75C11 18.3358 11.3358 18 11.75 18ZM8.5 16.75C8.5 16.3358 8.16421 16 7.75 16C7.33579 16 7 16.3358 7 16.75V18.75C7 19.1642 7.33579 19.5 7.75 19.5C8.16421 19.5 8.5 19.1642 8.5 18.75V16.75ZM15.75 16C16.1642 16 16.5 16.3358 16.5 16.75V18.75C16.5 19.1642 16.1642 19.5 15.75 19.5C15.3358 19.5 15 19.1642 15 18.75V16.75C15 16.3358 15.3358 16 15.75 16Z" fill="#292927"/>
</g>
</svg>
