<svg preserveAspectRatio="xMidYMid meet" overflow="visible" style="display: block;" viewBox="0 0 24 24" fill="none" xmlns="http://www.w3.org/2000/svg">
<g transform="translate(2.2500, 2.2500)">
<path id="Vector" fill-rule="evenodd" clip-rule="evenodd" d="M2.75 1.5C2.05964 1.5 1.5 2.05964 1.5 2.75V16.75C1.5 17.4404 2.05964 18 2.75 18H16.75C17.4404 18 18 17.4404 18 16.75V2.75C18 2.05964 17.4404 1.5 16.75 1.5H2.75ZM0 2.75C0 1.23122 1.23122 0 2.75 0H16.75C18.2688 0 19.5 1.23122 19.5 2.75V16.75C19.5 18.2688 18.2688 19.5 16.75 19.5H2.75C1.23122 19.5 0 18.2688 0 16.75V2.75ZM11 7.75C11 7.33579 11.3358 7 11.75 7H14.75C15.1642 7 15.5 7.33579 15.5 7.75C15.5 8.16421 15.1642 8.5 14.75 8.5H11.75C11.3358 8.5 11 8.16421 11 7.75ZM4.75 7C4.33579 7 4 7.33579 4 7.75C4 8.16421 4.33579 8.5 4.75 8.5H7.58333L9.05769 12.0385C9.17414 12.3179 9.44722 12.5 9.75 12.5H14.75C15.1642 12.5 15.5 12.1642 15.5 11.75C15.5 11.3358 15.1642 11 14.75 11H10.25L8.77564 7.46154C8.65919 7.18205 8.38611 7 8.08333 7H4.75Z" fill="#292927"/>
</g>
</svg>
