<svg preserveAspectRatio="xMidYMid meet" overflow="visible" style="display: block;" viewBox="0 0 24 24" fill="none" xmlns="http://www.w3.org/2000/svg">
<g transform="translate(3.5000, 1.2502)">
<path id="Vector" fill-rule="evenodd" clip-rule="evenodd" d="M12 3.5H10.5V6.25042V8.74998V8.7504C10.5 9.16462 10.1642 9.50042 9.74999 9.50042C9.33577 9.50042 8.99999 9.16386 8.99999 8.74965V8.74923V6.25042C8.99999 5.85012 8.87283 5.61893 8.74675 5.49084C8.61448 5.35648 8.43574 5.28613 8.24999 5.28613C8.06423 5.28613 7.88549 5.35648 7.75323 5.49084C7.62714 5.61893 7.49999 5.85035 7.49999 6.25065V7.03557V8.74985V8.75041C7.49999 9.16462 7.1642 9.50042 6.74999 9.50042C6.33577 9.50042 5.99999 9.1637 5.99999 8.74948V8.74893V7.03557C5.99999 6.63528 5.87283 6.40409 5.74675 6.276C5.61448 6.14164 5.43574 6.07129 5.24999 6.07129C5.06423 6.07129 4.88549 6.14164 4.75323 6.276C4.62714 6.40409 4.49999 6.63528 4.49999 7.03557V8.16872L4.5 8.17815V8.74958C4.5 8.76176 4.49971 8.77387 4.49914 8.78591C4.48032 9.18339 4.15211 9.49986 3.74999 9.49986C3.33577 9.49986 2.99999 9.1633 2.99999 8.74908V8.17106C2.99849 7.77512 2.8721 7.5459 2.74676 7.41858C2.6145 7.28421 2.43575 7.21387 2.25 7.21387C2.06425 7.21387 1.8855 7.28421 1.75324 7.41858C1.62715 7.54666 1.5 7.77786 1.5 8.17815V16.6535C1.66293 17.2535 2.02637 18.119 2.59326 18.8219C3.16414 19.5298 3.87564 19.9996 4.75 19.9996H9.37113C9.72114 19.9996 10.0546 19.8528 10.2916 19.5942L14.0755 15.4664C14.482 15.0229 14.515 14.3529 14.1541 13.8717L13.5 12.9996V13.75C13.5 14.1642 13.1642 14.5 12.75 14.5C12.3358 14.5 12 14.1642 12 13.75V10.757V10.7433V3.5ZM9.0136 2H7.49999C6.39542 2 5.49999 2.89543 5.49999 4V4.25C5.49999 4.36612 5.5113 4.47959 5.53287 4.58938C5.43884 4.57731 5.34432 4.57129 5.24999 4.57129C4.68574 4.57129 4.11448 4.78666 3.68425 5.22372C3.48629 5.42482 3.32713 5.66349 3.2123 5.93357C2.90857 5.78669 2.5781 5.71387 2.25 5.71387C1.68575 5.71387 1.1145 5.92923 0.68426 6.3663C0.247846 6.80964 0 7.43559 0 8.17815V16.6768C0 16.7853 0.0126657 16.8971 0.0432587 17.0124C0.243249 17.7661 0.689252 18.8505 1.42566 19.7636C2.16624 20.6819 3.26595 21.4996 4.75 21.4996H9.37113C10.1423 21.4996 10.8767 21.1758 11.3974 20.6078L15.1813 16.4799C16.0755 15.5044 16.1481 14.0304 15.3541 12.9717L13.5 10.4996V6H14.875C15.4216 6 15.9708 5.86898 16.3897 5.49549C16.8231 5.10907 17 4.56881 17 4C17 3.43119 16.8231 2.89093 16.3897 2.50451C15.9708 2.13102 15.4216 2 14.875 2H13.4863C13.3619 0.875012 12.4081 0 11.25 0C10.0921 0 9.13753 0.874139 9.0136 2ZM10.5424 2H11.9573C11.8544 1.7087 11.5765 1.5 11.25 1.5C10.9227 1.5 10.645 1.70879 10.5424 2ZM13.5 3.5V4.5H14.875C15.2033 4.5 15.3417 4.42024 15.3915 4.37583C15.4268 4.34436 15.5 4.25961 15.5 4C15.5 3.74039 15.4268 3.65564 15.3915 3.62417C15.3417 3.57976 15.2033 3.5 14.875 3.5H13.5ZM6.99999 4.17327C7.37556 3.91421 7.81486 3.78613 8.24999 3.78613C8.50303 3.78613 8.75748 3.82945 8.99999 3.91664V3.5H7.49999C7.22384 3.5 6.99999 3.72386 6.99999 4V4.17327Z" fill="#292927"/>
</g>
</svg>
