<svg preserveAspectRatio="xMidYMid meet" overflow="visible" style="display: block;" viewBox="0 0 24 24" fill="none" xmlns="http://www.w3.org/2000/svg">
<g transform="translate(2.2500, 2.2500)">
<path id="Vector" fill-rule="evenodd" clip-rule="evenodd" d="M0 0.75C0 0.335786 0.335786 0 0.75 0H6.75C6.94891 0 7.13968 0.0790176 7.28033 0.21967C7.42098 0.360322 7.5 0.551088 7.5 0.75V12H18.75C19.1642 12 19.5 12.3358 19.5 12.75V18.75C19.5 19.1642 19.1642 19.5 18.75 19.5H14.75H10.75H6.75H0.75C0.335786 19.5 0 19.1642 0 18.75V12.75V8.75V4.75V0.75ZM15.5 18V16.75C15.5 16.3358 15.1642 16 14.75 16C14.3358 16 14 16.3358 14 16.75V18H11.5V16.75C11.5 16.3358 11.1642 16 10.75 16C10.3358 16 10 16.3358 10 16.75V18H7.5V16.75C7.5 16.3358 7.16421 16 6.75 16C6.33579 16 6 16.3358 6 16.75V18H1.5V13.5H2.75C3.16421 13.5 3.5 13.1642 3.5 12.75C3.5 12.3358 3.16421 12 2.75 12H1.5V9.5H2.75C3.16421 9.5 3.5 9.16421 3.5 8.75C3.5 8.33579 3.16421 8 2.75 8H1.5V5.5H2.75C3.16421 5.5 3.5 5.16421 3.5 4.75C3.5 4.33579 3.16421 4 2.75 4H1.5V1.5H6V12.75C6 13.1642 6.33579 13.5 6.75 13.5H18V18H15.5Z" fill="#292927"/>
</g>
</svg>
