<svg preserveAspectRatio="xMidYMid meet" overflow="visible" style="display: block;" viewBox="0 0 24 24" fill="none" xmlns="http://www.w3.org/2000/svg">
<g transform="translate(1.2500, 1.2500)">
<path id="Vector" fill-rule="evenodd" clip-rule="evenodd" d="M10.75 1.5C5.64137 1.5 1.5 5.64137 1.5 10.75C1.5 15.8586 5.64137 20 10.75 20C11.3845 20 12.0034 19.9362 12.6008 19.815C13.0067 19.7326 13.4026 19.9948 13.485 20.4008C13.5674 20.8067 13.3051 21.2026 12.8992 21.285C12.2041 21.4261 11.4853 21.5 10.75 21.5C4.81294 21.5 0 16.6871 0 10.75C0 4.81294 4.81294 0 10.75 0C16.6871 0 21.5 4.81294 21.5 10.75C21.5 11.0226 21.4898 11.293 21.4699 11.5607C21.439 11.9738 21.0792 12.2837 20.6661 12.2528C20.253 12.222 19.9432 11.8621 19.974 11.4491C19.9912 11.2184 20 10.9853 20 10.75C20 5.64137 15.8586 1.5 10.75 1.5ZM10.75 4C11.1642 4 11.5 4.33579 11.5 4.75V16.75C11.5 17.1642 11.1642 17.5 10.75 17.5C10.3358 17.5 10 17.1642 10 16.75V4.75C10 4.33579 10.3358 4 10.75 4ZM8.5 7.75C8.5 7.33579 8.16421 7 7.75 7C7.33579 7 7 7.33579 7 7.75L7 13.75C7 14.1642 7.33579 14.5 7.75 14.5C8.16421 14.5 8.5 14.1642 8.5 13.75L8.5 7.75ZM16.75 9C17.1642 9 17.5 9.33579 17.5 9.75V11.75C17.5 12.1642 17.1642 12.5 16.75 12.5C16.3358 12.5 16 12.1642 16 11.75V9.75C16 9.33579 16.3358 9 16.75 9ZM5.5 9.75C5.5 9.33579 5.16421 9 4.75 9C4.33579 9 4 9.33579 4 9.75L4 11.75C4 12.1642 4.33579 12.5 4.75 12.5C5.16421 12.5 5.5 12.1642 5.5 11.75L5.5 9.75ZM13.75 5C14.1642 5 14.5 5.33579 14.5 5.75V15.75C14.5 16.1642 14.1642 16.5 13.75 16.5C13.3358 16.5 13 16.1642 13 15.75V5.75C13 5.33579 13.3358 5 13.75 5ZM18.25 13C17.3231 13 16.6805 13.4245 16.2981 13.9821C15.943 14.5 15.8333 15.0955 15.8333 15.5V16.6024C15.3441 16.8052 15 17.2874 15 17.85V20.15C15 20.8956 15.6044 21.5 16.35 21.5H20.15C20.8956 21.5 21.5 20.8956 21.5 20.15V17.85C21.5 17.2874 21.1559 16.8052 20.6667 16.6024V15.5C20.6667 15.0955 20.557 14.5 20.2019 13.9821C19.8195 13.4245 19.1769 13 18.25 13ZM19.1667 15.5V16.5H17.3333V15.5C17.3333 15.3212 17.3903 15.0417 17.5352 14.8304C17.6528 14.6589 17.8436 14.5 18.25 14.5C18.6564 14.5 18.8472 14.6589 18.9648 14.8304C19.1097 15.0417 19.1667 15.3212 19.1667 15.5ZM16.5 20V18H20V20H16.5Z" fill="#292927"/>
</g>
</svg>
