<svg preserveAspectRatio="xMidYMid meet" overflow="visible" style="display: block;" viewBox="0 0 24 24" fill="none" xmlns="http://www.w3.org/2000/svg">
<g transform="translate(1.2500, 1.2500)">
<path id="Vector" fill-rule="evenodd" clip-rule="evenodd" d="M6.25 1.5C5.78587 1.5 5.34075 1.68437 5.01256 2.01256C4.68437 2.34075 4.5 2.78587 4.5 3.25C4.5 3.71413 4.68437 4.15925 5.01256 4.48744C5.34075 4.81563 5.78587 5 6.25 5H9.75998C9.62159 4.59303 9.42387 4.09967 9.15534 3.61144C8.51174 2.44126 7.58293 1.5 6.25 1.5ZM3 3.25C3 3.87501 3.18003 4.48145 3.51137 5H1.35C0.604416 5 0 5.60442 0 6.35V10.15C0 10.8956 0.604417 11.5 1.35 11.5H2V20.15C2 20.8956 2.60442 21.5 3.35 21.5H10.75H18.15C18.8956 21.5 19.5 20.8956 19.5 20.15V11.5H20.15C20.8956 11.5 21.5 10.8956 21.5 10.15V6.35C21.5 5.60441 20.8956 5 20.15 5H17.9886C18.32 4.48145 18.5 3.87501 18.5 3.25C18.5 2.38805 18.1576 1.5614 17.5481 0.951903C16.9386 0.34241 16.112 0 15.25 0C13.0829 0 11.7617 1.55874 11.0303 2.88856C10.9279 3.07477 10.8347 3.26047 10.75 3.44221C10.6653 3.26047 10.5721 3.07477 10.4697 2.88856C9.73826 1.55874 8.41707 0 6.25 0C5.38805 0 4.5614 0.34241 3.9519 0.951903C3.34241 1.5614 3 2.38805 3 3.25ZM11.74 5H15.25C15.7141 5 16.1593 4.81563 16.4874 4.48744C16.8156 4.15925 17 3.71413 17 3.25C17 2.78587 16.8156 2.34075 16.4874 2.01256C16.1593 1.68437 15.7141 1.5 15.25 1.5C13.9171 1.5 12.9883 2.44126 12.3447 3.61144C12.0761 4.09967 11.8784 4.59303 11.74 5ZM11.5 6.5V10H18.75H20V6.5H15.25H11.5ZM6.25 6.5H10V10H2.75H1.5V6.5H6.25ZM11.5 20H18V11.5H11.5V20ZM10 11.5V20H3.5V11.5H10Z" fill="#292927"/>
</g>
</svg>
