<svg preserveAspectRatio="xMidYMid meet" overflow="visible" style="display: block;" viewBox="0 0 24 24" fill="none" xmlns="http://www.w3.org/2000/svg">
<g transform="translate(2.2500, 3.1137)">
<path id="Vector" fill-rule="evenodd" clip-rule="evenodd" d="M12.4265 9.28728C12.2611 8.90753 12.4348 8.46558 12.8146 8.30017C13.1943 8.13476 13.6363 8.30851 13.8017 8.68826C14.662 10.6632 15.1992 12.5545 15.3434 14.0708C15.4152 14.8259 15.3938 15.5305 15.2376 16.1203C15.0817 16.7088 14.7638 17.274 14.176 17.5734C13.5144 17.9105 12.7852 17.7746 12.1599 17.4862C11.5247 17.1933 10.8667 16.6885 10.2224 16.0539C8.95872 14.8093 7.62827 12.9465 6.49154 10.7506C6.1041 11.8341 5.84225 12.8397 5.71199 13.7046C5.59101 14.5079 5.59025 15.1467 5.67997 15.5981C5.77179 16.0601 5.92767 16.1974 6.00422 16.2364C6.12341 16.2971 6.51213 16.3329 7.29967 15.7741C7.63747 15.5344 8.10564 15.6139 8.34535 15.9517C8.58506 16.2895 8.50555 16.7576 8.16775 16.9974C7.32068 17.5985 6.2589 18.0497 5.32324 17.5729C4.66165 17.2358 4.343 16.566 4.20875 15.8906C4.0724 15.2045 4.09402 14.3755 4.22872 13.4812C4.43107 12.1377 4.90383 10.5492 5.61218 8.88594C5.35587 8.2841 5.13041 7.69207 4.93744 7.1179C4.46114 7.2234 4.0209 7.34371 3.62321 7.47628C2.85255 7.73316 2.28298 8.02252 1.92149 8.30741C1.55155 8.59896 1.5 8.80017 1.5 8.88608C1.5 9.02001 1.64496 9.38309 2.50199 9.83144C2.86902 10.0234 3.0109 10.4766 2.81889 10.8436C2.62689 11.2107 2.17371 11.3526 1.80668 11.1606C0.885389 10.6786 0 9.93702 0 8.88608C0 8.14357 0.45213 7.55557 0.993034 7.12929C1.54239 6.69635 2.29085 6.33926 3.14887 6.05325C3.5688 5.91327 4.02492 5.78707 4.51145 5.67623C4.38927 5.19225 4.29461 4.7284 4.22867 4.29056C4.09397 3.39622 4.07234 2.56722 4.2087 1.88119C4.34295 1.20571 4.6616 0.535912 5.32318 0.198819C6.11602 -0.205154 7.00062 0.0645366 7.72928 0.490294C8.08692 0.699262 8.20744 1.15859 7.99847 1.51623C7.7895 1.87386 7.33017 1.99439 6.97254 1.78542C6.38047 1.43947 6.09832 1.48735 6.00417 1.53533C5.92762 1.57433 5.77174 1.71161 5.67992 2.1736C5.5902 2.62502 5.59095 3.26387 5.71194 4.06716C5.77439 4.4818 5.86709 4.92882 5.98938 5.40126C6.47647 5.32911 6.98383 5.27075 7.5072 5.22733C8.38306 3.81136 9.31978 2.60692 10.2224 1.71788C10.8668 1.08323 11.5247 0.57846 12.1599 0.285529C12.7853 -0.00289312 13.5145 -0.138797 14.1761 0.198297C14.653 0.4413 14.9549 0.863127 15.1327 1.32533C15.3083 1.78182 15.3801 2.31683 15.3827 2.88221C15.3847 3.29642 15.0504 3.63377 14.6362 3.63571C14.222 3.63764 13.8847 3.30343 13.8827 2.88922C13.8806 2.43162 13.8209 2.09318 13.7327 1.86389C13.6467 1.64032 13.5525 1.56406 13.4951 1.53481C13.4185 1.4958 13.2158 1.45039 12.7881 1.64765C12.3702 1.8404 11.8538 2.21652 11.275 2.78656C10.6551 3.39712 9.99899 4.19498 9.35342 5.13887C9.485 5.13702 9.61722 5.13608 9.75 5.13608C12.2935 5.13608 14.6273 5.47863 16.3511 6.05325C17.2091 6.33926 17.9576 6.69635 18.507 7.12929C19.0479 7.55557 19.5 8.14357 19.5 8.88608C19.5 9.52586 19.1616 10.0537 18.7282 10.4544C18.2951 10.8548 17.7066 11.189 17.0357 11.4653C16.6527 11.6231 16.2143 11.4405 16.0565 11.0575C15.8988 10.6745 16.0813 10.2362 16.4643 10.0784C17.0442 9.83952 17.4557 9.58804 17.7099 9.35298C17.9638 9.11818 18 8.96073 18 8.88608C18 8.80017 17.9485 8.59896 17.5785 8.30741C17.217 8.02252 16.6475 7.73316 15.8768 7.47628C14.3433 6.96511 12.1771 6.63608 9.75 6.63608C9.28695 6.63608 8.8334 6.64806 8.39192 6.67099C8.17128 7.05361 7.95491 7.45194 7.74488 7.86413C7.57 8.20736 7.40549 8.54849 7.25149 8.88593C7.40547 9.22334 7.56997 9.56443 7.74483 9.90761C8.84671 12.0702 10.1233 13.8509 11.2749 14.9852C11.8537 15.5552 12.3701 15.9313 12.7881 16.1241C13.2158 16.3214 13.4185 16.2759 13.495 16.2369C13.5634 16.2021 13.6932 16.0925 13.7876 15.7363C13.8816 15.3814 13.9127 14.8714 13.8501 14.2128C13.7254 12.9016 13.2459 11.1684 12.4265 9.28728ZM6.43225 6.85327C6.45167 6.90904 6.47143 6.96503 6.49153 7.02124C6.52429 6.95795 6.55721 6.89494 6.59028 6.83222C6.53733 6.83907 6.48465 6.84609 6.43225 6.85327ZM10.3175 8.38684C10.5946 8.07896 10.5696 7.60474 10.2617 7.32764C9.95385 7.05055 9.47963 7.07551 9.20254 7.38339L9.19254 7.3945C8.91544 7.70238 8.9404 8.1766 9.24828 8.45369C9.55616 8.73079 10.0304 8.70583 10.3075 8.39795L10.3175 8.38684Z" fill="#292927"/>
</g>
</svg>
