<svg preserveAspectRatio="xMidYMid meet" overflow="visible" style="display: block;" viewBox="0 0 24 24" fill="none" xmlns="http://www.w3.org/2000/svg">
<g transform="translate(2.2500, 3.2500)">
<path id="Vector" fill-rule="evenodd" clip-rule="evenodd" d="M10.5 0.75C10.5 0.335786 10.1642 0 9.75 0C9.33579 0 9 0.335786 9 0.75V4H6.75C5.23122 4 4 5.23122 4 6.75V7.75C4 8.16421 4.33579 8.5 4.75 8.5C5.16421 8.5 5.5 8.16421 5.5 7.75V6.75C5.5 6.05964 6.05964 5.5 6.75 5.5H12.75C13.4404 5.5 14 6.05964 14 6.75V7.75C14 8.16421 14.3358 8.5 14.75 8.5C15.1642 8.5 15.5 8.16421 15.5 7.75V6.75C15.5 5.23122 14.2688 4 12.75 4H10.5V0.75ZM7.5 13.75C7.5 12.5074 8.50736 11.5 9.75 11.5C10.9926 11.5 12 12.5074 12 13.75C12 14.9926 10.9926 16 9.75 16C8.50736 16 7.5 14.9926 7.5 13.75ZM13.425 13C13.0775 11.2883 11.5642 10 9.75 10C7.93578 10 6.42247 11.2883 6.07501 13H0.75C0.335786 13 0 13.3358 0 13.75C0 14.1642 0.335786 14.5 0.75 14.5H6.07501C6.42247 16.2117 7.93578 17.5 9.75 17.5C11.5642 17.5 13.0775 16.2117 13.425 14.5H18.75C19.1642 14.5 19.5 14.1642 19.5 13.75C19.5 13.3358 19.1642 13 18.75 13H13.425Z" fill="#292927"/>
</g>
</svg>
