<svg preserveAspectRatio="xMidYMid meet" overflow="visible" style="display: block;" viewBox="0 0 24 24" fill="none" xmlns="http://www.w3.org/2000/svg">
<g transform="translate(2.0000, 2.2961)">
<path id="Vector" fill-rule="evenodd" clip-rule="evenodd" d="M0.334055 1.03359C-0.0105919 1.26336 -0.103722 1.72901 0.126042 2.07366C0.355806 2.4183 0.821458 2.51143 1.1661 2.28167L2.30396 1.5231L11.9147 6.32845C12.2852 6.51369 12.7357 6.36353 12.9209 5.99304C13.1061 5.62256 12.956 5.17205 12.5855 4.98681L2.89692 0.142527C2.46361 -0.0741292 1.94743 -0.0419932 1.54434 0.226735L0.334055 1.03359ZM11.0001 8.6578C11.0001 8.24358 10.6643 7.90779 10.2501 7.90779C9.83588 7.90779 9.50009 8.24358 9.50009 8.6578V16.6578C9.50009 17.3482 8.94045 17.9078 8.25009 17.9078H6.00009V13.2578C6.00009 12.5122 5.39568 11.9078 4.65009 11.9078H1.85009C1.10451 11.9078 0.500091 12.5122 0.500091 13.2578V18.0578C0.500091 18.8034 1.10451 19.4078 1.85009 19.4078H8.25009C9.76888 19.4078 11.0001 18.1766 11.0001 16.6578V8.6578ZM4.50009 13.4078V17.9078H2.00009V13.4078H4.50009ZM17.2501 12.4078C16.5597 12.4078 16.0001 12.9674 16.0001 13.6578C16.0001 14.3482 16.5597 14.9078 17.2501 14.9078C17.9404 14.9078 18.5001 14.3482 18.5001 13.6578C18.5001 12.9674 17.9404 12.4078 17.2501 12.4078ZM16.5001 11.0113C15.3458 11.3378 14.5001 12.399 14.5001 13.6578C14.5001 15.1766 15.7313 16.4078 17.2501 16.4078C18.7689 16.4078 20.0001 15.1766 20.0001 13.6578C20.0001 12.399 19.1543 11.3378 18.0001 11.0113V10.4078H19.2501C19.6643 10.4078 20.0001 10.072 20.0001 9.6578C20.0001 9.24358 19.6643 8.9078 19.2501 8.9078H18.0001V7.40779H19.2501C19.6643 7.40779 20.0001 7.07201 20.0001 6.65779C20.0001 6.24358 19.6643 5.90779 19.2501 5.90779H18.0001V5.15779C18.0001 4.74358 17.6643 4.40779 17.2501 4.40779C16.8359 4.40779 16.5001 4.74358 16.5001 5.15779V6.65779V9.6578V11.0113Z" fill="#292927"/>
</g>
</svg>
