<svg preserveAspectRatio="xMidYMid meet" overflow="visible" style="display: block;" viewBox="0 0 24 24" fill="none" xmlns="http://www.w3.org/2000/svg">
<g transform="translate(1.2500, 1.2500)">
<path id="Vector" fill-rule="evenodd" clip-rule="evenodd" d="M10.75 1.5C10.3199 1.5 9.89658 1.52936 9.48205 1.58618C9.4938 1.63891 9.5 1.69373 9.5 1.75V2.89286C9.5 4.0566 10.4434 5 11.6071 5C12.5076 5 13.246 5.32083 13.7574 5.85776C14.2594 6.38484 14.5 7.07559 14.5 7.75C14.5 8.16421 14.1642 8.5 13.75 8.5C13.3358 8.5 13 8.16421 13 7.75C13 7.42441 12.8835 7.11516 12.6712 6.89224C12.4683 6.67917 12.1353 6.5 11.6071 6.5C9.61497 6.5 8 4.88503 8 2.89286V1.91565C6.79644 2.2899 5.69824 2.90333 4.761 3.70034L13 11.9393V10.75C13 10.3358 13.3358 10 13.75 10C14.1642 10 14.5 10.3358 14.5 10.75V13.4393L17.7997 16.739C19.172 15.1253 20 13.0343 20 10.75C20 8.30388 19.0505 6.07952 17.5 4.42538L17.5 7.75C17.5 8.16421 17.1642 8.5 16.75 8.5C16.3358 8.5 16 8.16422 16 7.75L16 3.13318C14.5085 2.10321 12.6997 1.5 10.75 1.5ZM16.739 17.7997L13.4393 14.5H5.35C4.60442 14.5 4 13.8956 4 13.15V11.35C4 10.6044 4.60442 10 5.35 10H8.93934L3.70034 4.761C2.32804 6.37475 1.5 8.46567 1.5 10.75C1.5 15.8586 5.64137 20 10.75 20C13.0343 20 15.1253 19.172 16.739 17.7997ZM0 10.75C0 4.81294 4.81294 0 10.75 0C16.6871 0 21.5 4.81294 21.5 10.75C21.5 16.6871 16.6871 21.5 10.75 21.5C4.81294 21.5 0 16.6871 0 10.75ZM11.9393 13L10.4393 11.5H5.5V13H11.9393ZM17.5 10.75C17.5 10.3358 17.1642 10 16.75 10C16.3358 10 16 10.3358 16 10.75V13.75C16 14.1642 16.3358 14.5 16.75 14.5C17.1642 14.5 17.5 14.1642 17.5 13.75V10.75Z" fill="#292927"/>
</g>
</svg>
