<svg preserveAspectRatio="xMidYMid meet" overflow="visible" style="display: block;" viewBox="0 0 24 24" fill="none" xmlns="http://www.w3.org/2000/svg">
<g transform="translate(1.2500, 1.2500)">
<path id="Vector" fill-rule="evenodd" clip-rule="evenodd" d="M1.5 10.75C1.5 5.64137 5.64137 1.5 10.75 1.5C15.8586 1.5 20 5.64137 20 10.75C20 15.8586 15.8586 20 10.75 20C5.64137 20 1.5 15.8586 1.5 10.75ZM10.75 0C4.81294 0 0 4.81294 0 10.75C0 16.6871 4.81294 21.5 10.75 21.5C16.6871 21.5 21.5 16.6871 21.5 10.75C21.5 4.81294 16.6871 0 10.75 0ZM10.3044 6.67904C8.24111 6.87772 6.7295 8.71144 6.92818 10.7748C7.0243 11.773 7.51478 12.6445 8.23147 13.2538C8.71552 12.2382 9.364 11.1393 10.2007 10.2393C10.4827 9.93597 10.9573 9.91868 11.2607 10.2007C11.564 10.4827 11.5813 10.9573 11.2993 11.2607C10.8956 11.6949 10.5361 12.195 10.2199 12.7168C9.96778 13.1329 9.74311 13.5628 9.54535 13.9843C9.58961 13.9985 9.63418 14.0118 9.67907 14.0244C10.1185 14.1474 10.587 14.1931 11.0664 14.147C13.1864 13.9428 14.766 12.0546 14.5636 9.95294L14.2121 6.30277L10.3044 6.67904ZM5.43508 10.9186C5.58655 12.4916 6.42746 13.8302 7.6253 14.6807C7.44288 15.1639 7.30396 15.5888 7.20577 15.9123C7.14465 16.1136 7.09911 16.2763 7.06852 16.39C7.05322 16.4468 7.04165 16.4915 7.03372 16.5227L7.02455 16.5592L7.022 16.5696L7.02123 16.5728L7.02079 16.5746C6.92391 16.9773 7.17184 17.3823 7.57457 17.4792C7.97721 17.5761 8.38231 17.3276 8.4793 16.925L8.48072 16.9192L8.4875 16.8922C8.49378 16.8675 8.50359 16.8295 8.51701 16.7797C8.54384 16.68 8.58502 16.5327 8.64109 16.348C8.72033 16.087 8.82891 15.7525 8.96826 15.3727C9.0129 15.3881 9.05778 15.403 9.1029 15.4173C9.76587 15.6275 10.4796 15.7104 11.2102 15.6401C14.1364 15.3583 16.3402 12.7537 16.0567 9.80917L15.6822 5.91992C15.6155 5.22735 15 4.71997 14.3075 4.78666L10.1607 5.18595C7.27273 5.46403 5.15701 8.0306 5.43508 10.9186ZM7.74999 16.75L7.02079 16.5746C7.02075 16.5748 7.02079 16.5746 7.74999 16.75Z" fill="#292927"/>
</g>
</svg>
