<svg preserveAspectRatio="xMidYMid meet" overflow="visible" style="display: block;" viewBox="0 0 24 24" fill="none" xmlns="http://www.w3.org/2000/svg">
<g transform="translate(2.2500, 2.2500)">
<path id="Vector" fill-rule="evenodd" clip-rule="evenodd" d="M1.5 1.5H18V18H1.5V1.5ZM18.15 19.5C18.8956 19.5 19.5 18.8956 19.5 18.15V1.35C19.5 0.604418 18.8956 0 18.15 0H1.35C0.604418 0 0 0.604414 0 1.35V18.15C0 18.8956 0.604414 19.5 1.35 19.5H18.15ZM8.15903 7.09835C7.86613 6.80546 7.39126 6.80546 7.09837 7.09835C6.80547 7.39124 6.80547 7.86612 7.09837 8.15901L8.68936 9.75L7.09837 11.341C6.80547 11.6339 6.80547 12.1088 7.09837 12.4017C7.39126 12.6945 7.86613 12.6945 8.15903 12.4017L9.75002 10.8107L11.341 12.4017C11.6339 12.6945 12.1088 12.6945 12.4017 12.4017C12.6946 12.1088 12.6946 11.6339 12.4017 11.341L10.8107 9.75L12.4017 8.15901C12.6946 7.86612 12.6946 7.39124 12.4017 7.09835C12.1088 6.80546 11.6339 6.80546 11.341 7.09835L9.75002 8.68934L8.15903 7.09835Z" fill="#292927"/>
</g>
</svg>
