<svg preserveAspectRatio="xMidYMid meet" overflow="visible" style="display: block;" viewBox="0 0 24 24" fill="none" xmlns="http://www.w3.org/2000/svg">
<g transform="translate(0.2500, 0.2500)">
<path id="Vector" fill-rule="evenodd" clip-rule="evenodd" d="M11 1.75C11 2.16421 11.3358 2.5 11.75 2.5C12.1642 2.5 12.5 2.16421 12.5 1.75V0.75C12.5 0.335786 12.1642 0 11.75 0C11.3358 0 11 0.335786 11 0.75V1.75ZM11.75 6.5C8.8505 6.5 6.5 8.8505 6.5 11.75C6.5 14.6495 8.8505 17 11.75 17C14.6495 17 17 14.6495 17 11.75C17 8.8505 14.6495 6.5 11.75 6.5ZM5 11.75C5 8.02208 8.02208 5 11.75 5C15.4779 5 18.5 8.02208 18.5 11.75C18.5 15.4779 15.4779 18.5 11.75 18.5C8.02208 18.5 5 15.4779 5 11.75ZM21 11.75C21 11.3358 21.3358 11 21.75 11H22.75C23.1642 11 23.5 11.3358 23.5 11.75C23.5 12.1642 23.1642 12.5 22.75 12.5H21.75C21.3358 12.5 21 12.1642 21 11.75ZM11.75 23.5C11.3358 23.5 11 23.1642 11 22.75V21.75C11 21.3358 11.3358 21 11.75 21C12.1642 21 12.5 21.3358 12.5 21.75V22.75C12.5 23.1642 12.1642 23.5 11.75 23.5ZM19.2197 20.2803C19.5126 20.5732 19.9874 20.5732 20.2803 20.2803C20.5732 19.9874 20.5732 19.5126 20.2803 19.2197L19.2803 18.2197C18.9874 17.9268 18.5126 17.9268 18.2197 18.2197C17.9268 18.5126 17.9268 18.9874 18.2197 19.2803L19.2197 20.2803ZM20.2803 3.21967C19.9874 2.92678 19.5126 2.92678 19.2197 3.21967L18.2197 4.21967C17.9268 4.51256 17.9268 4.98744 18.2197 5.28033C18.5126 5.57322 18.9874 5.57322 19.2803 5.28033L20.2803 4.28033C20.5732 3.98744 20.5732 3.51256 20.2803 3.21967ZM4.28033 20.2803C3.98744 20.5732 3.51256 20.5732 3.21967 20.2803C2.92678 19.9874 2.92678 19.5126 3.21967 19.2197L4.21967 18.2197C4.51256 17.9268 4.98744 17.9268 5.28033 18.2197C5.57322 18.5126 5.57322 18.9874 5.28033 19.2803L4.28033 20.2803ZM3.21967 3.21967C3.51256 2.92678 3.98744 2.92678 4.28033 3.21967L5.28033 4.21967C5.57322 4.51256 5.57322 4.98744 5.28033 5.28033C4.98744 5.57322 4.51256 5.57322 4.21967 5.28033L3.21967 4.28033C2.92678 3.98744 2.92678 3.51256 3.21967 3.21967ZM0.75 11C0.335786 11 0 11.3358 0 11.75C0 12.1642 0.335786 12.5 0.75 12.5H1.75C2.16421 12.5 2.5 12.1642 2.5 11.75C2.5 11.3358 2.16421 11 1.75 11H0.75Z" fill="#292927"/>
</g>
</svg>
