<svg preserveAspectRatio="xMidYMid meet" overflow="visible" style="display: block;" viewBox="0 0 24 24" fill="none" xmlns="http://www.w3.org/2000/svg">
<g transform="translate(2.2500, 2.2500)">
<path id="Vector" fill-rule="evenodd" clip-rule="evenodd" d="M9.23394 3.18318L9.75002 2.08892L10.2661 3.18318C10.3726 3.4089 10.5843 3.56689 10.831 3.60463L12.0543 3.79177L11.1472 4.71649C10.9799 4.88707 10.9039 5.12718 10.9425 5.36299L11.1492 6.62433L10.1117 6.05326C9.88649 5.92933 9.61354 5.92933 9.38837 6.05326L8.35083 6.62433L8.55753 5.36299C8.59617 5.12718 8.52014 4.88707 8.3528 4.71649L7.44568 3.79177L8.66901 3.60463C8.91571 3.56689 9.12748 3.4089 9.23394 3.18318ZM10.7136 0.615672C10.3265 -0.205224 9.17354 -0.205224 8.78638 0.615672L8.04755 2.18225L6.40908 2.4329C5.49828 2.57223 5.22689 3.67192 5.81113 4.2675L7.0158 5.49555L6.73015 7.2387C6.59745 8.04848 7.44246 8.8365 8.29357 8.36804L9.75002 7.56641L11.2065 8.36804C12.0576 8.8365 12.9026 8.04848 12.7699 7.2387L12.4842 5.49555L13.6889 4.2675C14.2731 3.67192 14.0017 2.57223 13.0909 2.4329L11.4525 2.18225L10.7136 0.615672ZM7.35 9C6.60441 9 6 9.60442 6 10.35V12.5H1.35C0.604415 12.5 0 13.1044 0 13.85V18.15C0 18.8956 0.604416 19.5 1.35 19.5H6.75H12.75H18.15C18.8956 19.5 19.5 18.8956 19.5 18.15V15.85C19.5 15.1044 18.8956 14.5 18.15 14.5H13.5V10.35C13.5 9.60442 12.8956 9 12.15 9H7.35ZM7.5 18V13.85V10.5H12V15.85V18H7.5ZM1.5 14H6V18H1.5V14ZM13.5 16V18H18V16H13.5Z" fill="#292927"/>
</g>
</svg>
