<svg preserveAspectRatio="xMidYMid meet" overflow="visible" style="display: block;" viewBox="0 0 24 24" fill="none" xmlns="http://www.w3.org/2000/svg">
<g transform="translate(2.2500, 2.2500)">
<path id="Vector" fill-rule="evenodd" clip-rule="evenodd" d="M0 1.35C0 0.604417 0.604415 0 1.35 0H18.15C18.8956 0 19.5 0.604415 19.5 1.35V18.15C19.5 18.8956 18.8956 19.5 18.15 19.5H8.75H1.35C0.604417 19.5 0 18.8956 0 18.15V10.75V1.35ZM9.5 15.75V18H18V1.5H1.5V10H3.75C4.16421 10 4.5 10.3358 4.5 10.75C4.5 11.1642 4.16421 11.5 3.75 11.5H1.5V18H8V15.75C8 15.3358 8.33579 15 8.75 15C9.16421 15 9.5 15.3358 9.5 15.75ZM8.75 13.5C8.33579 13.5 8 13.1642 8 12.75V11.5H6.75C6.33579 11.5 6 11.1642 6 10.75C6 10.3358 6.33579 10 6.75 10H8.15C8.89558 10 9.5 10.6044 9.5 11.35V12.75C9.5 13.1642 9.16421 13.5 8.75 13.5ZM13.75 9.5C14.1642 9.5 14.5 9.16421 14.5 8.75C14.5 8.33579 14.1642 8 13.75 8H11.5V5.75C11.5 5.33579 11.1642 5 10.75 5C10.3358 5 10 5.33579 10 5.75V8.75C10 9.16421 10.3358 9.5 10.75 9.5H13.75Z" fill="#292927"/>
</g>
</svg>
