<svg preserveAspectRatio="xMidYMid meet" overflow="visible" style="display: block;" viewBox="0 0 24 24" fill="none" xmlns="http://www.w3.org/2000/svg">
<g transform="translate(0.2500, 1.2500)">
<path id="Vector" fill-rule="evenodd" clip-rule="evenodd" d="M1.5 0.75C1.5 0.335786 1.16421 0 0.75 0C0.335786 0 0 0.335786 0 0.75V4.75C0 5.16421 0.335786 5.5 0.75 5.5C1.16421 5.5 1.5 5.16421 1.5 4.75V0.75ZM23.5 0.75C23.5 0.335786 23.1642 0 22.75 0C22.3358 0 22 0.335786 22 0.75V4.75C22 5.16421 22.3358 5.5 22.75 5.5C23.1642 5.5 23.5 5.16421 23.5 4.75V0.75ZM5.5 1.75C5.5 1.33579 5.16421 1 4.75 1C4.33579 1 4 1.33579 4 1.75V3.75C4 4.16421 4.33579 4.5 4.75 4.5C5.16421 4.5 5.5 4.16421 5.5 3.75V1.75ZM19.5 1.75C19.5 1.33579 19.1642 1 18.75 1C18.3358 1 18 1.33579 18 1.75V3.75C18 4.16421 18.3358 4.5 18.75 4.5C19.1642 4.5 19.5 4.16421 19.5 3.75V1.75ZM11.75 0C9.67893 0 8 1.67893 8 3.75V9.75C8 11.8211 9.67893 13.5 11.75 13.5C13.8211 13.5 15.5 11.8211 15.5 9.75V3.75C15.5 1.67893 13.8211 0 11.75 0ZM9.5 3.75C9.5 2.50736 10.5074 1.5 11.75 1.5C12.9926 1.5 14 2.50736 14 3.75V9.75C14 10.9926 12.9926 12 11.75 12C10.5074 12 9.5 10.9926 9.5 9.75V3.75ZM4.75 8C5.16421 8 5.5 8.33579 5.5 8.75V9.75C5.5 13.2018 8.29822 16 11.75 16C15.2018 16 18 13.2018 18 9.75V8.75C18 8.33579 18.3358 8 18.75 8C19.1642 8 19.5 8.33579 19.5 8.75V9.75C19.5 13.7772 16.4283 17.087 12.5 17.4642V20H14.75C15.1642 20 15.5 20.3358 15.5 20.75C15.5 21.1642 15.1642 21.5 14.75 21.5H8.75C8.33579 21.5 8 21.1642 8 20.75C8 20.3358 8.33579 20 8.75 20H11V17.4642C7.0717 17.087 4 13.7772 4 9.75V8.75C4 8.33579 4.33579 8 4.75 8Z" fill="#292927"/>
</g>
</svg>
