<svg preserveAspectRatio="xMidYMid meet" overflow="visible" style="display: block;" viewBox="0 0 24 24" fill="none" xmlns="http://www.w3.org/2000/svg">
<g transform="translate(2.2500, 3.2500)">
<path id="Vector" fill-rule="evenodd" clip-rule="evenodd" d="M8.16176 0C7.74755 0 7.41176 0.335786 7.41176 0.75C7.41176 1.16421 7.74755 1.5 8.16176 1.5C9.20173 1.5 10 2.30781 10 3.25C10 4.19219 9.20173 5 8.16176 5H0.75C0.335786 5 0 5.33579 0 5.75C0 6.16421 0.335786 6.5 0.75 6.5H8.16176C9.98069 6.5 11.5 5.06923 11.5 3.25C11.5 1.43077 9.98069 0 8.16176 0ZM15.2785 3.75C15.2785 3.33579 15.6143 3 16.0285 3C17.8846 3 19.5 4.39642 19.5 6.25C19.5 8.10358 17.8846 9.5 16.0285 9.5H0.75C0.335786 9.5 0 9.16421 0 8.75C0 8.33579 0.335786 8 0.75 8H16.0285C17.1785 8 18 7.15784 18 6.25C18 5.34216 17.1785 4.5 16.0285 4.5C15.6143 4.5 15.2785 4.16421 15.2785 3.75ZM14.9375 16.75C14.9375 17.1642 15.2733 17.5 15.6875 17.5C16.3477 17.5 17.1709 17.358 17.8469 16.8492C18.5601 16.3124 19 15.45 19 14.25C19 13.05 18.5601 12.1876 17.8469 11.6508C17.1709 11.142 16.3477 11 15.6875 11H0.75C0.335786 11 0 11.3358 0 11.75C0 12.1642 0.335786 12.5 0.75 12.5H15.6875C16.1664 12.5 16.6244 12.608 16.9449 12.8492C17.2281 13.0624 17.5 13.45 17.5 14.25C17.5 15.05 17.2281 15.4376 16.9449 15.6508C16.6244 15.892 16.1664 16 15.6875 16C15.2733 16 14.9375 16.3358 14.9375 16.75Z" fill="#292927"/>
</g>
</svg>
