<svg preserveAspectRatio="xMidYMid meet" overflow="visible" style="display: block;" viewBox="0 0 24 24" fill="none" xmlns="http://www.w3.org/2000/svg">
<g transform="translate(0.8925, 1.2500)">
<path id="Vector" fill-rule="evenodd" clip-rule="evenodd" d="M3.05746 2.75C3.05746 2.05964 3.61711 1.5 4.30747 1.5H17.9075C18.5978 1.5 19.1575 2.05964 19.1575 2.75V12.2222H3.05746V2.75ZM2.87475 13.7222H19.3402L20.6661 18.4098C20.8918 19.2076 20.2924 20 19.4633 20H2.75165C1.92255 20 1.32318 19.2076 1.54884 18.4098L2.87475 13.7222ZM1.55746 2.75V12.8682L0.105469 18.0015C-0.39099 19.7567 0.927629 21.5 2.75165 21.5H19.4633C21.2873 21.5 22.6059 19.7567 22.1095 18.0015L20.6575 12.8682V2.75C20.6575 1.23122 19.4262 0 17.9075 0H4.30747C2.78868 0 1.55746 1.23122 1.55746 2.75ZM10.1075 17C9.69325 17 9.35747 17.3358 9.35747 17.75C9.35747 18.1642 9.69325 18.5 10.1075 18.5L12.1075 18.5C12.5217 18.5 12.8575 18.1642 12.8575 17.75C12.8575 17.3358 12.5217 17 12.1075 17L10.1075 17Z" fill="#292927"/>
</g>
</svg>
