<svg preserveAspectRatio="xMidYMid meet" overflow="visible" style="display: block;" viewBox="0 0 24 24" fill="none" xmlns="http://www.w3.org/2000/svg">
<g transform="translate(0.4985, 0.4985)">
<path id="Vector" fill-rule="evenodd" clip-rule="evenodd" d="M12.4561 0.395406C11.9289 -0.131803 11.0741 -0.131801 10.5469 0.395406L0.395406 10.5469C-0.131803 11.0741 -0.131801 11.9289 0.395406 12.4561L10.5469 22.6075C11.0741 23.1347 11.9289 23.1347 12.4561 22.6075L22.6075 12.4561C23.1347 11.9289 23.1347 11.0741 22.6075 10.5469L12.4561 0.395406ZM1.56213 11.5015L11.5015 1.56213L21.4408 11.5015L11.5015 21.4408L1.56213 11.5015ZM12.0318 5.97162C11.8893 5.82909 11.6954 5.74994 11.4938 5.75199C11.2923 5.75405 11.1 5.83715 10.9604 5.98255L6.96043 10.1492C6.67357 10.448 6.68326 10.9228 6.98207 11.2097C7.28088 11.4965 7.75565 11.4868 8.04251 11.188L10.7515 8.36619V15.502C10.7515 15.9162 11.0873 16.252 11.5015 16.252C11.9157 16.252 12.2515 15.9162 12.2515 15.502V8.31261L14.9711 11.0323C15.264 11.3252 15.7389 11.3252 16.0318 11.0323C16.3247 10.7394 16.3247 10.2645 16.0318 9.97162L12.0318 5.97162Z" fill="#292927"/>
</g>
</svg>
