<svg preserveAspectRatio="xMidYMid meet" overflow="visible" style="display: block;" viewBox="0 0 24 24" fill="none" xmlns="http://www.w3.org/2000/svg">
<g transform="translate(2.2500, 4.0000)">
<path id="Vector" fill-rule="evenodd" clip-rule="evenodd" d="M10.5 10.75C10.5 11.1642 10.1642 11.5 9.75 11.5H2.75C1.23122 11.5 0 10.2688 0 8.75V2.75C0 1.23122 1.23122 0 2.75 0H16.75C18.2688 0 19.5 1.23122 19.5 2.75V7.75C19.5 8.16421 19.1642 8.5 18.75 8.5C18.3358 8.5 18 8.16421 18 7.75V2.75C18 2.05964 17.4404 1.5 16.75 1.5H2.75C2.05964 1.5 1.5 2.05964 1.5 2.75V8.75C1.5 9.44036 2.05964 10 2.75 10H9.75C10.1642 10 10.5 10.3358 10.5 10.75ZM11.7197 12.7197C12.0126 12.4268 12.4874 12.4268 12.7803 12.7197L14.25 14.1893L17.7197 10.7197C18.0126 10.4268 18.4874 10.4268 18.7803 10.7197C19.0732 11.0126 19.0732 11.4874 18.7803 11.7803L14.7803 15.7803C14.6397 15.921 14.4489 16 14.25 16C14.0511 16 13.8603 15.921 13.7197 15.7803L11.7197 13.7803C11.4268 13.4874 11.4268 13.0126 11.7197 12.7197ZM10.3175 6.25075C10.5946 5.94287 10.5696 5.46865 10.2617 5.19156C9.95385 4.91446 9.47963 4.93942 9.20254 5.24731L9.19254 5.25842C8.91544 5.5663 8.9404 6.04052 9.24828 6.31761C9.55616 6.59471 10.0304 6.56975 10.3075 6.26186L10.3175 6.25075ZM14.2617 5.19156C14.5696 5.46865 14.5946 5.94287 14.3175 6.25075L14.3075 6.26186C14.0304 6.56975 13.5562 6.59471 13.2483 6.31761C12.9404 6.04052 12.9154 5.5663 13.1925 5.25842L13.2025 5.24731C13.4796 4.93942 13.9538 4.91446 14.2617 5.19156ZM6.31748 6.25075C6.59457 5.94287 6.56961 5.46865 6.26173 5.19156C5.95385 4.91446 5.47963 4.93942 5.20254 5.24731L5.19254 5.25842C4.91544 5.5663 4.9404 6.04052 5.24828 6.31761C5.55616 6.59471 6.03038 6.56975 6.30748 6.26186L6.31748 6.25075Z" fill="#292927"/>
</g>
</svg>
