<svg preserveAspectRatio="xMidYMid meet" overflow="visible" style="display: block;" viewBox="0 0 24 24" fill="none" xmlns="http://www.w3.org/2000/svg">
<g transform="translate(2.2500, 2.7500)">
<path id="Vector" fill-rule="evenodd" clip-rule="evenodd" d="M5.35 0C4.60442 0 4 0.604415 4 1.35V4H2.75C1.23122 4 0 5.23122 0 6.75V15.75C0 17.2688 1.23122 18.5 2.75 18.5H16.75C18.2688 18.5 19.5 17.2688 19.5 15.75V6.75C19.5 5.23122 18.2688 4 16.75 4H15.5V1.35C15.5 0.604415 14.8956 0 14.15 0H5.35ZM14 4V1.5H10.5V4H14ZM9 4H8.5V1.5H9V4ZM7 4V1.5H5.5V4H7ZM1.5 6.75C1.5 6.05964 2.05964 5.5 2.75 5.5H16.75C17.4404 5.5 18 6.05964 18 6.75V15.75C18 16.4404 17.4404 17 16.75 17H2.75C2.05964 17 1.5 16.4404 1.5 15.75V6.75ZM14.25 10C14.9404 10 15.5 10.5596 15.5 11.25C15.5 11.9404 14.9404 12.5 14.25 12.5C13.5596 12.5 13 11.9404 13 11.25C13 10.5596 13.5596 10 14.25 10Z" fill="#292927"/>
</g>
</svg>
