<svg preserveAspectRatio="xMidYMid meet" overflow="visible" style="display: block;" viewBox="0 0 24 24" fill="none" xmlns="http://www.w3.org/2000/svg">
<g transform="translate(2.2500, 2.2500)">
<path id="Vector" fill-rule="evenodd" clip-rule="evenodd" d="M9.75 1.5C14.3063 1.5 18 5.19365 18 9.75C18 12.1853 16.7161 13.2036 15.6267 13.3852C15.05 13.4813 14.5079 13.3548 14.1266 13.0795C13.7632 12.817 13.5 12.3889 13.5 11.75V11.25V9.75V8.25V5.75005C13.5 5.33583 13.1642 5 12.75 5C12.3684 5 12.0533 5.28506 12.0061 5.65385C11.3604 5.23662 10.5662 5 9.75 5C7.81278 5 6 6.33285 6 8.25V9.75V11.25C6 13.1672 7.81278 14.5 9.75 14.5C10.7798 14.5 11.7745 14.1233 12.4803 13.4825C12.6834 13.8023 12.944 14.0756 13.2484 14.2955C13.9921 14.8327 14.95 15.0187 15.8733 14.8648C17.7839 14.5464 19.5 12.8147 19.5 9.75C19.5 4.36522 15.1348 0 9.75 0C4.36522 0 0 4.36522 0 9.75C0 15.1348 4.36522 19.5 9.75 19.5C11.993 19.5 14.0611 18.7417 15.7087 17.4678C16.0364 17.2145 16.0967 16.7434 15.8433 16.4157C15.59 16.088 15.119 16.0278 14.7913 16.2811C13.397 17.359 11.6494 18 9.75 18C5.19365 18 1.5 14.3063 1.5 9.75C1.5 5.19365 5.19365 1.5 9.75 1.5ZM12 11.25V9.75V8.25C12 7.40573 11.1265 6.5 9.75 6.5C8.37351 6.5 7.5 7.40573 7.5 8.25V9.75V11.25C7.5 12.0943 8.37351 13 9.75 13C11.1265 13 12 12.0943 12 11.25Z" fill="#292927"/>
</g>
</svg>
