<svg preserveAspectRatio="xMidYMid meet" overflow="visible" style="display: block;" viewBox="0 0 24 24" fill="none" xmlns="http://www.w3.org/2000/svg">
<g transform="translate(1.2500, 2.2500)">
<path id="Vector" fill-rule="evenodd" clip-rule="evenodd" d="M0 1.35C0 0.604416 0.604415 0 1.35 0H7.52805C7.85031 0 8.16194 0.115279 8.40661 0.325004L11.5274 3H20.15C20.8956 3 21.5 3.60442 21.5 4.35V6.75V7.15V10.75C21.5 11.1642 21.1642 11.5 20.75 11.5C20.3358 11.5 20 11.1642 20 10.75V8.5H1.5V16H11.75C12.1642 16 12.5 16.3358 12.5 16.75C12.5 17.1642 12.1642 17.5 11.75 17.5H1.35C0.604415 17.5 0 16.8956 0 16.15V7.15V6.75V1.35ZM1.5 6.75V7H20V6.75V4.5H11.472C11.1497 4.5 10.8381 4.38472 10.5934 4.175L7.47256 1.5H1.5V6.75ZM17.75 14.5C17.5211 14.5 17.3086 14.5609 17.1255 14.6668C16.75 14.884 16.5 15.2883 16.5 15.75C16.5 16.2117 16.75 16.616 17.1255 16.8332C17.3086 16.9391 17.5211 17 17.75 17C18.4404 17 19 16.4404 19 15.75C19 15.0596 18.4404 14.5 17.75 14.5ZM16.9421 13.1208C16.8871 13.023 16.8534 12.9113 16.8473 12.7916C16.8265 12.378 17.1449 12.0257 17.5586 12.0048C17.6221 12.0016 17.6859 12 17.75 12C17.8141 12 17.8779 12.0016 17.9414 12.0048C18.3551 12.0257 18.6735 12.378 18.6527 12.7916C18.6466 12.9112 18.6129 13.0229 18.558 13.1206C18.7253 13.172 18.8858 13.2388 19.0378 13.3196C19.0681 13.2117 19.1231 13.109 19.2033 13.0202C19.4809 12.7127 19.9552 12.6886 20.2626 12.9662C20.3575 13.0519 20.4481 13.1425 20.5338 13.2374C20.8114 13.5448 20.7873 14.0191 20.4798 14.2967C20.391 14.3769 20.2883 14.4319 20.1804 14.4622C20.2612 14.6142 20.328 14.7747 20.3794 14.942C20.4771 14.8871 20.5888 14.8534 20.7084 14.8473C21.122 14.8265 21.4743 15.1449 21.4952 15.5586C21.4984 15.6221 21.5 15.6859 21.5 15.75C21.5 15.8141 21.4984 15.8779 21.4952 15.9414C21.4743 16.3551 21.122 16.6735 20.7084 16.6527C20.5888 16.6466 20.4771 16.6129 20.3794 16.558C20.328 16.7253 20.2612 16.8858 20.1804 17.0378C20.2883 17.0681 20.391 17.1231 20.4798 17.2033C20.7873 17.4809 20.8114 17.9552 20.5338 18.2626C20.4481 18.3575 20.3575 18.4481 20.2626 18.5338C19.9552 18.8114 19.4809 18.7873 19.2033 18.4798C19.1231 18.391 19.0681 18.2883 19.0378 18.1804C18.8858 18.2612 18.7253 18.328 18.558 18.3794C18.6129 18.4771 18.6466 18.5888 18.6527 18.7084C18.6735 19.122 18.3551 19.4743 17.9414 19.4952C17.8779 19.4984 17.8141 19.5 17.75 19.5C17.6859 19.5 17.6221 19.4984 17.5586 19.4952C17.1449 19.4743 16.8265 19.122 16.8473 18.7084C16.8534 18.5887 16.8871 18.477 16.9421 18.3792C16.7749 18.3279 16.6143 18.261 16.4622 18.1803C16.4319 18.2882 16.3769 18.391 16.2967 18.4798C16.0191 18.7873 15.5448 18.8114 15.2374 18.5338C15.1425 18.4481 15.0519 18.3575 14.9662 18.2626C14.6886 17.9552 14.7127 17.4809 15.0202 17.2033C15.109 17.1231 15.2118 17.0681 15.3197 17.0378C15.239 16.8858 15.1721 16.7253 15.1207 16.558C15.0229 16.6129 14.9113 16.6466 14.7916 16.6527C14.378 16.6735 14.0257 16.3551 14.0048 15.9414C14.0016 15.8779 14 15.8141 14 15.75C14 15.6859 14.0016 15.6221 14.0048 15.5586C14.0257 15.1449 14.378 14.8265 14.7916 14.8473C14.9113 14.8534 15.0229 14.8871 15.1207 14.942C15.1721 14.7747 15.239 14.6142 15.3197 14.4622C15.2118 14.4319 15.109 14.3769 15.0202 14.2967C14.7127 14.0191 14.6886 13.5448 14.9662 13.2374C15.0519 13.1425 15.1425 13.0519 15.2374 12.9662C15.5448 12.6886 16.0191 12.7127 16.2967 13.0202C16.3769 13.109 16.4319 13.2118 16.4622 13.3197C16.6143 13.239 16.7749 13.1721 16.9421 13.1208Z" fill="#292927"/>
</g>
</svg>
