<svg preserveAspectRatio="xMidYMid meet" overflow="visible" style="display: block;" viewBox="0 0 24 24" fill="none" xmlns="http://www.w3.org/2000/svg">
<g transform="translate(1.3058, 1.3058)">
<path id="Vector" fill-rule="evenodd" clip-rule="evenodd" d="M12.2499 0.00844629C11.8403 -0.0531678 11.4583 0.228935 11.3967 0.63854C11.3351 1.04815 11.6172 1.43014 12.0268 1.49176C16.4765 2.1611 19.8884 6.00197 19.8884 10.6384C19.8884 15.747 15.747 19.8884 10.6384 19.8884C6.00197 19.8884 2.1611 16.4765 1.49176 12.0268C1.43014 11.6172 1.04815 11.3351 0.63854 11.3967C0.228935 11.4583 -0.0531678 11.8403 0.00844629 12.2499C0.786551 17.4227 5.24866 21.3884 10.6384 21.3884C16.5754 21.3884 21.3884 16.5754 21.3884 10.6384C21.3884 5.24866 17.4227 0.786551 12.2499 0.00844629ZM5.38055 1.63867C5.38055 1.22446 5.04477 0.888672 4.63055 0.888672C4.21634 0.888672 3.88055 1.22446 3.88055 1.63867V3.88867H1.63055C1.21634 3.88867 0.880554 4.22446 0.880554 4.63867C0.880554 5.05289 1.21634 5.38867 1.63055 5.38867H3.88055V7.63867C3.88055 8.05289 4.21634 8.38867 4.63055 8.38867C5.04477 8.38867 5.38055 8.05289 5.38055 7.63867V5.38867H7.63055C8.04477 5.38867 8.38055 5.05289 8.38055 4.63867C8.38055 4.22446 8.04477 3.88867 7.63055 3.88867H5.38055V1.63867ZM15.0743 6.5299C15.4106 6.28801 15.8793 6.3645 16.1212 6.70075C16.2513 6.88169 16.3728 7.06937 16.4849 7.26318C16.6923 7.62173 16.5698 8.08053 16.2112 8.28793C15.8527 8.49534 15.3939 8.37282 15.1865 8.01427C15.0993 7.86356 15.0048 7.71754 14.9035 7.5767C14.6616 7.24046 14.7381 6.77178 15.0743 6.5299ZM17.1757 12.3258C17.2789 11.9247 17.0374 11.5158 16.6363 11.4125C16.2351 11.3093 15.8263 11.5508 15.723 11.9519C15.2485 13.7957 13.7952 15.2489 11.9514 15.7235C11.5503 15.8267 11.3088 16.2356 11.412 16.6368C11.5153 17.0379 11.9242 17.2794 12.3253 17.1762C14.6983 16.5654 16.5649 14.6988 17.1757 12.3258Z" fill="#292927"/>
</g>
</svg>
