<svg preserveAspectRatio="xMidYMid meet" overflow="visible" style="display: block;" viewBox="0 0 24 24" fill="none" xmlns="http://www.w3.org/2000/svg">
<g transform="translate(2.2500, 1.7500)">
<path id="Vector" fill-rule="evenodd" clip-rule="evenodd" d="M9.5 0.75C9.5 0.335786 9.16421 0 8.75 0C8.33579 0 8 0.335786 8 0.75V3.75C8 5.82114 9.67921 7.5 11.7502 7.5H12.75C14.55 7.5 15 8.35 15 8.75C15 9.16421 15.3358 9.5 15.75 9.5C16.1642 9.5 16.5 9.16421 16.5 8.75C16.5 7.15 14.95 6 12.75 6H11.7502C10.5075 6 9.5 4.99257 9.5 3.75V0.75ZM1.5 9.55C1.5 10.9494 2.55222 12 3.75 12C4.94778 12 6 10.9494 6 9.55C6 9.29338 5.88177 8.90428 5.61798 8.40451C5.36379 7.92295 5.01604 7.41517 4.65461 6.94334C4.33283 6.52327 4.00956 6.1438 3.75 5.85222C3.49043 6.1438 3.16717 6.52327 2.84539 6.94334C2.48396 7.41517 2.13621 7.92295 1.88202 8.40451C1.61823 8.90428 1.5 9.29338 1.5 9.55ZM3.75 4.75C3.2168 4.22255 3.21672 4.22264 3.21662 4.22274L3.75 4.75ZM3.75 4.75L4.28363 4.22299C4.28354 4.22289 4.2832 4.22255 3.75 4.75ZM4.28363 4.22299L3.75 3.68355L3.21662 4.22274L3.21341 4.22599L3.20574 4.2338L3.17806 4.26219C3.15433 4.28665 3.12023 4.32204 3.07726 4.36729C2.99135 4.45775 2.86972 4.58789 2.72424 4.74924C2.43401 5.07112 2.04523 5.52124 1.65461 6.03118C1.26604 6.53843 0.863791 7.1202 0.555476 7.70432C0.25677 8.27023 0 8.92297 0 9.55C0 11.6852 1.63407 13.5 3.75 13.5C5.86593 13.5 7.5 11.6852 7.5 9.55C7.5 8.92297 7.24323 8.27023 6.94452 7.70432C6.63621 7.1202 6.23396 6.53843 5.84539 6.03118C5.45477 5.52124 5.06599 5.07112 4.77576 4.74924C4.63028 4.58789 4.50865 4.45775 4.42274 4.36729C4.37977 4.32204 4.34567 4.28665 4.32194 4.26219L4.29426 4.2338L4.28659 4.22599L4.28363 4.22299ZM19.2803 20.2803C19.421 20.1397 19.5 19.9489 19.5 19.75V10.75C19.5 10.3358 19.1642 10 18.75 10H15.75C15.3358 10 15 10.3358 15 10.75V13.7926L12.6859 12.1397C12.4389 11.9633 12.1099 11.9531 11.8525 12.114L7.8525 14.614C7.63321 14.7511 7.5 14.9914 7.5 15.25V19.75C7.5 19.9489 7.57902 20.1397 7.71967 20.2803C7.86032 20.421 8.05109 20.5 8.25 20.5H18.75C18.9489 20.5 19.1397 20.421 19.2803 20.2803ZM15 15.636V19H9V15.6657L12.2222 13.6518L15 15.636ZM16.5 11.5H18V19H16.5V11.5ZM19.5 0.75C19.5 0.335786 19.1642 0 18.75 0C18.3358 0 18 0.335786 18 0.75C18 1.14123 17.858 1.36776 17.6521 1.5351C17.4144 1.72818 17.0532 1.86758 16.6118 1.95035C16.1802 2.03127 15.7359 2.04642 15.3906 2.03923C15.2768 2.03685 15.1759 2.03211 15.0926 2.02689C15.0603 2.02261 15.03 2.01901 15.0018 2.01599C14.9321 2.00852 14.8749 2.00453 14.8324 2.0024C14.8111 2.00134 14.7934 2.00074 14.7796 2.0004L14.7618 2.00008L14.7552 2.00002L14.7524 2L14.7511 2C14.7506 2 14.75 2 14.75 2.75V2C14.3539 2 14.0261 2.30804 14.0014 2.7034C13.9768 3.09875 14.2639 3.44508 14.657 3.49421L14.75 2.75C14.657 3.49421 14.6578 3.49431 14.6581 3.49434L14.6595 3.49452L14.6635 3.49501L14.6758 3.49645L14.7172 3.50097C14.752 3.50459 14.8008 3.50929 14.8618 3.51419C14.8854 3.51609 14.9108 3.51801 14.938 3.51992C15.0082 3.53054 15.0946 3.54673 15.1931 3.57136C15.4934 3.64643 15.8965 3.79737 16.3 4.1C17.0724 4.67928 18 5.93299 18 8.75C18 9.16421 18.3358 9.5 18.75 9.5C19.1642 9.5 19.5 9.16421 19.5 8.75C19.5 5.92017 18.6524 4.22592 17.6016 3.2378C17.9495 3.11667 18.2957 2.94485 18.5979 2.69927C19.142 2.25724 19.5 1.60877 19.5 0.75Z" fill="#292927"/>
</g>
</svg>
