<svg preserveAspectRatio="xMidYMid meet" overflow="visible" style="display: block;" viewBox="0 0 24 24" fill="none" xmlns="http://www.w3.org/2000/svg">
<g transform="translate(2.8085, 2.6098)">
<path id="Vector" fill-rule="evenodd" clip-rule="evenodd" d="M9.18615 1.92789C9.50209 1.40133 10.2462 1.35128 10.6298 1.83079C10.8106 2.05681 10.8689 2.35721 10.7858 2.63445L9.76335 6.04249C9.5035 6.90867 10.1521 7.78041 11.0564 7.78041H15.6315C16.4557 7.78041 17.0543 8.56413 16.8375 9.3593L14.9284 16.3593C14.78 16.9031 14.2861 17.2804 13.7224 17.2804H5V7.63505C5.60852 7.42882 6.13545 7.0124 6.47572 6.44527L9.18615 1.92789ZM3.5 7.78041H1.5V17.2804H3.5V7.78041ZM11.8011 0.893744C10.7645 -0.402014 8.75366 -0.26676 7.89991 1.15615L5.18949 5.67353C4.96358 6.05004 4.5567 6.28041 4.11762 6.28041H1.35C0.604415 6.28041 0 6.88482 0 7.63041V17.4304C0 18.176 0.604415 18.7804 1.35 18.7804H13.7224C14.9625 18.7804 16.0492 17.9504 16.3755 16.754L18.2846 9.75398C18.7617 8.00459 17.4448 6.28041 15.6315 6.28041H11.258L12.2225 3.06548C12.4473 2.3163 12.2898 1.50451 11.8011 0.893744Z" fill="#292927"/>
</g>
</svg>
