<svg preserveAspectRatio="xMidYMid meet" overflow="visible" style="display: block;" viewBox="0 0 24 24" fill="none" xmlns="http://www.w3.org/2000/svg">
<g transform="translate(1.5000, 1.7449)">
<path id="Vector" fill-rule="evenodd" clip-rule="evenodd" d="M0.10553 12.3701C-0.0352751 12.6067 -0.0351698 12.9014 0.105805 13.1378L3.68081 19.1341C3.8161 19.361 4.06081 19.5 4.325 19.5H10.7536C11.1678 19.5 11.5036 19.1642 11.5036 18.75C11.5036 18.3358 11.1678 18 10.7536 18H5.55561L7.87421 13.5038H11.25C11.6642 13.5038 12 13.168 12 12.7538C12 12.3395 11.6642 12.0038 11.25 12.0038H8.64772L10.7508 7.92553L12.1282 10.594C12.3182 10.9621 12.7706 11.1064 13.1386 10.9165C13.5067 10.7265 13.6511 10.2741 13.4611 9.90599L11.5944 6.28959L13.6588 2.2863L19.608 12.1377C19.8221 12.4923 20.2831 12.6061 20.6377 12.392C20.9923 12.1779 21.1061 11.7169 20.892 11.3623L14.2492 0.362291C14.1133 0.137279 13.8695 -0.000172425 13.6067 1.62338e-07L7.89237 0.00375391C7.62816 0.00392748 7.38353 0.143107 7.24839 0.370141L0.10553 12.3701ZM12.3761 1.50081L10.7501 4.654L9.1236 1.50295L12.3761 1.50081ZM7.84619 2.29848L9.9065 6.28993L6.96002 12.0038H2.06924L7.84619 2.29848ZM2.07034 13.5038H6.18651L4.27749 17.2057L2.07034 13.5038ZM16.75 13C17.1642 13 17.5 13.3358 17.5 13.75V15.75C17.5 16.1642 17.1642 16.5 16.75 16.5C16.3358 16.5 16 16.1642 16 15.75V13.75C16 13.3358 16.3358 13 16.75 13ZM17.3175 20.2508C17.5946 19.9429 17.5696 19.4687 17.2617 19.1916C16.9538 18.9145 16.4796 18.9394 16.2025 19.2473L16.1925 19.2584C15.9154 19.5663 15.9404 20.0405 16.2483 20.3176C16.5562 20.5947 17.0304 20.5697 17.3075 20.2619L17.3175 20.2508Z" fill="#292927"/>
</g>
</svg>
