<svg preserveAspectRatio="xMidYMid meet" overflow="visible" style="display: block;" viewBox="0 0 24 24" fill="none" xmlns="http://www.w3.org/2000/svg">
<g transform="translate(1.2746, 1.2500)">
<path id="Vector" fill-rule="evenodd" clip-rule="evenodd" d="M10.7007 1.5C5.90469 1.5 1.96041 5.15058 1.49639 9.8241C1.45547 10.2363 1.08815 10.5373 0.675959 10.4963C0.263772 10.4554 -0.0371956 10.0881 0.00372881 9.6759C0.543162 4.24278 5.12598 0 10.7007 0C14.6371 0 18.078 2.11569 19.9507 5.26979V2.75C19.9507 2.33579 20.2865 2 20.7007 2C21.1149 2 21.4507 2.33579 21.4507 2.75V6.15C21.4507 6.89558 20.8463 7.5 20.1007 7.5H19.8858C19.8746 7.50025 19.8634 7.50025 19.8522 7.5H16.7007C16.2865 7.5 15.9507 7.16421 15.9507 6.75C15.9507 6.33579 16.2865 6 16.7007 6H18.6398C17.0228 3.30329 14.0717 1.5 10.7007 1.5ZM19.9544 11.6759C19.4903 16.3494 15.5461 20 10.7501 20C7.37908 20 4.42797 18.1967 2.81098 15.5H4.75C5.16421 15.5 5.5 15.1642 5.5 14.75C5.5 14.3358 5.16421 14 4.75 14H1.59856C1.58738 13.9997 1.57618 13.9997 1.56496 14H1.35C0.604415 14 0 14.6044 0 15.35V18.75C0 19.1642 0.335786 19.5 0.75 19.5C1.16421 19.5 1.5 19.1642 1.5 18.75V16.2301C3.37263 19.3843 6.8136 21.5 10.7501 21.5C16.3248 21.5 20.9076 17.2572 21.447 11.8241C21.4879 11.4119 21.187 11.0446 20.7748 11.0037C20.3626 10.9627 19.9953 11.2637 19.9544 11.6759ZM11.9507 13.25C11.9507 12.5596 12.5103 12 13.2007 12C13.891 12 14.4507 12.5596 14.4507 13.25C14.4507 13.9404 13.891 14.5 13.2007 14.5C12.5103 14.5 11.9507 13.9404 11.9507 13.25ZM6.95068 8.25C6.95068 7.55964 7.51033 7 8.20068 7C8.89104 7 9.45068 7.55964 9.45068 8.25C9.45068 8.94036 8.89104 9.5 8.20068 9.5C7.51033 9.5 6.95068 8.94036 6.95068 8.25ZM13.1704 7.21967C13.4632 6.92678 13.9381 6.92678 14.231 7.21967C14.5239 7.51256 14.5239 7.98744 14.231 8.28033L8.23101 14.2803C7.93812 14.5732 7.46325 14.5732 7.17035 14.2803C6.87746 13.9874 6.87746 13.5126 7.17035 13.2197L13.1704 7.21967Z" fill="#292927"/>
</g>
</svg>
