<svg preserveAspectRatio="xMidYMid meet" overflow="visible" style="display: block;" viewBox="0 0 24 24" fill="none" xmlns="http://www.w3.org/2000/svg">
<g transform="translate(2.2499, 2.2500)">
<path id="Vector" fill-rule="evenodd" clip-rule="evenodd" d="M8.50015 2.75C8.50015 2.05964 9.0598 1.5 9.75015 1.5C10.4405 1.5 11.0002 2.05964 11.0002 2.75C11.0002 3.44036 10.4405 4 9.75015 4C9.0598 4 8.50015 3.44036 8.50015 2.75ZM9.75015 0C8.23137 0 7.00015 1.23122 7.00015 2.75C7.00015 4.26878 8.23137 5.5 9.75015 5.5C11.2689 5.5 12.5002 4.26878 12.5002 2.75C12.5002 1.23122 11.2689 0 9.75015 0ZM9.72556 6.00651L9.75004 6.0072H9.75006C9.75113 6.00719 9.75781 6.00709 9.77475 6.00651L9.84331 6.00405C9.89966 6.0021 9.97324 6 10.0599 6C10.2335 6 10.4576 6.00841 10.7177 6.04234C11.2385 6.11027 11.9015 6.28039 12.5941 6.687C13.9433 7.47903 15.2654 9.08219 15.9663 12.1797C16.5089 12.353 17.1464 12.5228 17.6988 12.66C18.0414 12.745 18.3447 12.816 18.5622 12.8657C18.6708 12.8905 18.7579 12.9099 18.8175 12.9231L18.8856 12.9381L18.9028 12.9418L18.9069 12.9427L18.908 12.9429C19.3129 13.0301 19.5705 13.429 19.4834 13.834C19.3962 14.2389 18.9973 14.4965 18.5923 14.4093L18.5852 14.4078L18.566 14.4036L18.4936 14.3877C18.431 14.3739 18.3406 14.3537 18.2283 14.328C18.0038 14.2768 17.6911 14.2036 17.3372 14.1157C16.6368 13.9418 15.7489 13.7037 15.0683 13.4595C14.8205 13.3706 14.6374 13.1583 14.586 12.9001C13.9731 9.82137 12.782 8.53666 11.8347 7.98057C10.9636 7.46918 10.1863 7.49409 9.84954 7.50488C9.81023 7.50614 9.77691 7.50721 9.75016 7.50721C9.7234 7.50721 9.69009 7.50614 9.65077 7.50488C9.31396 7.49409 8.53667 7.46918 7.66557 7.98057C6.71831 8.53666 5.52725 9.82137 4.91429 12.9001C4.86288 13.1583 4.67982 13.3706 4.43199 13.4595C3.75145 13.7037 2.86349 13.9418 2.16308 14.1157C1.80925 14.2036 1.49647 14.2768 1.272 14.328C1.15969 14.3537 1.06929 14.3739 1.00669 14.3877L0.934331 14.4036L0.915132 14.4078L0.90861 14.4092C0.503672 14.4964 0.104115 14.2389 0.01695 13.834C-0.0702127 13.429 0.187376 13.0301 0.592295 12.9429L0.597552 12.9418L0.614739 12.9381L0.682792 12.9231C0.742404 12.9099 0.829464 12.8905 0.938136 12.8657C1.15563 12.816 1.45892 12.745 1.80151 12.66C2.35389 12.5228 2.99145 12.353 3.53399 12.1797C4.2349 9.08219 5.55702 7.47903 6.90617 6.687C7.59879 6.28039 8.26186 6.11027 8.7826 6.04234C9.04268 6.00841 9.26684 6 9.44045 6C9.52708 6 9.60065 6.0021 9.657 6.00405L9.72556 6.00651ZM7.88609 13.0029C8.02377 12.6122 7.81868 12.1839 7.42801 12.0463C7.03738 11.9086 6.60908 12.1137 6.47137 12.5043C6.34573 12.7462 6.2412 12.9828 6.13871 13.2147L6.13871 13.2147C6.02811 13.465 5.91991 13.7099 5.79015 13.9501C4.25015 14.3901 1.71445 15.3501 1.71445 17.3662C1.71445 17.8812 1.87897 18.3108 2.15403 18.6438C2.41839 18.9639 2.75197 19.1559 3.04089 19.2725C3.33123 19.3897 3.61099 19.4448 3.81088 19.4717C3.91277 19.4854 3.99891 19.4924 4.0619 19.4961C4.09351 19.4979 4.11961 19.4989 4.13931 19.4994L4.16405 19.4999L4.17269 19.5L4.17604 19.5L4.17812 19.5C4.17862 19.5 4.17869 19.3101 4.17873 19.19V19.1898C4.17878 19.0466 4.17879 19.0031 4.17947 19.5H6.25021C6.36661 19.5 6.48142 19.4729 6.58554 19.4208C7.10406 19.1616 7.68061 18.8411 8.12227 18.5887C8.26778 18.5056 8.39966 18.4292 8.51127 18.3641L10.3859 19.4056C10.4974 19.4675 10.6227 19.5 10.7502 19.5H15.3216V18.75C15.3216 19.5 15.3219 19.5 15.3222 19.5H15.3229L15.3243 19.5L15.3276 19.5L15.3363 19.4999L15.361 19.4994C15.3807 19.4989 15.4068 19.4979 15.4384 19.496C15.5014 19.4924 15.5876 19.4854 15.6895 19.4717C15.8893 19.4448 16.1691 19.3897 16.4594 19.2725C16.7484 19.1559 17.0819 18.9639 17.3463 18.6438C17.6214 18.3108 17.7859 17.8812 17.7859 17.3662C17.7859 16.609 17.406 16.0106 16.9554 15.5735C16.5089 15.1403 15.9427 14.8131 15.4235 14.5717C14.8975 14.3271 14.3782 14.1518 13.9947 14.038C13.8886 14.0066 13.7921 13.9796 13.7076 13.9569L13.0018 12.4376C12.8273 12.062 12.3813 11.8989 12.0056 12.0734C11.63 12.2479 11.4669 12.6939 11.6414 13.0696L12.4986 14.9146C12.5979 15.1285 12.792 15.2831 13.0226 15.3322L13.0229 15.3323L13.0229 15.3323L13.0283 15.3335L13.0545 15.3394C13.0786 15.3449 13.1156 15.3536 13.1636 15.3655C13.2598 15.3894 13.3996 15.4261 13.5682 15.4761C13.9079 15.5769 14.3529 15.7281 14.7911 15.9318C15.2362 16.1388 15.6343 16.3817 15.911 16.6501C16.1836 16.9145 16.2859 17.1492 16.2859 17.3662C16.2859 17.5432 16.2361 17.6325 16.1897 17.6886C16.1327 17.7577 16.0377 17.8252 15.898 17.8815C15.7598 17.9373 15.611 17.9687 15.4895 17.9851C15.4306 17.993 15.3828 17.9968 15.3521 17.9985C15.3368 17.9994 15.3261 17.9998 15.3207 17.9999L15.3179 18H10.9445L9.96584 17.4563L11.6528 16.3828C12.0023 16.1604 12.1053 15.6968 11.8829 15.3474C11.6605 14.9979 11.197 14.8949 10.8475 15.1173L8.10968 16.8595L8.10232 16.8641L8.10122 16.8647L8.06117 16.8886C8.02596 16.9095 7.97424 16.9402 7.90894 16.9786C7.77827 17.0554 7.59354 17.1632 7.37805 17.2864C6.99098 17.5075 6.51209 17.7741 6.07112 18L4.18188 18L4.1808 18L4.17965 17.9999C4.17424 17.9998 4.16351 17.9994 4.14824 17.9985C4.11748 17.9968 4.0697 17.993 4.01088 17.9851C3.88933 17.9687 3.74052 17.9373 3.60229 17.8815C3.46264 17.8252 3.36765 17.7577 3.31058 17.6886C3.26421 17.6325 3.21445 17.5432 3.21445 17.3662C3.21445 16.3556 5.25015 15.6201 6.60879 15.2915C6.74624 15.2345 6.86363 15.1379 6.94604 15.0141C7.12669 14.6452 7.32037 14.2212 7.48527 13.8603L7.48527 13.8603L7.48529 13.8603C7.66187 13.4738 7.80543 13.1595 7.86462 13.0626L7.88609 13.0029Z" fill="#292927"/>
</g>
</svg>
