<svg preserveAspectRatio="xMidYMid meet" overflow="visible" style="display: block;" viewBox="0 0 24 24" fill="none" xmlns="http://www.w3.org/2000/svg">
<g transform="translate(2.2500, 1.3364)">
<path id="Vector" fill-rule="evenodd" clip-rule="evenodd" d="M0.694401 16.4907L9.0944 21.1574C9.50213 21.3839 9.99791 21.3839 10.4056 21.1574L18.8056 16.4907C19.2342 16.2526 19.5 15.8009 19.5 15.3106L19.5 6.01666C19.5 5.52639 19.2342 5.07465 18.8056 4.83655L10.4056 0.169888C9.99791 -0.0566301 9.50213 -0.0566282 9.0944 0.169887L0.694384 4.83655C0.265804 5.07465 0 5.52639 0 6.01667L1.90735e-05 15.3106C1.90735e-05 15.8009 0.265823 16.2526 0.694401 16.4907ZM18 15.2223L9.75002 19.8057L1.50002 15.2223L1.5 6.10493L9.75002 1.52159L18 6.10493L18 15.2223ZM8.00002 10.6637C8.00002 11.6302 8.78352 12.4137 9.75002 12.4137C10.7165 12.4137 11.5 11.6302 11.5 10.6637C11.5 9.69718 10.7165 8.91368 9.75002 8.91368C8.78352 8.91368 8.00002 9.69718 8.00002 10.6637Z" fill="#292927"/>
</g>
</svg>
