<svg preserveAspectRatio="xMidYMid meet" overflow="visible" style="display: block;" viewBox="0 0 24 24" fill="none" xmlns="http://www.w3.org/2000/svg">
<g transform="translate(5.2500, 2.2500)">
<path id="Vector" fill-rule="evenodd" clip-rule="evenodd" d="M6.75 18C3.8505 18 1.5 15.6495 1.5 12.75C1.5 9.8505 3.8505 7.5 6.75 7.5C9.6495 7.5 12 9.8505 12 12.75C12 15.6495 9.6495 18 6.75 18ZM0 12.75C0 16.4779 3.02208 19.5 6.75 19.5C10.4779 19.5 13.5 16.4779 13.5 12.75C13.5 9.27558 10.875 6.41428 7.5 6.0412V4.46369L9.41459 5.42098C9.78507 5.60623 10.2356 5.45606 10.4208 5.08557C10.6061 4.71509 10.4559 4.26459 10.0854 4.07934L8.42705 3.25016L10.0854 2.42098C10.4559 2.23574 10.6061 1.78524 10.4208 1.41475C10.2356 1.04427 9.78507 0.894102 9.41459 1.07934L7.5 2.03664V0.75C7.5 0.335787 7.16421 0 6.75 0C6.33579 0 6 0.335787 6 0.75V2.03664L4.08541 1.07934C3.71493 0.894102 3.26442 1.04427 3.07918 1.41475C2.89394 1.78524 3.04411 2.23574 3.41459 2.42098L5.07295 3.25016L3.41459 4.07934C3.04411 4.26459 2.89394 4.71509 3.07918 5.08557C3.26442 5.45606 3.71493 5.60623 4.08541 5.42098L6 4.46369V6.0412C2.62504 6.41428 0 9.27558 0 12.75Z" fill="#292927"/>
</g>
</svg>
