<svg preserveAspectRatio="xMidYMid meet" overflow="visible" style="display: block;" viewBox="0 0 24 24" fill="none" xmlns="http://www.w3.org/2000/svg">
<g transform="translate(1.2503, 1.9198)">
<path id="Vector" fill-rule="evenodd" clip-rule="evenodd" d="M15.8274 8.42172L19.9663 8.62157C19.855 7.3106 19.4607 6.00256 18.7584 4.78622C18.0562 3.56987 17.1205 2.57439 16.0409 1.82248L14.1445 5.50682C14.172 5.53356 14.2002 5.56143 14.2291 5.59037C14.5269 5.88889 14.913 6.32425 15.2084 6.83585C15.5037 7.34745 15.6877 7.89949 15.7974 8.30665C15.808 8.34613 15.818 8.38453 15.8274 8.42172ZM12.7517 6.27068L12.7485 6.26806C12.4663 6.04589 12.3812 5.65488 12.5456 5.33556L15.0825 0.406764C15.1764 0.224421 15.3408 0.0884637 15.5375 0.0305398C15.7343 -0.027385 15.9461 -0.00222259 16.1238 0.100169C17.7073 1.01262 19.0791 2.34158 20.0575 4.03622C21.0359 5.73085 21.5009 7.58332 21.4994 9.41088C21.4992 9.61596 21.4151 9.81203 21.2665 9.95344C21.118 10.0948 20.918 10.1693 20.7132 10.1594L15.1763 9.89203C14.8177 9.87471 14.5217 9.60577 14.4702 9.25059L14.4701 9.25009L14.4701 9.24985L14.4695 9.24596L14.4652 9.21955C14.4611 9.19483 14.4543 9.15648 14.4446 9.10688C14.4251 9.00738 14.3941 8.86435 14.3489 8.69662C14.2568 8.35426 14.114 7.94028 13.9093 7.58585C13.7047 7.23142 13.4176 6.90076 13.1672 6.64976C13.0445 6.52678 12.9362 6.4284 12.8597 6.36178C12.8216 6.32858 12.7918 6.30355 12.7725 6.2876L12.7517 6.27068ZM9.06892 14.3043L6.82638 17.7888C8.01739 18.3478 9.34732 18.6604 10.7518 18.6604C12.1564 18.6604 13.4863 18.3478 14.6773 17.7888L12.4348 14.3043C12.3978 14.3147 12.3596 14.3253 12.3201 14.3358C11.9127 14.4445 11.3426 14.5611 10.7518 14.5611C10.1611 14.5611 9.59101 14.4445 9.18359 14.3358C9.14409 14.3253 9.10583 14.3147 9.06892 14.3043ZM12.4696 12.7162L12.4735 12.7147C12.807 12.5814 13.1882 12.7032 13.3825 13.0052L16.3825 17.6667C16.4935 17.8391 16.529 18.0495 16.4808 18.2489C16.4326 18.4482 16.3049 18.6191 16.1274 18.7218C14.5454 19.6369 12.7086 20.1604 10.7518 20.1604C8.79504 20.1604 6.95824 19.6369 5.37629 18.7218C5.19878 18.6191 5.07105 18.4482 5.02285 18.2489C4.97465 18.0495 5.01017 17.8391 5.12116 17.6667L8.12116 13.0052C8.31543 12.7034 8.69633 12.5815 9.02969 12.7145L9.03016 12.7147L9.03038 12.7148L9.03406 12.7162L9.05908 12.7257C9.08255 12.7345 9.11915 12.7478 9.16696 12.7642C9.26286 12.7971 9.40224 12.8417 9.57009 12.8865C9.91266 12.9778 10.3426 13.0611 10.7518 13.0611C11.1611 13.0611 11.591 12.9778 11.9336 12.8865C12.1014 12.8417 12.2408 12.7971 12.3367 12.7642C12.3845 12.7478 12.4211 12.7345 12.4446 12.7257L12.4696 12.7162ZM5.45851 1.8228L7.3549 5.50714C7.32739 5.53388 7.29914 5.56174 7.27027 5.59068C6.97246 5.8892 6.58638 6.32457 6.29101 6.83616C5.99563 7.34776 5.81164 7.89981 5.70202 8.30697C5.69139 8.34644 5.68139 8.38485 5.67198 8.42204L1.53305 8.62188C1.64439 7.31091 2.03868 6.00288 2.74094 4.78653C3.44319 3.57018 4.37884 2.5747 5.45851 1.8228ZM7.02924 9.25041L7.02988 9.24627L7.03417 9.21986C7.03831 9.19515 7.04507 9.15679 7.05478 9.10719C7.07425 9.0077 7.10528 8.86467 7.15044 8.69693C7.24262 8.35457 7.38541 7.94059 7.59004 7.58616C7.79467 7.23174 8.08179 6.90108 8.3322 6.65007C8.45488 6.5271 8.56323 6.42871 8.63966 6.3621C8.67776 6.32889 8.7076 6.30386 8.72693 6.28791L8.74766 6.27099L8.75073 6.26852L8.75092 6.26837L8.75131 6.26806C9.03314 6.04584 9.11807 5.65505 8.95378 5.33588L6.41685 0.407076C6.323 0.224732 6.15857 0.0887748 5.96184 0.0308507C5.76511 -0.0270733 5.55324 -0.00191121 5.37555 0.10048C3.79207 1.01293 2.4203 2.34189 1.4419 4.03653C0.463498 5.73117 -0.00152834 7.58364 3.77325e-06 9.4112C0.000175716 9.61628 0.0843188 9.81234 0.232848 9.95375C0.381377 10.0952 0.581334 10.1696 0.786176 10.1597L6.32311 9.89234C6.68183 9.87502 6.97791 9.60584 7.02924 9.25041ZM12.0018 9.4104C12.0018 8.72004 11.4422 8.1604 10.7518 8.1604C10.0615 8.1604 9.50183 8.72004 9.50183 9.4104C9.50183 10.1008 10.0615 10.6604 10.7518 10.6604C11.4422 10.6604 12.0018 10.1008 12.0018 9.4104ZM10.7518 6.6604C12.2706 6.6604 13.5018 7.89161 13.5018 9.4104C13.5018 10.9292 12.2706 12.1604 10.7518 12.1604C9.23305 12.1604 8.00183 10.9292 8.00183 9.4104C8.00183 7.89161 9.23305 6.6604 10.7518 6.6604Z" fill="#292927"/>
</g>
</svg>
