<svg preserveAspectRatio="xMidYMid meet" overflow="visible" style="display: block;" viewBox="0 0 24 24" fill="none" xmlns="http://www.w3.org/2000/svg">
<g transform="translate(3.2500, 3.2500)">
<path id="Vector" fill-rule="evenodd" clip-rule="evenodd" d="M1.35 0C0.604416 0 0 0.604415 0 1.35V11.15C0 11.8956 0.604416 12.5 1.35 12.5H5V16.15C5 16.8956 5.60442 17.5 6.35 17.5H16.15C16.8956 17.5 17.5 16.8956 17.5 16.15V6.35C17.5 5.60442 16.8956 5 16.15 5H12.5V1.35C12.5 0.604416 11.8956 0 11.15 0H1.35ZM11 5V1.5H1.5V11H5V6.35C5 5.60442 5.60442 5 6.35 5H11ZM6.5 11.75V16H16V6.5H11.75H6.5V11.75Z" fill="#292927"/>
</g>
</svg>
