<svg preserveAspectRatio="xMidYMid meet" overflow="visible" style="display: block;" viewBox="0 0 24 24" fill="none" xmlns="http://www.w3.org/2000/svg">
<g transform="translate(1.2500, 3.2500)">
<path id="Vector" fill-rule="evenodd" clip-rule="evenodd" d="M18.75 0C19.1642 0 19.5 0.335786 19.5 0.75V2H20.75C21.1642 2 21.5 2.33579 21.5 2.75C21.5 3.16421 21.1642 3.5 20.75 3.5H19.5V4.75C19.5 5.16421 19.1642 5.5 18.75 5.5C18.3358 5.5 18 5.16421 18 4.75V3.5H16.75C16.3358 3.5 16 3.16421 16 2.75C16 2.33579 16.3358 2 16.75 2H18V0.75C18 0.335786 18.3358 0 18.75 0ZM1.5 7V1.5H7.47256L10.5934 4.175C10.8381 4.38472 11.1497 4.5 11.472 4.5H12.75C13.1642 4.5 13.5 4.16421 13.5 3.75C13.5 3.33579 13.1642 3 12.75 3H11.5274L8.40661 0.325004C8.16194 0.115279 7.85031 0 7.52805 0H1.35C0.604415 0 0 0.604416 0 1.35V7.75V16.15C0 16.8956 0.604415 17.5 1.35 17.5H20.15C20.8956 17.5 21.5 16.8956 21.5 16.15V8.35C21.5 7.60442 20.8956 7 20.15 7H1.5ZM1.5 8.5V16H20V8.5H1.5Z" fill="#292927"/>
</g>
</svg>
