<svg preserveAspectRatio="xMidYMid meet" overflow="visible" style="display: block;" viewBox="0 0 24 24" fill="none" xmlns="http://www.w3.org/2000/svg">
<g transform="translate(1.2746, 1.2500)">
<path id="Vector" fill-rule="evenodd" clip-rule="evenodd" d="M10.7007 1.5C5.90469 1.5 1.96041 5.15058 1.49639 9.8241C1.45547 10.2363 1.08815 10.5373 0.675959 10.4963C0.263772 10.4554 -0.0371956 10.0881 0.00372881 9.6759C0.543162 4.24278 5.12598 0 10.7007 0C14.6371 0 18.078 2.11569 19.9507 5.26979V2.75C19.9507 2.33579 20.2865 2 20.7007 2C21.1149 2 21.4507 2.33579 21.4507 2.75V6.15C21.4507 6.89558 20.8463 7.5 20.1007 7.5H19.8858C19.8746 7.50025 19.8634 7.50025 19.8522 7.5H16.7007C16.2865 7.5 15.9507 7.16421 15.9507 6.75C15.9507 6.33579 16.2865 6 16.7007 6H18.6398C17.0228 3.30329 14.0717 1.5 10.7007 1.5ZM19.9544 11.6759C19.4903 16.3494 15.5461 20 10.7501 20C7.37908 20 4.42797 18.1967 2.81098 15.5H4.75C5.16421 15.5 5.5 15.1642 5.5 14.75C5.5 14.3358 5.16421 14 4.75 14H1.59856C1.58738 13.9997 1.57618 13.9997 1.56495 14H1.35C0.604415 14 0 14.6044 0 15.35V18.75C0 19.1642 0.335786 19.5 0.75 19.5C1.16421 19.5 1.5 19.1642 1.5 18.75V16.2301C3.37263 19.3843 6.8136 21.5 10.7501 21.5C16.3248 21.5 20.9076 17.2572 21.447 11.8241C21.4879 11.4119 21.187 11.0446 20.7748 11.0037C20.3626 10.9627 19.9953 11.2637 19.9544 11.6759ZM14.4507 8.25047C14.4507 7.48744 14.2684 6.83418 13.868 6.3149C13.4705 5.79955 12.9203 5.4971 12.3359 5.31522C12.0613 5.22977 11.7641 5.16703 11.4507 5.12113V4.25C11.4507 3.83579 11.1149 3.5 10.7007 3.5C10.2865 3.5 9.95068 3.83579 9.95068 4.25V5.0083C9.47712 4.99659 8.99165 4.99976 8.51075 5.00291H8.51072L8.29635 5.00426C7.55475 5.0086 6.95071 5.61024 6.95072 6.35641L6.95068 15.1446C6.95068 15.8908 7.55472 16.4923 8.29628 16.4967L8.51071 16.498C8.99163 16.5012 9.47711 16.5044 9.95068 16.4927V17.25C9.95068 17.6642 10.2865 18 10.7007 18C11.1149 18 11.4507 17.6642 11.4507 17.25V16.3798C11.7641 16.3339 12.0613 16.2712 12.3359 16.1857C12.9203 16.0039 13.4705 15.7014 13.8679 15.1861C14.2684 14.6668 14.4507 14.0135 14.4507 13.2505C14.4507 12.4199 14.2193 11.7281 13.7414 11.1995C13.5829 11.0241 13.4056 10.876 13.2152 10.7505C13.4056 10.625 13.5829 10.4768 13.7414 10.3015C14.2193 9.77287 14.4507 9.08104 14.4507 8.25047ZM11.6433 9.80182C11.0937 9.93961 10.4384 9.98622 9.70185 10.0001C9.28548 9.99185 8.86409 9.99397 8.45069 9.99677L8.45072 6.50338C9.91789 6.49491 11.0759 6.49407 11.8902 6.74747C12.2849 6.87032 12.5286 7.03443 12.6802 7.23096C12.8287 7.42356 12.9507 7.7275 12.9507 8.25047C12.9507 8.79168 12.8071 9.09824 12.6287 9.29559C12.4371 9.50752 12.1263 9.68073 11.6433 9.80182ZM9.70185 11.5008C9.28547 11.5091 8.86409 11.507 8.45068 11.5042V14.9976C9.91786 15.006 11.0759 15.0069 11.8902 14.7535C12.2849 14.6306 12.5286 14.4665 12.6802 14.27C12.8287 14.0774 12.9507 13.7735 12.9507 13.2505C12.9507 12.7093 12.8071 12.4027 12.6287 12.2054C12.4371 11.9934 12.1263 11.8202 11.6433 11.6991C11.0937 11.5613 10.4384 11.5147 9.70185 11.5008Z" fill="#292927"/>
</g>
</svg>
