<svg preserveAspectRatio="xMidYMid meet" overflow="visible" style="display: block;" viewBox="0 0 24 24" fill="none" xmlns="http://www.w3.org/2000/svg">
<g transform="translate(1.7500, 1.0000)">
<path id="Vector" fill-rule="evenodd" clip-rule="evenodd" d="M8.44309 3.53709C8.40649 3.62555 8.35224 3.70842 8.28033 3.78033L5.78033 6.28033C5.48744 6.57322 5.01256 6.57322 4.71967 6.28033C4.42678 5.98744 4.42678 5.51256 4.71967 5.21967L5.93934 4H4.75C2.95507 4 1.5 5.45507 1.5 7.25V11.25C1.5 11.6642 1.16421 12 0.75 12C0.335786 12 0 11.6642 0 11.25V7.25C0 4.62665 2.12665 2.5 4.75 2.5H5.93934L4.71967 1.28033C4.42678 0.987437 4.42678 0.512563 4.71967 0.21967C5.01256 -0.0732232 5.48744 -0.0732232 5.78033 0.21967L8.28033 2.71967C8.4262 2.86554 8.49943 3.05656 8.5 3.24775L8.5 3.25L8.5 3.25225C8.4997 3.35312 8.47949 3.44931 8.44309 3.53709ZM10.75 10H16.75C16.8881 10 17 10.1119 17 10.25V16.25C17 16.6642 17.3358 17 17.75 17C18.1642 17 18.5 16.6642 18.5 16.25V10.25C18.5 9.2835 17.7165 8.5 16.75 8.5H10.75C10.3358 8.5 10 8.83579 10 9.25C10 9.66421 10.3358 10 10.75 10ZM8.5 9.25026L8.5 18.25C8.5 18.3881 8.61193 18.5 8.75 18.5L17.75 18.5L19.75 18.5C20.1642 18.5 20.5 18.8358 20.5 19.25C20.5 19.6642 20.1642 20 19.75 20H18.5V21.25C18.5 21.6642 18.1642 22 17.75 22C17.3358 22 17 21.6642 17 21.25V20H8.75C7.7835 20 7 19.2165 7 18.25V10H5.75C5.33579 10 5 9.66421 5 9.25C5 8.83579 5.33579 8.5 5.75 8.5H7V7.25C7 6.83579 7.33579 6.5 7.75 6.5C8.16421 6.5 8.5 6.83579 8.5 7.25V9.24974C8.5 9.24983 8.5 9.24991 8.5 9.25C8.5 9.25009 8.5 9.25017 8.5 9.25026Z" fill="#292927"/>
</g>
</svg>
