<svg preserveAspectRatio="xMidYMid meet" overflow="visible" style="display: block;" viewBox="0 0 24 24" fill="none" xmlns="http://www.w3.org/2000/svg">
<g transform="translate(2.2500, 2.2500)">
<path id="Vector" fill-rule="evenodd" clip-rule="evenodd" d="M1.5 18V1.5H18V18H1.5ZM1.35 0C0.604417 0 0 0.604415 0 1.35V18.15C0 18.8956 0.604415 19.5 1.35 19.5H18.15C18.8956 19.5 19.5 18.8956 19.5 18.15V1.35C19.5 0.604417 18.8956 0 18.15 0H1.35ZM13.25 4.5C14.2165 4.5 15 5.2835 15 6.25C15 7.2165 14.2165 8 13.25 8C12.2835 8 11.5 7.2165 11.5 6.25C11.5 5.2835 12.2835 4.5 13.25 4.5ZM16.5 6.25C16.5 4.45507 15.0449 3 13.25 3C11.4551 3 10 4.45507 10 6.25C10 8.04493 11.4551 9.5 13.25 9.5C15.0449 9.5 16.5 8.04493 16.5 6.25ZM3 6.75C3 6.33579 3.33579 6 3.75 6H7.75C8.16421 6 8.5 6.33579 8.5 6.75C8.5 7.16421 8.16421 7.5 7.75 7.5H3.75C3.33579 7.5 3 7.16421 3 6.75ZM6.75 4.5C7.16421 4.5 7.5 4.16421 7.5 3.75C7.5 3.33579 7.16421 3 6.75 3H3.75C3.33579 3 3 3.33579 3 3.75C3 4.16421 3.33579 4.5 3.75 4.5H6.75ZM16.374 16.1661C16.1443 16.5107 15.6786 16.6038 15.334 16.3741L11.2903 13.6783L9.21852 15.3357C8.9446 15.5548 8.55539 15.5548 8.28148 15.3357L3.28148 11.3357C2.95803 11.0769 2.90559 10.605 3.16434 10.2815C3.4231 9.95806 3.89507 9.90562 4.21852 10.1644L8.75 13.7896L10.7815 12.1644C11.0365 11.9603 11.3943 11.9448 11.666 12.126L16.166 15.126C16.5107 15.3558 16.6038 15.8214 16.374 16.1661Z" fill="#292927"/>
</g>
</svg>
