<svg preserveAspectRatio="xMidYMid meet" overflow="visible" style="display: block;" viewBox="0 0 24 24" fill="none" xmlns="http://www.w3.org/2000/svg">
<g transform="translate(1.2500, 1.7495)">
<path id="Vector" fill-rule="evenodd" clip-rule="evenodd" d="M1.5 2.75C1.5 2.05964 2.05964 1.5 2.75 1.5H18.75C19.4404 1.5 20 2.05964 20 2.75V4H1.5V2.75ZM0 4.75V2.75C0 1.23122 1.23122 0 2.75 0H18.75C20.2688 0 21.5 1.23122 21.5 2.75V4.75V9.75C21.5 10.1642 21.1642 10.5 20.75 10.5C20.3358 10.5 20 10.1642 20 9.75V5.5H1.5V16.75C1.5 17.4404 2.05964 18 2.75 18H11.75C12.1642 18 12.5 18.3358 12.5 18.75C12.5 19.1642 12.1642 19.5 11.75 19.5H2.75C1.23122 19.5 0 18.2688 0 16.75V4.75ZM4.26173 2.19058C4.56961 2.46768 4.59457 2.9419 4.31748 3.24978L4.30748 3.26089C4.03038 3.56877 3.55616 3.59373 3.24828 3.31663C2.9404 3.03954 2.91544 2.56532 3.19254 2.25744L3.20254 2.24633C3.47963 1.93845 3.95385 1.91349 4.26173 2.19058ZM7.31748 3.24978C7.59457 2.9419 7.56961 2.46768 7.26173 2.19058C6.95385 1.91349 6.47963 1.93845 6.20254 2.24633L6.19254 2.25744C5.91544 2.56532 5.9404 3.03954 6.24828 3.31663C6.55616 3.59373 7.03038 3.56877 7.30748 3.26089L7.31748 3.24978ZM10.2617 2.19058C10.5696 2.46768 10.5946 2.9419 10.3175 3.24978L10.3075 3.26089C10.0304 3.56877 9.55616 3.59373 9.24828 3.31663C8.9404 3.03954 8.91544 2.56532 9.19254 2.25744L9.20254 2.24633C9.47963 1.93845 9.95385 1.91349 10.2617 2.19058ZM17.9269 11.1491C17.4827 11.0362 17.0173 11.0362 16.5731 11.1491L14.0177 11.7981C13.4211 11.9496 12.9883 12.495 13.0072 13.131C13.0976 16.1628 14.0242 18.0017 15.0119 19.0925C15.5003 19.632 15.9891 19.9721 16.3667 20.1799C16.5553 20.2837 16.716 20.3545 16.8353 20.4008C16.895 20.424 16.9444 20.4411 16.9819 20.4532C17.0006 20.4593 17.0164 20.4641 17.029 20.4678L17.0455 20.4726L17.0519 20.4743L17.0546 20.4751L17.0559 20.4754C17.0565 20.4756 17.0571 20.4757 17.25 19.751L17.0571 20.4757C17.1835 20.5094 17.3165 20.5094 17.4429 20.4757L17.25 19.751C17.4429 20.4757 17.4435 20.4756 17.4441 20.4754L17.4453 20.4751L17.4481 20.4743L17.4545 20.4726L17.471 20.4678C17.4836 20.4641 17.4994 20.4593 17.5181 20.4532C17.5556 20.4411 17.605 20.424 17.6647 20.4008C17.784 20.3545 17.9447 20.2837 18.1333 20.1799C18.5108 19.9721 18.9997 19.632 19.4881 19.0925C20.4758 18.0017 21.4024 16.1628 21.4928 13.131C21.5117 12.495 21.0789 11.9496 20.4823 11.7981L17.9269 11.1491ZM17.41 18.8658C17.3506 18.8985 17.2968 18.9255 17.25 18.9473C17.2032 18.9255 17.1494 18.8985 17.09 18.8658C16.8394 18.7279 16.4872 18.4871 16.1238 18.0858C15.4196 17.308 14.6149 15.8615 14.5112 13.2203L16.9423 12.6029C17.1442 12.5516 17.3558 12.5516 17.5577 12.6029L19.9888 13.2203C19.8851 15.8615 19.0804 17.308 18.3762 18.0858C18.0128 18.4871 17.6606 18.7279 17.41 18.8658Z" fill="#292927"/>
</g>
</svg>
