<svg preserveAspectRatio="xMidYMid meet" overflow="visible" style="display: block;" viewBox="0 0 24 24" fill="none" xmlns="http://www.w3.org/2000/svg">
<g transform="translate(1.2499, 2.2500)">
<path id="Vector" fill-rule="evenodd" clip-rule="evenodd" d="M1.75017 18C1.6121 18 1.50017 17.8881 1.50017 17.75V15.7134L3.08557 14.9207C3.45606 14.7354 3.60623 14.2849 3.42098 13.9144C3.23574 13.5439 2.78524 13.3938 2.41475 13.579L1.50017 14.0363V1.75C1.50017 1.61193 1.6121 1.5 1.75017 1.5H19.7502C19.8882 1.5 20.0002 1.61193 20.0002 1.75V14.0363L19.0856 13.579C18.7151 13.3938 18.2646 13.5439 18.0793 13.9144C17.8941 14.2849 18.0443 14.7354 18.4148 14.9207L20.0002 15.7134V17.75C20.0002 17.8881 19.8882 18 19.7502 18H1.75017ZM21.5002 15.2659V17.75C21.5002 18.7165 20.7167 19.5 19.7502 19.5H1.75017C0.783669 19.5 0.000167848 18.7165 0.000167848 17.75V15.2663C-5.63363e-05 15.2557 -5.55622e-05 15.2451 0.000167848 15.2346V1.75C0.000167848 0.783501 0.78367 0 1.75017 0H19.7502C20.7167 0 21.5002 0.783503 21.5002 1.75V15.2349C21.5004 15.2452 21.5004 15.2556 21.5002 15.2659ZM8.00017 14.25C8.00017 13.5596 7.44052 13 6.75017 13C6.05981 13 5.50017 13.5596 5.50017 14.25C5.50017 14.9404 6.05981 15.5 6.75017 15.5C7.44052 15.5 8.00017 14.9404 8.00017 14.25ZM12.0002 14.25C12.0002 13.5596 11.4405 13 10.7502 13C10.0598 13 9.50017 13.5596 9.50017 14.25C9.50017 14.9404 10.0598 15.5 10.7502 15.5C11.4405 15.5 12.0002 14.9404 12.0002 14.25ZM16.0002 14.25C16.0002 13.5596 15.4405 13 14.7502 13C14.0598 13 13.5002 13.5596 13.5002 14.25C13.5002 14.9404 14.0598 15.5 14.7502 15.5C15.4405 15.5 16.0002 14.9404 16.0002 14.25Z" fill="#292927"/>
</g>
</svg>
