<svg preserveAspectRatio="xMidYMid meet" overflow="visible" style="display: block;" viewBox="0 0 24 24" fill="none" xmlns="http://www.w3.org/2000/svg">
<g transform="translate(2.2500, 2.2500)">
<path id="Vector" fill-rule="evenodd" clip-rule="evenodd" d="M0.301733 1.77691C0.0103441 0.902741 0.661003 0 1.58246 0L16.3175 5.96046e-08C16.8986 5.96046e-08 17.4145 0.371831 17.5983 0.923093L19.4615 6.51283C19.5128 6.66678 19.5128 6.83322 19.4615 6.98717L17.5406 12.75L19.1983 17.7231C19.4897 18.5973 18.839 19.5 17.9175 19.5H3.18246C2.60137 19.5 2.08549 19.1282 1.90173 18.5769L0.0384875 12.9872C-0.0128292 12.8332 -0.0128292 12.6668 0.0384875 12.5128L1.95943 6.75L0.301733 1.77691ZM3.29057 7.5L1.79057 12H16.2094L17.7094 7.5H3.29057ZM17.7094 6H3.29057L1.79057 1.5H16.2094L17.7094 6ZM16.2094 13.5H1.79057L3.29057 18H17.7094L16.2094 13.5Z" fill="#292927"/>
</g>
</svg>
