<svg preserveAspectRatio="xMidYMid meet" overflow="visible" style="display: block;" viewBox="0 0 24 24" fill="none" xmlns="http://www.w3.org/2000/svg">
<g transform="translate(1.9153, 1.7500)">
<path id="Vector" fill-rule="evenodd" clip-rule="evenodd" d="M8.16938 2.75C8.16938 2.05964 8.72903 1.5 9.41938 1.5C10.1097 1.5 10.6694 2.05964 10.6694 2.75C10.6694 3.16421 11.0052 3.5 11.4194 3.5C11.8336 3.5 12.1694 3.16421 12.1694 2.75C12.1694 1.23122 10.9382 0 9.41938 0C7.9006 0 6.66938 1.23122 6.66938 2.75C6.66938 3.16421 7.00517 3.5 7.41938 3.5C7.8336 3.5 8.16938 3.16421 8.16938 2.75ZM10.1694 18.75C10.1694 19.1642 9.83358 19.5 9.41937 19.5H2.75059C1.06516 19.5 -0.223713 17.9977 0.0325678 16.3318L1.41718 7.33184C1.62357 5.99031 2.77789 5 4.13521 5H14.7035C16.0608 5 17.2152 5.9903 17.4216 7.33184L18.1606 12.136C18.2236 12.5454 17.9428 12.9283 17.5334 12.9913C17.124 13.0543 16.7411 12.7734 16.6781 12.364L15.939 7.55993C15.8452 6.95014 15.3205 6.5 14.7035 6.5H4.13521C3.51824 6.5 2.99355 6.95014 2.89974 7.55993L1.51513 16.5599C1.39863 17.3171 1.98448 18 2.75059 18H9.41937C9.83358 18 10.1694 18.3358 10.1694 18.75ZM10.889 16.2197C11.1819 15.9268 11.6568 15.9268 11.9497 16.2197L14.4194 18.6893L18.889 14.2197C19.1819 13.9268 19.6568 13.9268 19.9497 14.2197C20.2426 14.5126 20.2426 14.9874 19.9497 15.2803L14.9497 20.2803C14.6568 20.5732 14.1819 20.5732 13.889 20.2803L10.889 17.2803C10.5962 16.9874 10.5962 16.5126 10.889 16.2197Z" fill="#292927"/>
</g>
</svg>
