<svg preserveAspectRatio="xMidYMid meet" overflow="visible" style="display: block;" viewBox="0 0 24 24" fill="none" xmlns="http://www.w3.org/2000/svg">
<g transform="translate(7.5000, 3.9949)">
<path id="Vector" fill-rule="evenodd" clip-rule="evenodd" d="M1.5 4.32956C1.5 3.35239 1.87514 2.66814 2.40711 2.21677C2.95539 1.75156 3.71315 1.5 4.5 1.5C5.28685 1.5 6.04461 1.75157 6.59289 2.21678C7.12486 2.66815 7.5 3.3524 7.5 4.32956C7.5 5.04096 7.32686 5.49144 7.0933 5.84178C6.85821 6.1944 6.55068 6.47039 6.14952 6.83042L6.04374 6.92544C5.61228 7.31375 5.10516 7.78755 4.72089 8.46642C4.32927 9.15827 4.09091 10.0132 4.09091 11.1476C4.09091 11.5619 4.4267 11.8976 4.84091 11.8976C5.25512 11.8976 5.59091 11.5619 5.59091 11.1476C5.59091 10.2366 5.77869 9.64272 6.02627 9.20533C6.2812 8.75495 6.62636 8.41912 7.04717 8.0404C7.0859 8.00555 7.12569 7.97001 7.16632 7.93371C7.54415 7.59623 7.99477 7.19372 8.34136 6.67384C8.74701 6.06539 9 5.32271 9 4.32956C9 2.92036 8.43764 1.81483 7.56336 1.07302C6.70539 0.345035 5.58815 2.98029e-06 4.5 0C3.41185 -3.03978e-06 2.29461 0.345023 1.43664 1.073C0.562363 1.81482 0 2.92035 0 4.32956C0 4.74377 0.335786 5.07956 0.75 5.07956C1.16421 5.07956 1.5 4.74377 1.5 4.32956ZM5.41709 15.7508C5.69418 15.4429 5.66922 14.9687 5.36134 14.6916C5.05346 14.4145 4.57924 14.4394 4.30215 14.7473L4.29215 14.7584C4.01505 15.0663 4.04001 15.5405 4.34789 15.8176C4.65577 16.0947 5.12999 16.0697 5.40709 15.7619L5.41709 15.7508Z" fill="#292927"/>
</g>
</svg>
