<svg preserveAspectRatio="xMidYMid meet" overflow="visible" style="display: block;" viewBox="0 0 24 24" fill="none" xmlns="http://www.w3.org/2000/svg">
<g transform="translate(1.2500, 1.2500)">
<path id="Vector" fill-rule="evenodd" clip-rule="evenodd" d="M1.5 10.75C1.5 5.64137 5.64137 1.5 10.75 1.5C15.8586 1.5 20 5.64137 20 10.75C20 15.8586 15.8586 20 10.75 20C5.64137 20 1.5 15.8586 1.5 10.75ZM10.75 0C4.81294 0 0 4.81294 0 10.75C0 16.6871 4.81294 21.5 10.75 21.5C16.6871 21.5 21.5 16.6871 21.5 10.75C21.5 4.81294 16.6871 0 10.75 0ZM12.6544 14.7059C12.9061 15.0348 13.3769 15.0974 13.7058 14.8457C14.0348 14.5939 14.0973 14.1232 13.8456 13.7943L12.4742 12.0023C12.5927 11.9573 12.7112 11.902 12.8266 11.8341C13.5612 11.4021 14 10.5894 14 9.35008C14 8.11073 13.5612 7.29802 12.8266 6.86607C12.2013 6.49839 11.4889 6.4995 11.1436 6.50004L11.1072 6.50008H8.25001C7.83579 6.50008 7.50001 6.83587 7.50001 7.25008V14.2501C7.50001 14.6643 7.83579 15.0001 8.25001 15.0001C8.66422 15.0001 9.00001 14.6643 9.00001 14.2501V12.2001H10.7367L12.6544 14.7059ZM11.1072 10.7001H9.00001V8.00008H11.1072C11.4921 8.00008 11.8217 8.01526 12.0663 8.1591C12.2245 8.25215 12.5 8.48943 12.5 9.35008C12.5 10.2107 12.2245 10.448 12.0663 10.5411C11.8217 10.6849 11.4921 10.7001 11.1072 10.7001Z" fill="#292927"/>
</g>
</svg>
