<svg preserveAspectRatio="xMidYMid meet" overflow="visible" style="display: block;" viewBox="0 0 24 24" fill="none" xmlns="http://www.w3.org/2000/svg">
<g transform="translate(1.2500, 5.5873)">
<path id="Vector" fill-rule="evenodd" clip-rule="evenodd" d="M10.75 11.2412L14.7737 6.41277L10.75 1.58431L6.72628 6.41277L10.75 11.2412ZM11.7871 12.3398C11.2474 12.9875 10.2526 12.9875 9.7129 12.3398L5.49392 7.27702C5.07672 6.77638 5.07672 6.04916 5.49392 5.54852L9.7129 0.485751C10.2526 -0.161917 11.2474 -0.161918 11.7871 0.485751L16.0061 5.54852C16.4233 6.04916 16.4233 6.77638 16.0061 7.27702L11.7871 12.3398ZM0 6.41294C0 5.99873 0.335786 5.66294 0.75 5.66294H2.75C3.16421 5.66294 3.5 5.99873 3.5 6.41294C3.5 6.82716 3.16421 7.16294 2.75 7.16294H0.75C0.335786 7.16294 0 6.82716 0 6.41294ZM18.75 5.66294C18.3358 5.66294 18 5.99873 18 6.41294C18 6.82716 18.3358 7.16294 18.75 7.16294H20.75C21.1642 7.16294 21.5 6.82716 21.5 6.41294C21.5 5.99873 21.1642 5.66294 20.75 5.66294H18.75Z" fill="#292927"/>
</g>
</svg>
