<svg preserveAspectRatio="xMidYMid meet" overflow="visible" style="display: block;" viewBox="0 0 24 24" fill="none" xmlns="http://www.w3.org/2000/svg">
<g transform="translate(0.7500, 4.2500)">
<path id="Vector" fill-rule="evenodd" clip-rule="evenodd" d="M21 2.75C21 2.05964 20.4404 1.5 19.75 1.5H6.75C6.05964 1.5 5.5 2.05964 5.5 2.75V3.25C5.5 3.66421 5.16421 4 4.75 4C4.33579 4 4 3.66421 4 3.25V2.75C4 1.23122 5.23122 0 6.75 0H19.75C21.2688 0 22.5 1.23122 22.5 2.75V12.75C22.5 14.2688 21.2688 15.5 19.75 15.5H6.75C5.23122 15.5 4 14.2688 4 12.75V12.25C4 11.8358 4.33579 11.5 4.75 11.5C5.16421 11.5 5.5 11.8358 5.5 12.25V12.75C5.5 13.4404 6.05964 14 6.75 14H19.75C20.4404 14 21 13.4404 21 12.75V2.75ZM9.16601 4.12596C8.82137 3.8962 8.35571 3.98933 8.12595 4.33397C7.89619 4.67862 7.98932 5.14427 8.33396 5.37404L12.834 8.37404C13.0859 8.54199 13.4141 8.54199 13.666 8.37404L18.166 5.37404C18.5107 5.14427 18.6038 4.67862 18.374 4.33397C18.1443 3.98933 17.6786 3.8962 17.334 4.12596L13.25 6.84861L9.16601 4.12596ZM4.75 10C5.16421 10 5.5 9.66421 5.5 9.25C5.5 8.83579 5.16421 8.5 4.75 8.5H2.75C2.33579 8.5 2 8.83579 2 9.25C2 9.66421 2.33579 10 2.75 10H4.75ZM5.5 6.25C5.5 6.66421 5.16421 7 4.75 7H0.75C0.335786 7 0 6.66421 0 6.25C0 5.83579 0.335786 5.5 0.75 5.5H4.75C5.16421 5.5 5.5 5.83579 5.5 6.25Z" fill="#292927"/>
</g>
</svg>
