<svg preserveAspectRatio="xMidYMid meet" overflow="visible" style="display: block;" viewBox="0 0 24 24" fill="none" xmlns="http://www.w3.org/2000/svg">
<g transform="translate(1.2500, 1.2500)">
<path id="Vector" fill-rule="evenodd" clip-rule="evenodd" d="M1.5 10.75C1.5 5.64137 5.64137 1.5 10.75 1.5C15.8586 1.5 20 5.64137 20 10.75C20 15.8586 15.8586 20 10.75 20C5.64137 20 1.5 15.8586 1.5 10.75ZM10.75 0C4.81294 0 0 4.81294 0 10.75C0 16.6871 4.81294 21.5 10.75 21.5C16.6871 21.5 21.5 16.6871 21.5 10.75C21.5 4.81294 16.6871 0 10.75 0ZM9.5 5.75C9.5 5.05964 10.0596 4.5 10.75 4.5C11.4404 4.5 12 5.05964 12 5.75C12 6.44036 11.4404 7 10.75 7C10.0596 7 9.5 6.44036 9.5 5.75ZM9.5 15.75C9.5 15.0596 10.0596 14.5 10.75 14.5C11.4404 14.5 12 15.0596 12 15.75C12 16.4404 11.4404 17 10.75 17C10.0596 17 9.5 16.4404 9.5 15.75ZM9.5 10.75C9.5 10.0596 10.0596 9.5 10.75 9.5C11.4404 9.5 12 10.0596 12 10.75C12 11.4404 11.4404 12 10.75 12C10.0596 12 9.5 11.4404 9.5 10.75Z" fill="#292927"/>
</g>
</svg>
