<svg preserveAspectRatio="xMidYMid meet" overflow="visible" style="display: block;" viewBox="0 0 24 24" fill="none" xmlns="http://www.w3.org/2000/svg">
<g transform="translate(3.2500, 3.2500)">
<path id="Vector" fill-rule="evenodd" clip-rule="evenodd" d="M1.75 0C2.16421 0 2.5 0.335787 2.5 0.75L2.5 4.75C2.5 5.16421 2.16421 5.5 1.75 5.5C1.33579 5.5 1 5.16421 1 4.75V0.75C1 0.335786 1.33579 0 1.75 0ZM5 2.75C5 2.33579 5.33579 2 5.75 2L16.75 2C17.1642 2 17.5 2.33579 17.5 2.75C17.5 3.16421 17.1642 3.5 16.75 3.5L5.75 3.5C5.33579 3.5 5 3.16421 5 2.75ZM2.15 6L0.75 6C0.335786 6 0 6.33579 0 6.75C0 7.16421 0.335787 7.5 0.75 7.5H2L2 8H1.35C0.604416 8 0 8.60442 0 9.35V10.15C0 10.8956 0.604416 11.5 1.35 11.5H2.75C3.16421 11.5 3.5 11.1642 3.5 10.75C3.5 10.3358 3.16421 10 2.75 10H1.5V9.5H2.15C2.89558 9.5 3.5 8.89558 3.5 8.15V7.35C3.5 6.60442 2.89558 6 2.15 6ZM0.75 12L2.15 12C2.89558 12 3.5 12.6044 3.5 13.35L3.5 14.7491L3.5 14.75L3.5 14.7509L3.5 16.15C3.5 16.8956 2.89558 17.5 2.15 17.5H0.75C0.335786 17.5 0 17.1642 0 16.75C0 16.3358 0.335786 16 0.75 16H2V15.5H0.75C0.335787 15.5 0 15.1642 0 14.75C0 14.3358 0.335787 14 0.75 14H2V13.5L0.75 13.5C0.335787 13.5 0 13.1642 0 12.75C0 12.3358 0.335786 12 0.75 12ZM5 8.75C5 8.33579 5.33579 8 5.75 8L16.75 8C17.1642 8 17.5 8.33579 17.5 8.75C17.5 9.16422 17.1642 9.5 16.75 9.5L5.75 9.5C5.33579 9.5 5 9.16421 5 8.75ZM5.75 14C5.33579 14 5 14.3358 5 14.75C5 15.1642 5.33579 15.5 5.75 15.5L16.75 15.5C17.1642 15.5 17.5 15.1642 17.5 14.75C17.5 14.3358 17.1642 14 16.75 14L5.75 14Z" fill="#292927"/>
</g>
</svg>
