<svg preserveAspectRatio="xMidYMid meet" overflow="visible" style="display: block;" viewBox="0 0 24 24" fill="none" xmlns="http://www.w3.org/2000/svg">
<g transform="translate(0.7500, 5.7500)">
<path id="Vector" fill-rule="evenodd" clip-rule="evenodd" d="M10.4128 1.59585C10.849 1.53273 11.2955 1.5 11.75 1.5C12.1601 1.5 12.5637 1.52665 12.9591 1.57822C13.3698 1.6318 13.7462 1.34227 13.7998 0.931532C13.8534 0.520798 13.5638 0.1444 13.1531 0.0908232C12.6936 0.0308788 12.2252 0 11.75 0C11.2233 0 10.7051 0.037929 10.1979 0.111313C9.788 0.170632 9.50376 0.551044 9.56308 0.960988C9.6224 1.37093 10.0028 1.65517 10.4128 1.59585ZM15.8652 0.816011C15.4825 0.657345 15.0438 0.838895 14.8851 1.22151C14.7264 1.60413 14.908 2.04293 15.2906 2.2016C16.0422 2.51327 16.7441 2.92138 17.3808 3.4107C17.7093 3.66309 18.1801 3.60144 18.4325 3.273C18.6849 2.94456 18.6233 2.47371 18.2948 2.22132C17.5553 1.65305 16.7395 1.17859 15.8652 0.816011ZM7.85338 2.35815C8.22895 2.18344 8.39177 1.73736 8.21707 1.36179C8.04236 0.986224 7.59627 0.823396 7.22071 0.998104C6.27151 1.43966 5.39791 2.01547 4.62419 2.70091C4.31415 2.97558 4.28547 3.44959 4.56014 3.75964C4.83482 4.06968 5.30882 4.09836 5.61887 3.82369C6.2853 3.23329 7.03721 2.73782 7.85338 2.35815ZM20.2787 4.20516C20.0263 3.87673 19.5554 3.81508 19.227 4.06747C18.8986 4.31986 18.8369 4.79072 19.0893 5.11915C19.5786 5.7559 19.9867 6.45782 20.2984 7.20941C20.4571 7.59203 20.8959 7.77358 21.2785 7.61492C21.6611 7.45625 21.8427 7.01745 21.684 6.63483C21.3214 5.76048 20.847 4.94465 20.2787 4.20516ZM3.89334 5.86528C4.1124 5.51374 4.00501 5.05117 3.65347 4.8321C3.30192 4.61304 2.83935 4.72043 2.62029 5.07198C2.34673 5.51096 2.10389 5.97121 1.89482 6.44972C1.72898 6.82929 1.90224 7.27143 2.28181 7.43726C2.66137 7.6031 3.10351 7.42984 3.26935 7.05028C3.44909 6.63891 3.65794 6.24304 3.89334 5.86528ZM22.4092 9.3469C22.3556 8.93617 21.9792 8.64663 21.5685 8.70021C21.1577 8.75379 20.8682 9.13018 20.9218 9.54092C20.9734 9.9363 21 10.3399 21 10.75C21 11.1642 21.3358 11.5 21.75 11.5C22.1642 11.5 22.5 11.1642 22.5 10.75C22.5 10.2748 22.4691 9.80645 22.4092 9.3469ZM0 10.75C0 11.7165 0.783502 12.5 1.75 12.5C2.4481 12.5 3.05073 12.0912 3.33159 11.5H10.1684C10.4493 12.0912 11.0519 12.5 11.75 12.5C12.7165 12.5 13.5 11.7165 13.5 10.75C13.5 9.7835 12.7165 9 11.75 9C11.0519 9 10.4493 9.40876 10.1684 10H3.33159C3.05073 9.40876 2.4481 9 1.75 9C0.783502 9 0 9.7835 0 10.75Z" fill="#292927"/>
</g>
</svg>
