<svg preserveAspectRatio="xMidYMid meet" overflow="visible" style="display: block;" viewBox="0 0 24 24" fill="none" xmlns="http://www.w3.org/2000/svg">
<g transform="translate(2.5807, 2.2500)">
<path id="Vector" fill-rule="evenodd" clip-rule="evenodd" d="M9.41936 1.5C8.72901 1.5 8.16936 2.05964 8.16936 2.75C8.16936 3.16421 7.83358 3.5 7.41936 3.5C7.00515 3.5 6.66936 3.16421 6.66936 2.75C6.66936 1.23122 7.90058 0 9.41936 0C10.9381 0 12.1694 1.23122 12.1694 2.75C12.1694 3.16421 11.8336 3.5 11.4194 3.5C11.0051 3.5 10.6694 3.16421 10.6694 2.75C10.6694 2.05964 10.1097 1.5 9.41936 1.5ZM16.0881 18C16.8543 18 17.4401 17.3171 17.3236 16.5599L15.939 7.55993C15.8452 6.95014 15.3205 6.5 14.7035 6.5H4.13521C3.51824 6.5 2.99355 6.95014 2.89974 7.55993L1.51513 16.5599C1.39863 17.3171 1.98448 18 2.75059 18H16.0881ZM18.8062 16.3318C19.0625 17.9977 17.7736 19.5 16.0881 19.5H2.75059C1.06516 19.5 -0.223713 17.9977 0.0325677 16.3318L1.41718 7.33184C1.62357 5.99031 2.77789 5 4.13521 5H14.7035C16.0608 5 17.2152 5.9903 17.4216 7.33184L18.8062 16.3318ZM6.41155 12C5.99734 12 5.66155 12.3358 5.66155 12.75C5.66155 13.1642 5.99734 13.5 6.41155 13.5H12.4116C12.8258 13.5 13.1616 13.1642 13.1616 12.75C13.1616 12.3358 12.8258 12 12.4116 12H6.41155Z" fill="#292927"/>
</g>
</svg>
