<svg preserveAspectRatio="xMidYMid meet" overflow="visible" style="display: block;" viewBox="0 0 24 24" fill="none" xmlns="http://www.w3.org/2000/svg">
<g transform="translate(2.2500, 1.7500)">
<path id="Vector" fill-rule="evenodd" clip-rule="evenodd" d="M8.75 0C9.16421 0 9.5 0.335786 9.5 0.75V3.75C9.5 4.99257 10.5075 6 11.7502 6H12.75C14.95 6 16.5 7.15 16.5 8.75C16.5 9.16421 16.1642 9.5 15.75 9.5C15.3358 9.5 15 9.16421 15 8.75C15 8.35 14.55 7.5 12.75 7.5H11.7502C9.67921 7.5 8 5.82114 8 3.75V0.75C8 0.335786 8.33579 0 8.75 0ZM19.2803 20.2803C19.421 20.1397 19.5 19.9489 19.5 19.75V10.75C19.5 10.3358 19.1642 10 18.75 10H15.75C15.3358 10 15 10.3358 15 10.75V13.7926L12.6859 12.1397C12.4389 11.9633 12.1099 11.9531 11.8525 12.114L8.25 14.3656L4.6475 12.114C4.36948 11.9402 4.01083 11.9672 3.76191 12.1806L0.261906 15.1806C0.0956726 15.323 0 15.5311 0 15.75V19.75C0 20.1642 0.335787 20.5 0.75 20.5H18.75C18.9489 20.5 19.1397 20.421 19.2803 20.2803ZM15 15.636V19H1.5V16.095L4.31975 13.678L7.8525 15.886C8.0957 16.038 8.4043 16.038 8.6475 15.886L12.2222 13.6518L15 15.636ZM16.5 19V11.5H18V19H16.5ZM19.5 0.75C19.5 0.335786 19.1642 0 18.75 0C18.3358 0 18 0.335786 18 0.75C18 1.14123 17.858 1.36776 17.6521 1.5351C17.4144 1.72818 17.0532 1.86758 16.6118 1.95035C16.1802 2.03127 15.7359 2.04642 15.3906 2.03923C15.2768 2.03685 15.1759 2.03211 15.0926 2.02689C15.0603 2.02261 15.03 2.01901 15.0018 2.01599C14.9321 2.00852 14.8749 2.00453 14.8324 2.0024C14.8111 2.00134 14.7934 2.00074 14.7796 2.0004L14.7618 2.00008L14.7552 2.00002L14.7524 2L14.7512 2C14.7506 2 14.75 2 14.75 2.75V2C14.3539 2 14.0261 2.30804 14.0015 2.7034C13.9768 3.09875 14.2639 3.44508 14.657 3.49421L14.75 2.75C14.657 3.49421 14.6578 3.49431 14.6581 3.49434L14.6595 3.49452L14.6635 3.49501L14.6759 3.49645L14.7172 3.50097C14.752 3.50459 14.8008 3.50929 14.8618 3.51419C14.8854 3.51609 14.9108 3.51801 14.938 3.51992C15.0082 3.53054 15.0946 3.54673 15.1931 3.57136C15.4934 3.64643 15.8965 3.79737 16.3 4.1C17.0724 4.67928 18 5.93299 18 8.75C18 9.16421 18.3358 9.5 18.75 9.5C19.1642 9.5 19.5 9.16421 19.5 8.75C19.5 5.92017 18.6524 4.22592 17.6016 3.2378C17.9495 3.11667 18.2957 2.94485 18.5979 2.69927C19.142 2.25724 19.5 1.60877 19.5 0.75Z" fill="#292927"/>
</g>
</svg>
