<svg preserveAspectRatio="xMidYMid meet" overflow="visible" style="display: block;" viewBox="0 0 24 24" fill="none" xmlns="http://www.w3.org/2000/svg">
<g transform="translate(1.2746, 1.2500)">
<path id="Vector" fill-rule="evenodd" clip-rule="evenodd" d="M19.9544 9.8241C19.4903 5.15058 15.5461 1.5 10.7501 1.5C7.06623 1.5 3.88386 3.65341 2.39587 6.77344C2.1915 7.20196 1.75608 7.5 1.25303 7.5C0.561035 7.5 6.49024e-05 6.93903 6.49024e-05 6.24704V1.75C6.49024e-05 1.33579 0.335852 1 0.750065 1C1.16428 1 1.50006 1.33579 1.50006 1.75V5.26976C3.37257 2.11586 6.8136 0 10.7501 0C16.3248 0 20.9076 4.24278 21.447 9.6759C21.4879 10.0881 21.187 10.4554 20.7748 10.4963C20.3626 10.5373 19.9953 10.2363 19.9544 9.8241ZM1.49639 11.6759C1.9604 16.3494 5.90469 20 10.7007 20C14.3845 20 17.5669 17.8466 19.0549 14.7266C19.2592 14.298 19.6947 14 20.1977 14C20.8897 14 21.4507 14.561 21.4507 15.253V19.75C21.4507 20.1642 21.1149 20.5 20.7007 20.5C20.2865 20.5 19.9507 20.1642 19.9507 19.75V16.2302C18.0782 19.3841 14.6371 21.5 10.7007 21.5C5.12598 21.5 0.543158 17.2572 0.003725 11.8241C-0.0371994 11.4119 0.263768 11.0446 0.675955 11.0037C1.08814 10.9627 1.45546 11.2637 1.49639 11.6759ZM9.00824 5.5L7.60695 7.67485C7.35842 8.06057 6.93097 8.29365 6.47211 8.29365H5.44928V15H15.9493V8.29365H14.9264C14.4676 8.29365 14.0401 8.06057 13.7916 7.67485L12.3903 5.5H9.00824ZM7.79161 4.6188C8.04014 4.23308 8.46759 4 8.92645 4H12.4721C12.931 4 13.3584 4.23308 13.6069 4.6188L15.0082 6.79365H16.0993C16.8449 6.79365 17.4493 7.39807 17.4493 8.14365V15.15C17.4493 15.8956 16.8449 16.5 16.0993 16.5H5.29928C4.5537 16.5 3.94928 15.8956 3.94928 15.15V8.14365C3.94928 7.39807 4.5537 6.79365 5.29928 6.79365H6.39032L7.79161 4.6188ZM9.44928 10.75C9.44928 10.0596 10.0089 9.5 10.6993 9.5C11.3896 9.5 11.9493 10.0596 11.9493 10.75C11.9493 11.4404 11.3896 12 10.6993 12C10.0089 12 9.44928 11.4404 9.44928 10.75ZM10.6993 8C9.1805 8 7.94928 9.23122 7.94928 10.75C7.94928 12.2688 9.1805 13.5 10.6993 13.5C12.2181 13.5 13.4493 12.2688 13.4493 10.75C13.4493 9.23122 12.2181 8 10.6993 8Z" fill="#292927"/>
</g>
</svg>
