<svg preserveAspectRatio="xMidYMid meet" overflow="visible" style="display: block;" viewBox="0 0 24 24" fill="none" xmlns="http://www.w3.org/2000/svg">
<g transform="translate(4.2500, 2.2500)">
<path id="Vector" fill-rule="evenodd" clip-rule="evenodd" d="M1.5 2.75C1.5 2.05964 2.05964 1.5 2.75 1.5H12.75C13.4404 1.5 14 2.05964 14 2.75V3.75C14 4.16421 14.3358 4.5 14.75 4.5C15.1642 4.5 15.5 4.16421 15.5 3.75V2.75C15.5 1.23122 14.2688 0 12.75 0H2.75C1.23122 0 0 1.23122 0 2.75V16.75C0 18.2688 1.23122 19.5 2.75 19.5H12.75C14.2688 19.5 15.5 18.2688 15.5 16.75V15.75C15.5 15.3358 15.1642 15 14.75 15C14.3358 15 14 15.3358 14 15.75V16.75C14 17.4404 13.4404 18 12.75 18H2.75C2.05964 18 1.5 17.4404 1.5 16.75V2.75ZM7.5 9.75C7.5 7.95507 8.95507 6.5 10.75 6.5C11.3877 6.5 11.9819 6.68316 12.4837 7.0004L7.96622 11.4284C7.67005 10.9385 7.5 10.3645 7.5 9.75ZM9.01627 12.4996L13.5338 8.07156C13.83 8.5615 14 9.13553 14 9.75C14 11.5449 12.5449 13 10.75 13C10.1123 13 9.51811 12.8168 9.01627 12.4996ZM10.75 5C8.12665 5 6 7.12665 6 9.75C6 11.0443 6.51869 12.219 7.35785 13.075C8.21907 13.9535 9.4214 14.5 10.75 14.5C13.3734 14.5 15.5 12.3734 15.5 9.75C15.5 8.45567 14.9813 7.28098 14.1421 6.42497C13.2809 5.54646 12.0786 5 10.75 5Z" fill="#292927"/>
</g>
</svg>
