<svg preserveAspectRatio="xMidYMid meet" overflow="visible" style="display: block;" viewBox="0 0 24 24" fill="none" xmlns="http://www.w3.org/2000/svg">
<g transform="translate(4.2500, 2.2258)">
<path id="Vector" fill-rule="evenodd" clip-rule="evenodd" d="M8.42964 1.52036C7.92156 1.46537 7.46734 1.5183 7.12521 1.71584C6.78307 1.91337 6.51012 2.28027 6.3037 2.74777C6.13756 3.12406 6.03628 3.51665 5.97642 3.82516C6.27257 3.9268 6.66 4.03391 7.06544 4.07779C7.57352 4.13277 8.02774 4.07984 8.36987 3.88231C8.71201 3.68478 8.98495 3.31788 9.19138 2.85038C9.35752 2.47409 9.4588 2.0815 9.51866 1.77298C9.22251 1.67134 8.83508 1.56424 8.42964 1.52036ZM10.3498 0.490429C10.3168 0.47161 10.2819 0.455066 10.2453 0.44108C9.87275 0.298758 9.267 0.102221 8.59102 0.0290665C7.92316 -0.0432105 7.10383 -0.00387421 6.37521 0.416797C5.64658 0.837469 5.20285 1.52736 4.93151 2.14189C4.65688 2.76388 4.52421 3.38674 4.46119 3.78053C4.37296 4.3319 4.65339 4.86505 5.14527 5.10771C5.1783 5.12653 5.21318 5.14308 5.24979 5.15706C5.62233 5.29939 6.22808 5.49592 6.90405 5.56908C7.57192 5.64136 8.39125 5.60202 9.11987 5.18135C9.8485 4.76068 10.2922 4.07078 10.5636 3.45626C10.8382 2.83427 10.9709 2.2114 11.0339 1.81761C11.1221 1.26625 10.8417 0.733094 10.3498 0.490429ZM1.5 0.79834C1.5 0.384126 1.16421 0.0483398 0.75 0.0483398C0.335786 0.0483398 0 0.384126 0 0.79834V11.6265C0 11.8254 0.0790176 12.0161 0.21967 12.1568C0.360322 12.2974 0.551088 12.3765 0.75 12.3765H7V18.7983C7 19.2126 7.33579 19.5483 7.75 19.5483C8.16421 19.5483 8.5 19.2126 8.5 18.7983V12.3765H14.75C15.1642 12.3765 15.5 12.0407 15.5 11.6265V0.79834C15.5 0.384126 15.1642 0.0483398 14.75 0.0483398C14.3358 0.0483398 14 0.384126 14 0.79834V10.8765H7.75H1.5V0.79834Z" fill="#292927"/>
</g>
</svg>
