<svg preserveAspectRatio="xMidYMid meet" overflow="visible" style="display: block;" viewBox="0 0 24 24" fill="none" xmlns="http://www.w3.org/2000/svg">
<g transform="translate(2.2500, 2.2500)">
<path id="Vector" fill-rule="evenodd" clip-rule="evenodd" d="M1.5 1.5H18V18H1.5V1.5ZM18.15 19.5C18.8956 19.5 19.5 18.8956 19.5 18.15V1.35C19.5 0.604418 18.8956 0 18.15 0H1.35C0.604418 0 0 0.604414 0 1.35V18.15C0 18.8956 0.604414 19.5 1.35 19.5H18.15ZM10.5 6.75C10.5 6.33579 10.1642 6 9.75 6C9.33579 6 9 6.33579 9 6.75V9H6.75C6.33579 9 6 9.33579 6 9.75C6 10.1642 6.33579 10.5 6.75 10.5H9V12.75C9 13.1642 9.33579 13.5 9.75 13.5C10.1642 13.5 10.5 13.1642 10.5 12.75V10.5H12.75C13.1642 10.5 13.5 10.1642 13.5 9.75C13.5 9.33579 13.1642 9 12.75 9H10.5V6.75Z" fill="#292927"/>
</g>
</svg>
