<svg preserveAspectRatio="xMidYMid meet" overflow="visible" style="display: block;" viewBox="0 0 24 24" fill="none" xmlns="http://www.w3.org/2000/svg">
<g transform="translate(1.4999, 1.2366)">
<path id="Vector" fill-rule="evenodd" clip-rule="evenodd" d="M7.88417 1.44769C6.60244 0.624846 5.63108 0.253129 4.93398 0.0983692C4.55949 0.0152314 4.26513 -0.00503166 4.04658 0.000983465C3.93751 0.00398551 3.84818 0.0135115 3.7781 0.0246881C3.7431 0.0302702 3.71302 0.0362438 3.68781 0.0419768C3.67521 0.0448422 3.66384 0.0476441 3.65368 0.0503021L3.63938 0.0541693L3.63291 0.0560018L3.62985 0.0568893L3.62837 0.0573254C3.62837 0.0573254 3.62691 0.0577563 3.84018 0.776793L3.62691 0.0577563C3.41314 0.121161 3.23867 0.276392 3.15083 0.481332C2.62181 1.7156 2.53767 3.09017 2.90395 4.37246C1.99948 5.47523 1.50045 6.86107 1.50018 8.29666C1.50018 11.1888 2.38239 13.0867 3.81 14.2871C4.85945 15.1695 6.13805 15.6171 7.39494 15.8609C7.33477 15.9863 7.28087 16.115 7.23354 16.2465C7.03889 16.7869 6.95945 17.362 7.00018 17.9348V18.2115C5.84658 18.4961 4.83602 18.4338 3.97705 18.0746C2.99212 17.6626 2.1105 16.8202 1.42098 15.4411C1.23574 15.0706 0.785238 14.9205 0.414754 15.1057C0.0442702 15.291 -0.105898 15.7415 0.0793439 16.1119C0.889826 17.7329 2.00821 18.877 3.39828 19.4584C4.50627 19.9218 5.72585 20.0021 7.00018 19.7479V20.7768C7.00018 21.191 7.33597 21.5268 7.75018 21.5268C8.1644 21.5268 8.50018 21.191 8.50018 20.7768V18.7932C8.50043 18.7822 8.50043 18.7712 8.50018 18.7602V17.9068C8.50018 17.8872 8.49941 17.8675 8.49787 17.848C8.46871 17.4773 8.5188 17.1046 8.6448 16.7547C8.7708 16.4049 8.96984 16.0858 9.22867 15.8188C9.42786 15.6134 9.49277 15.3125 9.396 15.0432C9.29924 14.7739 9.05766 14.5831 8.77327 14.5514C7.2454 14.3811 5.81922 14.0167 4.77537 13.139C3.76799 12.2919 3.00021 10.8647 3.00018 8.29693L3.36613 6.48164C3.58466 5.96133 3.89721 5.48006 4.29338 5.06393C4.49129 4.85606 4.5532 4.55346 4.45285 4.28456C4.21807 3.65545 4.13523 2.98629 4.20309 2.32985L4.3666 1.51875C4.43644 1.5283 4.5171 1.54234 4.60889 1.56272C5.13375 1.67924 6.02567 2.00372 7.33258 2.87978C7.51293 3.00067 7.73681 3.03747 7.94637 2.98068C9.02813 2.6875 10.1392 2.54091 11.2502 2.54091C12.3612 2.54091 13.4722 2.6875 14.554 2.98068C14.7636 3.03747 14.9874 3.00067 15.1678 2.87978C16.4747 2.00372 17.3666 1.67924 17.8915 1.56272C17.9833 1.54234 18.0639 1.5283 18.1338 1.51875L18.2973 2.32985C18.3651 2.98629 18.2823 3.65545 18.0475 4.28456C17.9472 4.55346 18.0091 4.85606 18.207 5.06393C18.6032 5.48006 18.9157 5.96133 19.1342 6.48164L19.5002 8.29693C19.5002 10.8647 18.7324 12.2919 17.725 13.139C16.6812 14.0167 15.255 14.3811 13.7271 14.5514C13.4427 14.5831 13.2011 14.7739 13.1044 15.0432C13.0076 15.3125 13.0725 15.6134 13.2717 15.8188C13.5305 16.0858 13.7296 16.4049 13.8556 16.7547C13.9816 17.1046 14.0317 17.4773 14.0025 17.848C14.001 17.8675 14.0002 17.8872 14.0002 17.9068V20.7768C14.0002 21.191 14.336 21.5268 14.7502 21.5268C15.1644 21.5268 15.5002 21.191 15.5002 20.7768V17.9348C15.5409 17.362 15.4615 16.7869 15.2668 16.2465C15.2195 16.115 15.1656 15.9863 15.1054 15.8609C16.3623 15.6171 17.6409 15.1695 18.6904 14.2871C20.118 13.0867 21.0002 11.1888 21.0002 8.29666C20.9999 6.86107 20.5009 5.47523 19.5964 4.37246C19.9627 3.09017 19.8786 1.7156 19.3495 0.481332C19.2617 0.276392 19.0872 0.121161 18.8735 0.0577563L18.6602 0.776793C18.8735 0.0577563 18.872 0.0573254 18.872 0.0573254L18.8705 0.0568893L18.8675 0.0560018L18.861 0.0541693L18.8467 0.0503021C18.8365 0.0476441 18.8252 0.0448422 18.8126 0.0419768C18.7873 0.0362438 18.7573 0.0302702 18.7223 0.0246881C18.6522 0.0135115 18.5629 0.00398551 18.4538 0.000983465C18.2352 -0.00503166 17.9409 0.0152314 17.5664 0.0983692C16.8693 0.253129 15.8979 0.624846 14.6162 1.44769C13.5106 1.1765 12.3804 1.04091 11.2502 1.04091C10.12 1.04091 8.98977 1.1765 7.88417 1.44769Z" fill="#292927"/>
</g>
</svg>
