<svg preserveAspectRatio="xMidYMid meet" overflow="visible" style="display: block;" viewBox="0 0 24 24" fill="none" xmlns="http://www.w3.org/2000/svg">
<g transform="translate(5.2500, 1.2498)">
<path id="Vector" fill-rule="evenodd" clip-rule="evenodd" d="M3.5 2.75C3.5 2.05964 4.05964 1.5 4.75 1.5H8.75C9.44036 1.5 10 2.05964 10 2.75V4.83249C9.03592 4.30187 7.92821 4 6.75 4C5.57179 4 4.46408 4.30187 3.5 4.83249V2.75ZM11.5 2.75V5.95417C12.735 7.17744 13.5 8.87438 13.5 10.75C13.5 12.6256 12.735 14.3226 11.5 15.5458V18.7504C11.5 20.2692 10.2688 21.5004 8.75 21.5004H4.75C3.23122 21.5004 2 20.2692 2 18.7504V15.5458C0.764998 14.3226 0 12.6256 0 10.75C0 8.87438 0.764998 7.17744 2 5.95417V2.75C2 1.23122 3.23122 0 4.75 0H8.75C10.2688 0 11.5 1.23122 11.5 2.75ZM6.75 17.5C7.92821 17.5 9.03592 17.1981 10 16.6675V18.7504C10 19.4408 9.44036 20.0004 8.75 20.0004H4.75C4.05964 20.0004 3.5 19.4408 3.5 18.7504V16.6675C4.46408 17.1981 5.57179 17.5 6.75 17.5ZM6.75 5.5C3.8505 5.5 1.5 7.8505 1.5 10.75C1.5 13.6495 3.8505 16 6.75 16C9.6495 16 12 13.6495 12 10.75C12 7.8505 9.6495 5.5 6.75 5.5ZM7.5 8.75C7.5 8.33579 7.16421 8 6.75 8C6.33579 8 6 8.33579 6 8.75V10.75C6 11.1642 6.33579 11.5 6.75 11.5H8.75C9.16421 11.5 9.5 11.1642 9.5 10.75C9.5 10.3358 9.16421 10 8.75 10H7.5V8.75Z" fill="#292927"/>
</g>
</svg>
