<svg preserveAspectRatio="xMidYMid meet" overflow="visible" style="display: block;" viewBox="0 0 24 24" fill="none" xmlns="http://www.w3.org/2000/svg">
<g transform="translate(3.2450, 3.2449)">
<path id="Vector" fill-rule="evenodd" clip-rule="evenodd" d="M0.75 0C0.335786 0 0 0.335786 0 0.75V16.75C0 17.1642 0.335786 17.5 0.75 17.5C1.16421 17.5 1.5 17.1642 1.5 16.75V1.5H16.75C17.1642 1.5 17.5 1.16421 17.5 0.75C17.5 0.335786 17.1642 0 16.75 0H0.75ZM17.2617 4.19156C17.5696 4.46865 17.5946 4.94287 17.3175 5.25075L17.3075 5.26186C17.0304 5.56975 16.5562 5.59471 16.2483 5.31761C15.9404 5.04052 15.9154 4.5663 16.1925 4.25842L16.2025 4.24731C16.4796 3.93942 16.9538 3.91447 17.2617 4.19156ZM17.3175 9.25075C17.5946 8.94287 17.5696 8.46865 17.2617 8.19156C16.9538 7.91446 16.4796 7.93942 16.2025 8.24731L16.1925 8.25842C15.9154 8.5663 15.9404 9.04052 16.2483 9.31761C16.5562 9.59471 17.0304 9.56975 17.3075 9.26186L17.3175 9.25075ZM17.2617 12.1916C17.5696 12.4687 17.5946 12.9429 17.3175 13.2508L17.3075 13.2619C17.0304 13.5697 16.5562 13.5947 16.2483 13.3176C15.9404 13.0405 15.9154 12.5663 16.1925 12.2584L16.2025 12.2473C16.4796 11.9394 16.9538 11.9145 17.2617 12.1916ZM5.31748 17.2508C5.59457 16.9429 5.56961 16.4687 5.26173 16.1916C4.95385 15.9145 4.47963 15.9394 4.20254 16.2473L4.19254 16.2584C3.91544 16.5663 3.9404 17.0405 4.24828 17.3176C4.55616 17.5947 5.03038 17.5697 5.30748 17.2619L5.31748 17.2508ZM9.31748 17.2508C9.59457 16.9429 9.56961 16.4687 9.26173 16.1916C8.95385 15.9145 8.47963 15.9394 8.20254 16.2473L8.19254 16.2584C7.91544 16.5663 7.9404 17.0405 8.24828 17.3176C8.55616 17.5947 9.03038 17.5697 9.30748 17.2619L9.31748 17.2508ZM13.2617 16.1916C13.5696 16.4687 13.5946 16.9429 13.3175 17.2508L13.3075 17.2619C13.0304 17.5697 12.5562 17.5947 12.2483 17.3176C11.9404 17.0405 11.9154 16.5663 12.1925 16.2584L12.2025 16.2473C12.4796 15.9394 12.9538 15.9145 13.2617 16.1916ZM17.3175 17.2508C17.5946 16.9429 17.5696 16.4687 17.2617 16.1916C16.9538 15.9145 16.4796 15.9394 16.2025 16.2473L16.1925 16.2584C15.9154 16.5663 15.9404 17.0405 16.2483 17.3176C16.5562 17.5947 17.0304 17.5697 17.3075 17.2619L17.3175 17.2508Z" fill="#292927"/>
</g>
</svg>
