<svg preserveAspectRatio="xMidYMid meet" overflow="visible" style="display: block;" viewBox="0 0 24 24" fill="none" xmlns="http://www.w3.org/2000/svg">
<g transform="translate(1.2500, 3.4047)">
<path id="Vector" fill-rule="evenodd" clip-rule="evenodd" d="M1.58643 4.75211L10.7489 15.5798L19.9114 4.75214C16.9975 2.56898 13.948 1.5 10.7489 1.5C7.54974 1.5 4.50033 2.56897 1.58643 4.75211ZM0.505364 3.68924C3.69775 1.2457 7.11729 0 10.7489 0C14.3805 0 17.8 1.24571 20.9924 3.68926L21.0064 3.69997L21.0199 3.71133C21.5714 4.17615 21.6722 4.99336 21.1943 5.55815L11.7395 16.7312C11.6931 16.7861 11.6421 16.8371 11.5872 16.8835C11.0401 17.3465 10.2212 17.2783 9.75822 16.7312L0.292081 5.54463L0.281341 5.53065C-0.158173 4.95881 -0.0821518 4.13893 0.505364 3.68924ZM10.7496 4C11.1638 4 11.4996 4.33579 11.4996 4.75V6.75C11.4996 7.16421 11.1638 7.5 10.7496 7.5C10.3354 7.5 9.99963 7.16421 9.99963 6.75V4.75C9.99963 4.33579 10.3354 4 10.7496 4ZM11.3171 11.2508C11.5942 10.9429 11.5692 10.4687 11.2614 10.1916C10.9535 9.91446 10.4793 9.93942 10.2022 10.2473L10.1922 10.2584C9.91508 10.5663 9.94003 11.0405 10.2479 11.3176C10.5558 11.5947 11.03 11.5697 11.3071 11.2619L11.3171 11.2508Z" fill="#292927"/>
</g>
</svg>
