<svg preserveAspectRatio="xMidYMid meet" overflow="visible" style="display: block;" viewBox="0 0 24 24" fill="none" xmlns="http://www.w3.org/2000/svg">
<g transform="translate(0.5563, 0.0000) scale(0.669875)">
<path id="Vector" fill-rule="evenodd" clip-rule="evenodd" d="M8.2671 3.51927C10.3697 1.27646 13.2394 0 16.2501 0C16.8872 0 17.5188 0.0572386 18.1386 0.168981C18.818 0.291476 19.2694 0.941542 19.1469 1.62094C19.0244 2.30034 18.3744 2.75181 17.695 2.62931C17.2205 2.54376 16.7374 2.5 16.2501 2.5C13.9564 2.5 11.739 3.47116 10.0909 5.22912C8.44029 6.98982 7.50009 9.39411 7.50009 11.9167C7.50009 18.3102 6.21448 22.5096 4.86302 25.1524C4.56681 25.7317 4.26847 26.2341 3.98152 26.6667H16.2117C16.2246 26.6663 16.2375 26.6661 16.2504 26.6661H28.519C28.232 26.2335 27.9337 25.7311 27.6375 25.1519C26.6188 23.1598 25.6375 20.2833 25.216 16.2494C25.0505 14.6647 27.5547 14.5827 27.7044 16.0083C28.0979 19.7542 28.9992 22.3239 29.8633 24.0136C30.4388 25.139 31.0032 25.8851 31.4038 26.336C31.6043 26.5618 31.7647 26.7147 31.866 26.8047C31.9167 26.8498 31.9527 26.8792 31.9716 26.8942L31.9861 26.9055C32.4212 27.2222 32.6052 27.7826 32.4412 28.2963C32.2757 28.8144 31.7943 29.1661 31.2504 29.1661H16.2888C16.276 29.1665 16.2631 29.1667 16.2501 29.1667H1.25009C0.706211 29.1667 0.224752 28.815 0.059318 28.2969C-0.104702 27.7832 0.079251 27.2228 0.514376 26.9061L0.528914 26.8948C0.547823 26.8798 0.583795 26.8504 0.634478 26.8053C0.735797 26.7153 0.896164 26.5624 1.09674 26.3366C1.49725 25.8856 2.06168 25.1396 2.63716 24.0142C3.7857 21.7682 5.00009 17.9676 5.00009 11.9167C5.00009 8.78127 6.16702 5.75935 8.2671 3.51927ZM24.1668 6.25C24.1668 4.17893 25.8457 2.5 27.9168 2.5C29.9878 2.5 31.6668 4.17893 31.6668 6.25C31.6668 8.32107 29.9878 10 27.9168 10C25.8457 10 24.1668 8.32107 24.1668 6.25ZM27.9168 0C24.465 0 21.6668 2.79822 21.6668 6.25C21.6668 9.70178 24.465 12.5 27.9168 12.5C31.3685 12.5 34.1668 9.70178 34.1668 6.25C34.1668 2.79822 31.3685 0 27.9168 0ZM14.448 32.2897C14.1016 31.6925 13.3367 31.4892 12.7396 31.8356C12.1424 32.182 11.9391 32.9469 12.2855 33.5441C12.6884 34.2386 13.2667 34.8152 13.9625 35.2159C14.6583 35.6167 15.4472 35.8276 16.2501 35.8276C17.0531 35.8276 17.8419 35.6167 18.5377 35.2159C19.2335 34.8152 19.8118 34.2386 20.2147 33.5441C20.5611 32.9469 20.3578 32.182 19.7607 31.8356C19.1635 31.4892 18.3986 31.6925 18.0522 32.2897C17.8691 32.6054 17.6062 32.8674 17.2899 33.0496C16.9737 33.2318 16.6151 33.3276 16.2501 33.3276C15.8851 33.3276 15.5266 33.2318 15.2103 33.0496C14.894 32.8674 14.6312 32.6054 14.448 32.2897Z" fill="#292927"/>
</g>
</svg>
