<svg preserveAspectRatio="xMidYMid meet" overflow="visible" style="display: block;" viewBox="0 0 24 24" fill="none" xmlns="http://www.w3.org/2000/svg">
<g transform="translate(1.2500, 1.2500)">
<path id="Vector" fill-rule="evenodd" clip-rule="evenodd" d="M5.75 0C6.16421 0 6.5 0.335786 6.5 0.75V1.75C6.5 2.16421 6.16421 2.5 5.75 2.5C5.33579 2.5 5 2.16421 5 1.75V0.75C5 0.335786 5.33579 0 5.75 0ZM15.75 0C16.1642 0 16.5 0.335786 16.5 0.75V1.75C16.5 2.16421 16.1642 2.5 15.75 2.5C15.3358 2.5 15 2.16421 15 1.75V0.75C15 0.335786 15.3358 0 15.75 0ZM5.5 5.5V16H16V5.5H5.5ZM4 5.35C4 4.60442 4.60442 4 5.35 4H16.15C16.8956 4 17.5 4.60442 17.5 5.35V16.15C17.5 16.8956 16.8956 17.5 16.15 17.5H5.35C4.60442 17.5 4 16.8956 4 16.15V5.35ZM0 5.75C0 5.33579 0.335786 5 0.75 5H1.75C2.16421 5 2.5 5.33579 2.5 5.75C2.5 6.16421 2.16421 6.5 1.75 6.5H0.75C0.335786 6.5 0 6.16421 0 5.75ZM19 5.75C19 5.33579 19.3358 5 19.75 5H20.75C21.1642 5 21.5 5.33579 21.5 5.75C21.5 6.16421 21.1642 6.5 20.75 6.5H19.75C19.3358 6.5 19 6.16421 19 5.75ZM0 15.75C0 15.3358 0.335786 15 0.75 15H1.75C2.16421 15 2.5 15.3358 2.5 15.75C2.5 16.1642 2.16421 16.5 1.75 16.5H0.75C0.335786 16.5 0 16.1642 0 15.75ZM19 15.75C19 15.3358 19.3358 15 19.75 15H20.75C21.1642 15 21.5 15.3358 21.5 15.75C21.5 16.1642 21.1642 16.5 20.75 16.5H19.75C19.3358 16.5 19 16.1642 19 15.75ZM5.75 19C6.16421 19 6.5 19.3358 6.5 19.75V20.75C6.5 21.1642 6.16421 21.5 5.75 21.5C5.33579 21.5 5 21.1642 5 20.75V19.75C5 19.3358 5.33579 19 5.75 19ZM15.75 19C16.1642 19 16.5 19.3358 16.5 19.75V20.75C16.5 21.1642 16.1642 21.5 15.75 21.5C15.3358 21.5 15 21.1642 15 20.75V19.75C15 19.3358 15.3358 19 15.75 19Z" fill="#292927"/>
</g>
</svg>
