<svg preserveAspectRatio="xMidYMid meet" overflow="visible" style="display: block;" viewBox="0 0 24 24" fill="none" xmlns="http://www.w3.org/2000/svg">
<g transform="translate(2.2500, 6.2500)">
<path id="Vector" fill-rule="evenodd" clip-rule="evenodd" d="M8.5 0.75C8.5 1.16421 8.16421 1.5 7.75 1.5H1.5V5H5.75C6.16421 5 6.5 5.33579 6.5 5.75C6.5 6.16421 6.16421 6.5 5.75 6.5H1.5V10.75C1.5 11.1642 1.16421 11.5 0.75 11.5C0.335786 11.5 0 11.1642 0 10.75V5.75V0.75C0 0.335787 0.335786 0 0.75 0H7.75C8.16421 0 8.5 0.335787 8.5 0.75ZM11.3356 0.281506C11.0769 -0.04194 10.6049 -0.094381 10.2815 0.164376C9.95803 0.423133 9.90559 0.895103 10.1643 1.21855L13.7895 5.75003L10.1643 10.2815C9.90559 10.605 9.95803 11.0769 10.2815 11.3357C10.6049 11.5944 11.0769 11.542 11.3356 11.2185L14.75 6.95061L18.1643 11.2185C18.4231 11.542 18.8951 11.5944 19.2185 11.3357C19.542 11.0769 19.5944 10.605 19.3356 10.2815L15.7105 5.75003L19.3356 1.21855C19.5944 0.895103 19.542 0.423133 19.2185 0.164376C18.8951 -0.094381 18.4231 -0.04194 18.1643 0.281506L14.75 4.54944L11.3356 0.281506Z" fill="#292927"/>
</g>
</svg>
