<svg preserveAspectRatio="xMidYMid meet" overflow="visible" style="display: block;" viewBox="0 0 24 24" fill="none" xmlns="http://www.w3.org/2000/svg">
<g transform="translate(1.2746, 1.2500)">
<path id="Vector" fill-rule="evenodd" clip-rule="evenodd" d="M1.49639 9.8241C1.9604 5.15058 5.90469 1.5 10.7007 1.5C14.0717 1.5 17.0228 3.30329 18.6398 6H16.7007C16.2865 6 15.9507 6.33579 15.9507 6.75C15.9507 7.16421 16.2865 7.5 16.7007 7.5H19.8522C19.8633 7.50025 19.8746 7.50025 19.8858 7.5H20.1007C20.8463 7.5 21.4507 6.89558 21.4507 6.15V2.75C21.4507 2.33579 21.1149 2 20.7007 2C20.2865 2 19.9507 2.33579 19.9507 2.75V5.2698C18.078 2.11569 14.6371 0 10.7007 0C5.12598 0 0.543158 4.24278 0.003725 9.6759C-0.0371994 10.0881 0.263768 10.4554 0.675955 10.4963C1.08814 10.5373 1.45546 10.2363 1.49639 9.8241ZM10.7501 20C15.5461 20 19.4903 16.3494 19.9544 11.6759C19.9953 11.2637 20.3626 10.9627 20.7748 11.0037C21.187 11.0446 21.4879 11.4119 21.447 11.8241C20.9076 17.2572 16.3248 21.5 10.7501 21.5C6.8136 21.5 3.37262 19.3843 1.5 16.2301V18.75C1.5 19.1642 1.16421 19.5 0.75 19.5C0.335786 19.5 0 19.1642 0 18.75V15.35C0 14.6044 0.604415 14 1.35 14H1.56496C1.57618 13.9997 1.58739 13.9997 1.59857 14H4.75C5.16421 14 5.5 14.3358 5.5 14.75C5.5 15.1642 5.16421 15.5 4.75 15.5H2.81099C4.42798 18.1967 7.37909 20 10.7501 20ZM15.2984 7.48205C15.7247 8.32612 15.9507 9.40034 15.9507 10.7497C15.9507 12.099 15.7247 13.1733 15.2984 14.0173C14.8665 14.8728 14.2481 15.4528 13.5375 15.832C12.1966 16.5477 10.5494 16.5238 9.3536 16.5066L9.28918 16.5056C8.55389 16.4951 7.95069 15.8991 7.95068 15.1517L7.95069 11.5H6.70068C6.28647 11.5 5.95068 11.1642 5.95068 10.75C5.95068 10.3358 6.28647 10 6.70068 10H7.95069L7.9507 6.34798C7.95069 5.60053 8.55389 5.00448 9.2892 4.99399L9.35381 4.99306C10.5496 4.97575 12.1967 4.95191 13.5375 5.66744C14.2481 6.04669 14.8665 6.62664 15.2984 7.48205ZM9.45069 10L9.4507 6.49194C10.6923 6.47622 11.9035 6.49571 12.8312 6.99079C13.2844 7.23265 13.6743 7.59341 13.9595 8.15822C14.2504 8.73437 14.4507 9.55988 14.4507 10.7497C14.4507 11.9395 14.2504 12.765 13.9595 13.3412C13.6742 13.906 13.2844 14.2668 12.8312 14.5087C11.9035 15.0038 10.6923 15.0234 9.45068 15.0077L9.45069 11.5H10.7007C11.1149 11.5 11.4507 11.1642 11.4507 10.75C11.4507 10.3358 11.1149 10 10.7007 10H9.45069Z" fill="#292927"/>
</g>
</svg>
