<svg preserveAspectRatio="xMidYMid meet" overflow="visible" style="display: block;" viewBox="0 0 24 24" fill="none" xmlns="http://www.w3.org/2000/svg">
<g transform="translate(1.2905, 1.4767)">
<path id="Vector" fill-rule="evenodd" clip-rule="evenodd" d="M5.42239 2.61616L3.03047 9.0011L3.02962 9.00339L2.86358 9.45102L2.86272 9.45333L1.61179 12.7922L10.7094 19.4162L19.8071 12.7922L18.556 9.45284L18.556 9.45279L15.9942 2.61664L14.0132 8.71861C13.8861 9.11015 13.5213 9.37527 13.1096 9.37527H8.30917C7.89763 9.37527 7.53289 9.11028 7.40569 8.71889L5.42239 2.61616ZM4.5696 0.61674C4.88499 -0.22514 6.08486 -0.198591 6.36271 0.65639L8.70875 7.87527H12.7099L15.0534 0.656685C15.331 -0.198475 16.5311 -0.225269 16.8466 0.616662L19.9606 8.92647L19.9606 8.92652L21.3584 12.6574C21.5082 13.057 21.373 13.5075 21.028 13.7587L11.2686 20.8646C10.9353 21.1072 10.4836 21.1072 10.1503 20.8646L0.390891 13.7587C0.0458786 13.5075 -0.0892705 13.057 0.0604609 12.6574L1.45721 8.92937L1.45807 8.92706L1.6241 8.47945L1.62495 8.47717L4.5696 0.61674Z" fill="#292927"/>
</g>
</svg>
