<svg preserveAspectRatio="xMidYMid meet" overflow="visible" style="display: block;" viewBox="0 0 24 24" fill="none" xmlns="http://www.w3.org/2000/svg">
<g transform="translate(4.2500, 2.2500)">
<path id="Vector" fill-rule="evenodd" clip-rule="evenodd" d="M0.20896 3.7306C-0.0696532 4.02082 -0.0696532 4.47918 0.20896 4.7694L2.60896 7.2694C2.89582 7.56821 3.37059 7.5779 3.6694 7.29104C3.96821 7.00418 3.9779 6.52941 3.69104 6.2306L2.50966 5H7.06597C7.4202 6.98951 9.1587 8.5 11.25 8.5C13.5972 8.5 15.5 6.59721 15.5 4.25C15.5 1.90279 13.5972 0 11.25 0C9.1587 0 7.4202 1.51049 7.06597 3.5H2.50966L3.69104 2.2694C3.9779 1.97059 3.96821 1.49582 3.6694 1.20896C3.37059 0.922103 2.89582 0.931793 2.60896 1.2306L0.20896 3.7306ZM11.25 7C9.73122 7 8.5 5.76878 8.5 4.25C8.5 2.73122 9.73122 1.5 11.25 1.5C12.7688 1.5 14 2.73122 14 4.25C14 5.76878 12.7688 7 11.25 7ZM0.20896 14.7306C-0.0696532 15.0208 -0.0696532 15.4792 0.20896 15.7694L2.60896 18.2694C2.89582 18.5682 3.37059 18.5779 3.6694 18.291C3.96821 18.0042 3.9779 17.5294 3.69104 17.2306L2.50966 16H7.06597C7.4202 17.9895 9.1587 19.5 11.25 19.5C13.5972 19.5 15.5 17.5972 15.5 15.25C15.5 12.9028 13.5972 11 11.25 11C9.1587 11 7.4202 12.5105 7.06597 14.5H2.50966L3.69104 13.2694C3.9779 12.9706 3.96821 12.4958 3.6694 12.209C3.37059 11.9221 2.89582 11.9318 2.60896 12.2306L0.20896 14.7306ZM11.25 18C9.73122 18 8.5 16.7688 8.5 15.25C8.5 13.7312 9.73122 12.5 11.25 12.5C12.7688 12.5 14 13.7312 14 15.25C14 16.7688 12.7688 18 11.25 18Z" fill="#292927"/>
</g>
</svg>
