<svg preserveAspectRatio="xMidYMid meet" overflow="visible" style="display: block;" viewBox="0 0 24 24" fill="none" xmlns="http://www.w3.org/2000/svg">
<g transform="translate(1.2500, 1.2500)">
<path id="Vector" fill-rule="evenodd" clip-rule="evenodd" d="M10.75 0C4.81294 0 0 4.81294 0 10.75C0 16.687 4.81293 21.5 10.75 21.5C16.687 21.5 21.5 16.687 21.5 10.75C21.5 4.81293 16.687 0 10.75 0ZM1.5 10.75C1.5 5.64136 5.64136 1.5 10.75 1.5C15.8586 1.5 20 5.64137 20 10.75C20 15.8586 15.8586 20 10.75 20C5.64137 20 1.5 15.8586 1.5 10.75ZM12.8713 7.17188H7.92153C7.72959 7.17188 7.53765 7.2451 7.3912 7.39154C7.31929 7.46345 7.26504 7.54633 7.22844 7.63479C7.19177 7.72322 7.17153 7.82018 7.17153 7.92188V12.8717C7.17153 13.2859 7.50732 13.6217 7.92153 13.6217C8.33574 13.6217 8.67153 13.2859 8.67153 12.8717V9.73254L13.0481 14.1091C13.341 14.402 13.8158 14.402 14.1087 14.1091C14.4016 13.8162 14.4016 13.3413 14.1087 13.0484L9.73219 8.67188H12.8713C13.2855 8.67188 13.6213 8.33609 13.6213 7.92188C13.6213 7.50766 13.2855 7.17188 12.8713 7.17188Z" fill="#292927"/>
</g>
</svg>
