<svg preserveAspectRatio="xMidYMid meet" overflow="visible" style="display: block;" viewBox="0 0 24 24" fill="none" xmlns="http://www.w3.org/2000/svg">
<g transform="translate(2.2500, 4.2500)">
<path id="Vector" fill-rule="evenodd" clip-rule="evenodd" d="M12.0904 0.0816671C12.3418 0.209675 12.5001 0.46791 12.5001 0.750003V6H18.7501C19.0749 6 19.3628 6.20914 19.4633 6.51807C19.5637 6.827 19.4539 7.16549 19.1912 7.35656L8.19118 15.3566C7.96304 15.5225 7.6611 15.5463 7.40972 15.4183C7.15834 15.2903 7.00005 15.0321 7.00005 14.75V9.5H0.750051C0.425197 9.5 0.137273 9.29087 0.0368141 8.98194C-0.063645 8.67301 0.0462014 8.33452 0.308922 8.14345L11.3089 0.143451C11.5371 -0.0224683 11.839 -0.0463407 12.0904 0.0816671ZM3.05644 8H7.75005C8.16426 8 8.50005 8.33579 8.50005 8.75V13.2772L16.4437 7.5H11.7501C11.3358 7.5 11.0001 7.16422 11.0001 6.75V2.22283L3.05644 8Z" fill="#292927"/>
</g>
</svg>
