<svg preserveAspectRatio="xMidYMid meet" overflow="visible" style="display: block;" viewBox="0 0 24 24" fill="none" xmlns="http://www.w3.org/2000/svg">
<g transform="translate(1.2500, 3.2500)">
<path id="Vector" fill-rule="evenodd" clip-rule="evenodd" d="M10 2.75C10 2.05964 9.44036 1.5 8.75 1.5H1.5V14H8.75C9.20011 14 9.62497 14.1081 10 14.2999V2.75ZM10 16.75C10 16.0596 9.44036 15.5 8.75 15.5H0.75C0.335787 15.5 0 15.1642 0 14.75C0 14.7011 0.00467038 14.6534 0.013589 14.6071C0.00467038 14.5609 0 14.5131 0 14.4643V1.35C0 0.604415 0.604416 0 1.35 0H8.75C9.53802 0 10.2486 0.331446 10.75 0.862533C11.2514 0.331446 11.962 0 12.75 0H20.15C20.8956 0 21.5 0.604415 21.5 1.35V14.4643C21.5 14.5131 21.4953 14.5609 21.4864 14.6071C21.4953 14.6534 21.5 14.7011 21.5 14.75C21.5 15.1642 21.1642 15.5 20.75 15.5H12.75C12.0596 15.5 11.5 16.0596 11.5 16.75C11.5 17.1642 11.1642 17.5 10.75 17.5C10.3358 17.5 10 17.1642 10 16.75ZM20 14H12.75C12.2999 14 11.875 14.1081 11.5 14.2999V2.75C11.5 2.05964 12.0596 1.5 12.75 1.5H20V14Z" fill="#292927"/>
</g>
</svg>
