<svg preserveAspectRatio="xMidYMid meet" overflow="visible" style="display: block;" viewBox="0 0 24 24" fill="none" xmlns="http://www.w3.org/2000/svg">
<g transform="translate(1.2500, 1.2500)">
<path id="Vector" fill-rule="evenodd" clip-rule="evenodd" d="M1.5 10.75C1.5 5.64137 5.64137 1.5 10.75 1.5C15.8586 1.5 20 5.64137 20 10.75C20 15.8586 15.8586 20 10.75 20C5.64137 20 1.5 15.8586 1.5 10.75ZM10.75 0C4.81294 0 0 4.81294 0 10.75C0 16.6871 4.81294 21.5 10.75 21.5C16.6871 21.5 21.5 16.6871 21.5 10.75C21.5 4.81294 16.6871 0 10.75 0ZM13.1129 7.17999C11.5647 7.32906 10.4305 8.70498 10.5796 10.2532C10.6367 10.8461 10.8797 11.3799 11.246 11.8036C11.6971 11.0241 12.1926 10.286 12.7007 9.73945C12.9827 9.43608 13.4573 9.41879 13.7607 9.70082C14.064 9.98286 14.0813 10.4574 13.7993 10.7608C13.3653 11.2276 12.9175 11.9011 12.4931 12.6442C12.8658 12.7713 13.2706 12.8233 13.6864 12.7833C15.2814 12.6297 16.4673 11.2089 16.3155 9.63227L16.0522 6.89697L13.1129 7.17999ZM9.08648 10.397C9.19427 11.5164 9.72643 12.4907 10.5056 13.1855C10.386 13.4248 10.2723 13.6597 10.1656 13.8857C10.012 14.211 9.87025 14.5233 9.74301 14.8116C9.49748 14.2672 9.19625 13.6304 8.85365 12.968C8.37597 12.0445 7.81064 11.0572 7.19623 10.197C6.59249 9.35176 5.89505 8.56251 5.13586 8.10699C4.78068 7.89388 4.31998 8.00906 4.10687 8.36424C3.89376 8.71943 4.00893 9.18012 4.36412 9.39323C4.85493 9.68772 5.4075 10.2735 5.97563 11.0689C6.53309 11.8493 7.06152 12.7682 7.52133 13.6572C7.97989 14.5437 8.36307 15.3865 8.63183 16.0085C8.76603 16.3191 8.87125 16.5736 8.94263 16.7497C8.97831 16.8377 9.00551 16.906 9.02361 16.9519L9.04385 17.0035L9.04871 17.0161L9.05002 17.0194C9.16169 17.3097 9.44087 17.5009 9.75184 17.5001C10.0628 17.4993 10.3412 17.3064 10.4514 17.0156L10.4556 17.0048L10.4697 16.9681C10.4823 16.9354 10.5013 16.8865 10.5263 16.8233C10.5762 16.6968 10.6498 16.513 10.7437 16.2861C10.9318 15.8319 11.2003 15.2074 11.5219 14.5263C11.607 14.3461 11.6951 14.1636 11.7856 13.9806C12.4157 14.2348 13.1132 14.3454 13.8302 14.2764C16.2314 14.0452 18.0416 11.908 17.8086 9.4885L17.5121 6.40852C17.451 5.77427 16.8873 5.30962 16.2531 5.37069L12.9692 5.68689C10.5963 5.91537 8.85801 8.02413 9.08648 10.397Z" fill="#292927"/>
</g>
</svg>
