<svg preserveAspectRatio="xMidYMid meet" overflow="visible" style="display: block;" viewBox="0 0 24 24" fill="none" xmlns="http://www.w3.org/2000/svg">
<g transform="translate(2.2500, 1.2499)">
<path id="Vector" fill-rule="evenodd" clip-rule="evenodd" d="M1.28033 0.21967C0.987437 -0.0732233 0.512563 -0.0732233 0.21967 0.21967C-0.0732233 0.512563 -0.0732233 0.987437 0.21967 1.28033L7.4132 8.47386C7.37613 8.53337 7.34685 8.59911 7.32713 8.67009L4.02736 20.5493C3.9165 20.9484 4.15016 21.3618 4.54926 21.4726C4.94837 21.5835 5.36177 21.3498 5.47264 20.9507L6.43117 17.5H13.0688L14.0274 20.9507C14.1382 21.3498 14.5516 21.5835 14.9507 21.4726C15.3498 21.3618 15.5835 20.9484 15.4726 20.5493L13.928 14.9887L18.2197 19.2803C18.5126 19.5732 18.9874 19.5732 19.2803 19.2803C19.5732 18.9874 19.5732 18.5126 19.2803 18.2197L1.28033 0.21967ZM11.42 12.4807L11.7725 12.8331L12.6522 16H6.84784L7.82006 12.5H11.25C11.3085 12.5 11.3654 12.4933 11.42 12.4807ZM9.93934 11L8.60686 9.66752L8.23673 11H9.93934ZM8.83494 3.24199C8.33403 2.93412 8 2.38107 8 1.75C8 0.783502 8.7835 0 9.75 0C10.7165 0 11.5 0.783502 11.5 1.75C11.5 2.38107 11.166 2.93412 10.6651 3.24199L11.5192 6.31686C11.6301 6.71596 11.3964 7.12937 10.9973 7.24023C10.5982 7.35109 10.1848 7.11742 10.0739 6.71832L9.68482 5.31758C9.50132 5.47582 9.24469 5.54235 8.99371 5.47264C8.59461 5.36178 8.36094 4.94837 8.4718 4.54927L8.83494 3.24199Z" fill="#292927"/>
</g>
</svg>
