<svg preserveAspectRatio="xMidYMid meet" overflow="visible" style="display: block;" viewBox="0 0 24 24" fill="none" xmlns="http://www.w3.org/2000/svg">
<g transform="translate(2.2500, 3.2501)">
<path id="Vector" fill-rule="evenodd" clip-rule="evenodd" d="M0.749999 0C0.335786 0 0 0.335787 0 0.750001V13.75C0 13.9489 0.0790175 14.1397 0.21967 14.2803C0.360322 14.421 0.551088 14.5 0.75 14.5H3.75C4.16421 14.5 4.5 14.1642 4.5 13.75C4.5 13.3358 4.16421 13 3.75 13H1.5V1.5L18 1.5V13H15.75C15.3358 13 15 13.3358 15 13.75C15 14.1642 15.3358 14.5 15.75 14.5H18.75C19.1642 14.5 19.5 14.1642 19.5 13.75V0.75C19.5 0.335786 19.1642 0 18.75 0H0.749999ZM10.8733 11.0826C10.3389 10.2811 9.16109 10.2811 8.62674 11.0826L5.74785 15.4009C5.14975 16.2981 5.79288 17.4998 6.87111 17.4998H12.6289C13.7071 17.4998 14.3503 16.2981 13.7522 15.4009L10.8733 11.0826ZM7.15139 15.9998L9.75 12.1019L12.3486 15.9998H7.15139Z" fill="#292927"/>
</g>
</svg>
