<svg preserveAspectRatio="xMidYMid meet" overflow="visible" style="display: block;" viewBox="0 0 24 24" fill="none" xmlns="http://www.w3.org/2000/svg">
<g transform="translate(1.2500, 2.2500)">
<path id="Vector" fill-rule="evenodd" clip-rule="evenodd" d="M7.5 2.75C7.5 2.05964 8.05964 1.5 8.75 1.5H12.75C13.4404 1.5 14 2.05964 14 2.75V12.75C14 13.4404 13.4404 14 12.75 14H8.75C8.05964 14 7.5 13.4404 7.5 12.75V2.75ZM8.75 0C7.23122 0 6 1.23122 6 2.75V12.75C6 14.2688 7.23122 15.5 8.75 15.5H12.75C14.2688 15.5 15.5 14.2688 15.5 12.75V2.75C15.5 1.23122 14.2688 0 12.75 0H8.75ZM20.75 19.5C21.1642 19.5 21.5 19.1642 21.5 18.75C21.5 18.3358 21.1642 18 20.75 18H0.75C0.335787 18 0 18.3358 0 18.75C0 19.1642 0.335787 19.5 0.75 19.5H20.75Z" fill="#292927"/>
</g>
</svg>
