<svg preserveAspectRatio="xMidYMid meet" overflow="visible" style="display: block;" viewBox="0 0 24 24" fill="none" xmlns="http://www.w3.org/2000/svg">
<g transform="translate(1.7500, 1.2500)">
<path id="Vector" fill-rule="evenodd" clip-rule="evenodd" d="M11.75 21.5C12.1642 21.5 12.5 21.1642 12.5 20.75C12.5 20.3358 12.1642 20 11.75 20H2.75C2.05964 20 1.5 19.4404 1.5 18.75V7.5L8.75 7.5C8.94891 7.5 9.13968 7.42098 9.28033 7.28033C9.42098 7.13968 9.5 6.94891 9.5 6.75V4.75C9.5 4.33579 9.16421 4 8.75 4C8.33579 4 8 4.33579 8 4.75V6L1.5 6V2.75C1.5 2.05964 2.05964 1.5 2.75 1.5H16.75C17.4404 1.5 18 2.05964 18 2.75V6L11.5 6V4.75C11.5 4.33579 11.1642 4 10.75 4C10.3358 4 10 4.33579 10 4.75V6.75C10 6.94891 10.079 7.13968 10.2197 7.28033C10.3603 7.42098 10.5511 7.5 10.75 7.5L18 7.5V14.75C18 15.1642 18.3358 15.5 18.75 15.5C19.1642 15.5 19.5 15.1642 19.5 14.75V6.75V2.75C19.5 1.23122 18.2688 0 16.75 0H2.75C1.23122 0 0 1.23122 0 2.75V6.75V18.75C0 20.2688 1.23122 21.5 2.75 21.5H11.75ZM14.2803 18.2197C13.9874 17.9268 13.5126 17.9268 13.2197 18.2197C12.9268 18.5126 12.9268 18.9874 13.2197 19.2803L15.2197 21.2803C15.5126 21.5732 15.9874 21.5732 16.2803 21.2803L20.2803 17.2803C20.5732 16.9874 20.5732 16.5126 20.2803 16.2197C19.9874 15.9268 19.5126 15.9268 19.2197 16.2197L15.75 19.6893L14.2803 18.2197Z" fill="#292927"/>
</g>
</svg>
