<svg preserveAspectRatio="xMidYMid meet" overflow="visible" style="display: block;" viewBox="0 0 24 24" fill="none" xmlns="http://www.w3.org/2000/svg">
<g transform="translate(1.2500, 4.2500)">
<path id="Vector" fill-rule="evenodd" clip-rule="evenodd" d="M4.75 9.5H10.75H16.75C17.1642 9.5 17.5 9.16421 17.5 8.75V6.75C17.5 6.05964 18.0596 5.5 18.75 5.5C19.4404 5.5 20 6.05964 20 6.75V11.75V12H1.5V11.75V6.75C1.5 6.05964 2.05964 5.5 2.75 5.5C3.44036 5.5 4 6.05964 4 6.75V8.75C4 9.16421 4.33579 9.5 4.75 9.5ZM20 13.5H1.5V14.75C1.5 15.1642 1.16421 15.5 0.75 15.5C0.335786 15.5 0 15.1642 0 14.75V12.75V11.75V6.75C0 5.49122 0.845748 4.42998 2 4.10352V2.75C2 1.23122 3.23122 0 4.75 0H8.75C9.53802 0 10.2486 0.331446 10.75 0.862533C11.2514 0.331446 11.962 0 12.75 0H16.75C18.2688 0 19.5 1.23122 19.5 2.75V4.10352C20.6543 4.42998 21.5 5.49122 21.5 6.75V11.75V12.75V14.75C21.5 15.1642 21.1642 15.5 20.75 15.5C20.3358 15.5 20 15.1642 20 14.75V13.5ZM5.5 6.75C5.5 5.49122 4.65425 4.42998 3.5 4.10352V2.75C3.5 2.05964 4.05964 1.5 4.75 1.5H8.75C9.44036 1.5 10 2.05964 10 2.75V8H5.5V6.75ZM16 6.75C16 5.49122 16.8457 4.42998 18 4.10352V2.75C18 2.05964 17.4404 1.5 16.75 1.5H12.75C12.0596 1.5 11.5 2.05964 11.5 2.75V8H16V6.75Z" fill="#292927"/>
</g>
</svg>
