<svg preserveAspectRatio="xMidYMid meet" overflow="visible" style="display: block;" viewBox="0 0 24 24" fill="none" xmlns="http://www.w3.org/2000/svg">
<g transform="translate(1.2058, 4.8350)">
<path id="Vector" fill-rule="evenodd" clip-rule="evenodd" d="M1.60287 7.16503L9.08854 12.6808V1.64927L1.60287 7.16503ZM8.43772 0.265601C9.32907 -0.391187 10.5885 0.245225 10.5885 1.35243V12.9776C10.5885 14.0848 9.32907 14.7212 8.43772 14.0645L0.549181 8.25186C-0.183061 7.71231 -0.18306 6.61775 0.549181 6.0782L8.43772 0.265601ZM12.6029 7.16503L20.0885 12.6808V1.64927L12.6029 7.16503ZM19.4377 0.265601C20.3291 -0.391187 21.5885 0.245225 21.5885 1.35243V12.9776C21.5885 14.0848 20.3291 14.7212 19.4377 14.0645L11.5492 8.25186C10.8169 7.71231 10.8169 6.61775 11.5492 6.0782L19.4377 0.265601Z" fill="#292927"/>
</g>
</svg>
