<svg preserveAspectRatio="xMidYMid meet" overflow="visible" style="display: block;" viewBox="0 0 24 24" fill="none" xmlns="http://www.w3.org/2000/svg">
<g transform="translate(1.2500, 1.2500)">
<path id="Vector" fill-rule="evenodd" clip-rule="evenodd" d="M10.75 1.5C5.64137 1.5 1.5 5.64137 1.5 10.75C1.5 15.8586 5.64137 20 10.75 20C15.8586 20 20 15.8586 20 10.75C20 5.64137 15.8586 1.5 10.75 1.5ZM0 10.75C0 4.81294 4.81294 0 10.75 0C16.6871 0 21.5 4.81294 21.5 10.75C21.5 16.6871 16.6871 21.5 10.75 21.5C4.81294 21.5 0 16.6871 0 10.75ZM11.2197 10.2197L14.7197 6.71967C15.0126 6.42678 15.4874 6.42678 15.7803 6.71967C16.0732 7.01256 16.0732 7.48744 15.7803 7.78033L12.8107 10.75L15.7803 13.7197C16.0732 14.0126 16.0732 14.4874 15.7803 14.7803C15.4874 15.0732 15.0126 15.0732 14.7197 14.7803L11.2197 11.2803C10.9268 10.9874 10.9268 10.5126 11.2197 10.2197ZM8.71967 6.71967L5.21967 10.2197C4.92678 10.5126 4.92678 10.9874 5.21967 11.2803L8.71967 14.7803C9.01256 15.0732 9.48744 15.0732 9.78033 14.7803C10.0732 14.4874 10.0732 14.0126 9.78033 13.7197L6.81066 10.75L9.78033 7.78033C10.0732 7.48744 10.0732 7.01256 9.78033 6.71967C9.48744 6.42678 9.01256 6.42678 8.71967 6.71967Z" fill="#292927"/>
</g>
</svg>
