<svg preserveAspectRatio="xMidYMid meet" overflow="visible" style="display: block;" viewBox="0 0 24 24" fill="none" xmlns="http://www.w3.org/2000/svg">
<g transform="translate(1.2500, 1.7500)">
<path id="Vector" fill-rule="evenodd" clip-rule="evenodd" d="M10.5 0.75C10.5 0.335786 10.1642 0 9.75 0C9.33579 0 9 0.335786 9 0.75V4.75C9 6.82114 10.6792 8.5 12.7502 8.5H13.75C15.55 8.5 16 9.35 16 9.75C16 10.1642 16.3358 10.5 16.75 10.5C17.1642 10.5 17.5 10.1642 17.5 9.75C17.5 8.15 15.95 7 13.75 7H12.7502C11.5075 7 10.5 5.99257 10.5 4.75V0.75ZM17.5 13.75C17.5 13.3358 17.1642 13 16.75 13C16.3358 13 16 13.3358 16 13.75V14.9393L14.0607 13L2.28033 1.21967C1.98744 0.926777 1.51256 0.926777 1.21967 1.21967C0.926777 1.51256 0.926777 1.98744 1.21967 2.28033L11.9393 13H1.35C0.604416 13 0 13.6044 0 14.35V16.15C0 16.8956 0.604417 17.5 1.35 17.5H16.4393L19.2197 20.2803C19.5126 20.5732 19.9874 20.5732 20.2803 20.2803C20.5732 19.9874 20.5732 19.5126 20.2803 19.2197L18.5607 17.5L17.5 16.4393V13.75ZM14.9393 16L13.4393 14.5H1.5V16H14.9393ZM20.75 0C21.1642 0 21.5 0.335786 21.5 0.75C21.5 1.87684 21.2163 2.74266 20.7106 3.37477C20.3884 3.77753 20.0016 4.0535 19.6042 4.24023C20.6538 5.2287 21.5 6.92249 21.5 9.75C21.5 10.1642 21.1642 10.5 20.75 10.5C20.3358 10.5 20 10.1642 20 9.75C20 6.93299 19.0724 5.67928 18.3 5.1C17.92 4.81502 17.5404 4.66455 17.2467 4.58528C17.0612 4.56771 16.905 4.54401 16.79 4.52348C16.7256 4.51198 16.6737 4.50138 16.6361 4.49325C16.6173 4.48917 16.6021 4.48571 16.5907 4.48304L16.5764 4.47966L16.5715 4.47846L16.5696 4.47799L16.5688 4.47779C16.5684 4.47769 16.5681 4.47761 16.75 3.75C16.75 3 16.7506 3 16.7511 3L16.7524 3L16.7551 3.00002L16.7618 3.00008L16.7796 3.0004C16.7934 3.00074 16.8111 3.00134 16.8324 3.0024C16.8749 3.00453 16.9321 3.00852 17.0018 3.01599C17.1275 3.02946 17.2953 3.05438 17.4927 3.1006C17.8102 3.12298 18.1973 3.11509 18.5681 3.02239C18.9549 2.92568 19.2931 2.74547 19.5393 2.43773C19.7837 2.13234 20 1.62316 20 0.75C20 0.335786 20.3358 0 20.75 0ZM16.75 3.75L16.5681 4.47761C16.2006 4.38574 15.9593 4.0343 16.0056 3.65836C16.0519 3.28242 16.3712 3 16.75 3V3.75ZM21.5 13.75C21.5 13.3358 21.1642 13 20.75 13C20.3358 13 20 13.3358 20 13.75V16.75C20 17.1642 20.3358 17.5 20.75 17.5C21.1642 17.5 21.5 17.1642 21.5 16.75V13.75Z" fill="#292927"/>
</g>
</svg>
