<svg preserveAspectRatio="xMidYMid meet" overflow="visible" style="display: block;" viewBox="0 0 24 24" fill="none" xmlns="http://www.w3.org/2000/svg">
<g transform="translate(2.2500, 2.2500)">
<path id="Vector" fill-rule="evenodd" clip-rule="evenodd" d="M1.5 2.75C1.5 2.05964 2.05964 1.5 2.75 1.5H16.75C17.4404 1.5 18 2.05964 18 2.75V16.75C18 17.4404 17.4404 18 16.75 18H2.75C2.05964 18 1.5 17.4404 1.5 16.75V2.75ZM2.75 0C1.23122 0 0 1.23122 0 2.75V16.75C0 18.2688 1.23122 19.5 2.75 19.5H16.75C18.2688 19.5 19.5 18.2688 19.5 16.75V2.75C19.5 1.23122 18.2688 0 16.75 0H2.75ZM9.75 4C8.45867 4 7.56883 4.51845 7.02184 5.23068C6.50181 5.9078 6.33333 6.70309 6.33333 7.25V9.0001C5.59543 9.00903 5 9.60998 5 10.35V14.15C5 14.8956 5.60442 15.5 6.35 15.5H13.15C13.8956 15.5 14.5 14.8956 14.5 14.15V10.35C14.5 9.60998 13.9046 9.00903 13.1667 9.0001V7.25C13.1667 6.70309 12.9982 5.9078 12.4782 5.23068C11.9312 4.51845 11.0413 4 9.75 4ZM11.6667 7.25V9H7.83333V7.25C7.83333 6.96358 7.93152 6.50887 8.21149 6.14432C8.4645 5.81488 8.908 5.5 9.75 5.5C10.592 5.5 11.0355 5.81488 11.2885 6.14432C11.5685 6.50887 11.6667 6.96358 11.6667 7.25ZM6.5 14V10.5H13V14H6.5Z" fill="#292927"/>
</g>
</svg>
