<svg preserveAspectRatio="xMidYMid meet" overflow="visible" style="display: block;" viewBox="0 0 24 24" fill="none" xmlns="http://www.w3.org/2000/svg">
<g transform="translate(2.2500, 2.2500)">
<path id="Vector" fill-rule="evenodd" clip-rule="evenodd" d="M12 1.35C12 0.604416 12.6044 0 13.35 0H18.15C18.8956 0 19.5 0.604417 19.5 1.35V18.15C19.5 18.8956 18.8956 19.5 18.15 19.5H1.35C0.604416 19.5 0 18.8956 0 18.15V14.35C0 13.6044 0.604415 13 1.35 13H6V7.35C6 6.60442 6.60441 6 7.35 6H12V1.35ZM12 7.5H7.5V18H12V7.5ZM13.5 18H18V1.5H13.5V18ZM6 18V14.5H1.5V18H6Z" fill="#292927"/>
</g>
</svg>
