<svg preserveAspectRatio="xMidYMid meet" overflow="visible" style="display: block;" viewBox="0 0 24 24" fill="none" xmlns="http://www.w3.org/2000/svg">
<g transform="translate(6.2500, 2.2500)">
<path id="Vector" fill-rule="evenodd" clip-rule="evenodd" d="M0.153959 0.294798C0.324665 0.071284 0.606073 -0.0379397 0.88287 0.0118838L10.8829 1.81188C11.2401 1.87618 11.5 2.18706 11.5 2.55002V16.95C11.5 17.313 11.2401 17.6239 10.8829 17.6882L0.88287 19.4882C0.606073 19.538 0.324665 19.4288 0.153959 19.2052C-0.0167476 18.9817 -0.048057 18.6815 0.07286 18.4276L2.83218 12.633L0.248282 10.3075C0.0902465 10.1653 5.43396e-06 9.96264 5.43396e-06 9.75002C5.43396e-06 9.53741 0.0902465 9.33478 0.248282 9.19255L2.83218 6.86704L0.0728601 1.07247C-0.048057 0.818546 -0.0167476 0.518312 0.153959 0.294798ZM2.05548 1.74706L4.42715 6.72757C4.56991 7.02737 4.49854 7.38536 4.25173 7.60749L1.87114 9.75002L4.25173 11.8926C4.49854 12.1147 4.56991 12.4727 4.42715 12.7725L2.05548 17.753L10 16.323V3.17707L2.05548 1.74706Z" fill="#292927"/>
</g>
</svg>
