<svg preserveAspectRatio="xMidYMid meet" overflow="visible" style="display: block;" viewBox="0 0 24 24" fill="none" xmlns="http://www.w3.org/2000/svg">
<g transform="translate(0.2500, 2.2500)">
<path id="Vector" fill-rule="evenodd" clip-rule="evenodd" d="M2.21967 0.21967C2.51256 -0.0732233 2.98744 -0.0732233 3.28033 0.21967L21.2803 18.2197C21.5732 18.5126 21.5732 18.9874 21.2803 19.2803C20.9874 19.5732 20.5126 19.5732 20.2197 19.2803L17.42 16.4807C17.3654 16.4933 17.3085 16.5 17.25 16.5H2.75C1.23122 16.5 0 15.2688 0 13.75V5.75C0 4.23122 1.23122 3 2.75 3H3.93934L2.21967 1.28033C1.92678 0.987437 1.92678 0.512563 2.21967 0.21967ZM5.41999 4.48065C5.36537 4.49331 5.30847 4.5 5.25 4.5H2.75C2.05964 4.5 1.5 5.05964 1.5 5.75V13.75C1.5 14.4404 2.05964 15 2.75 15H15.9393L5.41999 4.48065ZM22.75 7C23.1642 7 23.5 7.33579 23.5 7.75V11.75C23.5 12.1642 23.1642 12.5 22.75 12.5C22.3358 12.5 22 12.1642 22 11.75V7.75C22 7.33579 22.3358 7 22.75 7ZM11.25 3C10.8358 3 10.5 3.33579 10.5 3.75C10.5 4.16421 10.8358 4.5 11.25 4.5H17.75C18.4404 4.5 19 5.05964 19 5.75V12.25C19 12.6642 19.3358 13 19.75 13C20.1642 13 20.5 12.6642 20.5 12.25V5.75C20.5 4.23122 19.2688 3 17.75 3H11.25Z" fill="#292927"/>
</g>
</svg>
