<svg preserveAspectRatio="xMidYMid meet" overflow="visible" style="display: block;" viewBox="0 0 24 24" fill="none" xmlns="http://www.w3.org/2000/svg">
<g transform="translate(1.2500, 2.2500)">
<path id="Vector" fill-rule="evenodd" clip-rule="evenodd" d="M4.19642 0C3.60025 0 3.07466 0.391051 2.90335 0.96208L0 10.6399V18.15C0 18.8956 0.604416 19.5 1.35 19.5H20.15C20.8956 19.5 21.5 18.8956 21.5 18.15V10.6399L18.5966 0.962081C18.4253 0.391053 17.8998 0 17.3036 0H4.19642ZM1.75802 10L4.30802 1.5H17.192L19.742 10H1.75802ZM1.5 11.5H20V18H1.5V11.5ZM5.26173 14.1916C5.56961 14.4687 5.59457 14.9429 5.31748 15.2508L5.30748 15.2619C5.03038 15.5697 4.55616 15.5947 4.24828 15.3176C3.9404 15.0405 3.91544 14.5663 4.19254 14.2584L4.20254 14.2473C4.47963 13.9394 4.95385 13.9145 5.26173 14.1916ZM9.26173 14.1916C9.56961 14.4687 9.59457 14.9429 9.31748 15.2508L9.30748 15.2619C9.03038 15.5697 8.55616 15.5947 8.24828 15.3176C7.9404 15.0405 7.91544 14.5663 8.19254 14.2584L8.20254 14.2473C8.47963 13.9394 8.95385 13.9145 9.26173 14.1916Z" fill="#292927"/>
</g>
</svg>
