<svg preserveAspectRatio="xMidYMid meet" overflow="visible" style="display: block;" viewBox="0 0 24 24" fill="none" xmlns="http://www.w3.org/2000/svg">
<g transform="translate(1.7500, 2.2500)">
<path id="Vector" fill-rule="evenodd" clip-rule="evenodd" d="M14.5 0.75C14.5 0.335786 14.1642 0 13.75 0C13.3358 0 13 0.335786 13 0.75V10.75C13 11.1642 13.3358 11.5 13.75 11.5C14.1642 11.5 14.5 11.1642 14.5 10.75V0.75ZM1.5 3.5H5.75C6.16421 3.5 6.5 3.16421 6.5 2.75C6.5 2.33579 6.16421 2 5.75 2H1.35C0.604416 2 0 2.60442 0 3.35V18.15C0 18.8956 0.604415 19.5 1.35 19.5H10.15C10.8956 19.5 11.5 18.8956 11.5 18.15V13.75C11.5 13.3358 11.1642 13 10.75 13C10.3358 13 10 13.3358 10 13.75V18H1.5V3.5ZM6.26172 14.1916C6.5696 14.4687 6.59456 14.9429 6.31747 15.2508L6.30747 15.2619C6.03037 15.5697 5.55616 15.5947 5.24827 15.3176C4.94039 15.0405 4.91543 14.5663 5.19253 14.2584L5.20253 14.2473C5.47962 13.9394 5.95384 13.9145 6.26172 14.1916ZM10.75 2C11.1642 2 11.5 2.33579 11.5 2.75L11.5 8.75C11.5 9.16421 11.1642 9.5 10.75 9.5C10.3358 9.5 10 9.16421 10 8.75L10 2.75C10 2.33579 10.3358 2 10.75 2ZM20.5 4.75C20.5 4.33579 20.1642 4 19.75 4C19.3358 4 19 4.33579 19 4.75V6.75C19 7.16421 19.3358 7.5 19.75 7.5C20.1642 7.5 20.5 7.16421 20.5 6.75V4.75ZM7.75 4C8.16421 4 8.5 4.33579 8.5 4.75L8.5 6.75C8.5 7.16421 8.16421 7.5 7.75 7.5C7.33579 7.5 7 7.16421 7 6.75L7 4.75C7 4.33579 7.33579 4 7.75 4ZM17.5 1.75C17.5 1.33579 17.1642 1 16.75 1C16.3358 1 16 1.33579 16 1.75V9.75C16 10.1642 16.3358 10.5 16.75 10.5C17.1642 10.5 17.5 10.1642 17.5 9.75V1.75Z" fill="#292927"/>
</g>
</svg>
