<svg preserveAspectRatio="xMidYMid meet" overflow="visible" style="display: block;" viewBox="0 0 24 24" fill="none" xmlns="http://www.w3.org/2000/svg">
<g transform="translate(2.2500, 2.2500)">
<path id="Vector" fill-rule="evenodd" clip-rule="evenodd" d="M18.0239 2.53674C18.9476 3.69149 19.5 5.15624 19.5 6.75C19.5 8.47832 18.8495 10.0565 17.7811 11.2502C17.7369 11.2996 17.6876 11.3417 17.6347 11.3766C17.6002 11.4432 17.555 11.5057 17.4991 11.5616L12.7803 16.2803C12.7457 16.315 12.7085 16.3455 12.6694 16.372C11.4381 17.6819 9.68961 18.5 7.75 18.5C6.15624 18.5 4.69149 17.9476 3.53674 17.0239L1.28033 19.2803C0.987437 19.5732 0.512563 19.5732 0.21967 19.2803C-0.0732232 18.9874 -0.0732232 18.5126 0.21967 18.2197L2.47607 15.9633C1.55235 14.8085 1 13.3438 1 11.75C1 9.81039 1.81809 8.06185 3.12804 6.83062C3.15449 6.79149 3.18503 6.75431 3.21967 6.71967L7.96967 1.96967C8.00169 1.93765 8.03589 1.90913 8.07179 1.88411C9.28437 0.718068 10.934 5.96046e-08 12.75 5.96046e-08C14.3438 5.96046e-08 15.8085 0.552355 16.9633 1.47608L18.2197 0.21967C18.5126 -0.0732233 18.9874 -0.0732233 19.2803 0.21967C19.5732 0.512563 19.5732 0.987437 19.2803 1.28033L18.0239 2.53674ZM14.4612 12.4782C14.4868 12.239 14.5 11.996 14.5 11.75C14.5 8.02208 11.4779 5 7.75 5C7.50398 5 7.26104 5.01316 7.02184 5.03882L8.95728 3.10338C8.99025 3.07991 9.02176 3.05345 9.05142 3.024C10.0012 2.08118 11.307 1.5 12.75 1.5C15.6495 1.5 18 3.8505 18 6.75C18 8.0951 17.4951 9.32049 16.6634 10.2498C16.6203 10.2979 16.5846 10.35 16.5562 10.4047C16.5146 10.4322 16.4751 10.4643 16.4384 10.5009L14.4612 12.4782ZM13 11.75C13 8.8505 10.6495 6.5 7.75 6.5C4.8505 6.5 2.5 8.8505 2.5 11.75C2.5 12.9293 2.8888 14.0177 3.54521 14.8941L6.71967 11.7197C7.01256 11.4268 7.48744 11.4268 7.78033 11.7197C8.07322 12.0126 8.07322 12.4874 7.78033 12.7803L4.60587 15.9548C5.48231 16.6112 6.57075 17 7.75 17C10.6495 17 13 14.6495 13 11.75Z" fill="#292927"/>
</g>
</svg>
