<svg preserveAspectRatio="xMidYMid meet" overflow="visible" style="display: block;" viewBox="0 0 24 24" fill="none" xmlns="http://www.w3.org/2000/svg">
<g transform="translate(2.2500, 2.2500)">
<path id="Vector" fill-rule="evenodd" clip-rule="evenodd" d="M0 0.75C0 0.335786 0.335786 0 0.75 0H3.75C4.16421 0 4.5 0.335786 4.5 0.75C4.5 1.16421 4.16421 1.5 3.75 1.5H1.5V3.75C1.5 4.16421 1.16421 4.5 0.75 4.5C0.335786 4.5 0 4.16421 0 3.75V0.75ZM7.3504 6.13213C8.02899 5.7359 8.85371 5.5 9.75 5.5C11.7543 5.5 13.3566 6.66672 13.8425 8.13555C13.9726 8.5288 14.3969 8.74214 14.7901 8.61205C15.1834 8.48196 15.3967 8.05771 15.2666 7.66445C14.5488 5.49451 12.3047 4 9.75 4C8.59057 4 7.50445 4.3052 6.59404 4.83679C6.23634 5.04565 6.11569 5.50494 6.32455 5.86264C6.53341 6.22034 6.9927 6.34099 7.3504 6.13213ZM5.72962 7.93934C5.88517 7.55544 5.70006 7.11814 5.31616 6.96259C4.93226 6.80703 4.49495 6.99215 4.3394 7.37604C4.12005 7.9174 4 8.5022 4 9.11154V13.75C4 14.1642 4.33579 14.5 4.75 14.5C5.16421 14.5 5.5 14.1642 5.5 13.75V9.11154C5.5 8.70134 5.58046 8.30745 5.72962 7.93934ZM15.5 10.5654C15.5 10.1512 15.1642 9.81538 14.75 9.81538C14.3358 9.81538 14 10.1512 14 10.5654V13.75C14 14.1642 14.3358 14.5 14.75 14.5C15.1642 14.5 15.5 14.1642 15.5 13.75V10.5654ZM8.5 9.60294C8.5 9.04671 9.00468 8.5 9.75 8.5C10.4953 8.5 11 9.04671 11 9.60294V14.75C11 15.1642 11.3358 15.5 11.75 15.5C12.1642 15.5 12.5 15.1642 12.5 14.75V9.60294C12.5 8.11247 11.2138 7 9.75 7C8.28618 7 7 8.11247 7 9.60294V10.3971C7 10.8113 7.33579 11.1471 7.75 11.1471C8.16421 11.1471 8.5 10.8113 8.5 10.3971V9.60294ZM8.5 12.5735C8.5 12.1593 8.16421 11.8235 7.75 11.8235C7.33579 11.8235 7 12.1593 7 12.5735V14.75C7 15.1642 7.33579 15.5 7.75 15.5C8.16421 15.5 8.5 15.1642 8.5 14.75V12.5735ZM18.75 0C19.1642 0 19.5 0.335786 19.5 0.75V3.75C19.5 4.16421 19.1642 4.5 18.75 4.5C18.3358 4.5 18 4.16421 18 3.75V1.5H15.75C15.3358 1.5 15 1.16421 15 0.75C15 0.335786 15.3358 0 15.75 0H18.75ZM0 18.75C0 19.1642 0.335786 19.5 0.75 19.5H3.75C4.16421 19.5 4.5 19.1642 4.5 18.75C4.5 18.3358 4.16421 18 3.75 18H1.5V15.75C1.5 15.3358 1.16421 15 0.75 15C0.335786 15 0 15.3358 0 15.75V18.75ZM18.75 19.5C19.1642 19.5 19.5 19.1642 19.5 18.75V15.75C19.5 15.3358 19.1642 15 18.75 15C18.3358 15 18 15.3358 18 15.75V18H15.75C15.3358 18 15 18.3358 15 18.75C15 19.1642 15.3358 19.5 15.75 19.5H18.75Z" fill="#292927"/>
</g>
</svg>
