<svg preserveAspectRatio="xMidYMid meet" overflow="visible" style="display: block;" viewBox="0 0 24 24" fill="none" xmlns="http://www.w3.org/2000/svg">
<g transform="translate(0.7500, 3.0000)">
<path id="Vector" fill-rule="evenodd" clip-rule="evenodd" d="M0.75 0C0.476264 0 0.22427 0.149135 0.0925461 0.389093C-0.0391781 0.629052 -0.0297078 0.921716 0.117254 1.15266L10.6173 17.6527C10.7549 17.869 10.9936 18 11.25 18C11.5064 18 11.7451 17.869 11.8827 17.6527L22.3827 1.15266C22.5297 0.921716 22.5392 0.629052 22.4075 0.389093C22.2757 0.149135 22.0237 0 21.75 0H17.75H13.75C13.5078 0 13.2805 0.116974 13.1397 0.314071L11.25 2.95965L9.3603 0.314071C9.21952 0.116974 8.99221 0 8.75 0H4.75H0.75ZM6.13202 1.5L11.25 9.37382L16.368 1.5H14.136L11.8603 4.68593C11.7195 4.88303 11.4922 5 11.25 5C11.0078 5 10.7805 4.88303 10.6397 4.68593L8.36404 1.5H6.13202ZM11.25 15.853L2.11626 1.5H4.34299L10.6212 11.1587C10.7595 11.3716 10.9961 11.5 11.25 11.5C11.5039 11.5 11.7405 11.3716 11.8788 11.1587L18.157 1.5H20.3837L11.25 15.853Z" fill="#292927"/>
</g>
</svg>
