<svg preserveAspectRatio="xMidYMid meet" overflow="visible" style="display: block;" viewBox="0 0 24 24" fill="none" xmlns="http://www.w3.org/2000/svg">
<g transform="translate(1.2500, 3.2500)">
<path id="Vector" fill-rule="evenodd" clip-rule="evenodd" d="M1.5 2.75C1.5 2.05964 2.05964 1.5 2.75 1.5H18.75C19.4404 1.5 20 2.05964 20 2.75V14.75C20 15.4404 19.4404 16 18.75 16H2.75C2.05964 16 1.5 15.4404 1.5 14.75V2.75ZM2.75 0C1.23122 0 0 1.23122 0 2.75V14.75C0 16.2688 1.23122 17.5 2.75 17.5H18.75C20.2688 17.5 21.5 16.2688 21.5 14.75V2.75C21.5 1.23122 20.2688 0 18.75 0H2.75ZM9.28033 8.21967L5.28033 4.21967C4.98744 3.92678 4.51256 3.92678 4.21967 4.21967C3.92678 4.51256 3.92678 4.98744 4.21967 5.28033L7.68934 8.75L4.21967 12.2197C3.92678 12.5126 3.92678 12.9874 4.21967 13.2803C4.51256 13.5732 4.98744 13.5732 5.28033 13.2803L9.28033 9.28033C9.57322 8.98744 9.57322 8.51256 9.28033 8.21967ZM17.5 12.75C17.5 13.1642 17.1642 13.5 16.75 13.5H11.75C11.3358 13.5 11 13.1642 11 12.75C11 12.3358 11.3358 12 11.75 12H16.75C17.1642 12 17.5 12.3358 17.5 12.75Z" fill="#292927"/>
</g>
</svg>
