<svg preserveAspectRatio="xMidYMid meet" overflow="visible" style="display: block;" viewBox="0 0 24 24" fill="none" xmlns="http://www.w3.org/2000/svg">
<g transform="translate(2.2500, 2.7499)">
<path id="Vector" fill-rule="evenodd" clip-rule="evenodd" d="M12.5371 3.4671C12.2479 3.76369 11.7731 3.76972 11.4765 3.48057L10.5 2.52863V10.2138L17.624 15.445L17.4528 14.6104C17.3696 14.2047 17.6311 13.8083 18.0368 13.725C18.4426 13.6418 18.839 13.9032 18.9222 14.309L19.4847 17.0509C19.4923 17.088 19.4971 17.1253 19.499 17.1626C19.508 17.3297 19.4613 17.5008 19.3546 17.6462C19.232 17.8131 19.0533 17.9146 18.8636 17.9436L16.0811 18.4862C15.6745 18.5655 15.2807 18.3001 15.2014 17.8936C15.1221 17.487 15.3874 17.0932 15.794 17.0139L16.9258 16.7932L9.75005 11.524L2.57428 16.7932L3.70609 17.0139C4.11264 17.0932 4.37796 17.487 4.29869 17.8936C4.21942 18.3001 3.82558 18.5655 3.41902 18.4862L0.636439 17.9436C0.446725 17.9146 0.268101 17.8131 0.145528 17.6462C0.0405588 17.5032 -0.00628385 17.3354 0.000673649 17.171C0.00231233 17.1309 0.00718054 17.0908 0.0153526 17.0509L0.577853 14.309C0.661094 13.9032 1.05751 13.6418 1.46327 13.725C1.86904 13.8083 2.13049 14.2047 2.04725 14.6104L1.87605 15.445L9.00005 10.2138V2.52861L8.02359 3.48057C7.727 3.76972 7.25216 3.76369 6.96302 3.4671C6.67387 3.17051 6.6799 2.69567 6.97649 2.40652L9.22649 0.212976C9.51776 -0.0709919 9.98231 -0.0709919 10.2736 0.212976L12.5236 2.40652C12.8202 2.69567 12.8262 3.17051 12.5371 3.4671Z" fill="#292927"/>
</g>
</svg>
