<svg preserveAspectRatio="xMidYMid meet" overflow="visible" style="display: block;" viewBox="0 0 24 24" fill="none" xmlns="http://www.w3.org/2000/svg">
<g transform="translate(1.2500, 1.5000)">
<path id="Vector" fill-rule="evenodd" clip-rule="evenodd" d="M7.78033 0.21967C7.48744 -0.0732233 7.01256 -0.0732233 6.71967 0.21967C6.42678 0.512563 6.42678 0.987437 6.71967 1.28033L9.93934 4.5H2.75C1.23122 4.5 0 5.73122 0 7.25V18.25C0 19.7688 1.23122 21 2.75 21H18.75C20.2688 21 21.5 19.7688 21.5 18.25V7.25C21.5 5.73122 20.2688 4.5 18.75 4.5H11.5607L14.7803 1.28033C15.0732 0.987437 15.0732 0.512563 14.7803 0.21967C14.4874 -0.0732233 14.0126 -0.0732233 13.7197 0.21967L10.75 3.18934L7.78033 0.21967ZM1.5 7.25C1.5 6.55964 2.05964 6 2.75 6H18.75C19.4404 6 20 6.55964 20 7.25V18.25C20 18.9404 19.4404 19.5 18.75 19.5H2.75C2.05964 19.5 1.5 18.9404 1.5 18.25V7.25Z" fill="#292927"/>
</g>
</svg>
