<svg preserveAspectRatio="xMidYMid meet" overflow="visible" style="display: block;" viewBox="0 0 24 24" fill="none" xmlns="http://www.w3.org/2000/svg">
<g transform="translate(1.2500, 2.7500)">
<path id="Vector" fill-rule="evenodd" clip-rule="evenodd" d="M11.9195 0.439458C12.3748 -0.0504807 13.1178 -0.140747 13.6802 0.219086L13.6811 0.219698C17.5004 2.67171 19.2227 5.32379 19.8967 7.62253C20.4756 9.59709 20.2614 11.2433 20.0301 12.1767C20.3659 12.6287 20.802 13.3021 21.1111 14.0981C21.5019 15.1046 21.7196 16.3901 21.1669 17.6738C20.9626 18.1492 20.5109 18.4562 20.0101 18.4953L20.0037 18.4957L20.0007 18.496C19.9856 18.497 19.9442 18.5 19.9005 18.5C19.4398 18.5 19.0014 18.2706 18.7445 17.8783C18.7403 17.8722 18.7342 17.8635 18.7242 17.8498C18.7066 17.8258 18.6786 17.7888 18.6409 17.7431C18.5646 17.6509 18.4532 17.5288 18.3135 17.4085C18.0229 17.1585 17.6797 16.9748 17.3144 16.9748C17.0243 16.9748 16.734 17.1008 16.1142 17.4012L16.1096 17.4034C15.1421 17.8734 13.8522 18.5 11.6885 18.5C4.00365 18.5 0.370198 12.6114 0.193792 12.3195M11.9195 0.439458C11.4538 0.939053 11.4349 1.69951 11.8719 2.22206L11.8763 2.22724C11.8754 2.22618 11.8761 2.22702 11.8782 2.22971C11.9201 2.28216 12.5241 3.03917 13.0237 4.19852C13.428 5.13673 13.7471 6.2982 13.6781 7.54623C12.6722 6.79374 11.2419 5.68685 9.90247 4.64084C8.96777 3.91092 8.0851 3.21679 7.43604 2.70509C7.11154 2.44927 6.84549 2.23909 6.66061 2.0929L6.37251 1.86491C6.37247 1.86487 6.37223 1.86468 5.90638 2.45246L6.37251 1.86491C6.08767 1.63915 5.68165 1.6499 5.40943 1.89074C5.1372 2.13157 5.07684 2.53294 5.26619 2.84318L7.40411 6.34611L3.01784 3.51959C2.70781 3.31981 2.29854 3.37508 2.05263 3.64995C1.80671 3.92483 1.79714 4.3377 2.03006 4.62367L2.61158 4.15003C2.03006 4.62367 2.02999 4.62359 2.03006 4.62367L2.04551 4.64258L2.08928 4.69601C2.12762 4.74273 2.184 4.81122 2.25671 4.89905C2.40211 5.07468 2.61287 5.3277 2.8753 5.63839C3.39994 6.25955 4.13207 7.11246 4.96187 8.03922C6.22984 9.45537 7.75461 11.0768 9.1241 12.3018C7.53514 12.5239 5.11241 12.3438 2.10964 10.4775C1.58169 10.1477 0.88999 10.2095 0.429848 10.6398C-0.0327736 11.0711 -0.138614 11.7696 0.193792 12.3195M6.59369 7.60834C8.12966 9.29537 9.86974 11.0748 11.1978 12.0768C11.4177 12.2427 11.529 12.5158 11.4876 12.7882C11.4462 13.0605 11.2588 13.2883 10.9995 13.3814C9.38042 13.9627 6.08945 14.5092 1.83107 12.0586C2.84512 13.4234 6.04149 17 11.6885 17C13.5072 17 14.5484 16.4942 15.4539 16.0543L15.4593 16.0517C15.4848 16.0394 15.511 16.0266 15.5368 16.0141C16.0518 15.7636 16.6457 15.4748 17.3144 15.4748C18.1854 15.4748 18.8659 15.905 19.2918 16.2715C19.5103 16.4595 19.6804 16.6464 19.797 16.7874C19.8229 16.8187 19.8464 16.8481 19.8674 16.875C20.1093 16.1453 19.9972 15.3736 19.7128 14.641C19.4016 13.8396 18.914 13.1676 18.625 12.8124C18.4666 12.6176 18.4161 12.3564 18.4906 12.1166C18.6851 11.4904 19.0191 9.96062 18.4573 8.04456C17.9323 6.25395 16.6014 4.04445 13.4727 1.88275C13.7419 2.29131 14.0896 2.88171 14.4012 3.60489C15.0012 4.99715 15.4958 6.94954 14.9563 9.06052C14.8956 9.29805 14.7226 9.49092 14.493 9.57702C14.2635 9.66312 14.0063 9.63159 13.8044 9.49259C12.9449 8.90102 10.8425 7.27813 8.97925 5.82306C8.89139 5.75446 8.804 5.68617 8.71722 5.61832L10.3901 8.35925C10.5722 8.65774 10.524 9.04252 10.2737 9.28675C10.0234 9.53097 9.63757 9.56983 9.34362 9.38041L6.59369 7.60834ZM1.47708 11.5428C1.47696 11.5426 1.4772 11.543 1.47708 11.5428Z" fill="#292927"/>
</g>
</svg>
