<svg preserveAspectRatio="xMidYMid meet" overflow="visible" style="display: block;" viewBox="0 0 24 24" fill="none" xmlns="http://www.w3.org/2000/svg">
<g transform="translate(1.2500, 2.7500)">
<path id="Vector" fill-rule="evenodd" clip-rule="evenodd" d="M1.5 2.75C1.5 2.05964 2.05964 1.5 2.75 1.5H13.75C14.4404 1.5 15 2.05964 15 2.75V5H7.75C6.23122 5 5 6.23122 5 7.75V12H2.75C2.05964 12 1.5 11.4404 1.5 10.75V2.75ZM5 13.5H2.75C1.23122 13.5 0 12.2688 0 10.75V2.75C0 1.23122 1.23122 0 2.75 0H13.75C15.2688 0 16.5 1.23122 16.5 2.75V5H18.75C20.2688 5 21.5 6.23122 21.5 7.75V15.75C21.5 17.2688 20.2688 18.5 18.75 18.5H7.75C6.23122 18.5 5 17.2688 5 15.75V13.5ZM6.5 7.75C6.5 7.05964 7.05964 6.5 7.75 6.5H18.75C19.4404 6.5 20 7.05964 20 7.75V15.75C20 16.4404 19.4404 17 18.75 17H7.75C7.05964 17 6.5 16.4404 6.5 15.75V7.75ZM8 8.75C8 8.33579 8.33579 8 8.75 8H9.75C10.1642 8 10.5 8.33579 10.5 8.75C10.5 9.16421 10.1642 9.5 9.75 9.5H8.75C8.33579 9.5 8 9.16421 8 8.75ZM3.75 3C3.33579 3 3 3.33579 3 3.75C3 4.16421 3.33579 4.5 3.75 4.5H4.75C5.16421 4.5 5.5 4.16421 5.5 3.75C5.5 3.33579 5.16421 3 4.75 3H3.75Z" fill="#292927"/>
</g>
</svg>
