<svg preserveAspectRatio="xMidYMid meet" overflow="visible" style="display: block;" viewBox="0 0 24 24" fill="none" xmlns="http://www.w3.org/2000/svg">
<g transform="translate(0.2500, 2.2500)">
<path id="Vector" fill-rule="evenodd" clip-rule="evenodd" d="M3.15404 0.620999C3.21673 0.261987 3.52842 0 3.89286 0H11.75H19.6071C19.9716 0 20.2833 0.261987 20.346 0.620999L23.4888 18.621C23.5269 18.8392 23.4666 19.063 23.3241 19.2326C23.1816 19.4021 22.9715 19.5 22.75 19.5H11.75H0.750006C0.528531 19.5 0.318379 19.4021 0.175876 19.2326C0.0333725 19.063 -0.0269107 18.8392 0.0111833 18.621L3.15404 0.620999ZM17.9808 18H21.8577L21.3339 15H17.7161L17.9808 18ZM16.475 18L16.2103 15H12.5V18H16.475ZM17.5838 13.5H21.072L20.5482 10.5H17.3191L17.5838 13.5ZM15.8132 10.5L16.0779 13.5H12.5V10.5H15.8132ZM17.1867 9H20.2863L19.7625 5.9999L19.75 6H16.922L17.1867 9ZM15.4162 6L15.6809 9H12.5V6H15.4162ZM16.7897 4.5H19.5006L18.9768 1.5H16.525L16.7897 4.5ZM15.0191 1.5L15.2838 4.5H12.5V1.5H15.0191ZM11 15V18H7.02499L7.2897 15H11ZM1.64231 18H5.51916L5.78387 15H2.16611L1.64231 18ZM11 13.5H7.42205L7.68676 10.5H11V13.5ZM5.91622 13.5L6.18093 10.5H2.95183L2.42802 13.5H5.91622ZM11 9H7.81911L8.08382 6H11V9ZM6.31328 9L6.57799 6H3.75L3.73756 5.9999L3.21373 9H6.31328ZM11 4.5H8.21617L8.48087 1.5H11V4.5ZM6.71034 4.5L6.97505 1.5H4.52326L3.99945 4.5H6.71034Z" fill="#292927"/>
</g>
</svg>
