<svg preserveAspectRatio="xMidYMid meet" overflow="visible" style="display: block;" viewBox="0 0 24 24" fill="none" xmlns="http://www.w3.org/2000/svg">
<g transform="translate(3.2500, 3.2500)">
<path id="Vector" fill-rule="evenodd" clip-rule="evenodd" d="M8.75 0C9.16421 0 9.5 0.335786 9.5 0.75V16.75C9.5 17.1642 9.16421 17.5 8.75 17.5C8.33579 17.5 8 17.1642 8 16.75V0.75C8 0.335786 8.33579 0 8.75 0ZM4.75 5C5.16421 5 5.5 5.33579 5.5 5.75L5.5 11.75C5.5 12.1642 5.16421 12.5 4.75 12.5C4.33579 12.5 4 12.1642 4 11.75L4 5.75C4 5.33579 4.33579 5 4.75 5ZM17.5 6.75C17.5 6.33579 17.1642 6 16.75 6C16.3358 6 16 6.33579 16 6.75V10.75C16 11.1642 16.3358 11.5 16.75 11.5C17.1642 11.5 17.5 11.1642 17.5 10.75V6.75ZM0.75 6C1.16421 6 1.5 6.33579 1.5 6.75L1.5 10.75C1.5 11.1642 1.16421 11.5 0.750001 11.5C0.335787 11.5 0 11.1642 0 10.75V6.75C0 6.33579 0.335786 6 0.75 6ZM13.5 3.75C13.5 3.33579 13.1642 3 12.75 3C12.3358 3 12 3.33579 12 3.75V13.75C12 14.1642 12.3358 14.5 12.75 14.5C13.1642 14.5 13.5 14.1642 13.5 13.75V3.75Z" fill="#292927"/>
</g>
</svg>
