<svg preserveAspectRatio="xMidYMid meet" overflow="visible" style="display: block;" viewBox="0 0 24 24" fill="none" xmlns="http://www.w3.org/2000/svg">
<g transform="translate(2.2461, 1.2500)">
<path id="Vector" fill-rule="evenodd" clip-rule="evenodd" d="M2.00781 1.35C2.00781 0.604415 2.61223 0 3.35781 0H14.7578H15.0093C15.3673 0 15.7107 0.142232 15.9639 0.395406L19.1124 3.54393C19.3656 3.79711 19.5078 4.14048 19.5078 4.49853V4.75V20.15C19.5078 20.8956 18.9034 21.5 18.1578 21.5H9.75781C9.3436 21.5 9.00781 21.1642 9.00781 20.75C9.00781 20.3358 9.3436 20 9.75781 20H18.0078V5.5H15.3578C14.6122 5.5 14.0078 4.89558 14.0078 4.15V1.5H3.50781V10.75C3.50781 11.1642 3.17203 11.5 2.75781 11.5C2.3436 11.5 2.00781 11.1642 2.00781 10.75V1.35ZM15.5078 4V2.06066L17.4472 4H15.5078ZM4.5 14.75C4.5 14.3358 4.16421 14 3.75 14C3.33579 14 3 14.3358 3 14.75V17H0.75C0.335786 17 0 17.3358 0 17.75C0 18.1642 0.335786 18.5 0.75 18.5H3V20.75C3 21.1642 3.33579 21.5 3.75 21.5C4.16421 21.5 4.5 21.1642 4.5 20.75V18.5H6.75C7.16421 18.5 7.5 18.1642 7.5 17.75C7.5 17.3358 7.16421 17 6.75 17H4.5V14.75Z" fill="#292927"/>
</g>
</svg>
