<svg preserveAspectRatio="xMidYMid meet" overflow="visible" style="display: block;" viewBox="0 0 24 24" fill="none" xmlns="http://www.w3.org/2000/svg">
<g transform="translate(1.7500, 3.2500)">
<path id="Vector" fill-rule="evenodd" clip-rule="evenodd" d="M9.75 11.5C10.1642 11.5 10.5 11.1642 10.5 10.75C10.5 10.3358 10.1642 10 9.75 10H5.75C3.40279 10 1.5 8.09721 1.5 5.75C1.5 3.40279 3.40279 1.5 5.75 1.5H13.75C16.0972 1.5 18 3.40279 18 5.75V7.75C18 8.16421 18.3358 8.5 18.75 8.5C19.1642 8.5 19.5 8.16421 19.5 7.75V5.75C19.5 2.57436 16.9256 0 13.75 0H5.75C2.57436 0 0 2.57436 0 5.75C0 8.92564 2.57436 11.5 5.75 11.5H9.75ZM13.5 12.75C13.5 11.5074 14.5074 10.5 15.75 10.5C16.9926 10.5 18 11.5074 18 12.75C18 13.3705 17.7498 13.9311 17.3431 14.3389C16.9349 14.7481 16.3726 15 15.75 15C14.5074 15 13.5 13.9926 13.5 12.75ZM15.75 9C13.6789 9 12 10.6789 12 12.75C12 14.8211 13.6789 16.5 15.75 16.5C16.5151 16.5 17.2273 16.2703 17.8205 15.8769L19.2189 17.2795C19.5113 17.5729 19.9862 17.5736 20.2795 17.2811C20.5729 16.9887 20.5736 16.5138 20.2811 16.2205L18.8803 14.8154C19.2717 14.2232 19.5 13.5129 19.5 12.75C19.5 10.6789 17.8211 9 15.75 9Z" fill="#292927"/>
</g>
</svg>
