<svg preserveAspectRatio="xMidYMid meet" overflow="visible" style="display: block;" viewBox="0 0 24 24" fill="none" xmlns="http://www.w3.org/2000/svg">
<g transform="translate(1.2500, 1.2500)">
<path id="Vector" fill-rule="evenodd" clip-rule="evenodd" d="M1.5 10.75C1.5 5.64137 5.64137 1.5 10.75 1.5C15.8586 1.5 20 5.64137 20 10.75C20 15.8586 15.8586 20 10.75 20C5.64137 20 1.5 15.8586 1.5 10.75ZM10.75 0C4.81294 0 0 4.81294 0 10.75C0 16.6871 4.81294 21.5 10.75 21.5C16.6871 21.5 21.5 16.6871 21.5 10.75C21.5 4.81294 16.6871 0 10.75 0ZM11.2617 5.69156C11.5696 5.96865 11.5946 6.44287 11.3175 6.75075L11.3075 6.76186C11.0304 7.06975 10.5562 7.09471 10.2483 6.81761C9.9404 6.54052 9.91544 6.0663 10.1925 5.75842L10.2025 5.74731C10.4796 5.43942 10.9538 5.41446 11.2617 5.69156ZM10.75 9.5C11.1642 9.5 11.5 9.83579 11.5 10.25V15.25C11.5 15.6642 11.1642 16 10.75 16C10.3358 16 10 15.6642 10 15.25V10.25C10 9.83579 10.3358 9.5 10.75 9.5Z" fill="#292927"/>
</g>
</svg>
