<svg preserveAspectRatio="xMidYMid meet" overflow="visible" style="display: block;" viewBox="0 0 24 24" fill="none" xmlns="http://www.w3.org/2000/svg">
<g transform="translate(0.2500, 1.2500)">
<path id="Vector" fill-rule="evenodd" clip-rule="evenodd" d="M0 0.75C0 0.335786 0.335786 0 0.75 0H10.75C11.1642 0 11.5 0.335786 11.5 0.75V20.75C11.5 21.1642 11.1642 21.5 10.75 21.5H0.75C0.335786 21.5 0 21.1642 0 20.75C0 20.3358 0.335786 20 0.75 20H10V1.5H0.75C0.335786 1.5 0 1.16421 0 0.75ZM14.8992 0.215332C14.4933 0.132932 14.0974 0.395209 14.015 0.801144C13.9326 1.20708 14.1949 1.60295 14.6008 1.68535C18.8226 2.54234 22 6.2761 22 10.7503C22 15.2245 18.8226 18.9583 14.6008 19.8152C14.1949 19.8976 13.9326 20.2935 14.015 20.6994C14.0974 21.1054 14.4933 21.3676 14.8992 21.2852C19.8063 20.2892 23.5 15.9519 23.5 10.7503C23.5 5.54868 19.8063 1.21143 14.8992 0.215332ZM14.9309 7.02233C14.5289 6.92241 14.1221 7.16728 14.0221 7.56926C13.9222 7.97124 14.1671 8.37811 14.5691 8.47803C15.2937 8.65815 16 9.52118 16 10.7502C16 11.9792 15.2937 12.8422 14.5691 13.0223C14.1671 13.1222 13.9222 13.5291 14.0221 13.9311C14.122 14.3331 14.5289 14.5779 14.9309 14.478C16.4885 14.0909 17.5 12.4832 17.5 10.7502C17.5 9.01717 16.4885 7.40948 14.9309 7.02233ZM6.75 6.5H4.5V14.25C4.5 15.4926 3.49265 16.5 2.25 16.5C1.00735 16.5 0 15.4926 0 14.25C0 13.0074 1.00735 12 2.25 12C2.51298 12 2.76542 12.0451 3 12.128V6.35C3 5.60442 3.60442 5 4.35 5H6.75C7.16421 5 7.5 5.33579 7.5 5.75C7.5 6.16421 7.16421 6.5 6.75 6.5ZM2.25 13.5C2.66421 13.5 3 13.8358 3 14.25C3 14.6642 2.66421 15 2.25 15C1.83579 15 1.5 14.6642 1.5 14.25C1.5 13.8358 1.83579 13.5 2.25 13.5Z" fill="#292927"/>
</g>
</svg>
