<svg preserveAspectRatio="xMidYMid meet" overflow="visible" style="display: block;" viewBox="0 0 24 24" fill="none" xmlns="http://www.w3.org/2000/svg">
<g transform="translate(0.7500, 1.2500)">
<path id="Vector" fill-rule="evenodd" clip-rule="evenodd" d="M21 10.75C21 5.64137 16.8586 1.5 11.75 1.5C10.4331 1.5 9.18229 1.77475 8.05028 2.26935C7.67071 2.43519 7.22857 2.26193 7.06274 1.88237C6.8969 1.5028 7.07016 1.06066 7.44972 0.894823C8.76756 0.319036 10.2225 0 11.75 0C17.6871 0 22.5 4.81294 22.5 10.75C22.5 16.6871 17.6871 21.5 11.75 21.5C6.1753 21.5 1.59248 17.2572 1.05305 11.8241C1.01212 11.4119 1.31309 11.0446 1.72528 11.0037C2.13746 10.9627 2.50478 11.2637 2.54571 11.6759C3.00972 16.3494 6.95401 20 11.75 20C16.8586 20 21 15.8586 21 10.75ZM4.75 2.5H3.3V6.85C3.3 7.76127 2.56127 8.5 1.65 8.5C0.738731 8.5 0 7.76127 0 6.85C0 5.93873 0.73873 5.2 1.65 5.2C1.70056 5.2 1.7506 5.20228 1.8 5.20673V2.35C1.8 1.60441 2.40442 1 3.15 1H4.75C5.16421 1 5.5 1.33579 5.5 1.75C5.5 2.16421 5.16421 2.5 4.75 2.5ZM7.75 12.5C7.05964 12.5 6.5 13.0596 6.5 13.75C6.5 14.4404 7.05964 15 7.75 15C8.44036 15 9 14.4404 9 13.75C9 13.0596 8.44036 12.5 7.75 12.5ZM5 13.75C5 12.2312 6.23122 11 7.75 11C9.26878 11 10.5 12.2312 10.5 13.75C10.5 15.2688 9.26878 16.5 7.75 16.5C6.23122 16.5 5 15.2688 5 13.75ZM15.25 6C14.5596 6 14 6.55964 14 7.25C14 7.94036 14.5596 8.5 15.25 8.5C15.9404 8.5 16.5 7.94036 16.5 7.25C16.5 6.55964 15.9404 6 15.25 6ZM8.25 6C7.55964 6 7 6.55964 7 7.25C7 7.94036 7.55964 8.5 8.25 8.5C8.94036 8.5 9.5 7.94036 9.5 7.25C9.5 6.55964 8.94036 6 8.25 6Z" fill="#292927"/>
</g>
</svg>
