<svg preserveAspectRatio="xMidYMid meet" overflow="visible" style="display: block;" viewBox="0 0 24 24" fill="none" xmlns="http://www.w3.org/2000/svg">
<g transform="translate(2.2500, 1.2500)">
<path id="Vector" fill-rule="evenodd" clip-rule="evenodd" d="M0 1.35C0 0.604416 0.604416 0 1.35 0H7.15C7.89558 0 8.5 0.604416 8.5 1.35V5.15C8.5 5.89558 7.89558 6.5 7.15 6.5H5V9.25C5 9.94036 5.55964 10.5 6.25 10.5H13.25C13.9404 10.5 14.5 9.94036 14.5 9.25V6.5H12.35C11.6044 6.5 11 5.89558 11 5.15V1.35C11 0.604416 11.6044 0 12.35 0H18.15C18.8956 0 19.5 0.604416 19.5 1.35V5.15C19.5 5.89558 18.8956 6.5 18.15 6.5H16V9.25C16 10.7688 14.7688 12 13.25 12H10.5V15H12.65C13.3956 15 14 15.6044 14 16.35V20.15C14 20.8956 13.3956 21.5 12.65 21.5H6.85C6.10442 21.5 5.5 20.8956 5.5 20.15V16.35C5.5 15.6044 6.10442 15 6.85 15H9V12H6.25C4.73122 12 3.5 10.7688 3.5 9.25V6.5H1.35C0.604415 6.5 0 5.89558 0 5.15V1.35ZM1.5 1.5V5H7V1.5H1.5ZM7 16.5V20H12.5V16.5H7ZM12.5 5V1.5H18V5H12.5Z" fill="#292927"/>
</g>
</svg>
