<svg preserveAspectRatio="xMidYMid meet" overflow="visible" style="display: block;" viewBox="0 0 24 24" fill="none" xmlns="http://www.w3.org/2000/svg">
<g transform="translate(2.2498, 6.2500)">
<path id="Vector" fill-rule="evenodd" clip-rule="evenodd" d="M1.43413 7.05777C4.76879 -0.352591 14.7316 -0.352591 18.0662 7.05777C18.2362 7.4355 18.6802 7.60392 19.058 7.43394C19.4357 7.26396 19.6041 6.81996 19.4341 6.44223C15.5688 -2.14741 3.93158 -2.14741 0.0662441 6.44223C-0.103735 6.81996 0.0646814 7.26396 0.442412 7.43394C0.820142 7.60392 1.26415 7.4355 1.43413 7.05777ZM12.0002 7.75C12.0002 6.50736 10.9928 5.5 9.75018 5.5C8.50754 5.5 7.50018 6.50736 7.50018 7.75C7.50018 8.99264 8.50754 10 9.75018 10C10.9928 10 12.0002 8.99264 12.0002 7.75ZM9.75018 4C11.8213 4 13.5002 5.67893 13.5002 7.75C13.5002 9.82107 11.8213 11.5 9.75018 11.5C7.67912 11.5 6.00018 9.82107 6.00018 7.75C6.00018 5.67893 7.67912 4 9.75018 4Z" fill="#292927"/>
</g>
</svg>
