<svg preserveAspectRatio="xMidYMid meet" overflow="visible" style="display: block;" viewBox="0 0 24 24" fill="none" xmlns="http://www.w3.org/2000/svg">
<g transform="translate(1.0000, 6.3742)">
<path id="Vector" fill-rule="evenodd" clip-rule="evenodd" d="M15.7803 0.21967C16.0732 0.512563 16.0732 0.987437 15.7803 1.28033L11.7803 5.28033C11.4874 5.57322 11.0126 5.57322 10.7197 5.28033C10.4268 4.98744 10.4268 4.51256 10.7197 4.21967L14.7197 0.21967C15.0126 -0.0732233 15.4874 -0.0732233 15.7803 0.21967ZM0.21967 5.71967C0.512563 5.42678 0.987437 5.42678 1.28033 5.71967L5.25 9.68934L7.18934 7.75L5.71967 6.28033C5.42678 5.98744 5.42678 5.51256 5.71967 5.21967C6.01256 4.92678 6.48744 4.92678 6.78033 5.21967L8.78033 7.21967L11.25 9.68934L20.7197 0.21967C21.0126 -0.0732233 21.4874 -0.0732233 21.7803 0.21967C22.0732 0.512563 22.0732 0.987437 21.7803 1.28033L12.2046 10.8561C11.6774 11.3833 10.8226 11.3833 10.2954 10.8561L8.25 8.81066L6.20459 10.8561C5.67739 11.3833 4.82262 11.3833 4.29541 10.8561L0.21967 6.78033C-0.0732233 6.48744 -0.0732233 6.01256 0.21967 5.71967Z" fill="#292927"/>
</g>
</svg>
