<svg preserveAspectRatio="xMidYMid meet" overflow="visible" style="display: block;" viewBox="0 0 24 24" fill="none" xmlns="http://www.w3.org/2000/svg">
<g transform="translate(0.4985, 0.4985)">
<path id="Vector" fill-rule="evenodd" clip-rule="evenodd" d="M1.56213 11.5015L11.5015 1.56213L21.4408 11.5015L11.5015 21.4408L1.56213 11.5015ZM12.4561 0.395406C11.9289 -0.131801 11.0741 -0.131803 10.5469 0.395406L0.395406 10.5469C-0.131801 11.0741 -0.131803 11.9289 0.395406 12.4561L10.5469 22.6075C11.0741 23.1347 11.9289 23.1347 12.4561 22.6075L22.6075 12.4561C23.1347 11.9289 23.1347 11.0741 22.6075 10.5469L12.4561 0.395406ZM16.0318 11.0323C16.3247 10.7394 16.3247 10.2645 16.0318 9.97162L14.0318 7.97162C13.7389 7.67873 13.264 7.67873 12.9711 7.97162C12.6782 8.26452 12.6782 8.73939 12.9711 9.03228L13.6908 9.75195H9.50146C8.75754 9.75195 8.0764 10.1164 7.59614 10.5966C7.11588 11.0769 6.75146 11.758 6.75146 12.502V13.502C6.75146 13.9162 7.08725 14.252 7.50146 14.252C7.91568 14.252 8.25146 13.9162 8.25146 13.502V12.502C8.25146 12.2459 8.38705 11.927 8.6568 11.6573C8.92654 11.3875 9.24539 11.252 9.50146 11.252H13.6908L12.9711 11.9716C12.6782 12.2645 12.6782 12.7394 12.9711 13.0323C13.264 13.3252 13.7389 13.3252 14.0318 13.0323L16.0318 11.0323Z" fill="#292927"/>
</g>
</svg>
