<svg preserveAspectRatio="xMidYMid meet" overflow="visible" style="display: block;" viewBox="0 0 24 24" fill="none" xmlns="http://www.w3.org/2000/svg">
<g transform="translate(3.2500, 2.2500)">
<path id="Vector" fill-rule="evenodd" clip-rule="evenodd" d="M1.35 0C0.604417 0 0 0.604415 0 1.35V3.75C0 4.16421 0.335786 4.5 0.75 4.5C1.16421 4.5 1.5 4.16421 1.5 3.75V1.5H16V3.75C16 4.16421 16.3358 4.5 16.75 4.5C17.1642 4.5 17.5 4.16421 17.5 3.75V1.35C17.5 0.604415 16.8956 0 16.15 0H1.35ZM11 12.75C11 13.1642 11.3358 13.5 11.75 13.5C12.1642 13.5 12.5 13.1642 12.5 12.75V10.5H14.25C14.6642 10.5 15 10.1642 15 9.75C15 9.33579 14.6642 9 14.25 9H12.5V7.5H14.75C15.1642 7.5 15.5 7.16421 15.5 6.75C15.5 6.33579 15.1642 6 14.75 6H11.75C11.3358 6 11 6.33579 11 6.75V9.75V12.75ZM2.5 6.75C2.5 6.33579 2.83579 6 3.25 6H6.25C6.66421 6 7 6.33579 7 6.75C7 7.16421 6.66421 7.5 6.25 7.5H5.5V12.75C5.5 13.1642 5.16421 13.5 4.75 13.5C4.33579 13.5 4 13.1642 4 12.75V7.5H3.25C2.83579 7.5 2.5 7.16421 2.5 6.75ZM8.75 13.5C8.33579 13.5 8 13.1642 8 12.75V6.75C8 6.33579 8.33579 6 8.75 6C9.16421 6 9.5 6.33579 9.5 6.75V12.75C9.5 13.1642 9.16421 13.5 8.75 13.5ZM1.35 19.5C0.604417 19.5 0 18.8956 0 18.15V15.75C0 15.3358 0.335786 15 0.75 15C1.16421 15 1.5 15.3358 1.5 15.75V18H16V15.75C16 15.3358 16.3358 15 16.75 15C17.1642 15 17.5 15.3358 17.5 15.75V18.15C17.5 18.8956 16.8956 19.5 16.15 19.5H1.35Z" fill="#292927"/>
</g>
</svg>
