<svg preserveAspectRatio="xMidYMid meet" overflow="visible" style="display: block;" viewBox="0 0 24 24" fill="none" xmlns="http://www.w3.org/2000/svg">
<g transform="translate(2.9153, 1.7449)">
<path id="Vector" fill-rule="evenodd" clip-rule="evenodd" d="M8.16938 2.75C8.16938 2.05964 8.72903 1.5 9.41938 1.5C10.1097 1.5 10.6694 2.05964 10.6694 2.75C10.6694 3.16421 11.0052 3.5 11.4194 3.5C11.8336 3.5 12.1694 3.16421 12.1694 2.75C12.1694 1.23122 10.9382 0 9.41938 0C7.9006 0 6.66938 1.23122 6.66938 2.75C6.66938 3.16421 7.00517 3.5 7.41938 3.5C7.8336 3.5 8.16938 3.16421 8.16938 2.75ZM9.41937 19.5C9.83358 19.5 10.1694 19.1642 10.1694 18.75C10.1694 18.3358 9.83358 18 9.41937 18H2.75059C1.98448 18 1.39863 17.3171 1.51513 16.5599L2.89974 7.55993C2.99355 6.95014 3.51824 6.5 4.13521 6.5H14.7035C15.3205 6.5 15.8452 6.95014 15.939 7.55993L16.6781 12.364C16.7411 12.7734 17.124 13.0543 17.5334 12.9913C17.9428 12.9283 18.2236 12.5454 18.1606 12.136L17.4216 7.33184C17.2152 5.9903 16.0608 5 14.7035 5H4.13521C2.77789 5 1.62357 5.99031 1.41718 7.33184L0.0325678 16.3318C-0.223713 17.9977 1.06516 19.5 2.75059 19.5H9.41937ZM15.6694 14.75C15.6694 14.3358 15.3336 14 14.9194 14C14.5052 14 14.1694 14.3358 14.1694 14.75V16.75C14.1694 17.1642 14.5052 17.5 14.9194 17.5C15.3336 17.5 15.6694 17.1642 15.6694 16.75V14.75ZM15.4311 19.1916C15.739 19.4687 15.764 19.9429 15.4869 20.2508L15.4769 20.2619C15.1998 20.5697 14.7255 20.5947 14.4177 20.3176C14.1098 20.0405 14.0848 19.5663 14.3619 19.2584L14.3719 19.2473C14.649 18.9394 15.1232 18.9145 15.4311 19.1916Z" fill="#292927"/>
</g>
</svg>
