<svg preserveAspectRatio="xMidYMid meet" overflow="visible" style="display: block;" viewBox="0 0 24 24" fill="none" xmlns="http://www.w3.org/2000/svg">
<g transform="translate(3.0680, 2.0681)">
<path id="Vector" fill-rule="evenodd" clip-rule="evenodd" d="M9.5 0.75C9.5 0.335786 9.16421 0 8.75 0C8.33579 0 8 0.335786 8 0.75V16.75C8 17.1642 8.33579 17.5 8.75 17.5C9.16421 17.5 9.5 17.1642 9.5 16.75V0.75ZM5.5 5.75C5.5 5.33579 5.16421 5 4.75 5C4.33579 5 4 5.33579 4 5.75L4 11.75C4 12.1642 4.33579 12.5 4.75 12.5C5.16421 12.5 5.5 12.1642 5.5 11.75L5.5 5.75ZM16.75 6C17.1642 6 17.5 6.33579 17.5 6.75V10.75C17.5 11.1642 17.1642 11.5 16.75 11.5C16.3358 11.5 16 11.1642 16 10.75V6.75C16 6.33579 16.3358 6 16.75 6ZM1.5 6.75C1.5 6.33579 1.16421 6 0.75 6C0.335786 6 0 6.33579 0 6.75V10.75C0 11.1642 0.335787 11.5 0.750001 11.5C1.16421 11.5 1.5 11.1642 1.5 10.75L1.5 6.75ZM12.75 3C13.1642 3 13.5 3.33579 13.5 3.75V11.75C13.5 12.1642 13.1642 12.5 12.75 12.5C12.3358 12.5 12 12.1642 12 11.75V3.75C12 3.33579 12.3358 3 12.75 3ZM13.4017 14.3408C13.1088 14.0479 12.6339 14.0479 12.341 14.3408C12.0481 14.6337 12.0481 15.1085 12.341 15.4014L13.932 16.9924L12.341 18.5834C12.0481 18.8763 12.0481 19.3512 12.341 19.6441C12.6339 19.937 13.1088 19.937 13.4017 19.6441L14.9927 18.0531L16.5836 19.6441C16.8765 19.937 17.3514 19.937 17.6443 19.6441C17.9372 19.3512 17.9372 18.8763 17.6443 18.5834L16.0533 16.9924L17.6443 15.4014C17.9372 15.1085 17.9372 14.6337 17.6443 14.3408C17.3514 14.0479 16.8765 14.0479 16.5836 14.3408L14.9927 15.9318L13.4017 14.3408Z" fill="#292927"/>
</g>
</svg>
