<svg preserveAspectRatio="xMidYMid meet" overflow="visible" style="display: block;" viewBox="0 0 24 24" fill="none" xmlns="http://www.w3.org/2000/svg">
<g transform="translate(2.2500, 2.2500)">
<path id="Vector" fill-rule="evenodd" clip-rule="evenodd" d="M1.5 10.5V13.5H9V10.5H1.5ZM10.5 10.5V13.5H18V10.5H10.5ZM9 15H1.5V18H9V15ZM10.5 18V15H18V18H10.5ZM10.5 9V6H18V9H10.5ZM9 6V9H1.5V6H9ZM10.5 4.5H18V1.5H10.5V4.5ZM9 1.5V4.5H1.5V1.5H9ZM0 1.35C0 0.604415 0.604417 0 1.35 0H18.15C18.8956 0 19.5 0.604417 19.5 1.35V18.15C19.5 18.8956 18.8956 19.5 18.15 19.5H1.35C0.604415 19.5 0 18.8956 0 18.15V1.35Z" fill="#292927"/>
</g>
</svg>
