<svg preserveAspectRatio="xMidYMid meet" overflow="visible" style="display: block;" viewBox="0 0 24 24" fill="none" xmlns="http://www.w3.org/2000/svg">
<g transform="translate(1.7237, 0.3428)">
<path id="Vector" fill-rule="evenodd" clip-rule="evenodd" d="M9.60128 0.180866C10.019 -0.0602887 10.5336 -0.0602884 10.9513 0.180866L19.8776 5.33446C20.2952 5.57561 20.5526 6.02128 20.5526 6.50359V16.8108C20.5526 17.2931 20.2952 17.7387 19.8776 17.9799L10.9513 23.1335C10.5336 23.3746 10.019 23.3746 9.60128 23.1335L0.675 17.9799C0.257308 17.7387 0 17.2931 0 16.8108V6.50359C0 6.02128 0.257309 5.57561 0.675 5.33446L9.60128 0.180866ZM1.5 6.59019V16.7242L10.2763 21.7912L19.0526 16.7242V6.59019L10.2763 1.5232L1.5 6.59019Z" fill="#292927"/>
</g>
</svg>
