<svg preserveAspectRatio="xMidYMid meet" overflow="visible" style="display: block;" viewBox="0 0 24 24" fill="none" xmlns="http://www.w3.org/2000/svg">
<g transform="translate(2.2500, 1.2500)">
<path id="Vector" fill-rule="evenodd" clip-rule="evenodd" d="M2.75 0C1.23122 0 0 1.23122 0 2.75V10.5015C0 10.8595 0.142231 11.2029 0.395406 11.4561L4 15.0607V18.75C4 20.2688 5.23122 21.5 6.75 21.5H12.75C14.2688 21.5 15.5 20.2688 15.5 18.75V15.0607L19.1046 11.4561C19.3578 11.2029 19.5 10.8595 19.5 10.5015V2.75C19.5 1.23122 18.2688 0 16.75 0H2.75ZM1.5 2.75C1.5 2.05964 2.05964 1.5 2.75 1.5H16.75C17.4404 1.5 18 2.05964 18 2.75V10.4393L14.3954 14.0439C14.1422 14.2971 14 14.6405 14 14.9985V18.75C14 19.4404 13.4404 20 12.75 20H6.75C6.05964 20 5.5 19.4404 5.5 18.75V14.9985C5.5 14.6405 5.35777 14.2971 5.10459 14.0439L1.5 10.4393V2.75ZM10.4328 4.43965C10.3111 4.1719 10.0441 4 9.75 4C9.45589 4 9.18893 4.1719 9.06723 4.43965L6.56723 9.93965C6.39582 10.3167 6.56256 10.7614 6.93965 10.9328C7.31673 11.1042 7.76137 10.9374 7.93278 10.5604L8.23293 9.9H11.2671L11.5672 10.5604C11.7386 10.9374 12.1833 11.1042 12.5604 10.9328C12.9374 10.7614 13.1042 10.3167 12.9328 9.93965L10.4328 4.43965ZM9.75 6.56246L10.5852 8.4H8.91475L9.75 6.56246Z" fill="#292927"/>
</g>
</svg>
