<svg preserveAspectRatio="xMidYMid meet" overflow="visible" style="display: block;" viewBox="0 0 24 24" fill="none" xmlns="http://www.w3.org/2000/svg">
<g transform="translate(1.2500, 2.8610)">
<path id="Vector" fill-rule="evenodd" clip-rule="evenodd" d="M7.78034 10.4876C6.14024 8.84748 6.14024 6.18834 7.78034 4.54823L10.75 1.57856L13.7197 4.54823C15.3598 6.18834 15.3598 8.84748 13.7197 10.4876C12.0796 12.1277 9.42045 12.1277 7.78034 10.4876ZM6.71968 3.48757C4.49379 5.71346 4.49379 9.32235 6.71968 11.5482C8.94557 13.7741 12.5545 13.7741 14.7804 11.5482C17.0062 9.32235 17.0062 5.71346 14.7804 3.48757L11.6766 0.383793C11.1649 -0.12793 10.3352 -0.127931 9.82346 0.383792L6.71968 3.48757ZM3.5 9.51791C3.5 9.93212 3.16421 10.2679 2.75 10.2679H0.75C0.335786 10.2679 0 9.93212 0 9.51791C0 9.10369 0.335786 8.76791 0.75 8.76791H2.75C3.16421 8.76791 3.5 9.10369 3.5 9.51791ZM21.5 9.51791C21.5 9.93212 21.1642 10.2679 20.75 10.2679H18.75C18.3358 10.2679 18 9.93212 18 9.51791C18 9.10369 18.3358 8.76791 18.75 8.76791H20.75C21.1642 8.76791 21.5 9.10369 21.5 9.51791ZM2.31748 18.0187C2.59457 17.7108 2.56961 17.2366 2.26173 16.9595C1.95385 16.6824 1.47963 16.7073 1.20254 17.0152L1.19254 17.0263C0.915442 17.3342 0.9404 17.8084 1.24828 18.0855C1.55616 18.3626 2.03038 18.3377 2.30748 18.0298L2.31748 18.0187ZM5.26173 12.9595C5.56961 13.2366 5.59457 13.7108 5.31748 14.0187L5.30748 14.0298C5.03038 14.3377 4.55616 14.3626 4.24828 14.0855C3.9404 13.8084 3.91544 13.3342 4.19254 13.0263L4.20254 13.0152C4.47963 12.7073 4.95385 12.6824 5.26173 12.9595ZM8.31748 18.0187C8.59457 17.7108 8.56961 17.2366 8.26173 16.9595C7.95385 16.6824 7.47963 16.7073 7.20254 17.0152L7.19254 17.0263C6.91544 17.3342 6.9404 17.8084 7.24828 18.0855C7.55616 18.3626 8.03038 18.3377 8.30748 18.0298L8.31748 18.0187ZM14.2617 16.9595C14.5696 17.2366 14.5946 17.7108 14.3175 18.0187L14.3075 18.0298C14.0304 18.3377 13.5562 18.3626 13.2483 18.0855C12.9404 17.8084 12.9154 17.3342 13.1925 17.0263L13.2025 17.0152C13.4796 16.7073 13.9538 16.6824 14.2617 16.9595ZM17.3175 14.0187C17.5946 13.7108 17.5696 13.2366 17.2617 12.9595C16.9538 12.6824 16.4796 12.7073 16.2025 13.0152L16.1925 13.0263C15.9154 13.3342 15.9404 13.8084 16.2483 14.0855C16.5562 14.3626 17.0304 14.3377 17.3075 14.0298L17.3175 14.0187ZM20.2617 16.9595C20.5696 17.2366 20.5946 17.7108 20.3175 18.0187L20.3075 18.0298C20.0304 18.3377 19.5562 18.3626 19.2483 18.0855C18.9404 17.8084 18.9154 17.3342 19.1925 17.0263L19.2025 17.0152C19.4796 16.7073 19.9538 16.6824 20.2617 16.9595Z" fill="#292927"/>
</g>
</svg>
