<svg preserveAspectRatio="xMidYMid meet" overflow="visible" style="display: block;" viewBox="0 0 24 24" fill="none" xmlns="http://www.w3.org/2000/svg">
<g transform="translate(4.2500, 3.2500)">
<path id="Vector" fill-rule="evenodd" clip-rule="evenodd" d="M4 16.75C4 17.1642 4.33579 17.5 4.75 17.5C5.16421 17.5 5.5 17.1642 5.5 16.75V0.75C5.5 0.335787 5.16421 0 4.75 0C4.33579 0 4 0.335787 4 0.75V3H1.35C0.604415 3 0 3.60442 0 4.35V13.15C0 13.8956 0.604414 14.5 1.35 14.5H4V16.75ZM1.5 4.5H4V13H1.5V4.5ZM14 16.75C14 17.1642 14.3358 17.5 14.75 17.5C15.1642 17.5 15.5 17.1642 15.5 16.75V0.75C15.5 0.335787 15.1642 0 14.75 0C14.3358 0 14 0.335787 14 0.75V3H9.35C8.60441 3 8 3.60442 8 4.35V13.15C8 13.8956 8.60441 14.5 9.35 14.5H14V16.75ZM9.5 4.5H14V13H9.5V4.5Z" fill="#292927"/>
</g>
</svg>
