<svg preserveAspectRatio="xMidYMid meet" overflow="visible" style="display: block;" viewBox="0 0 24 24" fill="none" xmlns="http://www.w3.org/2000/svg">
<g transform="translate(3.2500, 1.2500)">
<path id="Vector" fill-rule="evenodd" clip-rule="evenodd" d="M1.5 1.5V20H16V5.5H13.35C12.6044 5.5 12 4.89558 12 4.15V1.5H1.5ZM12.75 0H1.35C0.604417 0 0 0.604415 0 1.35V20.15C0 20.8956 0.604415 21.5 1.35 21.5H16.15C16.8956 21.5 17.5 20.8956 17.5 20.15V4.75V4.49853C17.5 4.14048 17.3578 3.79711 17.1046 3.54393L13.9561 0.395406C13.7029 0.142232 13.3595 0 13.0015 0H12.75ZM13.5 2.06066V4H15.4393L13.5 2.06066ZM6 11.25C6 10.0074 7.00736 9 8.25 9C9.49264 9 10.5 10.0074 10.5 11.25C10.5 11.8705 10.2498 12.4311 9.84311 12.8389C9.43495 13.2481 8.8726 13.5 8.25 13.5C7.00736 13.5 6 12.4926 6 11.25ZM8.25 7.5C6.17893 7.5 4.5 9.17893 4.5 11.25C4.5 13.3211 6.17893 15 8.25 15C9.01399 15 9.72526 14.771 10.318 14.3786L11.7197 15.7803C12.0126 16.0732 12.4874 16.0732 12.7803 15.7803C13.0732 15.4874 13.0732 15.0126 12.7803 14.7197L11.3786 13.318C11.771 12.7253 12 12.014 12 11.25C12 9.17893 10.3211 7.5 8.25 7.5Z" fill="#292927"/>
</g>
</svg>
