<svg preserveAspectRatio="xMidYMid meet" overflow="visible" style="display: block;" viewBox="0 0 24 24" fill="none" xmlns="http://www.w3.org/2000/svg">
<g transform="translate(1.2500, 3.2499)">
<path id="Vector" fill-rule="evenodd" clip-rule="evenodd" d="M8.41307 0.0180154C8.07009 -0.0583817 7.72005 0.113585 7.57091 0.431749L5.69591 4.43175C5.5201 4.8068 5.68162 5.25336 6.05668 5.42917C6.43173 5.60497 6.87829 5.44345 7.0541 5.0684L7.5 4.11713V4.75007C7.5 5.16429 7.83579 5.50007 8.25 5.50007C8.66422 5.50007 9 5.16429 9 4.75007V0.750074C9 0.398691 8.75604 0.0944125 8.41307 0.0180154ZM3.82091 8.43185C3.99672 8.0568 4.44328 7.89528 4.81833 8.07108C5.19339 8.24689 5.35491 8.69345 5.1791 9.0685L4.2416 11.0685C4.06579 11.4436 3.61923 11.6051 3.24418 11.4293C2.86913 11.2535 2.70761 10.8069 2.88341 10.4319L3.82091 8.43185ZM7.5 8.75C7.5 8.33579 7.83579 8 8.25 8C8.66422 8 9 8.33579 9 8.75V10.75C9 11.1642 8.66422 11.5 8.25 11.5C7.83579 11.5 7.5 11.1642 7.5 10.75V8.75ZM8.25 14C7.83579 14 7.5 14.3358 7.5 14.75V16H6.375C5.96079 16 5.625 16.3358 5.625 16.75C5.625 17.1642 5.96079 17.5 6.375 17.5H8.25C8.66422 17.5 9 17.1642 9 16.75V14.75C9 14.3358 8.66422 14 8.25 14ZM1.00841 14.4319C1.18421 14.0568 1.63077 13.8953 2.00583 14.0711C2.38088 14.2469 2.5424 14.6934 2.3666 15.0685L1.92987 16.0002H2.625C3.03922 16.0002 3.375 16.336 3.375 16.7502C3.375 17.1644 3.03922 17.5002 2.625 17.5002H0.750002C0.493443 17.5002 0.254686 17.369 0.117054 17.1525C-0.0205773 16.936 -0.0379847 16.6642 0.0709072 16.4319L1.00841 14.4319ZM13.9291 0.431749C13.78 0.113585 13.4299 -0.0583817 13.0869 0.0180154C12.744 0.0944125 12.5 0.398691 12.5 0.750074V16.7501C12.5 17.1643 12.8358 17.5001 13.25 17.5001H20.75C21.0066 17.5001 21.2453 17.3689 21.3829 17.1524C21.5206 16.9359 21.538 16.6641 21.4291 16.4317L13.9291 0.431749ZM14 16.0001V4.11713L19.5701 16.0001H14Z" fill="#292927"/>
</g>
</svg>
