<svg preserveAspectRatio="xMidYMid meet" overflow="visible" style="display: block;" viewBox="0 0 24 24" fill="none" xmlns="http://www.w3.org/2000/svg">
<g transform="translate(1.0000, 1.0000)">
<path id="Vector" fill-rule="evenodd" clip-rule="evenodd" d="M10.75 1.5C5.64137 1.5 1.5 5.64137 1.5 10.75C1.5 15.8586 5.64137 20 10.75 20C11.1642 20 11.5 20.3358 11.5 20.75C11.5 21.1642 11.1642 21.5 10.75 21.5C4.81294 21.5 0 16.6871 0 10.75C0 4.81294 4.81294 0 10.75 0C16.6871 0 21.5 4.81294 21.5 10.75C21.5 11.8723 21.3278 12.9558 21.0077 13.9747C20.8836 14.3699 20.4626 14.5897 20.0675 14.4655C19.6723 14.3414 19.4525 13.9204 19.5767 13.5253C19.8515 12.6501 20 11.7181 20 10.75C20 5.64137 15.8586 1.5 10.75 1.5ZM8.3504 7.13213C9.02899 6.7359 9.85371 6.5 10.75 6.5C12.7543 6.5 14.3566 7.66672 14.8425 9.13555C14.9726 9.5288 15.3969 9.74214 15.7901 9.61205C16.1834 9.48196 16.3967 9.05771 16.2666 8.66445C15.5488 6.49451 13.3047 5 10.75 5C9.59057 5 8.50445 5.3052 7.59404 5.83679C7.23634 6.04565 7.11569 6.50494 7.32455 6.86264C7.53341 7.22034 7.9927 7.34099 8.3504 7.13213ZM6.72962 8.93934C6.88517 8.55544 6.70006 8.11814 6.31616 7.96259C5.93226 7.80703 5.49495 7.99215 5.3394 8.37604C5.12005 8.9174 5 9.5022 5 10.1115V14.75C5 15.1642 5.33579 15.5 5.75 15.5C6.16421 15.5 6.5 15.1642 6.5 14.75V10.1115C6.5 9.70134 6.58046 9.30745 6.72962 8.93934ZM16.5 11.5654C16.5 11.1512 16.1642 10.8154 15.75 10.8154C15.3358 10.8154 15 11.1512 15 11.5654V14.75C15 15.1642 15.3358 15.5 15.75 15.5C16.1642 15.5 16.5 15.1642 16.5 14.75V11.5654ZM9.5 10.6029C9.5 10.0467 10.0047 9.5 10.75 9.5C11.4953 9.5 12 10.0467 12 10.6029V15.75C12 16.1642 12.3358 16.5 12.75 16.5C13.1642 16.5 13.5 16.1642 13.5 15.75V10.6029C13.5 9.11247 12.2138 8 10.75 8C9.28618 8 8 9.11247 8 10.6029V11.3971C8 11.8113 8.33579 12.1471 8.75 12.1471C9.16421 12.1471 9.5 11.8113 9.5 11.3971V10.6029ZM9.5 13.5735C9.5 13.1593 9.16421 12.8235 8.75 12.8235C8.33579 12.8235 8 13.1593 8 13.5735V15.75C8 16.1642 8.33579 16.5 8.75 16.5C9.16421 16.5 9.5 16.1642 9.5 15.75V13.5735ZM14.7803 18.7197C14.4874 18.4268 14.0126 18.4268 13.7197 18.7197C13.4268 19.0126 13.4268 19.4874 13.7197 19.7803L15.7197 21.7803C16.0126 22.0732 16.4874 22.0732 16.7803 21.7803L21.7803 16.7803C22.0732 16.4874 22.0732 16.0126 21.7803 15.7197C21.4874 15.4268 21.0126 15.4268 20.7197 15.7197L16.25 20.1893L14.7803 18.7197Z" fill="#292927"/>
</g>
</svg>
