<svg preserveAspectRatio="xMidYMid meet" overflow="visible" style="display: block;" viewBox="0 0 24 24" fill="none" xmlns="http://www.w3.org/2000/svg">
<g transform="translate(0.7500, 7.7499)">
<path id="Vector" fill-rule="evenodd" clip-rule="evenodd" d="M5.25 0C5.66421 0 6 0.335786 6 0.75V7.75C6 8.16421 5.66421 8.5 5.25 8.5C4.83579 8.5 4.5 8.16421 4.5 7.75V5H1.5V7.75C1.5 8.16421 1.16421 8.5 0.75 8.5C0.335786 8.5 0 8.16421 0 7.75V0.75C0 0.335786 0.335786 0 0.75 0C1.16421 0 1.5 0.335786 1.5 0.75V3.5H4.5V0.75C4.5 0.335786 4.83579 0 5.25 0ZM22.2058 8.34568C21.8769 8.59742 21.4061 8.53483 21.1544 8.2059L19.2367 5.70008H17.5V7.75008C17.5 8.1643 17.1642 8.50008 16.75 8.50008C16.3358 8.50008 16 8.1643 16 7.75008V0.750083C16 0.335869 16.3358 8.26116e-05 16.75 8.26116e-05H19.6071L19.6436 4.3809e-05C19.9889 -0.000495315 20.7013 -0.0016076 21.3266 0.366065C22.0612 0.798017 22.5 1.61073 22.5 2.85008C22.5 4.08943 22.0612 4.90215 21.3266 5.3341C21.2111 5.40198 21.0927 5.45728 20.9742 5.50235L22.3456 7.29427C22.5973 7.62321 22.5347 8.09394 22.2058 8.34568ZM17.5 4.20008H19.6071C19.992 4.20008 20.3216 4.1849 20.5663 4.04107C20.7245 3.94802 21 3.71073 21 2.85008C21 1.98943 20.7245 1.75215 20.5663 1.6591C20.3216 1.51526 19.992 1.50008 19.6071 1.50008H17.5V4.20008ZM9.5 6.99573V1.50435C10.465 1.51933 11.2657 1.58502 11.8703 1.86718C12.2142 2.02767 12.4773 2.25357 12.6647 2.59084C12.8585 2.9396 13 3.46005 13 4.25004C13 5.04004 12.8585 5.56048 12.6647 5.90925C12.4773 6.24652 12.2142 6.47241 11.8703 6.63291C11.2657 6.91507 10.465 6.98076 9.5 6.99573ZM14.5 4.25004C14.5 3.29004 14.329 2.49798 13.9759 1.86237C13.6164 1.21527 13.0983 0.784915 12.5047 0.507905C11.4145 -0.00082171 10.022 -0.000364583 8.84613 2.14167e-05L8.75 4.25168e-05C8.33579 4.25168e-05 8 0.335829 8 0.750042V7.75004C8 8.16426 8.33579 8.50004 8.75 8.50004L8.84613 8.50006C10.022 8.50045 11.4145 8.50091 12.5047 7.99218C13.0983 7.71517 13.6164 7.28482 13.9759 6.63771C14.329 6.0021 14.5 5.21005 14.5 4.25004Z" fill="#292927"/>
</g>
</svg>
