<svg preserveAspectRatio="xMidYMid meet" overflow="visible" style="display: block;" viewBox="0 0 24 24" fill="none" xmlns="http://www.w3.org/2000/svg">
<g transform="translate(3.2500, 2.2500)">
<path id="Vector" fill-rule="evenodd" clip-rule="evenodd" d="M5.05113 1.18188C6.22715 0.262398 7.96772 0 10.1723 0C12.3777 0 14.277 0.261331 15.5981 1.41164C16.9451 2.58454 17.5 4.50264 17.5 7.29545C17.5 11.5201 16.5 14.4771 15.8556 15.6749V18.75C15.8556 19.1642 15.5198 19.5 15.1056 19.5H5.23902C4.8248 19.5 4.48902 19.1642 4.48902 18.75V15.866C2.84421 14.6384 1.64789 12.7143 0.913494 10.9205C0.518023 9.95459 0.244127 8.997 0.105397 8.1595C-0.0283259 7.35222 -0.0542815 6.55442 0.142718 5.96632C0.509677 4.87085 1.51437 4.57668 2.29929 4.55484C2.68317 4.54415 3.07384 4.59187 3.43302 4.66726C3.56448 3.15662 4.03239 1.9784 5.05113 1.18188ZM5.98902 16.2273V18H14.3556V16.2273H5.98902ZM14.6538 14.7273C15.1689 13.6352 16 11.0423 16 7.29545C16 4.63372 15.4586 3.2791 14.6131 2.54291C13.7416 1.78412 12.352 1.5 10.1723 1.5C7.99174 1.5 6.71752 1.78306 5.97505 2.36357C5.33278 2.86573 4.94497 3.71477 4.89764 5.31704C5.29361 5.60959 6.02978 6.00009 6.88353 6.00009H11.8168C12.231 6.00009 12.5668 6.33588 12.5668 6.75009C12.5668 7.1643 12.231 7.50009 11.8168 7.50009H6.88353C6.17183 7.50009 5.52796 7.32515 4.99376 7.09115C5.13496 7.97724 5.40323 8.48414 5.66141 8.77318C6.01662 9.17083 6.45888 9.27282 6.88353 9.27282C7.29775 9.27282 7.63353 9.6086 7.63353 10.0228C7.63353 10.437 7.29775 10.7728 6.88353 10.7728C6.21191 10.7728 5.28381 10.6021 4.54273 9.77246C3.88791 9.03939 3.47553 7.89729 3.40398 6.20284C3.06813 6.11077 2.68471 6.04469 2.34103 6.05426C1.81954 6.06877 1.6366 6.22915 1.56504 6.44277C1.48797 6.67285 1.46201 7.17051 1.58523 7.91437C1.70344 8.628 1.94343 9.47723 2.30166 10.3522C2.99568 12.0474 4.08816 13.7315 5.47275 14.7273H14.6538Z" fill="#292927"/>
</g>
</svg>
