<svg preserveAspectRatio="xMidYMid meet" overflow="visible" style="display: block;" viewBox="0 0 24 24" fill="none" xmlns="http://www.w3.org/2000/svg">
<g transform="translate(1.2499, 2.2853)">
<path id="Vector" fill-rule="evenodd" clip-rule="evenodd" d="M0.0793439 6.01459C-0.105898 5.64411 0.0442702 5.1936 0.414754 5.00836L10.1464 0.142523C10.5265 -0.0475071 10.9738 -0.0475085 11.3539 0.142523L21.0856 5.00836C21.4561 5.1936 21.6062 5.64411 21.421 6.01459C21.2357 6.38508 20.7852 6.53524 20.4148 6.35L10.7502 1.51771L1.08557 6.35C0.715091 6.53524 0.264586 6.38507 0.0793439 6.01459ZM8.54152 5.99112C8.98057 5.38133 9.70573 4.92934 10.7502 4.92934C11.7946 4.92934 12.5198 5.38133 12.9588 5.99112C13.3703 6.56266 13.5002 7.22599 13.5002 7.67934V8.97516C14.0761 9.12932 14.5002 9.65481 14.5002 10.2793V13.0793C14.5002 13.8249 13.8958 14.4293 13.1502 14.4293H8.35017C7.60458 14.4293 7.00017 13.8249 7.00017 13.0793V10.2793C7.00017 9.65481 7.42426 9.12932 8.00017 8.97516V7.67934C8.00017 7.22599 8.13 6.56266 8.54152 5.99112ZM12.0002 8.92934V7.67934C12.0002 7.46603 11.93 7.12936 11.7415 6.86757C11.5806 6.64403 11.3057 6.42934 10.7502 6.42934C10.1946 6.42934 9.91977 6.64403 9.75882 6.86757C9.57033 7.12936 9.50017 7.46603 9.50017 7.67934V8.92934H12.0002ZM8.50017 10.4293V12.9293H13.0002V10.4293H8.50017ZM3.50017 8.67934C3.50017 8.26513 3.16438 7.92934 2.75017 7.92934C2.33595 7.92934 2.00017 8.26513 2.00017 8.67934V16.6793C2.00017 18.1981 3.23138 19.4293 4.75017 19.4293H16.7502C18.269 19.4293 19.5002 18.1981 19.5002 16.6793V8.67934C19.5002 8.26513 19.1644 7.92934 18.7502 7.92934C18.336 7.92934 18.0002 8.26513 18.0002 8.67934V16.6793C18.0002 17.3697 17.4405 17.9293 16.7502 17.9293H4.75017C4.05981 17.9293 3.50017 17.3697 3.50017 16.6793V8.67934Z" fill="#292927"/>
</g>
</svg>
