<svg preserveAspectRatio="xMidYMid meet" overflow="visible" style="display: block;" viewBox="0 0 24 24" fill="none" xmlns="http://www.w3.org/2000/svg">
<g transform="translate(1.2500, 1.2500)">
<path id="Vector" fill-rule="evenodd" clip-rule="evenodd" d="M1.5 10.75C1.5 5.64137 5.64137 1.5 10.75 1.5C15.8586 1.5 20 5.64137 20 10.75C20 15.8586 15.8586 20 10.75 20C5.64137 20 1.5 15.8586 1.5 10.75ZM10.75 0C4.81294 0 0 4.81294 0 10.75C0 16.6871 4.81294 21.5 10.75 21.5C16.6871 21.5 21.5 16.6871 21.5 10.75C21.5 4.81294 16.6871 0 10.75 0ZM10.75 6.5C9.85371 6.5 9.02899 6.7359 8.3504 7.13213C7.9927 7.34099 7.53341 7.22034 7.32455 6.86264C7.11569 6.50494 7.23634 6.04565 7.59404 5.83679C8.50445 5.3052 9.59057 5 10.75 5C13.3047 5 15.5488 6.49451 16.2666 8.66445C16.3967 9.05771 16.1834 9.48196 15.7901 9.61205C15.3969 9.74214 14.9726 9.5288 14.8425 9.13555C14.3566 7.66672 12.7543 6.5 10.75 6.5ZM6.31616 7.96259C6.70006 8.11814 6.88517 8.55544 6.72962 8.93934C6.58046 9.30745 6.5 9.70134 6.5 10.1115V14.75C6.5 15.1642 6.16421 15.5 5.75 15.5C5.33579 15.5 5 15.1642 5 14.75V10.1115C5 9.5022 5.12005 8.9174 5.3394 8.37604C5.49495 7.99215 5.93226 7.80703 6.31616 7.96259ZM15.75 10.8154C16.1642 10.8154 16.5 11.1512 16.5 11.5654V14.75C16.5 15.1642 16.1642 15.5 15.75 15.5C15.3358 15.5 15 15.1642 15 14.75V11.5654C15 11.1512 15.3358 10.8154 15.75 10.8154ZM10.75 9.5C10.0047 9.5 9.5 10.0467 9.5 10.6029V11.3971C9.5 11.8113 9.16421 12.1471 8.75 12.1471C8.33579 12.1471 8 11.8113 8 11.3971V10.6029C8 9.11247 9.28618 8 10.75 8C12.2138 8 13.5 9.11247 13.5 10.6029V15.75C13.5 16.1642 13.1642 16.5 12.75 16.5C12.3358 16.5 12 16.1642 12 15.75V10.6029C12 10.0467 11.4953 9.5 10.75 9.5ZM8.75 12.8235C9.16421 12.8235 9.5 13.1593 9.5 13.5735V15.75C9.5 16.1642 9.16421 16.5 8.75 16.5C8.33579 16.5 8 16.1642 8 15.75V13.5735C8 13.1593 8.33579 12.8235 8.75 12.8235Z" fill="#292927"/>
</g>
</svg>
