<svg preserveAspectRatio="xMidYMid meet" overflow="visible" style="display: block;" viewBox="0 0 24 24" fill="none" xmlns="http://www.w3.org/2000/svg">
<g transform="translate(0.2500, 5.2500)">
<path id="Vector" fill-rule="evenodd" clip-rule="evenodd" d="M1.5 2.75C1.5 2.05964 2.05964 1.5 2.75 1.5H17.75C18.4404 1.5 19 2.05964 19 2.75V10.75C19 11.4404 18.4404 12 17.75 12H2.75C2.05964 12 1.5 11.4404 1.5 10.75V2.75ZM2.75 0C1.23122 0 0 1.23122 0 2.75V10.75C0 12.2688 1.23122 13.5 2.75 13.5H17.75C19.2688 13.5 20.5 12.2688 20.5 10.75V2.75C20.5 1.23122 19.2688 0 17.75 0H2.75ZM23.5 4.75C23.5 4.33579 23.1642 4 22.75 4C22.3358 4 22 4.33579 22 4.75V8.75C22 9.16421 22.3358 9.5 22.75 9.5C23.1642 9.5 23.5 9.16421 23.5 8.75V4.75Z" fill="#292927"/>
</g>
</svg>
