<svg preserveAspectRatio="xMidYMid meet" overflow="visible" style="display: block;" viewBox="0 0 24 24" fill="none" xmlns="http://www.w3.org/2000/svg">
<g transform="translate(3.2500, 2.2500)">
<path id="Vector" fill-rule="evenodd" clip-rule="evenodd" d="M2.75 1.5C2.05964 1.5 1.5 2.05964 1.5 2.75V4.29985C1.87503 4.10814 2.29989 4 2.75 4H11.75C12.2001 4 12.625 4.10814 13 4.29985V2.75C13 2.05964 12.4404 1.5 11.75 1.5H2.75ZM1.5 7.75V6.75C1.5 6.05964 2.05964 5.5 2.75 5.5H11.75C12.4404 5.5 13 6.05964 13 6.75V7.75V16.75C13 17.4404 12.4404 18 11.75 18H2.75C2.05964 18 1.5 17.4404 1.5 16.75V7.75ZM14.5 16.75V7.75V6.75V2.75C14.5 1.23122 13.2688 0 11.75 0H2.75C1.23122 0 0 1.23122 0 2.75V6.75V7.75V16.75C0 18.2688 1.23122 19.5 2.75 19.5H11.75C13.2688 19.5 14.5 18.2688 14.5 16.75ZM17.5 2.75C17.5 2.33579 17.1642 2 16.75 2C16.3358 2 16 2.33579 16 2.75V6.75C16 7.16421 16.3358 7.5 16.75 7.5C17.1642 7.5 17.5 7.16421 17.5 6.75V2.75ZM7.57228 9.11437C7.77344 8.75228 7.64299 8.29568 7.2809 8.09452C6.91881 7.89336 6.46221 8.02382 6.26105 8.3859L4.59438 11.3859C4.46533 11.6182 4.46883 11.9014 4.6036 12.1305C4.73836 12.3595 4.98426 12.5001 5.25 12.5001H7.97536L6.92772 14.3859C6.72656 14.748 6.85701 15.2046 7.2191 15.4058C7.58119 15.6069 8.03779 15.4765 8.23895 15.1144L9.90562 12.1144C10.0347 11.8821 10.0312 11.5988 9.8964 11.3698C9.76164 11.1408 9.51574 11.0001 9.25 11.0001H6.52464L7.57228 9.11437Z" fill="#292927"/>
</g>
</svg>
