<svg preserveAspectRatio="xMidYMid meet" overflow="visible" style="display: block;" viewBox="0 0 24 24" fill="none" xmlns="http://www.w3.org/2000/svg">
<g transform="translate(1.2500, 2.2500)">
<path id="Vector" fill-rule="evenodd" clip-rule="evenodd" d="M1.5 6.75C1.5 3.85051 3.85051 1.5 6.75 1.5H14.75C17.6495 1.5 20 3.85051 20 6.75V12.75C20 15.6495 17.6495 18 14.75 18H6.75C3.85051 18 1.5 15.6495 1.5 12.75V6.75ZM6.75 0C3.02208 0 0 3.02208 0 6.75V12.75C0 16.4779 3.02208 19.5 6.75 19.5H14.75C18.4779 19.5 21.5 16.4779 21.5 12.75V6.75C21.5 3.02208 18.4779 0 14.75 0H6.75ZM10.75 6H13.25C14.4926 6 15.5 7.00736 15.5 8.25C15.5 9.49264 14.4926 10.5 13.25 10.5H11.5V12.75C11.5 13.1642 11.1642 13.5 10.75 13.5C10.3358 13.5 10 13.1642 10 12.75V9.7646C9.99991 9.75974 9.99986 9.75488 9.99986 9.75C9.99986 9.74512 9.99991 9.74026 10 9.7354V6.75C10 6.33579 10.3358 6 10.75 6ZM11.5 7.5V9H13.25C13.6642 9 14 8.66421 14 8.25C14 7.83579 13.6642 7.5 13.25 7.5H11.5ZM7.75 6C8.16421 6 8.5 6.33579 8.5 6.75V12.75C8.5 13.1642 8.16421 13.5 7.75 13.5C7.33579 13.5 7 13.1642 7 12.75V6.75C7 6.33579 7.33579 6 7.75 6Z" fill="#292927"/>
</g>
</svg>
