<svg preserveAspectRatio="xMidYMid meet" overflow="visible" style="display: block;" viewBox="0 0 24 24" fill="none" xmlns="http://www.w3.org/2000/svg">
<g transform="translate(2.3701, 1.5244)">
<path id="Vector" fill-rule="evenodd" clip-rule="evenodd" d="M10.2265 0.0654856C9.83354 -0.0218285 9.42625 -0.0218286 9.03333 0.0654855L1.37117 1.76819C0.482459 1.96568 -0.112102 2.81056 0.0177899 3.7198L1.88743 16.8073C1.93312 17.1271 2.0985 18.2149 3.22484 19.2011C4.33821 20.176 6.27404 20.9512 9.62989 20.9512C12.9857 20.9512 14.9216 20.176 16.0349 19.2011C17.1613 18.2149 17.3267 17.1271 17.3724 16.8073L19.242 3.7198C19.3719 2.81056 18.7773 1.96568 17.8886 1.76819L10.2265 0.0654856ZM9.35873 1.52977C9.53732 1.49008 9.72246 1.49008 9.90105 1.52977L17.5632 3.23247C17.6947 3.26168 17.775 3.38234 17.7571 3.50767L15.8863 16.6031C15.8598 16.7896 15.7671 17.4418 15.0468 18.0726C14.3029 18.724 12.774 19.4512 9.62989 19.4512C6.48574 19.4512 4.95693 18.724 4.21298 18.0726C3.49264 17.4418 3.39997 16.7896 3.37349 16.6031L1.50271 3.50767C1.48481 3.38234 1.5651 3.26168 1.69657 3.23247L9.35873 1.52977ZM6.19736 9.20193C6.47446 8.89404 6.4495 8.41983 6.14161 8.14273C5.83373 7.86564 5.35952 7.8906 5.08242 8.19848L5.07242 8.20959C4.79533 8.51747 4.82028 8.99169 5.12817 9.26878C5.43605 9.54588 5.91027 9.52092 6.18736 9.21304L6.19736 9.20193ZM10.1974 9.20193C10.4745 8.89404 10.4495 8.41983 10.1416 8.14273C9.83373 7.86564 9.35951 7.8906 9.08242 8.19848L9.07242 8.20959C8.79532 8.51747 8.82028 8.99169 9.12817 9.26878C9.43605 9.54588 9.91026 9.52092 10.1874 9.21304L10.1974 9.20193ZM14.1416 8.14273C14.4495 8.41983 14.4745 8.89404 14.1974 9.20193L14.1874 9.21304C13.9103 9.52092 13.436 9.54588 13.1282 9.26878C12.8203 8.99169 12.7953 8.51747 13.0724 8.20959L13.0824 8.19848C13.3595 7.8906 13.8337 7.86564 14.1416 8.14273Z" fill="#292927"/>
</g>
</svg>
