<svg preserveAspectRatio="xMidYMid meet" overflow="visible" style="display: block;" viewBox="0 0 24 24" fill="none" xmlns="http://www.w3.org/2000/svg">
<g transform="translate(1.2500, 2.2500)">
<path id="Vector" fill-rule="evenodd" clip-rule="evenodd" d="M1.5 6.75C1.5 3.85051 3.85051 1.5 6.75 1.5H14.75C17.6495 1.5 20 3.85051 20 6.75V12.75C20 15.6495 17.6495 18 14.75 18H6.75C3.85051 18 1.5 15.6495 1.5 12.75V6.75ZM6.75 0C3.02208 0 0 3.02208 0 6.75V12.75C0 16.4779 3.02208 19.5 6.75 19.5H14.75C18.4779 19.5 21.5 16.4779 21.5 12.75V6.75C21.5 3.02208 18.4779 0 14.75 0H6.75ZM4 12.75C4 12.9489 4.07902 13.1397 4.21967 13.2803C4.36032 13.421 4.55109 13.5 4.75 13.5H8.75C9.16421 13.5 9.5 13.1642 9.5 12.75C9.5 12.3358 9.16421 12 8.75 12H5.5V10.5H7.75C8.16421 10.5 8.5 10.1642 8.5 9.75C8.5 9.33579 8.16421 9 7.75 9H5.5V7.5H8.75C9.16421 7.5 9.5 7.16421 9.5 6.75C9.5 6.33579 9.16421 6 8.75 6H4.75C4.33579 6 4 6.33579 4 6.75V9.75V12.75ZM11.9208 6.41475C11.7356 6.04427 11.2851 5.8941 10.9146 6.07934C10.5441 6.26459 10.3939 6.71509 10.5792 7.08557L13.5792 13.0856C13.7062 13.3397 13.9659 13.5002 14.25 13.5002C14.5341 13.5002 14.7938 13.3397 14.9208 13.0856L17.9208 7.08557C18.1061 6.71509 17.9559 6.26459 17.5854 6.07934C17.2149 5.8941 16.7644 6.04427 16.5792 6.41475L14.25 11.0731L11.9208 6.41475Z" fill="#292927"/>
</g>
</svg>
