<svg preserveAspectRatio="xMidYMid meet" overflow="visible" style="display: block;" viewBox="0 0 24 24" fill="none" xmlns="http://www.w3.org/2000/svg">
<g transform="translate(1.2500, 2.2500)">
<path id="Vector" fill-rule="evenodd" clip-rule="evenodd" d="M2.75 1.5C2.05964 1.5 1.5 2.05964 1.5 2.75V14.75C1.5 15.4404 2.05964 16 2.75 16H8.75C9.16421 16 9.5 16.3358 9.5 16.75C9.5 17.1642 9.16421 17.5 8.75 17.5H2.75C1.23122 17.5 0 16.2688 0 14.75V2.75C0 1.23122 1.23122 0 2.75 0H18.75C20.2688 0 21.5 1.23122 21.5 2.75V9.60714C21.5 10.0214 21.1642 10.3571 20.75 10.3571C20.3358 10.3571 20 10.0214 20 9.60714V2.75C20 2.05964 19.4404 1.5 18.75 1.5H2.75ZM5.10687 4.36413C5.31998 4.00894 5.78068 3.89377 6.13586 4.10688L10.75 6.87536L15.3641 4.10688C15.7193 3.89377 16.18 4.00894 16.3931 4.36413C16.6062 4.71931 16.491 5.18001 16.1359 5.39312L11.1359 8.39312C10.8984 8.53563 10.6016 8.53563 10.3641 8.39312L5.36412 5.39312C5.00893 5.18001 4.89376 4.71931 5.10687 4.36413ZM14.45 14.6111C13.7289 14.6111 13.2542 14.851 12.9602 15.1504C12.6582 15.458 12.5 15.8757 12.5 16.3056C12.5 16.7354 12.6582 17.1531 12.9602 17.4607C13.2542 17.7601 13.7289 18 14.45 18C14.8642 18 15.2 18.3358 15.2 18.75C15.2 19.1642 14.8642 19.5 14.45 19.5C13.3711 19.5 12.4958 19.1287 11.8898 18.5116C11.2918 17.9025 11 17.0979 11 16.3056C11 15.5132 11.2918 14.7087 11.8898 14.0996C12.4958 13.4824 13.3711 13.1111 14.45 13.1111H18.9233L17.073 11.2836C16.7783 10.9925 16.7753 10.5177 17.0664 10.223C17.3575 9.92827 17.8323 9.92532 18.127 10.2164L21.277 13.3275C21.4197 13.4684 21.5 13.6606 21.5 13.8611C21.5 14.0616 21.4197 14.2538 21.277 14.3947L18.127 17.5058C17.8323 17.7969 17.3575 17.794 17.0664 17.4992C16.7753 17.2045 16.7783 16.7297 17.073 16.4386L18.9233 14.6111H14.45Z" fill="#292927"/>
</g>
</svg>
