<svg preserveAspectRatio="xMidYMid meet" overflow="visible" style="display: block;" viewBox="0 0 24 24" fill="none" xmlns="http://www.w3.org/2000/svg">
<g transform="translate(0.2500, 7.7500)">
<path id="Vector" fill-rule="evenodd" clip-rule="evenodd" d="M1.5 4.25C1.5 2.73122 2.73122 1.5 4.25 1.5C4.83527 1.5 5.37579 1.68199 5.82093 1.99248C6.16066 2.22945 6.62817 2.14615 6.86514 1.80642C7.10211 1.46669 7.01881 0.999176 6.67907 0.762206C5.99038 0.281823 5.15198 0 4.25 0C1.90279 0 0 1.90279 0 4.25C0 6.59721 1.90279 8.5 4.25 8.5C6.58777 8.5 8.5 6.67359 8.5 4.25C8.5 3.83579 8.16421 3.5 7.75 3.5H4.75C4.33579 3.5 4 3.83579 4 4.25C4 4.66421 4.33579 5 4.75 5H6.90271C6.58487 6.18451 5.5239 7 4.25 7C2.73122 7 1.5 5.76878 1.5 4.25ZM17 2.5C17 1.11929 18.1193 0 19.5 0H21.75C22.1642 0 22.5 0.335786 22.5 0.75C22.5 1.16421 22.1642 1.5 21.75 1.5H19.5C18.9477 1.5 18.5 1.94772 18.5 2.5C18.5 3.05228 18.9477 3.5 19.5 3.5H21C22.3807 3.5 23.5 4.61929 23.5 6C23.5 7.38071 22.3807 8.5 21 8.5H17.75C17.3358 8.5 17 8.16421 17 7.75C17 7.33579 17.3358 7 17.75 7H21C21.5523 7 22 6.55228 22 6C22 5.44772 21.5523 5 21 5H19.5C18.1193 5 17 3.88071 17 2.5ZM14.0663 1.6591C13.8217 1.51526 13.4921 1.50008 13.1071 1.50008H11V4.20008H13.1071C13.4921 4.20008 13.8217 4.1849 14.0663 4.04107C14.2245 3.94802 14.5 3.71073 14.5 2.85008C14.5 1.98943 14.2245 1.75215 14.0663 1.6591ZM11 5.70008H13.1071L13.1436 5.70012C13.4889 5.70066 14.2013 5.70177 14.8266 5.3341C15.5612 4.90215 16 4.08943 16 2.85008C16 1.61073 15.5612 0.798017 14.8266 0.366065C14.2013 -0.0016076 13.4889 -0.000495315 13.1436 4.3809e-05L13.1071 8.26116e-05H10.25C9.83579 8.26116e-05 9.5 0.335869 9.5 0.750083V7.75008C9.5 8.1643 9.83579 8.50008 10.25 8.50008C10.6642 8.50008 11 8.1643 11 7.75008V5.70008Z" fill="#292927"/>
</g>
</svg>
