<svg preserveAspectRatio="xMidYMid meet" overflow="visible" style="display: block;" viewBox="0 0 24 24" fill="none" xmlns="http://www.w3.org/2000/svg">
<g transform="translate(3.7500, 3.2500)">
<path id="Vector" fill-rule="evenodd" clip-rule="evenodd" d="M0.75 0C1.16421 0 1.5 0.335786 1.5 0.75V2.75C1.5 3.16421 1.16421 3.5 0.75 3.5C0.335786 3.5 0 3.16421 0 2.75V0.75C0 0.335786 0.335786 0 0.75 0ZM4.75 0C5.16421 0 5.5 0.335786 5.5 0.75V6.75C5.5 7.16421 5.16421 7.5 4.75 7.5C4.33579 7.5 4 7.16421 4 6.75V0.75C4 0.335786 4.33579 0 4.75 0ZM13.5 0.75C13.5 0.335786 13.1642 0 12.75 0C12.3358 0 12 0.335786 12 0.75V1.75C12 2.16421 12.3358 2.5 12.75 2.5C13.1642 2.5 13.5 2.16421 13.5 1.75V0.75ZM0.75 5C1.16421 5 1.5 5.33579 1.5 5.75V11.75C1.5 12.1642 1.16421 12.5 0.75 12.5C0.335786 12.5 0 12.1642 0 11.75V5.75C0 5.33579 0.335786 5 0.75 5ZM1.5 14.25C1.5 13.8358 1.16421 13.5 0.75 13.5C0.335786 13.5 0 13.8358 0 14.25V14.75C0 15.1642 0.335786 15.5 0.75 15.5C1.16421 15.5 1.5 15.1642 1.5 14.75V14.25ZM4.75 13.5C5.16421 13.5 5.5 13.8358 5.5 14.25V14.75C5.5 15.1642 5.16421 15.5 4.75 15.5C4.33579 15.5 4 15.1642 4 14.75V14.25C4 13.8358 4.33579 13.5 4.75 13.5ZM5.5 9.75C5.5 9.33579 5.16421 9 4.75 9C4.33579 9 4 9.33579 4 9.75V11.75C4 12.1642 4.33579 12.5 4.75 12.5C5.16421 12.5 5.5 12.1642 5.5 11.75V9.75ZM8.75 8C9.16421 8 9.5 8.33579 9.5 8.75V10.75C9.5 11.1642 9.16421 11.5 8.75 11.5C8.33579 11.5 8 11.1642 8 10.75V8.75C8 8.33579 8.33579 8 8.75 8ZM9.5 0.75C9.5 0.335786 9.16421 0 8.75 0C8.33579 0 8 0.335786 8 0.75V5.75C8 6.16421 8.33579 6.5 8.75 6.5C9.16421 6.5 9.5 6.16421 9.5 5.75V0.75ZM12.75 4C13.1642 4 13.5 4.33579 13.5 4.75V8.75C13.5 9.16421 13.1642 9.5 12.75 9.5C12.3358 9.5 12 9.16421 12 8.75V4.75C12 4.33579 12.3358 4 12.75 4ZM10.2803 14.2197C9.98744 13.9268 9.51257 13.9268 9.21968 14.2197C8.92678 14.5126 8.92678 14.9874 9.21968 15.2803L11.2197 17.2803C11.5126 17.5732 11.9874 17.5732 12.2803 17.2803L16.2803 13.2803C16.5732 12.9874 16.5732 12.5126 16.2803 12.2197C15.9874 11.9268 15.5126 11.9268 15.2197 12.2197L11.75 15.6893L10.2803 14.2197Z" fill="#292927"/>
</g>
</svg>
