<svg preserveAspectRatio="xMidYMid meet" overflow="visible" style="display: block;" viewBox="0 0 24 24" fill="none" xmlns="http://www.w3.org/2000/svg">
<g transform="translate(4.2500, 2.2500)">
<path id="Vector" fill-rule="evenodd" clip-rule="evenodd" d="M1.5 1.5H5.75C6.16421 1.5 6.5 1.16421 6.5 0.75C6.5 0.335786 6.16421 0 5.75 0H1.35C0.604416 0 0 0.604416 0 1.35V18.15C0 18.8956 0.604415 19.5 1.35 19.5H5.75C6.16421 19.5 6.5 19.1642 6.5 18.75C6.5 18.3358 6.16421 18 5.75 18H1.5V1.5ZM6 4.75C6 4.33579 6.33579 4 6.75 4H8.75C9.16421 4 9.5 4.33579 9.5 4.75C9.5 5.16421 9.16421 5.5 8.75 5.5H6.75C6.33579 5.5 6 5.16421 6 4.75ZM6.75 9C6.33579 9 6 9.33579 6 9.75C6 10.1642 6.33579 10.5 6.75 10.5H8.75C9.16421 10.5 9.5 10.1642 9.5 9.75C9.5 9.33579 9.16421 9 8.75 9H6.75ZM6 14.75C6 14.3358 6.33579 14 6.75 14H8.75C9.16421 14 9.5 14.3358 9.5 14.75C9.5 15.1642 9.16421 15.5 8.75 15.5H6.75C6.33579 15.5 6 15.1642 6 14.75ZM9.75 1.5H14V18H9.75C9.33579 18 9 18.3358 9 18.75C9 19.1642 9.33579 19.5 9.75 19.5H14.15C14.8956 19.5 15.5 18.8956 15.5 18.15V1.35C15.5 0.604416 14.8956 0 14.15 0H9.75C9.33579 0 9 0.335786 9 0.75C9 1.16421 9.33579 1.5 9.75 1.5Z" fill="#292927"/>
</g>
</svg>
