<svg preserveAspectRatio="xMidYMid meet" overflow="visible" style="display: block;" viewBox="0 0 24 24" fill="none" xmlns="http://www.w3.org/2000/svg">
<g transform="translate(2.2500, 4.2500)">
<path id="Vector" fill-rule="evenodd" clip-rule="evenodd" d="M2.75 1.5C2.05964 1.5 1.5 2.05964 1.5 2.75V12.75C1.5 13.4404 2.05964 14 2.75 14H16.75C17.4404 14 18 13.4404 18 12.75V2.75C18 2.05964 17.4404 1.5 16.75 1.5H2.75ZM0 2.75C0 1.23122 1.23122 0 2.75 0H16.75C18.2688 0 19.5 1.23122 19.5 2.75V12.75C19.5 14.2688 18.2688 15.5 16.75 15.5H2.75C1.23122 15.5 0 14.2688 0 12.75V2.75ZM7.21967 5.21967C7.51256 4.92678 7.98744 4.92678 8.28033 5.21967L9.87132 6.81066L11.4623 5.21967C11.7552 4.92678 12.2301 4.92678 12.523 5.21967C12.8159 5.51256 12.8159 5.98744 12.523 6.28033L10.932 7.87132L12.523 9.46231C12.8159 9.7552 12.8159 10.2301 12.523 10.523C12.2301 10.8159 11.7552 10.8159 11.4623 10.523L9.87132 8.93198L8.28033 10.523C7.98744 10.8159 7.51256 10.8159 7.21967 10.523C6.92678 10.2301 6.92678 9.7552 7.21967 9.46231L8.81066 7.87132L7.21967 6.28033C6.92678 5.98744 6.92678 5.51256 7.21967 5.21967ZM3.75 3C3.33579 3 3 3.33579 3 3.75C3 4.16421 3.33579 4.5 3.75 4.5H4.75C5.16421 4.5 5.5 4.16421 5.5 3.75C5.5 3.33579 5.16421 3 4.75 3H3.75Z" fill="#292927"/>
</g>
</svg>
