<svg preserveAspectRatio="xMidYMid meet" overflow="visible" style="display: block;" viewBox="0 0 24 24" fill="none" xmlns="http://www.w3.org/2000/svg">
<g transform="translate(2.1000, 2.2500)">
<path id="Vector" fill-rule="evenodd" clip-rule="evenodd" d="M10.75 0H3.75001C3.39436 0 3.08762 0.249777 3.01556 0.598046L0.0155612 15.098C-0.0301394 15.3189 0.0260016 15.5487 0.168429 15.7236C0.310856 15.8985 0.524442 16 0.750007 16H4.35308L3.81555 18.598C3.76985 18.8189 3.82599 19.0487 3.96842 19.2236C4.11084 19.3985 4.32443 19.5 4.54999 19.5H9.04999C9.4026 19.5 9.70759 19.2544 9.78276 18.9099L10.854 14H14.55C16.2535 14 17.5863 13.3537 18.4856 12.342C19.3726 11.3441 19.8 10.0348 19.8 8.75C19.8 7.4652 19.3726 6.15587 18.4856 5.15798C17.8125 4.40075 16.8965 3.84824 15.7641 3.6182C15.5516 2.90463 15.1941 2.23012 14.6856 1.65798C13.7863 0.646276 12.4535 0 10.75 0ZM14.1185 3.5C13.9736 3.19202 13.7884 2.90651 13.5644 2.65452C12.9637 1.97872 12.0465 1.5 10.75 1.5H4.36072L1.67106 14.5H4.646L4.98281 12.9563L6.81555 4.09805C6.8876 3.74978 7.19435 3.5 7.54999 3.5H14.1185ZM7.33312 9L8.16071 5H14.4928C14.4976 5.08305 14.5 5.16643 14.5 5.25C14.5 6.2152 14.1774 7.15587 13.5644 7.84548C12.9637 8.52128 12.0465 9 10.75 9H7.33312ZM6.45006 13.2681L7.05401 10.5H10.75C12.4535 10.5 13.7863 9.85372 14.6856 8.84202C15.5726 7.84413 16 6.5348 16 5.25C16 5.24565 16 5.2413 16 5.23695C16.5677 5.44163 17.0186 5.7654 17.3644 6.15452C17.9774 6.84413 18.3 7.7848 18.3 8.75C18.3 9.7152 17.9774 10.6559 17.3644 11.3455C16.7637 12.0213 15.8465 12.5 14.55 12.5H10.25C9.89742 12.5 9.5924 12.7456 9.51723 13.0901L8.44599 18H5.47105L6.45006 13.2681Z" fill="#292927"/>
</g>
</svg>
