<svg preserveAspectRatio="xMidYMid meet" overflow="visible" style="display: block;" viewBox="0 0 24 24" fill="none" xmlns="http://www.w3.org/2000/svg">
<g transform="translate(1.2500, 3.7502)">
<path id="Vector" fill-rule="evenodd" clip-rule="evenodd" d="M21.4465 3.02844C21.4099 3.12008 21.3545 3.20596 21.2803 3.28016L19.2803 5.28014C18.9875 5.57304 18.5126 5.57305 18.2197 5.28016C17.9268 4.98726 17.9271 4.51204 18.22 4.21915C18.22 4.21916 18.2197 4.2195 18.75 4.74983L18.22 4.21915L18.9053 3.53384C17.7766 3.59064 16.5451 3.74222 15.3688 4.14657C13.6088 4.75158 11.9818 5.91892 11.0525 8.24982C11.9818 10.5807 13.6088 11.7481 15.3688 12.3531C16.5451 12.7574 17.7766 12.909 18.9053 12.9658L18.22 12.2805L18.75 11.7498C18.2197 12.2801 18.22 12.2805 18.22 12.2805C17.9271 11.9876 17.9268 11.5124 18.2197 11.2195C18.5126 10.9266 18.9875 10.9266 19.2803 11.2195L21.2803 13.2195C21.3545 13.2937 21.4099 13.3796 21.4465 13.4712C21.4765 13.546 21.4947 13.6268 21.499 13.7112C21.4997 13.724 21.5 13.7369 21.5 13.7498C21.5 13.8545 21.4786 13.9542 21.4398 14.0447C21.408 14.1192 21.3635 14.1897 21.3064 14.2528C21.297 14.2632 21.2873 14.2733 21.2773 14.2831L19.2807 16.2798C18.9878 16.5727 18.5126 16.573 18.2197 16.2801C17.9268 15.9872 17.9268 15.5124 18.2197 15.2195L18.9682 14.4709C17.7205 14.4151 16.277 14.2514 14.8812 13.7716C13.1162 13.1649 11.4218 12.0509 10.2628 10.0531C9.19254 12.0175 7.72729 13.1404 6.14924 13.7604C4.26659 14.5 2.27249 14.4999 0.795132 14.4998L0.750002 14.4998C0.335789 14.4998 1.90735e-06 14.164 0 13.7498C-1.90735e-06 13.3356 0.335785 12.9998 0.749998 12.9998C2.26827 12.9998 4.00265 12.9921 5.60076 12.3643C7.09509 11.7772 8.51736 10.626 9.44839 8.24982C8.51736 5.87364 7.09509 4.72244 5.60076 4.13539C4.00265 3.50756 2.26827 3.49983 0.749998 3.49982C0.335785 3.49982 -1.90735e-06 3.16403 0 2.74982C1.90735e-06 2.33561 0.335789 1.99982 0.750002 1.99982L0.795132 1.99982C2.27249 1.99975 4.26659 1.99965 6.14924 2.73926C7.72729 3.3592 9.19253 4.48213 10.2628 6.44658C11.4218 4.44871 13.1162 3.33475 14.8812 2.72804C16.277 2.24822 17.7205 2.08453 18.9682 2.02869L18.2197 1.28016C17.9268 0.987263 17.9268 0.512389 18.2197 0.219496C18.5126 -0.0733972 18.9878 -0.07305 19.2807 0.219843L21.2774 2.21652C21.2872 2.22625 21.2968 2.23625 21.306 2.2465C21.4266 2.37958 21.5 2.55612 21.5 2.74981C21.5 2.84827 21.481 2.9423 21.4465 3.02844Z" fill="#292927"/>
</g>
</svg>
