<svg preserveAspectRatio="xMidYMid meet" overflow="visible" style="display: block;" viewBox="0 0 24 24" fill="none" xmlns="http://www.w3.org/2000/svg">
<g transform="translate(0.0000, 9.3061) scale(0.979592)">
<path id="Vector" fill-rule="evenodd" clip-rule="evenodd" d="M0.0571123 0.462987C0.173198 0.182732 0.446675 0 0.750022 0H4.75002C4.94893 0 5.1397 0.0790176 5.28035 0.21967L7.06068 2H21.9394L21.2197 1.28033C20.9268 0.987437 20.9268 0.512563 21.2197 0.21967C21.5126 -0.0732233 21.9875 -0.0732233 22.2804 0.21967L24.2804 2.21967C24.5732 2.51256 24.5732 2.98744 24.2804 3.28033L22.2804 5.28033C21.9875 5.57322 21.5126 5.57322 21.2197 5.28033C20.9268 4.98744 20.9268 4.51256 21.2197 4.21967L21.9394 3.5H7.06068L5.28035 5.28033C5.1397 5.42098 4.94893 5.5 4.75002 5.5H0.750022C0.446675 5.5 0.173198 5.31727 0.0571123 5.03701C-0.0589735 4.75676 0.00519335 4.43417 0.219692 4.21967L1.68936 2.75L0.219692 1.28033C0.00519335 1.06583 -0.0589735 0.743243 0.0571123 0.462987ZM5.68936 2.75L4.43936 1.5H2.56068L3.28035 2.21967C3.57325 2.51256 3.57325 2.98744 3.28035 3.28033L2.56068 4H4.43936L5.68936 2.75Z" fill="#292927"/>
</g>
</svg>
