<svg preserveAspectRatio="xMidYMid meet" overflow="visible" style="display: block;" viewBox="0 0 24 24" fill="none" xmlns="http://www.w3.org/2000/svg">
<g transform="translate(2.2500, 2.2500)">
<path id="Vector" fill-rule="evenodd" clip-rule="evenodd" d="M12 6V1.5H1.5V12H6V7.35C6 6.60442 6.60442 6 7.35 6H12ZM13.5 6V1.35C13.5 0.604416 12.8956 0 12.15 0H1.35C0.604416 0 0 0.604416 0 1.35V12.15C0 12.8956 0.604416 13.5 1.35 13.5H6V14.25C6 14.6642 6.33579 15 6.75 15C7.16421 15 7.5 14.6642 7.5 14.25V13.5H12.15C12.8956 13.5 13.5 12.8956 13.5 12.15V7.5H14.25C14.6642 7.5 15 7.16421 15 6.75C15 6.33579 14.6642 6 14.25 6H13.5ZM12 7.5H7.5V12H12V7.5ZM15 18.75C15 19.1642 14.6642 19.5 14.25 19.5H11.25C10.8358 19.5 10.5 19.1642 10.5 18.75C10.5 18.3358 10.8358 18 11.25 18H14.25C14.6642 18 15 18.3358 15 18.75ZM18 14.25C18 14.6642 18.3358 15 18.75 15C19.1642 15 19.5 14.6642 19.5 14.25V11.25C19.5 10.8358 19.1642 10.5 18.75 10.5C18.3358 10.5 18 10.8358 18 11.25V14.25ZM18 18H17.25C16.8358 18 16.5 18.3358 16.5 18.75C16.5 19.1642 16.8358 19.5 17.25 19.5H18.15C18.8956 19.5 19.5 18.8956 19.5 18.15V17.25C19.5 16.8358 19.1642 16.5 18.75 16.5C18.3358 16.5 18 16.8358 18 17.25V18ZM8.25 19.5C8.66421 19.5 9 19.1642 9 18.75C9 18.3358 8.66421 18 8.25 18H7.5V17.25C7.5 16.8358 7.16421 16.5 6.75 16.5C6.33579 16.5 6 16.8358 6 17.25V18.15C6 18.8956 6.60442 19.5 7.35 19.5H8.25ZM18.75 9C18.3358 9 18 8.66421 18 8.25V7.5H17.25C16.8358 7.5 16.5 7.16421 16.5 6.75C16.5 6.33579 16.8358 6 17.25 6H18.15C18.8956 6 19.5 6.60442 19.5 7.35V8.25C19.5 8.66421 19.1642 9 18.75 9Z" fill="#292927"/>
</g>
</svg>
