<svg preserveAspectRatio="xMidYMid meet" overflow="visible" style="display: block;" viewBox="0 0 24 24" fill="none" xmlns="http://www.w3.org/2000/svg">
<g transform="translate(5.2500, 3.2500)">
<path id="Vector" fill-rule="evenodd" clip-rule="evenodd" d="M2.94135 1.81177C3.6804 0.785316 4.90556 0 6.75 0C8.59444 0 9.8196 0.785316 10.5587 1.81177C11.2702 2.79998 11.5 3.96332 11.5 4.75V8H12.15C12.8956 8 13.5 8.60442 13.5 9.35V16.15C13.5 16.8956 12.8956 17.5 12.15 17.5H1.35C0.604416 17.5 0 16.8956 0 16.15V9.35C0 8.60442 0.604416 8 1.35 8H2V4.75C2 3.96332 2.22984 2.79998 2.94135 1.81177ZM3.5 8H10V4.75C10 4.20335 9.82984 3.36668 9.34135 2.68823C8.8804 2.04802 8.10556 1.5 6.75 1.5C5.39444 1.5 4.6196 2.04802 4.15865 2.68823C3.67016 3.36668 3.5 4.20335 3.5 4.75V8ZM1.5 9.5V16H12V9.5H1.5Z" fill="#292927"/>
</g>
</svg>
