<svg preserveAspectRatio="xMidYMid meet" overflow="visible" style="display: block;" viewBox="0 0 24 24" fill="none" xmlns="http://www.w3.org/2000/svg">
<g transform="translate(2.2500, 1.2500)">
<path id="Vector" fill-rule="evenodd" clip-rule="evenodd" d="M9.75 9.5H0.75C0.335786 9.5 0 9.16421 0 8.75C0 8.33579 0.335786 8 0.75 8H7.93934L5.71967 5.78033C5.42678 5.48744 5.42678 5.01256 5.71967 4.71967C6.01256 4.42678 6.48744 4.42678 6.78033 4.71967L9 6.93934V0.75C9 0.335787 9.33579 0 9.75 0C10.1642 0 10.5 0.335787 10.5 0.75V6.93934L12.7197 4.71967C13.0126 4.42678 13.4874 4.42678 13.7803 4.71967C14.0732 5.01256 14.0732 5.48744 13.7803 5.78033L11.5607 8H18.75C19.1642 8 19.5 8.33579 19.5 8.75C19.5 9.16421 19.1642 9.5 18.75 9.5H9.75ZM5.71967 15.7197L7.93934 13.5H0.75C0.335786 13.5 0 13.1642 0 12.75C0 12.3358 0.335786 12 0.75 12H9.75H18.75C19.1642 12 19.5 12.3358 19.5 12.75C19.5 13.1642 19.1642 13.5 18.75 13.5H11.5607L13.7803 15.7197C14.0732 16.0126 14.0732 16.4874 13.7803 16.7803C13.4874 17.0732 13.0126 17.0732 12.7197 16.7803L10.5 14.5607V20.75C10.5 21.1642 10.1642 21.5 9.75 21.5C9.33579 21.5 9 21.1642 9 20.75V14.5607L6.78033 16.7803C6.48744 17.0732 6.01256 17.0732 5.71967 16.7803C5.42678 16.4874 5.42678 16.0126 5.71967 15.7197Z" fill="#292927"/>
</g>
</svg>
