<svg preserveAspectRatio="xMidYMid meet" overflow="visible" style="display: block;" viewBox="0 0 24 24" fill="none" xmlns="http://www.w3.org/2000/svg">
<g transform="translate(1.2500, 2.2500)">
<path id="Vector" fill-rule="evenodd" clip-rule="evenodd" d="M7.75 0C5.67893 0 4 1.67893 4 3.75V10.0589C1.73301 10.4185 0 12.3818 0 14.75C0 17.3734 2.12665 19.5 4.75 19.5H10.75C11.1642 19.5 11.5 19.1642 11.5 18.75C11.5 18.3358 11.1642 18 10.75 18H4.75C2.95507 18 1.5 16.5449 1.5 14.75C1.5 12.9551 2.95507 11.5 4.75 11.5H13.2859C12.4884 12.3497 12 13.4928 12 14.75C12 17.3734 14.1266 19.5 16.75 19.5C19.3734 19.5 21.5 17.3734 21.5 14.75V11.75V3.75C21.5 1.67893 19.8211 0 17.75 0H7.75ZM20 11.75V3.75C20 2.50736 18.9926 1.5 17.75 1.5H7.75C6.50736 1.5 5.5 2.50736 5.5 3.75V10H16.75C17.1642 10 17.5 10.3358 17.5 10.75C17.5 11.1642 17.1642 11.5 16.75 11.5C14.9551 11.5 13.5 12.9551 13.5 14.75C13.5 16.5449 14.9551 18 16.75 18C18.5449 18 20 16.5449 20 14.75V11.75Z" fill="#292927"/>
</g>
</svg>
