<svg preserveAspectRatio="xMidYMid meet" overflow="visible" style="display: block;" viewBox="0 0 24 24" fill="none" xmlns="http://www.w3.org/2000/svg">
<g transform="translate(0.0000, 0.0001) scale(0.702432)">
<path id="Vector" fill-rule="evenodd" clip-rule="evenodd" d="M17.917 32.5C18.6073 32.5 19.167 31.9404 19.167 31.25C19.167 30.5596 18.6073 30 17.917 30H2.50031V23.7409L12.9021 19.283L21.5664 23.2213C22.1949 23.507 22.9359 23.2291 23.2216 22.6006C23.5073 21.9721 23.2294 21.231 22.6009 20.9454L13.4342 16.7787C13.1142 16.6332 12.7477 16.6293 12.4246 16.7677L2.50031 21.021V2.5H30.0003V17.9167C30.0003 18.607 30.5599 19.1667 31.2503 19.1667C31.9407 19.1667 32.5003 18.607 32.5003 17.9167V2.25C32.5003 1.00736 31.4929 0 30.2503 0H2.25031C1.00767 0 0.000305999 1.00736 0.000305999 2.25V22.8897C-0.000101147 22.908 -0.000102852 22.9264 0.000305999 22.9448V30.25C0.000305999 31.4926 1.00766 32.5 2.25031 32.5H17.917ZM22.917 7.5C24.0676 7.5 25.0003 8.43274 25.0003 9.58333C25.0003 10.7339 24.0676 11.6667 22.917 11.6667C21.7664 11.6667 20.8336 10.7339 20.8336 9.58333C20.8336 8.43274 21.7664 7.5 22.917 7.5ZM27.5003 9.58333C27.5003 7.05203 25.4483 5 22.917 5C20.3857 5 18.3336 7.05203 18.3336 9.58333C18.3336 12.1146 20.3857 14.1667 22.917 14.1667C25.4483 14.1667 27.5003 12.1146 27.5003 9.58333ZM29.167 22.9167C29.167 22.2263 28.6073 21.6667 27.917 21.6667C27.2266 21.6667 26.667 22.2263 26.667 22.9167V26.6667H22.917C22.2266 26.6667 21.667 27.2263 21.667 27.9167C21.667 28.607 22.2266 29.1667 22.917 29.1667H26.667V32.9167C26.667 33.607 27.2266 34.1667 27.917 34.1667C28.6073 34.1667 29.167 33.607 29.167 32.9167V29.1667H32.917C33.6073 29.1667 34.167 28.607 34.167 27.9167C34.167 27.2263 33.6073 26.6667 32.917 26.6667H29.167V22.9167Z" fill="#292927"/>
</g>
</svg>
