<svg preserveAspectRatio="xMidYMid meet" overflow="visible" style="display: block;" viewBox="0 0 24 24" fill="none" xmlns="http://www.w3.org/2000/svg">
<g transform="translate(2.7500, 2.2500)">
<path id="Vector" fill-rule="evenodd" clip-rule="evenodd" d="M7.75 1.5C5.95507 1.5 4.5 2.95507 4.5 4.75C4.5 6.54493 5.95507 8 7.75 8C9.54493 8 11 6.54493 11 4.75C11 2.95507 9.54493 1.5 7.75 1.5ZM12.5 4.75C12.5 6.30039 11.7572 7.6773 10.6081 8.54426C10.7652 8.60664 10.9199 8.67401 11.0718 8.74618C11.446 8.92392 11.6052 9.37131 11.4274 9.74545C11.2497 10.1196 10.8023 10.2788 10.4282 10.1011C9.61736 9.7159 8.70994 9.5 7.75 9.5C4.29822 9.5 1.5 12.2982 1.5 15.75V16.75C1.5 17.1642 1.16421 17.5 0.75 17.5C0.335786 17.5 0 17.1642 0 16.75V15.75C0 12.4793 2.02613 9.68175 4.89172 8.54412C3.74271 7.67715 3 6.30031 3 4.75C3 2.12665 5.12665 0 7.75 0C10.3734 0 12.5 2.12665 12.5 4.75ZM7.01021 12.8733C6.96358 12.5935 7.07876 12.3114 7.30786 12.1442C7.53696 11.977 7.84079 11.9533 8.09302 12.083L11.0586 13.6082L12.1738 12.2699C12.3163 12.0989 12.5274 12 12.75 12C12.9726 12 13.1837 12.0989 13.3262 12.2699L14.4414 13.6082L17.407 12.083C17.6592 11.9533 17.963 11.977 18.1921 12.1442C18.4212 12.3114 18.5364 12.5935 18.4898 12.8733L17.4898 18.8733C17.4295 19.2349 17.1166 19.5 16.75 19.5H8.75001C8.38338 19.5 8.07048 19.2349 8.01021 18.8733L7.01021 12.8733ZM10.907 15.217L8.73537 14.1001L9.38535 18H16.1147L16.7646 14.1001L14.593 15.217C14.2807 15.3776 13.8987 15.3 13.6738 15.0301L12.75 13.9215L11.8262 15.0301C11.6013 15.3 11.2193 15.3776 10.907 15.217Z" fill="#292927"/>
</g>
</svg>
