<svg preserveAspectRatio="xMidYMid meet" overflow="visible" style="display: block;" viewBox="0 0 24 24" fill="none" xmlns="http://www.w3.org/2000/svg">
<g transform="translate(0.2500, 5.7500)">
<path id="Vector" fill-rule="evenodd" clip-rule="evenodd" d="M1.12347 9.11549C0.466431 9.3675 0 10.0043 0 10.75C0 11.7165 0.783502 12.5 1.75 12.5C2.7165 12.5 3.5 11.7165 3.5 10.75C3.5 10.1017 3.1475 9.53579 2.62373 9.23339C3.34733 4.84626 7.15788 1.5 11.75 1.5C16.3421 1.5 20.1527 4.84626 20.8763 9.23339C20.3525 9.53579 20 10.1017 20 10.75C20 11.7165 20.7835 12.5 21.75 12.5C22.7165 12.5 23.5 11.7165 23.5 10.75C23.5 10.0043 23.0336 9.36751 22.3765 9.1155C21.5892 3.95415 17.1314 0 11.75 0C6.36863 0 1.9108 3.95415 1.12347 9.11549Z" fill="#292927"/>
</g>
</svg>
