<svg preserveAspectRatio="xMidYMid meet" overflow="visible" style="display: block;" viewBox="0 0 24 24" fill="none" xmlns="http://www.w3.org/2000/svg">
<g transform="translate(6.2500, 2.2498)">
<path id="Vector" fill-rule="evenodd" clip-rule="evenodd" d="M9.08337 0C9.49759 0 9.83337 0.335786 9.83337 0.75V3.60639C10.8135 4.02691 11.5 5.00067 11.5 6.13477V8.904C11.5 10.4228 10.2688 11.654 8.75 11.654H6.5V18.7505C6.5 19.1647 6.16421 19.5005 5.75 19.5005C5.33579 19.5005 5 19.1647 5 18.7505V11.654H2.75C1.23122 11.654 0 10.4228 0 8.904V6.13477C0 5.00067 0.686507 4.02691 1.66663 3.60639V0.75C1.66663 0.335786 2.00241 0 2.41663 0C2.83084 0 3.16663 0.335786 3.16663 0.75V3.38477H8.33337V0.75C8.33337 0.335786 8.66916 0 9.08337 0ZM1.5 6.13477C1.5 5.44441 2.05964 4.88477 2.75 4.88477H8.75C9.44036 4.88477 10 5.44441 10 6.13477V8.904C10 9.59435 9.44036 10.154 8.75 10.154H2.75C2.05964 10.154 1.5 9.59435 1.5 8.904V6.13477Z" fill="#292927"/>
</g>
</svg>
