<svg preserveAspectRatio="xMidYMid meet" overflow="visible" style="display: block;" viewBox="0 0 24 24" fill="none" xmlns="http://www.w3.org/2000/svg">
<g transform="translate(2.2500, 2.2500)">
<path id="Vector" fill-rule="evenodd" clip-rule="evenodd" d="M18 18V1.5H1.5V18H18ZM19.5 18.15C19.5 18.8956 18.8956 19.5 18.15 19.5H1.35C0.604414 19.5 0 18.8956 0 18.15V1.35C0 0.604414 0.604418 0 1.35 0H18.15C18.8956 0 19.5 0.604418 19.5 1.35V18.15ZM12.0854 14.421C11.7149 14.6062 11.2644 14.4561 11.0792 14.0856L9.75 11.4272L8.42083 14.0856C8.23559 14.4561 7.78509 14.6062 7.4146 14.421C7.04412 14.2357 6.89395 13.7852 7.07919 13.4148L8.91147 9.75019L7.07917 6.08557C6.89393 5.71509 7.04409 5.26459 7.41458 5.07934C7.78506 4.8941 8.23557 5.04427 8.42081 5.41475L9.75 8.07314L11.0792 5.41475C11.2644 5.04427 11.7149 4.8941 12.0854 5.07934C12.4559 5.26459 12.6061 5.71509 12.4208 6.08557L10.5885 9.75019L12.4208 13.4148C12.6061 13.7852 12.4559 14.2357 12.0854 14.421Z" fill="#292927"/>
</g>
</svg>
