<svg preserveAspectRatio="xMidYMid meet" overflow="visible" style="display: block;" viewBox="0 0 24 24" fill="none" xmlns="http://www.w3.org/2000/svg">
<g transform="translate(1.2500, 2.2500)">
<path id="Vector" fill-rule="evenodd" clip-rule="evenodd" d="M0 2.75C0 1.23122 1.23122 0 2.75 0H18.75C20.2688 0 21.5 1.23122 21.5 2.75V16.75C21.5 18.2688 20.2688 19.5 18.75 19.5H2.75C1.23122 19.5 0 18.2688 0 16.75V2.75ZM2.75 1.5C2.05964 1.5 1.5 2.05964 1.5 2.75V9H4V1.5H2.75ZM5.5 1.5V18H18.75C19.4404 18 20 17.4404 20 16.75V2.75C20 2.05964 19.4404 1.5 18.75 1.5H5.5ZM4 18V10.5H1.5V16.75C1.5 17.4404 2.05964 18 2.75 18H4ZM14.8195 8.76192C15.089 9.07641 15.0526 9.54989 14.7381 9.81946L11.2381 12.8195C10.9236 13.089 10.4501 13.0526 10.1806 12.7381C9.91101 12.4236 9.94743 11.9501 10.2619 11.6806L13.7619 8.68057C14.0764 8.41101 14.5499 8.44743 14.8195 8.76192ZM16.3175 8.25075C16.5946 7.94287 16.5696 7.46865 16.2617 7.19156C15.9538 6.91446 15.4796 6.93942 15.2025 7.24731L15.1925 7.25842C14.9154 7.5663 14.9404 8.04052 15.2483 8.31761C15.5562 8.59471 16.0304 8.56975 16.3075 8.26186L16.3175 8.25075Z" fill="#292927"/>
</g>
</svg>
