<svg preserveAspectRatio="xMidYMid meet" overflow="visible" style="display: block;" viewBox="0 0 24 24" fill="none" xmlns="http://www.w3.org/2000/svg">
<g transform="translate(2.7500, 0.2500)">
<path id="Vector" fill-rule="evenodd" clip-rule="evenodd" d="M1 3.33159C0.408763 3.05073 0 2.4481 0 1.75C0 0.783502 0.783502 0 1.75 0C2.7165 0 3.5 0.783502 3.5 1.75C3.5 2.4481 3.09124 3.05073 2.5 3.33159V20.1684C2.86392 20.3413 3.15871 20.6361 3.33159 21H8.16841C8.44927 20.4088 9.0519 20 9.75 20C10.7165 20 11.5 20.7835 11.5 21.75C11.5 22.7165 10.7165 23.5 9.75 23.5C9.0519 23.5 8.44927 23.0912 8.16841 22.5H3.33159C3.05073 23.0912 2.4481 23.5 1.75 23.5C0.783502 23.5 0 22.7165 0 21.75C0 21.0519 0.408763 20.4493 1 20.1684V3.33159ZM9.75 2.5C9.33034 2.5 8.91946 2.54563 8.51986 2.63318C8.11525 2.72183 7.71537 2.46568 7.62673 2.06107C7.53808 1.65645 7.79422 1.25658 8.19883 1.16793C8.70253 1.05757 9.22101 1 9.75 1C10.421 1 11.0748 1.09264 11.7027 1.26791C12.1017 1.37927 12.3349 1.79297 12.2235 2.19193C12.1121 2.59089 11.6984 2.82404 11.2995 2.71268C10.8002 2.57333 10.282 2.5 9.75 2.5ZM6.43092 2.60604C6.66998 2.94431 6.58956 3.41232 6.25129 3.65138C5.91159 3.89145 5.58701 4.16631 5.28087 4.47308C4.98827 4.76627 4.5134 4.76675 4.22021 4.47416C3.92702 4.18156 3.92654 3.70669 4.21913 3.4135C4.58321 3.04867 4.97303 2.71797 5.38558 2.42641C5.72385 2.18735 6.19186 2.26778 6.43092 2.60604ZM13.9965 3.23058C14.2797 2.92833 14.7543 2.91289 15.0566 3.19611C15.9565 4.03934 16.7128 5.08705 17.2849 6.27514C17.4646 6.64835 17.3078 7.09656 16.9346 7.27626C16.5613 7.45596 16.1131 7.2991 15.9334 6.9259C15.4352 5.89123 14.7854 4.99759 14.0309 4.29068C13.7287 4.00747 13.7132 3.53284 13.9965 3.23058ZM17.5195 9.2399C17.9295 9.18139 18.3094 9.46638 18.3679 9.87644C18.4548 10.4853 18.5 11.1114 18.5 11.75C18.5 12.5511 18.4288 13.3326 18.2935 14.0851C18.2202 14.4927 17.8303 14.7638 17.4226 14.6905C17.015 14.6172 16.7439 14.2273 16.8172 13.8196C16.9367 13.1549 17 12.4623 17 11.75C17 11.1822 16.9598 10.6269 16.8829 10.0883C16.8244 9.67826 17.1094 9.29841 17.5195 9.2399ZM16.3708 17.4229C16.718 17.6486 16.8166 18.1132 16.5908 18.4605C16.1469 19.1434 15.6345 19.7611 15.0642 20.2967C14.7623 20.5803 14.2876 20.5654 14.0041 20.2634C13.7205 19.9615 13.7354 19.4869 14.0373 19.2033C14.5152 18.7545 14.9511 18.2307 15.3332 17.6429C15.5589 17.2956 16.0235 17.1971 16.3708 17.4229ZM4.36266 17.9322C4.12374 17.5938 3.65576 17.5132 3.3174 17.7521C2.97903 17.9911 2.89842 18.459 3.13734 18.7974C3.52586 19.3476 3.96066 19.8507 4.43574 20.2969C4.73767 20.5804 5.21231 20.5655 5.49587 20.2636C5.77944 19.9617 5.76454 19.487 5.46261 19.2035C5.06463 18.8297 4.69567 18.4038 4.36266 17.9322Z" fill="#292927"/>
</g>
</svg>
