<svg preserveAspectRatio="xMidYMid meet" overflow="visible" style="display: block;" viewBox="0 0 24 24" fill="none" xmlns="http://www.w3.org/2000/svg">
<g transform="translate(2.7500, 2.2500)">
<path id="Vector" fill-rule="evenodd" clip-rule="evenodd" d="M3.09225 2.2749C1.82334 2.76623 1.5 3.33183 1.5 3.75398C1.5 4.17532 1.82224 4.73918 3.09136 5.22873C4.32572 5.70488 6.22111 6 8.75005 6C12.1453 6 13.9891 5.27369 14.9594 4.6277C15.4454 4.30412 15.7246 3.99282 15.8766 3.78261L15.8974 3.75341C15.8906 3.74361 15.8835 3.73359 15.8761 3.72334C15.7239 3.51238 15.4446 3.2002 14.9586 2.87577C13.9884 2.22814 12.1449 1.5 8.75005 1.5C6.22157 1.5 4.32642 1.79702 3.09225 2.2749ZM15.7907 5.87628C16.1747 5.62058 16.4754 5.36045 16.7094 5.11725C16.8655 5.51275 17 6.05432 17 6.75C17 7.44806 16.8646 7.99095 16.7078 8.3868C16.4742 8.1437 16.1742 7.88375 15.7914 7.62821C15.3196 7.31327 14.7287 7.00927 13.9901 6.75094C14.7284 6.49336 15.319 6.19028 15.7907 5.87628ZM17.92 10.1535C17.8428 10.0001 17.7649 9.86563 17.6911 9.75C17.7649 9.63438 17.8428 9.49994 17.92 9.34647C18.2173 8.75551 18.5 7.89078 18.5 6.75C18.5 5.60922 18.2173 4.74449 17.92 4.15353C17.8615 4.03739 17.8027 3.93214 17.7456 3.83771C17.7797 3.7969 17.8142 3.7537 17.8487 3.70806C18.1739 3.27718 18.5 2.62254 18.5 1.75C18.5 1.33579 18.1642 1 17.75 1C17.3358 1 17 1.33579 17 1.75C17 1.9218 16.9775 2.0765 16.9406 2.21495L16.777 2.4604C16.5343 2.1966 16.2131 1.90973 15.7914 1.62821C14.5116 0.773851 12.3551 0 8.75005 0C6.13562 0 4.03074 0.302985 2.55062 0.876097C1.10523 1.43576 0 2.37215 0 3.75398C0 5.13661 1.10634 6.07076 2.55151 6.62822C2.6622 6.67092 2.77638 6.71211 2.894 6.75177C2.77606 6.79168 2.66159 6.83313 2.55062 6.8761C1.10523 7.43576 0 8.37215 0 9.75398C0 11.1366 1.10634 12.0708 2.55151 12.6282C2.6622 12.6709 2.77638 12.7121 2.894 12.7518C2.77606 12.7917 2.66159 12.8331 2.55062 12.8761C1.10523 13.4358 0 14.3721 0 15.754C0 17.1366 1.10634 18.0708 2.55151 18.6282C4.03145 19.1991 6.13608 19.5 8.75005 19.5C12.3548 19.5 14.5109 18.7283 15.7907 17.8763C16.2442 17.5743 16.5814 17.2662 16.8299 16.9871C16.9279 17.1899 17 17.4426 17 17.7501C17 18.1643 17.3358 18.5001 17.75 18.5001C18.1642 18.5001 18.5 18.1643 18.5 17.7501C18.5 16.8775 18.1739 16.2229 17.8487 15.792C17.8142 15.7464 17.7797 15.7032 17.7456 15.6623C17.8027 15.5679 17.8615 15.4626 17.92 15.3465C18.2173 14.7555 18.5 13.8908 18.5 12.75C18.5 11.6092 18.2173 10.7445 17.92 10.1535ZM16.9404 2.21557L16.9406 2.21495L17.75 1L16.9404 2.21557ZM16.9404 2.21557C16.9108 2.32622 16.872 2.42649 16.8281 2.51681C16.8115 2.49819 16.7946 2.47945 16.7772 2.46059L16.9404 2.21557ZM17 12.75C17 13.4481 16.8646 13.991 16.7078 14.3868C16.4742 14.1437 16.1742 13.8838 15.7914 13.6282C15.3196 13.3133 14.7287 13.0093 13.9901 12.7509C14.7284 12.4934 15.319 12.1903 15.7907 11.8763C16.1747 11.6206 16.4754 11.3604 16.7094 11.1173C16.8655 11.5127 17 12.0543 17 12.75ZM3.09225 8.2749C1.82334 8.76623 1.5 9.33183 1.5 9.75398C1.5 10.1753 1.82224 10.7392 3.09136 11.2287C4.32572 11.7049 6.22111 12 8.75005 12C12.1453 12 13.9891 11.2737 14.9594 10.6277C15.4454 10.3041 15.7246 9.99282 15.8766 9.78261L15.8974 9.75341L15.8846 9.73524L15.8761 9.72334C15.7239 9.51238 15.4446 9.2002 14.9586 8.87577C13.9884 8.22814 12.1449 7.5 8.75005 7.5C6.22157 7.5 4.32642 7.79702 3.09225 8.2749ZM1.5 15.754C1.5 15.3318 1.82334 14.7662 3.09225 14.2749C4.32642 13.797 6.22157 13.5 8.75005 13.5C12.1449 13.5 13.9884 14.2281 14.9586 14.8758C15.4446 15.2002 15.7239 15.5124 15.8761 15.7233C15.8835 15.7336 15.8906 15.7436 15.8974 15.7534L15.8766 15.7826C15.7246 15.9928 15.4454 16.3041 14.9594 16.6277C13.9891 17.2737 12.1453 18 8.75005 18C6.22111 18 4.32572 17.7049 3.09136 17.2287C1.82224 16.7392 1.5 16.1753 1.5 15.754Z" fill="#292927"/>
</g>
</svg>
