<svg preserveAspectRatio="xMidYMid meet" overflow="visible" style="display: block;" viewBox="0 0 24 24" fill="none" xmlns="http://www.w3.org/2000/svg">
<g transform="translate(1.2500, 3.2500)">
<path id="Vector" fill-rule="evenodd" clip-rule="evenodd" d="M2.75 0C2.33579 0 2 0.335786 2 0.75V3.75C2 4.16421 2.33579 4.5 2.75 4.5C3.16421 4.5 3.5 4.16421 3.5 3.75V1.5H5.75C6.16421 1.5 6.5 1.16421 6.5 0.75C6.5 0.335786 6.16421 0 5.75 0H2.75ZM0 8.75C0 8.33579 0.335786 8 0.75 8H20.75C21.1642 8 21.5 8.33579 21.5 8.75C21.5 9.16421 21.1642 9.5 20.75 9.5H0.75C0.335786 9.5 0 9.16421 0 8.75ZM2 16.75C2 17.1642 2.33579 17.5 2.75 17.5H18.75C19.1642 17.5 19.5 17.1642 19.5 16.75V12.75C19.5 12.3358 19.1642 12 18.75 12H2.75C2.33579 12 2 12.3358 2 12.75V16.75ZM3.5 16V13.5H18V16H3.5ZM9 0.75C9 0.335786 9.33579 0 9.75 0H11.75C12.1642 0 12.5 0.335786 12.5 0.75C12.5 1.16421 12.1642 1.5 11.75 1.5H9.75C9.33579 1.5 9 1.16421 9 0.75ZM18.75 0C19.1642 0 19.5 0.335786 19.5 0.75V3.75C19.5 4.16421 19.1642 4.5 18.75 4.5C18.3358 4.5 18 4.16421 18 3.75V1.5H15.75C15.3358 1.5 15 1.16421 15 0.75C15 0.335786 15.3358 0 15.75 0H18.75Z" fill="#292927"/>
</g>
</svg>
