<svg preserveAspectRatio="xMidYMid meet" overflow="visible" style="display: block;" viewBox="0 0 24 24" fill="none" xmlns="http://www.w3.org/2000/svg">
<g transform="translate(1.2500, 1.2500)">
<path id="Vector" fill-rule="evenodd" clip-rule="evenodd" d="M1.5 10.75C1.5 5.64137 5.64137 1.5 10.75 1.5C15.8586 1.5 20 5.64137 20 10.75C20 15.8586 15.8586 20 10.75 20C5.64137 20 1.5 15.8586 1.5 10.75ZM10.75 0C4.81294 0 0 4.81294 0 10.75C0 16.6871 4.81294 21.5 10.75 21.5C16.6871 21.5 21.5 16.6871 21.5 10.75C21.5 4.81294 16.6871 0 10.75 0ZM8.5 7.25C8.5 6.55964 7.94036 6 7.25 6C6.55964 6 6 6.55964 6 7.25C6 7.94036 6.55964 8.5 7.25 8.5C7.94036 8.5 8.5 7.94036 8.5 7.25ZM5.81225 14.8601C5.4759 14.6183 5.41968 14.1635 5.64096 13.8133C5.66562 13.7743 5.68213 13.755 5.70786 13.7249L5.70787 13.7249L5.70787 13.7249C5.71714 13.7141 5.72761 13.7018 5.74008 13.6868C5.79714 13.6179 5.87867 13.5246 5.98515 13.4153C6.1978 13.1969 6.51223 12.9122 6.93249 12.629C7.77709 12.06 9.04553 11.5011 10.75 11.5011C12.4544 11.5011 13.7229 12.06 14.5675 12.629C14.9877 12.9122 15.3021 13.1969 15.5148 13.4153C15.6213 13.5246 15.6694 13.5762 15.7599 13.6868C15.7996 13.7354 15.83 13.7731 15.859 13.8133C16.1007 14.1497 16.024 14.6183 15.6877 14.8601C15.3041 15.1358 14.8772 14.9727 14.6046 14.6435C14.5711 14.603 14.5164 14.54 14.4402 14.4618C14.2876 14.3052 14.0513 14.0899 13.7294 13.8731C13.0896 13.4421 12.108 13.0011 10.75 13.0011C9.39192 13.0011 8.41035 13.4421 7.77058 13.8731C7.44866 14.0899 7.2123 14.3052 7.05971 14.4618C6.98358 14.54 6.92888 14.603 6.89536 14.6435C6.62275 14.9727 6.19583 15.1358 5.81225 14.8601ZM15.5 7.25C15.5 6.55964 14.9404 6 14.25 6C13.5596 6 13 6.55964 13 7.25C13 7.94036 13.5596 8.5 14.25 8.5C14.9404 8.5 15.5 7.94036 15.5 7.25Z" fill="#292927"/>
</g>
</svg>
