<svg preserveAspectRatio="xMidYMid meet" overflow="visible" style="display: block;" viewBox="0 0 24 24" fill="none" xmlns="http://www.w3.org/2000/svg">
<g transform="translate(2.2500, 1.2499)">
<path id="Vector" fill-rule="evenodd" clip-rule="evenodd" d="M9.75002 1.5C8.05299 1.5 6.47772 2.01158 5.16721 2.88881C4.823 3.11922 4.35717 3.02696 4.12676 2.68274C3.89635 2.33853 3.98861 1.8727 4.33282 1.64229C5.88251 0.604962 7.74675 0 9.75002 0C14.1961 0 17.9454 2.97537 19.1188 7.04206C19.2337 7.44004 19.0042 7.85576 18.6062 7.9706C18.2082 8.08544 17.7925 7.85591 17.6777 7.45794C16.6845 4.01606 13.5101 1.5 9.75002 1.5ZM18.75 12C19.1642 12 19.5 12.3358 19.5 12.75V20.75C19.5 21.1642 19.1642 21.5 18.75 21.5C18.3358 21.5 18 21.1642 18 20.75V12.75C18 12.3358 18.3358 12 18.75 12ZM1.96925 7.00014C2.10728 6.6096 1.90259 6.18111 1.51205 6.04307C1.12151 5.90504 0.693022 6.10973 0.554987 6.50027C0.195355 7.51776 0 8.61198 0 9.7502V20.7502C0 21.1644 0.335786 21.5002 0.75 21.5002C1.16421 21.5002 1.5 21.1644 1.5 20.7502V9.7502C1.5 8.78462 1.66557 7.85932 1.96925 7.00014ZM9.75 4.5C6.88457 4.5 4.5 6.94992 4.5 10.05V12.75C4.5 13.1642 4.16421 13.5 3.75 13.5C3.33579 13.5 3 13.1642 3 12.75V10.05C3 6.1913 5.98802 3 9.75 3C13.512 3 16.5 6.1913 16.5 10.05V20.75C16.5 21.1642 16.1642 21.5 15.75 21.5C15.3358 21.5 15 21.1642 15 20.75V10.05C15 6.94992 12.6154 4.5 9.75 4.5ZM4.5 16.75C4.5 16.3358 4.16421 16 3.75 16C3.33579 16 3 16.3358 3 16.75V20.75C3 21.1642 3.33579 21.5 3.75 21.5C4.16421 21.5 4.5 21.1642 4.5 20.75V16.75ZM9.75 7.5C8.54142 7.5 7.5 8.53961 7.5 9.9V20.75C7.5 21.1642 7.16421 21.5 6.75 21.5C6.33579 21.5 6 21.1642 6 20.75V9.9C6 7.78099 7.64487 6 9.75 6C10.8446 6 11.8235 6.48791 12.5029 7.25144C12.7782 7.56089 12.7506 8.03496 12.4411 8.3103C12.1317 8.58565 11.6576 8.55801 11.3823 8.24856C10.9666 7.7814 10.3859 7.5 9.75 7.5ZM13.5 12.75C13.5 12.3358 13.1642 12 12.75 12C12.3358 12 12 12.3358 12 12.75V20.75C12 21.1642 12.3358 21.5 12.75 21.5C13.1642 21.5 13.5 21.1642 13.5 20.75V12.75ZM9.75 16.5C10.1642 16.5 10.5 16.8358 10.5 17.25V20.75C10.5 21.1642 10.1642 21.5 9.75 21.5C9.33579 21.5 9 21.1642 9 20.75V17.25C9 16.8358 9.33579 16.5 9.75 16.5ZM10.5 9.75C10.5 9.33579 10.1642 9 9.75 9C9.33579 9 9 9.33579 9 9.75V12.75C9 13.1642 9.33579 13.5 9.75 13.5C10.1642 13.5 10.5 13.1642 10.5 12.75V9.75Z" fill="#292927"/>
</g>
</svg>
