<svg preserveAspectRatio="xMidYMid meet" overflow="visible" style="display: block;" viewBox="0 0 24 24" fill="none" xmlns="http://www.w3.org/2000/svg">
<g transform="translate(0.2500, 5.2500)">
<path id="Vector" fill-rule="evenodd" clip-rule="evenodd" d="M1.5 2.75C1.5 2.05964 2.05964 1.5 2.75 1.5H17.75C18.4404 1.5 19 2.05964 19 2.75V10.75C19 11.4404 18.4404 12 17.75 12H2.75C2.05964 12 1.5 11.4404 1.5 10.75V2.75ZM2.75 0C1.23122 0 0 1.23122 0 2.75V10.75C0 12.2688 1.23122 13.5 2.75 13.5H17.75C19.2688 13.5 20.5 12.2688 20.5 10.75V2.75C20.5 1.23122 19.2688 0 17.75 0H2.75ZM23.5 4.75C23.5 4.33579 23.1642 4 22.75 4C22.3358 4 22 4.33579 22 4.75V8.75C22 9.16421 22.3358 9.5 22.75 9.5C23.1642 9.5 23.5 9.16421 23.5 8.75V4.75ZM10.25 3C10.6642 3 11 3.33579 11 3.75V5.75C11 6.16421 10.6642 6.5 10.25 6.5C9.83579 6.5 9.5 6.16421 9.5 5.75V3.75C9.5 3.33579 9.83579 3 10.25 3ZM10.8175 10.2508C11.0946 9.94287 11.0696 9.46865 10.7617 9.19156C10.4538 8.91446 9.97963 8.93942 9.70254 9.24731L9.69254 9.25842C9.41544 9.5663 9.4404 10.0405 9.74828 10.3176C10.0562 10.5947 10.5304 10.5697 10.8075 10.2619L10.8175 10.2508Z" fill="#292927"/>
</g>
</svg>
