<svg preserveAspectRatio="xMidYMid meet" overflow="visible" style="display: block;" viewBox="0 0 24 24" fill="none" xmlns="http://www.w3.org/2000/svg">
<g transform="translate(2.2500, 1.3364)">
<path id="Vector" fill-rule="evenodd" clip-rule="evenodd" d="M0.694401 16.4907L9.0944 21.1574C9.50213 21.3839 9.99791 21.3839 10.4056 21.1574L18.8056 16.4907C19.2342 16.2526 19.5 15.8009 19.5 15.3106L19.5 6.01666C19.5 5.52639 19.2342 5.07465 18.8056 4.83655L10.4056 0.169888C9.99791 -0.0566301 9.50213 -0.0566282 9.0944 0.169887L0.694384 4.83655C0.265804 5.07465 0 5.52639 0 6.01667L1.90735e-05 15.3106C1.90735e-05 15.8009 0.265823 16.2526 0.694401 16.4907ZM11 19.1112V9.66367C11 8.97332 10.4404 8.41367 9.75002 8.41367C9.05966 8.41367 8.50002 8.97332 8.50002 9.66367V19.1112L1.50002 15.2223L1.5 6.10493L9.75002 1.52159L18 6.10493L18 15.2223L11 19.1112Z" fill="#292927"/>
</g>
</svg>
