<svg preserveAspectRatio="xMidYMid meet" overflow="visible" style="display: block;" viewBox="0 0 24 24" fill="none" xmlns="http://www.w3.org/2000/svg">
<g transform="translate(1.2500, 1.2500)">
<path id="Vector" fill-rule="evenodd" clip-rule="evenodd" d="M10.75 1.5C5.64137 1.5 1.5 5.64137 1.5 10.75C1.5 15.8586 5.64137 20 10.75 20C15.8586 20 20 15.8586 20 10.75C20 5.64137 15.8586 1.5 10.75 1.5ZM0 10.75C0 4.81294 4.81294 0 10.75 0C16.6871 0 21.5 4.81294 21.5 10.75C21.5 16.6871 16.6871 21.5 10.75 21.5C4.81294 21.5 0 16.6871 0 10.75ZM9.09461 6.35313C8.75014 6.64541 8.5 7.09102 8.5 7.75001C8.5 8.16422 8.16421 8.50001 7.75 8.50001C7.33579 8.50001 7 8.16422 7 7.75001C7 6.65898 7.43736 5.79209 8.12414 5.20937C8.79461 4.64048 9.66185 4.375 10.5 4.375C11.3382 4.375 12.2054 4.64049 12.8759 5.20938C13.5626 5.7921 14 6.65899 14 7.75001C14 8.51589 13.8038 9.09948 13.4834 9.58009C13.2142 9.98395 12.8643 10.2962 12.589 10.5419L12.589 10.5419L12.5885 10.5423L12.5866 10.544C12.5574 10.5701 12.529 10.5954 12.5017 10.62C12.1945 10.8964 11.963 11.1243 11.7933 11.4241C11.631 11.7109 11.5 12.1116 11.5 12.7499C11.5 13.1642 11.1642 13.4999 10.75 13.4999C10.3358 13.4999 10 13.1642 10 12.7499C10 11.8883 10.1815 11.2265 10.4879 10.6852C10.787 10.1569 11.1805 9.79103 11.4983 9.505L11.5705 9.44008C11.8707 9.17044 12.0776 8.98468 12.2353 8.74803C12.3837 8.52553 12.5 8.23414 12.5 7.75001C12.5 7.09103 12.2499 6.64542 11.9054 6.35314C11.5446 6.04702 11.0368 5.875 10.5 5.875C9.96315 5.875 9.45539 6.04702 9.09461 6.35313ZM11.3175 17.2508C11.5946 16.9429 11.5696 16.4687 11.2617 16.1916C10.9538 15.9145 10.4796 15.9394 10.2025 16.2473L10.1925 16.2584C9.91544 16.5663 9.9404 17.0405 10.2483 17.3176C10.5562 17.5947 11.0304 17.5697 11.3075 17.2619L11.3175 17.2508Z" fill="#292927"/>
</g>
</svg>
