<svg preserveAspectRatio="xMidYMid meet" overflow="visible" style="display: block;" viewBox="0 0 24 24" fill="none" xmlns="http://www.w3.org/2000/svg">
<g transform="translate(1.2500, 1.2500)">
<path id="Vector" fill-rule="evenodd" clip-rule="evenodd" d="M10 1.53037C5.26114 1.9156 1.5 5.91662 1.5 10.75C1.5 15.5834 5.26114 19.5844 10 19.9696V1.53037ZM11.5 1.53037V8.93934L15.2197 5.21967C15.5126 4.92678 15.9874 4.92678 16.2803 5.21967C16.5732 5.51256 16.5732 5.98744 16.2803 6.28033L12.5607 10H17.75C18.1642 10 18.5 10.3358 18.5 10.75C18.5 11.1642 18.1642 11.5 17.75 11.5H12.4454L16.305 15.7455C16.5836 16.052 16.561 16.5263 16.2545 16.805C15.948 17.0836 15.4737 17.061 15.195 16.7545L11.5 12.69V19.9696C16.2389 19.5844 20 15.5834 20 10.75C20 5.91662 16.2389 1.9156 11.5 1.53037ZM0 10.75C0 4.83579 4.83579 0 10.75 0C16.6642 0 21.5 4.83579 21.5 10.75C21.5 16.6642 16.6642 21.5 10.75 21.5C4.83579 21.5 0 16.6642 0 10.75Z" fill="#292927"/>
</g>
</svg>
