<svg preserveAspectRatio="xMidYMid meet" overflow="visible" style="display: block;" viewBox="0 0 24 24" fill="none" xmlns="http://www.w3.org/2000/svg">
<g transform="translate(2.7500, 1.7500)">
<path id="Vector" fill-rule="evenodd" clip-rule="evenodd" d="M15.75 1.5C16.4404 1.5 17 2.05964 17 2.75C17 3.44036 16.4404 4 15.75 4C15.0596 4 14.5 3.44036 14.5 2.75C14.5 2.05964 15.0596 1.5 15.75 1.5ZM18.5 2.75C18.5 1.23122 17.2688 0 15.75 0C14.2312 0 13 1.23122 13 2.75C13 4.26878 14.2312 5.5 15.75 5.5C17.2688 5.5 18.5 4.26878 18.5 2.75ZM10.1859 2.63971C9.88759 2.42661 9.47892 2.46043 9.21967 2.71968L6.71967 5.21968C6.42678 5.51257 6.42678 5.98745 6.71967 6.28034C7.01256 6.57323 7.48744 6.57323 7.78033 6.28034L9.83107 4.2296L12.1309 5.87233L8.62412 9.76874C7.77857 9.27981 6.79696 9 5.75 9C4.45616 9 3.26018 9.42823 2.29901 10.1504C1.96785 10.3992 1.90108 10.8693 2.14989 11.2005C2.3987 11.5317 2.86886 11.5984 3.20002 11.3496C3.91033 10.8159 4.79219 10.5 5.75 10.5C6.69985 10.5 7.57692 10.8116 8.28457 11.3382C8.29491 11.3464 8.30542 11.3542 8.31607 11.3618C9.3392 12.1379 10 13.3668 10 14.75C10 15.3558 9.87369 15.9302 9.64669 16.4497C9.48085 16.8293 9.65411 17.2714 10.0337 17.4373C10.4132 17.6031 10.8554 17.4298 11.0212 17.0503C11.3294 16.3449 11.5 15.5664 11.5 14.75C11.5 13.4927 11.0964 12.3296 10.4118 11.3832L14.791 11.0704L13.5192 16.5814C13.4261 16.985 13.6778 17.3877 14.0814 17.4808C14.485 17.5739 14.8877 17.3223 14.9808 16.9186L16.4808 10.4186C16.5343 10.1868 16.4746 9.94329 16.3199 9.76246C16.1652 9.58164 15.9339 9.48496 15.6966 9.50191L10.5516 9.86941L13.8075 6.25173C13.9503 6.09298 14.0188 5.88084 13.9956 5.66852C13.9724 5.4562 13.8597 5.26385 13.6859 5.13971L10.1859 2.63971ZM0.263364 13.0253C0.387483 12.6301 0.808457 12.4103 1.20364 12.5345C1.59882 12.6586 1.81856 13.0796 1.69444 13.4747C1.56829 13.8764 1.5 14.3045 1.5 14.75C1.5 17.0972 3.40279 19 5.75 19C6.52536 19 7.2501 18.7931 7.87446 18.4319C8.233 18.2245 8.6918 18.347 8.8992 18.7055C9.10661 19.0641 8.98409 19.5229 8.62554 19.7303C7.77903 20.22 6.79608 20.5 5.75 20.5C2.57436 20.5 0 17.9256 0 14.75C0 14.1503 0.092063 13.5707 0.263364 13.0253Z" fill="#292927"/>
</g>
</svg>
