<svg preserveAspectRatio="xMidYMid meet" overflow="visible" style="display: block;" viewBox="0 0 24 24" fill="none" xmlns="http://www.w3.org/2000/svg">
<g transform="translate(2.2041, 2.4111)">
<path id="Vector" fill-rule="evenodd" clip-rule="evenodd" d="M0.219692 15.0689C0.00519333 15.2834 -0.0589735 15.606 0.0571123 15.8863C0.173198 16.1665 0.446675 16.3492 0.750022 16.3492H2.82845V18.4277C2.82845 18.731 3.01118 19.0045 3.29144 19.1206C3.57169 19.2367 3.89428 19.1725 4.10878 18.958L6.93721 16.1296C7.07786 15.9889 7.15688 15.7982 7.15688 15.5992V13.0815L9.79594 10.4424L12.435 13.0815V15.5992C12.435 15.7982 12.514 15.9889 12.6547 16.1296L15.4831 18.958C15.6976 19.1725 16.0202 19.2367 16.3005 19.1206C16.5807 19.0045 16.7634 18.731 16.7634 18.4277V16.3492H18.8419C19.1452 16.3492 19.4187 16.1665 19.5348 15.8863C19.6509 15.606 19.5867 15.2834 19.3722 15.0689L16.5438 12.2405C16.4031 12.0998 16.2124 12.0208 16.0134 12.0208H13.4957L10.8566 9.38175L17.6777 2.56066V3.57843C17.6777 3.99264 18.0135 4.32843 18.4277 4.32843C18.8419 4.32843 19.1777 3.99264 19.1777 3.57843V0.75C19.1777 0.335787 18.8419 0 18.4277 0H15.5993C15.1851 0 14.8493 0.335786 14.8493 0.750001C14.8493 1.16421 15.1851 1.5 15.5993 1.5L16.617 1.5L9.79594 8.32109L2.97486 1.5L3.99262 1.5C4.40684 1.5 4.74262 1.16421 4.74262 0.750001C4.74262 0.335786 4.40684 0 3.99262 0H1.1642C0.749983 0 0.414197 0.335787 0.414196 0.75V3.57843C0.414197 3.99264 0.749983 4.32843 1.1642 4.32843C1.57841 4.32843 1.9142 3.99264 1.9142 3.57843L1.9142 2.56066L8.73528 9.38175L6.09622 12.0208H3.57845C3.37954 12.0208 3.18877 12.0998 3.04812 12.2405L0.219692 15.0689ZM3.88911 13.5208H5.65688V15.2886L4.32845 16.617V15.5992C4.32845 15.185 3.99266 14.8492 3.57845 14.8492H2.56068L3.88911 13.5208ZM15.7028 13.5208H13.935V15.2886L15.2634 16.617V15.5992C15.2634 15.185 15.5992 14.8492 16.0134 14.8492H17.0312L15.7028 13.5208Z" fill="#292927"/>
</g>
</svg>
