<svg preserveAspectRatio="xMidYMid meet" overflow="visible" style="display: block;" viewBox="0 0 24 24" fill="none" xmlns="http://www.w3.org/2000/svg">
<g transform="translate(2.2500, 5.2500)">
<path id="Vector" fill-rule="evenodd" clip-rule="evenodd" d="M10.3228 0.13356C10.525 -0.00655143 10.783 -0.0386135 11.0133 0.0477574L19.0133 3.04776C19.3061 3.15753 19.5 3.43737 19.5 3.75V9.75C19.5 10.0626 19.3061 10.3425 19.0133 10.4523L11.0133 13.4523C10.783 13.5386 10.525 13.5066 10.3228 13.3664C10.1206 13.2263 10 12.996 10 12.75V7.5H1.5V9.75C1.5 10.1642 1.16421 10.5 0.75 10.5C0.335786 10.5 0 10.1642 0 9.75V3.75C0 3.33579 0.335786 3 0.75 3C1.16421 3 1.5 3.33579 1.5 3.75V6H10V0.750004C10 0.50402 10.1206 0.273672 10.3228 0.13356ZM11.5 7.5H14.75C15.1642 7.5 15.5 7.16422 15.5 6.75C15.5 6.33579 15.1642 6 14.75 6H11.5V1.83225L18 4.26975V9.23026L11.5 11.6678V7.5Z" fill="#292927"/>
</g>
</svg>
