<svg preserveAspectRatio="xMidYMid meet" overflow="visible" style="display: block;" viewBox="0 0 24 24" fill="none" xmlns="http://www.w3.org/2000/svg">
<g transform="translate(1.0671, 4.2500)">
<path id="Vector" fill-rule="evenodd" clip-rule="evenodd" d="M11.2619 15.3195C10.9474 15.0499 10.911 14.5764 11.1806 14.2619L16.0649 8.5635C16.4662 8.09539 16.4662 7.40464 16.0649 6.93652L11.1806 1.23811C10.911 0.923613 10.9474 0.450137 11.2619 0.180571C11.5764 -0.0889957 12.0499 -0.0525739 12.3194 0.26192L17.2038 5.96034C18.0865 6.99018 18.0865 8.50984 17.2038 9.53969L12.3194 15.2381C12.0499 15.5526 11.5764 15.589 11.2619 15.3195ZM7.69072 13.536C7.19271 14.1052 6.3073 14.1052 5.80928 13.536L5.56444 13.2562C5.29167 12.9445 4.81785 12.9129 4.50613 13.1857C4.1944 13.4584 4.16281 13.9323 4.43557 14.244L4.68042 14.5238C5.77605 15.776 7.72396 15.776 8.81959 14.5238L13.1621 9.56099C14.0693 8.52417 14.0693 6.97604 13.1621 5.93921L8.81959 0.976397C7.72396 -0.275754 5.77605 -0.27575 4.68042 0.9764L4.43557 1.25622C4.16281 1.56795 4.1944 2.04177 4.50613 2.31453C4.81785 2.5873 5.29167 2.55571 5.56444 2.24398L5.80928 1.96416C6.3073 1.395 7.19271 1.395 7.69072 1.96415L12.0332 6.92697C12.4456 7.39825 12.4456 8.10195 12.0332 8.57323L7.69072 13.536ZM4.5 4.75003C4.5 4.33581 4.16421 4.00003 3.75 4.00003C3.33579 4.00003 3 4.33581 3 4.75003V7.00003H0.75C0.335786 7.00003 0 7.33581 0 7.75003C0 8.16424 0.335786 8.50003 0.75 8.50003H3V10.75C3 11.1642 3.33579 11.5 3.75 11.5C4.16421 11.5 4.5 11.1642 4.5 10.75V8.50003H6.75C7.16421 8.50003 7.5 8.16424 7.5 7.75003C7.5 7.33581 7.16421 7.00003 6.75 7.00003H4.5V4.75003ZM15.1806 14.2619C14.911 14.5764 14.9474 15.0499 15.2619 15.3195C15.5764 15.589 16.0499 15.5526 16.3194 15.2381L21.2038 9.53969C22.0865 8.50984 22.0865 6.99018 21.2038 5.96034L16.3194 0.26192C16.0499 -0.0525739 15.5764 -0.0889957 15.2619 0.180571C14.9474 0.450137 14.911 0.923613 15.1806 1.23811L20.0649 6.93652C20.4662 7.40464 20.4662 8.09539 20.0649 8.5635L15.1806 14.2619Z" fill="#292927"/>
</g>
</svg>
