<svg preserveAspectRatio="xMidYMid meet" overflow="visible" style="display: block;" viewBox="0 0 24 24" fill="none" xmlns="http://www.w3.org/2000/svg">
<g transform="translate(1.2500, 4.2500)">
<path id="Vector" fill-rule="evenodd" clip-rule="evenodd" d="M1.5 4.75C1.5 2.95507 2.95507 1.5 4.75 1.5H16.75C18.5449 1.5 20 2.95507 20 4.75V10.75C20 12.5449 18.5449 14 16.75 14H4.75C2.95507 14 1.5 12.5449 1.5 10.75V4.75ZM4.75 0C2.12665 0 0 2.12665 0 4.75V10.75C0 13.3734 2.12665 15.5 4.75 15.5H16.75C19.3734 15.5 21.5 13.3734 21.5 10.75V4.75C21.5 2.12665 19.3734 0 16.75 0H4.75ZM4.21967 8.28033C3.92678 7.98744 3.92678 7.51256 4.21967 7.21967L6.71967 4.71967C7.01256 4.42678 7.48744 4.42678 7.78033 4.71967C8.07322 5.01256 8.07322 5.48744 7.78033 5.78033L5.81066 7.75L7.78033 9.71967C8.07322 10.0126 8.07322 10.4874 7.78033 10.7803C7.48744 11.0732 7.01256 11.0732 6.71967 10.7803L4.21967 8.28033ZM17.2803 7.21967L14.7803 4.71967C14.4874 4.42678 14.0126 4.42678 13.7197 4.71967C13.4268 5.01256 13.4268 5.48744 13.7197 5.78033L15.6893 7.75L13.7197 9.71967C13.4268 10.0126 13.4268 10.4874 13.7197 10.7803C14.0126 11.0732 14.4874 11.0732 14.7803 10.7803L17.2803 8.28033C17.5732 7.98744 17.5732 7.51256 17.2803 7.21967Z" fill="#292927"/>
</g>
</svg>
