<svg preserveAspectRatio="xMidYMid meet" overflow="visible" style="display: block;" viewBox="0 0 24 24" fill="none" xmlns="http://www.w3.org/2000/svg">
<g transform="translate(2.2500, 2.2500)">
<path id="Vector" fill-rule="evenodd" clip-rule="evenodd" d="M1.5 1.5V18H18V1.5H1.5ZM0 1.35C0 0.604415 0.604417 0 1.35 0H18.15C18.8956 0 19.5 0.604417 19.5 1.35V18.15C19.5 18.8956 18.8956 19.5 18.15 19.5H1.35C0.604415 19.5 0 18.8956 0 18.15V1.35ZM11.0915 10.3046C11.3168 10.4602 11.5 10.7151 11.5 11.25C11.5 12.1115 11.2636 12.4865 11.0391 12.6726C10.786 12.8824 10.3738 13 9.75 13C9.1262 13 8.71399 12.8824 8.46086 12.6726C8.23639 12.4865 8 12.1115 8 11.25C8 10.7151 8.18323 10.4602 8.40849 10.3046C8.68119 10.1162 9.1287 10 9.75 10C10.3713 10 10.8188 10.1162 11.0915 10.3046ZM11.944 9.0704C11.3119 8.63377 10.5094 8.5 9.75 8.5C9.18262 8.5 8.5912 8.57467 8.06475 8.79453C8.06495 8.79272 8.06516 8.79091 8.06537 8.78909C8.1293 8.23507 8.24959 7.83203 8.44338 7.53057C8.79069 6.99031 9.56864 6.5 11.75 6.5C12.1642 6.5 12.5 6.16421 12.5 5.75C12.5 5.33579 12.1642 5 11.75 5C9.43136 5 7.95931 5.50969 7.18162 6.71943C6.81291 7.29297 6.65195 7.95243 6.57526 8.61716C6.49998 9.26959 6.49999 9.99331 6.5 10.7221V10.75C6.5 10.8041 6.50572 10.8568 6.51658 10.9076C6.50557 11.0184 6.5 11.1326 6.5 11.25C6.5 12.3885 6.82325 13.2635 7.50361 13.8274C8.15529 14.3676 8.99309 14.5 9.75 14.5C10.5069 14.5 11.3447 14.3676 11.9964 13.8274C12.6767 13.2635 13 12.3885 13 11.25C13 10.2849 12.6236 9.53981 11.944 9.0704Z" fill="#292927"/>
</g>
</svg>
