<svg preserveAspectRatio="xMidYMid meet" overflow="visible" style="display: block;" viewBox="0 0 24 24" fill="none" xmlns="http://www.w3.org/2000/svg">
<g transform="translate(6.8038, 2.2401)">
<path id="Vector" fill-rule="evenodd" clip-rule="evenodd" d="M1.84329 8.25309C2.3185 8.75386 3.10968 8.77457 3.61045 8.29936L4.87598 7.09842V3.65193L1.88956 6.48593C1.3888 6.96114 1.36808 7.75232 1.84329 8.25309ZM10.376 3.04998C10.4607 2.27414 10.2164 1.4675 9.63711 0.85703C8.59165 -0.244657 6.85104 -0.290233 5.74935 0.755227L0.857031 5.39787C-0.244655 6.44333 -0.290235 8.18394 0.755226 9.28562C1.80069 10.3873 3.5413 10.4329 4.64298 9.38742L4.87598 9.16632V16.7697C4.87598 18.2884 6.10719 19.5197 7.62598 19.5197C9.14476 19.5197 10.376 18.2884 10.376 16.7697V3.04998ZM8.87598 2.95195V2.76966C8.87598 2.0793 8.31633 1.51966 7.62598 1.51966C6.93562 1.51966 6.37598 2.0793 6.37598 2.76966V5.67498L8.50277 3.65672C8.7088 3.46121 8.83357 3.21221 8.87598 2.95195ZM6.37598 7.74287L8.87598 5.37046V16.7697C8.87598 17.46 8.31633 18.0197 7.62598 18.0197C6.93562 18.0197 6.37598 17.46 6.37598 16.7697V7.74287Z" fill="#292927"/>
</g>
</svg>
