<svg preserveAspectRatio="xMidYMid meet" overflow="visible" style="display: block;" viewBox="0 0 24 24" fill="none" xmlns="http://www.w3.org/2000/svg">
<g transform="translate(2.2468, 2.0858)">
<path id="Vector" fill-rule="evenodd" clip-rule="evenodd" d="M13.4371 0.219671C13.2889 0.07148 13.0855 -0.00794772 12.8761 0.000629169C12.6667 0.00920595 12.4704 0.105005 12.3348 0.264818L7.91726 5.47219L4.52439 5.1208C4.29971 5.09754 4.07652 5.17677 3.9168 5.33648L2.21974 7.03354C1.92685 7.32643 1.92685 7.80131 2.21974 8.0942L6.44668 12.3211L0.21967 18.5481C-0.0732233 18.841 -0.0732233 19.3159 0.21967 19.6088C0.512563 19.9017 0.987437 19.9017 1.28033 19.6088L7.50734 13.3818L11.4121 17.2866C11.5528 17.4272 11.7435 17.5063 11.9425 17.5063C12.1414 17.5063 12.3321 17.4272 12.4728 17.2866L14.1698 15.5895C14.3295 15.4298 14.4088 15.2066 14.3855 14.9819L14.0341 11.5891L19.2416 7.17163C19.4014 7.03606 19.4972 6.8398 19.5058 6.63039C19.5144 6.42099 19.435 6.21755 19.2868 6.06936L13.4371 0.219671ZM8.80528 6.74412L12.9521 1.85596L17.6505 6.55437L12.7622 10.701C12.5735 10.8611 12.4759 11.104 12.5014 11.3502L12.8567 14.7813L11.9425 15.6956L3.81073 7.56387L4.725 6.6496L8.1561 7.00494C8.40227 7.03044 8.64518 6.93284 8.80528 6.74412Z" fill="#292927"/>
</g>
</svg>
