<svg preserveAspectRatio="xMidYMid meet" overflow="visible" style="display: block;" viewBox="0 0 24 24" fill="none" xmlns="http://www.w3.org/2000/svg">
<g transform="translate(1.9529, 1.2232)">
<path id="Vector" fill-rule="evenodd" clip-rule="evenodd" d="M10.972 1.90916C10.4761 1.36361 9.6181 1.36361 9.12215 1.90916L1.82508 9.93594C1.39164 10.4127 1.39164 11.1409 1.82507 11.6176L9.12215 19.6444C9.6181 20.19 10.4761 20.19 10.972 19.6444L18.2691 11.6176C18.7025 11.1409 18.7025 10.4127 18.2691 9.93594L10.972 1.90916ZM8.01224 0.900149C9.10333 -0.300051 10.9908 -0.300049 12.0819 0.90015L19.379 8.92694C20.3325 9.97584 20.3325 11.5777 19.379 12.6266L12.0819 20.6534C10.9908 21.8536 9.10333 21.8536 8.01224 20.6534L0.715164 12.6266C-0.238389 11.5777 -0.238387 9.97584 0.715165 8.92693L8.01224 0.900149Z" fill="#292927"/>
</g>
</svg>
