<svg preserveAspectRatio="xMidYMid meet" overflow="visible" style="display: block;" viewBox="0 0 24 24" fill="none" xmlns="http://www.w3.org/2000/svg">
<g transform="translate(1.2500, 3.2500)">
<path id="Vector" fill-rule="evenodd" clip-rule="evenodd" d="M1.5 3.03571C1.5 2.16751 2.17891 1.5 2.97222 1.5H18.5278C19.3211 1.5 20 2.1675 20 3.03571V14.4643C20 15.3325 19.3211 16 18.5278 16H2.97222C2.17891 16 1.5 15.3325 1.5 14.4643V3.03571ZM2.97222 0C1.31093 0 0 1.37919 0 3.03571V14.4643C0 16.1208 1.31094 17.5 2.97222 17.5H18.5278C20.1891 17.5 21.5 16.1208 21.5 14.4643V3.03571C21.5 1.3792 20.1891 0 18.5278 0H2.97222ZM4.31745 4.25078C4.59455 3.94291 4.56962 3.46869 4.26175 3.19158C3.95388 2.91447 3.47966 2.93941 3.20255 3.24728L3.19255 3.25839C2.91544 3.56626 2.94038 4.04048 3.24825 4.31759C3.55612 4.5947 4.03034 4.56976 4.30745 4.26189L4.31745 4.25078ZM6.26175 3.19158C6.56962 3.46869 6.59455 3.94291 6.31745 4.25078L6.30745 4.26189C6.03034 4.56976 5.55612 4.5947 5.24825 4.31759C4.94038 4.04048 4.91544 3.56626 5.19255 3.25839L5.20255 3.24728C5.47966 2.93941 5.95388 2.91447 6.26175 3.19158ZM8.31745 4.25078C8.59455 3.94291 8.56962 3.46869 8.26175 3.19158C7.95388 2.91447 7.47966 2.93941 7.20255 3.24728L7.19255 3.25839C6.91544 3.56626 6.94038 4.04048 7.24825 4.31759C7.55612 4.5947 8.03034 4.56976 8.30745 4.26189L8.31745 4.25078Z" fill="#292927"/>
</g>
</svg>
