<svg preserveAspectRatio="xMidYMid meet" overflow="visible" style="display: block;" viewBox="0 0 24 24" fill="none" xmlns="http://www.w3.org/2000/svg">
<g transform="translate(2.2500, 2.2500)">
<path id="Vector" fill-rule="evenodd" clip-rule="evenodd" d="M8.75 1.5C4.74594 1.5 1.5 4.74594 1.5 8.75C1.5 12.7541 4.74594 16 8.75 16C10.7557 16 12.57 15.1865 13.8833 13.8697C15.1921 12.5574 16 10.7488 16 8.75C16 4.74594 12.7541 1.5 8.75 1.5ZM0 8.75C0 3.91751 3.91751 0 8.75 0C13.5825 0 17.5 3.91751 17.5 8.75C17.5 10.8959 16.7267 12.8624 15.4449 14.3842L19.2803 18.2197C19.5732 18.5126 19.5732 18.9874 19.2803 19.2803C18.9874 19.5732 18.5126 19.5732 18.2197 19.2803L14.3842 15.4449C12.8624 16.7267 10.8959 17.5 8.75 17.5C3.91751 17.5 0 13.5825 0 8.75ZM5.75 8C5.33579 8 5 8.33579 5 8.75C5 9.16421 5.33579 9.5 5.75 9.5H11.75C12.1642 9.5 12.5 9.16421 12.5 8.75C12.5 8.33579 12.1642 8 11.75 8H5.75Z" fill="#292927"/>
</g>
</svg>
