<svg preserveAspectRatio="xMidYMid meet" overflow="visible" style="display: block;" viewBox="0 0 24 24" fill="none" xmlns="http://www.w3.org/2000/svg">
<g transform="translate(6.2500, 2.2500)">
<path id="Vector" fill-rule="evenodd" clip-rule="evenodd" d="M11.2255 0.17C11.3993 0.312454 11.5 0.525312 11.5 0.750006V4.75001C11.5 5.10752 11.2477 5.41533 10.8971 5.48544L6.5 6.36486V16.75C6.5 18.2688 5.26878 19.5 3.75 19.5H2.75C1.23122 19.5 0 18.2688 0 16.75V15.75C0 14.2312 1.23122 13 2.75 13H5V1.75001C5 1.3925 5.25234 1.08468 5.60291 1.01457L10.6029 0.014571C10.8232 -0.0294954 11.0517 0.0275458 11.2255 0.17ZM5 14.5H2.75C2.05964 14.5 1.5 15.0597 1.5 15.75V16.75C1.5 17.4404 2.05964 18 2.75 18H3.75C4.44036 18 5 17.4404 5 16.75V14.5ZM6.5 4.83515L10 4.13515V1.66486L6.5 2.36486V4.83515Z" fill="#292927"/>
</g>
</svg>
