<svg preserveAspectRatio="xMidYMid meet" overflow="visible" style="display: block;" viewBox="0 0 24 24" fill="none" xmlns="http://www.w3.org/2000/svg">
<g transform="translate(0.7500, 1.7500)">
<path id="Vector" fill-rule="evenodd" clip-rule="evenodd" d="M0.105805 13.1378C-0.0351698 12.9014 -0.0352751 12.6067 0.10553 12.3701L7.24839 0.370141C7.38353 0.143107 7.62816 0.00392748 7.89237 0.00375391L13.6067 1.62338e-07C13.8695 -0.000172425 14.1133 0.137279 14.2492 0.362291L20.892 11.3623C21.1061 11.7169 20.9923 12.1779 20.6377 12.392C20.2831 12.6061 19.8221 12.4923 19.608 12.1377L13.6588 2.2863L11.5944 6.28959L13.4611 9.90599C13.6511 10.2741 13.5067 10.7265 13.1386 10.9165C12.7706 11.1064 12.3182 10.9621 12.1282 10.594L10.7508 7.92553L8.64772 12.0038H11.25C11.6642 12.0038 12 12.3395 12 12.7538C12 13.168 11.6642 13.5038 11.25 13.5038H7.87421L5.55561 18H10.7536C11.1678 18 11.5036 18.3358 11.5036 18.75C11.5036 19.1642 11.1678 19.5 10.7536 19.5H4.325C4.06081 19.5 3.8161 19.361 3.68081 19.1341L0.105805 13.1378ZM10.7501 4.654L12.3761 1.50081L9.1236 1.50295L10.7501 4.654ZM9.9065 6.28993L7.84619 2.29848L2.06924 12.0038H6.96002L9.9065 6.28993ZM6.18651 13.5038H2.07034L4.27749 17.2057L6.18651 13.5038ZM14.2803 16.2197C13.9874 15.9268 13.5126 15.9268 13.2197 16.2197C12.9268 16.5126 12.9268 16.9874 13.2197 17.2803L16.2197 20.2803C16.5126 20.5732 16.9874 20.5732 17.2803 20.2803L22.2803 15.2803C22.5732 14.9874 22.5732 14.5126 22.2803 14.2197C21.9874 13.9268 21.5126 13.9268 21.2197 14.2197L16.75 18.6893L14.2803 16.2197Z" fill="#292927"/>
</g>
</svg>
