<svg preserveAspectRatio="xMidYMid meet" overflow="visible" style="display: block;" viewBox="0 0 24 24" fill="none" xmlns="http://www.w3.org/2000/svg">
<g transform="translate(3.2301, 3.2301)">
<path id="Vector" fill-rule="evenodd" clip-rule="evenodd" d="M12.4728 1.51262L16.0272 5.06703C16.0514 4.35638 16.0383 3.69806 16.0089 3.12912C15.9634 2.24844 15.2914 1.5764 14.4107 1.53088C13.8417 1.50147 13.1834 1.48844 12.4728 1.51262ZM15.8646 7.02579L10.514 1.67517C8.28165 1.97837 5.97027 2.7307 4.35048 4.35048C2.7307 5.97027 1.97837 8.28165 1.67517 10.514L7.02579 15.8646C9.25815 15.5614 11.5695 14.8091 13.1893 13.1893C14.8091 11.5695 15.5614 9.25815 15.8646 7.02579ZM5.06703 16.0272L1.51262 12.4728C1.48844 13.1834 1.50147 13.8417 1.53088 14.4107C1.5764 15.2914 2.24844 15.9634 3.12912 16.0089C3.69806 16.0383 4.35638 16.0514 5.06703 16.0272ZM10.6988 0.140273C12.1212 -0.0238985 13.4506 -0.0207529 14.4881 0.0328807C16.1363 0.11808 17.4217 1.40349 17.5069 3.05168C17.5606 4.08922 17.5637 5.41856 17.3995 6.84097C17.113 9.32333 16.3045 12.1955 14.25 14.25C12.1955 16.3045 9.32333 17.113 6.84097 17.3995C5.41856 17.5637 4.08922 17.5606 3.05168 17.5069C1.40349 17.4217 0.11808 16.1363 0.0328803 14.4881C-0.0207527 13.4506 -0.0238983 12.1212 0.140274 10.6988C0.426783 8.21647 1.23534 5.34431 3.28982 3.28982C5.34431 1.23534 8.21647 0.426782 10.6988 0.140273ZM8.23957 5.41114C8.53246 5.11825 9.00734 5.11825 9.30023 5.41114L10.1841 6.29503L11.068 5.41114C11.3609 5.11825 11.8358 5.11825 12.1287 5.41114C12.4216 5.70404 12.4216 6.17891 12.1287 6.4718L11.2448 7.35569L12.1287 8.23957C12.4216 8.53246 12.4216 9.00734 12.1287 9.30023C11.8358 9.59312 11.3609 9.59312 11.068 9.30023L10.1841 8.41635L8.41635 10.1841L9.30023 11.068C9.59312 11.3609 9.59312 11.8358 9.30023 12.1287C9.00734 12.4216 8.53246 12.4216 8.23957 12.1287L7.35569 11.2448L6.4718 12.1287C6.17891 12.4216 5.70404 12.4216 5.41114 12.1287C5.11825 11.8358 5.11825 11.3609 5.41114 11.068L6.29503 10.1841L5.41114 9.30023C5.11825 9.00734 5.11825 8.53246 5.41114 8.23957C5.70404 7.94668 6.17891 7.94668 6.4718 8.23957L7.35569 9.12345L9.12345 7.35569L8.23957 6.4718C7.94668 6.17891 7.94668 5.70404 8.23957 5.41114Z" fill="#292927"/>
</g>
</svg>
