<svg preserveAspectRatio="xMidYMid meet" overflow="visible" style="display: block;" viewBox="0 0 24 24" fill="none" xmlns="http://www.w3.org/2000/svg">
<g transform="translate(0.2500, 0.2500)">
<path id="Vector" fill-rule="evenodd" clip-rule="evenodd" d="M11.75 0C8.62624 0 5.67783 1.15013 3.45669 3.24815L3.45663 3.24821C1.23426 5.34791 0 8.15242 0 11.1411C0 11.9312 0.664998 12.5 1.39437 12.5C2.12379 12.5 2.78891 11.9313 2.78891 11.1411C2.78891 10.5823 3.28463 10.0544 3.98328 10.0544C4.26977 10.0544 4.38193 10.1363 4.45268 10.2092C4.55889 10.3185 4.64832 10.493 4.76648 10.7981C4.78001 10.833 4.79451 10.8716 4.81009 10.9131L4.81011 10.9131C4.90414 11.1635 5.03744 11.5184 5.23208 11.7972C5.3585 11.9783 5.53049 12.1618 5.76903 12.2972C6.0116 12.4349 6.28294 12.5 6.57219 12.5C6.86143 12.5 7.13277 12.4349 7.37534 12.2972C7.61388 12.1618 7.78587 11.9783 7.9123 11.7972C8.10694 11.5184 8.24025 11.1635 8.33429 10.9131C8.34988 10.8716 8.36438 10.833 8.37791 10.7981C8.49608 10.493 8.58552 10.3185 8.69173 10.2091C8.76247 10.1363 8.87463 10.0544 9.16109 10.0544C9.74098 10.0544 10.1905 10.4212 10.5426 10.9454C10.7125 11.1983 10.8367 11.4566 10.9186 11.6546C10.9547 11.7419 10.9816 11.8151 11 11.868L11 19.75C11 20.5465 10.7088 21.0887 10.3142 21.4394C9.90588 21.8024 9.3402 22 8.75 22C8.15981 22 7.59413 21.8024 7.18577 21.4394C6.79122 21.0887 6.5 20.5465 6.5 19.75C6.5 19.3358 6.16421 19 5.75 19C5.33579 19 5 19.3358 5 19.75C5 20.9535 5.45878 21.9113 6.18923 22.5606C6.90588 23.1976 7.8402 23.5 8.75 23.5C9.65981 23.5 10.5941 23.1976 11.3108 22.5606C12.0412 21.9113 12.5 20.9535 12.5 19.75L12.5 11.868C12.5184 11.8151 12.5453 11.7419 12.5814 11.6546C12.6633 11.4566 12.7875 11.1983 12.9574 10.9454C13.3095 10.4212 13.759 10.0544 14.3389 10.0544C14.6269 10.0544 14.762 10.1381 14.8546 10.2272C14.9769 10.3447 15.0816 10.529 15.2074 10.8226C15.2272 10.8687 15.2489 10.9218 15.2727 10.9797L15.2727 10.9797C15.3701 11.2176 15.5005 11.536 15.6606 11.7797C15.899 12.1425 16.2973 12.5 16.9278 12.5C17.5584 12.5 17.9566 12.1425 18.195 11.7797C18.3551 11.536 18.4855 11.2176 18.583 10.9797L18.583 10.9796C18.6067 10.9217 18.6284 10.8686 18.6482 10.8225C18.774 10.529 18.8787 10.3447 19.001 10.2272C19.0936 10.1381 19.2287 10.0544 19.5167 10.0544C20.2154 10.0544 20.7111 10.5823 20.7111 11.1411C20.7111 11.9313 21.3762 12.5 22.1056 12.5C22.835 12.5 23.5 11.9312 23.5 11.1411C23.5 8.15245 22.2659 5.34792 20.0432 3.24819C17.8222 1.14995 14.8737 0 11.75 0ZM1.57275 9.98211C1.84152 7.85692 2.84853 5.88637 4.4867 4.3386L4.48677 4.33854C6.4209 2.51164 8.99739 1.5 11.75 1.5C14.5027 1.5 17.0792 2.51152 19.0131 4.33856L19.0131 4.33858C20.6516 5.88634 21.6585 7.8569 21.9273 9.98213C21.4779 9.12377 20.5473 8.55439 19.5167 8.55439C18.8585 8.55439 18.3457 8.77635 17.9613 9.14588C17.6067 9.48684 17.4056 9.91403 17.2694 10.2318C17.2243 10.3372 17.1867 10.4282 17.1537 10.5081L17.1536 10.5083L17.1536 10.5083C17.0691 10.713 17.0149 10.8442 16.9414 10.956C16.9365 10.9635 16.932 10.97 16.9278 10.9759C16.9236 10.97 16.9191 10.9635 16.9143 10.956C16.8408 10.8442 16.7866 10.713 16.702 10.5083C16.669 10.4284 16.6314 10.3373 16.5862 10.2318C16.45 9.91402 16.2489 9.48684 15.8943 9.14588C15.5099 8.77636 14.9971 8.55439 14.3389 8.55439C13.0609 8.55439 12.2262 9.36602 11.75 10.0536C11.2738 9.36602 10.4391 8.55439 9.16109 8.55439C8.50136 8.55439 7.99066 8.77815 7.61589 9.16389C7.27658 9.51312 7.09784 9.94997 6.97918 10.2563C6.95616 10.3157 6.93525 10.3703 6.91597 10.4207C6.81656 10.6802 6.76044 10.8267 6.68237 10.9386C6.66539 10.9629 6.65269 10.9768 6.64493 10.9843L6.6406 10.9883L6.63704 10.9912L6.63491 10.9927L6.63414 10.993C6.63355 10.9932 6.63167 10.994 6.62807 10.9949C6.62119 10.9966 6.60384 11 6.57219 11C6.54054 11 6.52318 10.9966 6.5163 10.9949C6.5127 10.994 6.51083 10.9932 6.51023 10.993L6.50947 10.9927L6.50734 10.9912C6.50589 10.9901 6.50325 10.988 6.49945 10.9843C6.4917 10.9768 6.47899 10.9629 6.46202 10.9386C6.38396 10.8267 6.32784 10.6802 6.22845 10.4207C6.20916 10.3704 6.18824 10.3157 6.16522 10.2563C6.04657 9.94997 5.86782 9.51312 5.52851 9.16389C5.15373 8.77815 4.64302 8.55439 3.98328 8.55439C2.95275 8.55439 2.02212 9.12376 1.57275 9.98211Z" fill="#292927"/>
</g>
</svg>
