<svg preserveAspectRatio="xMidYMid meet" overflow="visible" style="display: block;" viewBox="0 0 24 24" fill="none" xmlns="http://www.w3.org/2000/svg">
<g transform="translate(1.2500, 1.2500)">
<path id="Vector" fill-rule="evenodd" clip-rule="evenodd" d="M1.5 10.75C1.5 5.64137 5.64137 1.5 10.75 1.5C15.8586 1.5 20 5.64137 20 10.75C20 15.8586 15.8586 20 10.75 20C5.64137 20 1.5 15.8586 1.5 10.75ZM10.75 0C4.81294 0 0 4.81294 0 10.75C0 16.6871 4.81294 21.5 10.75 21.5C16.6871 21.5 21.5 16.6871 21.5 10.75C21.5 4.81294 16.6871 0 10.75 0ZM11.5 4.25C11.5 3.83579 11.1642 3.5 10.75 3.5C10.3358 3.5 9.99998 3.83579 9.99998 4.25V5.35324C9.4848 5.4298 8.98023 5.60793 8.55247 5.93193C7.88013 6.44119 7.49998 7.23349 7.49998 8.25001C7.49998 8.74538 7.61526 9.18566 7.84231 9.56605C8.06678 9.9421 8.37634 10.2194 8.7067 10.4296C9.31935 10.8195 10.1005 11.0323 10.7457 11.2081L10.8026 11.2236C11.5219 11.4197 12.0875 11.581 12.488 11.8359C12.6732 11.9538 12.7933 12.0749 12.8697 12.2028C12.9434 12.3263 13 12.4954 13 12.75C13 13.3592 12.7547 13.7422 12.3958 13.9935C12.0067 14.266 11.431 14.415 10.7769 14.3915C9.77511 14.3555 8.82092 13.9279 8.34998 13.3C8.10145 12.9686 7.63135 12.9015 7.29998 13.15C6.96861 13.3985 6.90145 13.8686 7.14998 14.2C7.81953 15.0927 8.90737 15.625 9.99998 15.8147V17.25C9.99998 17.6642 10.3358 18 10.75 18C11.1642 18 11.5 17.6642 11.5 17.25V15.859C12.1277 15.7837 12.7415 15.5827 13.2563 15.2222C14.0133 14.692 14.5 13.8518 14.5 12.75C14.5 12.2546 14.3847 11.8144 14.1577 11.434C13.9332 11.0579 13.6236 10.7806 13.2933 10.5704C12.6806 10.1805 11.8994 9.96771 11.2543 9.79195L11.1973 9.77643C10.478 9.58026 9.91248 9.41897 9.51201 9.16413C9.32675 9.04624 9.20663 8.9251 9.13031 8.79724C9.05659 8.67373 8.99998 8.50463 8.99998 8.25001C8.99998 7.6365 9.21028 7.3154 9.45815 7.12765C9.73738 6.91615 10.1739 6.79349 10.7298 6.80845C11.6786 6.83398 12.6914 7.2521 13.2197 7.78033C13.5125 8.07322 13.9874 8.07322 14.2803 7.78033C14.5732 7.48744 14.5732 7.01256 14.2803 6.71967C13.5979 6.03725 12.5487 5.55659 11.5 5.38088V4.25Z" fill="#292927"/>
</g>
</svg>
