<svg preserveAspectRatio="xMidYMid meet" overflow="visible" style="display: block;" viewBox="0 0 24 24" fill="none" xmlns="http://www.w3.org/2000/svg">
<g transform="translate(3.2500, 1.7500)">
<path id="Vector" fill-rule="evenodd" clip-rule="evenodd" d="M1.5 2.75C1.5 2.05964 2.05964 1.5 2.75 1.5H16V14H11.75H2.75C2.29989 14 1.87503 14.1081 1.5 14.2999V2.75ZM0 16.75V2.75C0 1.23122 1.23122 0 2.75 0H16.15C16.8956 0 17.5 0.604415 17.5 1.35V14.4643C17.5 14.5131 17.4953 14.5609 17.4864 14.6071C17.4953 14.6534 17.5 14.7011 17.5 14.75V19.75C17.5 20.0241 17.3505 20.2763 17.1101 20.4079C16.8696 20.5395 16.5766 20.5294 16.3457 20.3817L14.25 19.0404L12.1543 20.3817C11.9234 20.5294 11.6304 20.5395 11.3899 20.4079C11.1495 20.2763 11 20.0241 11 19.75V15.5H2.75C2.05964 15.5 1.5 16.0596 1.5 16.75C1.5 17.4404 2.05964 18 2.75 18H8.25C8.66421 18 9 18.3358 9 18.75C9 19.1642 8.66421 19.5 8.25 19.5H2.75C1.23122 19.5 0 18.2688 0 16.75ZM12.5 15.5H16V18.3796L14.6543 17.5183C14.4078 17.3606 14.0922 17.3606 13.8457 17.5183L12.5 18.3796V15.5Z" fill="#292927"/>
</g>
</svg>
