<svg preserveAspectRatio="xMidYMid meet" overflow="visible" style="display: block;" viewBox="0 0 24 24" fill="none" xmlns="http://www.w3.org/2000/svg">
<g transform="translate(3.2500, 3.2500)">
<path id="Vector" fill-rule="evenodd" clip-rule="evenodd" d="M16 14.75C16 15.4404 15.4404 16 14.75 16H2.75C2.05964 16 1.5 15.4404 1.5 14.75V2.75C1.5 2.05964 2.05965 1.5 2.75 1.5H7.99999V5.75C7.99999 6.16421 8.33578 6.5 8.74999 6.5C9.16421 6.5 9.49999 6.16421 9.49999 5.75V1.5H14.75C15.4403 1.5 16 2.05964 16 2.75L16 14.75ZM8.74999 0H14.75C16.2687 0 17.4999 1.23121 17.5 2.74999L17.5 14.75C17.5 16.2688 16.2688 17.5 14.75 17.5H2.75C1.23122 17.5 0 16.2688 0 14.75V2.75C0 1.23122 1.23122 0 2.75 0H8.74999Z" fill="#292927"/>
</g>
</svg>
