<svg preserveAspectRatio="xMidYMid meet" overflow="visible" style="display: block;" viewBox="0 0 24 24" fill="none" xmlns="http://www.w3.org/2000/svg">
<g transform="translate(1.7500, 1.7500)">
<path id="Vector" fill-rule="evenodd" clip-rule="evenodd" d="M0 0.75C0 0.335786 0.335786 0 0.75 0H3.75C4.16421 0 4.5 0.335786 4.5 0.75C4.5 1.16421 4.16421 1.5 3.75 1.5H1.5V3.75C1.5 4.16421 1.16421 4.5 0.75 4.5C0.335786 4.5 0 4.16421 0 3.75V0.75ZM1.5 7.25C1.5 6.83579 1.16421 6.5 0.75 6.5C0.335786 6.5 0 6.83579 0 7.25V12.25C0 12.6642 0.335786 13 0.75 13C1.16421 13 1.5 12.6642 1.5 12.25V7.25ZM10.6577 11.6748L12.059 9.5H15.441L16.8423 11.6748C17.0909 12.0606 17.5183 12.2937 17.9772 12.2937H19V19H8.5V12.2937H9.52283C9.98169 12.2937 10.4091 12.0606 10.6577 11.6748ZM11.9772 8C11.5183 8 11.0909 8.23308 10.8423 8.6188L9.44104 10.7937H8.35C7.60442 10.7937 7 11.3981 7 12.1437V19.15C7 19.8956 7.60442 20.5 8.35 20.5H19.15C19.8956 20.5 20.5 19.8956 20.5 19.15V12.1437C20.5 11.3981 19.8956 10.7937 19.15 10.7937H18.059L16.6577 8.6188C16.4091 8.23308 15.9817 8 15.5228 8H11.9772ZM12.5 14.75C12.5 14.0596 13.0596 13.5 13.75 13.5C14.4404 13.5 15 14.0596 15 14.75C15 15.4404 14.4404 16 13.75 16C13.0596 16 12.5 15.4404 12.5 14.75ZM13.75 12C12.2312 12 11 13.2312 11 14.75C11 16.2688 12.2312 17.5 13.75 17.5C15.2688 17.5 16.5 16.2688 16.5 14.75C16.5 13.2312 15.2688 12 13.75 12ZM0.75 15C1.16421 15 1.5 15.3358 1.5 15.75V18H3.25C3.66421 18 4 18.3358 4 18.75C4 19.1642 3.66421 19.5 3.25 19.5H0.75C0.335786 19.5 0 19.1642 0 18.75V15.75C0 15.3358 0.335786 15 0.75 15ZM7.25 0C6.83579 0 6.5 0.335786 6.5 0.75C6.5 1.16421 6.83579 1.5 7.25 1.5H12.25C12.6642 1.5 13 1.16421 13 0.75C13 0.335786 12.6642 0 12.25 0H7.25ZM15 0.75C15 0.335786 15.3358 0 15.75 0H18.75C19.1642 0 19.5 0.335786 19.5 0.75V3.25C19.5 3.66421 19.1642 4 18.75 4C18.3358 4 18 3.66421 18 3.25V1.5H15.75C15.3358 1.5 15 1.16421 15 0.75ZM19.5 6.25C19.5 5.83579 19.1642 5.5 18.75 5.5C18.3358 5.5 18 5.83579 18 6.25V7.75C18 8.16421 18.3358 8.5 18.75 8.5C19.1642 8.5 19.5 8.16421 19.5 7.75V6.25Z" fill="#292927"/>
</g>
</svg>
