<svg preserveAspectRatio="xMidYMid meet" overflow="visible" style="display: block;" viewBox="0 0 24 24" fill="none" xmlns="http://www.w3.org/2000/svg">
<g transform="translate(5.2500, 4.2500)">
<path id="Vector" fill-rule="evenodd" clip-rule="evenodd" d="M3.5 0.75C3.5 0.335786 3.16421 0 2.75 0C2.33579 0 2 0.335786 2 0.75V6.75C2 9.37335 4.12665 11.5 6.75 11.5C9.37335 11.5 11.5 9.37335 11.5 6.75V0.75C11.5 0.335786 11.1642 0 10.75 0C10.3358 0 10 0.335786 10 0.75V6.75C10 8.54493 8.54493 10 6.75 10C4.95507 10 3.5 8.54493 3.5 6.75V0.75ZM0.75 14C0.335786 14 0 14.3358 0 14.75C0 15.1642 0.335787 15.5 0.75 15.5L12.75 15.5C13.1642 15.5 13.5 15.1642 13.5 14.75C13.5 14.3358 13.1642 14 12.75 14L0.75 14Z" fill="#292927"/>
</g>
</svg>
