<svg preserveAspectRatio="xMidYMid meet" overflow="visible" style="display: block;" viewBox="0 0 24 24" fill="none" xmlns="http://www.w3.org/2000/svg">
<g transform="translate(1.2500, 3.7500)">
<path id="Vector" fill-rule="evenodd" clip-rule="evenodd" d="M0 0.75C0 0.335786 0.335786 0 0.75 0H18.75C19.1642 0 19.5 0.335786 19.5 0.75C19.5 1.16421 19.1642 1.5 18.75 1.5H0.75C0.335786 1.5 0 1.16421 0 0.75ZM0.75 6C0.335786 6 0 6.33579 0 6.75C0 7.16421 0.335786 7.5 0.75 7.5H14.75C15.1642 7.5 15.5 7.16421 15.5 6.75C15.5 6.33579 15.1642 6 14.75 6H0.75ZM0.75 12C0.335786 12 0 12.3358 0 12.75C0 13.1642 0.335786 13.5 0.75 13.5H11.75C12.1642 13.5 12.5 13.1642 12.5 12.75C12.5 12.3358 12.1642 12 11.75 12H0.75ZM20.75 6.5H19.5V14.25C19.5 15.4926 18.4926 16.5 17.25 16.5C16.0074 16.5 15 15.4926 15 14.25C15 13.0074 16.0074 12 17.25 12C17.513 12 17.7654 12.0451 18 12.128V6.35C18 5.60439 18.6044 5 19.35 5H20.75C21.1642 5 21.5 5.33579 21.5 5.75C21.5 6.16421 21.1642 6.5 20.75 6.5ZM17.25 13.5C17.6642 13.5 18 13.8358 18 14.25C18 14.6642 17.6642 15 17.25 15C16.8358 15 16.5 14.6642 16.5 14.25C16.5 13.8358 16.8358 13.5 17.25 13.5Z" fill="#292927"/>
</g>
</svg>
