<svg preserveAspectRatio="xMidYMid meet" overflow="visible" style="display: block;" viewBox="0 0 24 24" fill="none" xmlns="http://www.w3.org/2000/svg">
<g transform="translate(0.2500, 2.5000)">
<path id="Vector" fill-rule="evenodd" clip-rule="evenodd" d="M19.75 0C20.1642 0 20.5 0.335786 20.5 0.75V3H22.75C23.1642 3 23.5 3.33579 23.5 3.75C23.5 4.16421 23.1642 4.5 22.75 4.5H20.5V6.75C20.5 7.16421 20.1642 7.5 19.75 7.5C19.3358 7.5 19 7.16421 19 6.75V4.5H16.75C16.3358 4.5 16 4.16421 16 3.75C16 3.33579 16.3358 3 16.75 3H19V0.75C19 0.335786 19.3358 0 19.75 0ZM14.4942 1.15706C14.5456 1.56808 14.254 1.94292 13.843 1.99429L6.5 2.91209V13.25V16.25C6.5 17.7688 5.26878 19 3.75 19H2.75C1.23122 19 0 17.7688 0 16.25V15.25C0 13.7312 1.23122 12.5 2.75 12.5H5V2.25C5 1.87175 5.28166 1.5527 5.65698 1.50579L13.657 0.50587C14.068 0.454497 14.4428 0.746045 14.4942 1.15706ZM15.5 7.25C15.5 6.83579 15.1642 6.5 14.75 6.5C14.3358 6.5 14 6.83579 14 7.25V10.5H11.75C10.2312 10.5 9 11.7312 9 13.25V14.25C9 15.7688 10.2312 17 11.75 17H12.75C14.2688 17 15.5 15.7688 15.5 14.25V11.25V7.25ZM11.75 12C11.0596 12 10.5 12.5596 10.5 13.25V14.25C10.5 14.9404 11.0596 15.5 11.75 15.5H12.75C13.4404 15.5 14 14.9404 14 14.25V12H11.75ZM1.5 15.25C1.5 14.5596 2.05964 14 2.75 14H5V16.25C5 16.9404 4.44036 17.5 3.75 17.5H2.75C2.05964 17.5 1.5 16.9404 1.5 16.25V15.25Z" fill="#292927"/>
</g>
</svg>
