<svg preserveAspectRatio="xMidYMid meet" overflow="visible" style="display: block;" viewBox="0 0 24 24" fill="none" xmlns="http://www.w3.org/2000/svg">
<g transform="translate(1.2500, 1.2500)">
<path id="Vector" fill-rule="evenodd" clip-rule="evenodd" d="M1.5 10.75C1.5 5.64137 5.64137 1.5 10.75 1.5C15.8586 1.5 20 5.64137 20 10.75C20 15.8586 15.8586 20 10.75 20C5.64137 20 1.5 15.8586 1.5 10.75ZM10.75 0C4.81294 0 0 4.81294 0 10.75C0 16.6871 4.81294 21.5 10.75 21.5C16.6871 21.5 21.5 16.6871 21.5 10.75C21.5 4.81294 16.6871 0 10.75 0ZM8.5 8.75C8.5 8.05964 9.05964 7.5 9.75 7.5H11.75C12.4404 7.5 13 8.05964 13 8.75V13.3486L12.2754 12.8656C11.3517 12.2497 10.1483 12.2497 9.22458 12.8656L8.5 13.3486V8.75ZM9.75 6C8.23122 6 7 7.23122 7 8.75V14.75C7 15.0266 7.15224 15.2807 7.39611 15.4113C7.63997 15.5418 7.93588 15.5275 8.16603 15.374L10.0566 14.1136C10.4765 13.8337 11.0235 13.8337 11.4434 14.1136L13.334 15.374C13.5641 15.5275 13.86 15.5418 14.1039 15.4113C14.3478 15.2807 14.5 15.0266 14.5 14.75V8.75C14.5 7.23122 13.2688 6 11.75 6H9.75Z" fill="#292927"/>
</g>
</svg>
