<svg preserveAspectRatio="xMidYMid meet" overflow="visible" style="display: block;" viewBox="0 0 24 24" fill="none" xmlns="http://www.w3.org/2000/svg">
<g transform="translate(4.2500, 5.2500)">
<path id="Vector" fill-rule="evenodd" clip-rule="evenodd" d="M7.28033 1.28033C7.57322 0.987437 7.57322 0.512563 7.28033 0.21967C6.98744 -0.0732233 6.51256 -0.0732233 6.21967 0.21967L0.21967 6.21967C-0.0732233 6.51256 -0.0732233 6.98744 0.21967 7.28033L6.21967 13.2803C6.51256 13.5732 6.98744 13.5732 7.28033 13.2803C7.57322 12.9874 7.57322 12.5126 7.28033 12.2197L1.81066 6.75L7.28033 1.28033ZM15.2803 1.28033C15.5732 0.987437 15.5732 0.512563 15.2803 0.21967C14.9874 -0.0732233 14.5126 -0.0732233 14.2197 0.21967L8.21967 6.21967C7.92678 6.51256 7.92678 6.98744 8.21967 7.28033L14.2197 13.2803C14.5126 13.5732 14.9874 13.5732 15.2803 13.2803C15.5732 12.9874 15.5732 12.5126 15.2803 12.2197L9.81066 6.75L15.2803 1.28033Z" fill="#292927"/>
</g>
</svg>
