<svg preserveAspectRatio="xMidYMid meet" overflow="visible" style="display: block;" viewBox="0 0 24 24" fill="none" xmlns="http://www.w3.org/2000/svg">
<g transform="translate(1.2500, 1.7500)">
<path id="Vector" fill-rule="evenodd" clip-rule="evenodd" d="M1.5 2.75C1.5 2.05964 2.05964 1.5 2.75 1.5H18.75C19.4404 1.5 20 2.05964 20 2.75V4H1.5V2.75ZM0 4.75V2.75C0 1.23122 1.23122 0 2.75 0H18.75C20.2688 0 21.5 1.23122 21.5 2.75V4.75V10.75C21.5 11.1642 21.1642 11.5 20.75 11.5C20.3358 11.5 20 11.1642 20 10.75V5.5H1.5V16.75C1.5 17.4404 2.05964 18 2.75 18H10.75C11.1642 18 11.5 18.3358 11.5 18.75C11.5 19.1642 11.1642 19.5 10.75 19.5H2.75C1.23122 19.5 0 18.2688 0 16.75V4.75ZM4.26173 2.19058C4.56961 2.46768 4.59457 2.9419 4.31748 3.24978L4.30748 3.26089C4.03038 3.56877 3.55616 3.59373 3.24828 3.31663C2.9404 3.03954 2.91544 2.56532 3.19254 2.25744L3.20254 2.24633C3.47963 1.93845 3.95385 1.91349 4.26173 2.19058ZM7.31748 3.24978C7.59457 2.9419 7.56961 2.46768 7.26173 2.19058C6.95385 1.91349 6.47963 1.93845 6.20254 2.24633L6.19254 2.25744C5.91544 2.56532 5.9404 3.03954 6.24828 3.31663C6.55616 3.59373 7.03038 3.56877 7.30748 3.26089L7.31748 3.24978ZM10.2617 2.19058C10.5696 2.46768 10.5946 2.9419 10.3175 3.24978L10.3075 3.26089C10.0304 3.56877 9.55616 3.59373 9.24828 3.31663C8.9404 3.03954 8.91544 2.56532 9.19254 2.25744L9.20254 2.24633C9.47963 1.93845 9.95385 1.91349 10.2617 2.19058ZM14.5 16.25C14.5 14.7312 15.7312 13.5 17.25 13.5C17.747 13.5 18.2127 13.6314 18.6149 13.8619L14.835 17.5669C14.6212 17.1758 14.5 16.7274 14.5 16.25ZM15.8851 18.6381L19.665 14.9331C19.8788 15.3242 20 15.7726 20 16.25C20 17.7688 18.7688 19 17.25 19C16.753 19 16.2873 18.8686 15.8851 18.6381ZM17.25 12C14.9028 12 13 13.9028 13 16.25C13 17.4081 13.4642 18.4592 14.2149 19.225C14.9854 20.011 16.0613 20.5 17.25 20.5C19.5972 20.5 21.5 18.5972 21.5 16.25C21.5 15.0919 21.0358 14.0408 20.2851 13.275C19.5146 12.489 18.4387 12 17.25 12Z" fill="#292927"/>
</g>
</svg>
