<svg preserveAspectRatio="xMidYMid meet" overflow="visible" style="display: block;" viewBox="0 0 24 24" fill="none" xmlns="http://www.w3.org/2000/svg">
<g transform="translate(1.2499, 1.7500)">
<path id="Vector" fill-rule="evenodd" clip-rule="evenodd" d="M2.75 1.5C2.05964 1.5 1.5 2.05964 1.5 2.75V4H20V2.75C20 2.05964 19.4404 1.5 18.75 1.5H2.75ZM0 2.75V4.75V16.75C0 18.2688 1.23122 19.5 2.75 19.5H9.75C10.1642 19.5 10.5 19.1642 10.5 18.75C10.5 18.3358 10.1642 18 9.75 18H2.75C2.05964 18 1.5 17.4404 1.5 16.75V5.5H20V9.75C20 10.1642 20.3358 10.5 20.75 10.5C21.1642 10.5 21.5 10.1642 21.5 9.75V4.75V2.75C21.5 1.23122 20.2688 0 18.75 0H2.75C1.23122 0 0 1.23122 0 2.75ZM4.31748 3.24978C4.59457 2.9419 4.56961 2.46768 4.26173 2.19058C3.95385 1.91349 3.47963 1.93845 3.20254 2.24633L3.19254 2.25744C2.91544 2.56532 2.9404 3.03954 3.24828 3.31663C3.55616 3.59373 4.03038 3.56877 4.30748 3.26089L4.31748 3.24978ZM7.26173 2.19058C7.56961 2.46768 7.59457 2.9419 7.31748 3.24978L7.30748 3.26089C7.03038 3.56877 6.55616 3.59373 6.24828 3.31663C5.9404 3.03954 5.91544 2.56532 6.19254 2.25744L6.20254 2.24633C6.47963 1.93845 6.95385 1.91349 7.26173 2.19058ZM10.3175 3.24978C10.5946 2.9419 10.5696 2.46768 10.2617 2.19058C9.95385 1.91349 9.47963 1.93845 9.20254 2.24633L9.19254 2.25744C8.91544 2.56532 8.9404 3.03954 9.24828 3.31663C9.55616 3.59373 10.0304 3.56877 10.3075 3.26089L10.3175 3.24978ZM16.7403 12.5C15.3617 12.5 14.1229 13.4887 13.6633 14.972C13.5407 15.3677 13.1205 15.589 12.7249 15.4664C12.3292 15.3438 12.1079 14.9236 12.2305 14.528C12.8527 12.5203 14.602 11 16.7403 11C18.0176 11 19.1575 11.5437 20.0002 12.4091V12.3008C20.0002 11.8866 20.336 11.5508 20.7502 11.5508C21.1644 11.5508 21.5002 11.8866 21.5002 12.3008V13.923C21.5002 14.6686 20.8958 15.273 20.1502 15.273H18.7452C18.331 15.273 17.9952 14.9372 17.9952 14.523C17.9952 14.1088 18.331 13.773 18.7452 13.773H19.2018C18.5932 12.9792 17.7016 12.5 16.7403 12.5ZM16.76 19C18.1385 19 19.3773 18.0113 19.837 16.528C19.9596 16.1323 20.3797 15.911 20.7754 16.0336C21.171 16.1562 21.3924 16.5764 21.2697 16.972C20.6476 18.9797 18.8982 20.5 16.76 20.5C15.4826 20.5 14.3427 19.9563 13.5001 19.0909V19.1992C13.5001 19.6134 13.1643 19.9492 12.7501 19.9492C12.3358 19.9492 12.0001 19.6134 12.0001 19.1992V17.577C12.0001 16.8314 12.6045 16.227 13.3501 16.227H14.755C15.1692 16.227 15.505 16.5628 15.505 16.977C15.505 17.3912 15.1692 17.727 14.755 17.727H14.2984C14.9071 18.5208 15.7986 19 16.76 19Z" fill="#292927"/>
</g>
</svg>
