<svg preserveAspectRatio="xMidYMid meet" overflow="visible" style="display: block;" viewBox="0 0 24 24" fill="none" xmlns="http://www.w3.org/2000/svg">
<g transform="translate(3.2500, 2.2500)">
<path id="Vector" fill-rule="evenodd" clip-rule="evenodd" d="M1.35 0C0.604417 0 0 0.604415 0 1.35V3.75C0 4.16421 0.335786 4.5 0.75 4.5C1.16421 4.5 1.5 4.16421 1.5 3.75V1.5H16V3.75C16 4.16421 16.3358 4.5 16.75 4.5C17.1642 4.5 17.5 4.16421 17.5 3.75V1.35C17.5 0.604415 16.8956 0 16.15 0H1.35ZM8.5681 6.02239C8.96994 5.92193 9.37715 6.16625 9.47761 6.5681L10.25 9.65767L11.0224 6.5681C11.1229 6.16625 11.5301 5.92193 11.9319 6.02239C12.3337 6.12285 12.5781 6.53006 12.4776 6.9319L10.9776 12.9319C10.8941 13.2658 10.5942 13.5 10.25 13.5C9.90585 13.5 9.60586 13.2658 9.52239 12.9319L8.02239 6.9319C7.92193 6.53006 8.16625 6.12285 8.5681 6.02239ZM14.75 13.5C14.3358 13.5 14 13.1642 14 12.75V6.75C14 6.33579 14.3358 6 14.75 6C15.1642 6 15.5 6.33579 15.5 6.75V12.75C15.5 13.1642 15.1642 13.5 14.75 13.5ZM0 18.15C0 18.8956 0.604417 19.5 1.35 19.5H16.15C16.8956 19.5 17.5 18.8956 17.5 18.15V15.75C17.5 15.3358 17.1642 15 16.75 15C16.3358 15 16 15.3358 16 15.75V18H1.5V15.75C1.5 15.3358 1.16421 15 0.75 15C0.335786 15 0 15.3358 0 15.75V18.15ZM6.5 8.25C6.5 7.00736 5.49264 6 4.25 6C3.00736 6 2 7.00736 2 8.25V12.75C2 13.1642 2.33579 13.5 2.75 13.5C3.16421 13.5 3.5 13.1642 3.5 12.75V10.5H5V12.75C5 13.1642 5.33579 13.5 5.75 13.5C6.16421 13.5 6.5 13.1642 6.5 12.75V8.25ZM5 8.25V9H3.5V8.25C3.5 7.83579 3.83579 7.5 4.25 7.5C4.66421 7.5 5 7.83579 5 8.25Z" fill="#292927"/>
</g>
</svg>
