<svg preserveAspectRatio="xMidYMid meet" overflow="visible" style="display: block;" viewBox="0 0 24 24" fill="none" xmlns="http://www.w3.org/2000/svg">
<g transform="translate(4.2500, 4.2500)">
<path id="Vector" fill-rule="evenodd" clip-rule="evenodd" d="M0.21967 0.21967C0.360322 0.0790176 0.551088 0 0.75 0H1.75C2.16421 0 2.5 0.335786 2.5 0.75L2.5 0.750855L2.5 14.75C2.5 14.9489 2.42098 15.1397 2.28033 15.2803C2.13968 15.421 1.94891 15.5 1.75 15.5H0.75C0.335787 15.5 0 15.1642 0 14.75V0.75C0 0.551088 0.0790177 0.360322 0.21967 0.21967ZM7.21967 0.21967C7.36032 0.0790176 7.55109 0 7.75 0H8.75C9.16421 0 9.5 0.335786 9.5 0.75V14.75C9.5 14.9489 9.42098 15.1397 9.28033 15.2803C9.13968 15.421 8.94891 15.5 8.75 15.5H7.75C7.72411 15.5 7.69853 15.4987 7.67332 15.4961C7.29513 15.4577 7 15.1383 7 14.75C7 14.7497 7 14.7494 7 14.7491L7 0.75C7 0.551088 7.07902 0.360322 7.21967 0.21967ZM5.5 0.75C5.5 0.335786 5.16421 0 4.75 0C4.33579 0 4 0.335786 4 0.75L4 14.75C4 15.1642 4.33579 15.5 4.75 15.5C5.16421 15.5 5.5 15.1642 5.5 14.75L5.5 0.75ZM11.75 0C12.1642 0 12.5 0.335786 12.5 0.75V14.75C12.5 15.1642 12.1642 15.5 11.75 15.5C11.3358 15.5 11 15.1642 11 14.75V0.75C11 0.335786 11.3358 0 11.75 0ZM15.5 0.75C15.5 0.335786 15.1642 0 14.75 0C14.3358 0 14 0.335786 14 0.75V14.75C14 15.1642 14.3358 15.5 14.75 15.5C15.1642 15.5 15.5 15.1642 15.5 14.75V0.75Z" fill="#292927"/>
</g>
</svg>
