<svg preserveAspectRatio="xMidYMid meet" overflow="visible" style="display: block;" viewBox="0 0 24 24" fill="none" xmlns="http://www.w3.org/2000/svg">
<g transform="translate(7.6415, 3.2500)">
<path id="Vector" fill-rule="evenodd" clip-rule="evenodd" d="M2.55273 5.28147L2.54746 5.27473C2.54216 5.26793 2.53347 5.25668 2.52183 5.2413C2.49852 5.2105 2.46353 5.16331 2.42026 5.10212C2.33342 4.97931 2.21499 4.80258 2.09147 4.59084C1.83656 4.15385 1.59428 3.62548 1.52127 3.13874C1.45162 2.67445 1.54236 2.34419 1.82639 2.09721C2.16091 1.80632 2.90576 1.5 4.46709 1.5H7.96705C8.38126 1.5 8.71705 1.16421 8.71705 0.75C8.71705 0.335786 8.38126 0 7.96705 0H4.46709C2.77838 -5.96046e-08 1.58573 0.318681 0.84212 0.965295C0.0480209 1.65581 -0.0799942 2.57555 0.0378659 3.36126C0.152358 4.12451 0.503841 4.84615 0.79581 5.34666C0.945737 5.60367 1.08903 5.81756 1.19554 5.96819C1.2029 5.97858 1.21008 5.98869 1.21709 5.99849V14.75C1.21709 16.2688 2.4483 17.5 3.96709 17.5H6.96709C7.3813 17.5 7.71709 17.1642 7.71709 16.75C7.71709 16.3358 7.3813 16 6.96709 16H3.96709C3.27673 16 2.71709 15.4404 2.71709 14.75V5.75C2.71709 5.5799 2.65887 5.41438 2.55273 5.28147L2.55342 5.28233Z" fill="#292927"/>
</g>
</svg>
