<svg preserveAspectRatio="xMidYMid meet" overflow="visible" style="display: block;" viewBox="0 0 24 24" fill="none" xmlns="http://www.w3.org/2000/svg">
<g transform="translate(2.2468, 2.0858)">
<path id="Vector" fill-rule="evenodd" clip-rule="evenodd" d="M12.8761 0.000629157C13.0855 -0.00794764 13.2889 0.07148 13.4371 0.219671L19.2868 6.06936C19.435 6.21755 19.5144 6.42099 19.5058 6.63039C19.4972 6.8398 19.4014 7.03606 19.2416 7.17163L14.9343 10.8255C14.6184 11.0934 14.1451 11.0546 13.8772 10.7387C13.6092 10.4228 13.6481 9.94956 13.9639 9.68161L17.6505 6.55437L12.9521 1.85596L9.80661 5.56377C9.53865 5.87964 9.06536 5.91847 8.7495 5.65051C8.43363 5.38255 8.3948 4.90927 8.66276 4.59341L12.3348 0.264818C12.4704 0.105005 12.6667 0.00920594 12.8761 0.000629157ZM14.1849 15.574L18.2197 19.6088C18.5126 19.9017 18.9874 19.9017 19.2803 19.6088C19.5732 19.3159 19.5732 18.841 19.2803 18.5481L1.28033 0.548146C0.987437 0.255253 0.512563 0.255253 0.21967 0.548146C-0.0732232 0.841039 -0.0732232 1.31591 0.21967 1.60881L3.93229 5.32143C3.92706 5.32636 3.9219 5.33138 3.9168 5.33648L2.21974 7.03354C1.92685 7.32643 1.92685 7.80131 2.21974 8.0942L6.44668 12.3211L0.21967 18.5481C-0.0732233 18.841 -0.0732233 19.3159 0.21967 19.6088C0.512563 19.9017 0.987437 19.9017 1.28033 19.6088L7.50734 13.3818L11.4121 17.2866C11.5528 17.4272 11.7435 17.5063 11.9425 17.5063C12.1414 17.5063 12.3321 17.4272 12.4728 17.2866L14.1698 15.5895C14.1749 15.5844 14.1799 15.5792 14.1849 15.574ZM12.7948 14.184L5.32233 6.71147L4.725 6.6496L3.81073 7.56387L11.9425 15.6956L12.8567 14.7813L12.7948 14.184Z" fill="#292927"/>
</g>
</svg>
