<svg preserveAspectRatio="xMidYMid meet" overflow="visible" style="display: block;" viewBox="0 0 24 24" fill="none" xmlns="http://www.w3.org/2000/svg">
<g transform="translate(1.2500, 7.2500)">
<path id="Vector" fill-rule="evenodd" clip-rule="evenodd" d="M13.5 4.75C13.5 2.95507 14.9551 1.5 16.75 1.5C18.5449 1.5 20 2.95507 20 4.75C20 6.54493 18.5449 8 16.75 8C14.9551 8 13.5 6.54493 13.5 4.75ZM16.75 0C14.3818 0 12.4185 1.73301 12.0589 4H4.75H0.75C0.335786 4 0 4.33579 0 4.75V7.75C0 8.16421 0.335786 8.5 0.75 8.5C1.16421 8.5 1.5 8.16421 1.5 7.75V5.5H4V7.75C4 8.16421 4.33579 8.5 4.75 8.5C5.16421 8.5 5.5 8.16421 5.5 7.75V5.5H12.0589C12.4185 7.76699 14.3818 9.5 16.75 9.5C19.3734 9.5 21.5 7.37335 21.5 4.75C21.5 2.12665 19.3734 0 16.75 0Z" fill="#292927"/>
</g>
</svg>
