<svg preserveAspectRatio="xMidYMid meet" overflow="visible" style="display: block;" viewBox="0 0 24 24" fill="none" xmlns="http://www.w3.org/2000/svg">
<g transform="translate(1.2500, 1.2500)">
<path id="Vector" fill-rule="evenodd" clip-rule="evenodd" d="M5.72458 1.59995C6.05562 1.53445 6.39842 1.5 6.75 1.5H7.75C8.16421 1.5 8.5 1.16421 8.5 0.75C8.5 0.335786 8.16421 0 7.75 0H6.75C6.30016 0 5.85988 0.0441086 5.43348 0.128463C5.02714 0.208849 4.7629 0.603417 4.84329 1.00976C4.92367 1.41609 5.31824 1.68033 5.72458 1.59995ZM9.75 0C9.33579 0 9 0.335786 9 0.75C9 1.16421 9.33579 1.5 9.75 1.5H11.75C12.1642 1.5 12.5 1.16421 12.5 0.75C12.5 0.335786 12.1642 0 11.75 0H9.75ZM13.75 0C13.3358 0 13 0.335786 13 0.75C13 1.16421 13.3358 1.5 13.75 1.5H14.75C15.1016 1.5 15.4444 1.53445 15.7754 1.59995C16.1818 1.68033 16.5763 1.41609 16.6567 1.00976C16.7371 0.603418 16.4729 0.208849 16.0665 0.128463C15.6401 0.0441086 15.1998 0 14.75 0H13.75ZM3.83355 2.38383C4.17774 2.1534 4.26997 1.68757 4.03953 1.34337C3.8091 0.999169 3.34327 0.906946 2.99907 1.13738C2.26329 1.62997 1.62997 2.26329 1.13738 2.99907C0.906946 3.34326 0.99917 3.8091 1.34337 4.03953C1.68757 4.26997 2.1534 4.17774 2.38383 3.83355C2.76734 3.2607 3.2607 2.76734 3.83355 2.38383ZM18.5009 1.13738C18.1567 0.906946 17.6909 0.99917 17.4605 1.34337C17.23 1.68757 17.3223 2.1534 17.6665 2.38383C18.2393 2.76734 18.7327 3.2607 19.1162 3.83355C19.3466 4.17774 19.8124 4.26997 20.1566 4.03953C20.5008 3.8091 20.5931 3.34327 20.3626 2.99907C19.87 2.26329 19.2367 1.62997 18.5009 1.13738ZM1.59995 5.72458C1.68033 5.31824 1.41609 4.92367 1.00976 4.84329C0.603418 4.7629 0.208849 5.02714 0.128463 5.43348C0.0441086 5.85988 0 6.30016 0 6.75V7.75C0 8.16421 0.335786 8.5 0.75 8.5C1.16421 8.5 1.5 8.16421 1.5 7.75V6.75C1.5 6.39842 1.53445 6.05562 1.59995 5.72458ZM21.3715 5.43348C21.2912 5.02714 20.8966 4.7629 20.4902 4.84329C20.0839 4.92367 19.8197 5.31824 19.9001 5.72458C19.9655 6.05562 20 6.39842 20 6.75V7.75C20 8.16421 20.3358 8.5 20.75 8.5C21.1642 8.5 21.5 8.16421 21.5 7.75V6.75C21.5 6.30016 21.4559 5.85988 21.3715 5.43348ZM1.5 9.75C1.5 9.33579 1.16421 9 0.75 9C0.335786 9 0 9.33579 0 9.75V11.75C0 12.1642 0.335786 12.5 0.75 12.5C1.16421 12.5 1.5 12.1642 1.5 11.75V9.75ZM21.5 9.75C21.5 9.33579 21.1642 9 20.75 9C20.3358 9 20 9.33579 20 9.75V11.75C20 12.1642 20.3358 12.5 20.75 12.5C21.1642 12.5 21.5 12.1642 21.5 11.75V9.75ZM1.5 13.75C1.5 13.3358 1.16421 13 0.75 13C0.335786 13 0 13.3358 0 13.75V14.75C0 15.1998 0.0441086 15.6401 0.128463 16.0665C0.208849 16.4729 0.603417 16.7371 1.00976 16.6567C1.41609 16.5763 1.68033 16.1818 1.59995 15.7754C1.53445 15.4444 1.5 15.1016 1.5 14.75V13.75ZM21.5 13.75C21.5 13.3358 21.1642 13 20.75 13C20.3358 13 20 13.3358 20 13.75V14.75C20 15.1016 19.9655 15.4444 19.9001 15.7754C19.8197 16.1818 20.0839 16.5763 20.4902 16.6567C20.8966 16.7371 21.2912 16.4729 21.3715 16.0665C21.4559 15.6401 21.5 15.1998 21.5 14.75V13.75ZM2.38383 17.6665C2.1534 17.3223 1.68757 17.23 1.34337 17.4605C0.999169 17.6909 0.906946 18.1567 1.13738 18.5009C1.62997 19.2367 2.26329 19.87 2.99907 20.3626C3.34326 20.5931 3.8091 20.5008 4.03953 20.1566C4.26997 19.8124 4.17774 19.3466 3.83355 19.1162C3.2607 18.7327 2.76734 18.2393 2.38383 17.6665ZM20.3626 18.5009C20.5931 18.1567 20.5008 17.6909 20.1566 17.4605C19.8124 17.23 19.3466 17.3223 19.1162 17.6665C18.7327 18.2393 18.2393 18.7327 17.6665 19.1162C17.3223 19.3466 17.23 19.8124 17.4605 20.1566C17.6909 20.5008 18.1567 20.5931 18.5009 20.3626C19.2367 19.87 19.87 19.2367 20.3626 18.5009ZM5.72458 19.9001C5.31824 19.8197 4.92367 20.0839 4.84329 20.4902C4.7629 20.8966 5.02714 21.2912 5.43348 21.3715C5.85988 21.4559 6.30016 21.5 6.75 21.5H7.75C8.16421 21.5 8.5 21.1642 8.5 20.75C8.5 20.3358 8.16421 20 7.75 20H6.75C6.39842 20 6.05562 19.9655 5.72458 19.9001ZM16.0665 21.3715C16.4729 21.2912 16.7371 20.8966 16.6567 20.4902C16.5763 20.0839 16.1818 19.8197 15.7754 19.9001C15.4444 19.9655 15.1016 20 14.75 20H13.75C13.3358 20 13 20.3358 13 20.75C13 21.1642 13.3358 21.5 13.75 21.5H14.75C15.1998 21.5 15.6401 21.4559 16.0665 21.3715ZM9.75 20C9.33579 20 9 20.3358 9 20.75C9 21.1642 9.33579 21.5 9.75 21.5H11.75C12.1642 21.5 12.5 21.1642 12.5 20.75C12.5 20.3358 12.1642 20 11.75 20H9.75ZM6.75 3C4.67893 3 3 4.67893 3 6.75V14.75C3 16.8211 4.67893 18.5 6.75 18.5H14.75C16.8211 18.5 18.5 16.8211 18.5 14.75V6.75C18.5 4.67893 16.8211 3 14.75 3H6.75ZM4.5 6.75C4.5 5.50736 5.50736 4.5 6.75 4.5H14.75C15.9926 4.5 17 5.50736 17 6.75V14.75C17 15.9926 15.9926 17 14.75 17H6.75C5.50736 17 4.5 15.9926 4.5 14.75V6.75Z" fill="#292927"/>
</g>
</svg>
