<svg preserveAspectRatio="xMidYMid meet" overflow="visible" style="display: block;" viewBox="0 0 24 24" fill="none" xmlns="http://www.w3.org/2000/svg">
<g transform="translate(2.2500, 5.2500)">
<path id="Vector" fill-rule="evenodd" clip-rule="evenodd" d="M0.75 0C0.335786 0 0 0.335786 0 0.75C0 1.16421 0.335786 1.5 0.75 1.5H18.75C19.1642 1.5 19.5 1.16421 19.5 0.75C19.5 0.335786 19.1642 0 18.75 0H0.75ZM0.75 8C0.335786 8 0 8.33579 0 8.75C0 9.16421 0.335786 9.5 0.75 9.5H18.75C19.1642 9.5 19.5 9.16421 19.5 8.75C19.5 8.33579 19.1642 8 18.75 8H0.75ZM3 4.75C3 4.33579 3.33579 4 3.75 4L15.75 4C16.1642 4 16.5 4.33579 16.5 4.75C16.5 5.16421 16.1642 5.5 15.75 5.5L3.75 5.5C3.33579 5.5 3 5.16421 3 4.75ZM3.75 12C3.33579 12 3 12.3358 3 12.75C3 13.1642 3.33579 13.5 3.75 13.5L15.75 13.5C16.1642 13.5 16.5 13.1642 16.5 12.75C16.5 12.3358 16.1642 12 15.75 12L3.75 12Z" fill="#292927"/>
</g>
</svg>
