<svg preserveAspectRatio="xMidYMid meet" overflow="visible" style="display: block;" viewBox="0 0 24 24" fill="none" xmlns="http://www.w3.org/2000/svg">
<g transform="translate(1.2500, 2.2500)">
<path id="Vector" fill-rule="evenodd" clip-rule="evenodd" d="M7.5 2.75C7.5 2.05964 8.05964 1.5 8.75 1.5H12.75C13.4404 1.5 14 2.05964 14 2.75V9H7.5V2.75ZM6 9H0.75C0.335787 9 0 9.33579 0 9.75C0 10.1642 0.335787 10.5 0.75 10.5H6V16.75C6 18.2688 7.23122 19.5 8.75 19.5H12.75C14.2688 19.5 15.5 18.2688 15.5 16.75V10.5H20.75C21.1642 10.5 21.5 10.1642 21.5 9.75C21.5 9.33579 21.1642 9 20.75 9H15.5V2.75C15.5 1.23122 14.2688 0 12.75 0H8.75C7.23122 0 6 1.23122 6 2.75V9ZM14 10.5V16.75C14 17.4404 13.4404 18 12.75 18H8.75C8.05964 18 7.5 17.4404 7.5 16.75V10.5H14Z" fill="#292927"/>
</g>
</svg>
