<svg preserveAspectRatio="xMidYMid meet" overflow="visible" style="display: block;" viewBox="0 0 24 24" fill="none" xmlns="http://www.w3.org/2000/svg">
<g transform="translate(2.2500, 1.7500)">
<path id="Vector" fill-rule="evenodd" clip-rule="evenodd" d="M13.0863 1.5H14.75C16.5449 1.5 18 2.95507 18 4.75V10H1.35C0.604418 10 0 10.6044 0 11.35V13.75C0 16.3026 2.01343 18.3849 4.53876 18.4954L4.07917 19.4146C3.89393 19.785 4.0441 20.2355 4.41458 20.4208C4.78507 20.606 5.23557 20.4559 5.42082 20.0854L6.2135 18.5H13.2865L14.0792 20.0854C14.2644 20.4559 14.7149 20.606 15.0854 20.4208C15.4559 20.2355 15.6061 19.785 15.4208 19.4146L14.9612 18.4954C17.4866 18.3849 19.5 16.3026 19.5 13.75V10.75V4.75C19.5 2.12665 17.3734 0 14.75 0H9.75C7.87825 0 6.70272 0.942982 6.01113 2.05832C5.3448 3.13292 5.12244 4.36391 5.04469 5.07024C4.95466 5.88818 5.61797 6.5 6.35003 6.5H13.15C13.882 6.5 14.5453 5.88818 14.4553 5.07024C14.3776 4.3639 14.1552 3.13292 13.4889 2.05832C13.3695 1.86575 13.2356 1.67833 13.0863 1.5ZM14.75 17C16.5449 17 18 15.5449 18 13.75V11.5H1.5V13.75C1.5 15.5449 2.95507 17 4.75 17H5.73312C5.74474 16.9997 5.75638 16.9997 5.76803 17H13.732C13.7436 16.9997 13.7553 16.9997 13.7669 17H14.75ZM12.2141 2.84879C12.6485 3.54947 12.8469 4.38642 12.9347 5H6.56535C6.65305 4.38642 6.85147 3.54947 7.28594 2.8488C7.75353 2.09471 8.48487 1.5 9.75 1.5C11.0151 1.5 11.7465 2.09471 12.2141 2.84879Z" fill="#292927"/>
</g>
</svg>
