<svg preserveAspectRatio="xMidYMid meet" overflow="visible" style="display: block;" viewBox="0 0 24 24" fill="none" xmlns="http://www.w3.org/2000/svg">
<g transform="translate(1.2499, 2.2853)">
<path id="Vector" fill-rule="evenodd" clip-rule="evenodd" d="M0.0793439 6.01459C-0.105898 5.64411 0.0442702 5.1936 0.414754 5.00836L10.1464 0.142523C10.5265 -0.0475071 10.9738 -0.0475085 11.3539 0.142523L21.0856 5.00836C21.4561 5.1936 21.6062 5.64411 21.421 6.01459C21.2357 6.38508 20.7852 6.53524 20.4148 6.35L10.7502 1.51771L1.08557 6.35C0.715091 6.53524 0.264586 6.38507 0.0793439 6.01459ZM10.7502 11.4293C10.0598 11.4293 9.50017 11.989 9.50017 12.6793V15.6793C9.50017 16.0936 9.16438 16.4293 8.75017 16.4293C8.33595 16.4293 8.00017 16.0936 8.00017 15.6793V12.6793C8.00017 11.1606 9.23138 9.92934 10.7502 9.92934C12.269 9.92934 13.5002 11.1606 13.5002 12.6793V15.6793C13.5002 16.0936 13.1644 16.4293 12.7502 16.4293C12.336 16.4293 12.0002 16.0936 12.0002 15.6793V12.6793C12.0002 11.989 11.4405 11.4293 10.7502 11.4293ZM3.50017 8.67934C3.50017 8.26513 3.16438 7.92934 2.75017 7.92934C2.33595 7.92934 2.00017 8.26513 2.00017 8.67934V16.6793C2.00017 18.1981 3.23138 19.4293 4.75017 19.4293H16.7502C18.269 19.4293 19.5002 18.1981 19.5002 16.6793V8.67934C19.5002 8.26513 19.1644 7.92934 18.7502 7.92934C18.336 7.92934 18.0002 8.26513 18.0002 8.67934V16.6793C18.0002 17.3697 17.4405 17.9293 16.7502 17.9293H4.75017C4.05981 17.9293 3.50017 17.3697 3.50017 16.6793V8.67934Z" fill="#292927"/>
</g>
</svg>
