<svg preserveAspectRatio="xMidYMid meet" overflow="visible" style="display: block;" viewBox="0 0 24 24" fill="none" xmlns="http://www.w3.org/2000/svg">
<g transform="translate(3.1500, 4.9496)">
<path id="Vector" fill-rule="evenodd" clip-rule="evenodd" d="M2.51747 1.25173C2.79456 0.943848 2.7696 0.469631 2.46172 0.192536C2.15384 -0.0845583 1.67962 -0.0595998 1.40253 0.248283L1.39253 0.259394C1.11543 0.567276 1.14039 1.04149 1.44827 1.31859C1.75616 1.59568 2.23037 1.57072 2.50747 1.26284L2.51747 1.25173ZM5.94999 0.000976636C5.53578 0.000976596 5.19999 0.336763 5.19999 0.750977C5.19999 1.16519 5.53578 1.50098 5.94999 1.50098L16.95 1.50098C17.3642 1.50098 17.7 1.16519 17.7 0.750978C17.7 0.336764 17.3642 0.000977724 16.95 0.000977685L5.94999 0.000976636ZM2.46172 6.19254C2.7696 6.46963 2.79456 6.94385 2.51747 7.25173L2.50747 7.26284C2.23037 7.57072 1.75616 7.59568 1.44827 7.31859C1.14039 7.04149 1.11543 6.56728 1.39253 6.25939L1.40253 6.24828C1.67962 5.9404 2.15384 5.91544 2.46172 6.19254ZM1.28033 12.0205C0.987437 11.7276 0.512563 11.7276 0.21967 12.0205C-0.0732233 12.3133 -0.0732233 12.7882 0.21967 13.0811L1.01967 13.8811C1.31256 14.174 1.78743 14.174 2.08033 13.8811L4.08032 11.8811C4.37321 11.5882 4.37321 11.1133 4.08032 10.8205C3.78743 10.5276 3.31255 10.5276 3.01966 10.8205L1.55 12.2901L1.28033 12.0205ZM5.19999 6.75098C5.19999 6.33676 5.53578 6.00098 5.94999 6.00098L16.95 6.00098C17.3642 6.00098 17.7 6.33676 17.7 6.75098C17.7 7.16519 17.3642 7.50098 16.95 7.50098L5.94999 7.50098C5.53578 7.50098 5.19999 7.16519 5.19999 6.75098ZM5.94999 12.001C5.53578 12.001 5.19999 12.3368 5.19999 12.751C5.19999 13.1652 5.53578 13.501 5.94999 13.501L16.95 13.501C17.3642 13.501 17.7 13.1652 17.7 12.751C17.7 12.3368 17.3642 12.001 16.95 12.001L5.94999 12.001Z" fill="#292927"/>
</g>
</svg>
