<svg preserveAspectRatio="xMidYMid meet" overflow="visible" style="display: block;" viewBox="0 0 24 24" fill="none" xmlns="http://www.w3.org/2000/svg">
<g transform="translate(2.3701, 1.5244)">
<path id="Vector" fill-rule="evenodd" clip-rule="evenodd" d="M10.2265 0.0654856C9.83354 -0.0218285 9.42625 -0.0218286 9.03333 0.0654855L1.37117 1.76819C0.482459 1.96568 -0.112102 2.81056 0.0177899 3.7198L1.88743 16.8073C1.93312 17.1271 2.0985 18.2149 3.22484 19.2011C4.33821 20.176 6.27404 20.9512 9.62989 20.9512C12.9857 20.9512 14.9216 20.176 16.0349 19.2011C17.1613 18.2149 17.3267 17.1271 17.3724 16.8073L19.242 3.7198C19.3719 2.81056 18.7773 1.96568 17.8886 1.76819L10.2265 0.0654856ZM9.35873 1.52977C9.53732 1.49008 9.72246 1.49008 9.90105 1.52977L17.5632 3.23247C17.6947 3.26168 17.775 3.38234 17.7571 3.50767L15.8863 16.6031C15.8598 16.7896 15.7671 17.4418 15.0468 18.0726C14.3029 18.724 12.774 19.4512 9.62989 19.4512C6.48574 19.4512 4.95693 18.724 4.21298 18.0726C3.49264 17.4418 3.39997 16.7896 3.37349 16.6031L1.50271 3.50767C1.48481 3.38234 1.5651 3.26168 1.69657 3.23247L9.35873 1.52977ZM10.1602 6.17084C9.86732 5.87795 9.39245 5.87795 9.09955 6.17084L6.09955 9.17084C5.80666 9.46374 5.80666 9.93861 6.09955 10.2315C6.39245 10.5244 6.86732 10.5244 7.16021 10.2315L8.87988 8.51183V13.7012C8.87988 14.1154 9.21567 14.4512 9.62988 14.4512C10.0441 14.4512 10.3799 14.1154 10.3799 13.7012V8.51183L12.0996 10.2315C12.3924 10.5244 12.8673 10.5244 13.1602 10.2315C13.4531 9.93861 13.4531 9.46374 13.1602 9.17084L10.1602 6.17084Z" fill="#292927"/>
</g>
</svg>
