<svg preserveAspectRatio="xMidYMid meet" overflow="visible" style="display: block;" viewBox="0 0 24 24" fill="none" xmlns="http://www.w3.org/2000/svg">
<g transform="translate(2.2500, 2.2500)">
<path id="Vector" fill-rule="evenodd" clip-rule="evenodd" d="M4.5 0.75C4.5 0.335786 4.16421 0 3.75 0C3.33579 0 3 0.335786 3 0.75V3H0.75C0.335786 3 0 3.33579 0 3.75C0 4.16421 0.335786 4.5 0.75 4.5H3L3 15H0.75C0.335786 15 0 15.3358 0 15.75C0 16.1642 0.335786 16.5 0.75 16.5H3V18.75C3 19.1642 3.33579 19.5 3.75 19.5C4.16421 19.5 4.5 19.1642 4.5 18.75V16.5H15V18.75C15 19.1642 15.3358 19.5 15.75 19.5C16.1642 19.5 16.5 19.1642 16.5 18.75V16.5H18.75C19.1642 16.5 19.5 16.1642 19.5 15.75C19.5 15.3358 19.1642 15 18.75 15H16.5V4.5H18.75C19.1642 4.5 19.5 4.16421 19.5 3.75C19.5 3.33579 19.1642 3 18.75 3H16.5V0.75C16.5 0.335786 16.1642 0 15.75 0C15.3358 0 15 0.335786 15 0.75V3L4.5 3V0.75ZM15 15L15 4.5L4.5 4.5L4.5 15L15 15Z" fill="#292927"/>
</g>
</svg>
