<svg preserveAspectRatio="xMidYMid meet" overflow="visible" style="display: block;" viewBox="0 0 24 24" fill="none" xmlns="http://www.w3.org/2000/svg">
<g transform="translate(3.1568, 2.5325)">
<path id="Vector" fill-rule="evenodd" clip-rule="evenodd" d="M9.76561 2.4519C8.49641 3.72111 8.49641 5.77889 9.76561 7.0481C11.0348 8.3173 13.0926 8.3173 14.3618 7.0481C15.631 5.77889 15.631 3.72111 14.3618 2.4519C13.0926 1.1827 11.0348 1.1827 9.76561 2.4519ZM8.21625 7.53679C6.86752 5.67953 7.03041 3.06578 8.70495 1.39124C10.5599 -0.463747 13.5675 -0.463748 15.4225 1.39124C17.2775 3.24623 17.2775 6.25377 15.4225 8.10876C13.7479 9.78329 11.1342 9.94619 9.27691 8.59745L4.63909 13.2353L6.23008 14.8263C6.52298 15.1192 6.52298 15.594 6.23008 15.8869C5.93719 16.1798 5.46232 16.1798 5.16942 15.8869L3.57843 14.2959L1.81066 16.0637L3.40165 17.6547C3.69454 17.9476 3.69454 18.4225 3.40165 18.7154C3.10876 19.0082 2.63388 19.0083 2.34099 18.7154L0.21967 16.594C-0.0732233 16.3011 -0.0732233 15.8263 0.21967 15.5334L3.0481 12.705L8.21625 7.53679ZM12.1635 12.5836C12.4564 12.2907 12.9312 12.2907 13.2241 12.5836L14.8151 14.1746L16.4061 12.5836C16.699 12.2907 17.1739 12.2907 17.4668 12.5836C17.7597 12.8765 17.7597 13.3514 17.4668 13.6443L15.8758 15.2353L17.4668 16.8263C17.7597 17.1192 17.7597 17.594 17.4668 17.8869C17.1739 18.1798 16.699 18.1798 16.4061 17.8869L14.8151 16.2959L13.2241 17.8869C12.9312 18.1798 12.4564 18.1798 12.1635 17.8869C11.8706 17.594 11.8706 17.1192 12.1635 16.8263L13.7545 15.2353L12.1635 13.6443C11.8706 13.3514 11.8706 12.8765 12.1635 12.5836Z" fill="#292927"/>
</g>
</svg>
