<svg preserveAspectRatio="xMidYMid meet" overflow="visible" style="display: block;" viewBox="0 0 24 24" fill="none" xmlns="http://www.w3.org/2000/svg">
<g transform="translate(5.2500, 4.2500)">
<path id="Vector" fill-rule="evenodd" clip-rule="evenodd" d="M1.5 14V1.5H4V14H1.5ZM1.35 0C0.604415 0 0 0.604416 0 1.35V14.15C0 14.8956 0.604415 15.5 1.35 15.5H4.15C4.89558 15.5 5.5 14.8956 5.5 14.15V1.35C5.5 0.604417 4.89559 0 4.15 0H1.35ZM9.5 14V1.5H12V14H9.5ZM9.35 0C8.60441 0 8 0.604416 8 1.35V14.15C8 14.8956 8.60441 15.5 9.35 15.5H12.15C12.8956 15.5 13.5 14.8956 13.5 14.15V1.35C13.5 0.604417 12.8956 0 12.15 0H9.35Z" fill="#292927"/>
</g>
</svg>
