<svg preserveAspectRatio="xMidYMid meet" overflow="visible" style="display: block;" viewBox="0 0 24 24" fill="none" xmlns="http://www.w3.org/2000/svg">
<g transform="translate(1.2500, 1.2500)">
<path id="Vector" fill-rule="evenodd" clip-rule="evenodd" d="M20 3.25C20 2.2835 19.2165 1.5 18.25 1.5C17.2835 1.5 16.5 2.2835 16.5 3.25C16.5 4.2165 17.2835 5 18.25 5C19.2165 5 20 4.2165 20 3.25ZM18.25 0C20.0449 0 21.5 1.45507 21.5 3.25C21.5 5.04493 20.0449 6.5 18.25 6.5C16.4551 6.5 15 5.04493 15 3.25C15 1.45507 16.4551 0 18.25 0ZM4.80075 15.3931C5.81298 15.9437 6.5 17.0166 6.5 18.25C6.5 20.0449 5.04493 21.5 3.25 21.5C1.45507 21.5 0 20.0449 0 18.25C0 16.4551 1.45507 15 3.25 15C3.28401 15 3.31789 15.0005 3.35165 15.0016C3.62873 14.1062 3.97031 13.2444 4.37177 12.4211C4.55331 12.0488 5.0023 11.8941 5.37461 12.0757C5.74692 12.2572 5.90157 12.7062 5.72003 13.0785C5.36018 13.8165 5.05232 14.5894 4.80075 15.3931ZM8.25 5C8.98561 5 9.66413 5.24439 10.2088 5.6564C10.9095 5.17805 11.6483 4.74847 12.4213 4.37157C12.7936 4.19003 13.2426 4.34468 13.4241 4.71699C13.6057 5.0893 13.451 5.53829 13.0787 5.71983C12.4128 6.04456 11.775 6.41171 11.1684 6.81822C11.3808 7.25018 11.5 7.73617 11.5 8.25C11.5 10.0449 10.0449 11.5 8.25 11.5C6.45507 11.5 5 10.0449 5 8.25C5 6.45507 6.45507 5 8.25 5ZM5 18.25C5 17.2835 4.2165 16.5 3.25 16.5C2.2835 16.5 1.5 17.2835 1.5 18.25C1.5 19.2165 2.2835 20 3.25 20C4.2165 20 5 19.2165 5 18.25ZM8.25 6.5C9.2165 6.5 10 7.2835 10 8.25C10 9.2165 9.2165 10 8.25 10C7.2835 10 6.5 9.2165 6.5 8.25C6.5 7.2835 7.2835 6.5 8.25 6.5Z" fill="#292927"/>
</g>
</svg>
