<svg preserveAspectRatio="xMidYMid meet" overflow="visible" style="display: block;" viewBox="0 0 24 24" fill="none" xmlns="http://www.w3.org/2000/svg">
<g transform="translate(1.2500, 1.2499)">
<path id="Vector" fill-rule="evenodd" clip-rule="evenodd" d="M8.24995 1.5C9.21645 1.5 9.99995 2.2835 9.99995 3.25V18.75C9.99995 19.4404 9.44031 20 8.74995 20C8.0596 20 7.49995 19.4404 7.49995 18.75C7.49995 18.7213 7.49834 18.693 7.4952 18.6651C7.50795 18.5552 7.49646 18.4407 7.45709 18.3294C7.31906 17.9388 6.89056 17.7341 6.50003 17.8722C6.26641 17.9547 6.01428 18 5.74996 18C4.50732 18 3.49996 16.9926 3.49996 15.75C3.49996 14.5074 4.50732 13.5 5.74996 13.5C6.16418 13.5 6.49996 13.1642 6.49996 12.75C6.49996 12.3358 6.16418 12 5.74996 12C4.57714 12 3.53008 12.5384 2.84244 13.3815C2.02809 12.7902 1.5 11.8312 1.5 10.7498C1.5 9.76548 1.93665 8.88398 2.62941 8.28685C2.73881 8.19256 2.81433 8.07357 2.85483 7.94527C2.95677 7.7175 2.94284 7.44393 2.79386 7.22121C2.6082 6.94365 2.49994 6.61061 2.49994 6.25C2.49994 5.2835 3.28344 4.5 4.24994 4.5C4.64484 4.5 5.00724 4.6299 5.29968 4.84962C5.41269 4.93453 5.54188 4.98268 5.67294 4.99612C5.86741 5.08589 6.09876 5.09217 6.30763 4.99364C6.68225 4.81692 6.84268 4.36997 6.66596 3.99535C6.55972 3.77014 6.49995 3.51809 6.49995 3.25C6.49995 2.2835 7.28345 1.5 8.24995 1.5ZM6.09898 19.4839C5.98396 19.4946 5.86754 19.5 5.74996 19.5C3.67889 19.5 1.99996 17.8211 1.99996 15.75C1.99996 15.3931 2.04982 15.0479 2.14294 14.7209C0.853129 13.8724 0 12.4113 0 10.7498C0 9.50585 0.47886 8.37313 1.26062 7.52695C1.09283 7.13455 0.999939 6.7026 0.999939 6.25C0.999939 4.45507 2.45501 3 4.24994 3C4.50929 3 4.76179 3.03049 5.00392 3.08807C5.0883 1.36837 6.50932 0 8.24995 0C9.25518 0 10.1538 0.456375 10.75 1.17323C11.3461 0.456375 12.2448 0 13.25 0C14.9906 0 16.4116 1.36837 16.496 3.08807C16.7381 3.03049 16.9906 3 17.25 3C19.0449 3 20.5 4.45507 20.5 6.25C20.5 6.7026 20.4071 7.13454 20.2393 7.52695C21.0211 8.37313 21.4999 9.50585 21.4999 10.7498C21.4999 11.5834 21.2845 12.369 20.9058 13.0516C20.7048 13.4138 20.2483 13.5445 19.8861 13.3435C19.5239 13.1426 19.3932 12.686 19.5942 12.3238C19.8525 11.8582 19.9999 11.3223 19.9999 10.7498C19.9999 9.76548 19.5633 8.88398 18.8705 8.28685C18.7611 8.19256 18.6856 8.07358 18.6451 7.94528C18.5432 7.71751 18.5571 7.44394 18.7061 7.22121C18.8917 6.94365 19 6.61061 19 6.25C19 5.2835 18.2165 4.5 17.25 4.5C16.8551 4.5 16.4927 4.6299 16.2003 4.84962C16.0872 4.93453 15.9581 4.98268 15.827 4.99612C15.6325 5.08589 15.4012 5.09217 15.1923 4.99364C14.8177 4.81692 14.6573 4.36997 14.834 3.99535C14.9402 3.77014 15 3.51809 15 3.25C15 2.2835 14.2165 1.5 13.25 1.5C12.2835 1.5 11.5 2.2835 11.5 3.25L11.5 3.25684V5.74316L11.5 5.75C11.5 6.99264 12.5073 8 13.75 8C14.1642 8 14.5 8.33579 14.5 8.75C14.5 9.16421 14.1642 9.5 13.75 9.5C12.9058 9.5 12.1267 9.22103 11.5 8.75025V18.7432L11.5 18.75C11.5 19.4404 12.0596 20 12.75 20C13.1642 20 13.5 20.3358 13.5 20.75C13.5 21.1642 13.1642 21.5 12.75 21.5C11.962 21.5 11.2514 21.1685 10.75 20.6375C10.2486 21.1685 9.53798 21.5 8.74995 21.5C7.48534 21.5 6.4201 20.6464 6.09898 19.4839ZM18.0722 15.1144C18.2734 14.7523 18.1429 14.2957 17.7809 14.0945C17.4188 13.8934 16.9622 14.0238 16.761 14.3859L15.0943 17.3859C14.9653 17.6182 14.9688 17.9014 15.1035 18.1305C15.2383 18.3595 15.4842 18.5001 15.75 18.5001H18.4753L17.4277 20.3859C17.2265 20.748 17.357 21.2046 17.7191 21.4058C18.0811 21.6069 18.5377 21.4765 18.7389 21.1144L20.4056 18.1144C20.5346 17.8821 20.5311 17.5988 20.3964 17.3698C20.2616 17.1408 20.0157 17.0001 19.75 17.0001H17.0246L18.0722 15.1144Z" fill="#292927"/>
</g>
</svg>
