<svg preserveAspectRatio="xMidYMid meet" overflow="visible" style="display: block;" viewBox="0 0 24 24" fill="none" xmlns="http://www.w3.org/2000/svg">
<g transform="translate(3.875, 3.92)">
<path id="Vector" fill-rule="evenodd" clip-rule="evenodd" d="M1.25 2.29167C1.25 1.71637 1.71637 1.25 2.29167 1.25H13.9583C14.5336 1.25 15 1.71637 15 2.29167V10.625C15 11.2003 14.5336 11.6667 13.9583 11.6667H4.75937C4.0632 11.6667 3.40478 11.9831 2.96988 12.5267L1.25 14.6766V2.29167ZM2.29167 0C1.02601 0 0 1.02601 0 2.29167V15.0329C0 16.0964 1.33915 16.5661 2.00348 15.7357L3.94597 13.3076C4.14365 13.0605 4.44293 12.9167 4.75937 12.9167H13.9583C15.224 12.9167 16.25 11.8907 16.25 10.625V2.29167C16.25 1.02601 15.224 0 13.9583 0H2.29167ZM8.125 3.33333C8.47018 3.33333 8.75 3.61316 8.75 3.95833V5.625C8.75 5.97018 8.47018 6.25 8.125 6.25C7.77982 6.25 7.5 5.97018 7.5 5.625V3.95833C7.5 3.61316 7.77982 3.33333 8.125 3.33333ZM8.55144 8.49297C8.80801 8.72388 8.82881 9.11906 8.5979 9.37563L8.58956 9.38489C8.35865 9.64146 7.96347 9.66225 7.7069 9.43134C7.45033 9.20043 7.42953 8.80525 7.66045 8.54868L7.66878 8.53942C7.89969 8.28285 8.29487 8.26205 8.55144 8.49297Z" fill="#292927"/>
</g>
</svg>
