<svg preserveAspectRatio="xMidYMid meet" overflow="visible" style="display: block;" viewBox="0 0 24 24" fill="none" xmlns="http://www.w3.org/2000/svg">
<g transform="translate(2.2500, 2.2500)">
<path id="Vector" fill-rule="evenodd" clip-rule="evenodd" d="M18 13.75C18 16.0972 16.0972 18 13.75 18H5.75C3.40279 18 1.5 16.0972 1.5 13.75V5.75C1.5 3.40279 3.40279 1.5 5.75 1.5H13.75C16.0972 1.5 18 3.40279 18 5.75V13.75ZM13.75 19.5C16.9256 19.5 19.5 16.9256 19.5 13.75V5.75C19.5 2.57436 16.9256 0 13.75 0H5.75C2.57436 0 0 2.57436 0 5.75V13.75C0 16.9256 2.57436 19.5 5.75 19.5H13.75ZM11.4615 3.5129C11.3452 3.16393 10.993 2.95083 10.6299 3.00975C10.2668 3.06867 10 3.38223 10 3.75007V12.7501C10 13.9927 8.99264 15.0001 7.75 15.0001C6.50736 15.0001 5.5 13.9927 5.5 12.7501C5.5 11.5074 6.50736 10.5001 7.75 10.5001C8.16421 10.5001 8.5 10.1643 8.5 9.75007C8.5 9.33585 8.16421 9.00007 7.75 9.00007C5.67893 9.00007 4 10.679 4 12.7501C4 14.8211 5.67893 16.5001 7.75 16.5001C9.82107 16.5001 11.5 14.8211 11.5 12.7501V6.20786C12.2669 6.92047 13.3473 7.50007 14.75 7.50007C15.1642 7.50007 15.5 7.16428 15.5 6.75007C15.5 6.33585 15.1642 6.00007 14.75 6.00007C13.7781 6.00007 13.0388 5.60087 12.4914 5.08115C11.9312 4.54933 11.5934 3.90846 11.4615 3.5129Z" fill="#292927"/>
</g>
</svg>
