<svg preserveAspectRatio="xMidYMid meet" overflow="visible" style="display: block;" viewBox="0 0 24 24" fill="none" xmlns="http://www.w3.org/2000/svg">
<g transform="translate(1.2500, 3.4047)">
<path id="Vector" fill-rule="evenodd" clip-rule="evenodd" d="M1.58643 4.75211L10.7489 15.5798L19.9114 4.75214C16.9975 2.56898 13.948 1.5 10.7489 1.5C7.54974 1.5 4.50033 2.56897 1.58643 4.75211ZM10.5945 15.7622C10.5944 15.7623 10.5946 15.7622 10.5945 15.7622ZM0.505364 3.68924C3.69775 1.2457 7.11729 0 10.7489 0C14.3805 0 17.8 1.24571 20.9924 3.68926L21.0064 3.69997L21.0199 3.71133C21.5714 4.17615 21.6722 4.99336 21.1943 5.55815L11.7395 16.7312C11.6931 16.7861 11.6421 16.8371 11.5872 16.8835C11.0401 17.3465 10.2212 17.2783 9.75822 16.7312L0.292081 5.54463L0.281341 5.53065C-0.158173 4.95881 -0.0821518 4.13893 0.505364 3.68924Z" fill="#292927"/>
</g>
</svg>
