<svg preserveAspectRatio="xMidYMid meet" overflow="visible" style="display: block;" viewBox="0 0 24 24" fill="none" xmlns="http://www.w3.org/2000/svg">
<g transform="translate(2.2500, 5.0000)">
<path id="Vector" fill-rule="evenodd" clip-rule="evenodd" d="M1.5 5.75C1.5 3.99444 2.21468 2.9696 3.06323 2.35865C3.95002 1.72016 5.03668 1.5 5.75 1.5H13.75C14.4633 1.5 15.55 1.72016 16.4368 2.35865C17.2853 2.9696 18 3.99444 18 5.75C18 7.07552 17.5926 7.97134 17.0519 8.58581C16.7783 8.89679 16.8086 9.37069 17.1196 9.64431C17.4306 9.91792 17.9045 9.88762 18.1781 9.57664C18.977 8.66865 19.5 7.41317 19.5 5.75C19.5 3.50556 18.548 2.0304 17.3132 1.14135C16.1167 0.279836 14.7034 0 13.75 0H5.75C4.79665 0 3.38332 0.279836 2.18677 1.14135C0.951983 2.0304 0 3.50556 0 5.75C0 7.99444 0.951983 9.4696 2.18677 10.3587C3.38332 11.2202 4.79665 11.5 5.75 11.5H12.9393L11.7197 12.7197C11.4268 13.0126 11.4268 13.4874 11.7197 13.7803C12.0126 14.0732 12.4874 14.0732 12.7803 13.7803L15.2803 11.2803C15.3522 11.2084 15.4065 11.1255 15.4431 11.0371C15.4798 10.9487 15.5 10.8517 15.5 10.75C15.5 10.6483 15.4798 10.5513 15.4431 10.4629C15.4065 10.3745 15.3522 10.2916 15.2803 10.2197L12.7803 7.71967C12.4874 7.42678 12.0126 7.42678 11.7197 7.71967C11.4268 8.01256 11.4268 8.48744 11.7197 8.78033L12.9393 10H5.75C5.03668 10 3.95002 9.77984 3.06323 9.14135C2.21468 8.5304 1.5 7.50556 1.5 5.75Z" fill="#292927"/>
</g>
</svg>
