<svg preserveAspectRatio="xMidYMid meet" overflow="visible" style="display: block;" viewBox="0 0 24 24" fill="none" xmlns="http://www.w3.org/2000/svg">
<g transform="translate(2.2500, 2.2500)">
<path id="Vector" fill-rule="evenodd" clip-rule="evenodd" d="M1.5 2.75C1.5 2.05964 2.05964 1.5 2.75 1.5H16.75C17.4404 1.5 18 2.05964 18 2.75V16.75C18 17.4404 17.4404 18 16.75 18H2.75C2.05964 18 1.5 17.4404 1.5 16.75V2.75ZM2.75 0C1.23122 0 0 1.23122 0 2.75V16.75C0 18.2688 1.23122 19.5 2.75 19.5H16.75C18.2688 19.5 19.5 18.2688 19.5 16.75V2.75C19.5 1.23122 18.2688 0 16.75 0H2.75ZM6.5 9.17857C6.5 7.69924 7.69924 6.5 9.17857 6.5C10.6579 6.5 11.8571 7.69924 11.8571 9.17857C11.8571 9.91717 11.5592 10.5847 11.0751 11.0701C10.5894 11.5571 9.91972 11.8571 9.17857 11.8571C7.69924 11.8571 6.5 10.6579 6.5 9.17857ZM9.17857 5C6.87081 5 5 6.87081 5 9.17857C5 11.4863 6.87081 13.3571 9.17857 13.3571C10.0625 13.3571 10.883 13.0821 11.5581 12.6138L13.2189 14.2795C13.5113 14.5729 13.9862 14.5736 14.2795 14.2811C14.5729 13.9887 14.5736 13.5138 14.2811 13.2205L12.6179 11.5522C13.0837 10.8782 13.3571 10.0599 13.3571 9.17857C13.3571 6.87081 11.4863 5 9.17857 5Z" fill="#292927"/>
</g>
</svg>
