<svg preserveAspectRatio="xMidYMid meet" overflow="visible" style="display: block;" viewBox="0 0 24 24" fill="none" xmlns="http://www.w3.org/2000/svg">
<g transform="translate(2.2843, 1.5087)">
<path id="Vector" fill-rule="evenodd" clip-rule="evenodd" d="M1.5712 3.49174L1.51697 3.08503C2.24204 2.62075 4.52732 1.5 9.71566 1.5C14.904 1.5 17.1893 2.62075 17.9144 3.08503L17.8601 3.49174C17.6466 3.63936 17.3689 3.78834 17.022 3.93224C16.4755 4.15895 15.8005 4.35533 15.0276 4.51563C13.482 4.8362 11.6062 5 9.71566 5C7.82513 5 5.94933 4.83621 4.40369 4.51564C3.63083 4.35534 2.95582 4.15896 2.40928 3.93225C2.06238 3.78835 1.78472 3.63937 1.5712 3.49174ZM2.47614 10.2788C3.12667 9.95221 3.89192 9.70538 4.68812 9.51961C6.18503 9.17033 7.95843 9 9.71568 9C11.4729 9 13.2463 9.17034 14.7432 9.51962C15.5394 9.70539 16.3047 9.95221 16.9552 10.2788L17.6178 5.30901L17.5968 5.31777C16.938 5.59105 16.1665 5.81133 15.3323 5.98437C13.6636 6.33046 11.6823 6.5 9.71566 6.5C7.74905 6.5 5.76771 6.33047 4.09907 5.98438C3.26479 5.81135 2.49337 5.59107 1.83455 5.31778L1.8135 5.30901L2.47614 10.2788ZM16.5247 11.7499C16.0253 11.4595 15.3123 11.1927 14.4024 10.9804C13.0422 10.663 11.387 10.5 9.71568 10.5C8.04437 10.5 6.38919 10.663 5.02896 10.9804C4.11904 11.1927 3.40599 11.4596 2.90654 11.7499C3.33018 11.9963 3.91053 12.2277 4.64285 12.4232C5.81183 12.7353 7.24608 12.9244 8.74426 12.9816C10.0527 13.0315 11.3927 12.98 12.6242 12.8286C13.7221 12.6936 14.7154 12.4813 15.5163 12.2005C15.9203 12.0588 16.2556 11.9064 16.5247 11.7499ZM1.14624 12.2381L1.21612 12.1782L0.011427 3.14303C-0.0434936 2.73112 0.0957431 2.2504 0.511991 1.95403C1.36351 1.34774 3.9132 0 9.71566 0C15.5181 0 18.0678 1.34774 18.9193 1.95403C19.3356 2.2504 19.4748 2.73112 19.4199 3.14303L18.2152 12.1782L18.2851 12.2381C18.2556 12.2726 18.2251 12.3065 18.1936 12.3399L17.7207 15.8869C17.5249 17.3553 16.6553 18.6483 15.369 19.3833L15.0492 19.5661C11.7443 21.4546 7.68707 21.4546 4.38217 19.5661L4.06229 19.3833C2.77607 18.6483 1.9064 17.3553 1.71062 15.8869L1.23767 12.3399C1.20625 12.3065 1.17576 12.2725 1.14624 12.2381ZM16.2339 15.6887L16.5372 13.4139C16.3666 13.4861 16.1913 13.5533 16.0127 13.616C15.0809 13.9428 13.9757 14.1737 12.8072 14.3174C11.4903 14.4793 10.0697 14.5332 8.68711 14.4805C7.11033 14.4204 5.56033 14.2207 4.25594 13.8725C3.78097 13.7457 3.32009 13.5944 2.89416 13.4139L3.19746 15.6887C3.33142 16.6934 3.92645 17.5781 4.8065 18.0809L5.12638 18.2637C7.97013 19.8887 11.4612 19.8887 14.3049 18.2637L14.6248 18.0809C15.5049 17.5781 16.0999 16.6934 16.2339 15.6887Z" fill="#292927"/>
</g>
</svg>
