<svg preserveAspectRatio="xMidYMid meet" overflow="visible" style="display: block;" viewBox="0 0 24 24" fill="none" xmlns="http://www.w3.org/2000/svg">
<g transform="translate(2.2500, 2.2500)">
<path id="Vector" fill-rule="evenodd" clip-rule="evenodd" d="M1.5 18V1.5H18V18H1.5ZM1.35 0C0.604416 0 0 0.604416 0 1.35V18.15C0 18.8956 0.60444 19.5 1.35 19.5H18.15C18.8956 19.5 19.5 18.8956 19.5 18.15V1.35C19.5 0.60444 18.8956 0 18.15 0H1.35ZM7.4517 6.39154C7.15881 6.09865 6.68393 6.09865 6.39104 6.39154C6.09815 6.68444 6.09815 7.15931 6.39104 7.45221L10.7675 11.8287H7.62848C7.21427 11.8287 6.87848 12.1645 6.87848 12.5787C6.87848 12.9929 7.21427 13.3287 7.62848 13.3287H12.5782C12.6799 13.3287 12.7769 13.3085 12.8653 13.2718C12.9537 13.2352 13.0366 13.1809 13.1085 13.109C13.1804 13.0371 13.2347 12.9543 13.2713 12.8658C13.308 12.7774 13.3282 12.6804 13.3282 12.5787V7.62897C13.3282 7.21476 12.9924 6.87897 12.5782 6.87897C12.164 6.87897 11.8282 7.21476 11.8282 7.62897V10.768L7.4517 6.39154Z" fill="#292927"/>
</g>
</svg>
