<svg preserveAspectRatio="xMidYMid meet" overflow="visible" style="display: block;" viewBox="0 0 24 24" fill="none" xmlns="http://www.w3.org/2000/svg">
<g transform="translate(1.2500, 1.2500)">
<path id="Vector" fill-rule="evenodd" clip-rule="evenodd" d="M10.75 1.5C5.64137 1.5 1.5 5.64137 1.5 10.75C1.5 15.8586 5.64137 20 10.75 20C15.8586 20 20 15.8586 20 10.75C20 5.64137 15.8586 1.5 10.75 1.5ZM0 10.75C0 4.81294 4.81294 0 10.75 0C16.6871 0 21.5 4.81294 21.5 10.75C21.5 16.6871 16.6871 21.5 10.75 21.5C4.81294 21.5 0 16.6871 0 10.75ZM10.75 3C10.5799 3 10.411 3.00549 10.2434 3.01632C9.83002 3.04303 9.51659 3.39978 9.5433 3.81313C9.54982 3.91405 9.57602 4.00901 9.61791 4.09452C9.19809 4.16542 8.79145 4.27507 8.40178 4.41967C8.39536 4.32454 8.37057 4.22905 8.32571 4.13826C8.14223 3.7669 7.69244 3.6146 7.32108 3.79808C7.01662 3.94851 6.72354 4.1183 6.44345 4.30582C6.09925 4.53625 6.00703 5.00208 6.23746 5.34628C6.29373 5.43032 6.36402 5.49934 6.44316 5.55231C6.1193 5.82096 5.82096 6.1193 5.55231 6.44316C5.49934 6.36402 5.43032 6.29373 5.34628 6.23746C5.00208 6.00703 4.53625 6.09925 4.30582 6.44345C4.1183 6.72354 3.94851 7.01662 3.79808 7.32108C3.6146 7.69244 3.7669 8.14223 4.13826 8.32571C4.22905 8.37057 4.32454 8.39536 4.41967 8.40178C4.27507 8.79145 4.16542 9.19809 4.09452 9.61791C4.00901 9.57602 3.91405 9.54982 3.81313 9.5433C3.39978 9.51659 3.04303 9.83002 3.01632 10.2434C3.00549 10.411 3 10.5799 3 10.75C3 10.9201 3.00549 11.089 3.01632 11.2566C3.04303 11.67 3.39978 11.9834 3.81313 11.9567C3.91405 11.9502 4.00901 11.924 4.09452 11.8821C4.16542 12.3019 4.27507 12.7086 4.41967 13.0982C4.32454 13.1046 4.22905 13.1294 4.13826 13.1743C3.7669 13.3578 3.6146 13.8076 3.79808 14.1789C3.94851 14.4834 4.1183 14.7765 4.30582 15.0565C4.53625 15.4007 5.00208 15.493 5.34628 15.2625C5.43032 15.2063 5.49934 15.136 5.55231 15.0568C5.82096 15.3807 6.1193 15.679 6.44316 15.9477C6.36402 16.0007 6.29373 16.0697 6.23746 16.1537C6.00703 16.4979 6.09925 16.9637 6.44345 17.1942C6.72354 17.3817 7.01662 17.5515 7.32108 17.7019C7.69244 17.8854 8.14223 17.7331 8.32571 17.3617C8.37057 17.2709 8.39536 17.1755 8.40178 17.0803C8.79145 17.2249 9.19809 17.3346 9.61791 17.4055C9.57602 17.491 9.54982 17.586 9.5433 17.6869C9.51659 18.1002 9.83002 18.457 10.2434 18.4837C10.411 18.4945 10.5799 18.5 10.75 18.5C10.9201 18.5 11.089 18.4945 11.2566 18.4837C11.67 18.457 11.9834 18.1002 11.9567 17.6869C11.9502 17.586 11.924 17.491 11.8821 17.4055C12.3019 17.3346 12.7086 17.2249 13.0982 17.0803C13.1046 17.1755 13.1294 17.2709 13.1743 17.3617C13.3578 17.7331 13.8076 17.8854 14.1789 17.7019C14.4834 17.5515 14.7765 17.3817 15.0565 17.1942C15.4007 16.9637 15.493 16.4979 15.2625 16.1537C15.2063 16.0697 15.136 16.0007 15.0568 15.9477C15.3807 15.679 15.679 15.3807 15.9477 15.0568C16.0007 15.136 16.0697 15.2063 16.1537 15.2625C16.4979 15.493 16.9637 15.4007 17.1942 15.0565C17.3817 14.7765 17.5515 14.4834 17.7019 14.1789C17.8854 13.8076 17.7331 13.3578 17.3617 13.1743C17.2709 13.1294 17.1755 13.1046 17.0803 13.0982C17.2249 12.7086 17.3346 12.3019 17.4055 11.8821C17.491 11.924 17.586 11.9502 17.6869 11.9567C18.1002 11.9834 18.457 11.67 18.4837 11.2566C18.4945 11.089 18.5 10.9201 18.5 10.75C18.5 10.5799 18.4945 10.411 18.4837 10.2434C18.457 9.83002 18.1002 9.51659 17.6869 9.5433C17.586 9.54982 17.491 9.57602 17.4055 9.61791C17.3346 9.19809 17.2249 8.79145 17.0803 8.40178C17.1755 8.39536 17.2709 8.37057 17.3617 8.32571C17.7331 8.14223 17.8854 7.69244 17.7019 7.32108C17.5515 7.01662 17.3817 6.72354 17.1942 6.44345C16.9637 6.09925 16.4979 6.00703 16.1537 6.23746C16.0697 6.29373 16.0007 6.36402 15.9477 6.44316C15.679 6.1193 15.3807 5.82096 15.0568 5.55231C15.136 5.49934 15.2063 5.43032 15.2625 5.34628C15.493 5.00208 15.4007 4.53625 15.0565 4.30582C14.7765 4.1183 14.4834 3.94851 14.1789 3.79808C13.8076 3.6146 13.3578 3.7669 13.1743 4.13826C13.1294 4.22905 13.1046 4.32454 13.0982 4.41967C12.7086 4.27507 12.3019 4.16542 11.8821 4.09452C11.924 4.00901 11.9502 3.91405 11.9567 3.81313C11.9834 3.39978 11.67 3.04303 11.2566 3.01632C11.089 3.00549 10.9201 3 10.75 3ZM10.75 5.5C10.0614 5.5 9.4037 5.63259 8.80113 5.87362L9.56215 7.19203C9.93543 7.06747 10.3348 7 10.75 7C12.5643 7 14.0776 8.2884 14.425 10.0002H15.9469C15.583 7.45586 13.3949 5.5 10.75 5.5ZM12.872 10.0002C12.5632 9.12619 11.7297 8.5 10.75 8.5C10.6095 8.5 10.4721 8.51287 10.3388 8.53749L11.1831 10.0002H12.872ZM8.26355 7.9428L7.50263 6.62455C6.283 7.58591 5.5 9.07651 5.5 10.75C5.5 12.4235 6.28305 13.9142 7.50276 14.8756L8.26368 13.5573C7.48856 12.8703 7 11.8672 7 10.75C7 9.63285 7.4885 8.6298 8.26355 7.9428ZM9.04 12.2124C8.70334 11.8191 8.5 11.3083 8.5 10.75C8.5 10.1918 8.70329 9.68102 9.03988 9.28774L9.88403 10.7502L9.04 12.2124ZM10.3389 12.9625L11.1831 11.5002H12.8719C12.563 12.374 11.7296 13 10.75 13C10.6096 13 10.4722 12.9871 10.3389 12.9625ZM9.56231 14.308C9.93554 14.4326 10.3349 14.5 10.75 14.5C12.5642 14.5 14.0774 13.2118 14.425 11.5002H15.9468C15.5828 14.0443 13.3948 16 10.75 16C10.0614 16 9.40381 15.8674 8.80129 15.6264L9.56231 14.308Z" fill="#292927"/>
</g>
</svg>
