<svg preserveAspectRatio="xMidYMid meet" overflow="visible" style="display: block;" viewBox="0 0 24 24" fill="none" xmlns="http://www.w3.org/2000/svg">
<g transform="translate(3.2450, 3.2498)">
<path id="Vector" fill-rule="evenodd" clip-rule="evenodd" d="M0.75 0C0.335786 0 0 0.335786 0 0.75V8.75C0 9.16421 0.335786 9.5 0.75 9.5H16.75C17.1642 9.5 17.5 9.16421 17.5 8.75V0.75C17.5 0.335786 17.1642 0 16.75 0H0.75ZM1.5 8V1.5H16V8H1.5ZM1.31748 13.241C1.59457 12.9331 1.56961 12.4589 1.26173 12.1818C0.953848 11.9047 0.479631 11.9297 0.202536 12.2375L0.192536 12.2487C-0.0845583 12.5565 -0.0595997 13.0308 0.248283 13.3078C0.556165 13.5849 1.03038 13.56 1.30748 13.2521L1.31748 13.241ZM1.31748 17.241C1.59457 16.9331 1.56961 16.4589 1.26173 16.1818C0.953848 15.9047 0.479631 15.9297 0.202536 16.2375L0.192536 16.2487C-0.0845583 16.5565 -0.0595997 17.0308 0.248283 17.3078C0.556165 17.5849 1.03038 17.56 1.30748 17.2521L1.31748 17.241ZM5.26173 16.1818C5.56961 16.4589 5.59457 16.9331 5.31748 17.241L5.30748 17.2521C5.03038 17.56 4.55616 17.5849 4.24828 17.3078C3.9404 17.0308 3.91544 16.5565 4.19254 16.2487L4.20254 16.2375C4.47963 15.9297 4.95385 15.9047 5.26173 16.1818ZM9.31748 17.241C9.59457 16.9331 9.56961 16.4589 9.26173 16.1818C8.95385 15.9047 8.47963 15.9297 8.20254 16.2375L8.19254 16.2487C7.91544 16.5565 7.9404 17.0308 8.24828 17.3078C8.55616 17.5849 9.03038 17.56 9.30748 17.2521L9.31748 17.241ZM13.2617 16.1818C13.5696 16.4589 13.5946 16.9331 13.3175 17.241L13.3075 17.2521C13.0304 17.56 12.5562 17.5849 12.2483 17.3078C11.9404 17.0308 11.9154 16.5565 12.1925 16.2487L12.2025 16.2375C12.4796 15.9297 12.9538 15.9047 13.2617 16.1818ZM17.3175 17.241C17.5946 16.9331 17.5696 16.4589 17.2617 16.1818C16.9538 15.9047 16.4796 15.9297 16.2025 16.2375L16.1925 16.2487C15.9154 16.5565 15.9404 17.0308 16.2483 17.3078C16.5562 17.5849 17.0304 17.56 17.3075 17.2521L17.3175 17.241ZM17.2617 12.1818C17.5696 12.4589 17.5946 12.9331 17.3175 13.241L17.3075 13.2521C17.0304 13.56 16.5562 13.5849 16.2483 13.3078C15.9404 13.0308 15.9154 12.5565 16.1925 12.2487L16.2025 12.2375C16.4796 11.9297 16.9538 11.9047 17.2617 12.1818Z" fill="#292927"/>
</g>
</svg>
