<svg preserveAspectRatio="xMidYMid meet" overflow="visible" style="display: block;" viewBox="0 0 24 24" fill="none" xmlns="http://www.w3.org/2000/svg">
<g transform="translate(6.2500, 3.2500)">
<path id="Vector" fill-rule="evenodd" clip-rule="evenodd" d="M1.5 16V1.5H10V16H1.5ZM1.35 0C0.604417 0 0 0.604415 0 1.35V16.15C0 16.8956 0.604415 17.5 1.35 17.5H10.15C10.8956 17.5 11.5 16.8956 11.5 16.15V1.35C11.5 0.604417 10.8956 0 10.15 0H1.35ZM6.31748 13.2508C6.59457 12.9429 6.56961 12.4687 6.26173 12.1916C5.95385 11.9145 5.47963 11.9394 5.20254 12.2473L5.19254 12.2584C4.91544 12.5663 4.9404 13.0405 5.24828 13.3176C5.55616 13.5947 6.03038 13.5697 6.30748 13.2619L6.31748 13.2508Z" fill="#292927"/>
</g>
</svg>
