<svg preserveAspectRatio="xMidYMid meet" overflow="visible" style="display: block;" viewBox="0 0 24 24" fill="none" xmlns="http://www.w3.org/2000/svg">
<g transform="translate(2.2500, 2.2500)">
<path id="Vector" fill-rule="evenodd" clip-rule="evenodd" d="M4.5 7.00647V1.5H15V7.00647C14.9172 7.00217 14.8339 7 14.75 7H4.75C4.66614 7 4.58279 7.00217 4.5 7.00647ZM16.5 1.35V7.33276C18.2573 8.02954 19.5 9.74465 19.5 11.75V18.15C19.5 18.8956 18.8956 19.5 18.15 19.5H1.35C0.604417 19.5 0 18.8956 0 18.15V11.75C0 9.74465 1.24269 8.02954 3 7.33276V1.35C3 0.604415 3.60442 0 4.35 0H15.15C15.8956 0 16.5 0.604415 16.5 1.35ZM1.5 11.75C1.5 9.95507 2.95507 8.5 4.75 8.5H14.75C16.5449 8.5 18 9.95507 18 11.75V18H1.5V11.75ZM4.75 14C4.33579 14 4 14.3358 4 14.75C4 15.1642 4.33579 15.5 4.75 15.5H14.75C15.1642 15.5 15.5 15.1642 15.5 14.75C15.5 14.3358 15.1642 14 14.75 14H4.75ZM15.3175 11.2508C15.5946 10.9429 15.5696 10.4687 15.2617 10.1916C14.9538 9.91446 14.4796 9.93942 14.2025 10.2473L14.1925 10.2584C13.9154 10.5663 13.9404 11.0405 14.2483 11.3176C14.5562 11.5947 15.0304 11.5697 15.3075 11.2619L15.3175 11.2508Z" fill="#292927"/>
</g>
</svg>
