<svg preserveAspectRatio="xMidYMid meet" overflow="visible" style="display: block;" viewBox="0 0 24 24" fill="none" xmlns="http://www.w3.org/2000/svg">
<g transform="translate(4.2500, 1.2500)">
<path id="Vector" fill-rule="evenodd" clip-rule="evenodd" d="M1.35 0C0.604417 0 0 0.604415 0 1.35V20.15C0 20.8956 0.604415 21.5 1.35 21.5H14.15C14.8956 21.5 15.5 20.8956 15.5 20.15V1.35C15.5 0.604415 14.8956 0 14.15 0H1.35ZM1.5 8V1.5H14V8H1.5ZM1.5 9.5H14V20H1.5V9.5ZM4 4.75C4 4.33579 4.33579 4 4.75 4H5.75C6.16421 4 6.5 4.33579 6.5 4.75C6.5 5.16421 6.16421 5.5 5.75 5.5H4.75C4.33579 5.5 4 5.16421 4 4.75ZM4 12.75C4 12.3358 4.33579 12 4.75 12H5.75C6.16421 12 6.5 12.3358 6.5 12.75C6.5 13.1642 6.16421 13.5 5.75 13.5H4.75C4.33579 13.5 4 13.1642 4 12.75Z" fill="#292927"/>
</g>
</svg>
