<svg preserveAspectRatio="xMidYMid meet" overflow="visible" style="display: block;" viewBox="0 0 24 24" fill="none" xmlns="http://www.w3.org/2000/svg">
<g transform="translate(2.2500, 2.2498)">
<path id="Vector" fill-rule="evenodd" clip-rule="evenodd" d="M13.3306 0.21967L18.2803 5.16942C18.5732 5.46231 18.5732 5.93718 18.2803 6.23008L9.84531 14.6651C9.51712 14.9933 9.072 15.1777 8.60787 15.1777L4.07234 15.1777C3.65813 15.1777 3.32234 14.8419 3.32234 14.4277L3.32234 9.89214C3.32234 9.42801 3.50671 8.98289 3.8349 8.6547L12.2699 0.21967C12.5628 -0.0732233 13.0377 -0.0732233 13.3306 0.21967ZM14.9216 7.46751L16.6893 5.69975L12.8003 1.81066L11.0325 3.57843L14.9216 7.46751ZM13.8609 8.52817L9.97183 4.63909L4.89556 9.71536C4.84868 9.76224 4.82234 9.82583 4.82234 9.89213L4.82234 13.6777L8.60787 13.6777C8.67418 13.6777 8.73777 13.6513 8.78465 13.6044L13.8609 8.52817ZM0.75 18.0005C0.335786 18.0005 0 18.3363 0 18.7505C0 19.1647 0.335786 19.5005 0.75 19.5005H18.75C19.1642 19.5005 19.5 19.1647 19.5 18.7505C19.5 18.3363 19.1642 18.0005 18.75 18.0005H0.75Z" fill="#292927"/>
</g>
</svg>
