<svg preserveAspectRatio="xMidYMid meet" overflow="visible" style="display: block;" viewBox="0 0 24 24" fill="none" xmlns="http://www.w3.org/2000/svg">
<g transform="translate(1.1287, 1.6287)">
<path id="Vector" fill-rule="evenodd" clip-rule="evenodd" d="M1.5 2.75C1.5 2.05964 2.05964 1.5 2.75 1.5H18.75C19.4404 1.5 20 2.05964 20 2.75V4H1.5V2.75ZM0 4.75V2.75C0 1.23122 1.23122 0 2.75 0H18.75C20.2688 0 21.5 1.23122 21.5 2.75V4.75V12.75C21.5 13.1642 21.1642 13.5 20.75 13.5C20.3358 13.5 20 13.1642 20 12.75V5.5H1.5V16.75C1.5 17.4404 2.05964 18 2.75 18H13.75C14.1642 18 14.5 18.3358 14.5 18.75C14.5 19.1642 14.1642 19.5 13.75 19.5H2.75C1.23122 19.5 0 18.2688 0 16.75V4.75ZM4.26173 2.19058C4.56961 2.46768 4.59457 2.9419 4.31748 3.24978L4.30748 3.26089C4.03038 3.56877 3.55616 3.59373 3.24828 3.31663C2.9404 3.03954 2.91544 2.56532 3.19254 2.25744L3.20254 2.24633C3.47963 1.93845 3.95385 1.91349 4.26173 2.19058ZM7.31748 3.24978C7.59457 2.9419 7.56961 2.46768 7.26173 2.19058C6.95385 1.91349 6.47963 1.93845 6.20254 2.24633L6.19254 2.25744C5.91544 2.56532 5.9404 3.03954 6.24828 3.31663C6.55616 3.59373 7.03038 3.56877 7.30748 3.26089L7.31748 3.24978ZM10.2617 2.19058C10.5696 2.46768 10.5946 2.9419 10.3175 3.24978L10.3075 3.26089C10.0304 3.56877 9.55616 3.59373 9.24828 3.31663C8.9404 3.03954 8.91544 2.56532 9.19254 2.25744L9.20254 2.24633C9.47963 1.93845 9.95385 1.91349 10.2617 2.19058ZM17.2803 15.2197C16.9874 14.9268 16.5126 14.9268 16.2197 15.2197C15.9268 15.5126 15.9268 15.9874 16.2197 16.2803L17.8107 17.8713L16.2197 19.4623C15.9268 19.7552 15.9268 20.2301 16.2197 20.523C16.5126 20.8159 16.9874 20.8159 17.2803 20.523L18.8713 18.932L20.4623 20.523C20.7552 20.8159 21.2301 20.8159 21.523 20.523C21.8159 20.2301 21.8159 19.7552 21.523 19.4623L19.932 17.8713L21.523 16.2803C21.8159 15.9874 21.8159 15.5126 21.523 15.2197C21.2301 14.9268 20.7552 14.9268 20.4623 15.2197L18.8713 16.8107L17.2803 15.2197Z" fill="#292927"/>
</g>
</svg>
