<svg preserveAspectRatio="xMidYMid meet" overflow="visible" style="display: block;" viewBox="0 0 24 24" fill="none" xmlns="http://www.w3.org/2000/svg">
<g transform="translate(1.2487, 1.7494)">
<path id="Vector" fill-rule="evenodd" clip-rule="evenodd" d="M10.0013 2.75036C9.78211 2.99718 9.41707 3.07749 9.10719 2.92365C8.73618 2.73946 8.58473 2.28939 8.76892 1.91838L9.26443 0.92026C9.569 0.306755 10.1602 1.79777e-06 10.7513 0C11.3367 -1.7802e-06 11.9221 0.300788 12.2292 0.902368C12.2322 0.908302 12.2352 0.914266 12.2382 0.92026L14.6609 5.80031L20.0807 6.58797C21.4361 6.78496 21.9887 8.45064 20.9973 9.41069L17.0795 13.2048L18.0039 18.5639C18.2386 19.9242 16.8069 20.9407 15.5983 20.3087L10.7512 17.7743L9.52675 18.4145C9.15969 18.6065 8.70654 18.4645 8.5146 18.0974C8.32267 17.7304 8.46464 17.2772 8.83171 17.0853L10.0013 16.4737V2.75036ZM11.5013 16.4738V2.80927L13.4922 6.81947C13.6017 7.04001 13.8124 7.19276 14.0561 7.22817L19.8649 8.07237C20 8.09201 20.0416 8.24811 19.9538 8.33315L15.7513 12.403C15.5732 12.5755 15.4918 12.8249 15.534 13.0693L16.5258 18.8189C16.5324 18.8572 16.5266 18.8829 16.5182 18.9023C16.5086 18.9246 16.4907 18.9482 16.464 18.9674C16.4374 18.9867 16.4083 18.997 16.3819 18.9994C16.3586 19.0016 16.3299 18.9986 16.2934 18.9795L11.5013 16.4738ZM5.16184 17.7468C5.23225 17.3386 4.95843 16.9506 4.55024 16.8802C4.14206 16.8098 3.75408 17.0836 3.68367 17.4918L3.49867 18.5642C3.26403 19.9245 4.69572 20.941 5.90429 20.3091L6.75156 19.866C7.11862 19.6741 7.26059 19.221 7.06866 18.8539C6.87673 18.4868 6.42358 18.3449 6.05651 18.5368L5.20925 18.9798C5.17275 18.9989 5.144 19.0019 5.12067 18.9997C5.0943 18.9973 5.0652 18.987 5.03857 18.9677C5.01194 18.9485 4.99404 18.9249 4.98437 18.9026C4.97598 18.8833 4.97023 18.8575 4.97684 18.8192L5.16184 17.7468ZM3.99593 11.7468C4.28409 11.4492 4.7589 11.4416 5.05646 11.7298L5.75133 12.4027C5.92946 12.5752 6.01081 12.8246 5.96866 13.069L5.74299 14.3772C5.67258 14.7854 5.2846 15.0592 4.87642 14.9888C4.46823 14.9184 4.19441 14.5304 4.26482 14.1222L4.42312 13.2046L4.01294 12.8073C3.71539 12.5192 3.70777 12.0443 3.99593 11.7468ZM2.74844 7.91125C3.15835 7.85167 3.44235 7.47109 3.38278 7.06118C3.32321 6.65127 2.94262 6.36727 2.53271 6.42684L1.42197 6.58826C0.0664789 6.78526 -0.486032 8.45094 0.505307 9.41098L1.92831 10.7891C2.22586 11.0772 2.70067 11.0696 2.98883 10.7721C3.27699 10.4745 3.26938 9.99969 2.97182 9.71153L1.54882 8.33345C1.46101 8.24841 1.50259 8.0923 1.6377 8.07267L2.74844 7.91125ZM8.47544 4.19656C8.84645 4.38074 8.9979 4.83082 8.81371 5.20183L8.01046 6.81982C7.90098 7.04035 7.69022 7.19311 7.44656 7.22852L5.85918 7.45921C5.44928 7.51878 5.06869 7.23478 5.00912 6.82487C4.94954 6.41496 5.23355 6.03438 5.64345 5.9748L6.84175 5.80066L7.47016 4.53483C7.65435 4.16382 8.10443 4.01237 8.47544 4.19656Z" fill="#292927"/>
</g>
</svg>
