<svg preserveAspectRatio="xMidYMid meet" overflow="visible" style="display: block;" viewBox="0 0 24 24" fill="none" xmlns="http://www.w3.org/2000/svg">
<g transform="translate(2.3706, 1.5244)">
<path id="Vector" fill-rule="evenodd" clip-rule="evenodd" d="M9.0328 0.0654855C9.42571 -0.0218286 9.833 -0.0218285 10.2259 0.0654856L17.8881 1.76819C18.7802 1.96644 19.3703 2.81761 19.2409 3.72342L17.3718 16.8073C17.3261 17.1271 17.1607 18.2149 16.0344 19.2011C14.921 20.176 12.9852 20.9512 9.62935 20.9512C6.27351 20.9512 4.33767 20.176 3.2243 19.2011C2.09797 18.2149 1.93259 17.1271 1.88689 16.8073L0.0177691 3.72342C-0.111631 2.81761 0.478521 1.96644 1.37064 1.76819L9.0328 0.0654855ZM9.90052 1.52977C9.72192 1.49008 9.53679 1.49008 9.35819 1.52977L1.69603 3.23247C1.56796 3.26093 1.4843 3.38252 1.50269 3.51129L1.85125 5.95121H17.4075L17.756 3.51128C17.7744 3.38252 17.6907 3.26093 17.5627 3.23247L9.90052 1.52977ZM17.1932 7.45121H2.06554L2.85125 12.9512H16.4075L17.1932 7.45121ZM16.1932 14.4512H3.06554L3.37295 16.6031C3.39944 16.7896 3.4921 17.4418 4.21244 18.0726C4.95639 18.724 6.4852 19.4512 9.62935 19.4512C12.7735 19.4512 14.3023 18.724 15.0463 18.0726C15.7666 17.4418 15.8593 16.7896 15.8858 16.6031L16.1932 14.4512Z" fill="#292927"/>
</g>
</svg>
