<svg preserveAspectRatio="xMidYMid meet" overflow="visible" style="display: block;" viewBox="0 0 24 24" fill="none" xmlns="http://www.w3.org/2000/svg">
<g transform="translate(1.2500, 1.2500)">
<path id="Vector" fill-rule="evenodd" clip-rule="evenodd" d="M1.5 10.75C1.5 5.64137 5.64137 1.5 10.75 1.5C15.8586 1.5 20 5.64137 20 10.75C20 15.8586 15.8586 20 10.75 20C5.64137 20 1.5 15.8586 1.5 10.75ZM10.75 0C4.81294 0 0 4.81294 0 10.75C0 16.6871 4.81294 21.5 10.75 21.5C16.6871 21.5 21.5 16.6871 21.5 10.75C21.5 4.81294 16.6871 0 10.75 0ZM16.5 9.375C16.5 9.17209 16.4194 8.988 16.2885 8.85298L12.7896 5.22905C12.5018 4.93107 12.027 4.92274 11.7291 5.21045C11.4311 5.49816 11.4227 5.97296 11.7104 6.27095L13.9833 8.625H8.55H8.54918H8.54914L8.54838 8.625H8.5483H8.54825L8.54688 8.62501L8.54633 8.62501L8.54578 8.62501L8.54436 8.62502L8.54159 8.62504L8.52901 8.6252C8.51926 8.62537 8.50679 8.62567 8.49179 8.62621C8.4618 8.62728 8.42155 8.62929 8.37246 8.63305C8.27454 8.64054 8.13997 8.65511 7.98066 8.68355C7.66533 8.73986 7.23466 8.85381 6.79583 9.08889C6.35308 9.32608 5.8952 9.69074 5.55071 10.2444C5.20479 10.8003 5 11.5039 5 12.375C5 14.315 5.8289 15.4076 6.76286 15.9705C7.20566 16.2373 7.64251 16.3678 7.96478 16.4326C8.12726 16.4652 8.2648 16.482 8.36535 16.4906C8.41576 16.495 8.45728 16.4973 8.48845 16.4986C8.50404 16.4992 8.51708 16.4996 8.52739 16.4998L8.5408 16.5L8.54593 16.5L8.5481 16.5L8.54908 16.5C8.54955 16.5 8.55 16.5 8.55 15.75V16.5H9.35C9.76421 16.5 10.1 16.1642 10.1 15.75C10.1 15.3358 9.76421 15 9.35 15H8.55537L8.54866 14.9998C8.53881 14.9994 8.52017 14.9984 8.49402 14.9962C8.44145 14.9916 8.36024 14.9821 8.26022 14.962C8.05749 14.9212 7.79434 14.8408 7.53714 14.6858C7.0711 14.4049 6.5 13.81 6.5 12.375C6.5 11.7461 6.64521 11.3247 6.82429 11.0369C7.0048 10.7468 7.24692 10.5489 7.50417 10.4111C7.76534 10.2712 8.03467 10.1976 8.24434 10.1602C8.34753 10.1418 8.43171 10.1329 8.48692 10.1287C8.51439 10.1266 8.53429 10.1256 8.54532 10.1253L8.55421 10.125H13.8917L11.7294 12.2101C11.4312 12.4976 11.4226 12.9724 11.7101 13.2706C11.9976 13.5688 12.4724 13.5774 12.7706 13.2899L16.2706 9.91488C16.2885 9.89762 16.3055 9.87955 16.3214 9.86076C16.4328 9.7299 16.5 9.5603 16.5 9.375Z" fill="#292927"/>
</g>
</svg>
