<svg preserveAspectRatio="xMidYMid meet" overflow="visible" style="display: block;" viewBox="0 0 24 24" fill="none" xmlns="http://www.w3.org/2000/svg">
<g transform="translate(1.3749, 2.5000)">
<path id="Vector" fill-rule="evenodd" clip-rule="evenodd" d="M1.46857 0.534687C1.34954 0.137942 0.931431 -0.0871956 0.534687 0.0318277C0.137942 0.150851 -0.0871956 0.568964 0.0318277 0.965708L3.78183 13.4657C3.877 13.7829 4.16899 14.0002 4.5002 14.0002H17.5002C17.8314 14.0002 18.1234 13.7829 18.2186 13.4657L21.2186 3.46571C21.2867 3.23863 21.2434 2.99271 21.1019 2.8025C20.9604 2.61229 20.7373 2.5002 20.5002 2.5002H2.05822L1.46857 0.534687ZM5.05822 12.5002L2.50822 4.0002H19.4922L16.9422 12.5002H5.05822ZM11.2424 6.25C11.2424 5.83579 10.9066 5.5 10.4924 5.5C10.0782 5.5 9.74239 5.83579 9.74239 6.25V7.5H8.49239C8.07817 7.5 7.74239 7.83579 7.74239 8.25C7.74239 8.66421 8.07817 9 8.49239 9H9.74239V10.25C9.74239 10.6642 10.0782 11 10.4924 11C10.9066 11 11.2424 10.6642 11.2424 10.25V9H12.4924C12.9066 9 13.2424 8.66421 13.2424 8.25C13.2424 7.83579 12.9066 7.5 12.4924 7.5H11.2424V6.25ZM6.5002 16C6.91441 16 7.2502 16.3358 7.2502 16.75C7.2502 17.1642 7.58598 17.5 8.0002 17.5C8.41441 17.5 8.7502 17.1642 8.7502 16.75C8.7502 16.3358 9.08599 16 9.5002 16C9.91441 16 10.2502 16.3358 10.2502 16.75C10.2502 17.9926 9.24284 19 8.0002 19C6.75756 19 5.7502 17.9926 5.7502 16.75C5.7502 16.3358 6.08598 16 6.5002 16ZM13.2502 16.75C13.2502 16.3358 12.9144 16 12.5002 16C12.086 16 11.7502 16.3358 11.7502 16.75C11.7502 17.9926 12.7576 19 14.0002 19C15.2428 19 16.2502 17.9926 16.2502 16.75C16.2502 16.3358 15.9144 16 15.5002 16C15.086 16 14.7502 16.3358 14.7502 16.75C14.7502 17.1642 14.4144 17.5 14.0002 17.5C13.586 17.5 13.2502 17.1642 13.2502 16.75Z" fill="#292927"/>
</g>
</svg>
