<svg preserveAspectRatio="xMidYMid meet" overflow="visible" style="display: block;" viewBox="0 0 24 24" fill="none" xmlns="http://www.w3.org/2000/svg">
<g transform="translate(3.7500, 2.2500)">
<path id="Vector" fill-rule="evenodd" clip-rule="evenodd" d="M0.333691 9.12615L0.333711 9.12614L0.333976 9.12596L0.341368 9.12089C0.349053 9.1156 0.361675 9.10681 0.378526 9.09478C0.4123 9.07065 0.462624 9.03379 0.523922 8.98611C0.64775 8.8898 0.810158 8.75418 0.969675 8.59467C1.13158 8.43277 1.27417 8.26241 1.37251 8.0985C1.47327 7.93058 1.50001 7.81558 1.50001 7.75L1.50001 2.74914C1.50001 1.22994 2.73165 0 4.25001 0H5.25001C5.66423 0 6.00001 0.335787 6.00001 0.750001C6.00001 1.16421 5.66423 1.5 5.25001 1.5L4.25001 1.5C3.55923 1.5 3.00001 2.05921 3.00001 2.74914L3.00001 7.75C3.00001 8.18442 2.83925 8.56942 2.65875 8.87025C2.47584 9.17509 2.24343 9.44223 2.03033 9.65533C1.99788 9.68778 1.9655 9.71935 1.93335 9.75C1.96549 9.78064 1.99788 9.81222 2.03033 9.84467C2.24343 10.0578 2.47584 10.3249 2.65874 10.6298C2.83924 10.9306 3 11.3156 3 11.75L3.00001 16.7511C3.00001 17.4409 3.5591 18 4.25001 18H5.25001C5.66423 18 6.00001 18.3358 6.00001 18.75C6.00001 19.1642 5.66423 19.5 5.25001 19.5H4.25001C2.73179 19.5 1.50001 18.2705 1.50001 16.7512L1.5 11.75C1.5 11.6844 1.47326 11.5694 1.37251 11.4015C1.27416 11.2376 1.13157 11.0672 0.96967 10.9053C0.810154 10.7458 0.647746 10.6102 0.523919 10.5139C0.462621 10.4662 0.412298 10.4293 0.378524 10.4052C0.361673 10.3932 0.349051 10.3844 0.341366 10.3791L0.333974 10.374L0.33371 10.3739L0.333266 10.3736C0.125042 10.2344 0 10.0005 0 9.75C0 9.49965 0.124912 9.26583 0.332942 9.12665L0.33309 9.12655L0.333228 9.12646L0.333691 9.12615ZM16.1663 9.12615L16.1663 9.12614L16.166 9.12596L16.1586 9.12089C16.1509 9.1156 16.1383 9.10681 16.1215 9.09478C16.0877 9.07065 16.0374 9.03379 15.9761 8.98611C15.8522 8.8898 15.6898 8.75418 15.5303 8.59467C15.3684 8.43277 15.2258 8.26241 15.1275 8.0985C15.0267 7.93058 15 7.81558 15 7.75V2.74914C15 1.22994 13.7684 0 12.25 0H11.25C10.8358 0 10.5 0.335787 10.5 0.750001C10.5 1.16421 10.8358 1.5 11.25 1.5L12.25 1.5C12.9408 1.5 13.5 2.05921 13.5 2.74914V7.75C13.5 8.18442 13.6607 8.56942 13.8412 8.87025C14.0242 9.17509 14.2566 9.44223 14.4697 9.65533C14.5021 9.68778 14.5345 9.71935 14.5666 9.75C14.5345 9.78064 14.5021 9.81222 14.4697 9.84467C14.2566 10.0578 14.0242 10.3249 13.8413 10.6298C13.6608 10.9306 13.5 11.3156 13.5 11.75L13.5 16.7511C13.5 17.4409 12.9409 18 12.25 18H11.25C10.8358 18 10.5 18.3358 10.5 18.75C10.5 19.1642 10.8358 19.5 11.25 19.5H12.25C13.7682 19.5 15 18.2705 15 16.7512L15 11.75C15 11.6844 15.0267 11.5694 15.1275 11.4015C15.2258 11.2376 15.3684 11.0672 15.5303 10.9053C15.6898 10.7458 15.8523 10.6102 15.9761 10.5139C16.0374 10.4662 16.0877 10.4293 16.1215 10.4052C16.1291 10.3998 16.1359 10.395 16.1417 10.3909C16.1488 10.3859 16.1544 10.382 16.1586 10.3791L16.166 10.374L16.1663 10.3739L16.1667 10.3736C16.375 10.2344 16.5 10.0005 16.5 9.75C16.5 9.49965 16.3751 9.26583 16.1671 9.12665L16.1669 9.12655L16.1668 9.12646L16.1663 9.12615Z" fill="#292927"/>
</g>
</svg>
