<svg preserveAspectRatio="xMidYMid meet" overflow="visible" style="display: block;" viewBox="0 0 24 24" fill="none" xmlns="http://www.w3.org/2000/svg">
<g transform="translate(1.2499, 2.2500)">
<path id="Vector" fill-rule="evenodd" clip-rule="evenodd" d="M18.431 0.435706C18.3084 0.170094 18.0425 0 17.75 0C17.4575 0 17.1916 0.170094 17.069 0.435706L14.069 6.93571C13.8954 7.3118 14.0596 7.75739 14.4357 7.93097C14.8118 8.10455 15.2574 7.94038 15.431 7.56429L15.9222 6.5H19.5778L20.069 7.56429C20.2426 7.94038 20.6882 8.10455 21.0643 7.93097C21.4404 7.75739 21.6045 7.3118 21.431 6.93571L18.431 0.435706ZM18.8855 5H16.6145L17.75 2.53973L18.8855 5ZM0.750003 12.5001C0.46791 12.5001 0.209675 12.3418 0.0816671 12.0904C-0.0463407 11.839 -0.0224683 11.5371 0.143451 11.3089L8.14345 0.308922C8.33452 0.0462014 8.67301 -0.063645 8.98194 0.0368141C9.29087 0.137273 9.5 0.425197 9.5 0.750051V7.00005H11.75C12.1642 7.00005 12.5 7.33584 12.5 7.75005C12.5 8.16426 12.1642 8.50005 11.75 8.50005H8.75C8.33579 8.50005 8 8.16426 8 7.75005V3.05644L2.22283 11.0001H6.75C7.16422 11.0001 7.5 11.3358 7.5 11.7501V16.4437L12.1435 10.0589C12.3871 9.72393 12.8561 9.64987 13.1911 9.8935C13.5261 10.1371 13.6002 10.6062 13.3566 10.9412L7.35656 19.1912C7.16549 19.4539 6.827 19.5637 6.51807 19.4633C6.20914 19.3628 6 19.0749 6 18.7501V12.5001H0.750003Z" fill="#292927"/>
</g>
</svg>
