<svg preserveAspectRatio="xMidYMid meet" overflow="visible" style="display: block;" viewBox="0 0 24 24" fill="none" xmlns="http://www.w3.org/2000/svg">
<g transform="translate(1.2500, 6.2523)">
<path id="Vector" fill-rule="evenodd" clip-rule="evenodd" d="M15.6071 9.99524L13.8929 9.99525C11.4853 9.99525 9.5 7.82927 9.5 5.74762C9.5 5.33341 9.16421 4.99762 8.75 4.99762C8.33579 4.99762 8 5.33341 8 5.74762C8 8.64943 10.6486 11.4952 13.8929 11.4952L15.6071 11.4952C18.8413 11.4952 21.5 8.94205 21.5 5.74762C21.5 2.9957 19.524 0.717506 16.9115 0.141434C16.4912 0.0487547 16.0545 0 15.6071 0C15.1929 0 14.8571 0.335787 14.8571 0.75C14.8571 1.16421 15.1929 1.5 15.6071 1.5C15.9453 1.5 16.2737 1.53683 16.5885 1.60625C18.5565 2.0402 20 3.74272 20 5.74762C20 8.07341 18.0536 9.99524 15.6071 9.99524ZM5.89286 1.50014L7.60714 1.50013C10.0147 1.50013 12 3.66611 12 5.74776C12 6.16197 12.3358 6.49776 12.75 6.49776C13.1642 6.49776 13.5 6.16197 13.5 5.74776C13.5 2.84596 10.8514 0.000132501 7.60714 0.000132561L5.89286 0.000138164C2.65872 0.000138164 0 2.55333 0 5.74776C0 8.49968 1.97597 10.7779 4.5885 11.3539C5.00881 11.4466 5.44546 11.4954 5.89286 11.4954C6.30707 11.4954 6.64286 11.1596 6.64286 10.7454C6.64286 10.3312 6.30707 9.99538 5.89286 9.99538C5.55467 9.99538 5.22631 9.95855 4.9115 9.88914C2.94348 9.45518 1.5 7.75266 1.5 5.74776C1.5 3.42197 3.44635 1.50014 5.89286 1.50014Z" fill="#292927"/>
</g>
</svg>
