<svg preserveAspectRatio="xMidYMid meet" overflow="visible" style="display: block;" viewBox="0 0 24 24" fill="none" xmlns="http://www.w3.org/2000/svg">
<g transform="translate(1.2500, 2.7500)">
<path id="Vector" fill-rule="evenodd" clip-rule="evenodd" d="M2.75 0C1.23122 0 0 1.23122 0 2.75V12.75C0 14.2688 1.23122 15.5 2.75 15.5H10.75C11.1642 15.5 11.5 15.1642 11.5 14.75C11.5 14.3358 11.1642 14 10.75 14H2.75C2.05964 14 1.5 13.4404 1.5 12.75V2.75C1.5 2.05964 2.05964 1.5 2.75 1.5H18.75C19.4404 1.5 20 2.05964 20 2.75V4H4.75C4.33579 4 4 4.33579 4 4.75C4 5.16421 4.33579 5.5 4.75 5.5H20V8.75C20 9.16421 20.3358 9.5 20.75 9.5C21.1642 9.5 21.5 9.16421 21.5 8.75V2.75C21.5 1.23122 20.2688 0 18.75 0H2.75ZM14.5 14.25C14.5 12.7312 15.7312 11.5 17.25 11.5C17.747 11.5 18.2127 11.6314 18.6149 11.8619L14.835 15.5669C14.6212 15.1758 14.5 14.7274 14.5 14.25ZM15.8851 16.6381L19.665 12.9331C19.8788 13.3242 20 13.7726 20 14.25C20 15.7688 18.7688 17 17.25 17C16.753 17 16.2873 16.8686 15.8851 16.6381ZM17.25 10C14.9028 10 13 11.9028 13 14.25C13 15.4081 13.4642 16.4592 14.2149 17.225C14.9854 18.011 16.0613 18.5 17.25 18.5C19.5972 18.5 21.5 16.5972 21.5 14.25C21.5 13.0919 21.0358 12.0408 20.2851 11.275C19.5146 10.489 18.4387 10 17.25 10Z" fill="#292927"/>
</g>
</svg>
