<svg preserveAspectRatio="xMidYMid meet" overflow="visible" style="display: block;" viewBox="0 0 24 24" fill="none" xmlns="http://www.w3.org/2000/svg">
<g transform="translate(1.2500, 1.2500)">
<path id="Vector" fill-rule="evenodd" clip-rule="evenodd" d="M1.5 10.75C1.5 5.64137 5.64137 1.5 10.75 1.5C15.8586 1.5 20 5.64137 20 10.75C20 15.8586 15.8586 20 10.75 20C5.64137 20 1.5 15.8586 1.5 10.75ZM10.75 0C4.81294 0 0 4.81294 0 10.75C0 16.6871 4.81294 21.5 10.75 21.5C16.6871 21.5 21.5 16.6871 21.5 10.75C21.5 4.81294 16.6871 0 10.75 0ZM16 13.75C16 13.0596 15.4404 12.5 14.75 12.5C14.0596 12.5 13.5 13.0596 13.5 13.75C13.5 14.4404 14.0596 15 14.75 15C15.4404 15 16 14.4404 16 13.75ZM14.75 11C16.2688 11 17.5 12.2312 17.5 13.75C17.5 15.2688 16.2688 16.5 14.75 16.5C13.2312 16.5 12 15.2688 12 13.75C12 12.2312 13.2312 11 14.75 11ZM7.25 6C7.94036 6 8.5 6.55964 8.5 7.25C8.5 7.94036 7.94036 8.5 7.25 8.5C6.55964 8.5 6 7.94036 6 7.25C6 6.55964 6.55964 6 7.25 6ZM14.25 6C14.9404 6 15.5 6.55964 15.5 7.25C15.5 7.94036 14.9404 8.5 14.25 8.5C13.5596 8.5 13 7.94036 13 7.25C13 6.55964 13.5596 6 14.25 6Z" fill="#292927"/>
</g>
</svg>
