<svg preserveAspectRatio="xMidYMid meet" overflow="visible" style="display: block;" viewBox="0 0 24 24" fill="none" xmlns="http://www.w3.org/2000/svg">
<g transform="translate(1.2500, 4.2500)">
<path id="Vector" fill-rule="evenodd" clip-rule="evenodd" d="M16.75 0C19.3734 0 21.5 2.12665 21.5 4.75V10.75C21.5 13.3734 19.3734 15.5 16.75 15.5H4.75C2.12665 15.5 0 13.3734 0 10.75V4.75C0 2.12665 2.12665 0 4.75 0H16.75ZM20 4.75C20 2.95507 18.5449 1.5 16.75 1.5H4.75C2.95507 1.5 1.5 2.95507 1.5 4.75V10.75C1.5 12.5449 2.95507 14 4.75 14H16.75C18.5449 14 20 12.5449 20 10.75V4.75ZM8.78033 7.21967L6.28033 4.71967C5.98744 4.42678 5.51256 4.42678 5.21967 4.71967C4.92678 5.01256 4.92678 5.48744 5.21967 5.78033L7.18934 7.75L5.21967 9.71967C4.92678 10.0126 4.92678 10.4874 5.21967 10.7803C5.51256 11.0732 5.98744 11.0732 6.28033 10.7803L8.78033 8.28033C9.07322 7.98744 9.07322 7.51256 8.78033 7.21967ZM12.2197 7.21967L14.7197 4.71967C15.0126 4.42678 15.4874 4.42678 15.7803 4.71967C16.0732 5.01256 16.0732 5.48744 15.7803 5.78033L13.8107 7.75L15.7803 9.71967C16.0732 10.0126 16.0732 10.4874 15.7803 10.7803C15.4874 11.0732 15.0126 11.0732 14.7197 10.7803L12.2197 8.28033C11.9268 7.98744 11.9268 7.51256 12.2197 7.21967Z" fill="#292927"/>
</g>
</svg>
