<svg preserveAspectRatio="xMidYMid meet" overflow="visible" style="display: block;" viewBox="0 0 24 24" fill="none" xmlns="http://www.w3.org/2000/svg">
<g transform="translate(3.2500, 3.3507)">
<path id="Vector" fill-rule="evenodd" clip-rule="evenodd" d="M15.9416 0.0164816C16.7603 -0.111446 17.5 0.521622 17.5 1.3503V15.9482C17.5 16.7769 16.7603 17.41 15.9416 17.2821L1.14159 14.9696C0.484445 14.8669 0 14.3009 0 13.6357V3.6628C0 2.99768 0.484442 2.43166 1.14159 2.32898L15.9416 0.0164816ZM6.5 3.00993L1.5 3.79118V7.89941H6.5V3.00993ZM8 2.77556V7.89941H16V1.52556L8 2.77556ZM6.5 9.39941H1.5V13.5074L6.5 14.2886V9.39941ZM8 14.523V9.39941H16V15.773L8 14.523Z" fill="#292927"/>
</g>
</svg>
