<svg preserveAspectRatio="xMidYMid meet" overflow="visible" style="display: block;" viewBox="0 0 24 24" fill="none" xmlns="http://www.w3.org/2000/svg">
<g transform="translate(1.2500, 3.1042)">
<path id="Vector" fill-rule="evenodd" clip-rule="evenodd" d="M14.5 1.75292C14.5 0.359233 12.9502 -0.475258 11.7867 0.291909L5.78762 4.24735C5.74677 4.27428 5.69892 4.28863 5.65 4.28863H2.75C1.23122 4.28863 0 5.51985 0 7.03863V10.7529C0 12.2717 1.23122 13.5029 2.75 13.5029H5.65C5.69892 13.5029 5.74677 13.5173 5.78762 13.5442L11.7867 17.4996C12.9502 18.2668 14.5 17.4323 14.5 16.0386V1.75292ZM12.6124 1.5442C12.7786 1.43461 13 1.55382 13 1.75292V16.0386C13 16.2377 12.7786 16.3569 12.6124 16.2473L6.6133 12.2919C6.3274 12.1034 5.99246 12.0029 5.65 12.0029H2.75C2.05964 12.0029 1.5 11.4433 1.5 10.7529V7.03863C1.5 6.34828 2.05964 5.78863 2.75 5.78863H5.65C5.99246 5.78863 6.3274 5.68815 6.6133 5.49964L12.6124 1.5442ZM17.2803 6.36561C16.9873 6.07275 16.5125 6.0728 16.2196 6.36573C15.9267 6.65865 15.9268 7.13353 16.2197 7.42639L17.6897 8.896L16.2197 10.3656C15.9268 10.6585 15.9267 11.1333 16.2196 11.4263C16.5125 11.7192 16.9873 11.7192 17.2803 11.4264L18.7503 9.95666L20.2196 11.4263C20.5125 11.7192 20.9873 11.7192 21.2803 11.4264C21.5732 11.1335 21.5732 10.6587 21.2804 10.3657L19.811 8.896L21.2804 7.42627C21.5732 7.13334 21.5732 6.65847 21.2803 6.36561C20.9873 6.07275 20.5125 6.0728 20.2196 6.36573L18.7503 7.83534L17.2803 6.36561Z" fill="#292927"/>
</g>
</svg>
