<svg preserveAspectRatio="xMidYMid meet" overflow="visible" style="display: block;" viewBox="0 0 24 24" fill="none" xmlns="http://www.w3.org/2000/svg">
<g transform="translate(5.2500, 1.2500)">
<path id="Vector" fill-rule="evenodd" clip-rule="evenodd" d="M12.75 1.5C13.1642 1.5 13.5 1.16421 13.5 0.75C13.5 0.335786 13.1642 0 12.75 0H0.75C0.335787 0 0 0.335786 0 0.75C0 1.16421 0.335787 1.5 0.75 1.5H12.75ZM12.75 21.5C13.1642 21.5 13.5 21.1642 13.5 20.75C13.5 20.3358 13.1642 20 12.75 20H0.75C0.335787 20 0 20.3358 0 20.75C0 21.1642 0.335787 21.5 0.75 21.5H12.75ZM7.28033 9.28033L10.2803 6.28033C10.5732 5.98744 10.5732 5.51256 10.2803 5.21967C9.98744 4.92678 9.51256 4.92678 9.21967 5.21967L7.5 6.93934V3.75C7.5 3.33579 7.16421 3 6.75 3C6.33579 3 6 3.33579 6 3.75V6.93934L4.28033 5.21967C3.98744 4.92678 3.51256 4.92678 3.21967 5.21967C2.92678 5.51256 2.92678 5.98744 3.21967 6.28033L6.21967 9.28033C6.51256 9.57322 6.98744 9.57322 7.28033 9.28033ZM10.2803 15.2197L7.28033 12.2197C6.98744 11.9268 6.51256 11.9268 6.21967 12.2197L3.21967 15.2197C2.92678 15.5126 2.92678 15.9874 3.21967 16.2803C3.51256 16.5732 3.98744 16.5732 4.28033 16.2803L6 14.5607V17.75C6 18.1642 6.33579 18.5 6.75 18.5C7.16421 18.5 7.5 18.1642 7.5 17.75V14.5607L9.21967 16.2803C9.51256 16.5732 9.98744 16.5732 10.2803 16.2803C10.5732 15.9874 10.5732 15.5126 10.2803 15.2197Z" fill="#292927"/>
</g>
</svg>
