<svg preserveAspectRatio="xMidYMid meet" overflow="visible" style="display: block;" viewBox="0 0 24 24" fill="none" xmlns="http://www.w3.org/2000/svg">
<g transform="translate(2.2500, 1.2500)">
<path id="Vector" fill-rule="evenodd" clip-rule="evenodd" d="M3.2 2.85004C2.86863 3.09857 2.39853 3.03142 2.15 2.70004C1.90147 2.36867 1.96863 1.89857 2.3 1.65004L4.3 0.150044C4.63137 -0.098484 5.10147 -0.0313267 5.35 0.300044C5.59853 0.631415 5.53137 1.10152 5.2 1.35004L3.2 2.85004ZM9.75 12.5001C9.33579 12.5001 9 12.1643 9 11.7501V6.75009C9 6.33588 9.33579 6.00009 9.75 6.00009C10.1642 6.00009 10.5 6.33588 10.5 6.75009V11.0001H14.75C15.1642 11.0001 15.5 11.3359 15.5 11.7501C15.5 12.1643 15.1642 12.5001 14.75 12.5001H9.75ZM17.35 2.70004C17.1015 3.03142 16.6314 3.09857 16.3 2.85004L14.3 1.35004C13.9686 1.10152 13.9015 0.631415 14.15 0.300044C14.3985 -0.0313267 14.8686 -0.098484 15.2 0.150044L17.2 1.65004C17.5314 1.89857 17.5985 2.36867 17.35 2.70004ZM1.5 11.7501C1.5 7.19374 5.19365 3.50009 9.75 3.50009C14.3063 3.50009 18 7.19374 18 11.7501C18 16.3064 14.3063 20.0001 9.75 20.0001C5.19365 20.0001 1.5 16.3064 1.5 11.7501ZM9.75 2.00009C4.36522 2.00009 0 6.36531 0 11.7501C0 17.1349 4.36522 21.5001 9.75 21.5001C15.1348 21.5001 19.5 17.1349 19.5 11.7501C19.5 6.36531 15.1348 2.00009 9.75 2.00009Z" fill="#292927"/>
</g>
</svg>
