<svg preserveAspectRatio="xMidYMid meet" overflow="visible" style="display: block;" viewBox="0 0 24 24" fill="none" xmlns="http://www.w3.org/2000/svg">
<g transform="translate(0.7500, 0.7500)">
<path id="Vector" fill-rule="evenodd" clip-rule="evenodd" d="M3.25 1.5C2.2835 1.5 1.5 2.2835 1.5 3.25C1.5 4.2165 2.2835 5 3.25 5C3.53318 5 3.80065 4.93274 4.0373 4.81332L2.78948 3.84279C2.46252 3.58849 2.40362 3.11728 2.65792 2.79032C2.91222 2.46336 3.38343 2.40446 3.71039 2.65876L4.9587 3.62967C4.98574 3.50743 5 3.38038 5 3.25C5 2.2835 4.2165 1.5 3.25 1.5ZM6.20697 4.60055C6.39513 4.18924 6.5 3.73187 6.5 3.25C6.5 1.45507 5.04493 0 3.25 0C1.45507 0 0 1.45507 0 3.25C0 5.04493 1.45507 6.5 3.25 6.5C4.02043 6.5 4.72825 6.23192 5.28526 5.78396L7.08063 7.18035C7.06767 7.28375 7.06656 7.39049 7.07862 7.49908L7.76504 13.6768L5.25045 15.6884C4.69889 15.2571 4.00447 15 3.25 15C1.45507 15 0 16.4551 0 18.25C0 20.0449 1.45507 21.5 3.25 21.5C5.04493 21.5 6.5 20.0449 6.5 18.25C6.5 17.7523 6.38814 17.2808 6.1882 16.8592L7.96754 15.4357C8.10012 16.0505 8.64578 16.5 9.28703 16.5H9.75001C10.1642 16.5 10.5 16.1642 10.5 15.75C10.5 15.3358 10.1642 15 9.75001 15H9.42129L8.58796 7.5H12.9121L12.2546 13.4172C12.2089 13.8289 12.5055 14.1997 12.9172 14.2454C13.3289 14.2912 13.6997 13.9945 13.7454 13.5828L14.4214 7.49908C14.4335 7.39047 14.4323 7.28371 14.4194 7.1803L16.2147 5.78394C16.7717 6.23191 17.4796 6.5 18.25 6.5C20.0449 6.5 21.5 5.04493 21.5 3.25C21.5 1.45507 20.0449 0 18.25 0C16.4551 0 15 1.45507 15 3.25C15 3.73186 15.1049 4.18922 15.293 4.60051L13.4336 6.04673C13.321 6.01628 13.2024 6 13.0796 6H8.42037C8.29757 6 8.17893 6.01629 8.06636 6.04674L6.20697 4.60055ZM17.4627 4.8133L18.7105 3.84279C19.0374 3.58849 19.0963 3.11728 18.842 2.79032C18.5877 2.46336 18.1165 2.40446 17.7896 2.65876L16.5413 3.62963C16.5143 3.5074 16.5 3.38036 16.5 3.25C16.5 2.2835 17.2835 1.5 18.25 1.5C19.2165 1.5 20 2.2835 20 3.25C20 4.2165 19.2165 5 18.25 5C17.9668 5 17.6993 4.93273 17.4627 4.8133ZM3.25 16.5C3.52467 16.5 3.78456 16.5633 4.01588 16.6761L2.78149 17.6635C2.45803 17.9223 2.40559 18.3943 2.66434 18.7177C2.92309 19.0412 3.39506 19.0936 3.71851 18.8349L4.95337 17.847C4.98387 17.9764 5 18.1113 5 18.25C5 19.2165 4.2165 20 3.25 20C2.2835 20 1.5 19.2165 1.5 18.25C1.5 17.2835 2.2835 16.5 3.25 16.5ZM21.75 17C22.1642 17 22.5 17.3358 22.5 17.75V19.75C22.5 20.1642 22.1642 20.5 21.75 20.5C21.3358 20.5 21 20.1642 21 19.75V17.75C21 17.3358 21.3358 17 21.75 17ZM14.5 17.75C14.5 17.3358 14.1642 17 13.75 17C13.3358 17 13 17.3358 13 17.75V19.75C13 20.1642 13.3358 20.5 13.75 20.5C14.1642 20.5 14.5 20.1642 14.5 19.75V17.75ZM15.75 17C16.1642 17 16.5 17.3358 16.5 17.75V19.75C16.5 20.1642 16.1642 20.5 15.75 20.5C15.3358 20.5 15 20.1642 15 19.75V17.75C15 17.3358 15.3358 17 15.75 17ZM12.5 21V16.5H19V21H12.5ZM12.35 15C11.6044 15 11 15.6044 11 16.35V21.15C11 21.8956 11.6044 22.5 12.35 22.5H19.15C19.8956 22.5 20.5 21.8956 20.5 21.15V16.35C20.5 15.6044 19.8956 15 19.15 15H12.35Z" fill="#292927"/>
</g>
</svg>
