<svg preserveAspectRatio="xMidYMid meet" overflow="visible" style="display: block;" viewBox="0 0 24 24" fill="none" xmlns="http://www.w3.org/2000/svg">
<g transform="translate(2.2500, 2.2500)">
<path id="Vector" fill-rule="evenodd" clip-rule="evenodd" d="M10.75 0C10.3358 0 10 0.335786 10 0.75V1.25C10 1.94036 9.44036 2.5 8.75 2.5C6.67893 2.5 5 4.17893 5 6.25V6.75C5 7.16421 5.33579 7.5 5.75 7.5C6.16421 7.5 6.5 7.16421 6.5 6.75V6.25C6.5 5.00736 7.50736 4 8.75 4C10.2688 4 11.5 2.76878 11.5 1.25V0.75C11.5 0.335786 11.1642 0 10.75 0ZM14 1.25C14 0.835786 14.3358 0.5 14.75 0.5C15.1642 0.5 15.5 0.835786 15.5 1.25V1.89286C15.5 3.88503 13.885 5.5 11.8929 5.5C11.3647 5.5 11.0317 5.67917 10.8288 5.89224C10.6165 6.11516 10.5 6.42441 10.5 6.75C10.5 7.16421 10.1642 7.5 9.75 7.5C9.33579 7.5 9 7.16421 9 6.75C9 6.07559 9.24063 5.38484 9.74261 4.85776C10.254 4.32083 10.9924 4 11.8929 4C13.0566 4 14 3.0566 14 1.89286V1.25ZM14 12.75C14 15.6495 11.6495 18 8.75 18H6.75C3.8505 18 1.5 15.6495 1.5 12.75V9.5H13.75H14V12.75ZM15.5 9.5V12.75C15.5 12.8337 15.4985 12.917 15.4955 13H16.25C17.2165 13 18 12.2165 18 11.25C18 10.2835 17.2165 9.5 16.25 9.5H15.5ZM15.2709 14.5C14.5001 17.3796 11.8727 19.5 8.75 19.5H6.75C3.02208 19.5 0 16.4779 0 12.75V9.35C0 8.60441 0.604417 8 1.35 8H13.75H14.15H16.25C18.0449 8 19.5 9.45507 19.5 11.25C19.5 13.0449 18.0449 14.5 16.25 14.5H15.2709Z" fill="#292927"/>
</g>
</svg>
