<svg preserveAspectRatio="xMidYMid meet" overflow="visible" style="display: block;" viewBox="0 0 24 24" fill="none" xmlns="http://www.w3.org/2000/svg">
<g transform="translate(2.2500, 2.2500)">
<path id="Vector" fill-rule="evenodd" clip-rule="evenodd" d="M1.5 1.5V18H18V1.5H1.5ZM0 1.35C0 0.604415 0.604417 0 1.35 0H18.15C18.8956 0 19.5 0.604417 19.5 1.35V18.15C19.5 18.8956 18.8956 19.5 18.15 19.5H1.35C0.604415 19.5 0 18.8956 0 18.15V1.35ZM3 15.75C3 15.3358 3.33579 15 3.75 15L15.75 15C16.1642 15 16.5 15.3358 16.5 15.75C16.5 16.1642 16.1642 16.5 15.75 16.5L3.75 16.5C3.33579 16.5 3 16.1642 3 15.75ZM10.2803 3.21967C9.98744 2.92678 9.51256 2.92678 9.21967 3.21967L5.71967 6.71967C5.42678 7.01256 5.42678 7.48744 5.71967 7.78033C6.01256 8.07322 6.48744 8.07322 6.78033 7.78033L9 5.56066V11.75C9 12.1642 9.33579 12.5 9.75 12.5C10.1642 12.5 10.5 12.1642 10.5 11.75V5.56066L12.7197 7.78033C13.0126 8.07322 13.4874 8.07322 13.7803 7.78033C14.0732 7.48744 14.0732 7.01256 13.7803 6.71967L10.2803 3.21967Z" fill="#292927"/>
</g>
</svg>
