<svg preserveAspectRatio="xMidYMid meet" overflow="visible" style="display: block;" viewBox="0 0 24 24" fill="none" xmlns="http://www.w3.org/2000/svg">
<g transform="translate(3.2500, 2.2500)">
<path id="Vector" fill-rule="evenodd" clip-rule="evenodd" d="M2.75 1.5C2.05964 1.5 1.5 2.05964 1.5 2.75V14.2999C1.87503 14.1081 2.29989 14 2.75 14H16V1.5H2.75ZM2.75 15.5H16.75C17.1642 15.5 17.5 15.1642 17.5 14.75C17.5 14.7011 17.4953 14.6534 17.4864 14.6071C17.4953 14.5609 17.5 14.5131 17.5 14.4643V1.35C17.5 0.604415 16.8956 0 16.15 0H2.75C1.23122 0 0 1.23122 0 2.75V16.75C0 18.2688 1.23122 19.5 2.75 19.5H16.75C17.1642 19.5 17.5 19.1642 17.5 18.75C17.5 18.3358 17.1642 18 16.75 18H2.75C2.05964 18 1.5 17.4404 1.5 16.75C1.5 16.0596 2.05964 15.5 2.75 15.5ZM6.54135 4.06177C6.9804 3.45198 7.70556 3 8.75 3C9.79444 3 10.5196 3.45198 10.9587 4.06177C11.3702 4.63332 11.5 5.29665 11.5 5.75V7.04581C12.0759 7.19998 12.5 7.72546 12.5 8.35V11.15C12.5 11.8956 11.8956 12.5 11.15 12.5H6.35C5.60442 12.5 5 11.8956 5 11.15V8.35C5 7.72546 5.42409 7.19998 6 7.04581V5.75C6 5.29665 6.12984 4.63332 6.54135 4.06177ZM10 7V5.75C10 5.53668 9.92984 5.20002 9.74135 4.93823C9.5804 4.71468 9.30556 4.5 8.75 4.5C8.19444 4.5 7.9196 4.71468 7.75865 4.93823C7.57016 5.20002 7.5 5.53668 7.5 5.75V7H10ZM6.5 8.5V11H11V8.5H6.5Z" fill="#292927"/>
</g>
</svg>
