<svg preserveAspectRatio="xMidYMid meet" overflow="visible" style="display: block;" viewBox="0 0 24 24" fill="none" xmlns="http://www.w3.org/2000/svg">
<g transform="translate(0.2500, 6.7500)">
<path id="Vector" fill-rule="evenodd" clip-rule="evenodd" d="M11.5 9.75C11.5 10.1642 11.1642 10.5 10.75 10.5H7.25C6.83579 10.5 6.5 10.1642 6.5 9.75V8.5H4.75H0.75C0.335787 8.5 0 8.16421 0 7.75V0.75C0 0.335787 0.335787 0 0.75 0H7.25H13.25H22.75C23.1642 0 23.5 0.335787 23.5 0.75V7.75C23.5 8.16421 23.1642 8.5 22.75 8.5H20.25H17.75H13.25H11.5V9.75ZM21 7V3.75C21 3.33579 20.6642 3 20.25 3C19.8358 3 19.5 3.33579 19.5 3.75V7H18.5V3.75C18.5 3.33579 18.1642 3 17.75 3C17.3358 3 17 3.33579 17 3.75V7H14V1.5H22V7H21ZM5.5 7V3.75C5.5 3.33579 5.16421 3 4.75 3C4.33579 3 4 3.33579 4 3.75V7H1.5V1.5H6.5V7H5.5ZM12.5 7H10.75C10.3358 7 10 7.33579 10 7.75V9H8V7.75V1.5H12.5V7ZM10.75 3C11.1642 3 11.5 3.33579 11.5 3.75V4.75C11.5 5.16421 11.1642 5.5 10.75 5.5C10.3358 5.5 10 5.16421 10 4.75V3.75C10 3.33579 10.3358 3 10.75 3Z" fill="#292927"/>
</g>
</svg>
