<svg preserveAspectRatio="xMidYMid meet" overflow="visible" style="display: block;" viewBox="0 0 24 24" fill="none" xmlns="http://www.w3.org/2000/svg">
<g transform="translate(1.2500, 1.2500)">
<path id="Vector" fill-rule="evenodd" clip-rule="evenodd" d="M10.75 1.5C5.64137 1.5 1.5 5.64137 1.5 10.75C1.5 15.8586 5.64137 20 10.75 20C15.8586 20 20 15.8586 20 10.75C20 5.64137 15.8586 1.5 10.75 1.5ZM0 10.75C0 4.81294 4.81294 0 10.75 0C16.6871 0 21.5 4.81294 21.5 10.75C21.5 16.6871 16.6871 21.5 10.75 21.5C4.81294 21.5 0 16.6871 0 10.75ZM12 13.75C12 13.3358 12.3358 13 12.75 13H15.75C16.1642 13 16.5 13.3358 16.5 13.75C16.5 14.1642 16.1642 14.5 15.75 14.5H12.75C12.3358 14.5 12 14.1642 12 13.75ZM7.25 6C7.94036 6 8.5 6.55964 8.5 7.25C8.5 7.94036 7.94036 8.5 7.25 8.5C6.55964 8.5 6 7.94036 6 7.25C6 6.55964 6.55964 6 7.25 6ZM14.25 6C14.9404 6 15.5 6.55964 15.5 7.25C15.5 7.94036 14.9404 8.5 14.25 8.5C13.5596 8.5 13 7.94036 13 7.25C13 6.55964 13.5596 6 14.25 6Z" fill="#292927"/>
</g>
</svg>
