<svg preserveAspectRatio="xMidYMid meet" overflow="visible" style="display: block;" viewBox="0 0 24 24" fill="none" xmlns="http://www.w3.org/2000/svg">
<g transform="translate(0.7500, 1.2500)">
<path id="Vector" fill-rule="evenodd" clip-rule="evenodd" d="M0.10553 12.3701C-0.0352751 12.6067 -0.0351698 12.9014 0.105805 13.1378L3.68081 19.1341C3.8161 19.361 4.06081 19.5 4.325 19.5H10.7536C11.1678 19.5 11.5036 19.1642 11.5036 18.75C11.5036 18.3358 11.1678 18 10.7536 18H5.55561L7.87421 13.5038H11.25C11.6642 13.5038 12 13.168 12 12.7538C12 12.3395 11.6642 12.0038 11.25 12.0038H8.64772L10.7508 7.92553L12.1282 10.594C12.3182 10.9621 12.7706 11.1064 13.1386 10.9165C13.5067 10.7265 13.6511 10.2741 13.4611 9.90599L11.5944 6.28959L13.654 2.29546L18.3181 10.1335C18.5299 10.4895 18.9902 10.6063 19.3461 10.3945C19.7021 10.1827 19.8189 9.72244 19.6071 9.36648L14.2517 0.366476C14.1164 0.13909 13.8712 -0.000173558 13.6067 1.62337e-07L7.89237 0.00375391C7.62816 0.00392748 7.38353 0.143107 7.24839 0.370141L0.10553 12.3701ZM12.3761 1.50081L10.7501 4.654L9.1236 1.50295L12.3761 1.50081ZM7.84619 2.29848L9.9065 6.28993L6.96002 12.0038H2.06924L7.84619 2.29848ZM2.07034 13.5038H6.18651L4.27749 17.2057L2.07034 13.5038ZM17.7401 13.5C16.3615 13.5 15.1228 14.4887 14.6631 15.972C14.5405 16.3677 14.1203 16.589 13.7247 16.4664C13.329 16.3438 13.1077 15.9236 13.2303 15.528C13.8525 13.5203 15.6018 12 17.7401 12C19.0175 12 20.1573 12.5437 21 13.4091V13.2998C21 12.8856 21.3358 12.5498 21.75 12.5498C22.1642 12.5498 22.5 12.8856 22.5 13.2998V14.922C22.5 15.6676 21.8956 16.272 21.15 16.272H19.7451C19.3308 16.272 18.9951 15.9362 18.9951 15.522C18.9951 15.1078 19.3308 14.772 19.7451 14.772H20.2009C19.5922 13.9789 18.701 13.5 17.7401 13.5ZM17.7599 20C19.1385 20 20.3772 19.0113 20.8369 17.528C20.9595 17.1323 21.3797 16.911 21.7753 17.0336C22.171 17.1562 22.3923 17.5764 22.2697 17.972C21.6475 19.9797 19.8982 21.5 17.7599 21.5C16.4825 21.5 15.3427 20.9563 14.5 20.0909V20.2002C14.5 20.6144 14.1642 20.9502 13.75 20.9502C13.3358 20.9502 13 20.6144 13 20.2002V18.578C13 17.8324 13.6044 17.228 14.35 17.228H15.7549C16.1692 17.228 16.5049 17.5638 16.5049 17.978C16.5049 18.3922 16.1692 18.728 15.7549 18.728H15.2991C15.9078 19.5211 16.799 20 17.7599 20Z" fill="#292927"/>
</g>
</svg>
