<svg preserveAspectRatio="xMidYMid meet" overflow="visible" style="display: block;" viewBox="0 0 24 24" fill="none" xmlns="http://www.w3.org/2000/svg">
<g transform="translate(4.2500, 4.2500)">
<path id="Vector" fill-rule="evenodd" clip-rule="evenodd" d="M0 0.75C0 0.335786 0.335786 0 0.75 0H7.75H14.75C15.1642 0 15.5 0.335786 15.5 0.75V2.75C15.5 3.16421 15.1642 3.5 14.75 3.5C14.3358 3.5 14 3.16421 14 2.75V1.5H8.5V14H9.75C10.1642 14 10.5 14.3358 10.5 14.75C10.5 15.1642 10.1642 15.5 9.75 15.5H5.75C5.33579 15.5 5 15.1642 5 14.75C5 14.3358 5.33579 14 5.75 14H7V1.5H1.5V2.75C1.5 3.16421 1.16421 3.5 0.75 3.5C0.335786 3.5 0 3.16421 0 2.75V0.75Z" fill="#292927"/>
</g>
</svg>
