<svg preserveAspectRatio="xMidYMid meet" overflow="visible" style="display: block;" viewBox="0 0 24 24" fill="none" xmlns="http://www.w3.org/2000/svg">
<g transform="translate(1.3499, 1.2498)">
<path id="Vector" fill-rule="evenodd" clip-rule="evenodd" d="M10.4997 0.778327C10.512 0.45376 10.3109 0.146575 9.98722 0.0386885C9.78744 -0.0279004 9.57946 -0.00574769 9.40603 0.0837595C4.10293 0.745554 0 5.26842 0 10.7505C0 16.6875 4.81294 21.5005 10.75 21.5005C15.9516 21.5005 20.2889 17.8068 21.285 12.8997C21.3674 12.4937 21.1051 12.0979 20.6992 12.0155C20.5976 11.9949 20.4968 11.9958 20.4012 12.0152C20.3232 12.0203 20.2446 12.0377 20.1681 12.0687C19.775 12.2281 19.0715 12.2409 18.4779 11.9524C17.9444 11.6931 17.5 11.195 17.5 10.2502C17.5 10.0383 17.4104 9.8363 17.2533 9.69411C17.0962 9.55193 16.8862 9.48284 16.6754 9.50393C14.3434 9.73713 12.9104 9.02497 12.2526 8.07366C11.5987 7.12791 11.544 5.70474 12.4799 4.13412C12.618 3.90235 12.621 3.61426 12.4877 3.37969C12.3544 3.14511 12.1054 3.0002 11.8356 3.0002C10.8529 3.0002 10.1799 2.13286 10.417 1.14294C10.4735 1.03336 10.5036 0.908754 10.4997 0.778327ZM8.87575 1.69035C4.66598 2.55645 1.5 6.28414 1.5 10.7505C1.5 15.8591 5.64137 20.0005 10.75 20.0005C14.8339 20.0005 18.301 17.3532 19.5265 13.6808C18.9612 13.6841 18.3615 13.5636 17.8221 13.3014C16.9906 12.8972 16.3001 12.1532 16.0764 11.0443C13.7707 11.1057 11.9873 10.3274 11.0189 8.92675C10.1154 7.6201 10.0403 5.94411 10.7224 4.2969C9.6359 3.87468 8.93539 2.84541 8.87575 1.69035ZM5 8.25C5 8.38807 5.11193 8.5 5.25 8.5C5.38807 8.5 5.5 8.38807 5.5 8.25C5.5 8.11193 5.38807 8 5.25 8C5.11193 8 5 8.11193 5 8.25ZM5.25 7C5.94036 7 6.5 7.55964 6.5 8.25C6.5 8.94036 5.94036 9.5 5.25 9.5C4.55964 9.5 4 8.94036 4 8.25C4 7.55964 4.55964 7 5.25 7ZM19.25 2.5C19.1119 2.5 19 2.38807 19 2.25C19 2.11193 19.1119 2 19.25 2C19.3881 2 19.5 2.11193 19.5 2.25C19.5 2.38807 19.3881 2.5 19.25 2.5ZM20.5 2.25C20.5 1.55964 19.9404 1 19.25 1C18.5596 1 18 1.55964 18 2.25C18 2.94036 18.5596 3.5 19.25 3.5C19.9404 3.5 20.5 2.94036 20.5 2.25ZM11 16.75C11 16.6119 10.8881 16.5 10.75 16.5C10.6119 16.5 10.5 16.6119 10.5 16.75C10.5 16.8881 10.6119 17 10.75 17C10.8881 17 11 16.8881 11 16.75ZM10.75 15C11.7165 15 12.5 15.7835 12.5 16.75C12.5 17.7165 11.7165 18.5 10.75 18.5C9.7835 18.5 9 17.7165 9 16.75C9 15.7835 9.7835 15 10.75 15ZM6.26172 13.1916C6.56961 13.4687 6.59457 13.9429 6.31747 14.2508L6.30747 14.2619C6.03038 14.5697 5.55616 14.5947 5.24828 14.3176C4.94039 14.0405 4.91544 13.5663 5.19253 13.2584L5.20253 13.2473C5.47962 12.9394 5.95384 12.9145 6.26172 13.1916ZM16.3175 14.2508C16.5946 13.9429 16.5696 13.4687 16.2617 13.1916C15.9538 12.9145 15.4796 12.9394 15.2025 13.2473L15.1925 13.2584C14.9154 13.5663 14.9404 14.0405 15.2483 14.3176C15.5562 14.5947 16.0304 14.5697 16.3075 14.2619L16.3175 14.2508ZM10.2617 10.1916C10.5696 10.4687 10.5946 10.9429 10.3175 11.2508L10.3075 11.2619C10.0304 11.5697 9.55616 11.5947 9.24827 11.3176C8.94039 11.0405 8.91543 10.5663 9.19253 10.2584L9.20253 10.2473C9.47962 9.93942 9.95384 9.91446 10.2617 10.1916ZM20.3175 8.25075C20.5946 7.94287 20.5696 7.46865 20.2617 7.19156C19.9538 6.91446 19.4796 6.93942 19.2025 7.24731L19.1925 7.25842C18.9154 7.5663 18.9404 8.04052 19.2483 8.31761C19.5562 8.59471 20.0304 8.56975 20.3075 8.26186L20.3175 8.25075ZM16.2617 4.19156C16.5696 4.46865 16.5946 4.94287 16.3175 5.25075L16.3075 5.26186C16.0304 5.56975 15.5562 5.59471 15.2483 5.31761C14.9404 5.04052 14.9154 4.5663 15.1925 4.25842L15.2025 4.24731C15.4796 3.93942 15.9538 3.91447 16.2617 4.19156Z" fill="#292927"/>
</g>
</svg>
