<svg preserveAspectRatio="xMidYMid meet" overflow="visible" style="display: block;" viewBox="0 0 24 24" fill="none" xmlns="http://www.w3.org/2000/svg">
<g transform="translate(3.2500, 3.2500)">
<path id="Vector" fill-rule="evenodd" clip-rule="evenodd" d="M12 0.75C12 0.335786 12.3358 0 12.75 0H16.75C17.1642 0 17.5 0.335786 17.5 0.75V4.75C17.5 5.16421 17.1642 5.5 16.75 5.5C16.3358 5.5 16 5.16421 16 4.75V2.55609L12.0155 6.52634C12.9438 7.68234 13.5 9.15173 13.5 10.75C13.5 14.4779 10.4779 17.5 6.75 17.5C3.02208 17.5 0 14.4779 0 10.75C0 7.02208 3.02208 4 6.75 4C8.33863 4 9.79997 4.54953 10.9528 5.46776L14.9347 1.5H12.75C12.3358 1.5 12 1.16421 12 0.75ZM6.75 5.5C3.8505 5.5 1.5 7.8505 1.5 10.75C1.5 13.6495 3.8505 16 6.75 16C9.6495 16 12 13.6495 12 10.75C12 9.29547 11.4095 7.98028 10.4533 7.02868C9.50313 6.0831 8.19538 5.5 6.75 5.5Z" fill="#292927"/>
</g>
</svg>
