<svg preserveAspectRatio="xMidYMid meet" overflow="visible" style="display: block;" viewBox="0 0 24 24" fill="none" xmlns="http://www.w3.org/2000/svg">
<g transform="translate(1.2513, 1.2503)">
<path id="Vector" fill-rule="evenodd" clip-rule="evenodd" d="M0 0.75C0 0.335786 0.335786 0 0.75 0H3.7484C4.16261 0 4.4984 0.335786 4.4984 0.75V1.5H16.999V0.750977C16.999 0.336763 17.3348 0.000976562 17.749 0.000976562H20.7474C21.1616 0.000976562 21.4974 0.336763 21.4974 0.750977V3.74938C21.4974 4.16359 21.1616 4.49938 20.7474 4.49938H19.9978V17.001H20.7474C21.1616 17.001 21.4974 17.3368 21.4974 17.751V20.7494C21.4974 21.1636 21.1616 21.4994 20.7474 21.4994H17.749C17.3348 21.4994 16.999 21.1636 16.999 20.7494V20H4.4984V20.7484C4.4984 21.1626 4.16261 21.4984 3.7484 21.4984H0.75C0.335786 21.4984 0 21.1626 0 20.7484V17.75C0 17.3358 0.335786 17 0.75 17H1.5V4.4984H0.75C0.335786 4.4984 0 4.16261 0 3.7484V0.75ZM19.2478 18.502C19.2347 18.502 19.2216 18.5016 19.2087 18.501H18.499V19.9994H19.9974V18.501H19.2869C19.274 18.5016 19.2609 18.502 19.2478 18.502ZM18.4978 4.49938V17.001H17.749C17.3348 17.001 16.999 17.3368 16.999 17.751V18.5H4.4984V17.75C4.4984 17.3358 4.16261 17 3.7484 17H3V4.4984H3.7484C4.16261 4.4984 4.4984 4.16261 4.4984 3.7484V3H16.999V3.74938C16.999 4.16359 17.3348 4.49938 17.749 4.49938H18.4978ZM2.25 18.5L2.2436 18.5H1.5V19.9984H2.9984V18.5H2.2564L2.25 18.5ZM2.27324 2.9984C2.26552 2.99817 2.25777 2.99805 2.25 2.99805C2.24223 2.99805 2.23448 2.99817 2.22676 2.9984H1.5V1.5H2.9984V2.9984H2.27324ZM18.499 2.99938V1.50098H19.9974V2.99938H18.499ZM11.5 7.75C11.5 7.33579 11.1642 7 10.75 7C10.3358 7 10 7.33579 10 7.75V10H7.75C7.33579 10 7 10.3358 7 10.75C7 11.1642 7.33579 11.5 7.75 11.5H10V13.75C10 14.1642 10.3358 14.5 10.75 14.5C11.1642 14.5 11.5 14.1642 11.5 13.75V11.5H13.75C14.1642 11.5 14.5 11.1642 14.5 10.75C14.5 10.3358 14.1642 10 13.75 10H11.5V7.75Z" fill="#292927"/>
</g>
</svg>
