<svg preserveAspectRatio="xMidYMid meet" overflow="visible" style="display: block;" viewBox="0 0 24 24" fill="none" xmlns="http://www.w3.org/2000/svg">
<g transform="translate(1.2500, 3.2500)">
<path id="Vector" fill-rule="evenodd" clip-rule="evenodd" d="M9.08333 0C8.66912 0 8.33333 0.335786 8.33333 0.75V2.33333H6.75C6.33579 2.33333 6 2.66912 6 3.08333V6.41667C6 6.83088 6.33579 7.16667 6.75 7.16667H8.33333V8.75C8.33333 9.16421 8.66912 9.5 9.08333 9.5H12.4167C12.8309 9.5 13.1667 9.16421 13.1667 8.75V7.16667H14.75C15.1642 7.16667 15.5 6.83088 15.5 6.41667V3.08333C15.5 2.66912 15.1642 2.33333 14.75 2.33333H13.1667V0.75C13.1667 0.335786 12.8309 0 12.4167 0H9.08333ZM9.83333 3.08333V1.5H11.6667V3.08333C11.6667 3.49755 12.0025 3.83333 12.4167 3.83333H14V5.66667H12.4167C12.0025 5.66667 11.6667 6.00245 11.6667 6.41667V8H9.83333V6.41667C9.83333 6.00245 9.49755 5.66667 9.08333 5.66667H7.5V3.83333H9.08333C9.49755 3.83333 9.83333 3.49755 9.83333 3.08333ZM1.5 7.25C1.5 6.83579 1.83579 6.5 2.25 6.5C2.66421 6.5 3 6.83579 3 7.25V11.5495V11.75C3 11.9886 3.11146 12.2013 3.28516 12.3386C3.30923 12.3676 3.3347 12.3955 3.36154 12.4223L4.21967 13.2805C4.51256 13.5734 4.98744 13.5734 5.28033 13.2805C5.57322 12.9876 5.57322 12.5127 5.28033 12.2198L4.68279 11.6223L4.79608 11.5656C5.27731 11.325 5.85853 11.4193 6.23898 11.7998L7.13388 12.6947C7.3683 12.9291 7.5 13.2471 7.5 13.5786V16.7501C7.5 17.1644 7.83579 17.5001 8.25 17.5001C8.66421 17.5001 9 17.1644 9 16.7501V13.5786C9 12.8492 8.71027 12.1498 8.19454 11.634L7.29964 10.7391C6.55935 9.99884 5.47354 9.75099 4.5 10.0699V7.25C4.5 6.00736 3.49264 5 2.25 5C1.00736 5 0 6.00736 0 7.25V12.5015C0 12.8595 0.142232 13.2029 0.395406 13.4561L4.21967 17.2803C4.51256 17.5732 4.98744 17.5732 5.28033 17.2803C5.57322 16.9874 5.57322 16.5126 5.28033 16.2197L1.5 12.4393V7.25ZM17 7.25C17 6.00736 18.0074 5 19.25 5C20.4926 5 21.5 6.00736 21.5 7.25V12.5015C21.5 12.8595 21.3578 13.2029 21.1046 13.4561L17.2803 17.2803C16.9874 17.5732 16.5126 17.5732 16.2197 17.2803C15.9268 16.9874 15.9268 16.5126 16.2197 16.2197L20 12.4393V7.25C20 6.83579 19.6642 6.5 19.25 6.5C18.8358 6.5 18.5 6.83579 18.5 7.25V11.5495V11.75C18.5 11.9886 18.3885 12.2013 18.2148 12.3386C18.1908 12.3676 18.1653 12.3955 18.1385 12.4223L17.2803 13.2805C16.9874 13.5734 16.5126 13.5734 16.2197 13.2805C15.9268 12.9876 15.9268 12.5127 16.2197 12.2198L16.8172 11.6223L16.7039 11.5656C16.2227 11.325 15.6415 11.4193 15.261 11.7998L14.3661 12.6947C14.1317 12.9291 14 13.2471 14 13.5786V16.7501C14 17.1644 13.6642 17.5001 13.25 17.5001C12.8358 17.5001 12.5 17.1644 12.5 16.7501V13.5786C12.5 12.8492 12.7897 12.1498 13.3055 11.634L14.2004 10.7391C14.9407 9.99884 16.0265 9.75099 17 10.0699V7.25Z" fill="#292927"/>
</g>
</svg>
