<svg preserveAspectRatio="xMidYMid meet" overflow="visible" style="display: block;" viewBox="0 0 24 24" fill="none" xmlns="http://www.w3.org/2000/svg">
<g transform="translate(1.2740, 1.2500)">
<path id="Vector" fill-rule="evenodd" clip-rule="evenodd" d="M1.49772 9.8241C1.96174 5.15058 5.90602 1.5 10.702 1.5C14.3859 1.5 17.5682 3.65341 19.0562 6.77344C19.2606 7.20196 19.696 7.5 20.1991 7.5C20.891 7.5 21.452 6.93903 21.452 6.24704V1.75C21.452 1.33579 21.1162 1 20.702 1C20.2878 1 19.952 1.33579 19.952 1.75V5.26976C18.0795 2.11586 14.6385 0 10.702 0C5.12732 0 0.544497 4.24278 0.00506396 9.6759C-0.0358605 10.0881 0.265107 10.4554 0.677294 10.4963C1.08948 10.5373 1.4568 10.2363 1.49772 9.8241ZM7.60688 7.67485L9.00818 5.5H12.3903L13.7915 7.67485C14.0401 8.06057 14.4675 8.29365 14.9264 8.29365H15.9492V15H5.44921V8.29365H6.47205C6.93091 8.29365 7.35835 8.06057 7.60688 7.67485ZM8.92638 4C8.46752 4 8.04008 4.23308 7.79155 4.6188L6.39025 6.79365H5.29922C4.55363 6.79365 3.94921 7.39807 3.94921 8.14365V15.15C3.94921 15.8956 4.55363 16.5 5.29921 16.5H16.0992C16.8448 16.5 17.4492 15.8956 17.4492 15.15V8.14365C17.4492 7.39807 16.8448 6.79365 16.0992 6.79365H15.0082L13.6069 4.6188C13.3584 4.23308 12.9309 4 12.472 4H8.92638ZM10.6992 9.5C10.0089 9.5 9.44921 10.0596 9.44921 10.75C9.44921 11.4404 10.0089 12 10.6992 12C11.3896 12 11.9492 11.4404 11.9492 10.75C11.9492 10.0596 11.3896 9.5 10.6992 9.5ZM7.94921 10.75C7.94921 9.23122 9.18043 8 10.6992 8C12.218 8 13.4492 9.23122 13.4492 10.75C13.4492 12.2688 12.218 13.5 10.6992 13.5C9.18043 13.5 7.94921 12.2688 7.94921 10.75ZM19.9543 11.6759C19.4903 16.3494 15.546 20 10.75 20C7.06616 20 3.8838 17.8466 2.3958 14.7266C2.19143 14.298 1.75601 14 1.25296 14C0.56097 14 0 14.561 0 15.253V19.75C0 20.1642 0.335787 20.5 0.75 20.5C1.16421 20.5 1.5 20.1642 1.5 19.75V16.2302C3.3725 19.3841 6.81353 21.5 10.75 21.5C16.3247 21.5 20.9075 17.2572 21.447 11.8241C21.4879 11.4119 21.1869 11.0446 20.7747 11.0037C20.3625 10.9627 19.9952 11.2637 19.9543 11.6759Z" fill="#292927"/>
</g>
</svg>
