<svg preserveAspectRatio="xMidYMid meet" overflow="visible" style="display: block;" viewBox="0 0 24 24" fill="none" xmlns="http://www.w3.org/2000/svg">
<g transform="translate(1.2500, 1.7500)">
<path id="Vector" fill-rule="evenodd" clip-rule="evenodd" d="M1.5 2.75C1.5 2.05964 2.05964 1.5 2.75 1.5H18.75C19.4404 1.5 20 2.05964 20 2.75V4H1.5V2.75ZM0 4.75V2.75C0 1.23122 1.23122 0 2.75 0H18.75C20.2688 0 21.5 1.23122 21.5 2.75V4.75V11.75C21.5 12.1642 21.1642 12.5 20.75 12.5C20.3358 12.5 20 12.1642 20 11.75V5.5H1.5V16.75C1.5 17.4404 2.05964 18 2.75 18H12.75C13.1642 18 13.5 18.3358 13.5 18.75C13.5 19.1642 13.1642 19.5 12.75 19.5H2.75C1.23122 19.5 0 18.2688 0 16.75V4.75ZM4.26172 2.19058C4.5696 2.46768 4.59456 2.9419 4.31747 3.24978L4.30747 3.26089C4.03037 3.56877 3.55616 3.59373 3.24827 3.31663C2.94039 3.03954 2.91543 2.56532 3.19253 2.25744L3.20253 2.24633C3.47962 1.93845 3.95384 1.91349 4.26172 2.19058ZM7.31747 3.24978C7.59456 2.9419 7.5696 2.46768 7.26172 2.19058C6.95384 1.91349 6.47962 1.93845 6.20253 2.24633L6.19253 2.25744C5.91543 2.56532 5.94039 3.03954 6.24827 3.31663C6.55616 3.59373 7.03037 3.56877 7.30747 3.26089L7.31747 3.24978ZM10.2617 2.19058C10.5696 2.46768 10.5946 2.9419 10.3175 3.24978L10.3075 3.26089C10.0304 3.56877 9.55616 3.59373 9.24827 3.31663C8.94039 3.03954 8.91543 2.56532 9.19253 2.25744L9.20253 2.24633C9.47962 1.93845 9.95384 1.91349 10.2617 2.19058ZM18.7803 13.2197C18.4874 12.9268 18.0126 12.9268 17.7197 13.2197L15.2197 15.7197C14.9268 16.0126 14.9268 16.4874 15.2197 16.7803C15.5126 17.0732 15.9874 17.0732 16.2803 16.7803L17.5 15.5607V19.75C17.5 20.1642 17.8358 20.5 18.25 20.5C18.6642 20.5 19 20.1642 19 19.75V15.5607L20.2197 16.7803C20.5126 17.0732 20.9874 17.0732 21.2803 16.7803C21.5732 16.4874 21.5732 16.0126 21.2803 15.7197L18.7803 13.2197Z" fill="#292927"/>
</g>
</svg>
