<svg preserveAspectRatio="xMidYMid meet" overflow="visible" style="display: block;" viewBox="0 0 24 24" fill="none" xmlns="http://www.w3.org/2000/svg">
<g transform="translate(1.2500, 1.2500)">
<path id="Vector" fill-rule="evenodd" clip-rule="evenodd" d="M10.75 0C4.81294 0 0 4.81294 0 10.75C0 16.687 4.81293 21.5 10.75 21.5C16.687 21.5 21.5 16.687 21.5 10.75C21.5 4.81293 16.687 0 10.75 0ZM1.5 10.75C1.5 5.64136 5.64136 1.5 10.75 1.5C15.8586 1.5 20 5.64137 20 10.75C20 15.8586 15.8586 20 10.75 20C5.64137 20 1.5 15.8586 1.5 10.75ZM12.2803 7.78033C12.5732 7.48744 12.5732 7.01256 12.2803 6.71967C11.9874 6.42678 11.5126 6.42678 11.2197 6.71967L7.71967 10.2197C7.42678 10.5126 7.42678 10.9874 7.71967 11.2803L11.2197 14.7803C11.5126 15.0732 11.9874 15.0732 12.2803 14.7803C12.5732 14.4874 12.5732 14.0126 12.2803 13.7197L9.31066 10.75L12.2803 7.78033Z" fill="#292927"/>
</g>
</svg>
