<svg preserveAspectRatio="xMidYMid meet" overflow="visible" style="display: block;" viewBox="0 0 24 24" fill="none" xmlns="http://www.w3.org/2000/svg">
<g transform="translate(2.0000, 3.2500)">
<path id="Vector" fill-rule="evenodd" clip-rule="evenodd" d="M6 2.5C6 1.11929 4.88071 0 3.5 0H0.75C0.335786 0 0 0.335786 0 0.75C0 1.16421 0.335786 1.5 0.75 1.5H3.5C4.05228 1.5 4.5 1.94772 4.5 2.5C4.5 3.05228 4.05228 3.5 3.5 3.5H1.75C1.33579 3.5 1 3.83579 1 4.25C1 4.66421 1.33579 5 1.75 5H3.5C4.05228 5 4.5 5.44772 4.5 6C4.5 6.55228 4.05228 7 3.5 7H0.75C0.335786 7 0 7.33579 0 7.75C0 8.16421 0.335786 8.5 0.75 8.5H3.5C4.88071 8.5 6 7.38071 6 6C6 5.31864 5.72742 4.70094 5.28536 4.25C5.72742 3.79906 6 3.18136 6 2.5ZM1.5 10.75C1.5 10.3358 1.16421 10 0.75 10C0.335786 10 0 10.3358 0 10.75C0 12.7356 1.20725 14.4415 2.97001 15.6167C4.73802 16.7954 7.1373 17.5 9.75 17.5C12.3627 17.5 14.762 16.7954 16.53 15.6167C18.2928 14.4415 19.5 12.7356 19.5 10.75C19.5 10.3358 19.1642 10 18.75 10C18.3358 10 18 10.3358 18 10.75C18 12.0781 17.1925 13.3722 15.6979 14.3686C14.2086 15.3615 12.1079 16 9.75 16C7.39213 16 5.29141 15.3615 3.80206 14.3686C2.30747 13.3722 1.5 12.0781 1.5 10.75ZM10.25 2.5C11.7688 2.5 13 3.73122 13 5.25V5.75C13 7.26878 11.7688 8.5 10.25 8.5H9.75C8.23122 8.5 7 7.26878 7 5.75V3.75C7 1.67893 8.67893 0 10.75 0H11.75C12.1642 0 12.5 0.335786 12.5 0.75C12.5 1.16421 12.1642 1.5 11.75 1.5H10.75C9.89485 1.5 9.15112 1.97707 8.77044 2.67958C9.07474 2.56355 9.40495 2.5 9.75 2.5H10.25ZM8.5 5.25V5.75C8.5 6.44036 9.05964 7 9.75 7H10.25C10.9404 7 11.5 6.44036 11.5 5.75V5.25C11.5 4.55964 10.9404 4 10.25 4H9.75C9.05964 4 8.5 4.55964 8.5 5.25ZM20 2.75C20 1.23122 18.7688 0 17.25 0H16.75C15.2312 0 14 1.23122 14 2.75V5.75C14 7.26878 15.2312 8.5 16.75 8.5H17.25C18.7688 8.5 20 7.26878 20 5.75V2.75ZM17.25 1.5C17.9404 1.5 18.5 2.05964 18.5 2.75V5.75C18.5 6.44036 17.9404 7 17.25 7H16.75C16.0596 7 15.5 6.44036 15.5 5.75V2.75C15.5 2.05964 16.0596 1.5 16.75 1.5H17.25Z" fill="#292927"/>
</g>
</svg>
