<svg preserveAspectRatio="xMidYMid meet" overflow="visible" style="display: block;" viewBox="0 0 24 24" fill="none" xmlns="http://www.w3.org/2000/svg">
<g transform="translate(2.2500, 4.2500)">
<path id="Vector" fill-rule="evenodd" clip-rule="evenodd" d="M0 0.75C0 0.335786 0.335786 0 0.75 0H8.75C9.16421 0 9.5 0.335786 9.5 0.75C9.5 1.16421 9.16421 1.5 8.75 1.5H0.75C0.335786 1.5 0 1.16421 0 0.75ZM0 7.75C0 7.33579 0.335786 7 0.75 7H13.75C14.1642 7 14.5 7.33579 14.5 7.75C14.5 8.16421 14.1642 8.5 13.75 8.5H0.75C0.335786 8.5 0 8.16421 0 7.75ZM0.75 14C0.335786 14 0 14.3358 0 14.75C0 15.1642 0.335786 15.5 0.75 15.5H18.75C19.1642 15.5 19.5 15.1642 19.5 14.75C19.5 14.3358 19.1642 14 18.75 14H0.75Z" fill="#292927"/>
</g>
</svg>
