<svg preserveAspectRatio="xMidYMid meet" overflow="visible" style="display: block;" viewBox="0 0 24 24" fill="none" xmlns="http://www.w3.org/2000/svg">
<g transform="translate(2.5807, 2.2500)">
<path id="Vector" fill-rule="evenodd" clip-rule="evenodd" d="M8.16936 2.75C8.16936 2.05964 8.72901 1.5 9.41936 1.5C10.1097 1.5 10.6694 2.05964 10.6694 2.75C10.6694 3.16421 11.0051 3.5 11.4194 3.5C11.8336 3.5 12.1694 3.16421 12.1694 2.75C12.1694 1.23122 10.9381 0 9.41936 0C7.90058 0 6.66936 1.23122 6.66936 2.75C6.66936 3.16421 7.00515 3.5 7.41936 3.5C7.83358 3.5 8.16936 3.16421 8.16936 2.75ZM17.3236 16.5599C17.4401 17.3171 16.8543 18 16.0881 18H2.75059C1.98448 18 1.39863 17.3171 1.51513 16.5599L2.89974 7.55993C2.99355 6.95014 3.51824 6.5 4.13521 6.5H14.7035C15.3205 6.5 15.8452 6.95014 15.939 7.55993L17.3236 16.5599ZM16.0881 19.5C17.7736 19.5 19.0625 17.9977 18.8062 16.3318L17.4216 7.33184C17.2152 5.9903 16.0608 5 14.7035 5H4.13521C2.77789 5 1.62357 5.99031 1.41718 7.33184L0.0325677 16.3318C-0.223713 17.9977 1.06516 19.5 2.75059 19.5H16.0881ZM7.16936 8.75C7.16936 8.33579 6.83358 8 6.41936 8C6.00515 8 5.66936 8.33579 5.66936 8.75V15.75C5.66936 16.1642 6.00515 16.5 6.41936 16.5C6.83358 16.5 7.16936 16.1642 7.16936 15.75V8.75ZM12.4194 8C12.8336 8 13.1694 8.33579 13.1694 8.75V15.75C13.1694 16.1642 12.8336 16.5 12.4194 16.5C12.0051 16.5 11.6694 16.1642 11.6694 15.75V8.75C11.6694 8.33579 12.0051 8 12.4194 8Z" fill="#292927"/>
</g>
</svg>
