<svg preserveAspectRatio="xMidYMid meet" overflow="visible" style="display: block;" viewBox="0 0 24 24" fill="none" xmlns="http://www.w3.org/2000/svg">
<g transform="translate(2.2500, 2.2500)">
<path id="Vector" fill-rule="evenodd" clip-rule="evenodd" d="M9.75 0C10.1642 0 10.5 0.335786 10.5 0.75V2.03582C14.1815 2.38935 17.1107 5.3185 17.4642 9H18.75C19.1642 9 19.5 9.33579 19.5 9.75C19.5 10.1642 19.1642 10.5 18.75 10.5H17.4642C17.1107 14.1815 14.1815 17.1107 10.5 17.4642V18.75C10.5 19.1642 10.1642 19.5 9.75 19.5C9.33579 19.5 9 19.1642 9 18.75V17.4642C5.3185 17.1107 2.38935 14.1815 2.03582 10.5H0.75C0.335786 10.5 0 10.1642 0 9.75C0 9.33579 0.335786 9 0.75 9H2.03582C2.38935 5.3185 5.3185 2.38935 9 2.03582V0.75C9 0.335786 9.33579 0 9.75 0ZM16 9.75C16 6.29822 13.2018 3.5 9.75 3.5C6.29822 3.5 3.5 6.29822 3.5 9.75C3.5 13.2018 6.29822 16 9.75 16C13.2018 16 16 13.2018 16 9.75Z" fill="#292927"/>
</g>
</svg>
