<svg preserveAspectRatio="xMidYMid meet" overflow="visible" style="display: block;" viewBox="0 0 24 24" fill="none" xmlns="http://www.w3.org/2000/svg">
<g transform="translate(1.2500, 2.2500)">
<path id="Vector" fill-rule="evenodd" clip-rule="evenodd" d="M1 0.75C1 0.335786 1.33579 0 1.75 0H4.75C5.16421 0 5.5 0.335786 5.5 0.75C5.5 1.16421 5.16421 1.5 4.75 1.5H2.5V3.75C2.5 4.16421 2.16421 4.5 1.75 4.5C1.33579 4.5 1 4.16421 1 3.75V0.75ZM0 9.75C0 9.33579 0.335786 9 0.75 9H20.75C21.1642 9 21.5 9.33579 21.5 9.75C21.5 10.1642 21.1642 10.5 20.75 10.5H0.75C0.335786 10.5 0 10.1642 0 9.75ZM7 16.75C7 17.1642 7.33579 17.5 7.75 17.5C8.16421 17.5 8.5 17.1642 8.5 16.75V12.75C8.5 12.3358 8.16421 12 7.75 12C7.33579 12 7 12.3358 7 12.75V16.75ZM10.75 14.5C10.3358 14.5 10 14.1642 10 13.75V12.75C10 12.3358 10.3358 12 10.75 12C11.1642 12 11.5 12.3358 11.5 12.75V13.75C11.5 14.1642 11.1642 14.5 10.75 14.5ZM13 14.75C13 15.1642 13.3358 15.5 13.75 15.5C14.1642 15.5 14.5 15.1642 14.5 14.75V12.75C14.5 12.3358 14.1642 12 13.75 12C13.3358 12 13 12.3358 13 12.75V14.75ZM10.75 19.5C10.3358 19.5 10 19.1642 10 18.75V15.75C10 15.3358 10.3358 15 10.75 15C11.1642 15 11.5 15.3358 11.5 15.75V18.75C11.5 19.1642 11.1642 19.5 10.75 19.5ZM19.75 0C20.1642 0 20.5 0.335786 20.5 0.75V3.75C20.5 4.16421 20.1642 4.5 19.75 4.5C19.3358 4.5 19 4.16421 19 3.75V1.5H16.75C16.3358 1.5 16 1.16421 16 0.75C16 0.335786 16.3358 0 16.75 0H19.75ZM1 18.75C1 19.1642 1.33579 19.5 1.75 19.5H4.75C5.16421 19.5 5.5 19.1642 5.5 18.75C5.5 18.3358 5.16421 18 4.75 18H2.5V15.75C2.5 15.3358 2.16421 15 1.75 15C1.33579 15 1 15.3358 1 15.75V18.75ZM19.75 19.5C20.1642 19.5 20.5 19.1642 20.5 18.75V15.75C20.5 15.3358 20.1642 15 19.75 15C19.3358 15 19 15.3358 19 15.75V18H16.75C16.3358 18 16 18.3358 16 18.75C16 19.1642 16.3358 19.5 16.75 19.5H19.75Z" fill="#292927"/>
</g>
</svg>
