<svg preserveAspectRatio="xMidYMid meet" overflow="visible" style="display: block;" viewBox="0 0 24 24" fill="none" xmlns="http://www.w3.org/2000/svg">
<g transform="translate(2.2500, 1.2500)">
<path id="Vector" fill-rule="evenodd" clip-rule="evenodd" d="M4.75 0C4.33579 0 4 0.335786 4 0.75C4 1.16421 4.33579 1.5 4.75 1.5H13.9393L18 5.56066V17.75C18 18.1642 18.3358 18.5 18.75 18.5C19.1642 18.5 19.5 18.1642 19.5 17.75V5.25C19.5 5.05109 19.421 4.86032 19.2803 4.71967L14.7803 0.21967C14.6397 0.0790176 14.4489 0 14.25 0H4.75ZM4 8.75C4 8.33579 4.33579 8 4.75 8H7.75C8.16421 8 8.5 8.33579 8.5 8.75C8.5 9.16421 8.16421 9.5 7.75 9.5H4.75C4.33579 9.5 4 9.16421 4 8.75ZM4.75 12C4.33579 12 4 12.3358 4 12.75C4 13.1642 4.33579 13.5 4.75 13.5H5.75C6.16421 13.5 6.5 13.1642 6.5 12.75C6.5 12.3358 6.16421 12 5.75 12H4.75ZM4.75 16C4.33579 16 4 16.3358 4 16.75C4 17.1642 4.33579 17.5 4.75 17.5H11.75C12.1642 17.5 12.5 17.1642 12.5 16.75C12.5 16.3358 12.1642 16 11.75 16H4.75ZM2.25 4.5C1.83579 4.5 1.5 4.83579 1.5 5.25V19.25C1.5 19.6642 1.83579 20 2.25 20H14.25C14.6642 20 15 19.6642 15 19.25V8.5H12.35C11.6044 8.5 11 7.89558 11 7.15V4.5H2.25ZM11.75 3H2.25C1.00736 3 0 4.00736 0 5.25V19.25C0 20.4926 1.00736 21.5 2.25 21.5H14.25C15.4926 21.5 16.5 20.4926 16.5 19.25V7.75V7.49853C16.5 7.14049 16.3578 6.79711 16.1046 6.54393L12.9561 3.39541C12.7029 3.14223 12.3595 3 12.0015 3H11.75ZM12.5 5.06066V7H14.4393L12.5 5.06066Z" fill="#292927"/>
</g>
</svg>
