<svg preserveAspectRatio="xMidYMid meet" overflow="visible" style="display: block;" viewBox="0 0 24 24" fill="none" xmlns="http://www.w3.org/2000/svg">
<g transform="translate(1.2500, 1.2173)">
<path id="Vector" fill-rule="evenodd" clip-rule="evenodd" d="M2.88221 1.8189C2.67252 2.01142 2.5 2.32232 2.5 2.81564C2.5 3.22985 2.16421 3.56564 1.75 3.56564C1.33579 3.56564 1 3.22985 1 2.81564C1 1.93188 1.32748 1.20997 1.86779 0.713941C2.39612 0.228899 3.08351 1.06107e-05 3.74999 3.72962e-10C4.41647 -1.06681e-05 5.10386 0.228856 5.6322 0.713886C6.17251 1.20991 6.5 1.93181 6.5 2.81556C6.5 3.45089 6.33368 3.9441 6.06258 4.35298C5.83771 4.69213 5.5459 4.95765 5.32681 5.157L5.2572 5.22052C5.01188 5.44573 4.84014 5.61954 4.71554 5.84015C4.59866 6.04707 4.5 6.33949 4.5 6.81558C4.5 7.22979 4.16421 7.56558 3.75 7.56558C3.33579 7.56558 3 7.22979 3 6.81558C3 6.11133 3.15134 5.55948 3.40946 5.10247C3.65986 4.65914 3.98812 4.34934 4.2428 4.11554L4.29585 4.06688L4.29586 4.06687C4.54109 3.84207 4.6953 3.7007 4.81242 3.52407C4.91632 3.36737 5 3.16385 5 2.81556C5 2.32225 4.82749 2.01137 4.6178 1.81887C4.39614 1.61538 4.08353 1.49999 3.75001 1.5C3.41649 1.50001 3.10388 1.6154 2.88221 1.8189ZM20 10.8154C20 5.7068 15.8586 1.56543 10.75 1.56543C10.3358 1.56543 10 1.22964 10 0.81543C10 0.401216 10.3358 0.0654297 10.75 0.0654297C16.6871 0.0654297 21.5 4.87837 21.5 10.8154C21.5 16.7525 16.6871 21.5654 10.75 21.5654C4.81294 21.5654 0 16.7525 0 10.8154C0 10.4012 0.335787 10.0654 0.75 10.0654C1.16421 10.0654 1.5 10.4012 1.5 10.8154C1.5 15.9241 5.64137 20.0654 10.75 20.0654C14.3302 20.0654 17.4354 18.0314 18.9729 15.0559L18.4384 14.5333C18.2799 14.3747 18.0364 14.1578 17.709 13.9395C17.0569 13.5048 16.0743 13.0654 14.75 13.0654C13.4257 13.0654 12.443 13.5048 11.791 13.9395C11.4636 14.1578 11.2201 14.3747 11.0616 14.5333C10.9825 14.6123 10.9252 14.6762 10.8897 14.7176C10.872 14.7382 10.8599 14.7532 10.8532 14.7615L10.8475 14.7687C10.5983 15.0972 10.1303 15.1631 9.79998 14.9154C9.46861 14.6669 9.40145 14.1968 9.64998 13.8654L10.25 14.3154C9.64998 13.8654 9.6509 13.8642 9.6509 13.8642L9.65196 13.8628L9.65451 13.8594L9.66133 13.8506L9.66991 13.8396L9.68191 13.8244C9.6987 13.8035 9.72168 13.7754 9.75085 13.7414C9.80916 13.6734 9.89248 13.581 10.0009 13.4726C10.2174 13.2561 10.5364 12.9731 10.959 12.6914C11.8069 12.1261 13.0743 11.5654 14.75 11.5654C16.4257 11.5654 17.693 12.1261 18.541 12.6914C18.9636 12.9731 19.2826 13.2561 19.4991 13.4726C19.5267 13.5002 19.5564 13.5312 19.5854 13.562C19.8549 12.6942 20 11.7718 20 10.8154ZM4.31748 10.3162C4.59457 10.0083 4.56961 9.53408 4.26173 9.25699C3.95385 8.97989 3.47963 9.00485 3.20254 9.31274L3.19254 9.32385C2.91544 9.63173 2.9404 10.1059 3.24828 10.383C3.55616 10.6601 4.03038 10.6352 4.30748 10.3273L4.31748 10.3162ZM16.25 6.06543C16.9404 6.06543 17.5 6.62507 17.5 7.31543C17.5 8.00579 16.9404 8.56543 16.25 8.56543C15.5596 8.56543 15 8.00579 15 7.31543C15 6.62507 15.5596 6.06543 16.25 6.06543ZM9.25 6.06543C9.94036 6.06543 10.5 6.62507 10.5 7.31543C10.5 8.00579 9.94036 8.56543 9.25 8.56543C8.55964 8.56543 8 8.00579 8 7.31543C8 6.62507 8.55964 6.06543 9.25 6.06543Z" fill="#292927"/>
</g>
</svg>
