<svg preserveAspectRatio="xMidYMid meet" overflow="visible" style="display: block;" viewBox="0 0 24 24" fill="none" xmlns="http://www.w3.org/2000/svg">
<g transform="translate(1.2499, 2.4949)">
<path id="Vector" fill-rule="evenodd" clip-rule="evenodd" d="M7.75 1.5C5.95507 1.5 4.5 2.95507 4.5 4.75C4.5 6.54493 5.95507 8 7.75 8C9.54493 8 11 6.54493 11 4.75C11 2.95507 9.54493 1.5 7.75 1.5ZM10.6081 8.54426C11.7572 7.6773 12.5 6.30039 12.5 4.75C12.5 2.12665 10.3734 0 7.75 0C5.12665 0 3 2.12665 3 4.75C3 6.30031 3.74271 7.67715 4.89172 8.54412C2.02612 9.68175 0 12.4793 0 15.75C0 16.1642 0.335786 16.5 0.75 16.5C1.16421 16.5 1.5 16.1642 1.5 15.75C1.5 12.2982 4.29822 9.5 7.75 9.5C9.21061 9.5 10.5523 10.0001 11.6162 10.839C11.9415 11.0954 12.4131 11.0396 12.6695 10.7144C12.926 10.3891 12.8702 9.91751 12.545 9.66105C11.9614 9.20095 11.3099 8.82286 10.6081 8.54426ZM20.9872 9.53869C20.5942 9.40771 20.1695 9.62008 20.0385 10.013L19.3761 12.0002H13.25C13.0147 12.0002 12.793 12.1107 12.6512 12.2986C12.5095 12.4864 12.4642 12.73 12.5289 12.9562L13.5289 16.4562C13.6209 16.7782 13.9151 17.0002 14.25 17.0002H18.75C19.0728 17.0002 19.3594 16.7936 19.4615 16.4874L21.4615 10.4874C21.5925 10.0944 21.3801 9.66968 20.9872 9.53869ZM18.8761 13.5002L18.2094 15.5002H14.8157L14.2443 13.5002H18.8761ZM15.7617 17.6916C16.0696 17.9687 16.0946 18.4429 15.8175 18.7508L15.8075 18.7619C15.5304 19.0697 15.0562 19.0947 14.7483 18.8176C14.4404 18.5405 14.4154 18.0663 14.6925 17.7584L14.7025 17.7473C14.9796 17.4394 15.4538 17.4145 15.7617 17.6916ZM18.8175 18.7508C19.0946 18.4429 19.0696 17.9687 18.7617 17.6916C18.4538 17.4145 17.9796 17.4394 17.7025 17.7473L17.6925 17.7584C17.4154 18.0663 17.4404 18.5405 17.7483 18.8176C18.0562 19.0947 18.5304 19.0697 18.8075 18.7619L18.8175 18.7508Z" fill="#292927"/>
</g>
</svg>
