<svg preserveAspectRatio="xMidYMid meet" overflow="visible" style="display: block;" viewBox="0 0 24 24" fill="none" xmlns="http://www.w3.org/2000/svg">
<g transform="translate(1.2499, 2.2853)">
<path id="Vector" fill-rule="evenodd" clip-rule="evenodd" d="M0.0793439 6.01459C-0.105898 5.64411 0.0442702 5.1936 0.414754 5.00836L10.1464 0.142523C10.5265 -0.0475071 10.9738 -0.0475085 11.3539 0.142523L21.0856 5.00836C21.4561 5.1936 21.6062 5.64411 21.421 6.01459C21.2357 6.38508 20.7852 6.53524 20.4148 6.35L10.7502 1.51771L1.08557 6.35C0.715091 6.53524 0.264586 6.38507 0.0793439 6.01459ZM11.5002 6.67934C11.5002 6.26513 11.1644 5.92934 10.7502 5.92934C10.3359 5.92934 10.0002 6.26513 10.0002 6.67934V9.67934C10.0002 10.0936 10.3359 10.4293 10.7502 10.4293C11.1644 10.4293 11.5002 10.0936 11.5002 9.67934V6.67934ZM11.3176 14.1801C11.5947 13.8722 11.5698 13.398 11.2619 13.1209C10.954 12.8438 10.4798 12.8688 10.2027 13.1767L10.1927 13.1878C9.91559 13.4956 9.94055 13.9699 10.2484 14.247C10.5563 14.5241 11.0305 14.4991 11.3076 14.1912L11.3176 14.1801ZM3.50015 8.67934C3.50015 8.26513 3.16437 7.92934 2.75015 7.92934C2.33594 7.92934 2.00015 8.26513 2.00015 8.67934V16.6793C2.00015 18.1981 3.23137 19.4293 4.75015 19.4293H16.7502C18.2689 19.4293 19.5002 18.1981 19.5002 16.6793V8.67934C19.5002 8.26513 19.1644 7.92934 18.7502 7.92934C18.3359 7.92934 18.0002 8.26513 18.0002 8.67934V16.6793C18.0002 17.3697 17.4405 17.9293 16.7502 17.9293H4.75015C4.0598 17.9293 3.50015 17.3697 3.50015 16.6793V8.67934Z" fill="#292927"/>
</g>
</svg>
