<svg preserveAspectRatio="xMidYMid meet" overflow="visible" style="display: block;" viewBox="0 0 24 24" fill="none" xmlns="http://www.w3.org/2000/svg">
<g transform="translate(1.2500, 2.2500)">
<path id="Vector" fill-rule="evenodd" clip-rule="evenodd" d="M1.21973 0.21967C1.51262 -0.0732233 1.9875 -0.0732233 2.28039 0.21967L20.2804 18.2197C20.5733 18.5126 20.5733 18.9874 20.2804 19.2803C19.9875 19.5732 19.5126 19.5732 19.2197 19.2803L13.7829 13.8435C11.7947 12.6379 9.63055 12.6527 7.64621 13.8872C7.2945 14.106 6.83201 13.9982 6.61321 13.6465C6.39441 13.2948 6.50216 12.8323 6.85387 12.6135C8.31145 11.7068 9.87627 11.33 11.4229 11.4835L8.42337 8.48397L8.41873 8.48493C6.88863 8.79792 5.43746 9.42209 4.20004 10.3501C3.86867 10.5987 3.39857 10.5315 3.15004 10.2001C2.90152 9.86878 2.96867 9.39868 3.30004 9.15015C4.46941 8.27312 5.79318 7.6389 7.18295 7.24355L4.40766 4.46826C3.29377 4.95991 2.21746 5.58694 1.20004 6.35C0.868673 6.59853 0.398572 6.53137 0.150044 6.2C-0.098484 5.86863 -0.0313267 5.39853 0.300044 5.15C1.24853 4.43864 2.2458 3.83449 3.27736 3.33796L1.21973 1.28033C0.926838 0.987437 0.926838 0.512563 1.21973 0.21967ZM11.2618 16.6916C11.5697 16.9687 11.5946 17.4429 11.3175 17.7508L11.3075 17.7619C11.0304 18.0697 10.5562 18.0947 10.2483 17.8176C9.94046 17.5405 9.9155 17.0663 10.1926 16.7584L10.2026 16.7473C10.4797 16.4394 10.9539 16.4145 11.2618 16.6916ZM8.84183 3.24224C12.7956 2.75472 16.8829 3.78712 20.3 6.35C20.6314 6.59853 21.1015 6.53137 21.35 6.2C21.5986 5.86863 21.5314 5.39853 21.2 5.15C17.4724 2.35425 12.9967 1.21857 8.65826 1.75351C8.24716 1.8042 7.95499 2.17856 8.00568 2.58966C8.05637 3.00076 8.43073 3.29293 8.84183 3.24224ZM12.7367 7.6361C12.8278 7.23203 13.2293 6.97831 13.6333 7.06942C15.2715 7.43876 16.8402 8.13025 18.2 9.15015C18.5314 9.39868 18.5986 9.86878 18.35 10.2001C18.1015 10.5315 17.6314 10.5987 17.3 10.3501C16.1227 9.46716 14.7519 8.85925 13.3034 8.53269C12.8994 8.44159 12.6456 8.04017 12.7367 7.6361Z" fill="#292927"/>
</g>
</svg>
