<svg preserveAspectRatio="xMidYMid meet" overflow="visible" style="display: block;" viewBox="0 0 24 24" fill="none" xmlns="http://www.w3.org/2000/svg">
<g transform="translate(0.2500, 5.2500)">
<path id="Vector" fill-rule="evenodd" clip-rule="evenodd" d="M2.75 1.5C2.05964 1.5 1.5 2.05964 1.5 2.75V10.75C1.5 11.4404 2.05964 12 2.75 12H17.75C18.4404 12 19 11.4404 19 10.75V2.75C19 2.05964 18.4404 1.5 17.75 1.5H2.75ZM0 2.75C0 1.23122 1.23122 0 2.75 0H17.75C19.2688 0 20.5 1.23122 20.5 2.75V10.75C20.5 12.2688 19.2688 13.5 17.75 13.5H2.75C1.23122 13.5 0 12.2688 0 10.75V2.75ZM22.75 4C23.1642 4 23.5 4.33579 23.5 4.75V8.75C23.5 9.16421 23.1642 9.5 22.75 9.5C22.3358 9.5 22 9.16421 22 8.75V4.75C22 4.33579 22.3358 4 22.75 4ZM10.5723 4.11437C10.7734 3.75228 10.643 3.29568 10.2809 3.09452C9.91881 2.89336 9.46221 3.02382 9.26105 3.3859L7.59438 6.3859C7.46533 6.6182 7.46883 6.90145 7.6036 7.13048C7.73836 7.35952 7.98426 7.50014 8.25 7.50014H10.9754L9.92772 9.3859C9.72656 9.74799 9.85701 10.2046 10.2191 10.4058C10.5812 10.6069 11.0378 10.4765 11.239 10.1144L12.9056 7.11437C13.0347 6.88207 13.0312 6.59882 12.8964 6.36979C12.7616 6.14076 12.5157 6.00014 12.25 6.00014H9.52464L10.5723 4.11437Z" fill="#292927"/>
</g>
</svg>
