<svg preserveAspectRatio="xMidYMid meet" overflow="visible" style="display: block;" viewBox="0 0 24 24" fill="none" xmlns="http://www.w3.org/2000/svg">
<g transform="translate(2.2500, 2.0000)">
<path id="Vector" fill-rule="evenodd" clip-rule="evenodd" d="M1.5 6.75C1.5 3.8505 3.8505 1.5 6.75 1.5H12.75C15.6495 1.5 18 3.8505 18 6.75V10.75C18 13.6495 15.6495 16 12.75 16H11.25H11.2491H8.25094H8.25001H6.75C3.8505 16 1.5 13.6495 1.5 10.75V6.75ZM10.8895 17.5H8.61049L6.83565 19.7185C6.57689 20.042 6.10492 20.0944 5.78148 19.8357C5.45803 19.5769 5.40559 19.105 5.66435 18.7815L6.68976 17.4997C6.34582 17.4967 6.00802 17.468 5.67819 17.4154L3.83565 19.7185C3.57689 20.042 3.10492 20.0944 2.78148 19.8357C2.45803 19.5769 2.40559 19.105 2.66435 18.7815L4.11611 16.9668C1.69688 15.9406 0 13.5434 0 10.75V6.75C0 3.02208 3.02208 0 6.75 0H12.75C16.4779 0 19.5 3.02208 19.5 6.75V10.75C19.5 13.5434 17.8031 15.9406 15.3839 16.9668L16.8356 18.7815C17.0944 19.105 17.042 19.5769 16.7185 19.8357C16.3951 20.0944 15.9231 20.042 15.6643 19.7185L13.8218 17.4154C13.492 17.468 13.1542 17.4967 12.8102 17.4997L13.8356 18.7815C14.0944 19.105 14.042 19.5769 13.7185 19.8357C13.3951 20.0944 12.9231 20.042 12.6643 19.7185L10.8895 17.5ZM13.9654 7H5.53458C5.70172 6.14511 6.45487 5.5 7.3587 5.5H12.1413C13.0451 5.5 13.7983 6.14511 13.9654 7ZM7.3587 4C5.50374 4 4 5.50374 4 7.3587C4 7.98902 4.51098 8.5 5.1413 8.5H14.3587C14.989 8.5 15.5 7.98904 15.5 7.3587C15.5 5.50373 13.9962 4 12.1413 4H7.3587ZM14.262 12.1908C14.5698 12.4681 14.5945 12.9423 14.3172 13.2501L14.3072 13.2612C14.03 13.5689 13.5557 13.5936 13.248 13.3164C12.9403 13.0391 12.9155 12.5649 13.1928 12.2571L13.2028 12.246C13.48 11.9383 13.9543 11.9136 14.262 12.1908ZM6.31722 13.2501C6.59447 12.9423 6.56976 12.4681 6.26202 12.1908C5.95428 11.9136 5.48005 11.9383 5.2028 12.246L5.1928 12.2571C4.91554 12.5649 4.94026 13.0391 5.24799 13.3164C5.55573 13.5936 6.02996 13.5689 6.30722 13.2612L6.31722 13.2501Z" fill="#292927"/>
</g>
</svg>
