<svg preserveAspectRatio="xMidYMid meet" overflow="visible" style="display: block;" viewBox="0 0 24 24" fill="none" xmlns="http://www.w3.org/2000/svg">
<g transform="translate(1.9753, 1.9913)">
<path id="Vector" fill-rule="evenodd" clip-rule="evenodd" d="M2.07891 8.06334C1.30703 7.57215 1.30703 6.44538 2.07891 5.95418L8.2799 2.0081C9.34449 1.33063 10.705 1.33063 11.7696 2.0081L17.9706 5.95419C18.7425 6.44538 18.7425 7.57215 17.9706 8.06334L11.7696 12.0094C10.705 12.6869 9.34449 12.6869 8.27989 12.0094L2.07891 8.06334ZM1.2736 4.68869C-0.424526 5.76931 -0.424533 8.24821 1.27359 9.32883L2.34206 10.0088L1.27359 10.6887C-0.424532 11.7693 -0.424529 14.2482 1.27359 15.3288L7.47458 19.2749C9.03052 20.2651 11.019 20.2651 12.5749 19.2749L18.7759 15.3288C20.474 14.2482 20.474 11.7693 18.7759 10.6887L17.7074 10.0088L18.7759 9.32883C20.474 8.24821 20.474 5.76932 18.7759 4.68869L12.5749 0.742609C11.019 -0.247535 9.03053 -0.247537 7.47458 0.742607L1.2736 4.68869ZM16.3105 10.8977L12.5749 13.2749C11.019 14.2651 9.03052 14.2651 7.47458 13.2749L3.73903 10.8977L2.0789 11.9542C1.30703 12.4454 1.30703 13.5721 2.07891 14.0633L8.27989 18.0094C9.34449 18.6869 10.705 18.6869 11.7696 18.0094L17.9706 14.0633C18.7425 13.5721 18.7425 12.4454 17.9706 11.9542L16.3105 10.8977Z" fill="#292927"/>
</g>
</svg>
