<svg preserveAspectRatio="xMidYMid meet" overflow="visible" style="display: block;" viewBox="0 0 24 24" fill="none" xmlns="http://www.w3.org/2000/svg">
<g transform="translate(2.3701, 1.5244)">
<path id="Vector" fill-rule="evenodd" clip-rule="evenodd" d="M9.03333 0.0654855C9.42625 -0.0218286 9.83354 -0.0218285 10.2265 0.0654856L17.8886 1.76819C18.7773 1.96568 19.3719 2.81056 19.242 3.7198L17.3724 16.8073C17.3267 17.1271 17.1613 18.2149 16.0349 19.2011C14.9216 20.176 12.9857 20.9512 9.62989 20.9512C6.27404 20.9512 4.33821 20.176 3.22484 19.2011C2.0985 18.2149 1.93312 17.1271 1.88743 16.8073L0.0177899 3.7198C-0.112102 2.81056 0.482459 1.96568 1.37117 1.76819L9.03333 0.0654855ZM9.90105 1.52977C9.72246 1.49008 9.53732 1.49008 9.35873 1.52977L1.69657 3.23247C1.5651 3.26168 1.48481 3.38234 1.50271 3.50767L3.37349 16.6031C3.39997 16.7896 3.49264 17.4418 4.21298 18.0726C4.95693 18.724 6.48574 19.4512 9.62989 19.4512C12.774 19.4512 14.3029 18.724 15.0468 18.0726C15.7671 17.4418 15.8598 16.7896 15.8863 16.6031L17.7571 3.50767C17.775 3.38234 17.6947 3.26168 17.5632 3.23247L9.90105 1.52977Z" fill="#292927"/>
</g>
</svg>
