<svg preserveAspectRatio="xMidYMid meet" overflow="visible" style="display: block;" viewBox="0 0 24 24" fill="none" xmlns="http://www.w3.org/2000/svg">
<g transform="translate(0.4985, 0.4985)">
<path id="Vector" fill-rule="evenodd" clip-rule="evenodd" d="M10.5469 0.395406C11.0741 -0.131801 11.9289 -0.131803 12.4561 0.395406L22.6075 10.5469C23.1347 11.0741 23.1347 11.9289 22.6075 12.4561L12.4561 22.6075C11.9289 23.1347 11.0741 23.1347 10.5469 22.6075L0.395406 12.4561C-0.131801 11.9289 -0.131803 11.0741 0.395406 10.5469L10.5469 0.395406ZM11.5015 1.56213L1.56213 11.5015L11.5015 21.4408L21.4408 11.5015L11.5015 1.56213ZM11.5015 6.75195C11.9157 6.75195 12.2515 7.08774 12.2515 7.50195V11.502C12.2515 11.9162 11.9157 12.252 11.5015 12.252C11.0873 12.252 10.7515 11.9162 10.7515 11.502V7.50195C10.7515 7.08774 11.0873 6.75195 11.5015 6.75195ZM12.0689 16.0027C12.346 15.6948 12.3211 15.2206 12.0132 14.9435C11.7053 14.6664 11.2311 14.6914 10.954 14.9993L10.944 15.0104C10.6669 15.3183 10.6919 15.7925 10.9997 16.0696C11.3076 16.3467 11.7818 16.3217 12.0589 16.0138L12.0689 16.0027Z" fill="#292927"/>
</g>
</svg>
