<svg preserveAspectRatio="xMidYMid meet" overflow="visible" style="display: block;" viewBox="0 0 24 24" fill="none" xmlns="http://www.w3.org/2000/svg">
<g transform="translate(1.3843, 4.2500)">
<path id="Vector" fill-rule="evenodd" clip-rule="evenodd" d="M7.65663 1.5L6.53418 7H8.69717H12.5341H14.6971L13.5747 1.5H7.65663ZM8.57469 8.5H6.35048H2.65663L1.53418 14H9.69714L8.57469 8.5ZM5.00869 7C5.01322 6.9602 5.01955 6.92019 5.02774 6.88005L6.21141 1.08005C6.33969 0.45148 6.89262 0 7.53415 0H13.6972C14.3387 0 14.8916 0.45148 15.0199 1.08005L16.2036 6.88005C16.2118 6.92019 16.2181 6.9602 16.2226 7H18.6972C19.3387 7 19.8916 7.45148 20.0199 8.08005L21.2036 13.8801C21.3744 14.7169 20.7349 15.5 19.8808 15.5H11.3505C11.077 15.5 10.8256 15.4197 10.6157 15.2831C10.4058 15.4197 10.1543 15.5 9.88084 15.5H1.35047C0.496401 15.5 -0.143041 14.7169 0.0277393 13.8801L1.21141 8.08005C1.33969 7.45148 1.89262 7 2.53415 7H5.00869ZM10.6157 10.9992L10.1056 8.5H11.1257L10.6157 10.9992ZM11.5342 14L12.6566 8.5H14.8808H18.5747L19.6971 14H11.5342Z" fill="#292927"/>
</g>
</svg>
