<svg preserveAspectRatio="xMidYMid meet" overflow="visible" style="display: block;" viewBox="0 0 24 24" fill="none" xmlns="http://www.w3.org/2000/svg">
<g transform="translate(2.2500, 2.2500)">
<path id="Vector" fill-rule="evenodd" clip-rule="evenodd" d="M18 1.5V18H1.5V1.5H18ZM18.15 19.5C18.8956 19.5 19.5 18.8956 19.5 18.15V1.35C19.5 0.604418 18.8956 0 18.15 0H1.35C0.604418 0 0 0.604414 0 1.35V18.15C0 18.8956 0.604414 19.5 1.35 19.5H18.15ZM9.75 3.76367L11.5824 5.32524L13.9823 5.51675L14.1738 7.91666L15.7354 9.74907L14.1738 11.5815L13.9823 13.9814L11.5824 14.1729L9.75 15.7345L7.91759 14.1729L5.51768 13.9814L5.32617 11.5815L3.7646 9.74907L5.32617 7.91666L5.51768 5.51675L7.91759 5.32524L9.75 3.76367ZM9.75 13.7637V5.73447L10.9791 6.78186L12.5888 6.91032L12.7172 8.52001L13.7646 9.74907L12.7172 10.9781L12.5888 12.5878L10.9791 12.7163L9.75 13.7637Z" fill="#292927"/>
</g>
</svg>
