<svg preserveAspectRatio="xMidYMid meet" overflow="visible" style="display: block;" viewBox="0 0 24 24" fill="none" xmlns="http://www.w3.org/2000/svg">
<g transform="translate(1.2500, 3.5000)">
<path id="Vector" fill-rule="evenodd" clip-rule="evenodd" d="M2.75 0C1.23122 0 0 1.23122 0 2.75V10.75C0 12.2688 1.23122 13.5 2.75 13.5H3V14.25C3 15.7688 4.23122 17 5.75 17H18.75C20.2688 17 21.5 15.7688 21.5 14.25V6.25C21.5 4.73122 20.2688 3.5 18.75 3.5H18.5V2.75C18.5 1.23122 17.2688 0 15.75 0H2.75ZM18.5 5V6.92857H20V6.25C20 5.55964 19.4404 5 18.75 5H18.5ZM18.5 8.42857H20V14.25C20 14.9404 19.4404 15.5 18.75 15.5H5.75C5.05964 15.5 4.5 14.9404 4.5 14.25V13.5H15.75C17.2688 13.5 18.5 12.2688 18.5 10.75V8.42857ZM3.75 12H15.75C16.4404 12 17 11.4404 17 10.75V7.67857V5H4.25C3.83579 5 3.5 4.66421 3.5 4.25C3.5 3.83579 3.83579 3.5 4.25 3.5H17V2.75C17 2.05964 16.4404 1.5 15.75 1.5H2.75C2.05964 1.5 1.5 2.05964 1.5 2.75V10.75C1.5 11.4404 2.05964 12 2.75 12H3.75Z" fill="#292927"/>
</g>
</svg>
