<svg preserveAspectRatio="xMidYMid meet" overflow="visible" style="display: block;" viewBox="0 0 24 24" fill="none" xmlns="http://www.w3.org/2000/svg">
<g transform="translate(1.2500, 2.7500)">
<path id="Vector" fill-rule="evenodd" clip-rule="evenodd" d="M2.75 0C1.23122 0 0 1.23122 0 2.75V12.75C0 14.2688 1.23122 15.5 2.75 15.5H12.75C13.1642 15.5 13.5 15.1642 13.5 14.75C13.5 14.3358 13.1642 14 12.75 14H2.75C2.05964 14 1.5 13.4404 1.5 12.75V2.75C1.5 2.05964 2.05964 1.5 2.75 1.5H18.75C19.4404 1.5 20 2.05964 20 2.75V4H4.75C4.33579 4 4 4.33579 4 4.75C4 5.16421 4.33579 5.5 4.75 5.5H20V8.75C20 9.16421 20.3358 9.5 20.75 9.5C21.1642 9.5 21.5 9.16421 21.5 8.75V2.75C21.5 1.23122 20.2688 0 18.75 0H2.75ZM18.25 10C17.3231 10 16.6805 10.4245 16.2981 10.9821C15.943 11.5 15.8333 12.0955 15.8333 12.5V13.6024C15.3441 13.8052 15 14.2874 15 14.85V17.15C15 17.8956 15.6044 18.5 16.35 18.5H20.15C20.8956 18.5 21.5 17.8956 21.5 17.15V14.85C21.5 14.2874 21.1559 13.8052 20.6667 13.6024V12.5C20.6667 12.0955 20.557 11.5 20.2019 10.9821C19.8195 10.4245 19.1769 10 18.25 10ZM19.1667 12.5V13.5H17.3333V12.5C17.3333 12.3212 17.3903 12.0417 17.5352 11.8304C17.6528 11.6589 17.8436 11.5 18.25 11.5C18.6564 11.5 18.8472 11.6589 18.9648 11.8304C19.1097 12.0417 19.1667 12.3212 19.1667 12.5ZM16.5 17V15H20V17H16.5Z" fill="#292927"/>
</g>
</svg>
