<svg preserveAspectRatio="xMidYMid meet" overflow="visible" style="display: block;" viewBox="0 0 24 24" fill="none" xmlns="http://www.w3.org/2000/svg">
<g transform="translate(2.2500, 1.2500)">
<path id="Vector" fill-rule="evenodd" clip-rule="evenodd" d="M1.5 20V1.5H8V5H5.75C5.33579 5 5 5.33579 5 5.75C5 6.16421 5.33579 6.5 5.75 6.5H8V10H5.75C5.33579 10 5 10.3358 5 10.75C5 11.1642 5.33579 11.5 5.75 11.5H8V15H5.75C5.33579 15 5 15.3358 5 15.75C5 16.1642 5.33579 16.5 5.75 16.5H8V20H1.5ZM1.35 0C0.604415 0 0 0.604416 0 1.35V20.15C0 20.8956 0.604415 21.5 1.35 21.5H8.15C8.89558 21.5 9.5 20.8956 9.5 20.15V1.35C9.5 0.604416 8.89558 0 8.15 0H1.35ZM16.5 0.75C16.5 0.335786 16.1642 0 15.75 0C15.3358 0 15 0.335786 15 0.75V3H12.75C12.3358 3 12 3.33579 12 3.75C12 4.16421 12.3358 4.5 12.75 4.5H15V6.75C15 7.16421 15.3358 7.5 15.75 7.5C16.1642 7.5 16.5 7.16421 16.5 6.75V4.5H18.75C19.1642 4.5 19.5 4.16421 19.5 3.75C19.5 3.33579 19.1642 3 18.75 3H16.5V0.75Z" fill="#292927"/>
</g>
</svg>
