<svg preserveAspectRatio="xMidYMid meet" overflow="visible" style="display: block;" viewBox="0 0 24 24" fill="none" xmlns="http://www.w3.org/2000/svg">
<g transform="translate(1.7499, 3.1250)">
<path id="Vector" fill-rule="evenodd" clip-rule="evenodd" d="M9.87435 0.10093C10.1068 -0.0336434 10.3935 -0.0336434 10.6259 0.10093L20.1259 5.60093C20.4844 5.80847 20.6067 6.26731 20.3992 6.62578C20.1917 6.98425 19.7328 7.10661 19.3743 6.89907L10.2501 1.61663L1.1259 6.89907C0.76743 7.10661 0.308591 6.98425 0.101055 6.62578C-0.106481 6.26731 0.0158759 5.80847 0.374347 5.60093L9.87435 0.10093ZM10.2501 12.5C7.90291 12.5 6.00012 14.4028 6.00012 16.75V17.75H4.50012V16.75C4.50012 14.463 5.83526 12.4879 7.7686 11.5616C6.9907 10.8744 6.50012 9.86952 6.50012 8.75C6.50012 6.67893 8.17905 5 10.2501 5C12.3212 5 14.0001 6.67893 14.0001 8.75C14.0001 9.86952 13.5095 10.8744 12.7316 11.5616C14.665 12.4879 16.0001 14.463 16.0001 16.75V17.75H14.5001V16.75C14.5001 14.4028 12.5973 12.5 10.2501 12.5ZM10.2501 11C11.4928 11 12.5001 9.99264 12.5001 8.75C12.5001 7.50736 11.4928 6.5 10.2501 6.5C9.00748 6.5 8.00012 7.50736 8.00012 8.75C8.00012 9.99264 9.00748 11 10.2501 11Z" fill="#292927"/>
</g>
</svg>
