<svg preserveAspectRatio="xMidYMid meet" overflow="visible" style="display: block;" viewBox="0 0 24 24" fill="none" xmlns="http://www.w3.org/2000/svg">
<g transform="translate(2.2500, 2.2500)">
<path id="Vector" fill-rule="evenodd" clip-rule="evenodd" d="M7.5 12.75V18H18V7.5H12.75C12.3358 7.5 12 7.16421 12 6.75V1.5H1.5V12H6.75C7.16421 12 7.5 12.3358 7.5 12.75ZM13.5 6V1.35C13.5 0.604416 12.8956 0 12.15 0H1.35C0.604416 0 0 0.604416 0 1.35V12.15C0 12.8956 0.604415 13.5 1.35 13.5H6V18.15C6 18.8956 6.60442 19.5 7.35 19.5H18.15C18.8956 19.5 19.5 18.8956 19.5 18.15V7.35C19.5 6.60442 18.8956 6 18.15 6H13.5Z" fill="#292927"/>
</g>
</svg>
