<svg preserveAspectRatio="xMidYMid meet" overflow="visible" style="display: block;" viewBox="0 0 24 24" fill="none" xmlns="http://www.w3.org/2000/svg">
<g transform="translate(3.2500, 5.7499)">
<path id="Vector" fill-rule="evenodd" clip-rule="evenodd" d="M1.5 1.75C1.5 1.61193 1.61193 1.5 1.75 1.5H5.75C5.88807 1.5 6 1.61193 6 1.75V5.5H1.75C1.61193 5.5 1.5 5.38807 1.5 5.25V1.75ZM5.2647 8.93907C5.6554 8.39209 5.87943 7.77422 5.96255 7H1.75C0.783502 7 0 6.2165 0 5.25V1.75C0 0.783502 0.783502 0 1.75 0H5.75C6.7165 0 7.5 0.783502 7.5 1.75V6.25C7.5 7.60711 7.22609 8.77382 6.4853 9.81093C5.75819 10.8289 4.63429 11.6464 3.08541 12.4208C2.71493 12.6061 2.26442 12.4559 2.07918 12.0854C1.89394 11.7149 2.04411 11.2644 2.41459 11.0792C3.86571 10.3536 4.74181 9.67111 5.2647 8.93907ZM11.5 1.75C11.5 1.61193 11.6119 1.5 11.75 1.5H15.75C15.8881 1.5 16 1.61193 16 1.75V5.5H11.75C11.6119 5.5 11.5 5.38807 11.5 5.25V1.75ZM15.2647 8.93907C15.6554 8.39209 15.8794 7.77422 15.9625 7H11.75C10.7835 7 10 6.2165 10 5.25V1.75C10 0.783502 10.7835 0 11.75 0H15.75C16.7165 0 17.5 0.783502 17.5 1.75V6.25C17.5 7.60711 17.2261 8.77382 16.4853 9.81093C15.7582 10.8289 14.6343 11.6464 13.0854 12.4208C12.7149 12.6061 12.2644 12.4559 12.0792 12.0854C11.8939 11.7149 12.0441 11.2644 12.4146 11.0792C13.8657 10.3536 14.7418 9.67111 15.2647 8.93907Z" fill="#292927"/>
</g>
</svg>
