<svg preserveAspectRatio="xMidYMid meet" overflow="visible" style="display: block;" viewBox="0 0 24 24" fill="none" xmlns="http://www.w3.org/2000/svg">
<g transform="translate(5.2500, 4.2500)">
<path id="Vector" fill-rule="evenodd" clip-rule="evenodd" d="M1.28033 0.21967C0.987437 -0.0732233 0.512563 -0.0732233 0.21967 0.21967C-0.0732233 0.512563 -0.0732233 0.987437 0.21967 1.28033L6.21967 7.28033C6.51256 7.57322 6.98744 7.57322 7.28033 7.28033L13.2803 1.28033C13.5732 0.987437 13.5732 0.512563 13.2803 0.21967C12.9874 -0.0732233 12.5126 -0.0732233 12.2197 0.21967L6.75 5.68934L1.28033 0.21967ZM1.28033 8.21967C0.987437 7.92678 0.512563 7.92678 0.21967 8.21967C-0.0732233 8.51256 -0.0732233 8.98744 0.21967 9.28033L6.21967 15.2803C6.51256 15.5732 6.98744 15.5732 7.28033 15.2803L13.2803 9.28033C13.5732 8.98744 13.5732 8.51256 13.2803 8.21967C12.9874 7.92678 12.5126 7.92678 12.2197 8.21967L6.75 13.6893L1.28033 8.21967Z" fill="#292927"/>
</g>
</svg>
