<svg preserveAspectRatio="xMidYMid meet" overflow="visible" style="display: block;" viewBox="0 0 24 24" fill="none" xmlns="http://www.w3.org/2000/svg">
<g transform="translate(2.2500, 1.2500)">
<path id="Vector" fill-rule="evenodd" clip-rule="evenodd" d="M15.7803 0.21967C15.4874 -0.0732233 15.0126 -0.0732233 14.7197 0.21967C14.4268 0.512563 14.4268 0.987437 14.7197 1.28033L15.4393 2H9.75C4.36522 2 0 6.36522 0 11.75C0 17.1348 4.36522 21.5 9.75 21.5C15.1348 21.5 19.5 17.1348 19.5 11.75C19.5 11.3358 19.1642 11 18.75 11C18.3358 11 18 11.3358 18 11.75C18 16.3064 14.3063 20 9.75 20C5.19365 20 1.5 16.3064 1.5 11.75C1.5 7.19365 5.19365 3.5 9.75 3.5H15.4393L14.7197 4.21967C14.4268 4.51256 14.4268 4.98744 14.7197 5.28033C15.0126 5.57322 15.4874 5.57322 15.7803 5.28033L17.7803 3.28033C18.0732 2.98744 18.0732 2.51256 17.7803 2.21967L15.7803 0.21967ZM6.75 7C7.16421 7 7.5 7.33579 7.5 7.75V14.75C7.5 15.1642 7.16421 15.5 6.75 15.5C6.33579 15.5 6 15.1642 6 14.75V7.75C6 7.33579 6.33579 7 6.75 7ZM10.75 7C9.7835 7 9 7.7835 9 8.75V10.25C9 11.2165 9.7835 12 10.75 12H11.75C11.8881 12 12 12.1119 12 12.25V13.75C12 13.8881 11.8881 14 11.75 14H9.75C9.33579 14 9 14.3358 9 14.75C9 15.1642 9.33579 15.5 9.75 15.5H11.75C12.7165 15.5 13.5 14.7165 13.5 13.75V12.25C13.5 11.2835 12.7165 10.5 11.75 10.5H10.75C10.6119 10.5 10.5 10.3881 10.5 10.25V8.75C10.5 8.61193 10.6119 8.5 10.75 8.5H12.75C13.1642 8.5 13.5 8.16421 13.5 7.75C13.5 7.33579 13.1642 7 12.75 7H10.75Z" fill="#292927"/>
</g>
</svg>
