<svg preserveAspectRatio="xMidYMid meet" overflow="visible" style="display: block;" viewBox="0 0 24 24" fill="none" xmlns="http://www.w3.org/2000/svg">
<g transform="translate(1.2500, 3.8074)">
<path id="Vector" fill-rule="evenodd" clip-rule="evenodd" d="M1.20004 4.725C6.93338 0.424999 14.5667 0.425002 20.3 4.725C20.6314 4.97353 21.1015 4.90637 21.35 4.575C21.5986 4.24363 21.5314 3.77353 21.2 3.525C14.9334 -1.175 6.56671 -1.175 0.300044 3.525C-0.0313267 3.77353 -0.098484 4.24363 0.150044 4.575C0.398572 4.90637 0.868673 4.97353 1.20004 4.725ZM11.3175 16.1258C11.5946 15.8179 11.5697 15.3437 11.2618 15.0666C10.9539 14.7895 10.4797 14.8144 10.2026 15.1223L10.1926 15.1334C9.9155 15.4413 9.94046 15.9155 10.2483 16.1926C10.5562 16.4697 11.0304 16.4447 11.3075 16.1369L11.3175 16.1258ZM17.3 8.725C13.5667 5.925 7.93338 5.925 4.20004 8.725C3.86867 8.97353 3.39857 8.90637 3.15004 8.575C2.90152 8.24363 2.96867 7.77353 3.30004 7.525C7.56671 4.325 13.9334 4.325 18.2 7.525C18.5314 7.77353 18.5986 8.24363 18.35 8.575C18.1015 8.90637 17.6314 8.97353 17.3 8.725ZM7.64621 12.2622C9.65418 11.013 11.8463 11.0128 13.8539 12.2621C14.2055 12.481 14.6681 12.3733 14.8869 12.0216C15.1058 11.6699 14.9981 11.2074 14.6464 10.9886C12.1534 9.43716 9.34679 9.43766 6.85387 10.9885C6.50216 11.2073 6.39441 11.6698 6.61321 12.0215C6.83201 12.3732 7.2945 12.481 7.64621 12.2622Z" fill="#292927"/>
</g>
</svg>
