<svg preserveAspectRatio="xMidYMid meet" overflow="visible" style="display: block;" viewBox="0 0 24 24" fill="none" xmlns="http://www.w3.org/2000/svg">
<g transform="translate(2.2500, 2.2500)">
<path id="Vector" fill-rule="evenodd" clip-rule="evenodd" d="M18 1.5V18H1.5V1.5H18ZM18.15 19.5C18.8956 19.5 19.5 18.8956 19.5 18.15V1.35C19.5 0.604418 18.8956 0 18.15 0H1.35C0.604418 0 0 0.604414 0 1.35V18.15C0 18.8956 0.604414 19.5 1.35 19.5H18.15ZM12.4208 6.08541C12.5371 5.85292 12.5246 5.57681 12.388 5.3557C12.2513 5.13459 12.0099 5 11.75 5H7.75C7.33579 5 7 5.33579 7 5.75C7 6.16421 7.33579 6.5 7.75 6.5H10.5365L7.07918 13.4146C6.96293 13.6471 6.97536 13.9232 7.11201 14.1443C7.24867 14.3654 7.49007 14.5 7.75 14.5H11.75C12.1642 14.5 12.5 14.1642 12.5 13.75C12.5 13.3358 12.1642 13 11.75 13H8.96352L12.4208 6.08541Z" fill="#292927"/>
</g>
</svg>
