<svg preserveAspectRatio="xMidYMid meet" overflow="visible" style="display: block;" viewBox="0 0 24 24" fill="none" xmlns="http://www.w3.org/2000/svg">
<g transform="translate(1.2500, 2.7500)">
<path id="Vector" fill-rule="evenodd" clip-rule="evenodd" d="M17.5 0.75C17.5 0.335786 17.1642 0 16.75 0C16.3358 0 16 0.335786 16 0.75V4.75C16 5.16421 16.3358 5.5 16.75 5.5C17.1642 5.5 17.5 5.16421 17.5 4.75V0.75ZM17.3175 9.25075C17.5946 8.94287 17.5696 8.46865 17.2617 8.19156C16.9538 7.91446 16.4796 7.93942 16.2025 8.24731L16.1925 8.25842C15.9154 8.5663 15.9404 9.04052 16.2483 9.31761C16.5562 9.59471 17.0304 9.56975 17.3075 9.26186L17.3175 9.25075ZM20.75 4C21.1642 4 21.5 4.33579 21.5 4.75V17.15C21.5 17.8956 20.8956 18.5 20.15 18.5H1.35C0.604415 18.5 0 17.8956 0 17.15V8.75V2.35C0 1.60442 0.604415 1 1.35 1H7.52805C7.85031 1 8.16194 1.11528 8.40661 1.325L11.5274 4H12.75C13.1642 4 13.5 4.33579 13.5 4.75C13.5 5.16421 13.1642 5.5 12.75 5.5H11.472C11.1497 5.5 10.8381 5.38472 10.5934 5.175L7.47256 2.5H1.5V8H12.75C13.1642 8 13.5 8.33579 13.5 8.75C13.5 9.16421 13.1642 9.5 12.75 9.5H1.5V17H20V4.75C20 4.33579 20.3358 4 20.75 4Z" fill="#292927"/>
</g>
</svg>
