<svg preserveAspectRatio="xMidYMid meet" overflow="visible" style="display: block;" viewBox="0 0 24 24" fill="none" xmlns="http://www.w3.org/2000/svg">
<g transform="translate(2.2500, 3.2500)">
<path id="Vector" fill-rule="evenodd" clip-rule="evenodd" d="M18.114 0.352601C18.3335 0.00134879 18.7962 -0.105431 19.1475 0.114102C19.4988 0.333634 19.6055 0.796347 19.386 1.1476L18.75 0.7501C19.386 1.1476 19.3861 1.14737 19.386 1.1476L19.3853 1.14878L19.3776 1.16101L19.3548 1.19717C19.3348 1.22869 19.3054 1.27491 19.267 1.33482C19.1901 1.45465 19.0769 1.62934 18.9304 1.85104C18.6375 2.29439 18.2111 2.92615 17.6745 3.68361C16.6024 5.19725 15.0863 7.21896 13.3144 9.24398C11.5458 11.2653 9.50412 13.3108 7.37863 14.8567C5.26864 16.3912 2.98543 17.5001 0.75 17.5001C0.335786 17.5001 0 17.1643 0 16.7501C0 16.3359 0.335786 16.0001 0.75 16.0001C2.51457 16.0001 4.48136 15.109 6.49637 13.6435C8.49588 12.1894 10.4542 10.2349 12.1856 8.25622C13.9137 6.28124 15.3976 4.30295 16.4505 2.81659C16.9764 2.07405 17.3937 1.45581 17.6789 1.02416C17.8215 0.808363 17.931 0.639297 18.0045 0.524752C18.0413 0.467482 18.069 0.42385 18.0874 0.394831L18.1079 0.362388L18.1127 0.354616L18.114 0.352601Z" fill="#292927"/>
</g>
</svg>
