<svg preserveAspectRatio="xMidYMid meet" overflow="visible" style="display: block;" viewBox="0 0 24 24" fill="none" xmlns="http://www.w3.org/2000/svg">
<g transform="translate(1.2500, 1.2500)">
<path id="Vector" fill-rule="evenodd" clip-rule="evenodd" d="M10.75 1.5C9.84772 1.5 8.97561 1.62919 8.15117 1.87007C8.97545 2.55776 9.49999 3.59249 9.49999 4.75046C9.49999 6.82153 7.82106 8.50046 5.74999 8.50046C4.34888 8.50046 3.12768 7.73238 2.4839 6.59412C1.85446 7.84364 1.5 9.25543 1.5 10.75C1.5 15.8586 5.64137 20 10.75 20C12.8766 20 14.8355 19.2824 16.3979 18.0761C14.9785 17.3878 14 15.9336 14 14.25C14 11.9028 15.9028 10 18.25 10C18.8707 10 19.4607 10.1333 19.9924 10.3727C19.7945 5.43899 15.7323 1.5 10.75 1.5ZM19.9085 12.0561C19.4472 11.7066 18.8732 11.5 18.25 11.5C16.7312 11.5 15.5 12.7312 15.5 14.25C15.5 15.5561 16.4111 16.6505 17.6323 16.9305C18.8296 15.5981 19.6456 13.916 19.9085 12.0561ZM3.5106 4.99152C4.2932 4.00896 5.27163 3.18931 6.38683 2.59164C7.31946 2.86614 7.99999 3.7296 7.99999 4.75046C7.99999 5.9931 6.99263 7.00046 5.74999 7.00046C4.58888 7.00046 3.63235 6.12033 3.51267 4.9913L3.5106 4.99152ZM0 10.75C0 4.81294 4.81294 0 10.75 0C16.6871 0 21.5 4.81294 21.5 10.75C21.5 16.6871 16.6871 21.5 10.75 21.5C4.81294 21.5 0 16.6871 0 10.75ZM13.7617 6.69156C14.0696 6.96865 14.0946 7.44287 13.8175 7.75075L13.8075 7.76186C13.5304 8.06975 13.0562 8.09471 12.7483 7.81761C12.4404 7.54052 12.4154 7.0663 12.6925 6.75842L12.7025 6.74731C12.9796 6.43942 13.4538 6.41446 13.7617 6.69156ZM7.5 13.75C7.5 13.0596 8.05964 12.5 8.75 12.5C9.44036 12.5 10 13.0596 10 13.75C10 14.4404 9.44036 15 8.75 15C8.05964 15 7.5 14.4404 7.5 13.75ZM8.75 11C7.23122 11 6 12.2312 6 13.75C6 15.2688 7.23122 16.5 8.75 16.5C10.2688 16.5 11.5 15.2688 11.5 13.75C11.5 12.2312 10.2688 11 8.75 11Z" fill="#292927"/>
</g>
</svg>
