<svg preserveAspectRatio="xMidYMid meet" overflow="visible" style="display: block;" viewBox="0 0 24 24" fill="none" xmlns="http://www.w3.org/2000/svg">
<g transform="translate(2.2500, 5.7500)">
<path id="Vector" fill-rule="evenodd" clip-rule="evenodd" d="M0.308924 0.143501C0.643914 -0.100128 1.11298 -0.0260654 1.3566 0.308924L4.75005 4.97491L8.1435 0.308924C8.38713 -0.0260654 8.85619 -0.100128 9.19118 0.143501C9.52617 0.387129 9.60023 0.856192 9.3566 1.19118L5.85924 6.00005H8.75006C9.16428 6.00005 9.50006 6.33584 9.50006 6.75005C9.50006 7.16427 9.16428 7.50005 8.75006 7.50005H5.50005V8.00005H8.75006C9.16428 8.00005 9.50006 8.33584 9.50006 8.75005C9.50006 9.16427 9.16428 9.50005 8.75006 9.50005H5.50005V11.7501C5.50005 12.1643 5.16427 12.5001 4.75005 12.5001C4.33584 12.5001 4.00005 12.1643 4.00005 11.7501V9.50005H0.750061C0.335847 9.50005 6.10375e-05 9.16427 6.10375e-05 8.75005C6.10375e-05 8.33584 0.335847 8.00005 0.750061 8.00005H4.00005V7.50005H0.750061C0.335847 7.50005 6.10375e-05 7.16427 6.10375e-05 6.75005C6.10375e-05 6.33584 0.335847 6.00005 0.750061 6.00005H3.64086L0.143501 1.19118C-0.100128 0.856192 -0.0260653 0.387129 0.308924 0.143501ZM14.369 2.26945C14.0822 1.97064 14.0919 1.49587 14.3907 1.20901C14.6895 0.922158 15.1642 0.931847 15.4511 1.23066L19.2911 5.23066C19.5697 5.52088 19.5697 5.97923 19.2911 6.26945L15.4511 10.2695C15.1642 10.5683 14.6895 10.578 14.3907 10.2911C14.0919 10.0042 14.0822 9.52946 14.369 9.23066L16.9904 6.50005H10.7501C10.3358 6.50005 10.0001 6.16427 10.0001 5.75005C10.0001 5.33584 10.3358 5.00005 10.7501 5.00005H16.9904L14.369 2.26945Z" fill="#292927"/>
</g>
</svg>
