<svg preserveAspectRatio="xMidYMid meet" overflow="visible" style="display: block;" viewBox="0 0 24 24" fill="none" xmlns="http://www.w3.org/2000/svg">
<g transform="translate(3.2500, 1.2500)">
<path id="Vector" fill-rule="evenodd" clip-rule="evenodd" d="M8.75 20C12.7541 20 16 16.7541 16 12.75V8.75C16 8.05151 15.9012 7.37609 15.7169 6.73694L8.71852 12.3356C8.39507 12.5944 7.9231 12.5419 7.66435 12.2185C7.40559 11.895 7.45803 11.4231 7.78148 11.1643L15.1232 5.29095C14.8989 4.87854 14.6357 4.49032 14.3386 4.13122L10.2105 7.34198C9.8835 7.59628 9.41229 7.53738 9.15799 7.21042C8.90369 6.88346 8.96259 6.41225 9.28955 6.15795L13.2579 3.07147C12.0203 2.08772 10.4538 1.5 8.75 1.5C4.74594 1.5 1.5 4.74594 1.5 8.75V12.75C1.5 16.7541 4.74594 20 8.75 20ZM17.5 12.75C17.5 17.5825 13.5825 21.5 8.75 21.5C3.91751 21.5 0 17.5825 0 12.75V8.75C0 3.91751 3.91751 0 8.75 0C13.5825 0 17.5 3.91751 17.5 8.75V12.75Z" fill="#292927"/>
</g>
</svg>
