<svg preserveAspectRatio="xMidYMid meet" overflow="visible" style="display: block;" viewBox="0 0 24 24" fill="none" xmlns="http://www.w3.org/2000/svg">
<g transform="translate(2.2500, 1.7627)">
<path id="Vector" fill-rule="evenodd" clip-rule="evenodd" d="M1.35 0C0.604415 0 0 0.604416 0 1.35V15.15C0 15.8956 0.604415 16.5 1.35 16.5H5.42595L8.76693 20.0498C9.29996 20.6161 10.2 20.6161 10.7331 20.0498L14.0741 16.5H18.15C18.8956 16.5 19.5 15.8956 19.5 15.15V1.35C19.5 0.604415 18.8956 0 18.15 0H1.35ZM1.5 15V1.5H18V15H14.0092C13.637 15 13.2813 15.1537 13.0262 15.4248L9.75 18.9057L6.47383 15.4248C6.21871 15.1537 5.86299 15 5.49076 15H1.5ZM10.4061 4.38672C10.274 4.14809 10.0228 4 9.75 4C9.47723 4 9.22597 4.14809 9.09385 4.38672L7.77279 6.77279L5.38672 8.09385C5.14809 8.22597 5 8.47723 5 8.75C5 9.02277 5.14809 9.27402 5.38672 9.40615L7.77279 10.7272L9.09385 13.1133C9.22597 13.3519 9.47723 13.5 9.75 13.5C10.0228 13.5 10.274 13.3519 10.4061 13.1133L11.7272 10.7272L14.1133 9.40615C14.3519 9.27402 14.5 9.02277 14.5 8.75C14.5 8.47723 14.3519 8.22597 14.1133 8.09385L11.7272 6.77279L10.4061 4.38672ZM8.98071 7.68785L9.75 6.29839L10.5193 7.68785C10.5875 7.81103 10.689 7.91252 10.8122 7.98071L12.2016 8.75L10.8122 9.51929C10.689 9.58748 10.5875 9.68897 10.5193 9.81215L9.75 11.2016L8.98071 9.81215C8.91252 9.68897 8.81103 9.58748 8.68785 9.51929L7.29839 8.75L8.68785 7.98071C8.81103 7.91252 8.91252 7.81103 8.98071 7.68785Z" fill="#292927"/>
</g>
</svg>
