<svg preserveAspectRatio="xMidYMid meet" overflow="visible" style="display: block;" viewBox="0 0 24 24" fill="none" xmlns="http://www.w3.org/2000/svg">
<g transform="translate(5.2500, 3.2500)">
<path id="Vector" fill-rule="evenodd" clip-rule="evenodd" d="M0.300044 0.150044C0.631415 -0.0984839 1.10152 -0.0313262 1.35004 0.300043L6.75004 7.50004L12.15 0.300043C12.3986 -0.0313262 12.8687 -0.0984839 13.2 0.150044C13.5314 0.398571 13.5986 0.868674 13.35 1.20004L8.25004 8.00004H12.75C13.1642 8.00004 13.5 8.33583 13.5 8.75004C13.5 9.16426 13.1642 9.50004 12.75 9.50004H7.50004V12H12.75C13.1642 12 13.5 12.3358 13.5 12.75C13.5 13.1643 13.1642 13.5 12.75 13.5H7.50004V16.75C7.50004 17.1643 7.16426 17.5 6.75004 17.5C6.33583 17.5 6.00004 17.1643 6.00004 16.75V13.5H0.750031C0.335817 13.5 3.05175e-05 13.1643 3.05175e-05 12.75C3.05175e-05 12.3358 0.335817 12 0.750031 12H6.00004V9.50004H0.750031C0.335817 9.50004 3.05175e-05 9.16426 3.05175e-05 8.75004C3.05175e-05 8.33583 0.335817 8.00004 0.750031 8.00004H5.25004L0.150044 1.20004C-0.098484 0.868674 -0.0313267 0.398571 0.300044 0.150044Z" fill="#292927"/>
</g>
</svg>
