<svg preserveAspectRatio="xMidYMid meet" overflow="visible" style="display: block;" viewBox="0 0 24 24" fill="none" xmlns="http://www.w3.org/2000/svg">
<g transform="translate(1.2500, 1.2500)">
<path id="Vector" fill-rule="evenodd" clip-rule="evenodd" d="M1.5 10.75C1.5 5.64137 5.64137 1.5 10.75 1.5C15.8586 1.5 20 5.64137 20 10.75C20 15.8586 15.8586 20 10.75 20C5.64137 20 1.5 15.8586 1.5 10.75ZM10.75 0C4.81294 0 0 4.81294 0 10.75C0 16.6871 4.81294 21.5 10.75 21.5C16.6871 21.5 21.5 16.6871 21.5 10.75C21.5 4.81294 16.6871 0 10.75 0ZM13 14.25C13 13.5596 13.5596 13 14.25 13C14.9404 13 15.5 13.5596 15.5 14.25C15.5 14.9404 14.9404 15.5 14.25 15.5C13.5596 15.5 13 14.9404 13 14.25ZM6 7.25C6 6.55964 6.55964 6 7.25 6C7.94036 6 8.5 6.55964 8.5 7.25C8.5 7.94036 7.94036 8.5 7.25 8.5C6.55964 8.5 6 7.94036 6 7.25ZM14.2197 6.21967C14.5126 5.92678 14.9874 5.92678 15.2803 6.21967C15.5732 6.51256 15.5732 6.98744 15.2803 7.28033L7.28033 15.2803C6.98744 15.5732 6.51256 15.5732 6.21967 15.2803C5.92678 14.9874 5.92678 14.5126 6.21967 14.2197L14.2197 6.21967Z" fill="#292927"/>
</g>
</svg>
