<svg preserveAspectRatio="xMidYMid meet" overflow="visible" style="display: block;" viewBox="0 0 24 24" fill="none" xmlns="http://www.w3.org/2000/svg">
<g transform="translate(3.4556, 2.2500)">
<path id="Vector" fill-rule="evenodd" clip-rule="evenodd" d="M1.35089 11.5C0.446571 11.5 -0.202033 10.6283 0.0578197 9.76208L2.69782 0.962081C2.86913 0.391053 3.39471 0 3.99089 0H13.098C13.6942 0 14.2198 0.391051 14.3911 0.96208L17.0311 9.76208C17.291 10.6283 16.6424 11.5 15.738 11.5H5.29447V12.75C5.29447 13.1642 4.95868 13.5 4.54447 13.5C4.13025 13.5 3.79447 13.1642 3.79447 12.75L3.79447 11.5H1.35089ZM15.5364 10H4.54447H1.55249L4.10249 1.5H12.9864L15.5364 10ZM12.5445 19.5C12.9587 19.5 13.2945 19.1642 13.2945 18.75C13.2945 18.3358 12.9587 18 12.5445 18H9.29447V12.75C9.29447 12.3358 8.95868 12 8.54447 12C8.13025 12 7.79447 12.3358 7.79447 12.75L7.79447 18H4.54447C4.13025 18 3.79447 18.3358 3.79447 18.75C3.79447 19.1642 4.13025 19.5 4.54447 19.5H12.5445Z" fill="#292927"/>
</g>
</svg>
