<svg preserveAspectRatio="xMidYMid meet" overflow="visible" style="display: block;" viewBox="0 0 24 24" fill="none" xmlns="http://www.w3.org/2000/svg">
<g transform="translate(0.2500, 2.2500)">
<path id="Vector" fill-rule="evenodd" clip-rule="evenodd" d="M1.5 6.75C1.5 3.85051 3.8505 1.5 6.75 1.5H16.75C19.6495 1.5 22 3.85051 22 6.75V12.75C22 15.6495 19.6495 18 16.75 18H6.75C3.85051 18 1.5 15.6495 1.5 12.75V6.75ZM6.75 0C3.02208 0 0 3.02208 0 6.75V12.75C0 16.4779 3.02208 19.5 6.75 19.5H16.75C20.4779 19.5 23.5 16.4779 23.5 12.75V6.75C23.5 3.02208 20.4779 0 16.75 0H6.75ZM4.5 9.75C4.5 8.50736 5.50736 7.5 6.75 7.5C7.99264 7.5 9 8.50736 9 9.75C9 10.9926 7.99264 12 6.75 12C5.50736 12 4.5 10.9926 4.5 9.75ZM6.75 6C4.67893 6 3 7.67893 3 9.75C3 11.8211 4.67893 13.5 6.75 13.5C8.82107 13.5 10.5 11.8211 10.5 9.75C10.5 7.67893 8.82107 6 6.75 6ZM15.5 6.75C15.5 7.16421 15.1642 7.5 14.75 7.5H12.5V9H14.3215C14.7357 9 15.0715 9.33579 15.0715 9.75C15.0715 10.1642 14.7357 10.5 14.3215 10.5H12.5V12.75C12.5 13.1642 12.1642 13.5 11.75 13.5C11.3358 13.5 11 13.1642 11 12.75V6.75C11 6.33579 11.3358 6 11.75 6H14.75C15.1642 6 15.5 6.33579 15.5 6.75ZM19.75 7.5C20.1642 7.5 20.5 7.16421 20.5 6.75C20.5 6.33579 20.1642 6 19.75 6H16.75C16.3358 6 16 6.33579 16 6.75V12.75C16 13.1642 16.3358 13.5 16.75 13.5C17.1642 13.5 17.5 13.1642 17.5 12.75V10.5H19.3215C19.7357 10.5 20.0715 10.1642 20.0715 9.75C20.0715 9.33579 19.7357 9 19.3215 9H17.5V7.5H19.75Z" fill="#292927"/>
</g>
</svg>
