<svg preserveAspectRatio="xMidYMid meet" overflow="visible" style="display: block;" viewBox="0 0 24 24" fill="none" xmlns="http://www.w3.org/2000/svg">
<g transform="translate(0.5750, 0.8277)">
<path id="Vector" fill-rule="evenodd" clip-rule="evenodd" d="M10.8392 0.133692C11.2094 -0.0445634 11.6406 -0.0445646 12.0107 0.133692L20.0902 4.02457C20.4603 4.20282 20.7292 4.53993 20.8206 4.94047L22.8161 13.6832C22.9075 14.0837 22.8115 14.5041 22.5554 14.8253L16.9642 21.8364C16.7081 22.1576 16.3196 22.3447 15.9087 22.3447H6.94119C6.53035 22.3447 6.14187 22.1576 5.88572 21.8364L0.29454 14.8253C0.0383872 14.5041 -0.0575609 14.0837 0.0338594 13.6832L2.02933 4.94047C2.12075 4.53994 2.38958 4.20282 2.75974 4.02457L10.8392 0.133692ZM11.425 1.51649L3.47565 5.34468L1.51233 13.9465L7.01343 20.8447H15.8365L21.3376 13.9465L19.3743 5.34468L11.425 1.51649Z" fill="#292927"/>
</g>
</svg>
