<svg preserveAspectRatio="xMidYMid meet" overflow="visible" style="display: block;" viewBox="0 0 24 24" fill="none" xmlns="http://www.w3.org/2000/svg">
<g transform="translate(5.2500, 1.2500)">
<path id="Vector" fill-rule="evenodd" clip-rule="evenodd" d="M7.28033 0.21967C6.98744 -0.0732233 6.51256 -0.0732233 6.21967 0.21967L3.21967 3.21967C2.92678 3.51256 2.92678 3.98744 3.21967 4.28033C3.51256 4.57322 3.98744 4.57322 4.28033 4.28033L6 2.56066V6.75C6 7.16421 6.33579 7.5 6.75 7.5C7.16421 7.5 7.5 7.16421 7.5 6.75V2.56066L9.21967 4.28033C9.51256 4.57322 9.98744 4.57322 10.2803 4.28033C10.5732 3.98744 10.5732 3.51256 10.2803 3.21967L7.28033 0.21967ZM13.5 10.75C13.5 11.1642 13.1642 11.5 12.75 11.5H0.75C0.335787 11.5 0 11.1642 0 10.75C0 10.3358 0.335787 10 0.75 10H12.75C13.1642 10 13.5 10.3358 13.5 10.75ZM7.28033 21.2803L10.2803 18.2803C10.5732 17.9874 10.5732 17.5126 10.2803 17.2197C9.98744 16.9268 9.51256 16.9268 9.21967 17.2197L7.5 18.9393V14.75C7.5 14.3358 7.16421 14 6.75 14C6.33579 14 6 14.3358 6 14.75V18.9393L4.28033 17.2197C3.98744 16.9268 3.51256 16.9268 3.21967 17.2197C2.92678 17.5126 2.92678 17.9874 3.21967 18.2803L6.21967 21.2803C6.51256 21.5732 6.98744 21.5732 7.28033 21.2803Z" fill="#292927"/>
</g>
</svg>
