<svg preserveAspectRatio="xMidYMid meet" overflow="visible" style="display: block;" viewBox="0 0 24 24" fill="none" xmlns="http://www.w3.org/2000/svg">
<g transform="translate(0.2500, 4.2500)">
<path id="Vector" fill-rule="evenodd" clip-rule="evenodd" d="M2.75 1.5C2.05964 1.5 1.5 2.05964 1.5 2.75V12.75C1.5 13.4404 2.05964 14 2.75 14H16.75C17.1642 14 17.5 14.3358 17.5 14.75C17.5 15.1642 17.1642 15.5 16.75 15.5H2.75C1.23122 15.5 0 14.2688 0 12.75V2.75C0 1.23122 1.23122 0 2.75 0H15.75C17.2688 0 18.5 1.23122 18.5 2.75V4.75C18.5 5.16421 18.1642 5.5 17.75 5.5C17.3358 5.5 17 5.16421 17 4.75V2.75C17 2.05964 16.4404 1.5 15.75 1.5H2.75ZM4.12595 4.33397C4.35572 3.98933 4.82137 3.8962 5.16601 4.12596L9.24999 6.84861L13.334 4.12596C13.6786 3.8962 14.1443 3.98933 14.374 4.33397C14.6038 4.67862 14.5107 5.14427 14.166 5.37404L9.66601 8.37404C9.41409 8.54199 9.08589 8.54199 8.83396 8.37404L4.33396 5.37404C3.98932 5.14427 3.89619 4.67862 4.12595 4.33397ZM20.2803 7.28033C20.5732 6.98744 20.5732 6.51256 20.2803 6.21967C19.9874 5.92678 19.5126 5.92678 19.2197 6.21967L16.2197 9.21967C15.9268 9.51256 15.9268 9.98744 16.2197 10.2803L19.2197 13.2803C19.5126 13.5732 19.9874 13.5732 20.2803 13.2803C20.5732 12.9874 20.5732 12.5126 20.2803 12.2197L18.5607 10.5H22.75C23.1642 10.5 23.5 10.1642 23.5 9.75C23.5 9.33579 23.1642 9 22.75 9H18.5607L20.2803 7.28033Z" fill="#292927"/>
</g>
</svg>
