<svg preserveAspectRatio="xMidYMid meet" overflow="visible" style="display: block;" viewBox="0 0 24 24" fill="none" xmlns="http://www.w3.org/2000/svg">
<g transform="translate(2.2500, 2.2500)">
<path id="Vector" fill-rule="evenodd" clip-rule="evenodd" d="M1.5 18V1.5H18V18H1.5ZM1.35 0C0.604416 0 0 0.604416 0 1.35V18.15C0 18.8956 0.60444 19.5 1.35 19.5H18.15C18.8956 19.5 19.5 18.8956 19.5 18.15V1.35C19.5 0.60444 18.8956 0 18.15 0H1.35ZM7.62897 6.17188H12.5787C12.7707 6.17188 12.9626 6.2451 13.1091 6.39154C13.181 6.46345 13.2352 6.54633 13.2718 6.63479C13.3085 6.72322 13.3287 6.82018 13.3287 6.92188V11.8717C13.3287 12.2859 12.993 12.6217 12.5787 12.6217C12.1645 12.6217 11.8287 12.2859 11.8287 11.8717V8.73254L7.45221 13.1091C7.15931 13.402 6.68444 13.402 6.39155 13.1091C6.09865 12.8162 6.09865 12.3413 6.39154 12.0484L10.7681 7.67188H7.62897C7.21476 7.67188 6.87897 7.33609 6.87897 6.92188C6.87897 6.50766 7.21476 6.17188 7.62897 6.17188Z" fill="#292927"/>
</g>
</svg>
