<svg preserveAspectRatio="xMidYMid meet" overflow="visible" style="display: block;" viewBox="0 0 24 24" fill="none" xmlns="http://www.w3.org/2000/svg">
<g transform="translate(2.2500, 2.2500)">
<path id="Vector" fill-rule="evenodd" clip-rule="evenodd" d="M1.35 0C0.604417 0 0 0.604415 0 1.35V13.75C0 14.1642 0.335786 14.5 0.75 14.5C1.16421 14.5 1.5 14.1642 1.5 13.75V1.5H18V18H5.75C5.33579 18 5 18.3358 5 18.75C5 19.1642 5.33579 19.5 5.75 19.5H18.15C18.8956 19.5 19.5 18.8956 19.5 18.15V1.35C19.5 0.604417 18.8956 0 18.15 0H1.35ZM7.75 3C7.33579 3 7 3.33579 7 3.75C7 4.16421 7.33579 4.5 7.75 4.5H15.75C16.1642 4.5 16.5 4.16421 16.5 3.75C16.5 3.33579 16.1642 3 15.75 3H7.75ZM3 3.75C3 3.33579 3.33579 3 3.75 3H4.75C5.16421 3 5.5 3.33579 5.5 3.75C5.5 4.16421 5.16421 4.5 4.75 4.5H3.75C3.33579 4.5 3 4.16421 3 3.75ZM5 9.75C5 10.1642 5.33579 10.5 5.75 10.5H7.93934L0.71967 17.7197C0.426777 18.0126 0.426777 18.4874 0.71967 18.7803C1.01256 19.0732 1.48744 19.0732 1.78033 18.7803L9 11.5607V13.75C9 14.1642 9.33579 14.5 9.75 14.5C10.1642 14.5 10.5 14.1642 10.5 13.75V9.75C10.5 9.33579 10.1642 9 9.75 9H5.75C5.33579 9 5 9.33579 5 9.75Z" fill="#292927"/>
</g>
</svg>
