<svg preserveAspectRatio="xMidYMid meet" overflow="visible" style="display: block;" viewBox="0 0 24 24" fill="none" xmlns="http://www.w3.org/2000/svg">
<g transform="translate(1.5879, 3.2552)">
<path id="Vector" fill-rule="evenodd" clip-rule="evenodd" d="M14.0741 0C13.6599 0 13.3241 0.335786 13.3241 0.75C13.3241 1.16421 13.6599 1.5 14.0741 1.5H20.0741C20.4883 1.5 20.8241 1.16421 20.8241 0.75C20.8241 0.335786 20.4883 0 20.0741 0H14.0741ZM9.00835 15.5702C8.51111 16.1296 7.63707 16.1296 7.13983 15.5702L1.81574 9.5806C1.39475 9.10699 1.39475 8.3933 1.81574 7.91969L7.13983 1.93009C7.63707 1.3707 8.51111 1.3707 9.00835 1.93009L14.3324 7.91969C14.7534 8.3933 14.7534 9.10699 14.3324 9.5806L9.00835 15.5702ZM6.01871 16.5667C7.11264 17.7974 9.03554 17.7974 10.1295 16.5667L15.4536 10.5771C16.3797 9.53521 16.3797 7.96508 15.4536 6.92314L10.1295 0.933542C9.03554 -0.297123 7.11264 -0.297123 6.01871 0.933542L0.694624 6.92314C-0.231541 7.96508 -0.231541 9.53521 0.694624 10.5771L6.01871 16.5667Z" fill="#292927"/>
</g>
</svg>
