<svg preserveAspectRatio="xMidYMid meet" overflow="visible" style="display: block;" viewBox="0 0 24 24" fill="none" xmlns="http://www.w3.org/2000/svg">
<g transform="translate(1.2486, 1.7494)">
<path id="Vector" fill-rule="evenodd" clip-rule="evenodd" d="M10.6656 1.52202C10.6879 1.50889 10.7176 1.5 10.7513 1.5C10.7851 1.5 10.8148 1.50889 10.837 1.52202C10.8566 1.53355 10.8771 1.55194 10.8947 1.58726L11.8857 3.5835C12.0699 3.95451 12.52 4.10596 12.891 3.92177C13.262 3.73759 13.4134 3.28751 13.2292 2.9165L12.2382 0.92026C11.6291 -0.306753 9.87361 -0.306753 9.26446 0.92026L8.76895 1.91838C8.58476 2.28939 8.73621 2.73947 9.10722 2.92365C9.47823 3.10784 9.9283 2.95639 10.1125 2.58538L10.608 1.58726C10.6255 1.55194 10.6461 1.53355 10.6656 1.52202ZM14.4341 5.34342C14.2499 4.97241 13.7998 4.82096 13.4288 5.00515C13.0578 5.18934 12.9064 5.63941 13.0905 6.01042L13.4922 6.81942C13.6016 7.03996 13.8124 7.19271 14.0561 7.22812L15.5083 7.43917C15.9182 7.49874 16.2988 7.21474 16.3583 6.80483C16.4179 6.39492 16.1339 6.01433 15.724 5.95476L14.6609 5.80026L14.4341 5.34342ZM17.7784 7.01137C17.838 6.60147 18.2186 6.31746 18.6285 6.37704L20.0807 6.58808C21.4362 6.78508 21.9887 8.45076 20.9974 9.4108L19.9467 10.4283C19.6492 10.7164 19.1744 10.7088 18.8862 10.4113C18.598 10.1137 18.6057 9.63889 18.9032 9.35073L19.9538 8.33327C20.0416 8.24823 20.0001 8.09213 19.865 8.07249L18.4127 7.86144C18.0028 7.80187 17.7188 7.42128 17.7784 7.01137ZM17.8454 12.4626C18.143 12.1744 18.1506 11.6996 17.8624 11.4021C17.5743 11.1045 17.0995 11.0969 16.8019 11.3851L15.7513 12.4025C15.5732 12.575 15.4918 12.8244 15.534 13.0688L15.7819 14.5062C15.8523 14.9144 16.2403 15.1882 16.6485 15.1178C17.0567 15.0474 17.3305 14.6594 17.2601 14.2512L17.0795 13.2043L17.8454 12.4626ZM17.0772 16.8802C16.669 16.9506 16.3951 17.3386 16.4656 17.7468L16.6506 18.8192C16.6572 18.8575 16.6514 18.8833 16.643 18.9026C16.6334 18.9249 16.6155 18.9485 16.5888 18.9677C16.5622 18.987 16.5331 18.9973 16.5067 18.9997C16.4834 19.0019 16.4546 18.9989 16.4181 18.9798L15.5709 18.5368C15.2038 18.3449 14.7507 18.4868 14.5587 18.8539C14.3668 19.221 14.5088 19.6741 14.8758 19.866L15.7231 20.3091C16.9317 20.941 18.3634 19.9245 18.1287 18.5642L17.9437 17.4918C17.8733 17.0836 17.4853 16.8098 17.0772 16.8802ZM11.0988 16.2631C10.8811 16.1493 10.6215 16.1493 10.4038 16.2631L8.83171 17.0851C8.46464 17.2771 8.32267 17.7302 8.5146 18.0973C8.70654 18.4643 9.15969 18.6063 9.52675 18.4144L10.7513 17.7741L11.7024 18.2714C12.0695 18.4633 12.5226 18.3214 12.7146 17.9543C12.9065 17.5872 12.7645 17.1341 12.3975 16.9421L11.0988 16.2631ZM4.55026 16.8802C4.95845 16.9506 5.23227 17.3386 5.16185 17.7468L4.97686 18.8192C4.97025 18.8575 4.976 18.8833 4.98439 18.9026C4.99405 18.9249 5.01196 18.9485 5.03859 18.9677C5.06522 18.987 5.09432 18.9973 5.12069 18.9997C5.14402 19.0019 5.17277 18.9989 5.20926 18.9798L6.05653 18.5368C6.42359 18.3449 6.87675 18.4868 7.06868 18.8539C7.26061 19.221 7.11864 19.6741 6.75158 19.866L5.90431 20.3091C4.69574 20.941 3.26405 19.9245 3.49869 18.5642L3.68369 17.4918C3.7541 17.0836 4.14208 16.8098 4.55026 16.8802ZM5.05646 11.7298C4.7589 11.4416 4.28409 11.4492 3.99593 11.7468C3.70777 12.0443 3.71539 12.5192 4.01294 12.8073L4.42312 13.2046L4.26482 14.1222C4.19441 14.5304 4.46823 14.9184 4.87642 14.9888C5.2846 15.0592 5.67258 14.7854 5.74299 14.3772L5.96866 13.069C6.01081 12.8246 5.92946 12.5752 5.75133 12.4027L5.05646 11.7298ZM3.38278 7.06118C3.44235 7.47109 3.15835 7.85167 2.74844 7.91125L1.6377 8.07267C1.50259 8.0923 1.46101 8.24841 1.54882 8.33345L2.97182 9.71153C3.26938 9.99969 3.27699 10.4745 2.98883 10.7721C2.70067 11.0696 2.22586 11.0772 1.92831 10.7891L0.505307 9.41098C-0.486032 8.45094 0.0664789 6.78526 1.42197 6.58826L2.53271 6.42684C2.94262 6.36727 3.32321 6.65127 3.38278 7.06118ZM8.81371 5.20183C8.9979 4.83082 8.84645 4.38074 8.47544 4.19656C8.10443 4.01237 7.65435 4.16382 7.47016 4.53483L6.84175 5.80066L5.64345 5.9748C5.23355 6.03438 4.94954 6.41496 5.00912 6.82487C5.06869 7.23478 5.44928 7.51878 5.85918 7.45921L7.44656 7.22852C7.69022 7.19311 7.90098 7.04035 8.01046 6.81982L8.81371 5.20183Z" fill="#292927"/>
</g>
</svg>
