<svg preserveAspectRatio="xMidYMid meet" overflow="visible" style="display: block;" viewBox="0 0 24 24" fill="none" xmlns="http://www.w3.org/2000/svg">
<g transform="translate(2.2500, 2.2500)">
<path id="Vector" fill-rule="evenodd" clip-rule="evenodd" d="M0 16.75C0 18.2688 1.23122 19.5 2.75 19.5H7.25H16.75C18.2688 19.5 19.5 18.2688 19.5 16.75V2.75C19.5 1.23122 18.2688 0 16.75 0H7.25H2.75C1.23122 0 0 1.23122 0 2.75V16.75ZM6.5 1.5H2.75C2.05964 1.5 1.5 2.05964 1.5 2.75V16.75C1.5 17.4404 2.05964 18 2.75 18H6.5V1.5ZM8 18V1.5H16.75C17.4404 1.5 18 2.05964 18 2.75V16.75C18 17.4404 17.4404 18 16.75 18H8ZM5.49388 7.18558C5.80561 7.45834 5.83719 7.93216 5.56443 8.24389L4.24658 9.75001L5.56443 11.2561C5.83719 11.5679 5.80561 12.0417 5.49388 12.3144C5.18215 12.5872 4.70833 12.5556 4.43557 12.2439L2.68557 10.2439C2.43814 9.96112 2.43814 9.5389 2.68557 9.25613L4.43557 7.25613C4.70833 6.9444 5.18215 6.91282 5.49388 7.18558Z" fill="#292927"/>
</g>
</svg>
