<svg preserveAspectRatio="xMidYMid meet" overflow="visible" style="display: block;" viewBox="0 0 24 24" fill="none" xmlns="http://www.w3.org/2000/svg">
<g transform="translate(1.2499, 2.2853)">
<path id="Vector" fill-rule="evenodd" clip-rule="evenodd" d="M0.0793439 6.01459C-0.105898 5.64411 0.0442702 5.1936 0.414754 5.00836L10.1464 0.142523C10.5265 -0.0475071 10.9738 -0.0475085 11.3539 0.142523L21.0856 5.00836C21.4561 5.1936 21.6062 5.64411 21.421 6.01459C21.2357 6.38508 20.7852 6.53524 20.4148 6.35L10.7502 1.51771L1.08557 6.35C0.715091 6.53524 0.264586 6.38507 0.0793439 6.01459ZM11.5002 5.67934C11.5002 5.26513 11.1644 4.92934 10.7502 4.92934C10.336 4.92934 10.0002 5.26513 10.0002 5.67934V6.11087C9.66317 6.18383 9.32867 6.3213 9.04215 6.55467C8.58403 6.9278 8.3335 7.47768 8.3335 8.141C8.3335 8.50373 8.42599 8.83507 8.61125 9.12157C8.79198 9.40106 9.03475 9.59757 9.27654 9.73961C9.71459 9.99692 10.2631 10.1347 10.6843 10.2405L10.7337 10.2529C11.2234 10.3762 11.5653 10.4687 11.7974 10.605C11.8993 10.6649 11.943 10.7136 11.9628 10.7442C11.9781 10.7678 12.0002 10.8114 12.0002 10.9102C12.0002 11.1411 11.9183 11.2747 11.7938 11.3754C11.6459 11.4952 11.3969 11.595 11.0595 11.6246C10.973 11.6323 10.8863 11.6349 10.8004 11.6331C10.7838 11.6321 10.767 11.6315 10.7502 11.6315L10.748 11.6315C10.146 11.6062 9.58475 11.3634 9.33225 11.0527C9.07105 10.7312 8.59869 10.6823 8.27722 10.9435C7.95574 11.2047 7.90688 11.6771 8.16808 11.9986C8.6159 12.5497 9.29684 12.8898 10.0002 13.041V13.6793C10.0002 14.0936 10.336 14.4293 10.7502 14.4293C11.1644 14.4293 11.5002 14.0936 11.5002 13.6793V13.078C11.939 13.0001 12.3769 12.8334 12.7378 12.5412C13.2071 12.1612 13.5002 11.6024 13.5002 10.9102C13.5002 10.5475 13.4077 10.2162 13.2224 9.92966C13.0417 9.65017 12.7989 9.45365 12.5571 9.31162C12.1191 9.05431 11.5706 8.91653 11.1494 8.81074L11.0999 8.79831C10.6102 8.67503 10.2684 8.58258 10.0363 8.44624C9.93432 8.38635 9.89064 8.33767 9.87084 8.30706C9.85559 8.28347 9.8335 8.23981 9.8335 8.141C9.8335 7.88124 9.91629 7.77728 9.98943 7.71771C10.0899 7.63591 10.2797 7.55846 10.5782 7.54396C10.6281 7.54153 10.6786 7.54096 10.7295 7.54212L10.7343 7.54224C11.315 7.55676 11.9379 7.79655 12.2415 8.07671C12.5458 8.35767 13.0203 8.33869 13.3013 8.03432C13.5822 7.72996 13.5632 7.25546 13.2589 6.97451C12.8133 6.56321 12.1666 6.26709 11.5002 6.12895V5.67934ZM3.50017 8.67934C3.50017 8.26513 3.16438 7.92934 2.75017 7.92934C2.33595 7.92934 2.00017 8.26513 2.00017 8.67934V16.6793C2.00017 18.1981 3.23138 19.4293 4.75017 19.4293H16.7502C18.269 19.4293 19.5002 18.1981 19.5002 16.6793V8.67934C19.5002 8.26513 19.1644 7.92934 18.7502 7.92934C18.336 7.92934 18.0002 8.26513 18.0002 8.67934V16.6793C18.0002 17.3697 17.4405 17.9293 16.7502 17.9293H4.75017C4.05981 17.9293 3.50017 17.3697 3.50017 16.6793V8.67934Z" fill="#292927"/>
</g>
</svg>
