<svg preserveAspectRatio="xMidYMid meet" overflow="visible" style="display: block;" viewBox="0 0 24 24" fill="none" xmlns="http://www.w3.org/2000/svg">
<g transform="translate(2.2500, 2.2500)">
<path id="Vector" fill-rule="evenodd" clip-rule="evenodd" d="M0.75 0C0.335786 0 0 0.335786 0 0.75V3.75C0 4.16421 0.335786 4.5 0.75 4.5C1.16421 4.5 1.5 4.16421 1.5 3.75V1.5H3.75C4.16421 1.5 4.5 1.16421 4.5 0.75C4.5 0.335786 4.16421 0 3.75 0H0.75ZM18.75 0C19.1642 0 19.5 0.335786 19.5 0.75V3.75C19.5 4.16421 19.1642 4.5 18.75 4.5C18.3358 4.5 18 4.16421 18 3.75V1.5H15.75C15.3358 1.5 15 1.16421 15 0.75C15 0.335786 15.3358 0 15.75 0H18.75ZM0 18.75C0 19.1642 0.335786 19.5 0.75 19.5H3.75C4.16421 19.5 4.5 19.1642 4.5 18.75C4.5 18.3358 4.16421 18 3.75 18H1.5V15.75C1.5 15.3358 1.16421 15 0.75 15C0.335786 15 0 15.3358 0 15.75V18.75ZM5.5 14.75C5.5 12.4028 7.40279 10.5 9.75 10.5C12.0972 10.5 14 12.4028 14 14.75V15.75C14 16.1642 14.3358 16.5 14.75 16.5C15.1642 16.5 15.5 16.1642 15.5 15.75V14.75C15.5 12.463 14.1649 10.4879 12.2315 9.56156C13.0094 8.87445 13.5 7.86952 13.5 6.75C13.5 4.67893 11.8211 3 9.75 3C7.67893 3 6 4.67893 6 6.75C6 7.86952 6.49058 8.87445 7.26848 9.56156C5.33514 10.4879 4 12.463 4 14.75V15.75C4 16.1642 4.33579 16.5 4.75 16.5C5.16421 16.5 5.5 16.1642 5.5 15.75V14.75ZM12 6.75C12 7.99264 10.9926 9 9.75 9C8.50736 9 7.5 7.99264 7.5 6.75C7.5 5.50736 8.50736 4.5 9.75 4.5C10.9926 4.5 12 5.50736 12 6.75ZM18.75 19.5C19.1642 19.5 19.5 19.1642 19.5 18.75V15.75C19.5 15.3358 19.1642 15 18.75 15C18.3358 15 18 15.3358 18 15.75V18H15.75C15.3358 18 15 18.3358 15 18.75C15 19.1642 15.3358 19.5 15.75 19.5H18.75Z" fill="#292927"/>
</g>
</svg>
