<svg preserveAspectRatio="xMidYMid meet" overflow="visible" style="display: block;" viewBox="0 0 24 24" fill="none" xmlns="http://www.w3.org/2000/svg">
<g transform="translate(3.2500, 2.2500)">
<path id="Vector" fill-rule="evenodd" clip-rule="evenodd" d="M1.5 2.75C1.5 2.05964 2.05964 1.5 2.75 1.5H16V14H2.75C2.29989 14 1.87503 14.1081 1.5 14.2999V2.75ZM0 16.75V2.75C0 1.23122 1.23122 0 2.75 0H16.15C16.8956 0 17.5 0.604415 17.5 1.35V14.4643C17.5 14.5131 17.4953 14.5609 17.4864 14.6071C17.4953 14.6534 17.5 14.7011 17.5 14.75C17.5 15.1642 17.1642 15.5 16.75 15.5H2.75C2.05964 15.5 1.5 16.0596 1.5 16.75C1.5 17.4404 2.05964 18 2.75 18H16.75C17.1642 18 17.5 18.3358 17.5 18.75C17.5 19.1642 17.1642 19.5 16.75 19.5H2.75C1.23122 19.5 0 18.2688 0 16.75ZM5.94388 5.45174C6.57878 4.8119 7.54999 4.84408 8.20167 5.54215C8.28965 5.6364 8.39623 5.70289 8.51043 5.74125C8.66522 5.79324 8.83401 5.79355 8.98951 5.74125C9.10371 5.70289 9.21029 5.6364 9.29827 5.54215C9.94995 4.84408 10.9212 4.8119 11.5561 5.45174C12.1479 6.04819 12.1479 7.01147 11.5561 7.60792L8.74997 10.4358L5.94388 7.60792C5.35204 7.01147 5.35204 6.04819 5.94388 5.45174ZM4.87912 4.3952C5.98335 3.28239 7.57538 3.24026 8.74997 4.04614C9.92456 3.24026 11.5166 3.28239 12.6208 4.3952C13.793 5.57648 13.793 7.48318 12.6208 8.66446L9.7028 11.6052C9.43914 11.8709 9.09064 12 8.75013 12.0001L8.74997 10.7813L8.74981 12.0001C8.40929 12 8.0608 11.8709 7.79714 11.6052L4.87912 8.66446C3.70696 7.48318 3.70696 5.57648 4.87912 4.3952Z" fill="#292927"/>
</g>
</svg>
