<svg preserveAspectRatio="xMidYMid meet" overflow="visible" style="display: block;" viewBox="0 0 24 24" fill="none" xmlns="http://www.w3.org/2000/svg">
<g transform="translate(1.2746, 1.2500)">
<path id="Vector" fill-rule="evenodd" clip-rule="evenodd" d="M1.49639 9.8241C1.9604 5.15058 5.90469 1.5 10.7007 1.5C14.0717 1.5 17.0228 3.30329 18.6398 6H16.7007C16.2865 6 15.9507 6.33579 15.9507 6.75C15.9507 7.16421 16.2865 7.5 16.7007 7.5H19.8522C19.8633 7.50025 19.8746 7.50025 19.8858 7.5H20.1007C20.8463 7.5 21.4507 6.89558 21.4507 6.15V2.75C21.4507 2.33579 21.1149 2 20.7007 2C20.2865 2 19.9507 2.33579 19.9507 2.75V5.2698C18.078 2.11569 14.6371 0 10.7007 0C5.12598 0 0.543158 4.24278 0.003725 9.6759C-0.0371994 10.0881 0.263768 10.4554 0.675955 10.4963C1.08814 10.5373 1.45546 10.2363 1.49639 9.8241ZM10.7501 20C15.5461 20 19.4903 16.3494 19.9544 11.6759C19.9953 11.2637 20.3626 10.9627 20.7748 11.0037C21.187 11.0446 21.4879 11.4119 21.447 11.8241C20.9076 17.2572 16.3248 21.5 10.7501 21.5C6.8136 21.5 3.37263 19.3843 1.5 16.2301V18.75C1.5 19.1642 1.16421 19.5 0.75 19.5C0.335786 19.5 0 19.1642 0 18.75V15.35C0 14.6044 0.604415 14 1.35 14H1.56495C1.57618 13.9997 1.58738 13.9997 1.59856 14H4.75C5.16421 14 5.5 14.3358 5.5 14.75C5.5 15.1642 5.16421 15.5 4.75 15.5H2.81098C4.42797 18.1967 7.37908 20 10.7501 20ZM9.20068 5C9.6149 5 9.95068 5.33579 9.95068 5.75V9.70722L11.3961 9.06483C11.7746 8.8966 12.2178 9.06707 12.386 9.44558C12.5543 9.8241 12.3838 10.2673 12.0053 10.4355L9.95068 11.3487V15H14.2007C14.6149 15 14.9507 15.3358 14.9507 15.75C14.9507 16.1642 14.6149 16.5 14.2007 16.5H9.80068C9.0551 16.5 8.45068 15.8956 8.45068 15.15V12.0154L7.50528 12.4355C7.12677 12.6038 6.68355 12.4333 6.51532 12.0548C6.34709 11.6763 6.51756 11.2331 6.89608 11.0648L8.45068 10.3739V5.75C8.45068 5.33579 8.78647 5 9.20068 5Z" fill="#292927"/>
</g>
</svg>
