<svg preserveAspectRatio="xMidYMid meet" overflow="visible" style="display: block;" viewBox="0 0 24 24" fill="none" xmlns="http://www.w3.org/2000/svg">
<g transform="translate(1.2500, 1.2500)">
<path id="Vector" fill-rule="evenodd" clip-rule="evenodd" d="M1.5 10.75C1.5 5.64137 5.64137 1.5 10.75 1.5C15.8586 1.5 20 5.64137 20 10.75C20 15.8586 15.8586 20 10.75 20C5.64137 20 1.5 15.8586 1.5 10.75ZM10.75 0C4.81294 0 0 4.81294 0 10.75C0 16.6871 4.81294 21.5 10.75 21.5C16.6871 21.5 21.5 16.6871 21.5 10.75C21.5 4.81294 16.6871 0 10.75 0ZM14.7803 11.7803L11.2803 15.2803C10.9874 15.5732 10.5126 15.5732 10.2197 15.2803L6.71967 11.7803C6.42678 11.4874 6.42678 11.0126 6.71967 10.7197C7.01256 10.4268 7.48744 10.4268 7.78033 10.7197L10 12.9393V6.75C10 6.33579 10.3358 6 10.75 6C11.1642 6 11.5 6.33579 11.5 6.75V12.9393L13.7197 10.7197C14.0126 10.4268 14.4874 10.4268 14.7803 10.7197C15.0732 11.0126 15.0732 11.4874 14.7803 11.7803Z" fill="#292927"/>
</g>
</svg>
