<svg preserveAspectRatio="xMidYMid meet" overflow="visible" style="display: block;" viewBox="0 0 24 24" fill="none" xmlns="http://www.w3.org/2000/svg">
<g transform="translate(0.2500, 0.2500)">
<path id="Vector" fill-rule="evenodd" clip-rule="evenodd" d="M11.75 2.5C11.3358 2.5 11 2.16421 11 1.75V0.75C11 0.335786 11.3358 0 11.75 0C12.1642 0 12.5 0.335786 12.5 0.75V1.75C12.5 2.16421 12.1642 2.5 11.75 2.5ZM11.75 6.5C10.5074 6.5 9.5 7.50736 9.5 8.75C9.5 9.99264 10.5074 11 11.75 11C12.9926 11 14 9.99264 14 8.75C14 7.50736 12.9926 6.5 11.75 6.5ZM8 8.75C8 6.67893 9.67893 5 11.75 5C13.8211 5 15.5 6.67893 15.5 8.75C15.5 10.8211 13.8211 12.5 11.75 12.5C9.67893 12.5 8 10.8211 8 8.75ZM3.06323 14.3587C2.21468 14.9696 1.5 15.9944 1.5 17.75C1.5 19.5056 2.21468 20.5304 3.06323 21.1413C3.95002 21.7798 5.03668 22 5.75 22H17.75C18.4633 22 19.55 21.7798 20.4368 21.1413C21.2853 20.5304 22 19.5056 22 17.75C22 15.9944 21.2853 14.9696 20.4368 14.3587C19.55 13.7202 18.4633 13.5 17.75 13.5C17.3358 13.5 17 13.1642 17 12.75C17 12.3358 17.3358 12 17.75 12C18.7034 12 20.1167 12.2798 21.3132 13.1413C22.548 14.0304 23.5 15.5056 23.5 17.75C23.5 19.9944 22.548 21.4696 21.3132 22.3587C20.1167 23.2202 18.7034 23.5 17.75 23.5H5.75C4.79665 23.5 3.38332 23.2202 2.18677 22.3587C0.951983 21.4696 0 19.9944 0 17.75C0 15.5056 0.951983 14.0304 2.18677 13.1413C3.38332 12.2798 4.79665 12 5.75 12C6.16421 12 6.5 12.3358 6.5 12.75C6.5 13.1642 6.16421 13.5 5.75 13.5C5.03668 13.5 3.95002 13.7202 3.06323 14.3587ZM18.75 8C18.3358 8 18 8.33579 18 8.75C18 9.16421 18.3358 9.5 18.75 9.5H19.75C20.1642 9.5 20.5 9.16421 20.5 8.75C20.5 8.33579 20.1642 8 19.75 8H18.75ZM17.7197 2.71967C18.0126 2.42678 18.4874 2.42678 18.7803 2.71967C19.0732 3.01256 19.0732 3.48744 18.7803 3.78033L17.7803 4.78033C17.4874 5.07322 17.0126 5.07322 16.7197 4.78033C16.4268 4.48744 16.4268 4.01256 16.7197 3.71967L17.7197 2.71967ZM4.71967 2.71967C5.01256 2.42678 5.48744 2.42678 5.78033 2.71967L6.78033 3.71967C7.07322 4.01256 7.07322 4.48744 6.78033 4.78033C6.48744 5.07322 6.01256 5.07322 5.71967 4.78033L4.71967 3.78033C4.42678 3.48744 4.42678 3.01256 4.71967 2.71967ZM3.75 8C3.33579 8 3 8.33579 3 8.75C3 9.16421 3.33579 9.5 3.75 9.5H4.75C5.16421 9.5 5.5 9.16421 5.5 8.75C5.5 8.33579 5.16421 8 4.75 8H3.75Z" fill="#292927"/>
</g>
</svg>
