<svg preserveAspectRatio="xMidYMid meet" overflow="visible" style="display: block;" viewBox="0 0 24 24" fill="none" xmlns="http://www.w3.org/2000/svg">
<g transform="translate(1.2500, 1.2500)">
<path id="Vector" fill-rule="evenodd" clip-rule="evenodd" d="M10.75 0C11.1642 0 11.5 0.335786 11.5 0.75C11.5 1.16421 11.1642 1.5 10.75 1.5C5.64137 1.5 1.5 5.64137 1.5 10.75C1.5 15.8586 5.64137 20 10.75 20C15.8586 20 20 15.8586 20 10.75C20 10.3358 20.3358 10 20.75 10C21.1642 10 21.5 10.3358 21.5 10.75C21.5 16.6871 16.6871 21.5 10.75 21.5C4.81294 21.5 0 16.6871 0 10.75C0 4.81294 4.81294 0 10.75 0ZM17 0.75C17 0.335786 16.6642 0 16.25 0C15.8358 0 15.5 0.335786 15.5 0.75C15.5 2.25405 15.1742 3.13766 14.647 3.66058C14.1185 4.18473 13.2333 4.5 11.75 4.5C11.3358 4.5 11 4.83579 11 5.25C11 5.66421 11.3358 6 11.75 6C13.2283 6 14.115 6.32258 14.6453 6.85202C15.1753 7.38122 15.5 8.26756 15.5 9.75C15.5 10.1642 15.8358 10.5 16.25 10.5C16.6642 10.5 17 10.1642 17 9.75C17 8.26632 17.3229 7.38032 17.8516 6.85159C18.3803 6.32286 19.2663 6 20.75 6C21.1642 6 21.5 5.66421 21.5 5.25C21.5 4.83579 21.1642 4.5 20.75 4.5C19.2613 4.5 18.3767 4.18446 17.8498 3.66101C17.324 3.13855 17 2.2553 17 0.75ZM15.7033 4.72557C15.9134 4.51722 16.0943 4.28714 16.2487 4.03671C16.4026 4.28694 16.583 4.51689 16.7927 4.72514C16.9981 4.92923 17.2241 5.1051 17.4692 5.25531C17.2233 5.40737 16.9967 5.58511 16.7909 5.79093C16.5821 5.99974 16.4022 6.22992 16.2487 6.47997C16.0947 6.22972 15.9143 5.99941 15.7051 5.7905C15.4991 5.58488 15.2725 5.40728 15.0266 5.25531C15.2717 5.10519 15.4977 4.92946 15.7033 4.72557Z" fill="#292927"/>
</g>
</svg>
