<svg preserveAspectRatio="xMidYMid meet" overflow="visible" style="display: block;" viewBox="0 0 24 24" fill="none" xmlns="http://www.w3.org/2000/svg">
<g transform="translate(3.2499, 3.2500)">
<path id="Vector" fill-rule="evenodd" clip-rule="evenodd" d="M16.9473 10.5265C16.5477 10.4175 16.1354 10.6531 16.0264 11.0527L14.9421 15.0287L11.1358 9.69992L15.0111 2.72449L16.0264 6.44742C16.1354 6.84704 16.5477 7.08265 16.9473 6.97366C17.347 6.86467 17.5826 6.45237 17.4736 6.05275L15.9736 0.552747C15.8723 0.181408 15.5064 -0.0529864 15.1267 0.0102899L9.1267 1.01029C8.71812 1.07839 8.44211 1.46481 8.51021 1.87339C8.5783 2.28196 8.96472 2.55798 9.3733 2.48988L13.839 1.7456L9.8087 9.00009L2.42014 9.00009L5.31056 5.74836C5.58575 5.43877 5.55786 4.96472 5.24827 4.68953C4.93869 4.41434 4.46463 4.44223 4.18944 4.75181L0.189444 9.25181C-0.063148 9.53598 -0.063148 9.96419 0.189444 10.2484L4.18944 14.7484C4.46463 15.0579 4.93869 15.0858 5.24827 14.8106C5.55786 14.5355 5.58575 14.0614 5.31056 13.7518L2.42014 10.5001L9.86404 10.5001L13.6984 15.8682L9.31228 15.5027C8.8995 15.4683 8.53699 15.775 8.50259 16.1878C8.46819 16.6006 8.77493 16.9631 9.18772 16.9975L15.1877 17.4975C15.548 17.5275 15.8784 17.2962 15.9736 16.9474L17.4736 11.4474C17.5826 11.0478 17.347 10.6355 16.9473 10.5265Z" fill="#292927"/>
</g>
</svg>
