<svg preserveAspectRatio="xMidYMid meet" overflow="visible" style="display: block;" viewBox="0 0 24 24" fill="none" xmlns="http://www.w3.org/2000/svg">
<g transform="translate(0.9259, 3.2604)">
<path id="Vector" fill-rule="evenodd" clip-rule="evenodd" d="M9.00835 15.5597C8.51111 16.1191 7.63707 16.1191 7.13983 15.5597L1.81574 9.57006C1.39475 9.09645 1.39475 8.38275 1.81574 7.90915L7.13983 1.91955C7.63707 1.36015 8.51111 1.36015 9.00835 1.91955L10.506 3.60438C10.5105 3.60963 10.5151 3.61483 10.5198 3.61998L14.3324 7.90915C14.7534 8.38275 14.7534 9.09645 14.3324 9.57006L10.5198 13.8593C10.5151 13.8644 10.5105 13.8696 10.506 13.8748L9.00835 15.5597ZM11.0741 15.4935L10.1295 16.5562C9.03554 17.7869 7.11264 17.7869 6.01871 16.5562L0.694624 10.5666C-0.231541 9.52467 -0.231541 7.95454 0.694624 6.9126L6.01871 0.922999C7.11264 -0.307666 9.03554 -0.307666 10.1295 0.922999L11.0741 1.9857L12.0187 0.922999C13.1126 -0.307666 15.0355 -0.307666 16.1295 0.922999L21.4536 6.9126C22.3797 7.95454 22.3797 9.52467 21.4536 10.5666L16.1295 16.5562C15.0355 17.7869 13.1126 17.7869 12.0187 16.5562L11.0741 15.4935ZM12.0776 14.3646L13.1398 15.5597C13.6371 16.1191 14.5111 16.1191 15.0084 15.5597L20.3324 9.57006C20.7534 9.09645 20.7534 8.38275 20.3324 7.90915L15.0084 1.91955C14.5111 1.36015 13.6371 1.36015 13.1398 1.91955L12.0776 3.1146L15.4536 6.9126C16.3797 7.95454 16.3797 9.52467 15.4536 10.5666L12.0776 14.3646Z" fill="#292927"/>
</g>
</svg>
