<svg preserveAspectRatio="xMidYMid meet" overflow="visible" style="display: block;" viewBox="0 0 24 24" fill="none" xmlns="http://www.w3.org/2000/svg">
<g transform="translate(1.2500, 1.2500)">
<path id="Vector" fill-rule="evenodd" clip-rule="evenodd" d="M1.5 10.75C1.5 5.64137 5.64137 1.5 10.75 1.5C15.8586 1.5 20 5.64137 20 10.75C20 15.8586 15.8586 20 10.75 20C5.64137 20 1.5 15.8586 1.5 10.75ZM10.75 0C4.81294 0 0 4.81294 0 10.75C0 16.6871 4.81294 21.5 10.75 21.5C16.6871 21.5 21.5 16.6871 21.5 10.75C21.5 4.81294 16.6871 0 10.75 0ZM10.75 4C11.1642 4 11.5 4.33579 11.5 4.75V6.75C11.5 7.16421 11.1642 7.5 10.75 7.5C10.3358 7.5 10 7.16421 10 6.75V4.75C10 4.33579 10.3358 4 10.75 4ZM10.75 14C11.1642 14 11.5 14.3358 11.5 14.75V16.75C11.5 17.1642 11.1642 17.5 10.75 17.5C10.3358 17.5 10 17.1642 10 16.75V14.75C10 14.3358 10.3358 14 10.75 14ZM6.75 11.5C7.16421 11.5 7.5 11.1642 7.5 10.75C7.5 10.3358 7.16421 10 6.75 10H4.75C4.33579 10 4 10.3358 4 10.75C4 11.1642 4.33579 11.5 4.75 11.5H6.75ZM17.5 10.75C17.5 11.1642 17.1642 11.5 16.75 11.5H14.75C14.3358 11.5 14 11.1642 14 10.75C14 10.3358 14.3358 10 14.75 10H16.75C17.1642 10 17.5 10.3358 17.5 10.75Z" fill="#292927"/>
</g>
</svg>
