<svg preserveAspectRatio="xMidYMid meet" overflow="visible" style="display: block;" viewBox="0 0 24 24" fill="none" xmlns="http://www.w3.org/2000/svg">
<g transform="translate(1.2500, 1.2500)">
<path id="Vector" fill-rule="evenodd" clip-rule="evenodd" d="M20 10.75C20 5.64137 15.8586 1.5 10.75 1.5C5.64137 1.5 1.5 5.64137 1.5 10.75C1.5 15.8586 5.64137 20 10.75 20C15.8586 20 20 15.8586 20 10.75ZM10.75 0C16.6871 0 21.5 4.81294 21.5 10.75C21.5 16.6871 16.6871 21.5 10.75 21.5C4.81294 21.5 0 16.6871 0 10.75C0 4.81294 4.81294 0 10.75 0ZM14.75 7C15.1642 7 15.5 7.33579 15.5 7.75C15.5 8.16421 15.1642 8.5 14.75 8.5H12.75C12.3358 8.5 12 8.16421 12 7.75C12 7.33579 12.3358 7 12.75 7H14.75ZM8.75 7C9.16421 7 9.5 7.33579 9.5 7.75C9.5 8.16421 9.16421 8.5 8.75 8.5H6.75C6.33579 8.5 6 8.16421 6 7.75C6 7.33579 6.33579 7 6.75 7H8.75ZM5.81225 12.6409C5.4759 12.8827 5.41968 13.3375 5.64096 13.6876C5.66562 13.7267 5.68213 13.746 5.70787 13.7761C5.71714 13.7869 5.72761 13.7992 5.74008 13.8142C5.79714 13.8831 5.87867 13.9764 5.98515 14.0857C6.1978 14.304 6.51223 14.5888 6.93249 14.8719C7.77709 15.4409 9.04553 15.9999 10.75 15.9999C12.4544 15.9999 13.7229 15.4409 14.5675 14.8719C14.9877 14.5888 15.3021 14.304 15.5148 14.0857C15.6213 13.9764 15.6694 13.9248 15.7599 13.8142C15.7996 13.7656 15.83 13.7279 15.859 13.6876C16.1007 13.3513 16.024 12.8827 15.6877 12.6409C15.3041 12.3652 14.8772 12.5283 14.6046 12.8575C14.5711 12.898 14.5164 12.961 14.4402 13.0391C14.2876 13.1958 14.0513 13.411 13.7294 13.6279C13.0896 14.0589 12.108 14.4999 10.75 14.4999C9.39192 14.4999 8.41035 14.0589 7.77058 13.6279C7.44866 13.411 7.2123 13.1958 7.05971 13.0391C6.98358 12.961 6.92888 12.898 6.89536 12.8575C6.62275 12.5283 6.19583 12.3652 5.81225 12.6409Z" fill="#292927"/>
</g>
</svg>
