<svg preserveAspectRatio="xMidYMid meet" overflow="visible" style="display: block;" viewBox="0 0 24 24" fill="none" xmlns="http://www.w3.org/2000/svg">
<g transform="translate(2.2500, 1.7495)">
<path id="Vector" fill-rule="evenodd" clip-rule="evenodd" d="M9.31748 1.25173C9.59457 0.943848 9.56961 0.469631 9.26173 0.192536C8.95385 -0.0845583 8.47963 -0.0595998 8.20254 0.248283L8.19254 0.259394C7.91544 0.567276 7.9404 1.04149 8.24828 1.31859C8.55616 1.59568 9.03038 1.57072 9.30748 1.26284L9.31748 1.25173ZM5 2.75098C5 2.33676 5.33579 2.00098 5.75 2.00098H13.75C14.1642 2.00098 14.5 2.33676 14.5 2.75098C14.5 3.16519 14.1642 3.50098 13.75 3.50098H13.5V9.01113C13.5 9.30952 13.6067 9.59806 13.8009 9.82462L18.838 15.7011C19.2652 16.1996 19.5 16.8344 19.5 17.4908V17.751C19.5 19.2698 18.2688 20.501 16.75 20.501H2.75C1.23122 20.501 0 19.2698 0 17.751V17.4908C0 16.8344 0.234828 16.1996 0.662044 15.7011L5.69907 9.82462C5.89326 9.59806 6 9.30952 6 9.01113V3.50098H5.75C5.33579 3.50098 5 3.16519 5 2.75098ZM7.5 3.50098V9.01113C7.5 9.66758 7.26517 10.3024 6.83796 10.8008L4.95209 13.001H14.5479L12.662 10.8008C12.2348 10.3024 12 9.66758 12 9.01113V3.50098H7.5ZM15.8336 14.501H3.66638L1.80093 16.6773C1.60674 16.9039 1.5 17.1924 1.5 17.4908V17.751C1.5 18.4413 2.05964 19.001 2.75 19.001H16.75C17.4404 19.001 18 18.4413 18 17.751V17.4908C18 17.1924 17.8933 16.9039 17.6991 16.6773L15.8336 14.501ZM10.2617 7.19254C10.5696 7.46963 10.5946 7.94385 10.3175 8.25173L10.3075 8.26284C10.0304 8.57072 9.55616 8.59568 9.24828 8.31859C8.9404 8.04149 8.91544 7.56728 9.19254 7.25939L9.20254 7.24828C9.47963 6.9404 9.95385 6.91544 10.2617 7.19254Z" fill="#292927"/>
</g>
</svg>
