<svg preserveAspectRatio="xMidYMid meet" overflow="visible" style="display: block;" viewBox="0 0 24 24" fill="none" xmlns="http://www.w3.org/2000/svg">
<g transform="translate(2.2500, 3.2500)">
<path id="Vector" fill-rule="evenodd" clip-rule="evenodd" d="M0 0.75C0 0.551088 0.0790176 0.360322 0.21967 0.21967C0.360322 0.0790176 0.551088 0 0.75 0H6.75H12.75C13.1642 0 13.5 0.335786 13.5 0.75V2.75C13.5 3.16421 13.1642 3.5 12.75 3.5C12.3358 3.5 12 3.16421 12 2.75V1.5H7.5V12H8.75C9.16421 12 9.5 12.3358 9.5 12.75C9.5 13.1642 9.16421 13.5 8.75 13.5H4.75C4.33579 13.5 4 13.1642 4 12.75C4 12.3358 4.33579 12 4.75 12H6V1.5H1.5V2.75C1.5 3.16421 1.16421 3.5 0.75 3.5C0.335786 3.5 0 3.16421 0 2.75V0.75ZM12.5 12.75C12.5 11.5074 13.5074 10.5 14.75 10.5C15.9926 10.5 17 11.5074 17 12.75C17 13.3705 16.7498 13.9311 16.3431 14.3389C15.9349 14.7481 15.3726 15 14.75 15C13.5074 15 12.5 13.9926 12.5 12.75ZM14.75 9C12.6789 9 11 10.6789 11 12.75C11 14.8211 12.6789 16.5 14.75 16.5C15.514 16.5 16.2253 16.271 16.818 15.8786L18.2197 17.2803C18.5126 17.5732 18.9874 17.5732 19.2803 17.2803C19.5732 16.9874 19.5732 16.5126 19.2803 16.2197L17.8786 14.818C18.271 14.2253 18.5 13.514 18.5 12.75C18.5 10.6789 16.8211 9 14.75 9Z" fill="#292927"/>
</g>
</svg>
