<svg preserveAspectRatio="xMidYMid meet" overflow="visible" style="display: block;" viewBox="0 0 24 24" fill="none" xmlns="http://www.w3.org/2000/svg">
<g transform="translate(3.2500, 3.2500)">
<path id="Vector" fill-rule="evenodd" clip-rule="evenodd" d="M16.2197 0.21967C16.5126 -0.0732234 16.9874 -0.0732234 17.2803 0.21967C17.5732 0.512563 17.5732 0.987437 17.2803 1.28033L12.2803 6.28033C11.9874 6.57322 11.5126 6.57322 11.2197 6.28033L8.75 3.81066L1.28033 11.2803C0.987438 11.5732 0.512564 11.5732 0.219669 11.2803C-0.0732231 10.9874 -0.0732231 10.5126 0.219669 10.2197L8.21967 2.21967C8.51256 1.92678 8.98744 1.92678 9.28033 2.21967L11.75 4.68934L16.2197 0.21967ZM13.2803 8.21967C12.9874 7.92678 12.5126 7.92678 12.2197 8.21967L9.21967 11.2197C8.92678 11.5126 8.92678 11.9874 9.21967 12.2803C9.51256 12.5732 9.98744 12.5732 10.2803 12.2803L12 10.5607V16.75C12 17.1642 12.3358 17.5 12.75 17.5C13.1642 17.5 13.5 17.1642 13.5 16.75V10.5607L15.2197 12.2803C15.5126 12.5732 15.9874 12.5732 16.2803 12.2803C16.5732 11.9874 16.5732 11.5126 16.2803 11.2197L13.2803 8.21967Z" fill="#292927"/>
</g>
</svg>
