<svg preserveAspectRatio="xMidYMid meet" overflow="visible" style="display: block;" viewBox="0 0 24 24" fill="none" xmlns="http://www.w3.org/2000/svg">
<g transform="translate(2.3075, 4.2500)">
<path id="Vector" fill-rule="evenodd" clip-rule="evenodd" d="M0.00576924 1.47346C-0.0668743 0.682454 0.555774 0 1.35011 0H18.0349C18.8292 0 19.4518 0.682452 19.3792 1.47346L18.2037 14.2735C18.1399 14.9683 17.5571 15.5 16.8593 15.5H12.7077C12.1144 15.5 11.5905 15.1125 11.4169 14.5452L9.69248 8.91223L7.96812 14.5452C7.79443 15.1125 7.27062 15.5 6.67725 15.5H2.52562C1.82788 15.5 1.24509 14.9683 1.18128 14.2735L0.00576924 1.47346ZM1.51452 1.5L1.79003 4.5H3.1925C3.88286 4.5 4.4425 3.94036 4.4425 3.25V1.5H1.51452ZM2.66248 14L1.92778 6H3.1925C4.71129 6 5.9425 4.76878 5.9425 3.25V1.5H13.4425V3.25C13.4425 4.76878 14.6737 6 16.1925 6H17.4572L16.7225 14H12.8187L10.9834 8.00462C10.5936 6.73151 8.79134 6.7315 8.40162 8.00462L6.56629 14H2.66248ZM17.5949 4.5L17.8705 1.5H14.9425V3.25C14.9425 3.94036 15.5021 4.5 16.1925 4.5H17.5949Z" fill="#292927"/>
</g>
</svg>
