<svg preserveAspectRatio="xMidYMid meet" overflow="visible" style="display: block;" viewBox="0 0 24 24" fill="none" xmlns="http://www.w3.org/2000/svg">
<g transform="translate(0.7500, 3.2500)">
<path id="Vector" fill-rule="evenodd" clip-rule="evenodd" d="M2.75 1.5C2.05964 1.5 1.5 2.05964 1.5 2.75V10.75C1.5 11.4404 2.05964 12 2.75 12H3V6.75C3 5.23122 4.23122 4 5.75 4H18V2.75C18 2.05964 17.4404 1.5 16.75 1.5H2.75ZM2.75 13.5H3V14.75C3 16.2688 4.23122 17.5 5.75 17.5H19.75C21.2688 17.5 22.5 16.2688 22.5 14.75V6.75C22.5 5.23122 21.2688 4 19.75 4H19.5V2.75C19.5 1.23122 18.2688 0 16.75 0H2.75C1.23122 0 0 1.23122 0 2.75V10.75C0 12.2688 1.23122 13.5 2.75 13.5ZM5.75 5.5H18.75H19.75C20.4404 5.5 21 6.05964 21 6.75V14.75C21 15.4404 20.4404 16 19.75 16H5.75C5.05964 16 4.5 15.4404 4.5 14.75V12.75V6.75C4.5 6.05964 5.05964 5.5 5.75 5.5ZM18.7617 10.1916C19.0696 10.4687 19.0946 10.9429 18.8175 11.2508L18.8075 11.2619C18.5304 11.5697 18.0562 11.5947 17.7483 11.3176C17.4404 11.0405 17.4154 10.5663 17.6925 10.2584L17.7025 10.2473C17.9796 9.93942 18.4538 9.91446 18.7617 10.1916ZM7.81748 11.2508C8.09457 10.9429 8.06961 10.4687 7.76173 10.1916C7.45385 9.91446 6.97963 9.93942 6.70254 10.2473L6.69254 10.2584C6.41544 10.5663 6.4404 11.0405 6.74828 11.3176C7.05616 11.5947 7.53038 11.5697 7.80748 11.2619L7.81748 11.2508ZM14 10.75C14 10.0596 13.4404 9.5 12.75 9.5C12.0596 9.5 11.5 10.0596 11.5 10.75C11.5 11.4404 12.0596 12 12.75 12C13.4404 12 14 11.4404 14 10.75ZM12.75 8C14.2688 8 15.5 9.23122 15.5 10.75C15.5 12.2688 14.2688 13.5 12.75 13.5C11.2312 13.5 10 12.2688 10 10.75C10 9.23122 11.2312 8 12.75 8Z" fill="#292927"/>
</g>
</svg>
