<svg preserveAspectRatio="xMidYMid meet" overflow="visible" style="display: block;" viewBox="0 0 24 24" fill="none" xmlns="http://www.w3.org/2000/svg">
<g transform="translate(0.2500, 2.7500)">
<path id="Vector" fill-rule="evenodd" clip-rule="evenodd" d="M15.5 3.75C15.5 2.50736 16.5074 1.5 17.75 1.5C18.9926 1.5 20 2.50736 20 3.75C20 4.99264 18.9926 6 17.75 6C16.5074 6 15.5 4.99264 15.5 3.75ZM20.2315 6.56156C21.0094 5.87445 21.5 4.86952 21.5 3.75C21.5 1.67893 19.8211 0 17.75 0C15.6789 0 14 1.67893 14 3.75C14 4.86952 14.4906 5.87445 15.2685 6.56157C13.7345 7.29657 12.5771 8.69184 12.1644 10.3793C11.6826 10.0448 11.1611 9.76357 10.6083 9.54412C11.7573 8.67715 12.5 7.30031 12.5 5.75C12.5 3.12665 10.3734 1 7.75 1C5.12665 1 3 3.12665 3 5.75C3 7.30031 3.74271 8.67715 4.89172 9.54412C2.02612 10.6817 0 13.4793 0 16.75V17.75C0 18.1642 0.335786 18.5 0.75 18.5C1.16421 18.5 1.5 18.1642 1.5 17.75V16.75C1.5 13.2982 4.29822 10.5 7.75 10.5C11.2018 10.5 14 13.2982 14 16.75V17.75C14 18.1642 14.3358 18.5 14.75 18.5C15.1642 18.5 15.5 18.1642 15.5 17.75V16.75C15.5 14.7531 14.7447 12.9325 13.5042 11.5585C13.6044 9.30014 15.467 7.5 17.75 7.5C20.0972 7.5 22 9.40279 22 11.75V12.25C22 12.6642 22.3358 13 22.75 13C23.1642 13 23.5 12.6642 23.5 12.25V11.75C23.5 9.46303 22.1649 7.48791 20.2315 6.56156ZM7.75 2.5C5.95507 2.5 4.5 3.95507 4.5 5.75C4.5 7.54493 5.95507 9 7.75 9C9.54493 9 11 7.54493 11 5.75C11 3.95507 9.54493 2.5 7.75 2.5Z" fill="#292927"/>
</g>
</svg>
