<svg preserveAspectRatio="xMidYMid meet" overflow="visible" style="display: block;" viewBox="0 0 24 24" fill="none" xmlns="http://www.w3.org/2000/svg">
<g transform="translate(1.2500, 1.2500)">
<path id="Vector" fill-rule="evenodd" clip-rule="evenodd" d="M20 10.75C20 5.64137 15.8586 1.5 10.75 1.5C5.64137 1.5 1.5 5.64137 1.5 10.75C1.5 15.8586 5.64137 20 10.75 20C15.8586 20 20 15.8586 20 10.75ZM10.75 0C16.6871 0 21.5 4.81294 21.5 10.75C21.5 16.6871 16.6871 21.5 10.75 21.5C4.81294 21.5 0 16.6871 0 10.75C0 4.81294 4.81294 0 10.75 0ZM9.25 5C9.66421 5 10 5.33579 10 5.75V9.70723L11.4454 9.06483C11.8239 8.8966 12.2671 9.06707 12.4354 9.44558C12.6036 9.8241 12.4331 10.2673 12.0546 10.4355L10 11.3487V15H14.25C14.6642 15 15 15.3358 15 15.75C15 16.1642 14.6642 16.5 14.25 16.5H9.85C9.10441 16.5 8.5 15.8956 8.5 15.15V12.0154L7.55461 12.4355C7.17609 12.6038 6.73287 12.4333 6.56465 12.0548C6.39642 11.6763 6.56689 11.2331 6.9454 11.0648L8.5 10.3739V5.75C8.5 5.33579 8.83579 5 9.25 5Z" fill="#292927"/>
</g>
</svg>
