<svg preserveAspectRatio="xMidYMid meet" overflow="visible" style="display: block;" viewBox="0 0 24 24" fill="none" xmlns="http://www.w3.org/2000/svg">
<g transform="translate(1.2500, 2.1353)">
<path id="Vector" fill-rule="evenodd" clip-rule="evenodd" d="M6.92818 5.99401C6.7295 3.93067 8.24111 2.09695 10.3044 1.89827L14.2121 1.522L14.5636 5.17217C14.766 7.27378 13.1864 9.16206 11.0664 9.36619C10.538 9.41707 10.0229 9.35633 9.54535 9.20353C9.74312 8.78206 9.96778 8.35213 10.2199 7.93606C10.5361 7.41421 10.8956 6.91415 11.2993 6.4799C11.5813 6.17654 11.564 5.70198 11.2607 5.41994C10.9573 5.13791 10.4827 5.1552 10.2007 5.45857C9.364 6.35855 8.71552 7.45744 8.23147 8.47301C7.51478 7.8637 7.0243 6.99222 6.92818 5.99401ZM7.6253 9.89992C6.42746 9.04938 5.58655 7.71085 5.43508 6.13778C5.15701 3.24983 7.27273 0.683256 10.1607 0.405178L14.3075 0.00588858C15 -0.0607981 15.6155 0.446579 15.6822 1.13915L16.0567 5.0284C16.3402 7.97289 14.1364 10.5775 11.2102 10.8593C10.4299 10.9344 9.6688 10.8348 8.96826 10.5919C8.82891 10.9717 8.72033 11.3062 8.64109 11.5672C8.58502 11.7519 8.54384 11.8992 8.51701 11.9989C8.50359 12.0488 8.49378 12.0867 8.4875 12.1114L8.48072 12.1384L8.4793 12.1442C8.38231 12.5468 7.97721 12.7953 7.57457 12.6984C7.17184 12.6015 6.92391 12.1965 7.02079 11.7938C7.02075 11.794 7.02079 11.7938 7.74999 11.9692L7.02079 11.7938L7.02123 11.792L7.022 11.7888L7.02455 11.7784L7.03372 11.7419C7.04165 11.7107 7.05322 11.6661 7.06852 11.6092C7.09911 11.4955 7.14465 11.3328 7.20577 11.1315C7.30396 10.8081 7.44288 10.3831 7.6253 9.89992ZM5.5 10.9692C5.5 11.3834 5.16421 11.7192 4.75 11.7192H0.75C0.335786 11.7192 0 11.3834 0 10.9692C0 10.555 0.335786 10.2192 0.75 10.2192H4.75C5.16421 10.2192 5.5 10.555 5.5 10.9692ZM21.5 10.9692C21.5 11.3834 21.1642 11.7192 20.75 11.7192H15.75C15.3358 11.7192 15 11.3834 15 10.9692C15 10.555 15.3358 10.2192 15.75 10.2192H20.75C21.1642 10.2192 21.5 10.555 21.5 10.9692ZM2.31748 19.47C2.59457 19.1621 2.56961 18.6879 2.26173 18.4108C1.95385 18.1337 1.47963 18.1587 1.20254 18.4665L1.19254 18.4776C0.915442 18.7855 0.9404 19.2597 1.24828 19.5368C1.55616 19.8139 2.03038 19.789 2.30748 19.4811L2.31748 19.47ZM5.26173 14.4108C5.56961 14.6879 5.59457 15.1621 5.31748 15.47L5.30748 15.4811C5.03038 15.789 4.55616 15.8139 4.24828 15.5368C3.9404 15.2597 3.91544 14.7855 4.19254 14.4776L4.20254 14.4665C4.47963 14.1587 4.95385 14.1337 5.26173 14.4108ZM8.31748 19.47C8.59457 19.1621 8.56961 18.6879 8.26173 18.4108C7.95385 18.1337 7.47963 18.1587 7.20254 18.4665L7.19254 18.4776C6.91544 18.7855 6.9404 19.2597 7.24828 19.5368C7.55616 19.8139 8.03038 19.789 8.30748 19.4811L8.31748 19.47ZM11.2617 14.4108C11.5696 14.6879 11.5946 15.1621 11.3175 15.47L11.3075 15.4811C11.0304 15.789 10.5562 15.8139 10.2483 15.5368C9.9404 15.2597 9.91544 14.7855 10.1925 14.4776L10.2025 14.4665C10.4796 14.1587 10.9538 14.1337 11.2617 14.4108ZM14.3175 19.47C14.5946 19.1621 14.5696 18.6879 14.2617 18.4108C13.9538 18.1337 13.4796 18.1587 13.2025 18.4665L13.1925 18.4776C12.9154 18.7855 12.9404 19.2597 13.2483 19.5368C13.5562 19.8139 14.0304 19.789 14.3075 19.4811L14.3175 19.47ZM17.2617 14.4108C17.5696 14.6879 17.5946 15.1621 17.3175 15.47L17.3075 15.4811C17.0304 15.789 16.5562 15.8139 16.2483 15.5368C15.9404 15.2597 15.9154 14.7855 16.1925 14.4776L16.2025 14.4665C16.4796 14.1587 16.9538 14.1337 17.2617 14.4108ZM20.3175 19.47C20.5946 19.1621 20.5696 18.6879 20.2617 18.4108C19.9538 18.1337 19.4796 18.1587 19.2025 18.4665L19.1925 18.4776C18.9154 18.7855 18.9404 19.2597 19.2483 19.5368C19.5562 19.8139 20.0304 19.789 20.3075 19.4811L20.3175 19.47Z" fill="#292927"/>
</g>
</svg>
