<svg preserveAspectRatio="xMidYMid meet" overflow="visible" style="display: block;" viewBox="0 0 24 24" fill="none" xmlns="http://www.w3.org/2000/svg">
<g transform="translate(1.2500, 2.2500)">
<path id="Vector" fill-rule="evenodd" clip-rule="evenodd" d="M6.75 1.5C3.85051 1.5 1.5 3.85051 1.5 6.75V12.75C1.5 15.6495 3.85051 18 6.75 18H14.75C17.6495 18 20 15.6495 20 12.75V6.75C20 3.85051 17.6495 1.5 14.75 1.5H6.75ZM0 6.75C0 3.02208 3.02208 0 6.75 0H14.75C18.4779 0 21.5 3.02208 21.5 6.75V12.75C21.5 16.4779 18.4779 19.5 14.75 19.5H6.75C3.02208 19.5 0 16.4779 0 12.75V6.75ZM17.2058 13.8457C16.8769 14.0974 16.4062 14.0348 16.1544 13.7059L14.2367 11.2001H12.5V13.2501C12.5 13.6643 12.1642 14.0001 11.75 14.0001C11.3358 14.0001 11 13.6643 11 13.2501V6.25008C11 5.83587 11.3358 5.50008 11.75 5.50008H14.6072L14.6437 5.50004C14.9889 5.4995 15.7013 5.49839 16.3266 5.86607C17.0612 6.29802 17.5 7.11073 17.5 8.35008C17.5 9.58943 17.0612 10.4021 16.3266 10.8341C16.2112 10.902 16.0928 10.9573 15.9742 11.0023L17.3456 12.7943C17.5974 13.1232 17.5348 13.5939 17.2058 13.8457ZM12.5 9.70008H14.6072C14.9921 9.70008 15.3217 9.6849 15.5663 9.54107C15.7245 9.44802 16 9.21073 16 8.35008C16 7.48943 15.7245 7.25215 15.5663 7.1591C15.3217 7.01526 14.9921 7.00008 14.6072 7.00008H12.5V9.70008ZM7.43937 5.95456C7.32118 5.6788 7.05003 5.5 6.75001 5.5C6.44999 5.5 6.17883 5.6788 6.06065 5.95456L3.06065 12.9546C2.89748 13.3353 3.07385 13.7762 3.45457 13.9394C3.83529 14.1025 4.2762 13.9262 4.43937 13.5454L5.31598 11.5H8.18403L9.06065 13.5454C9.22382 13.9262 9.66473 14.1025 10.0454 13.9394C10.4262 13.7762 10.6025 13.3353 10.4394 12.9546L7.43937 5.95456ZM6.75001 8.15394L7.54118 10H5.95884L6.75001 8.15394Z" fill="#292927"/>
</g>
</svg>
