<svg preserveAspectRatio="xMidYMid meet" overflow="visible" style="display: block;" viewBox="0 0 24 24" fill="none" xmlns="http://www.w3.org/2000/svg">
<g transform="translate(1.7500, 3.7500)">
<path id="Vector" fill-rule="evenodd" clip-rule="evenodd" d="M20.2216 0.166826C20.4318 0.336785 20.5343 0.606689 20.4898 0.873308L17.9898 15.8733C17.9477 16.1259 17.7796 16.3396 17.544 16.44C17.3084 16.5404 17.0379 16.5136 16.8265 16.369L11.0913 12.4449L8.28266 15.278C8.06867 15.4939 7.74558 15.5592 7.46452 15.4435C7.18347 15.3278 7.00003 15.0539 7.00003 14.75V9.90048L0.643966 8.99247C0.307131 8.94435 0.0448924 8.67551 0.00516253 8.33758C-0.0345673 7.99966 0.158168 7.67732 0.474657 7.55239L19.4747 0.0523926C19.7261 -0.0468513 20.0114 -0.00313324 20.2216 0.166826ZM8.50003 10.6719L9.8328 11.5838L8.50003 12.9282V10.6719ZM11.4332 10.8613C11.4256 10.8559 11.4179 10.8506 11.4101 10.8455L9.06262 9.23935L18.7142 2.4028L16.7035 14.4673L11.4332 10.8613ZM14.248 3.72817L3.65916 7.90798L7.56033 8.46529L14.248 3.72817Z" fill="#292927"/>
</g>
</svg>
