<svg preserveAspectRatio="xMidYMid meet" overflow="visible" style="display: block;" viewBox="0 0 24 24" fill="none" xmlns="http://www.w3.org/2000/svg">
<g transform="translate(4.2500, 1.7499)">
<path id="Vector" fill-rule="evenodd" clip-rule="evenodd" d="M9.83337 0.75C9.83337 0.335786 9.49759 0 9.08337 0C8.66916 0 8.33337 0.335786 8.33337 0.75V3.38477H3.16663V0.75C3.16663 0.335786 2.83084 0 2.41663 0C2.00241 0 1.66663 0.335786 1.66663 0.75V3.60639C0.686507 4.02691 0 5.00067 0 6.13477V8.904C0 10.4228 1.23122 11.654 2.75 11.654H5V18.7505C5 19.1647 5.33579 19.5005 5.75 19.5005C6.16421 19.5005 6.5 19.1647 6.5 18.7505V11.654H8.75C10.2688 11.654 11.5 10.4228 11.5 8.904V6.13477C11.5 5.00067 10.8135 4.02691 9.83337 3.60639V0.75ZM2.75 4.88477C2.05964 4.88477 1.5 5.44441 1.5 6.13477V8.904C1.5 9.59435 2.05964 10.154 2.75 10.154H8.75C9.44036 10.154 10 9.59435 10 8.904V6.13477C10 5.44441 9.44036 4.88477 8.75 4.88477H2.75ZM13.0723 14.1144C13.2734 13.7523 13.143 13.2957 12.7809 13.0945C12.4188 12.8934 11.9622 13.0238 11.761 13.3859L10.0944 16.3859C9.96533 16.6182 9.96883 16.9014 10.1036 17.1305C10.2384 17.3595 10.4843 17.5001 10.75 17.5001H13.4754L12.4277 19.3859C12.2266 19.748 12.357 20.2046 12.7191 20.4058C13.0812 20.6069 13.5378 20.4765 13.739 20.1144L15.4056 17.1144C15.5347 16.8821 15.5312 16.5988 15.3964 16.3698C15.2616 16.1408 15.0157 16.0001 14.75 16.0001H12.0246L13.0723 14.1144Z" fill="#292927"/>
</g>
</svg>
