<svg preserveAspectRatio="xMidYMid meet" overflow="visible" style="display: block;" viewBox="0 0 24 24" fill="none" xmlns="http://www.w3.org/2000/svg">
<g transform="translate(3.5100, 3.5000)">
<path id="Vector" fill-rule="evenodd" clip-rule="evenodd" d="M1.57137 3.21373C1.43793 4.53666 1.46253 5.98136 1.90877 6.93105C2.32285 7.81228 3.31102 8.71844 4.29873 9.4434C4.77684 9.79433 5.22653 10.0827 5.55675 10.2832C5.61909 10.3211 5.67704 10.3557 5.72997 10.387C5.7829 10.3557 5.84086 10.3211 5.9032 10.2832C6.23342 10.0827 6.68311 9.79433 7.16122 9.4434C8.14893 8.71844 9.1371 7.81228 9.55117 6.93105C9.99741 5.98136 10.022 4.53666 9.88858 3.21373C9.82402 2.57372 9.72692 2.00038 9.64581 1.58694L9.62853 1.5H1.83142L1.81414 1.58694C1.73303 2.00038 1.63592 2.57372 1.57137 3.21373ZM0.503556 0.563405C0.588729 0.231823 0.887626 0 1.22997 0H10.23C10.5723 0 10.8712 0.231823 10.9564 0.563405L10.9569 0.565236L10.9577 0.568602L10.9606 0.579869L10.9705 0.620068C10.9789 0.654526 10.9907 0.704092 11.0052 0.767262C11.0342 0.893548 11.0739 1.07454 11.1178 1.29816C11.2053 1.74449 11.3106 2.36539 11.381 3.0632C11.5174 4.41592 11.542 6.22121 10.9088 7.56895C10.3229 8.81577 9.06109 9.90961 8.04878 10.6526C7.52688 11.0357 7.03906 11.3484 6.68177 11.5653C6.60897 11.6095 6.54144 11.6498 6.47997 11.6861V15.4997H8.72997C9.14419 15.4997 9.47997 15.8355 9.47997 16.2497C9.47997 16.664 9.14419 16.9997 8.72997 16.9997H2.72997C2.31576 16.9997 1.97997 16.664 1.97997 16.2497C1.97997 15.8355 2.31576 15.4997 2.72997 15.4997H4.97997L4.97997 11.6861C4.9185 11.6498 4.85097 11.6095 4.77818 11.5653C4.42089 11.3484 3.93306 11.0357 3.41117 10.6526C2.39885 9.90961 1.13703 8.81577 0.551174 7.56895C-0.0821015 6.22121 -0.0574999 4.41592 0.0789419 3.0632C0.149326 2.36539 0.254634 1.74449 0.342196 1.29816C0.386068 1.07454 0.42572 0.893548 0.454709 0.767262C0.469211 0.704092 0.481063 0.654526 0.489467 0.620068L0.499391 0.579869L0.50223 0.568602L0.503087 0.565236L0.503556 0.563405ZM13.73 17C13.3158 17 12.98 16.6642 12.98 16.25V8.25C12.98 7.94351 13.1665 7.66788 13.4509 7.55385L13.4637 7.54845C13.4765 7.54299 13.4975 7.53384 13.5256 7.52102C13.5818 7.49532 13.6656 7.45517 13.7677 7.40073C13.9736 7.2909 14.2446 7.12787 14.5115 6.91435C15.0652 6.47139 15.48 5.91383 15.48 5.25V0.750782C15.48 0.336569 15.8158 0 16.23 0C16.6442 0 16.98 0.335817 16.98 0.750031V5.25C16.98 6.58617 16.1448 7.52861 15.4485 8.08565C15.0933 8.3698 14.7421 8.58065 14.48 8.72083V16.25C14.48 16.6642 14.1442 17 13.73 17ZM13.73 5.5C13.3158 5.5 12.98 5.16421 12.98 4.75V0.75C12.98 0.335786 13.3158 0 13.73 0C14.1442 0 14.48 0.335786 14.48 0.75V4.75C14.48 5.16421 14.1442 5.5 13.73 5.5Z" fill="#292927"/>
</g>
</svg>
