<svg preserveAspectRatio="xMidYMid meet" overflow="visible" style="display: block;" viewBox="0 0 24 24" fill="none" xmlns="http://www.w3.org/2000/svg">
<g transform="translate(1.2500, 2.2500)">
<path id="Vector" fill-rule="evenodd" clip-rule="evenodd" d="M18.5 2.75V7.00947C20.1781 7.13713 21.5 8.53919 21.5 10.25C21.5 11.6025 20.6744 12.7609 19.5 13.2507V15.75V18.75C19.5 19.1642 19.1642 19.5 18.75 19.5C18.3358 19.5 18 19.1642 18 18.75V16.5H3.5V18.75C3.5 19.1642 3.16421 19.5 2.75 19.5C2.33579 19.5 2 19.1642 2 18.75V15.75V13.2507C0.825574 12.7609 0 11.6025 0 10.25C0 8.53919 1.32189 7.13713 3 7.00947V2.75C3 1.23122 4.23122 0 5.75 0H15.75C17.2688 0 18.5 1.23122 18.5 2.75ZM6.5 10.25C6.5 8.89802 5.67448 7.73886 4.5 7.24908V2.75C4.5 2.05964 5.05964 1.5 5.75 1.5H15.75C16.4404 1.5 17 2.05964 17 2.75V7.24908C15.8255 7.73886 15 8.89802 15 10.25V11H6.5V10.25ZM3.25 8.5C2.2835 8.5 1.5 9.2835 1.5 10.25C1.5 11.0958 2.10073 11.8029 2.8992 11.965C3.24877 12.0359 3.5 12.3433 3.5 12.7V15H18V12.7C18 12.3433 18.2512 12.0359 18.6008 11.965C19.3993 11.8029 20 11.0958 20 10.25C20 9.2835 19.2165 8.5 18.25 8.5C17.2835 8.5 16.5 9.2835 16.5 10.25V11.75C16.5 12.1642 16.1642 12.5 15.75 12.5H5.75C5.33579 12.5 5 12.1642 5 11.75V10.25C5 9.2835 4.2165 8.5 3.25 8.5Z" fill="#292927"/>
</g>
</svg>
