<svg preserveAspectRatio="xMidYMid meet" overflow="visible" style="display: block;" viewBox="0 0 24 24" fill="none" xmlns="http://www.w3.org/2000/svg">
<g transform="translate(1.2500, 2.2500)">
<path id="Vector" fill-rule="evenodd" clip-rule="evenodd" d="M8.75 0C9.16421 0 9.5 0.335786 9.5 0.75V9.75V18.75C9.5 19.1642 9.16421 19.5 8.75 19.5C8.33579 19.5 8 19.1642 8 18.75V10.5H2.56066L4.78033 12.7197C5.07322 13.0126 5.07322 13.4874 4.78033 13.7803C4.48744 14.0732 4.01256 14.0732 3.71967 13.7803L0.21967 10.2803C0.147763 10.2084 0.0935089 10.1255 0.0569091 10.0371C0.0202391 9.94866 0 9.85169 0 9.75C0 9.64831 0.0202391 9.55134 0.0569091 9.46291C0.0935089 9.37445 0.147763 9.29158 0.21967 9.21967L3.71967 5.71967C4.01256 5.42678 4.48744 5.42678 4.78033 5.71967C5.07322 6.01256 5.07322 6.48744 4.78033 6.78033L2.56066 9H8V0.75C8 0.335786 8.33579 0 8.75 0ZM16.7197 6.78033C16.4268 6.48744 16.4268 6.01256 16.7197 5.71967C17.0126 5.42678 17.4874 5.42678 17.7803 5.71967L21.2803 9.21967C21.3522 9.29158 21.4065 9.37445 21.4431 9.46291C21.4798 9.55134 21.5 9.64831 21.5 9.75C21.5 9.85169 21.4798 9.94866 21.4431 10.0371C21.4065 10.1255 21.3522 10.2084 21.2803 10.2803L17.7803 13.7803C17.4874 14.0732 17.0126 14.0732 16.7197 13.7803C16.4268 13.4874 16.4268 13.0126 16.7197 12.7197L18.9393 10.5H13.5V18.75C13.5 19.1642 13.1642 19.5 12.75 19.5C12.3358 19.5 12 19.1642 12 18.75V9.75V0.75C12 0.335786 12.3358 0 12.75 0C13.1642 0 13.5 0.335786 13.5 0.75V9H18.9393L16.7197 6.78033Z" fill="#292927"/>
</g>
</svg>
