<svg preserveAspectRatio="xMidYMid meet" overflow="visible" style="display: block;" viewBox="0 0 24 24" fill="none" xmlns="http://www.w3.org/2000/svg">
<g transform="translate(2.6234, 2.2500)">
<path id="Vector" fill-rule="evenodd" clip-rule="evenodd" d="M9.74436 0H9.21094L9.18757 0.00146103C6.75742 0.153368 4.47085 1.2045 2.77331 2.95008C1.07577 4.69566 0.0888468 7.01067 0.00480379 9.44411L0.00471999 9.44667C-0.0359212 10.7524 0.186232 12.0529 0.657987 13.2711C1.12974 14.4892 1.84148 15.6002 2.75093 16.5379C3.66038 17.4756 4.749 18.2211 5.95214 18.7299C7.1551 19.2387 8.44801 19.5006 9.75413 19.5C10.342 19.5006 10.9286 19.4465 11.5064 19.3383C11.8533 19.2788 12.184 19.1478 12.4777 18.9537C12.7717 18.7592 13.0221 18.5057 13.2129 18.2093C13.4256 17.8866 13.5719 17.5247 13.6433 17.1448C13.7146 16.7654 13.7097 16.3756 13.6288 15.9981C13.5475 15.587 13.5058 15.169 13.5044 14.7498C13.5081 13.5474 13.8586 12.3715 14.5139 11.3632C15.1696 10.3543 16.1026 9.55617 17.2008 9.06457L17.2061 9.06216C17.5284 8.91489 17.8179 8.70446 18.0574 8.44334C18.297 8.18221 18.4818 7.87568 18.6008 7.5419L18.6444 7.41972V7.38522C18.8329 6.73513 18.7754 6.03643 18.4798 5.42399L18.4762 5.41667C17.6694 3.79042 16.4245 2.42173 14.8818 1.46474C13.3392 0.507744 11.5598 0.000455499 9.74436 0ZM3.84867 3.99584C5.28105 2.52292 7.20862 1.6338 9.25828 1.5H9.74436C11.2804 1.50042 12.7858 1.92966 14.0911 2.73939C15.3952 3.54835 16.4477 4.70498 17.1305 6.07924C17.2723 6.37534 17.292 6.71543 17.1852 7.02599L17.1458 7.1404C17.0964 7.24576 17.0311 7.34321 16.9521 7.42929C16.8487 7.542 16.7239 7.63295 16.5849 7.69681C15.2244 8.30651 14.0686 9.2957 13.2562 10.5458C12.4431 11.7968 12.0084 13.2559 12.0044 14.748L12.0044 14.7524C12.006 15.2707 12.0576 15.7878 12.1586 16.2962L12.1614 16.3089C12.2012 16.4928 12.2039 16.6829 12.1691 16.8679C12.1344 17.0528 12.0629 17.229 11.9589 17.3859L11.9527 17.3956C11.8744 17.5179 11.7715 17.6224 11.6504 17.7024C11.5293 17.7825 11.3928 17.8362 11.2497 17.8603L11.2358 17.8629C10.7476 17.9546 10.2519 18.0005 9.75518 18H9.75399C8.64865 18.0005 7.55447 17.7789 6.53642 17.3484C5.51838 16.9178 4.59724 16.2871 3.82771 15.4936C3.05817 14.7001 2.45594 13.7601 2.05676 12.7294C1.65773 11.699 1.46975 10.599 1.50395 9.49461C1.57544 7.4341 2.41125 5.47394 3.84867 3.99584ZM5.95224 14.2508C6.22934 13.9429 6.20438 13.4687 5.8965 13.1916C5.58861 12.9145 5.1144 12.9394 4.8373 13.2473L4.8273 13.2584C4.55021 13.5663 4.57517 14.0405 4.88305 14.3176C5.19093 14.5947 5.66515 14.5697 5.94224 14.2619L5.95224 14.2508ZM3.8965 9.19156C4.20438 9.46865 4.22934 9.94287 3.95224 10.2508L3.94224 10.2619C3.66515 10.5697 3.19093 10.5947 2.88305 10.3176C2.57517 10.0405 2.55021 9.5663 2.8273 9.25842L2.8373 9.24731C3.1144 8.93942 3.58861 8.91446 3.8965 9.19156ZM5.95224 6.25075C6.22934 5.94287 6.20438 5.46865 5.8965 5.19156C5.58861 4.91446 5.1144 4.93942 4.8373 5.24731L4.8273 5.25842C4.55021 5.5663 4.57517 6.04052 4.88305 6.31761C5.19093 6.59471 5.66515 6.56975 5.94224 6.26186L5.95224 6.25075ZM9.8965 3.19156C10.2044 3.46865 10.2293 3.94287 9.95224 4.25075L9.94224 4.26186C9.66515 4.56975 9.19093 4.59471 8.88305 4.31761C8.57517 4.04052 8.55021 3.5663 8.8273 3.25842L8.8373 3.24731C9.1144 2.93942 9.58861 2.91447 9.8965 3.19156ZM13.9522 6.25075C14.2293 5.94287 14.2044 5.46865 13.8965 5.19156C13.5886 4.91446 13.1144 4.93942 12.8373 5.24731L12.8273 5.25842C12.5502 5.5663 12.5752 6.04052 12.883 6.31761C13.1909 6.59471 13.6651 6.56975 13.9422 6.26186L13.9522 6.25075Z" fill="#292927"/>
</g>
</svg>
