<svg preserveAspectRatio="xMidYMid meet" overflow="visible" style="display: block;" viewBox="0 0 24 24" fill="none" xmlns="http://www.w3.org/2000/svg">
<g transform="translate(1.2500, 1.2500)">
<path id="Vector" fill-rule="evenodd" clip-rule="evenodd" d="M10.75 1.5C5.64137 1.5 1.5 5.64137 1.5 10.75C1.5 15.8586 5.64137 20 10.75 20C15.8586 20 20 15.8586 20 10.75C20 5.64137 15.8586 1.5 10.75 1.5ZM0 10.75C0 4.81294 4.81294 0 10.75 0C16.6871 0 21.5 4.81294 21.5 10.75C21.5 16.6871 16.6871 21.5 10.75 21.5C4.81294 21.5 0 16.6871 0 10.75ZM15.1859 6.64122C15.5222 6.39934 15.9908 6.47583 16.2327 6.81208C16.3629 6.99301 16.4843 7.18069 16.5965 7.37451C16.8039 7.73306 16.6813 8.19185 16.3228 8.39926C15.9642 8.60667 15.5055 8.48415 15.298 8.1256C15.2109 7.97489 15.1164 7.82887 15.0151 7.68803C14.7732 7.35178 14.8497 6.88311 15.1859 6.64122ZM17.2873 12.4371C17.3905 12.036 17.1491 11.6271 16.7479 11.5239C16.3468 11.4206 15.9379 11.6621 15.8346 12.0632C15.3601 13.907 13.9068 15.3603 12.0631 15.8348C11.6619 15.9381 11.4204 16.347 11.5237 16.7481C11.6269 17.1492 12.0358 17.3907 12.4369 17.2875C14.81 16.6767 16.6765 14.8102 17.2873 12.4371Z" fill="#292927"/>
</g>
</svg>
