<svg preserveAspectRatio="xMidYMid meet" overflow="visible" style="display: block;" viewBox="0 0 24 24" fill="none" xmlns="http://www.w3.org/2000/svg">
<g transform="translate(1.7461, 1.2500)">
<path id="Vector" fill-rule="evenodd" clip-rule="evenodd" d="M5.75781 0C5.3436 0 5.00781 0.335786 5.00781 0.75C5.00781 1.16421 5.3436 1.5 5.75781 1.5H14.9472L19.0078 5.56066V17.75C19.0078 18.1642 19.3436 18.5 19.7578 18.5C20.172 18.5 20.5078 18.1642 20.5078 17.75V5.25C20.5078 5.05109 20.4288 4.86032 20.2881 4.71967L15.7881 0.21967C15.6475 0.0790176 15.4567 0 15.2578 0H5.75781ZM4.5 14.75C4.5 14.3358 4.16421 14 3.75 14C3.33579 14 3 14.3358 3 14.75V17H0.75C0.335786 17 0 17.3358 0 17.75C0 18.1642 0.335786 18.5 0.75 18.5H3V20.75C3 21.1642 3.33579 21.5 3.75 21.5C4.16421 21.5 4.5 21.1642 4.5 20.75V18.5H6.75C7.16421 18.5 7.5 18.1642 7.5 17.75C7.5 17.3358 7.16421 17 6.75 17H4.5V14.75ZM1.00781 5.25C1.00781 4.00736 2.01517 3 3.25781 3H12.7578H13.0093C13.3673 3 13.7107 3.14223 13.9639 3.39541L17.1124 6.54393C17.3656 6.79711 17.5078 7.14049 17.5078 7.49853V7.75V19.25C17.5078 20.4926 16.5005 21.5 15.2578 21.5H9.75781C9.3436 21.5 9.00781 21.1642 9.00781 20.75C9.00781 20.3358 9.3436 20 9.75781 20H15.2578C15.672 20 16.0078 19.6642 16.0078 19.25V8.5H13.3578C12.6122 8.5 12.0078 7.89558 12.0078 7.15V4.5H3.25781C2.8436 4.5 2.50781 4.83579 2.50781 5.25V11.75C2.50781 12.1642 2.17203 12.5 1.75781 12.5C1.3436 12.5 1.00781 12.1642 1.00781 11.75V5.25ZM13.5078 5.06066V7H15.4472L13.5078 5.06066Z" fill="#292927"/>
</g>
</svg>
