<svg preserveAspectRatio="xMidYMid meet" overflow="visible" style="display: block;" viewBox="0 0 24 24" fill="none" xmlns="http://www.w3.org/2000/svg">
<g transform="translate(2.2500, 1.2500)">
<path id="Vector" fill-rule="evenodd" clip-rule="evenodd" d="M0.75 7.5C0.335786 7.5 0 7.16421 0 6.75V4.75C0 2.12665 2.12665 0 4.75 0H14.75C17.3734 0 19.5 2.12665 19.5 4.75V6.75C19.5 7.16421 19.1642 7.5 18.75 7.5C18.3358 7.5 18 7.16421 18 6.75V4.75C18 2.95507 16.5449 1.5 14.75 1.5H4.75C2.95507 1.5 1.5 2.95507 1.5 4.75V6.75C1.5 7.16421 1.16421 7.5 0.75 7.5ZM1.5 17.75C1.5 18.9926 2.50736 20 3.75 20H15.75C16.9926 20 18 18.9926 18 17.75V15.75C18 14.5074 16.9926 13.5 15.75 13.5H9.75H3.75C2.50736 13.5 1.5 14.5074 1.5 15.75V17.75ZM9 12H3.75C1.67893 12 0 13.6789 0 15.75V17.75C0 19.8211 1.67893 21.5 3.75 21.5H15.75C17.8211 21.5 19.5 19.8211 19.5 17.75V15.75C19.5 13.6789 17.8211 12 15.75 12H10.5V6.56066L12.2197 8.28033C12.5126 8.57322 12.9874 8.57322 13.2803 8.28033C13.5732 7.98744 13.5732 7.51256 13.2803 7.21967L10.2803 4.21967C9.98744 3.92678 9.51256 3.92678 9.21967 4.21967L6.21967 7.21967C5.92678 7.51256 5.92678 7.98744 6.21967 8.28033C6.51256 8.57322 6.98744 8.57322 7.28033 8.28033L9 6.56066V12Z" fill="#292927"/>
</g>
</svg>
