<svg preserveAspectRatio="xMidYMid meet" overflow="visible" style="display: block;" viewBox="0 0 24 24" fill="none" xmlns="http://www.w3.org/2000/svg">
<g transform="translate(3.2500, 3.2500)">
<path id="Vector" fill-rule="evenodd" clip-rule="evenodd" d="M15.75 6.5C16.1642 6.5 16.5 6.16421 16.5 5.75C16.5 5.33579 16.1642 5 15.75 5H13.5607L17.2803 1.28033C17.5732 0.987437 17.5732 0.512563 17.2803 0.21967C16.9874 -0.0732232 16.5126 -0.0732232 16.2197 0.21967L12.5 3.93934V1.75C12.5 1.33579 12.1642 1 11.75 1C11.3358 1 11 1.33579 11 1.75V5.75C11 6.16421 11.3358 6.5 11.75 6.5H15.75ZM1.75 11C1.33579 11 1 11.3358 1 11.75C1 12.1642 1.33579 12.5 1.75 12.5H3.93934L0.21967 16.2197C-0.0732233 16.5126 -0.0732233 16.9874 0.21967 17.2803C0.512563 17.5732 0.987437 17.5732 1.28033 17.2803L5 13.5607V15.75C5 16.1642 5.33579 16.5 5.75 16.5C6.16421 16.5 6.5 16.1642 6.5 15.75V11.75C6.5 11.3358 6.16421 11 5.75 11H1.75Z" fill="#292927"/>
</g>
</svg>
