<svg preserveAspectRatio="xMidYMid meet" overflow="visible" style="display: block;" viewBox="0 0 24 24" fill="none" xmlns="http://www.w3.org/2000/svg">
<g transform="translate(3.2500, 3.2500)">
<path id="Vector" fill-rule="evenodd" clip-rule="evenodd" d="M4.5 0.75C4.5 0.335786 4.16421 0 3.75 0C3.33579 0 3 0.335786 3 0.75V1.75C3 2.16421 3.33579 2.5 3.75 2.5C4.16421 2.5 4.5 2.16421 4.5 1.75V0.75ZM4.5 5.75C4.5 5.33579 4.16421 5 3.75 5C3.33579 5 3 5.33579 3 5.75V6.75C3 7.16421 3.33579 7.5 3.75 7.5C4.16421 7.5 4.5 7.16421 4.5 6.75V5.75ZM13.2197 0.21967C13.5126 -0.0732232 13.9874 -0.0732232 14.2803 0.21967L17.2803 3.21967C17.5732 3.51256 17.5732 3.98744 17.2803 4.28033C16.9874 4.57322 16.5126 4.57322 16.2197 4.28033L14.5 2.56066V16.75C14.5 17.1642 14.1642 17.5 13.75 17.5C13.3358 17.5 13 17.1642 13 16.75V2.56066L11.2803 4.28033C10.9874 4.57322 10.5126 4.57322 10.2197 4.28033C9.92678 3.98744 9.92678 3.51256 10.2197 3.21967L13.2197 0.21967ZM7.28033 14.2803L4.28033 17.2803C3.98744 17.5732 3.51256 17.5732 3.21967 17.2803L0.21967 14.2803C-0.0732233 13.9874 -0.0732233 13.5126 0.21967 13.2197C0.512563 12.9268 0.987437 12.9268 1.28033 13.2197L3 14.9393V10.75C3 10.3358 3.33579 10 3.75 10C4.16421 10 4.5 10.3358 4.5 10.75V14.9393L6.21967 13.2197C6.51256 12.9268 6.98744 12.9268 7.28033 13.2197C7.57322 13.5126 7.57322 13.9874 7.28033 14.2803Z" fill="#292927"/>
</g>
</svg>
