<svg preserveAspectRatio="xMidYMid meet" overflow="visible" style="display: block;" viewBox="0 0 24 24" fill="none" xmlns="http://www.w3.org/2000/svg">
<g transform="translate(1.2500, 1.2500)">
<path id="Vector" fill-rule="evenodd" clip-rule="evenodd" d="M1.5346 9.94429C1.51751 10.1424 1.50666 10.3424 1.50225 10.5439L1.50633 10.5454L7.00633 12.5454C7.37634 12.6799 7.57933 13.0777 7.47116 13.4562L6.53491 16.7331L7.41772 19.3816C8.4516 19.781 9.57522 20 10.75 20C12.2563 20 13.6786 19.6399 14.9354 19.0012L14.5942 17.2955L12.4715 16.4464C12.1867 16.3325 12 16.0567 12 15.75V12.25C12 11.9272 12.2066 11.6406 12.5128 11.5385L15.5128 10.5385C15.6158 10.5042 15.725 10.4926 15.8328 10.5046L19.9975 10.9673C19.9992 10.8951 20 10.8226 20 10.75C20 10.4785 19.9883 10.2097 19.9654 9.94413C19.9483 9.93711 19.9314 9.92941 19.9146 9.92102L18.0729 9.0002H16.3944L14.0285 9.94656C13.7975 10.039 13.5356 10.0108 13.3295 9.87125C13.1234 9.73173 13 9.49907 13 9.2502V6.2502C13 5.87697 13.2744 5.56052 13.6439 5.50774L16.6851 5.07329L17.0385 4.01303C17.0424 4.00121 17.0466 3.98955 17.0511 3.97805C15.3994 2.44053 13.1845 1.5 10.75 1.5C9.84687 1.5 8.97398 1.62943 8.14885 1.87075L8.92085 3.41475C9.04121 3.65548 9.02336 3.94225 8.87407 4.16619L6.87407 7.16619C6.76373 7.33169 6.59216 7.44659 6.39711 7.4856L4.07605 7.94981L1.71855 9.83582C1.66123 9.88167 1.59924 9.91775 1.5346 9.94429ZM2.02537 7.66942L3.28151 6.66451C3.37514 6.58961 3.48536 6.53824 3.60294 6.51473L5.79831 6.07565L7.38456 3.69628L6.74196 2.41108C4.55257 3.46532 2.84208 5.35639 2.02537 7.66942ZM18.2013 5.26803C18.823 6.11171 19.3049 7.06478 19.6127 8.09305L18.5854 7.57938C18.4813 7.52731 18.3664 7.5002 18.25 7.5002H16.25C16.1546 7.5002 16.06 7.51841 15.9715 7.55385L14.5 8.14243V6.90067L17.3561 6.49267C17.6373 6.45249 17.8717 6.25688 17.9615 5.98737L18.2013 5.26803ZM19.8424 12.4593L15.8309 12.0136L13.5 12.7906V15.2422L15.5285 16.0536C15.7639 16.1478 15.9357 16.3544 15.9854 16.6029L16.2956 18.1539C18.1111 16.792 19.4092 14.7779 19.8424 12.4593ZM5.49782 18.3653C3.45425 16.9532 2.00683 14.7397 1.60972 12.1791L5.83687 13.7162L5.02888 16.5442C4.98735 16.6895 4.99071 16.844 5.03851 16.9874L5.49782 18.3653ZM0 10.75C0 4.81294 4.81294 0 10.75 0C16.6871 0 21.5 4.81294 21.5 10.75C21.5 16.6871 16.6871 21.5 10.75 21.5C4.81294 21.5 0 16.6871 0 10.75Z" fill="#292927"/>
</g>
</svg>
