<svg preserveAspectRatio="xMidYMid meet" overflow="visible" style="display: block;" viewBox="0 0 24 24" fill="none" xmlns="http://www.w3.org/2000/svg">
<g transform="translate(2.2500, 2.2500)">
<path id="Vector" fill-rule="evenodd" clip-rule="evenodd" d="M1.5 1.5V18H18V1.5H1.5ZM0 1.35C0 0.604415 0.604417 0 1.35 0H18.15C18.8956 0 19.5 0.604417 19.5 1.35V18.15C19.5 18.8956 18.8956 19.5 18.15 19.5H1.35C0.604415 19.5 0 18.8956 0 18.15V1.35ZM9.75 6.5C10.8813 6.5 11.5 7.20717 11.5 7.75C11.5 8.16906 11.3829 8.47168 11.2116 8.66107C11.0518 8.83771 10.7695 9 10.25 9C9.83579 9 9.5 9.33579 9.5 9.75C9.5 10.1642 9.83579 10.5 10.25 10.5C10.7695 10.5 11.0518 10.6623 11.2116 10.8389C11.3829 11.0283 11.5 11.3309 11.5 11.75C11.5 12.2928 10.8813 13 9.75 13C8.61868 13 8 12.2928 8 11.75C8 11.3358 7.66421 11 7.25 11C6.83579 11 6.5 11.3358 6.5 11.75C6.5 13.4163 8.1199 14.5 9.75 14.5C11.3801 14.5 13 13.4163 13 11.75C13 11.0645 12.8075 10.3671 12.324 9.83264C12.2984 9.8044 12.2723 9.77685 12.2455 9.75C12.2723 9.72315 12.2984 9.6956 12.324 9.66736C12.8075 9.13289 13 8.43551 13 7.75C13 6.08369 11.3801 5 9.75 5C8.1199 5 6.5 6.08369 6.5 7.75C6.5 8.16421 6.83579 8.5 7.25 8.5C7.66421 8.5 8 8.16421 8 7.75C8 7.20717 8.61868 6.5 9.75 6.5Z" fill="#292927"/>
</g>
</svg>
