<svg preserveAspectRatio="xMidYMid meet" overflow="visible" style="display: block;" viewBox="0 0 24 24" fill="none" xmlns="http://www.w3.org/2000/svg">
<g transform="translate(1.1737, 2.5244)">
<path id="Vector" fill-rule="evenodd" clip-rule="evenodd" d="M0.591968 4.36161C0.291149 4.42647 0.0604724 4.6685 0.0101333 4.97208C-0.0402048 5.27567 0.10001 5.5792 0.363797 5.73767L7.58435 10.0755L9.19102 18.3443C9.24972 18.6463 9.48699 18.8819 9.78948 18.9384C10.092 18.995 10.3983 18.861 10.5621 18.6005L21.5256 1.16815C21.6708 0.951526 21.6951 0.669207 21.5798 0.427745C21.562 0.3905 21.5411 0.354398 21.5169 0.319852C21.3438 0.0726672 21.0394 -0.0467169 20.7445 0.016879L0.591968 4.36161ZM17.4305 2.26581L2.76161 5.42832L8.2258 8.71102L17.4305 2.26581ZM9.08603 9.93984L10.3018 16.1969L18.2902 3.49504L9.08603 9.93984Z" fill="#292927"/>
</g>
</svg>
