<svg preserveAspectRatio="xMidYMid meet" overflow="visible" style="display: block;" viewBox="0 0 24 24" fill="none" xmlns="http://www.w3.org/2000/svg">
<g transform="translate(1.2500, 0.2502)">
<path id="Vector" fill-rule="evenodd" clip-rule="evenodd" d="M10.75 1.5C5.64137 1.5 1.5 5.64137 1.5 10.75C1.5 13.7758 2.95202 16.4622 5.20043 18.1511C5.53162 18.3998 5.59844 18.87 5.34967 19.2012C5.10091 19.5324 4.63076 19.5992 4.29957 19.3504C1.6902 17.3904 0 14.2675 0 10.75C0 4.81294 4.81294 0 10.75 0C16.6871 0 21.5 4.81294 21.5 10.75C21.5 14.2675 19.8098 17.3904 17.2004 19.3504C16.8692 19.5992 16.3991 19.5324 16.1503 19.2012C15.9016 18.87 15.9684 18.3998 16.2996 18.1511C18.548 16.4622 20 13.7758 20 10.75C20 5.64137 15.8586 1.5 10.75 1.5ZM5.5 10.75C5.5 7.8505 7.8505 5.5 10.75 5.5C13.6495 5.5 16 7.8505 16 10.75C16 12.0951 15.4951 13.3205 14.6634 14.2498C14.3871 14.5585 14.4134 15.0326 14.722 15.3089C15.0307 15.5851 15.5048 15.5588 15.7811 15.2502C16.8495 14.0565 17.5 12.4783 17.5 10.75C17.5 7.02208 14.4779 4 10.75 4C7.02208 4 4 7.02208 4 10.75C4 12.4783 4.65054 14.0565 5.71894 15.2502C5.99518 15.5588 6.46933 15.5851 6.77797 15.3089C7.08662 15.0326 7.11288 14.5585 6.83664 14.2498C6.00487 13.3205 5.5 12.0951 5.5 10.75ZM10.75 9.5C10.0596 9.5 9.5 10.0596 9.5 10.75C9.5 11.4404 10.0596 12 10.75 12C11.4404 12 12 11.4404 12 10.75C12 10.0596 11.4404 9.5 10.75 9.5ZM8 10.75C8 9.23122 9.23122 8 10.75 8C12.2688 8 13.5 9.23122 13.5 10.75C13.5 12.2688 12.2688 13.5 10.75 13.5C9.23122 13.5 8 12.2688 8 10.75ZM10.0566 16.1133C10.4765 15.8333 11.0235 15.8333 11.4434 16.1133L12.258 16.6563C12.6673 16.9292 12.8785 17.4167 12.7976 17.9019L12.2888 20.9551C12.1883 21.5579 11.6668 21.9996 11.0558 21.9996H10.4443C9.83322 21.9996 9.31173 21.5579 9.21127 20.9551L8.7024 17.9019C8.62154 17.4167 8.83274 16.9292 9.24202 16.6563L10.0566 16.1133ZM12.2754 14.8652C11.3517 14.2494 10.1483 14.2494 9.22459 14.8652L8.40997 15.4083C7.50956 16.0085 7.04491 17.0811 7.22281 18.1485L7.73168 21.2017C7.95269 22.5277 9.09996 23.4996 10.4443 23.4996H11.0558C12.4001 23.4996 13.5473 22.5277 13.7683 21.2017L14.2772 18.1485C14.4551 17.0811 13.9905 16.0085 13.0901 15.4083L12.2754 14.8652Z" fill="#292927"/>
</g>
</svg>
