<svg preserveAspectRatio="xMidYMid meet" overflow="visible" style="display: block;" viewBox="0 0 24 24" fill="none" xmlns="http://www.w3.org/2000/svg">
<g transform="translate(3.2500, 0.2500)">
<path id="Vector" fill-rule="evenodd" clip-rule="evenodd" d="M7.27709 2.6954C7.58839 3.17941 8.13176 3.5 8.75 3.5C9.36824 3.5 9.9116 3.17941 10.2229 2.6954C13.4308 3.5549 16 7.16151 16 11.75C16 16.3385 13.4308 19.9451 10.2229 20.8046C9.9116 20.3206 9.36824 20 8.75 20C8.13176 20 7.5884 20.3206 7.27709 20.8046C4.06916 19.9451 1.5 16.3385 1.5 11.75C1.5 7.16151 4.06916 3.5549 7.27709 2.6954ZM7.09176 22.3107C2.95654 21.3504 0 16.8617 0 11.75C0 6.63829 2.95654 2.14963 7.09176 1.18928C7.3255 0.497796 7.97962 0 8.75 0C9.52038 0 10.1745 0.497797 10.4082 1.18928C14.5435 2.14963 17.5 6.63829 17.5 11.75C17.5 16.8617 14.5435 21.3504 10.4082 22.3107C10.1745 23.0022 9.52038 23.5 8.75 23.5C7.97962 23.5 7.3255 23.0022 7.09176 22.3107Z" fill="#292927"/>
</g>
</svg>
