<svg preserveAspectRatio="xMidYMid meet" overflow="visible" style="display: block;" viewBox="0 0 24 24" fill="none" xmlns="http://www.w3.org/2000/svg">
<g transform="translate(2.2500, 1.2500)">
<path id="Vector" fill-rule="evenodd" clip-rule="evenodd" d="M1.5 1.5V20H7.75C8.16421 20 8.5 20.3358 8.5 20.75C8.5 21.1642 8.16421 21.5 7.75 21.5H1.35C0.604415 21.5 0 20.8956 0 20.15V1.35C0 0.604415 0.604417 0 1.35 0H12.75H13.0015C13.3595 0 13.7029 0.142232 13.9561 0.395406L17.1046 3.54393C17.3578 3.79711 17.5 4.14049 17.5 4.49853V4.75V10.75C17.5 11.1642 17.1642 11.5 16.75 11.5C16.3358 11.5 16 11.1642 16 10.75V5.5H13.35C12.6044 5.5 12 4.89558 12 4.15V1.5H1.5ZM13.5 2.06066V4H15.4393L13.5 2.06066ZM12.5 16.75C12.5 15.5074 13.5074 14.5 14.75 14.5C15.9926 14.5 17 15.5074 17 16.75C17 17.3705 16.7498 17.9311 16.3431 18.3389C15.9349 18.7481 15.3726 19 14.75 19C13.5074 19 12.5 17.9926 12.5 16.75ZM14.75 13C12.6789 13 11 14.6789 11 16.75C11 18.8211 12.6789 20.5 14.75 20.5C15.514 20.5 16.2253 20.271 16.818 19.8786L18.2197 21.2803C18.5126 21.5732 18.9874 21.5732 19.2803 21.2803C19.5732 20.9874 19.5732 20.5126 19.2803 20.2197L17.8786 18.818C18.271 18.2253 18.5 17.514 18.5 16.75C18.5 14.6789 16.8211 13 14.75 13Z" fill="#292927"/>
</g>
</svg>
