<svg preserveAspectRatio="xMidYMid meet" overflow="visible" style="display: block;" viewBox="0 0 24 24" fill="none" xmlns="http://www.w3.org/2000/svg">
<g transform="translate(2.2500, 4.2500)">
<path id="Vector" fill-rule="evenodd" clip-rule="evenodd" d="M6.75 0C6.33579 0 6 0.335786 6 0.75C6 1.16421 6.33579 1.5 6.75 1.5H12.75C13.1642 1.5 13.5 1.16421 13.5 0.75C13.5 0.335786 13.1642 0 12.75 0H6.75ZM7.35 3C6.60441 3 6 3.60442 6 4.35V7.5H1.35C0.604415 7.5 0 8.10442 0 8.85V14.15C0 14.8956 0.604416 15.5 1.35 15.5H6.75H12.75H18.15C18.8956 15.5 19.5 14.8956 19.5 14.15V10.85C19.5 10.1044 18.8956 9.5 18.15 9.5H13.5V4.35C13.5 3.60442 12.8956 3 12.15 3H7.35ZM6 14V9H1.5V14H6ZM7.5 14H12V10.85V4.5H7.5V8.85V14ZM18 14H13.5V11H18V14Z" fill="#292927"/>
</g>
</svg>
