<svg preserveAspectRatio="xMidYMid meet" overflow="visible" style="display: block;" viewBox="0 0 24 24" fill="none" xmlns="http://www.w3.org/2000/svg">
<g transform="translate(1.5000, 2.2499)">
<path id="Vector" fill-rule="evenodd" clip-rule="evenodd" d="M7.51785 0.587463C7.60771 0.183113 8.00834 -0.0718352 8.41269 0.0180204C8.81704 0.107876 9.07199 0.508509 8.98213 0.912858L8.2961 4H14.7595L15.5179 0.587463C15.6077 0.183113 16.0083 -0.0718352 16.4127 0.0180204C16.817 0.107876 17.072 0.508509 16.9821 0.912858L16.2961 4H20.25C20.6642 4 21 4.33579 21 4.75C21 5.16421 20.6642 5.5 20.25 5.5H15.9628L14.2961 13H18.75C19.1642 13 19.5 13.3358 19.5 13.75C19.5 14.1642 19.1642 14.5 18.75 14.5H13.9628L12.9821 18.9129C12.8923 19.3172 12.4916 19.5722 12.0873 19.4823C11.6829 19.3924 11.428 18.9918 11.5179 18.5875L12.4262 14.5H5.96277L4.98213 18.9129C4.89228 19.3172 4.49164 19.5722 4.08729 19.4823C3.68294 19.3924 3.428 18.9918 3.51785 18.5875L4.42618 14.5H0.75C0.335787 14.5 0 14.1642 0 13.75C0 13.3358 0.335787 13 0.75 13H4.75951L6.42618 5.5H2.25C1.83579 5.5 1.5 5.16421 1.5 4.75C1.5 4.33579 1.83579 4 2.25 4H6.75951L7.51785 0.587463ZM12.7595 13L14.4262 5.5H7.96277L6.2961 13H12.7595Z" fill="#292927"/>
</g>
</svg>
