<svg preserveAspectRatio="xMidYMid meet" overflow="visible" style="display: block;" viewBox="0 0 24 24" fill="none" xmlns="http://www.w3.org/2000/svg">
<g transform="translate(0.8996, 1.7499)">
<path id="Vector" fill-rule="evenodd" clip-rule="evenodd" d="M1.5 11V1.5H12V3.75V11H8.39648C8.07002 9.84575 7.00878 9 5.75 9C4.49122 9 3.42998 9.84575 3.10352 11H1.5ZM13.5 3V1.35C13.5 0.604416 12.8956 0 12.15 0H1.35C0.604416 0 0 0.604415 0 1.35V11.15C0 11.8956 0.604416 12.5 1.35 12.5H3.10352C3.42998 13.6543 4.49122 14.5 5.75 14.5C7.00878 14.5 8.07002 13.6543 8.39648 12.5H12.75H12.75C13.1643 12.5 13.5 12.1642 13.5 11.75L13.5 11.7414V4.5H18.2626L19.5 7.28416V8.75C19.5 9.16421 19.8358 9.5 20.25 9.5C20.6642 9.5 21 9.16421 21 8.75V7.25233C21 7.06344 20.9604 6.87665 20.8836 6.70404L19.5937 3.80171C19.377 3.31419 18.8936 3 18.3601 3H13.5ZM4.5 11.75C4.5 11.0596 5.05964 10.5 5.75 10.5C6.44036 10.5 7 11.0596 7 11.75C7 12.4404 6.44036 13 5.75 13C5.05964 13 4.5 12.4404 4.5 11.75ZM19.3085 14.2494C19.585 14.5578 19.5591 15.032 19.2506 15.3085C18.5814 15.9083 18.0361 16.6598 17.6088 17.3926C17.8439 17.446 18.0913 17.4636 18.344 17.4399L18.4786 17.4272C19.8323 17.3 20.8215 16.1 20.688 14.7468L20.4728 12.5656L17.8871 12.8086C16.6076 12.9288 15.6727 14.063 15.7989 15.3419C15.8466 15.8256 16.0393 16.2608 16.3297 16.6084C16.8115 15.787 17.4447 14.9128 18.2494 14.1915C18.5579 13.9151 19.032 13.941 19.3085 14.2494ZM15.6122 18.007C14.8954 17.385 14.4058 16.4989 14.3054 15.4822C14.0979 13.3789 15.6355 11.5135 17.7398 11.3158L20.7254 11.0353C21.3293 10.9785 21.8672 11.4219 21.9268 12.0255L22.1814 14.6065C22.3963 16.7841 20.8044 18.7153 18.6258 18.92L18.4913 18.9326C17.9443 18.984 17.4128 18.9177 16.9221 18.7543C16.7983 19.0397 16.7006 19.2912 16.6281 19.4902C16.573 19.6416 16.5326 19.7619 16.5065 19.8428C16.4935 19.8832 16.484 19.9138 16.478 19.9333L16.4717 19.9543L16.4706 19.958C16.3556 20.3558 15.9399 20.5854 15.542 20.4706C15.144 20.3557 14.9146 19.94 15.0294 19.542C15.0294 19.5422 15.0294 19.542 15.7495 19.7499L15.0294 19.542L15.03 19.5401L15.0309 19.5371L15.0336 19.5277L15.0433 19.4957C15.0515 19.4687 15.0634 19.4304 15.0791 19.3819C15.1104 19.285 15.1567 19.147 15.2188 18.9768C15.3126 18.719 15.443 18.3856 15.6122 18.007Z" fill="#292927"/>
</g>
</svg>
