<svg preserveAspectRatio="xMidYMid meet" overflow="visible" style="display: block;" viewBox="0 0 24 24" fill="none" xmlns="http://www.w3.org/2000/svg">
<g transform="translate(3.2500, 0.7500)">
<path id="Vector" fill-rule="evenodd" clip-rule="evenodd" d="M6.54043 3.38244C6.60313 3.02181 6.74962 2.54374 7.06867 2.16736C7.36198 1.82135 7.85026 1.5 8.75 1.5C9.64974 1.5 10.138 1.82135 10.4313 2.16736C10.7504 2.54374 10.8969 3.02181 10.9596 3.38244C11.0464 3.88191 11.4346 4.36406 12 4.47581V6H5.5V4.47581C6.0654 4.36406 6.4536 3.88191 6.54043 3.38244ZM8.75 0C7.42372 0 6.51184 0.504506 5.92446 1.19742C5.40856 1.80601 5.18535 2.50857 5.08617 3H2.75C1.23122 3 0 4.23122 0 5.75V19.75C0 21.2688 1.23122 22.5 2.75 22.5H14.75C16.2688 22.5 17.5 21.2688 17.5 19.75V5.75C17.5 4.23122 16.2688 3 14.75 3H12.4138C12.3146 2.50857 12.0914 1.80601 11.5755 1.19742C10.9882 0.504506 10.0763 0 8.75 0ZM13.5 4.5V6.15C13.5 6.89558 12.8956 7.5 12.15 7.5H5.35C4.60442 7.5 4 6.89558 4 6.15V4.5H2.75C2.05964 4.5 1.5 5.05964 1.5 5.75V19.75C1.5 20.4404 2.05964 21 2.75 21H14.75C15.4404 21 16 20.4404 16 19.75V5.75C16 5.05964 15.4404 4.5 14.75 4.5H13.5Z" fill="#292927"/>
</g>
</svg>
