<svg preserveAspectRatio="xMidYMid meet" overflow="visible" style="display: block;" viewBox="0 0 24 24" fill="none" xmlns="http://www.w3.org/2000/svg">
<g transform="translate(1.2500, 1.5000)">
<path id="Vector" fill-rule="evenodd" clip-rule="evenodd" d="M7.78033 0.21967C7.48744 -0.0732233 7.01256 -0.0732233 6.71967 0.21967C6.42678 0.512563 6.42678 0.987437 6.71967 1.28033L9.93934 4.5H2.75C1.23122 4.5 0 5.73122 0 7.25V18.25C0 19.7688 1.23122 21 2.75 21H18.75C20.2688 21 21.5 19.7688 21.5 18.25V7.25C21.5 5.73122 20.2688 4.5 18.75 4.5H11.5607L14.7803 1.28033C15.0732 0.987437 15.0732 0.512563 14.7803 0.21967C14.4874 -0.0732233 14.0126 -0.0732233 13.7197 0.21967L10.75 3.18934L7.78033 0.21967ZM2.75 6C2.05964 6 1.5 6.55964 1.5 7.25V18.25C1.5 18.9404 2.05964 19.5 2.75 19.5H18.75C19.4404 19.5 20 18.9404 20 18.25V7.25C20 6.55964 19.4404 6 18.75 6H2.75ZM11.5 9.25C11.5 8.83579 11.1642 8.5 10.75 8.5C10.3358 8.5 10 8.83579 10 9.25V12.25C10 12.6642 10.3358 13 10.75 13C11.1642 13 11.5 12.6642 11.5 12.25V9.25ZM11.3175 16.7508C11.5946 16.4429 11.5696 15.9687 11.2617 15.6916C10.9538 15.4145 10.4796 15.4394 10.2025 15.7473L10.1925 15.7584C9.91544 16.0663 9.9404 16.5405 10.2483 16.8176C10.5562 17.0947 11.0304 17.0697 11.3075 16.7619L11.3175 16.7508Z" fill="#292927"/>
</g>
</svg>
