<svg preserveAspectRatio="xMidYMid meet" overflow="visible" style="display: block;" viewBox="0 0 24 24" fill="none" xmlns="http://www.w3.org/2000/svg">
<g transform="translate(2.2145, 2.2144)">
<path id="Vector" fill-rule="evenodd" clip-rule="evenodd" d="M0.75 0C0.335786 0 0 0.335787 0 0.75V4.28553C0 4.69975 0.335786 5.03553 0.75 5.03553C1.16421 5.03553 1.5 4.69975 1.5 4.28553L1.5 2.56074L4.05845 5.11937C4.35134 5.41227 4.82621 5.41229 5.11911 5.1194C5.41202 4.82652 5.41203 4.35165 5.11915 4.05874L2.56057 1.5L4.28553 1.5C4.69975 1.5 5.03553 1.16421 5.03553 0.75C5.03553 0.335787 4.69975 0 4.28553 0H0.75ZM9.81764 4.31147C10.1881 4.49671 10.3383 4.94721 10.1531 5.3177L8.19576 9.23229H12.9822C13.2422 9.23229 13.4836 9.36688 13.6202 9.58799C13.7569 9.8091 13.7693 10.0852 13.6531 10.3177L11.1531 15.3177C10.9678 15.6882 10.5173 15.8383 10.1468 15.6531C9.77634 15.4679 9.62617 15.0174 9.81141 14.6469L11.7687 10.7323H6.98223C6.7223 10.7323 6.4809 10.5977 6.34425 10.3766C6.20759 10.1555 6.19517 9.87937 6.31141 9.64688L8.81141 4.64688C8.99666 4.27639 9.44716 4.12622 9.81764 4.31147ZM19.571 18.8212C19.571 19.2354 19.2352 19.5712 18.821 19.5712H15.2855C14.8713 19.5712 14.5355 19.2354 14.5355 18.8212C14.5355 18.407 14.8713 18.0712 15.2855 18.0712H17.0105L14.4519 15.5124C14.159 15.2195 14.159 14.7447 14.4519 14.4518C14.7448 14.1589 15.2197 14.1589 15.5126 14.4518L18.071 17.0104V15.2856C18.071 14.8714 18.4068 14.5356 18.821 14.5356C19.2352 14.5356 19.571 14.8714 19.571 15.2856V18.8212Z" fill="#292927"/>
</g>
</svg>
