<svg preserveAspectRatio="xMidYMid meet" overflow="visible" style="display: block;" viewBox="0 0 24 24" fill="none" xmlns="http://www.w3.org/2000/svg">
<g transform="translate(1.2500, 1.2500)">
<path id="Vector" fill-rule="evenodd" clip-rule="evenodd" d="M10.75 1.5C5.64137 1.5 1.5 5.64137 1.5 10.75C1.5 15.8586 5.64137 20 10.75 20C15.8586 20 20 15.8586 20 10.75C20 5.64137 15.8586 1.5 10.75 1.5ZM0 10.75C0 4.81294 4.81294 0 10.75 0C16.6871 0 21.5 4.81294 21.5 10.75C21.5 16.6871 16.6871 21.5 10.75 21.5C4.81294 21.5 0 16.6871 0 10.75ZM6 7.75C6 7.33579 6.33579 7 6.75 7H8.75C9.16421 7 9.5 7.33579 9.5 7.75C9.5 8.16421 9.16421 8.5 8.75 8.5H6.75C6.33579 8.5 6 8.16421 6 7.75ZM12 7.75C12 7.33579 12.3358 7 12.75 7H14.75C15.1642 7 15.5 7.33579 15.5 7.75C15.5 8.16421 15.1642 8.5 14.75 8.5H12.75C12.3358 8.5 12 8.16421 12 7.75ZM9.75865 12.9382C9.57016 13.2 9.5 13.5367 9.5 13.75V16H12V13.75C12 13.5367 11.9298 13.2 11.7413 12.9382C11.5804 12.7147 11.3056 12.5 10.75 12.5C10.1944 12.5 9.9196 12.7147 9.75865 12.9382ZM8.54135 12.0618C8.9804 11.452 9.70556 11 10.75 11C11.7944 11 12.5196 11.452 12.9587 12.0618C13.3702 12.6333 13.5 13.2966 13.5 13.75V16.75C13.5 17.1642 13.1642 17.5 12.75 17.5H8.75C8.33579 17.5 8 17.1642 8 16.75V13.75C8 13.2966 8.12984 12.6333 8.54135 12.0618Z" fill="#292927"/>
</g>
</svg>
