<svg preserveAspectRatio="xMidYMid meet" overflow="visible" style="display: block;" viewBox="0 0 24 24" fill="none" xmlns="http://www.w3.org/2000/svg">
<g transform="translate(1.2500, 1.2500)">
<path id="Vector" fill-rule="evenodd" clip-rule="evenodd" d="M0 1.35C0 0.604415 0.604417 0 1.35 0H20.15C20.8956 0 21.5 0.604418 21.5 1.35V16.15C21.5 16.8956 20.8956 17.5 20.15 17.5H13L13 20H13.75C14.1642 20 14.5 20.3358 14.5 20.75C14.5 21.1642 14.1642 21.5 13.75 21.5H7.75C7.33579 21.5 7 21.1642 7 20.75C7 20.3358 7.33579 20 7.75 20H8.5V17.5H1.35C0.604416 17.5 0 16.8956 0 16.15V1.35ZM10 17.5V20H11.5L11.5 17.5H10ZM12.2488 16H1.5V15H20V16H12.2512C12.2508 16 12.2504 16 12.25 16C12.2496 16 12.2492 16 12.2488 16ZM20 13.5V1.5H1.5V13.5H20Z" fill="#292927"/>
</g>
</svg>
