<svg preserveAspectRatio="xMidYMid meet" overflow="visible" style="display: block;" viewBox="0 0 24 24" fill="none" xmlns="http://www.w3.org/2000/svg">
<g transform="translate(6.2500, 4.2500)">
<path id="Vector" fill-rule="evenodd" clip-rule="evenodd" d="M4 0.75C4 0.335786 4.33579 0 4.75 0H10.75C11.1642 0 11.5 0.335786 11.5 0.75C11.5 1.16421 11.1642 1.5 10.75 1.5H8.31573L4.7443 14H6.75C7.16421 14 7.5 14.3358 7.5 14.75C7.5 15.1642 7.16421 15.5 6.75 15.5H0.75C0.335786 15.5 0 15.1642 0 14.75C0 14.3358 0.335786 14 0.75 14H3.18427L6.7557 1.5H4.75C4.33579 1.5 4 1.16421 4 0.75Z" fill="#292927"/>
</g>
</svg>
