<svg preserveAspectRatio="xMidYMid meet" overflow="visible" style="display: block;" viewBox="0 0 24 24" fill="none" xmlns="http://www.w3.org/2000/svg">
<g transform="translate(2.7514, 2.2458)">
<path id="Vector" fill-rule="evenodd" clip-rule="evenodd" d="M7.75 1.5C5.95507 1.5 4.5 2.95507 4.5 4.75C4.5 6.54493 5.95507 8 7.75 8C9.54493 8 11 6.54493 11 4.75C11 2.95507 9.54493 1.5 7.75 1.5ZM12.5 4.75C12.5 6.30039 11.7572 7.6773 10.6081 8.54426C10.7652 8.60664 10.9199 8.67401 11.0718 8.74618C11.446 8.92392 11.6052 9.37131 11.4274 9.74545C11.2497 10.1196 10.8023 10.2788 10.4282 10.1011C9.61736 9.7159 8.70994 9.5 7.75 9.5C4.29822 9.5 1.5 12.2982 1.5 15.75V16.75C1.5 17.1642 1.16421 17.5 0.75 17.5C0.335786 17.5 0 17.1642 0 16.75V15.75C0 12.4793 2.02613 9.68175 4.89172 8.54412C3.74271 7.67715 3 6.30031 3 4.75C3 2.12665 5.12665 0 7.75 0C10.3734 0 12.5 2.12665 12.5 4.75ZM13.0633 13.4851L13.75 12.029L14.4367 13.4851C14.5432 13.7108 14.7549 13.8688 15.0016 13.9065L16.6065 14.152L15.4233 15.3582C15.256 15.5287 15.1799 15.7689 15.2186 16.0047L15.4904 17.6636L14.1116 16.9047C13.8865 16.7808 13.6135 16.7808 13.3884 16.9047L12.0096 17.6636L12.2814 16.0047C12.3201 15.7689 12.244 15.5287 12.0767 15.3582L10.8935 14.152L12.4984 13.9065C12.7451 13.8688 12.9568 13.7108 13.0633 13.4851ZM14.7544 10.6422C14.3506 9.78594 13.1494 9.78594 12.7456 10.6422L11.8769 12.4841L9.94799 12.7792C8.99992 12.9243 8.71368 14.0719 9.32489 14.695L10.7397 16.1372L10.4044 18.183C10.2654 19.0316 11.1494 19.8493 12.0338 19.3625L13.75 18.4179L15.4662 19.3625C16.3506 19.8493 17.2346 19.0316 17.0955 18.183L16.7603 16.1372L18.1751 14.695C18.7863 14.0719 18.5001 12.9243 17.552 12.7792L15.6231 12.4841L14.7544 10.6422Z" fill="#292927"/>
</g>
</svg>
