<svg preserveAspectRatio="xMidYMid meet" overflow="visible" style="display: block;" viewBox="0 0 24 24" fill="none" xmlns="http://www.w3.org/2000/svg">
<g transform="translate(1.2500, 1.7500)">
<path id="Vector" fill-rule="evenodd" clip-rule="evenodd" d="M1.5 2.75C1.5 2.05964 2.05964 1.5 2.75 1.5H18.75C19.4404 1.5 20 2.05964 20 2.75V4H1.5V2.75ZM20 10.75V5.5H1.5V16.75C1.5 17.4404 2.05964 18 2.75 18H11.75C12.1642 18 12.5 18.3358 12.5 18.75C12.5 19.1642 12.1642 19.5 11.75 19.5H2.75C1.23122 19.5 0 18.2688 0 16.75V4.75V2.75C0 1.23122 1.23122 0 2.75 0H18.75C20.2688 0 21.5 1.23122 21.5 2.75V4.75V10.75C21.5 11.1642 21.1642 11.5 20.75 11.5C20.3358 11.5 20 11.1642 20 10.75ZM16.7499 14.2802C16.55 14.2802 16.3583 14.2004 16.2175 14.0585C15.593 13.4291 14.6152 13.275 13.9439 13.9516C13.352 14.548 13.352 15.5113 13.9439 16.1078L16.75 18.9357L19.5561 16.1078C20.1479 15.5113 20.1479 14.548 19.5561 13.9516C18.8848 13.275 17.907 13.4291 17.2825 14.0585C17.1416 14.2004 16.95 14.2802 16.7501 14.2802L16.75 13.8865L16.7499 14.2802ZM15.7971 20.105C16.058 20.3679 16.4038 20.4999 16.75 20.4999C17.0962 20.4999 17.442 20.3679 17.7028 20.105L20.6209 17.1643C21.793 15.983 21.793 14.0763 20.6209 12.895C19.5702 11.8362 17.9328 11.7169 16.75 12.5373C15.5672 11.7169 13.9298 11.8362 12.8791 12.895C11.7069 14.0763 11.7069 15.983 12.8791 17.1643L15.7971 20.105ZM4.31747 3.24978C4.59456 2.9419 4.5696 2.46768 4.26172 2.19058C3.95384 1.91349 3.47962 1.93845 3.20253 2.24633L3.19253 2.25744C2.91543 2.56532 2.94039 3.03954 3.24827 3.31663C3.55616 3.59373 4.03037 3.56877 4.30747 3.26089L4.31747 3.24978ZM7.26172 2.19058C7.5696 2.46768 7.59456 2.9419 7.31747 3.24978L7.30747 3.26089C7.03037 3.56877 6.55616 3.59373 6.24827 3.31663C5.94039 3.03954 5.91543 2.56532 6.19253 2.25744L6.20253 2.24633C6.47962 1.93845 6.95384 1.91349 7.26172 2.19058ZM10.3175 3.24978C10.5946 2.9419 10.5696 2.46768 10.2617 2.19058C9.95384 1.91349 9.47962 1.93845 9.20253 2.24633L9.19253 2.25744C8.91543 2.56532 8.94039 3.03954 9.24827 3.31663C9.55616 3.59373 10.0304 3.56877 10.3075 3.26089L10.3175 3.24978Z" fill="#292927"/>
</g>
</svg>
