<svg preserveAspectRatio="xMidYMid meet" overflow="visible" style="display: block;" viewBox="0 0 24 24" fill="none" xmlns="http://www.w3.org/2000/svg">
<g transform="translate(3.2450, 3.2495)">
<path id="Vector" fill-rule="evenodd" clip-rule="evenodd" d="M1.31748 1.25173C1.59457 0.943848 1.56961 0.469631 1.26173 0.192536C0.953848 -0.0845583 0.479631 -0.0595998 0.202536 0.248283L0.192536 0.259394C-0.0845583 0.567276 -0.0595997 1.04149 0.248283 1.31859C0.556165 1.59568 1.03038 1.57072 1.30748 1.26284L1.31748 1.25173ZM5.26173 0.192536C5.56961 0.469631 5.59457 0.943848 5.31748 1.25173L5.30748 1.26284C5.03038 1.57072 4.55616 1.59568 4.24828 1.31859C3.9404 1.04149 3.91544 0.567276 4.19254 0.259394L4.20254 0.248283C4.47963 -0.0595998 4.95385 -0.0845583 5.26173 0.192536ZM9.31748 1.25173C9.59457 0.943848 9.56961 0.469631 9.26173 0.192536C8.95385 -0.0845583 8.47963 -0.0595998 8.20254 0.248283L8.19254 0.259394C7.91544 0.567276 7.9404 1.04149 8.24828 1.31859C8.55616 1.59568 9.03038 1.57072 9.30748 1.26284L9.31748 1.25173ZM13.2617 0.192536C13.5696 0.469631 13.5946 0.943848 13.3175 1.25173L13.3075 1.26284C13.0304 1.57072 12.5562 1.59568 12.2483 1.31859C11.9404 1.04149 11.9154 0.567276 12.1925 0.259394L12.2025 0.248283C12.4796 -0.0595998 12.9538 -0.0845583 13.2617 0.192536ZM17.2617 0.192536C17.5696 0.469631 17.5946 0.943848 17.3175 1.25173L17.3075 1.26284C17.0304 1.57072 16.5562 1.59568 16.2483 1.31859C15.9404 1.04149 15.9154 0.567276 16.1925 0.259394L16.2025 0.248283C16.4796 -0.0595998 16.9538 -0.0845583 17.2617 0.192536ZM1.26173 4.19254C1.56961 4.46963 1.59457 4.94385 1.31748 5.25173L1.30748 5.26284C1.03038 5.57072 0.556165 5.59568 0.248283 5.31859C-0.0595997 5.04149 -0.0845583 4.56728 0.192536 4.25939L0.202536 4.24828C0.479631 3.9404 0.953848 3.91544 1.26173 4.19254ZM1.31748 9.25173C1.59457 8.94385 1.56961 8.46963 1.26173 8.19254C0.953848 7.91544 0.479631 7.9404 0.202536 8.24828L0.192536 8.25939C-0.0845583 8.56728 -0.0595997 9.04149 0.248283 9.31859C0.556165 9.59568 1.03038 9.57072 1.30748 9.26284L1.31748 9.25173ZM9.26173 8.19254C9.56961 8.46963 9.59457 8.94385 9.31748 9.25173L9.30748 9.26284C9.03038 9.57072 8.55616 9.59568 8.24828 9.31859C7.9404 9.04149 7.91544 8.56728 8.19254 8.25939L8.20254 8.24828C8.47963 7.9404 8.95385 7.91544 9.26173 8.19254ZM1.31748 13.2517C1.59457 12.9438 1.56961 12.4696 1.26173 12.1925C0.953848 11.9154 0.479631 11.9404 0.202536 12.2483L0.192536 12.2594C-0.0845583 12.5673 -0.0595997 13.0415 0.248283 13.3186C0.556165 13.5957 1.03038 13.5707 1.30748 13.2628L1.31748 13.2517ZM17.2617 4.19254C17.5696 4.46963 17.5946 4.94385 17.3175 5.25173L17.3075 5.26284C17.0304 5.57072 16.5562 5.59568 16.2483 5.31859C15.9404 5.04149 15.9154 4.56728 16.1925 4.25939L16.2025 4.24828C16.4796 3.9404 16.9538 3.91544 17.2617 4.19254ZM17.3175 9.25173C17.5946 8.94385 17.5696 8.46963 17.2617 8.19254C16.9538 7.91544 16.4796 7.9404 16.2025 8.24828L16.1925 8.25939C15.9154 8.56728 15.9404 9.04149 16.2483 9.31859C16.5562 9.59568 17.0304 9.57072 17.3075 9.26284L17.3175 9.25173ZM17.2617 12.1925C17.5696 12.4696 17.5946 12.9438 17.3175 13.2517L17.3075 13.2628C17.0304 13.5707 16.5562 13.5957 16.2483 13.3186C15.9404 13.0415 15.9154 12.5673 16.1925 12.2594L16.2025 12.2483C16.4796 11.9404 16.9538 11.9154 17.2617 12.1925ZM0.75 16.001C0.335786 16.001 0 16.3368 0 16.751C0 17.1652 0.335786 17.501 0.75 17.501H16.75C17.1642 17.501 17.5 17.1652 17.5 16.751C17.5 16.3368 17.1642 16.001 16.75 16.001H0.75Z" fill="#292927"/>
</g>
</svg>
