<svg preserveAspectRatio="xMidYMid meet" overflow="visible" style="display: block;" viewBox="0 0 24 24" fill="none" xmlns="http://www.w3.org/2000/svg">
<g transform="translate(2.2500, 2.2500)">
<path id="Vector" fill-rule="evenodd" clip-rule="evenodd" d="M1.5 18V1.5H18V18H1.5ZM1.35 0C0.604416 0 0 0.604416 0 1.35V18.15C0 18.8956 0.60444 19.5 1.35 19.5H18.15C18.8956 19.5 19.5 18.8956 19.5 18.15V1.35C19.5 0.60444 18.8956 0 18.15 0H1.35ZM12.75 5.5H10.5V13.25C10.5 14.4926 9.49261 15.5 8.25 15.5C7.00735 15.5 6 14.4926 6 13.25C6 12.0074 7.00735 11 8.25 11C8.51297 11 8.76541 11.0451 9 11.128V5.35C9 4.60444 9.60436 4 10.35 4H12.75C13.1642 4 13.5 4.33579 13.5 4.75C13.5 5.16421 13.1642 5.5 12.75 5.5ZM8.25 12.5C8.66419 12.5 9 12.8358 9 13.25C9 13.6642 8.66419 14 8.25 14C7.83579 14 7.5 13.6642 7.5 13.25C7.5 12.8358 7.83579 12.5 8.25 12.5Z" fill="#292927"/>
</g>
</svg>
