<svg preserveAspectRatio="xMidYMid meet" overflow="visible" style="display: block;" viewBox="0 0 24 24" fill="none" xmlns="http://www.w3.org/2000/svg">
<g transform="translate(1.2500, 3.9997)">
<path id="Vector" fill-rule="evenodd" clip-rule="evenodd" d="M6 3.04622C5.27726 3.16945 4.61141 3.53482 4.11719 4.09082L1.31057 7.24828C1.03538 7.55787 0.561324 7.58576 0.251737 7.31057C-0.057851 7.03538 -0.0857373 6.56133 0.189451 6.25174L2.99608 3.09428C3.84198 2.14263 5.0319 1.57308 6.29651 1.50656C6.75049 0.612579 7.67871 0 8.75 0H18.75C20.2688 0 21.5 1.23122 21.5 2.75V4.75V8.75C21.5 10.2688 20.2688 11.5 18.75 11.5H12.5126C11.9976 11.9071 11.5627 12.2326 11.2452 12.464C11.0657 12.5949 10.9235 12.6958 10.8255 12.7645C10.7765 12.7988 10.7385 12.8251 10.7123 12.8431L10.6865 12.8608L6.69998 15.8505C6.57017 15.9478 6.41229 16.0005 6.25004 16.0005L0.750035 16.0007C0.335821 16.0007 1.91719e-05 15.665 8.16533e-10 15.2508C-1.91192e-05 14.8365 0.335752 14.5007 0.749965 14.5007L6 14.5005L9.80002 11.6507L12.25 10.2418V10.2401L9.82971 11.6296L9.83085 11.6288L9.83664 11.6248L9.86184 11.6076C9.8846 11.5919 9.91912 11.568 9.96456 11.5361C10.0555 11.4724 10.19 11.3769 10.3616 11.2518C10.7049 11.0016 11.1959 10.6334 11.7815 10.165C12.2791 9.76689 12.4754 9.35737 12.523 9.02057C12.5716 8.67729 12.476 8.34357 12.275 8.07559C11.8886 7.56042 11.0845 7.26203 10.1659 7.87424C9.13716 8.55988 8.12827 9.19054 7.37759 9.64924C7.00194 9.87878 6.69021 10.0657 6.47206 10.1954C6.36298 10.2603 6.27725 10.3109 6.21858 10.3454L6.15133 10.3849L6.12794 10.3985C5.76999 10.607 5.31032 10.4861 5.10188 10.1281C4.89345 9.7702 5.01464 9.31106 5.37257 9.10262L5.39379 9.09022L5.45816 9.05245C5.51486 9.0191 5.59848 8.96975 5.70534 8.9062C5.78971 8.85603 5.88853 8.79702 6 8.73007V3.04622ZM7.5 7.80954C8.06522 7.45529 8.69643 7.05101 9.33406 6.62605C10.9155 5.5721 12.6114 6.024 13.475 7.17563C13.899 7.74105 14.1159 8.46986 14.0082 9.23074L12.6683 10H12.6705L14.0082 9.23074C13.9712 9.49213 13.8971 9.74991 13.7857 10H18.75C19.4404 10 20 9.44036 20 8.75V5.5L9.75 5.5C9.33579 5.5 9 5.16421 9 4.75C9 4.33579 9.33579 4 9.75 4L20 4V2.75C20 2.05964 19.4404 1.5 18.75 1.5H8.75C8.05964 1.5 7.5 2.05964 7.5 2.75V7.80954Z" fill="#292927"/>
</g>
</svg>
