<svg preserveAspectRatio="xMidYMid meet" overflow="visible" style="display: block;" viewBox="0 0 24 24" fill="none" xmlns="http://www.w3.org/2000/svg">
<g transform="translate(3.2500, 0.5000)">
<path id="Vector" fill-rule="evenodd" clip-rule="evenodd" d="M6.26319 1.92035C7.03831 1.6472 7.87572 1.5 8.75 1.5C9.5732 1.5 10.3637 1.63051 11.1003 1.87377C12.332 4.60279 12.1203 8.12108 11.5239 11.1033C11.219 12.6278 10.822 13.9719 10.5009 14.9351C10.353 15.3788 10.2216 15.7404 10.1235 16H7.26084C7.16273 15.7404 7.03138 15.3788 6.88347 14.9351C6.56242 13.9719 6.16541 12.6278 5.86051 11.1033C5.26745 8.13801 5.05478 4.64274 6.26319 1.92035ZM12.9947 11.3975C13.5058 8.84213 13.7965 5.68244 13.0356 2.85723C14.8347 4.14883 16 6.26118 16 8.75C16 10.7303 14.7499 12.5466 13.3625 13.934C12.8961 14.4004 12.4283 14.8041 12.0147 15.1333C12.3319 14.1536 12.7029 12.8564 12.9947 11.3975ZM11.422 17.3929C11.4218 17.393 11.4216 17.3931 11.1717 16.9766L11.4216 17.3931C11.305 17.4631 11.1716 17.5 11.0357 17.5H6.46429C6.32835 17.5 6.19498 17.4631 6.07841 17.3931L6.36738 16.9115C6.07838 17.3931 6.07819 17.393 6.07798 17.3929L6.07741 17.3925L6.07589 17.3916L6.07128 17.3888L6.05597 17.3795C6.0431 17.3716 6.02494 17.3604 6.00185 17.3459C5.95568 17.317 5.88975 17.275 5.80687 17.2205C5.64119 17.1117 5.40731 16.9526 5.12791 16.7477C4.5704 16.3388 3.82498 15.7428 3.07681 14.9946C1.60703 13.5248 0 11.3411 0 8.75C0 3.75498 3.92695 0 8.75 0C13.573 0 17.5 3.75498 17.5 8.75C17.5 11.3411 15.893 13.5248 14.4232 14.9946C13.675 15.7428 12.9296 16.3388 12.3721 16.7477C12.0927 16.9526 11.8588 17.1117 11.6931 17.2205C11.6103 17.275 11.5443 17.317 11.4981 17.3459L11.4684 17.3644L11.444 17.3795L11.4287 17.3888L11.4241 17.3916L11.4226 17.3925L11.422 17.3929ZM4.32082 2.96309C2.60349 4.26259 1.5 6.32803 1.5 8.75C1.5 10.7303 2.75011 12.5466 4.13747 13.934C4.54618 14.3427 4.95587 14.7032 5.32928 15.0076C5.0213 14.0438 4.66911 12.7948 4.38964 11.3975C3.88494 8.87399 3.59517 5.76116 4.32082 2.96309ZM7.35 18.5C6.60442 18.5 6 19.1044 6 19.85V21.65C6 22.3956 6.60442 23 7.35 23H10.15C10.8956 23 11.5 22.3956 11.5 21.65V19.85C11.5 19.1044 10.8956 18.5 10.15 18.5H7.35ZM7.5 21.5V20H10V21.5H7.5Z" fill="#292927"/>
</g>
</svg>
