<svg preserveAspectRatio="xMidYMid meet" overflow="visible" style="display: block;" viewBox="0 0 24 24" fill="none" xmlns="http://www.w3.org/2000/svg">
<g transform="translate(2.2500, 4.2500)">
<path id="Vector" fill-rule="evenodd" clip-rule="evenodd" d="M7.2694 12.891L4.7694 15.291C4.47918 15.5697 4.02082 15.5697 3.7306 15.291L1.2306 12.891C0.931793 12.6042 0.922104 12.1294 1.20896 11.8306C1.49582 11.5318 1.97059 11.5221 2.2694 11.809L3.5 12.9903V8.43403C1.51049 8.0798 0 6.3413 0 4.25C0 1.90279 1.90279 0 4.25 0C6.59721 0 8.5 1.90279 8.5 4.25C8.5 6.3413 6.98951 8.0798 5 8.43403V12.9903L6.2306 11.809C6.52941 11.5221 7.00418 11.5318 7.29104 11.8306C7.5779 12.1294 7.56821 12.6042 7.2694 12.891ZM1.5 4.25C1.5 5.76878 2.73122 7 4.25 7C5.76878 7 7 5.76878 7 4.25C7 2.73122 5.76878 1.5 4.25 1.5C2.73122 1.5 1.5 2.73122 1.5 4.25ZM18.2694 12.891L15.7694 15.291C15.4792 15.5697 15.0208 15.5697 14.7306 15.291L12.2306 12.891C11.9318 12.6042 11.9221 12.1294 12.209 11.8306C12.4958 11.5318 12.9706 11.5221 13.2694 11.809L14.5 12.9903V8.43403C12.5105 8.0798 11 6.3413 11 4.25C11 1.90279 12.9028 0 15.25 0C17.5972 0 19.5 1.90279 19.5 4.25C19.5 6.3413 17.9895 8.0798 16 8.43403V12.9903L17.2306 11.809C17.5294 11.5221 18.0042 11.5318 18.291 11.8306C18.5779 12.1294 18.5682 12.6042 18.2694 12.891ZM12.5 4.25C12.5 5.76878 13.7312 7 15.25 7C16.7688 7 18 5.76878 18 4.25C18 2.73122 16.7688 1.5 15.25 1.5C13.7312 1.5 12.5 2.73122 12.5 4.25Z" fill="#292927"/>
</g>
</svg>
