<svg preserveAspectRatio="xMidYMid meet" overflow="visible" style="display: block;" viewBox="0 0 24 24" fill="none" xmlns="http://www.w3.org/2000/svg">
<g transform="translate(4.0680, 2.0681)">
<path id="Vector" fill-rule="evenodd" clip-rule="evenodd" d="M9.83337 0.75C9.83337 0.335786 9.49759 0 9.08337 0C8.66916 0 8.33337 0.335786 8.33337 0.75V3.38477H3.16663V0.75C3.16663 0.335786 2.83084 0 2.41663 0C2.00241 0 1.66663 0.335786 1.66663 0.75V3.60639C0.686507 4.02691 0 5.00067 0 6.13477V8.904C0 10.4228 1.23122 11.654 2.75 11.654H5V18.7505C5 19.1647 5.33579 19.5005 5.75 19.5005C6.16421 19.5005 6.5 19.1647 6.5 18.7505V11.654H8.75C10.2688 11.654 11.5 10.4228 11.5 8.904V6.13477C11.5 5.00067 10.8135 4.02691 9.83337 3.60639V0.75ZM2.75 4.88477C2.05964 4.88477 1.5 5.44441 1.5 6.13477V8.904C1.5 9.59435 2.05964 10.154 2.75 10.154H8.75C9.44036 10.154 10 9.59435 10 8.904V6.13477C10 5.44441 9.44036 4.88477 8.75 4.88477H2.75ZM11.4017 14.3408C11.1088 14.0479 10.6339 14.0479 10.341 14.3408C10.0481 14.6337 10.0481 15.1085 10.341 15.4014L11.932 16.9924L10.341 18.5834C10.0481 18.8763 10.0481 19.3512 10.341 19.6441C10.6339 19.937 11.1088 19.937 11.4017 19.6441L12.9927 18.0531L14.5836 19.6441C14.8765 19.937 15.3514 19.937 15.6443 19.6441C15.9372 19.3512 15.9372 18.8763 15.6443 18.5834L14.0533 16.9924L15.6443 15.4014C15.9372 15.1085 15.9372 14.6337 15.6443 14.3408C15.3514 14.0479 14.8765 14.0479 14.5836 14.3408L12.9927 15.9318L11.4017 14.3408Z" fill="#292927"/>
</g>
</svg>
