<svg preserveAspectRatio="xMidYMid meet" overflow="visible" style="display: block;" viewBox="0 0 24 24" fill="none" xmlns="http://www.w3.org/2000/svg">
<g transform="translate(2.2500, 1.2500)">
<path id="Vector" fill-rule="evenodd" clip-rule="evenodd" d="M1.5 20V1.5H4V2.75C4 3.16421 4.33579 3.5 4.75 3.5C5.16421 3.5 5.5 3.16421 5.5 2.75V1.5H14V2.75C14 3.16421 14.3358 3.5 14.75 3.5C15.1642 3.5 15.5 3.16421 15.5 2.75V1.5H18V20H15.5V18.75C15.5 18.3358 15.1642 18 14.75 18C14.3358 18 14 18.3358 14 18.75V20H5.5V18.75C5.5 18.3358 5.16421 18 4.75 18C4.33579 18 4 18.3358 4 18.75V20H1.5ZM1.35 0C0.604415 0 0 0.604416 0 1.35V20.15C0 20.8956 0.604415 21.5 1.35 21.5H18.15C18.8956 21.5 19.5 20.8956 19.5 20.15V1.35C19.5 0.604417 18.8956 0 18.15 0H1.35ZM5.26173 6.19156C5.56961 6.46865 5.59457 6.94287 5.31748 7.25075L5.30748 7.26186C5.03038 7.56975 4.55616 7.59471 4.24828 7.31761C3.9404 7.04052 3.91544 6.5663 4.19254 6.25842L4.20254 6.24731C4.47963 5.93942 4.95385 5.91446 5.26173 6.19156ZM15.2617 6.19156C15.5696 6.46865 15.5946 6.94287 15.3175 7.25075L15.3075 7.26186C15.0304 7.56975 14.5562 7.59471 14.2483 7.31761C13.9404 7.04052 13.9154 6.5663 14.1925 6.25842L14.2025 6.24731C14.4796 5.93942 14.9538 5.91446 15.2617 6.19156ZM5.31748 11.2508C5.59457 10.9429 5.56961 10.4687 5.26173 10.1916C4.95385 9.91446 4.47963 9.93942 4.20254 10.2473L4.19254 10.2584C3.91544 10.5663 3.9404 11.0405 4.24828 11.3176C4.55616 11.5947 5.03038 11.5697 5.30748 11.2619L5.31748 11.2508ZM15.2617 10.1916C15.5696 10.4687 15.5946 10.9429 15.3175 11.2508L15.3075 11.2619C15.0304 11.5697 14.5562 11.5947 14.2483 11.3176C13.9404 11.0405 13.9154 10.5663 14.1925 10.2584L14.2025 10.2473C14.4796 9.93942 14.9538 9.91446 15.2617 10.1916ZM5.31748 15.2508C5.59457 14.9429 5.56961 14.4687 5.26173 14.1916C4.95385 13.9145 4.47963 13.9394 4.20254 14.2473L4.19254 14.2584C3.91544 14.5663 3.9404 15.0405 4.24828 15.3176C4.55616 15.5947 5.03038 15.5697 5.30748 15.2619L5.31748 15.2508ZM15.2617 14.1916C15.5696 14.4687 15.5946 14.9429 15.3175 15.2508L15.3075 15.2619C15.0304 15.5697 14.5562 15.5947 14.2483 15.3176C13.9404 15.0405 13.9154 14.5663 14.1925 14.2584L14.2025 14.2473C14.4796 13.9394 14.9538 13.9145 15.2617 14.1916Z" fill="#292927"/>
</g>
</svg>
