<svg preserveAspectRatio="xMidYMid meet" overflow="visible" style="display: block;" viewBox="0 0 24 24" fill="none" xmlns="http://www.w3.org/2000/svg">
<g transform="translate(2.2500, 1.2500)">
<path id="Vector" fill-rule="evenodd" clip-rule="evenodd" d="M0.75 0C0.335786 0 0 0.335786 0 0.75V3.75C0 4.16421 0.335786 4.5 0.75 4.5C1.16421 4.5 1.5 4.16421 1.5 3.75V1.5H3.75C4.16421 1.5 4.5 1.16421 4.5 0.75C4.5 0.335786 4.16421 0 3.75 0H0.75ZM12.5 16.75C12.5 15.5074 13.5074 14.5 14.75 14.5C15.9926 14.5 17 15.5074 17 16.75C17 17.3705 16.7498 17.9311 16.3431 18.3389C15.9349 18.7481 15.3726 19 14.75 19C13.5074 19 12.5 17.9926 12.5 16.75ZM14.75 13C12.6789 13 11 14.6789 11 16.75C11 18.8211 12.6789 20.5 14.75 20.5C15.5151 20.5 16.2273 20.2703 16.8205 19.8769L18.2189 21.2795C18.5113 21.5729 18.9862 21.5736 19.2795 21.2811C19.5729 20.9887 19.5736 20.5138 19.2811 20.2205L17.8803 18.8154C18.2717 18.2232 18.5 17.5129 18.5 16.75C18.5 14.6789 16.8211 13 14.75 13ZM0.75 9C1.16421 9 1.5 9.33579 1.5 9.75V11.75C1.5 12.1642 1.16421 12.5 0.75 12.5C0.335786 12.5 0 12.1642 0 11.75V9.75C0 9.33579 0.335786 9 0.75 9ZM7.75 0C7.33579 0 7 0.335786 7 0.75C7 1.16421 7.33579 1.5 7.75 1.5H9.75C10.1642 1.5 10.5 1.16421 10.5 0.75C10.5 0.335786 10.1642 0 9.75 0H7.75ZM7 20.75C7 20.3358 7.33579 20 7.75 20H9.75C10.1642 20 10.5 20.3358 10.5 20.75C10.5 21.1642 10.1642 21.5 9.75 21.5H7.75C7.33579 21.5 7 21.1642 7 20.75ZM17.5 9.75C17.5 9.33579 17.1642 9 16.75 9C16.3358 9 16 9.33579 16 9.75V11.75C16 12.1642 16.3358 12.5 16.75 12.5C17.1642 12.5 17.5 12.1642 17.5 11.75V9.75ZM17.5 0.75C17.5 0.335786 17.1642 0 16.75 0H13.75C13.3358 0 13 0.335786 13 0.75C13 1.16421 13.3358 1.5 13.75 1.5H16V3.75C16 4.16421 16.3358 4.5 16.75 4.5C17.1642 4.5 17.5 4.16421 17.5 3.75V0.75ZM0.75 21.5C0.335786 21.5 0 21.1642 0 20.75V17.75C0 17.3358 0.335786 17 0.75 17C1.16421 17 1.5 17.3358 1.5 17.75V20H3.75C4.16421 20 4.5 20.3358 4.5 20.75C4.5 21.1642 4.16421 21.5 3.75 21.5H0.75Z" fill="#292927"/>
</g>
</svg>
