<svg preserveAspectRatio="xMidYMid meet" overflow="visible" style="display: block;" viewBox="0 0 24 24" fill="none" xmlns="http://www.w3.org/2000/svg">
<g transform="translate(1.2500, 2.2500)">
<path id="Vector" fill-rule="evenodd" clip-rule="evenodd" d="M14 6.75C14 7.44035 13.4404 8 12.75 8H8.75C8.05964 8 7.5 7.44036 7.5 6.75V2.75C7.5 2.05964 8.05964 1.5 8.75 1.5H9.99999V3.75C9.99999 4.16421 10.3358 4.5 10.75 4.5C11.1642 4.5 11.5 4.16421 11.5 3.75V1.5H12.75C13.4403 1.5 14 2.05964 14 2.75L14 6.75ZM8.75 0H10.75H12.75C14.2688 0 15.5 1.23121 15.5 2.74999L15.5 6.74999C15.5 8.26878 14.2688 9.5 12.75 9.5H8.75C7.23122 9.5 6 8.26878 6 6.75V2.75C6 1.23122 7.23122 0 8.75 0ZM7.99999 16.75C8 17.4404 7.44035 18 6.74999 18H2.75C2.05964 18 1.5 17.4404 1.5 16.75V12.75C1.5 12.0596 2.05964 11.5 2.75 11.5H3.99999V13.75C3.99999 14.1642 4.33578 14.5 4.74999 14.5C5.16421 14.5 5.49999 14.1642 5.49999 13.75V11.5H6.74998C7.44033 11.5 7.99998 12.0596 7.99998 12.75L7.99999 16.75ZM4.74999 10H6.74998C8.26876 10 9.49998 11.2312 9.49998 12.75L9.49999 16.75C9.5 18.2688 8.26878 19.5 6.74999 19.5H2.75C1.23122 19.5 0 18.2688 0 16.75V12.75C0 11.2312 1.23122 10 2.75 10H4.74999ZM18.75 18C19.4403 18 20 17.4404 20 16.75L20 12.75C20 12.0596 19.4403 11.5 18.75 11.5H17.5V13.75C17.5 14.1642 17.1642 14.5 16.75 14.5C16.3358 14.5 16 14.1642 16 13.75V11.5H14.75C14.0596 11.5 13.5 12.0596 13.5 12.75V16.75C13.5 17.4404 14.0596 18 14.75 18H18.75ZM16.75 10H14.75C13.2312 10 12 11.2312 12 12.75V16.75C12 18.2688 13.2312 19.5 14.75 19.5H18.75C20.2688 19.5 21.5 18.2688 21.5 16.75L21.5 12.75C21.5 11.2312 20.2688 10 18.75 10H16.75Z" fill="#292927"/>
</g>
</svg>
