<svg preserveAspectRatio="none" width="100%" height="100%" overflow="visible" style="display: block;" viewBox="0 0 112.304 36.68" fill="none" xmlns="http://www.w3.org/2000/svg">
<path id="Line" d="M1.00021 32.7493L5.61317 30.3801C9.54625 28.3601 12.6485 25.0275 14.382 20.96L20.2207 7.26072C20.9781 5.48371 22.2199 3.95552 23.8045 2.85071C27.3886 0.351756 32.1594 0.386372 35.7068 2.93708L35.8142 3.01427C37.2087 4.01698 38.3355 5.34692 39.0957 6.88717L47.9733 24.8764C48.7518 26.454 49.7463 27.9153 50.9282 29.2183L52.8616 31.3499C55.3626 34.1074 58.9122 35.68 62.6349 35.68C65.6128 35.68 68.5031 34.6727 70.836 32.8218L71.4425 32.3405C73.5261 30.6874 75.1465 28.5233 76.1463 26.0586L79.0811 18.8236C79.6655 17.3827 80.5885 16.104 81.772 15.0955C84.8286 12.4906 89.1765 12.0443 92.6986 13.9739L95.2693 15.3821C96.7754 16.2073 98.4212 16.7468 100.124 16.9734L111.304 18.4622" stroke="var(--stroke-0, #292927)" stroke-width="2" stroke-linecap="round"/>
</svg>
