<svg preserveAspectRatio="xMidYMid meet" overflow="visible" style="display: block;" viewBox="0 0 24 24" fill="none" xmlns="http://www.w3.org/2000/svg">
<g transform="translate(0.2500, 1.0366)">
<path id="Vector" fill-rule="evenodd" clip-rule="evenodd" d="M7.14312 3.38587C6.51553 4.43186 6.5 5.72236 6.5 6.75C6.5 7.16421 6.16421 7.5 5.75 7.5C5.03668 7.5 3.95002 7.72016 3.06323 8.35865C2.21468 8.9696 1.5 9.99444 1.5 11.75C1.5 12.9455 1.83156 13.7884 2.28739 14.3893C2.74923 14.9981 3.37419 15.4045 4.02355 15.6589C4.40923 15.81 4.59941 16.2451 4.44833 16.6308C4.29726 17.0165 3.86213 17.2067 3.47645 17.0556C2.63209 16.7248 1.75705 16.1721 1.09232 15.2958C0.42158 14.4116 0 13.2434 0 11.75C0 9.50556 0.951983 8.0304 2.18677 7.14135C3.10065 6.48336 4.14099 6.16468 5.00627 6.05083C5.03248 5.07248 5.16727 3.76348 5.85688 2.61413C6.77939 1.07662 8.56736 0 11.75 0C14.9326 0 16.7206 1.07662 17.6431 2.61413C18.3327 3.76348 18.4675 5.07248 18.4937 6.05083C19.359 6.16468 20.3993 6.48336 21.3132 7.14135C22.548 8.0304 23.5 9.50556 23.5 11.75C23.5 13.2434 23.0784 14.4116 22.4077 15.2958C21.743 16.1721 20.8679 16.7248 20.0236 17.0556C19.6379 17.2067 19.2027 17.0165 19.0517 16.6308C18.9006 16.2451 19.0908 15.81 19.4764 15.6589C20.1258 15.4045 20.7508 14.9981 21.2126 14.3893C21.6684 13.7884 22 12.9455 22 11.75C22 9.99444 21.2853 8.9696 20.4368 8.35865C19.55 7.72016 18.4633 7.5 17.75 7.5C17.3358 7.5 17 7.16421 17 6.75C17 5.72236 16.9845 4.43186 16.3569 3.38587C15.7794 2.42338 14.5674 1.5 11.75 1.5C8.93264 1.5 7.72061 2.42338 7.14312 3.38587ZM6.704 17.8251C6.73172 17.7829 6.76388 17.7433 6.80022 17.707C6.96714 17.5401 7.20292 17.4615 7.43661 17.4949L9.91149 17.8484C10.1927 17.8886 10.4271 18.0842 10.5169 18.3537C10.6068 18.6232 10.5366 18.9203 10.3358 19.1212L9.81201 19.6449C11.0889 20.7414 13.0151 20.6847 14.2249 19.475L14.5784 19.1214C14.8713 18.8285 15.3462 18.8285 15.6391 19.1214C15.932 19.4143 15.932 19.8892 15.6391 20.1821L15.2855 20.5356C13.4898 22.3314 10.614 22.3887 8.74922 20.7077L8.21443 21.2425C8.01356 21.4434 7.71643 21.5135 7.44693 21.4237C7.17743 21.3339 6.98181 21.0995 6.94164 20.8183L6.58949 18.3532C6.58603 18.3309 6.58357 18.3085 6.58213 18.286C6.57184 18.1262 6.61246 17.9638 6.704 17.8251ZM13.0429 14.7686L13.5666 14.2448C12.2898 13.1484 10.3635 13.205 9.15378 14.4148L8.80023 14.7683C8.50733 15.0612 8.03246 15.0612 7.73957 14.7683C7.44667 14.4755 7.44667 14.0006 7.73957 13.7077L8.09312 13.3541C9.88885 11.5584 12.7647 11.501 14.6294 13.182L15.1642 12.6473C15.3651 12.4464 15.6622 12.3762 15.9317 12.4661C16.2012 12.5559 16.3968 12.7903 16.437 13.0715L16.7891 15.5365C16.7927 15.5592 16.7951 15.5819 16.7966 15.6047C16.8004 15.6641 16.797 15.7233 16.787 15.781C16.7696 15.8814 16.7317 15.9789 16.6733 16.0668C16.6459 16.1081 16.6142 16.147 16.5784 16.1828C16.4115 16.3497 16.1757 16.4283 15.942 16.3949L13.4672 16.0414C13.1859 16.0012 12.9515 15.8056 12.8617 15.5361C12.7719 15.2666 12.842 14.9694 13.0429 14.7686Z" fill="#292927"/>
</g>
</svg>
