<svg preserveAspectRatio="xMidYMid meet" overflow="visible" style="display: block;" viewBox="0 0 24 24" fill="none" xmlns="http://www.w3.org/2000/svg">
<g transform="translate(3.0025, 3.3801)">
<path id="Vector" fill-rule="evenodd" clip-rule="evenodd" d="M7.01087 1.14934C7.89203 -0.38311 10.103 -0.383115 10.9842 1.14934L17.6866 12.8058C18.5651 14.3336 17.4623 16.2398 15.7 16.2398H2.29507C0.532745 16.2398 -0.570058 14.3336 0.308412 12.8058L7.01087 1.14934ZM9.90055 1.77242C9.50003 1.07586 8.49503 1.07586 8.0945 1.77243L1.39205 13.4289C0.992741 14.1233 1.49401 14.9898 2.29507 14.9898H15.7C16.501 14.9898 17.0023 14.1233 16.603 13.4289L9.90055 1.77242ZM8.99753 4.98983C9.34271 4.98983 9.62253 5.26965 9.62253 5.61483V8.94816C9.62253 9.29334 9.34271 9.57316 8.99753 9.57316C8.65235 9.57316 8.37253 9.29334 8.37253 8.94816V5.61483C8.37253 5.26965 8.65235 4.98983 8.99753 4.98983ZM9.47042 12.6988C9.70133 12.4422 9.68053 12.047 9.42396 11.8161C9.16739 11.5852 8.77221 11.606 8.5413 11.8626L8.53297 11.8718C8.30206 12.1284 8.32285 12.5236 8.57942 12.7545C8.83599 12.9854 9.23117 12.9646 9.46209 12.708L9.47042 12.6988Z" fill="#292927"/>
</g>
</svg>
