<svg preserveAspectRatio="xMidYMid meet" overflow="visible" style="display: block;" viewBox="0 0 24 24" fill="none" xmlns="http://www.w3.org/2000/svg">
<g transform="translate(3.2500, 2.2500)">
<path id="Vector" fill-rule="evenodd" clip-rule="evenodd" d="M1.35 0C0.604417 0 0 0.604415 0 1.35V3.75C0 4.16421 0.335786 4.5 0.75 4.5C1.16421 4.5 1.5 4.16421 1.5 3.75V1.5H16V3.75C16 4.16421 16.3358 4.5 16.75 4.5C17.1642 4.5 17.5 4.16421 17.5 3.75V1.35C17.5 0.604415 16.8956 0 16.15 0H1.35ZM1.35 19.5C0.604417 19.5 0 18.8956 0 18.15V15.75C0 15.3358 0.335786 15 0.75 15C1.16421 15 1.5 15.3358 1.5 15.75V18H16V15.75C16 15.3358 16.3358 15 16.75 15C17.1642 15 17.5 15.3358 17.5 15.75V18.15C17.5 18.8956 16.8956 19.5 16.15 19.5H1.35ZM13.25 6C13.6642 6 14 6.33579 14 6.75V9.57295L14.0792 9.41459C14.2062 9.1605 14.4659 9 14.75 9C15.0341 9 15.2938 9.1605 15.4208 9.41459L15.5 9.57295V6.75C15.5 6.33579 15.8358 6 16.25 6C16.6642 6 17 6.33579 17 6.75V12.75C17 13.0978 16.7608 13.4 16.4223 13.4799C16.0838 13.5599 15.7347 13.3965 15.5792 13.0854L14.75 11.4271L13.9208 13.0854C13.7653 13.3965 13.4162 13.5599 13.0777 13.4799C12.7392 13.4 12.5 13.0978 12.5 12.75V6.75C12.5 6.33579 12.8358 6 13.25 6ZM11 8.25C11 7.00736 9.99264 6 8.75 6C7.50736 6 6.5 7.00736 6.5 8.25V12.75C6.5 13.1642 6.83579 13.5 7.25 13.5C7.66421 13.5 8 13.1642 8 12.75V10.5H9.5V12.75C9.5 13.1642 9.83579 13.5 10.25 13.5C10.6642 13.5 11 13.1642 11 12.75V8.25ZM9.5 8.25V9H8V8.25C8 7.83579 8.33579 7.5 8.75 7.5C9.16421 7.5 9.5 7.83579 9.5 8.25ZM3.65 6C4.39558 6 5 6.60442 5 7.35V8.25C5 8.82627 4.78336 9.35193 4.42708 9.75C4.78336 10.1481 5 10.6737 5 11.25V12.75C5 13.1642 4.66421 13.5 4.25 13.5C3.83579 13.5 3.5 13.1642 3.5 12.75V11.25C3.5 10.8358 3.16421 10.5 2.75 10.5H2V12.75C2 13.1642 1.66421 13.5 1.25 13.5C0.835786 13.5 0.5 13.1642 0.5 12.75V9.75V6.75C0.5 6.55109 0.579018 6.36032 0.71967 6.21967C0.860322 6.07902 1.05109 6 1.25 6H3.65ZM2 9V7.5H3.5V8.25C3.5 8.66421 3.16421 9 2.75 9H2Z" fill="#292927"/>
</g>
</svg>
