<svg preserveAspectRatio="xMidYMid meet" overflow="visible" style="display: block;" viewBox="0 0 24 24" fill="none" xmlns="http://www.w3.org/2000/svg">
<g transform="translate(2.2500, 1.3364)">
<path id="Vector" fill-rule="evenodd" clip-rule="evenodd" d="M9.0944 21.1574L0.694401 16.4907C0.265823 16.2526 1.90735e-05 15.8009 1.90735e-05 15.3106L0 6.01667C0 5.52639 0.265804 5.07465 0.694384 4.83655L9.0944 0.169887C9.50213 -0.0566282 9.99791 -0.0566301 10.4056 0.169888L18.8056 4.83655C19.2342 5.07465 19.5 5.52639 19.5 6.01666L19.5 15.3106C19.5 15.8009 19.2342 16.2526 18.8056 16.4907L10.4056 21.1574C9.99791 21.3839 9.50213 21.3839 9.0944 21.1574ZM10.5 19.389L18 15.2223L18 6.93849L10.5 11.1052V19.389ZM8.99999 19.389L1.50002 15.2223L1.5 6.93852L8.99999 11.1052V19.389ZM9.74999 9.8059L17.2059 5.66374L9.75002 1.52159L2.29412 5.66375L9.74999 9.8059Z" fill="#292927"/>
</g>
</svg>
