<svg preserveAspectRatio="xMidYMid meet" overflow="visible" style="display: block;" viewBox="0 0 24 24" fill="none" xmlns="http://www.w3.org/2000/svg">
<g transform="translate(3.2500, 4.5000)">
<path id="Vector" fill-rule="evenodd" clip-rule="evenodd" d="M13.7803 8.28033L17.2803 4.78033C17.5732 4.48744 17.5732 4.01256 17.2803 3.71967L13.7803 0.21967C13.4874 -0.0732233 13.0126 -0.0732233 12.7197 0.21967C12.4268 0.512563 12.4268 0.987437 12.7197 1.28033L14.9393 3.5H5.75L5.74865 3.5L5.74758 3.5L5.74631 3.50001L5.74077 3.50004L5.72427 3.50023C5.7109 3.50043 5.69281 3.50081 5.67033 3.50152C5.62538 3.50293 5.56272 3.50565 5.48485 3.51088C5.32936 3.52133 5.11179 3.54192 4.85252 3.58259C4.3377 3.66335 3.63903 3.82627 2.93065 4.15962C2.22041 4.49385 1.48076 5.00903 0.919231 5.80178C0.352745 6.60153 0 7.63848 0 8.95588C0 10.4022 0.343123 11.5371 0.896576 12.4162C1.44835 13.2925 2.18194 13.8714 2.89908 14.2511C3.61245 14.6287 4.31749 14.8139 4.83841 14.9059C5.10055 14.9521 5.32077 14.9756 5.4786 14.9875C5.55764 14.9935 5.62141 14.9966 5.66739 14.9982C5.6904 14.9991 5.70899 14.9995 5.72285 14.9997L5.74007 15L5.74596 15L5.75 15V14.25C5.75 14.9936 5.75042 14.9999 5.75001 15H14.4643C14.8785 15 15.2143 14.6642 15.2143 14.25C15.2143 13.8358 14.8785 13.5 14.4643 13.5H5.7522H5.75072L5.74846 13.4999L5.73731 13.4997L5.7203 13.4992C5.69304 13.4982 5.64939 13.4962 5.59172 13.4918C5.4761 13.4831 5.3057 13.4652 5.09909 13.4287C4.68251 13.3552 4.13755 13.2095 3.60092 12.9254C3.06806 12.6433 2.55165 12.2296 2.16593 11.6169C1.78188 11.007 1.5 10.1567 1.5 8.95588C1.5 7.92034 1.77225 7.19259 2.14327 6.66881C2.51924 6.13803 3.02959 5.77086 3.56935 5.51685C4.11097 5.26197 4.6623 5.13077 5.08498 5.06447C5.29446 5.03161 5.46752 5.01543 5.58546 5.0075C5.64431 5.00355 5.68907 5.00167 5.71737 5.00078L5.74704 5.00006L5.75063 5L5.75173 5H14.9393L12.7197 7.21967C12.4268 7.51256 12.4268 7.98744 12.7197 8.28033C13.0126 8.57322 13.4874 8.57322 13.7803 8.28033Z" fill="#292927"/>
</g>
</svg>
