<svg preserveAspectRatio="xMidYMid meet" overflow="visible" style="display: block;" viewBox="0 0 24 24" fill="none" xmlns="http://www.w3.org/2000/svg">
<g transform="translate(2.0000, 1.5079)">
<path id="Vector" fill-rule="evenodd" clip-rule="evenodd" d="M7 0C6.58579 0 6.25 0.335786 6.25 0.75C6.25 1.16421 6.58579 1.5 7 1.5C7.88337 1.5 8.38579 1.71916 8.68944 2.06077C8.93448 2.33644 9.13134 2.7812 9.21134 3.49566C3.65204 1.76785 0 2.15041 0 10.7501C0 19.7501 5 21.75 10 20.7501C15 21.75 20 19.7501 20 10.7501C20 2.18055 15.4669 1.77063 10.717 3.47757C10.6279 2.49549 10.3522 1.67356 9.81056 1.06423C9.11421 0.280836 8.11663 0 7 0ZM10.2942 19.2792L10 19.2204L9.70584 19.2792C7.45254 19.7298 5.46514 19.4512 4.06204 18.3287C2.67625 17.2201 1.5 14.9981 1.5 10.7501C1.5 6.30375 2.51584 4.91918 3.42082 4.46669C3.93454 4.20983 4.66792 4.1015 5.73431 4.22455C6.79797 4.34728 8.05667 4.68343 9.52565 5.1731L10.0469 5.34687L10.5571 5.14279C13.0205 4.15741 14.9818 3.89687 16.2407 4.48433C17.3043 4.98068 18.5 6.43659 18.5 10.7501C18.5 14.9981 17.3238 17.2201 15.938 18.3287C14.5349 19.4512 12.5475 19.7298 10.2942 19.2792Z" fill="#292927"/>
</g>
</svg>
