<svg preserveAspectRatio="xMidYMid meet" overflow="visible" style="display: block;" viewBox="0 0 24 24" fill="none" xmlns="http://www.w3.org/2000/svg">
<g transform="translate(3.2500, 1.2500)">
<path id="Vector" fill-rule="evenodd" clip-rule="evenodd" d="M14.75 20C15.4404 20 16 19.4404 16 18.75V9.31044L9.71852 14.3356C9.39507 14.5944 8.9231 14.5419 8.66435 14.2185C8.40559 13.895 8.45803 13.4231 8.78148 13.1643L16 7.3895V5.35125L11.2301 9.32615C10.9119 9.59132 10.439 9.54833 10.1738 9.23012C9.90865 8.91191 9.95164 8.43899 10.2698 8.17382L16 3.39869V2.75C16 2.05964 15.4404 1.5 14.75 1.5H2.75C2.05964 1.5 1.5 2.05964 1.5 2.75V18.75C1.5 19.4404 2.05964 20 2.75 20H14.75ZM17.5 7.74333V3.75291V3.74625V2.75C17.5 1.23122 16.2688 0 14.75 0H2.75C1.23122 0 0 1.23122 0 2.75V18.75C0 20.2688 1.23122 21.5 2.75 21.5H14.75C16.2688 21.5 17.5 20.2688 17.5 18.75V7.75566C17.5 7.75155 17.5 7.74744 17.5 7.74333Z" fill="#292927"/>
</g>
</svg>
