<svg preserveAspectRatio="xMidYMid meet" overflow="visible" style="display: block;" viewBox="0 0 24 24" fill="none" xmlns="http://www.w3.org/2000/svg">
<g transform="translate(1.2500, 2.2500)">
<path id="Vector" fill-rule="evenodd" clip-rule="evenodd" d="M3.75 1.5C2.50736 1.5 1.5 2.50736 1.5 3.75V15.75C1.5 16.9926 2.50736 18 3.75 18H5.75C6.99264 18 8 16.9926 8 15.75V9.75V3.75C8 2.50736 6.99264 1.5 5.75 1.5H3.75ZM9.5 9V3.75C9.5 1.67893 7.82107 0 5.75 0H3.75C1.67893 0 0 1.67893 0 3.75V15.75C0 17.8211 1.67893 19.5 3.75 19.5H5.75C7.82107 19.5 9.5 17.8211 9.5 15.75V10.5H14.9393L13.2197 12.2197C12.9268 12.5126 12.9268 12.9874 13.2197 13.2803C13.5126 13.5732 13.9874 13.5732 14.2803 13.2803L17.2803 10.2803C17.5732 9.98744 17.5732 9.51256 17.2803 9.21967L14.2803 6.21967C13.9874 5.92678 13.5126 5.92678 13.2197 6.21967C12.9268 6.51256 12.9268 6.98744 13.2197 7.28033L14.9393 9H9.5ZM14 0.75C14 0.335786 14.3358 0 14.75 0H16.75C19.3734 0 21.5 2.12665 21.5 4.75V14.75C21.5 17.3734 19.3734 19.5 16.75 19.5H14.75C14.3358 19.5 14 19.1642 14 18.75C14 18.3358 14.3358 18 14.75 18H16.75C18.5449 18 20 16.5449 20 14.75V4.75C20 2.95507 18.5449 1.5 16.75 1.5H14.75C14.3358 1.5 14 1.16421 14 0.75Z" fill="#292927"/>
</g>
</svg>
