<svg preserveAspectRatio="xMidYMid meet" overflow="visible" style="display: block;" viewBox="0 0 24 24" fill="none" xmlns="http://www.w3.org/2000/svg">
<g transform="translate(0.2500, 4.7500)">
<path id="Vector" fill-rule="evenodd" clip-rule="evenodd" d="M0.75 0C0.335786 0 0 0.335786 0 0.75C0 1.16421 0.335786 1.5 0.75 1.5H14V3.75V11H10.3965C10.07 9.84575 9.00878 9 7.75 9C6.49122 9 5.42998 9.84575 5.10352 11H3.5V6.25C3.5 5.83579 3.16421 5.5 2.75 5.5C2.33579 5.5 2 5.83579 2 6.25V11.15C2 11.8956 2.60442 12.5 3.35 12.5H5.10352C5.42998 13.6543 6.49122 14.5 7.75 14.5C9.00878 14.5 10.07 13.6543 10.3965 12.5H14.75H15.1035C15.43 13.6543 16.4912 14.5 17.75 14.5C19.0088 14.5 20.07 13.6543 20.3965 12.5H22.15C22.8956 12.5 23.5 11.8956 23.5 11.15V8.37733C23.5 8.18844 23.4604 8.00165 23.3836 7.82904L21.5937 3.80171C21.377 3.31419 20.8936 3 20.3601 3H15.5V1.35C15.5 0.604416 14.8956 0 14.15 0H0.75ZM16.5 11.75C16.5 12.4404 17.0596 13 17.75 13C18.4404 13 19 12.4404 19 11.75C19 11.0596 18.4404 10.5 17.75 10.5C17.0596 10.5 16.5 11.0596 16.5 11.75ZM15.5 10.1685V4.5H20.2626L22 8.40916V11H20.3965C20.07 9.84575 19.0088 9 17.75 9C16.8199 9 15.9977 9.46172 15.5 10.1685ZM7.75 10.5C7.05964 10.5 6.5 11.0596 6.5 11.75C6.5 12.4404 7.05964 13 7.75 13C8.44036 13 9 12.4404 9 11.75C9 11.0596 8.44036 10.5 7.75 10.5ZM1.75 3C1.33579 3 1 3.33579 1 3.75C1 4.16421 1.33579 4.5 1.75 4.5H5.75C6.16421 4.5 6.5 4.16421 6.5 3.75C6.5 3.33579 6.16421 3 5.75 3H1.75Z" fill="#292927"/>
</g>
</svg>
