<svg preserveAspectRatio="xMidYMid meet" overflow="visible" style="display: block;" viewBox="0 0 24 24" fill="none" xmlns="http://www.w3.org/2000/svg">
<g transform="translate(3.2500, 1.2500)">
<path id="Vector" fill-rule="evenodd" clip-rule="evenodd" d="M1.5 1.5V20H16V5.5H13.35C12.6044 5.5 12 4.89558 12 4.15V1.5H1.5ZM12.75 0H1.35C0.604417 0 0 0.604415 0 1.35V20.15C0 20.8956 0.604415 21.5 1.35 21.5H16.15C16.8956 21.5 17.5 20.8956 17.5 20.15V4.75V4.49853C17.5 4.14048 17.3578 3.79711 17.1046 3.54393L13.9561 0.395406C13.7029 0.142232 13.3595 0 13.0015 0H12.75ZM13.5 2.06066V4H15.4393L13.5 2.06066ZM4 8.75C4 8.33579 4.33579 8 4.75 8L12.75 8C13.1642 8 13.5 8.33579 13.5 8.75C13.5 9.16421 13.1642 9.5 12.75 9.5L4.75 9.5C4.33579 9.5 4 9.16421 4 8.75ZM4.75 16C4.33579 16 4 16.3358 4 16.75C4 17.1642 4.33579 17.5 4.75 17.5H12.75C13.1642 17.5 13.5 17.1642 13.5 16.75C13.5 16.3358 13.1642 16 12.75 16H4.75ZM4 12.75C4 12.3358 4.33579 12 4.75 12H8.75C9.16421 12 9.5 12.3358 9.5 12.75C9.5 13.1642 9.16421 13.5 8.75 13.5H4.75C4.33579 13.5 4 13.1642 4 12.75Z" fill="#292927"/>
</g>
</svg>
