<svg preserveAspectRatio="xMidYMid meet" overflow="visible" style="display: block;" viewBox="0 0 24 24" fill="none" xmlns="http://www.w3.org/2000/svg">
<g transform="translate(2.2500, 2.7500)">
<path id="Vector" fill-rule="evenodd" clip-rule="evenodd" d="M12.5 3.25C12.5 2.2835 13.2835 1.5 14.25 1.5C15.2165 1.5 16 2.2835 16 3.25C16 4.2165 15.2165 5 14.25 5C13.2835 5 12.5 4.2165 12.5 3.25ZM14.25 0C12.4551 0 11 1.45507 11 3.25C11 5.04493 12.4551 6.5 14.25 6.5C16.0449 6.5 17.5 5.04493 17.5 3.25C17.5 1.45507 16.0449 0 14.25 0ZM6.94107 3.15091C6.76674 2.94172 6.45908 2.90578 6.24123 3.06917C6.01023 3.24242 5.96833 3.57242 6.14871 3.7979L7.33565 5.28157C7.46937 5.44871 7.52529 5.66503 7.48935 5.87604C7.4534 6.08705 7.32901 6.27264 7.1475 6.38609L3.1475 8.88609C2.79625 9.10562 2.33353 8.99884 2.114 8.64759C1.89447 8.29634 2.00125 7.83362 2.3525 7.61409L5.63799 5.56066L4.97741 4.73494C4.26804 3.84823 4.4328 2.55049 5.34123 1.86917C6.19793 1.22664 7.40784 1.36796 8.0934 2.19064L12.3262 7.26995C12.5913 7.58816 12.5483 8.06108 12.2301 8.32626C11.9119 8.59143 11.439 8.54844 11.1738 8.23023L6.94107 3.15091ZM5.09483 9C5.35385 9 5.59493 9.13433 5.73185 9.35414L5.73366 9.357L5.74567 9.37571C5.75711 9.39335 5.7753 9.42101 5.79994 9.45726C5.84928 9.52984 5.92415 9.63636 6.02209 9.76546C6.21891 10.0249 6.50403 10.3691 6.85747 10.7108C7.58885 11.4178 8.49399 12 9.43966 12C10.4108 12 11.4792 11.394 12.383 10.6659C12.8181 10.3154 13.1828 9.96301 13.4389 9.6978C13.5665 9.56566 13.6659 9.45635 13.7325 9.38132C13.7657 9.34383 13.7907 9.315 13.8067 9.29625L13.824 9.2759L13.8276 9.27158C13.9701 9.09956 14.1818 9 14.4052 9C14.6285 9 14.8403 9.09955 14.9827 9.27154L14.9834 9.27232L14.9873 9.27702L15.0055 9.29853C15.022 9.31806 15.0474 9.3477 15.0808 9.38601C15.1476 9.46269 15.2464 9.57375 15.3711 9.70769C15.6214 9.97653 15.9717 10.3327 16.3744 10.6866C16.7797 11.0428 17.2221 11.3824 17.6563 11.6293C18.1015 11.8825 18.472 12 18.75 12C19.1642 12 19.5 12.3358 19.5 12.75C19.5 13.1642 19.1642 13.5 18.75 13.5C18.097 13.5 17.4588 13.2425 16.9148 12.9332C16.3598 12.6176 15.8324 12.2072 15.3842 11.8134C14.9982 11.4742 14.6592 11.1367 14.398 10.8623C14.121 11.1419 13.7544 11.4873 13.3239 11.8341C12.3657 12.606 10.9513 13.5 9.43966 13.5C7.90256 13.5 6.63529 12.5822 5.81494 11.7892C5.53491 11.5185 5.29304 11.249 5.09483 11.0097C4.89661 11.249 4.65475 11.5185 4.37471 11.7892C3.55437 12.5822 2.28709 13.5 0.75 13.5C0.335786 13.5 0 13.1642 0 12.75C0 12.3358 0.335786 12 0.75 12C1.69566 12 2.6008 11.4178 3.33218 10.7108C3.68563 10.3691 3.97075 10.0249 4.16757 9.76546C4.26551 9.63636 4.34038 9.52984 4.38972 9.45726C4.41436 9.42101 4.43255 9.39335 4.44398 9.37571L4.456 9.357L4.45781 9.35414C4.59465 9.13393 4.83554 9 5.09483 9ZM5.09483 14C5.35385 14 5.59493 14.1343 5.73185 14.3541L5.73366 14.357L5.74567 14.3757C5.75711 14.3933 5.7753 14.421 5.79994 14.4573C5.84928 14.5298 5.92415 14.6364 6.02209 14.7655C6.21891 15.0249 6.50403 15.3691 6.85747 15.7108C7.58885 16.4178 8.49399 17 9.43966 17C10.4108 17 11.4792 16.394 12.383 15.6659C12.8181 15.3154 13.1828 14.963 13.4389 14.6978C13.5665 14.5657 13.6659 14.4564 13.7325 14.3813C13.7657 14.3438 13.7907 14.315 13.8067 14.2962L13.824 14.2759L13.8276 14.2716C13.9701 14.0996 14.1818 14 14.4052 14C14.6285 14 14.8403 14.0996 14.9827 14.2715L14.9834 14.2723L14.9873 14.277L15.0055 14.2985C15.022 14.3181 15.0474 14.3477 15.0808 14.386C15.1476 14.4627 15.2464 14.5737 15.3711 14.7077C15.6214 14.9765 15.9717 15.3327 16.3744 15.6866C16.7797 16.0428 17.2221 16.3824 17.6563 16.6293C18.1015 16.8825 18.472 17 18.75 17C19.1642 17 19.5 17.3358 19.5 17.75C19.5 18.1642 19.1642 18.5 18.75 18.5C18.097 18.5 17.4588 18.2425 16.9148 17.9332C16.3598 17.6176 15.8324 17.2072 15.3842 16.8134C14.9982 16.4742 14.6592 16.1367 14.398 15.8623C14.121 16.1419 13.7544 16.4873 13.3239 16.8341C12.3657 17.606 10.9513 18.5 9.43966 18.5C7.90256 18.5 6.63529 17.5822 5.81494 16.7892C5.53491 16.5185 5.29304 16.249 5.09483 16.0097C4.89661 16.249 4.65475 16.5185 4.37471 16.7892C3.55437 17.5822 2.28709 18.5 0.75 18.5C0.335786 18.5 0 18.1642 0 17.75C0 17.3358 0.335786 17 0.75 17C1.69566 17 2.6008 16.4178 3.33218 15.7108C3.68563 15.3691 3.97075 15.0249 4.16757 14.7655C4.26551 14.6364 4.34038 14.5298 4.38972 14.4573C4.41436 14.421 4.43255 14.3933 4.44398 14.3757L4.456 14.357L4.45781 14.3541C4.59465 14.1339 4.83554 14 5.09483 14Z" fill="#292927"/>
</g>
</svg>
