<svg preserveAspectRatio="xMidYMid meet" overflow="visible" style="display: block;" viewBox="0 0 24 24" fill="none" xmlns="http://www.w3.org/2000/svg">
<g transform="translate(2.2500, 4.9998)">
<path id="Vector" fill-rule="evenodd" clip-rule="evenodd" d="M11.4522 0.027968C11.8511 0.139652 12.0839 0.553541 11.9722 0.952413L8.47223 13.4524C8.36055 13.8513 7.94666 14.0841 7.54779 13.9724C7.14891 13.8607 6.9161 13.4468 7.02778 13.048L10.5278 0.547969C10.6395 0.149096 11.0534 -0.0837163 11.4522 0.027968ZM0.21967 7.28033C-0.0732233 6.98744 -0.0732233 6.51256 0.21967 6.21967L3.71967 2.71967C4.01256 2.42678 4.48744 2.42678 4.78033 2.71967C5.07322 3.01256 5.07322 3.48744 4.78033 3.78033L1.81066 6.75L4.78033 9.71967C5.07322 10.0126 5.07322 10.4874 4.78033 10.7803C4.48744 11.0732 4.01256 11.0732 3.71967 10.7803L0.21967 7.28033ZM15.7803 2.71967L19.2803 6.21967C19.5732 6.51256 19.5732 6.98744 19.2803 7.28033L15.7803 10.7803C15.4874 11.0732 15.0126 11.0732 14.7197 10.7803C14.4268 10.4874 14.4268 10.0126 14.7197 9.71967L17.6893 6.75L14.7197 3.78033C14.4268 3.48744 14.4268 3.01256 14.7197 2.71967C15.0126 2.42678 15.4874 2.42678 15.7803 2.71967Z" fill="#292927"/>
</g>
</svg>
