<svg preserveAspectRatio="xMidYMid meet" overflow="visible" style="display: block;" viewBox="0 0 24 24" fill="none" xmlns="http://www.w3.org/2000/svg">
<g transform="translate(2.2500, 2.2500)">
<path id="Vector" fill-rule="evenodd" clip-rule="evenodd" d="M1.5 1.5V18H18V1.5H1.5ZM0 1.35C0 0.604415 0.604417 0 1.35 0H18.15C18.8956 0 19.5 0.604417 19.5 1.35V18.15C19.5 18.8956 18.8956 19.5 18.15 19.5H1.35C0.604415 19.5 0 18.8956 0 18.15V1.35ZM5.25 4C5.94036 4 6.5 4.55964 6.5 5.25C6.5 5.94036 5.94036 6.5 5.25 6.5C4.55964 6.5 4 5.94036 4 5.25C4 4.55964 4.55964 4 5.25 4ZM14.25 4C14.9404 4 15.5 4.55964 15.5 5.25C15.5 5.94036 14.9404 6.5 14.25 6.5C13.5596 6.5 13 5.94036 13 5.25C13 4.55964 13.5596 4 14.25 4ZM5.25 8.5C5.94036 8.5 6.5 9.05964 6.5 9.75C6.5 10.4404 5.94036 11 5.25 11C4.55964 11 4 10.4404 4 9.75C4 9.05964 4.55964 8.5 5.25 8.5ZM14.25 8.5C14.9404 8.5 15.5 9.05964 15.5 9.75C15.5 10.4404 14.9404 11 14.25 11C13.5596 11 13 10.4404 13 9.75C13 9.05964 13.5596 8.5 14.25 8.5ZM5.25 13C5.94036 13 6.5 13.5596 6.5 14.25C6.5 14.9404 5.94036 15.5 5.25 15.5C4.55964 15.5 4 14.9404 4 14.25C4 13.5596 4.55964 13 5.25 13ZM14.25 13C14.9404 13 15.5 13.5596 15.5 14.25C15.5 14.9404 14.9404 15.5 14.25 15.5C13.5596 15.5 13 14.9404 13 14.25C13 13.5596 13.5596 13 14.25 13Z" fill="#292927"/>
</g>
</svg>
