<svg preserveAspectRatio="xMidYMid meet" overflow="visible" style="display: block;" viewBox="0 0 24 24" fill="none" xmlns="http://www.w3.org/2000/svg">
<g transform="translate(2.2500, 2.2500)">
<path id="Vector" fill-rule="evenodd" clip-rule="evenodd" d="M1.5 1.5V18H18V1.5H1.5ZM0 1.35C0 0.604415 0.604417 0 1.35 0H18.15C18.8956 0 19.5 0.604417 19.5 1.35V18.15C19.5 18.8956 18.8956 19.5 18.15 19.5H1.35C0.604415 19.5 0 18.8956 0 18.15V1.35ZM8.40849 9.1954C8.18323 9.03981 8 8.78486 8 8.25C8 7.38851 8.23639 7.01348 8.46086 6.82743C8.71399 6.6176 9.1262 6.5 9.75 6.5C10.3738 6.5 10.786 6.6176 11.0391 6.82743C11.2636 7.01348 11.5 7.38851 11.5 8.25C11.5 8.78486 11.3168 9.03981 11.0915 9.1954C10.8188 9.38377 10.3713 9.5 9.75 9.5C9.1287 9.5 8.68119 9.38377 8.40849 9.1954ZM7.55598 10.4296C8.1881 10.8662 8.99059 11 9.75 11C10.3174 11 10.9088 10.9253 11.4353 10.7055C11.435 10.7073 11.4348 10.7091 11.4346 10.7109C11.3707 11.2649 11.2504 11.668 11.0566 11.9694C10.7093 12.5097 9.93136 13 7.75 13C7.33579 13 7 13.3358 7 13.75C7 14.1642 7.33579 14.5 7.75 14.5C10.0686 14.5 11.5407 13.9903 12.3184 12.7806C12.6871 12.207 12.848 11.5476 12.9247 10.8828C13 10.2304 13 9.50669 13 8.77795V8.75C13 8.69594 12.9943 8.64322 12.9834 8.59241C12.9944 8.4816 13 8.36743 13 8.25C13 7.11149 12.6767 6.23652 11.9964 5.67257C11.3447 5.1324 10.5069 5 9.75 5C8.99309 5 8.15529 5.1324 7.50361 5.67257C6.82325 6.23652 6.5 7.11149 6.5 8.25C6.5 9.21514 6.87642 9.96019 7.55598 10.4296Z" fill="#292927"/>
</g>
</svg>
