<svg preserveAspectRatio="xMidYMid meet" overflow="visible" style="display: block;" viewBox="0 0 24 24" fill="none" xmlns="http://www.w3.org/2000/svg">
<g transform="translate(1.2500, 3.2500)">
<path id="Vector" fill-rule="evenodd" clip-rule="evenodd" d="M18.5 0.75C18.5 1.16421 18.1642 1.5 17.75 1.5L3.75 1.5C3.33579 1.5 3 1.16422 3 0.750002C3 0.335788 3.33579 0 3.75 0H17.75C18.1642 0 18.5 0.335786 18.5 0.75ZM21.5 16.75C21.5 17.1642 21.1642 17.5 20.75 17.5L0.75 17.5C0.335787 17.5 0 17.1642 0 16.75C0 16.3358 0.335787 16 0.75 16L20.75 16C21.1642 16 21.5 16.3358 21.5 16.75ZM2.31748 13.2508C2.59457 12.9429 2.56961 12.4687 2.26173 12.1916C1.95385 11.9145 1.47963 11.9394 1.20254 12.2473L1.19254 12.2584C0.915442 12.5663 0.9404 13.0405 1.24828 13.3176C1.55616 13.5947 2.03038 13.5697 2.30748 13.2619L2.31748 13.2508ZM19.248 12.1916C18.9402 12.4687 18.9152 12.9429 19.1923 13.2508L19.2023 13.2619C19.4794 13.5697 19.9536 13.5947 20.2615 13.3176C20.5694 13.0405 20.5943 12.5663 20.3172 12.2584L20.3072 12.2473C20.0301 11.9394 19.5559 11.9145 19.248 12.1916ZM3.31748 9.25075C3.59457 8.94287 3.56961 8.46865 3.26173 8.19156C2.95385 7.91446 2.47963 7.93942 2.20254 8.24731L2.19254 8.25842C1.91544 8.5663 1.9404 9.04052 2.24828 9.31761C2.55616 9.59471 3.03038 9.56975 3.30748 9.26186L3.31748 9.25075ZM18.248 8.19156C17.9402 8.46865 17.9152 8.94287 18.1923 9.25075L18.2023 9.26186C18.4794 9.56975 18.9536 9.59471 19.2615 9.31761C19.5694 9.04052 19.5943 8.5663 19.3172 8.25842L19.3072 8.24731C19.0301 7.93942 18.5559 7.91446 18.248 8.19156ZM4.31748 5.25075C4.59457 4.94287 4.56961 4.46865 4.26173 4.19156C3.95385 3.91447 3.47963 3.93942 3.20254 4.24731L3.19254 4.25842C2.91544 4.5663 2.9404 5.04052 3.24828 5.31761C3.55616 5.59471 4.03038 5.56975 4.30748 5.26186L4.31748 5.25075ZM17.248 4.19156C16.9402 4.46865 16.9152 4.94287 17.1923 5.25075L17.2023 5.26186C17.4794 5.56975 17.9536 5.59471 18.2615 5.31761C18.5694 5.04052 18.5943 4.5663 18.3172 4.25842L18.3072 4.24731C18.0301 3.93942 17.5559 3.91447 17.248 4.19156ZM11.2803 14.2803C10.9874 14.5732 10.5126 14.5732 10.2197 14.2803L7.21967 11.2803C6.92678 10.9874 6.92678 10.5126 7.21967 10.2197C7.51256 9.92678 7.98744 9.92678 8.28033 10.2197L10 11.9393V5.56066L9.78033 5.78033C9.48744 6.07322 9.01256 6.07322 8.71967 5.78033C8.42678 5.48744 8.42678 5.01256 8.71967 4.71967L10.2197 3.21967C10.5126 2.92678 10.9874 2.92678 11.2803 3.21967L12.7803 4.71967C13.0732 5.01256 13.0732 5.48744 12.7803 5.78033C12.4874 6.07322 12.0126 6.07322 11.7197 5.78033L11.5 5.56066V11.9393L13.2197 10.2197C13.5126 9.92678 13.9874 9.92678 14.2803 10.2197C14.5732 10.5126 14.5732 10.9874 14.2803 11.2803L11.2803 14.2803Z" fill="#292927"/>
</g>
</svg>
