<svg preserveAspectRatio="xMidYMid meet" overflow="visible" style="display: block;" viewBox="0 0 24 24" fill="none" xmlns="http://www.w3.org/2000/svg">
<g transform="translate(2.2500, 3.2500)">
<path id="Vector" fill-rule="evenodd" clip-rule="evenodd" d="M18.537 0.0571123C18.8173 0.173198 19 0.446675 19 0.750022V4.75002C19 5.16424 18.6642 5.50002 18.25 5.50002C17.8358 5.50002 17.5 5.16424 17.5 4.75002V2.56068L17.2803 2.78035C16.9874 3.07325 16.5126 3.07325 16.2197 2.78035C15.9268 2.48746 15.9268 2.01259 16.2197 1.71969L17.7197 0.219692C17.9342 0.00519333 18.2568 -0.0589735 18.537 0.0571123ZM0 2.75C0 2.33579 0.335786 2 0.75 2L12.75 2C13.1642 2 13.5 2.33579 13.5 2.75C13.5 3.16421 13.1642 3.5 12.75 3.5L0.75 3.5C0.335786 3.5 0 3.16421 0 2.75ZM17.75 7C16.9724 7 16.4759 7.3742 16.2213 7.82674C16.0022 8.21637 16 8.59316 16 8.63889V8.86111C16 9.27533 16.3358 9.61111 16.75 9.61111C17.1642 9.61111 17.5 9.27532 17.5 8.86111V8.65624L17.5015 8.64573L17.5028 8.63822C17.508 8.61049 17.5171 8.58265 17.5287 8.56214C17.5377 8.54609 17.5448 8.53971 17.5542 8.53411C17.5629 8.52894 17.6144 8.5 17.75 8.5C17.8488 8.5 17.9023 8.51552 17.9256 8.52455L17.9306 8.52659L16.1191 11.3444C15.9708 11.5752 15.9602 11.8686 16.0917 12.1094C16.2232 12.3502 16.4756 12.5 16.75 12.5H18.75C19.1642 12.5 19.5 12.1642 19.5 11.75C19.5 11.3358 19.1642 11 18.75 11H18.1237L19.2856 9.19269C19.4144 8.99228 19.5421 8.67327 19.4591 8.30121C19.4121 8.09054 19.2986 7.76029 19.0134 7.47757C18.7099 7.17665 18.2828 7 17.75 7ZM0 9.75C0 9.33579 0.335786 9 0.75 9L12.75 9C13.1642 9 13.5 9.33579 13.5 9.75C13.5 10.1642 13.1642 10.5 12.75 10.5L0.75 10.5C0.335786 10.5 0 10.1642 0 9.75ZM0.75 16C0.335786 16 0 16.3358 0 16.75C0 17.1642 0.335786 17.5 0.75 17.5L12.75 17.5C13.1642 17.5 13.5 17.1642 13.5 16.75C13.5 16.3358 13.1642 16 12.75 16L0.75 16Z" fill="#292927"/>
</g>
</svg>
