<svg preserveAspectRatio="xMidYMid meet" overflow="visible" style="display: block;" viewBox="0 0 24 24" fill="none" xmlns="http://www.w3.org/2000/svg">
<g transform="translate(3.2500, 6.2500)">
<path id="Vector" fill-rule="evenodd" clip-rule="evenodd" d="M1.28033 0.21967L6.28033 5.21967C6.57322 5.51256 6.57322 5.98744 6.28033 6.28033L1.28033 11.2803C0.987437 11.5732 0.512563 11.5732 0.21967 11.2803C-0.0732232 10.9874 -0.0732232 10.5126 0.21967 10.2197L4.68934 5.75L0.21967 1.28033C-0.0732232 0.987437 -0.0732232 0.512563 0.21967 0.21967C0.512563 -0.0732234 0.987437 -0.0732234 1.28033 0.21967ZM16.2197 0.21967L11.2197 5.21967C10.9268 5.51256 10.9268 5.98744 11.2197 6.28033L16.2197 11.2803C16.5126 11.5732 16.9874 11.5732 17.2803 11.2803C17.5732 10.9874 17.5732 10.5126 17.2803 10.2197L12.8107 5.75L17.2803 1.28033C17.5732 0.987437 17.5732 0.512563 17.2803 0.21967C16.9874 -0.0732234 16.5126 -0.0732234 16.2197 0.21967Z" fill="#292927"/>
</g>
</svg>
