<svg preserveAspectRatio="xMidYMid meet" overflow="visible" style="display: block;" viewBox="0 0 24 24" fill="none" xmlns="http://www.w3.org/2000/svg">
<g transform="translate(3.2500, 2.2500)">
<path id="Vector" fill-rule="evenodd" clip-rule="evenodd" d="M1.52986 10.5H0.75C0.335786 10.5 0 10.1642 0 9.75C0 9.33579 0.335787 9 0.75 9H1V0.75C1 0.335787 1.33579 0 1.75 0C2.16421 0 2.5 0.335787 2.5 0.75V1L15 1V0.75C15 0.335787 15.3358 0 15.75 0C16.1642 0 16.5 0.335787 16.5 0.75V9H16.75C17.1642 9 17.5 9.33579 17.5 9.75C17.5 10.1642 17.1642 10.5 16.75 10.5H15.9701L10.1369 14.2499L16.1556 18.119C16.504 18.343 16.6049 18.807 16.3809 19.1555C16.1569 19.5039 15.6929 19.6048 15.3444 19.3808L8.75 15.1415L2.15557 19.3808C1.80714 19.6048 1.34311 19.5039 1.11912 19.1555C0.895127 18.807 0.996004 18.343 1.34443 18.119L7.36306 14.2499L1.52986 10.5ZM2.5 4V2.5L15 2.5V4L2.5 4ZM2.5 5.5V9L15 9V5.5L2.5 5.5ZM4.30375 10.5L8.75 13.3583L13.1962 10.5L4.30375 10.5Z" fill="#292927"/>
</g>
</svg>
