<svg preserveAspectRatio="xMidYMid meet" overflow="visible" style="display: block;" viewBox="0 0 24 24" fill="none" xmlns="http://www.w3.org/2000/svg">
<g transform="translate(6.2498, 2.2499)">
<path id="Vector" fill-rule="evenodd" clip-rule="evenodd" d="M6.47283 0.549267C6.38266 0.224652 6.0871 0 5.75019 0C5.41328 0 5.11772 0.224652 5.02755 0.549267L0.0275518 18.5493C-0.0833099 18.9484 0.150355 19.3618 0.549457 19.4726C0.94856 19.5835 1.36197 19.3498 1.47283 18.9507L2.43137 15.5H9.06901L10.0276 18.9507C10.1384 19.3498 10.5518 19.5835 10.9509 19.4726C11.35 19.3618 11.5837 18.9484 11.4728 18.5493L6.47283 0.549267ZM8.65235 14H2.84803L3.82025 10.5H7.68013L8.65235 14ZM7.26346 9H4.23692L5.75019 3.55223L7.26346 9Z" fill="#292927"/>
</g>
</svg>
