<svg preserveAspectRatio="xMidYMid meet" overflow="visible" style="display: block;" viewBox="0 0 24 24" fill="none" xmlns="http://www.w3.org/2000/svg">
<g transform="translate(3.2450, 3.2445)">
<path id="Vector" fill-rule="evenodd" clip-rule="evenodd" d="M0.192536 0.259394C-0.0845583 0.567276 -0.0595998 1.04149 0.248283 1.31859C0.556165 1.59568 1.03038 1.57072 1.30748 1.26284L1.31748 1.25173C1.59457 0.943848 1.56961 0.469631 1.26173 0.192536C0.953848 -0.0845583 0.479631 -0.0595998 0.202536 0.248283L0.192536 0.259394ZM4.24828 1.31859C3.9404 1.04149 3.91544 0.567276 4.19254 0.259394L4.20254 0.248283C4.47963 -0.0595998 4.95385 -0.0845583 5.26173 0.192536C5.56961 0.469631 5.59457 0.943848 5.31748 1.25173L5.30748 1.26284C5.03038 1.57072 4.55617 1.59568 4.24828 1.31859ZM8.19254 0.259394C7.91544 0.567276 7.9404 1.04149 8.24828 1.31859C8.55616 1.59568 9.03038 1.57072 9.30748 1.26284L9.31748 1.25173C9.59457 0.943848 9.56961 0.469631 9.26173 0.192536C8.95385 -0.0845583 8.47963 -0.0595998 8.20254 0.248283L8.19254 0.259394ZM12.2483 1.31859C11.9404 1.04149 11.9154 0.567276 12.1925 0.259394L12.2025 0.248283C12.4796 -0.0595998 12.9538 -0.0845583 13.2617 0.192536C13.5696 0.469631 13.5946 0.943848 13.3175 1.25173L13.3075 1.26284C13.0304 1.57072 12.5562 1.59568 12.2483 1.31859ZM16.1925 0.259394C15.9154 0.567276 15.9404 1.04149 16.2483 1.31859C16.5562 1.59568 17.0304 1.57072 17.3075 1.26284L17.3175 1.25173C17.5946 0.943848 17.5696 0.469631 17.2617 0.192536C16.9538 -0.0845583 16.4796 -0.0595998 16.2025 0.248283L16.1925 0.259394ZM16.1925 4.25939C15.9154 4.56728 15.9404 5.04149 16.2483 5.31859C16.5562 5.59568 17.0304 5.57072 17.3075 5.26284L17.3175 5.25173C17.5946 4.94385 17.5696 4.46963 17.2617 4.19254C16.9538 3.91544 16.4796 3.9404 16.2025 4.24828L16.1925 4.25939ZM0.248283 5.31859C-0.0595998 5.04149 -0.0845583 4.56728 0.192536 4.25939L0.202536 4.24828C0.479631 3.9404 0.953848 3.91544 1.26173 4.19254C1.56961 4.46963 1.59457 4.94385 1.31748 5.25173L1.30748 5.26284C1.03038 5.57072 0.556165 5.59568 0.248283 5.31859ZM0.192536 8.25939C-0.0845583 8.56728 -0.0595998 9.04149 0.248283 9.31859C0.556165 9.59568 1.03038 9.57072 1.30748 9.26284L1.31748 9.25173C1.59457 8.94385 1.56961 8.46963 1.26173 8.19254C0.953848 7.91544 0.479631 7.9404 0.202536 8.24828L0.192536 8.25939ZM0.248283 13.3186C-0.0595998 13.0415 -0.0845583 12.5673 0.192536 12.2594L0.202536 12.2483C0.479631 11.9404 0.953848 11.9154 1.26173 12.1925C1.56961 12.4696 1.59457 12.9438 1.31748 13.2517L1.30748 13.2628C1.03038 13.5707 0.556165 13.5957 0.248283 13.3186ZM0.192536 16.2594C-0.0845583 16.5673 -0.0595998 17.0415 0.248283 17.3186C0.556165 17.5957 1.03038 17.5707 1.30748 17.2628L1.31748 17.2517C1.59457 16.9438 1.56961 16.4696 1.26173 16.1925C0.953848 15.9154 0.479631 15.9404 0.202536 16.2483L0.192536 16.2594ZM4.24828 17.3186C3.9404 17.0415 3.91544 16.5673 4.19254 16.2594L4.20254 16.2483C4.47963 15.9404 4.95385 15.9154 5.26173 16.1925C5.56961 16.4696 5.59457 16.9438 5.31748 17.2517L5.30748 17.2628C5.03038 17.5707 4.55617 17.5957 4.24828 17.3186ZM16.76 17.5101C17.1742 17.5101 17.51 17.1744 17.51 16.7601V8.76015C17.51 8.34593 17.1742 8.01015 16.76 8.01015H8.76001C8.3458 8.01015 8.01001 8.34593 8.01001 8.76015V16.7601C8.01001 17.1744 8.3458 17.5101 8.76001 17.5101H16.76ZM16.01 9.51015V16.0101H9.51001V9.51015H16.01Z" fill="#292927"/>
</g>
</svg>
