<svg preserveAspectRatio="xMidYMid meet" overflow="visible" style="display: block;" viewBox="0 0 24 24" fill="none" xmlns="http://www.w3.org/2000/svg">
<g transform="translate(1.7500, 4.2500)">
<path id="Vector" fill-rule="evenodd" clip-rule="evenodd" d="M1.54539 0.935757C2.88063 0.70408 7.18126 0 10.25 0C13.3187 0 17.6194 0.70408 18.9546 0.935757C19.5358 1.0366 19.9762 1.50191 20.0501 2.08329C20.1802 3.10793 20.5 5.81563 20.5 7.75C20.5 9.68437 20.1802 12.3921 20.0501 13.4167C19.9762 13.9981 19.5358 14.4634 18.9546 14.5642C17.6194 14.7959 13.3187 15.5 10.25 15.5C7.18126 15.5 2.88062 14.7959 1.54539 14.5642C0.964209 14.4634 0.52376 13.9981 0.449926 13.4167C0.319799 12.3921 0 9.68437 0 7.75C0 5.81563 0.319799 3.10793 0.449927 2.08329C0.523761 1.50191 0.964212 1.0366 1.54539 0.935757ZM1.92278 2.39281C1.78474 3.49596 1.5 5.9905 1.5 7.75C1.5 9.5095 1.78474 12.004 1.92278 13.1072C3.38401 13.3579 7.41101 14 10.25 14C13.089 14 17.116 13.3579 18.5772 13.1072C18.7153 12.004 19 9.5095 19 7.75C19 5.9905 18.7153 3.49596 18.5772 2.39281C17.116 2.14208 13.089 1.5 10.25 1.5C7.41101 1.5 3.38401 2.14208 1.92278 2.39281Z" fill="#292927"/>
</g>
</svg>
