<svg preserveAspectRatio="xMidYMid meet" overflow="visible" style="display: block;" viewBox="0 0 24 24" fill="none" xmlns="http://www.w3.org/2000/svg">
<g transform="translate(2.2500, 4.2500)">
<path id="Vector" fill-rule="evenodd" clip-rule="evenodd" d="M1.5 0.75C1.5 0.335786 1.16421 0 0.75 0C0.335786 0 0 0.335786 0 0.75V14.75C0 15.1642 0.335787 15.5 0.750001 15.5C1.16421 15.5 1.5 15.1642 1.5 14.75L1.5 0.75ZM5.5 7.75C5.5 4.29822 8.29822 1.5 11.75 1.5C15.2018 1.5 18 4.29822 18 7.75C18 11.2018 15.2018 14 11.75 14C8.29822 14 5.5 11.2018 5.5 7.75ZM11.75 0C7.46979 0 4 3.46979 4 7.75C4 12.0302 7.46979 15.5 11.75 15.5C16.0302 15.5 19.5 12.0302 19.5 7.75C19.5 3.46979 16.0302 0 11.75 0Z" fill="#292927"/>
</g>
</svg>
