<svg preserveAspectRatio="xMidYMid meet" overflow="visible" style="display: block;" viewBox="0 0 24 24" fill="none" xmlns="http://www.w3.org/2000/svg">
<g transform="translate(1.2500, 1.2500)">
<path id="Vector" fill-rule="evenodd" clip-rule="evenodd" d="M1.5 20V1.5H16V4.15C16 4.89558 16.6044 5.5 17.35 5.5H20V20H1.5ZM19.4393 4H17.5V2.06066L19.4393 4ZM21.5 4.75V20.15C21.5 20.8956 20.8956 21.5 20.15 21.5H1.35C0.604415 21.5 0 20.8956 0 20.15V1.35C0 0.604415 0.604417 0 1.35 0H16.75H17.0015C17.3595 0 17.7029 0.142232 17.9561 0.395406L21.1046 3.54393C21.3578 3.79711 21.5 4.14048 21.5 4.49853V4.75ZM4 4.75C4 4.33579 4.33579 4 4.75 4H12.75C13.1642 4 13.5 4.33579 13.5 4.75C13.5 5.16421 13.1642 5.5 12.75 5.5H4.75C4.33579 5.5 4 5.16421 4 4.75ZM4 8.75C4 8.33579 4.33579 8 4.75 8H16.75C17.1642 8 17.5 8.33579 17.5 8.75C17.5 9.16421 17.1642 9.5 16.75 9.5H4.75C4.33579 9.5 4 9.16421 4 8.75ZM11.75 12C11.3358 12 11 12.3358 11 12.75C11 13.1642 11.3358 13.5 11.75 13.5L16.75 13.5C17.1642 13.5 17.5 13.1642 17.5 12.75C17.5 12.3358 17.1642 12 16.75 12L11.75 12ZM11 16.75C11 16.3358 11.3358 16 11.75 16H16.75C17.1642 16 17.5 16.3358 17.5 16.75C17.5 17.1642 17.1642 17.5 16.75 17.5H11.75C11.3358 17.5 11 17.1642 11 16.75ZM4 12.75C4 12.3358 4.33579 12 4.75 12H7.75C8.16421 12 8.5 12.3358 8.5 12.75V16.75C8.5 17.1642 8.16421 17.5 7.75 17.5H4.75C4.33579 17.5 4 17.1642 4 16.75V12.75ZM5.5 13.5V16H7V13.5H5.5Z" fill="#292927"/>
</g>
</svg>
