<svg preserveAspectRatio="xMidYMid meet" overflow="visible" style="display: block;" viewBox="0 0 24 24" fill="none" xmlns="http://www.w3.org/2000/svg">
<g transform="translate(2.2500, 1.2500)">
<path id="Vector" fill-rule="evenodd" clip-rule="evenodd" d="M18 18.75C18 19.4404 17.4404 20 16.75 20H2.75C2.05964 20 1.5 19.4404 1.5 18.75V2.75C1.5 2.05964 2.05964 1.5 2.75 1.5H16.7499C17.4403 1.5 17.9999 2.05964 17.9999 2.75L18 18.75ZM16.75 21.5C18.2688 21.5 19.5 20.2688 19.5 18.75L19.4999 2.74999C19.4999 1.23121 18.2687 0 16.7499 0H2.75C1.23122 0 0 1.23122 0 2.75V18.75C0 20.2688 1.23122 21.5 2.75 21.5H16.75ZM16.3175 4.25075C16.5946 3.94287 16.5696 3.46865 16.2617 3.19156C15.9538 2.91447 15.4796 2.93942 15.2025 3.24731L15.1925 3.25842C14.9154 3.5663 14.9404 4.04052 15.2483 4.31761C15.5562 4.59471 16.0304 4.56975 16.3075 4.26186L16.3175 4.25075ZM9.74999 6.5C6.8505 6.5 4.49999 8.8505 4.49999 11.75C4.49999 14.6495 6.8505 17 9.74999 17C12.6495 17 15 14.6495 15 11.75C15 8.8505 12.6495 6.5 9.74999 6.5ZM2.99999 11.75C2.99999 8.02208 6.02207 5 9.74999 5C13.4779 5 16.5 8.02208 16.5 11.75C16.5 15.4779 13.4779 18.5 9.74999 18.5C6.02207 18.5 2.99999 15.4779 2.99999 11.75ZM7.49999 11.75C7.49999 11.3358 7.16421 11 6.74999 11C6.33578 11 5.99999 11.3358 5.99999 11.75C5.99999 13.8211 7.67893 15.5 9.74999 15.5C10.1642 15.5 10.5 15.1642 10.5 14.75C10.5 14.3358 10.1642 14 9.74999 14C8.50735 14 7.49999 12.9926 7.49999 11.75Z" fill="#292927"/>
</g>
</svg>
