<svg preserveAspectRatio="xMidYMid meet" overflow="visible" style="display: block;" viewBox="0 0 24 24" fill="none" xmlns="http://www.w3.org/2000/svg">
<g transform="translate(1.2500, 1.2500)">
<path id="Vector" fill-rule="evenodd" clip-rule="evenodd" d="M20 10.75C20 5.64137 15.8586 1.5 10.75 1.5C5.64137 1.5 1.5 5.64137 1.5 10.75C1.5 15.8586 5.64137 20 10.75 20C15.8586 20 20 15.8586 20 10.75ZM10.75 0C16.6871 0 21.5 4.81294 21.5 10.75C21.5 16.6871 16.6871 21.5 10.75 21.5C4.81294 21.5 0 16.6871 0 10.75C0 4.81294 4.81294 0 10.75 0ZM15.2802 14.2803C14.9873 14.5732 14.5124 14.5732 14.2195 14.2803C13.9267 13.9874 13.9267 13.5126 14.2195 13.2197L15.9392 11.5H12.3316C12.0507 12.0912 11.4481 12.5 10.75 12.5C9.7835 12.5 9 11.7165 9 10.75C9 9.7835 9.7835 9 10.75 9C11.4481 9 12.0507 9.40876 12.3316 10H15.9392L14.2195 8.28033C13.9267 7.98744 13.9267 7.51256 14.2195 7.21967C14.5124 6.92678 14.9873 6.92678 15.2802 7.21967L18.2802 10.2197C18.5731 10.5126 18.5731 10.9874 18.2802 11.2803L15.2802 14.2803Z" fill="#292927"/>
</g>
</svg>
