<svg preserveAspectRatio="xMidYMid meet" overflow="visible" style="display: block;" viewBox="0 0 24 24" fill="none" xmlns="http://www.w3.org/2000/svg">
<g transform="translate(2.2500, 5.5004)">
<path id="Vector" fill-rule="evenodd" clip-rule="evenodd" d="M1.5 1.55267V11.4467C3.22414 10.8756 6.96206 9.74967 9.75 9.74967C12.5379 9.74967 16.2759 10.8756 18 11.4467V1.55267C16.2759 2.1237 12.5379 3.24967 9.75 3.24967C6.96206 3.24967 3.22414 2.1237 1.5 1.55267ZM0 1.36175C0 0.423327 0.925521 -0.222058 1.80009 0.071545C3.45325 0.626535 7.14052 1.74967 9.75 1.74967C12.3595 1.74967 16.0467 0.626536 17.6999 0.0715452C18.5745 -0.222057 19.5 0.423325 19.5 1.36175V11.6376C19.5 12.576 18.5745 13.2214 17.6999 12.9278C16.0467 12.3728 12.3595 11.2497 9.75 11.2497C7.14052 11.2497 3.45325 12.3728 1.80009 12.9278C0.925523 13.2214 0 12.576 0 11.6376V1.36175Z" fill="#292927"/>
</g>
</svg>
