<svg preserveAspectRatio="xMidYMid meet" overflow="visible" style="display: block;" viewBox="0 0 24 24" fill="none" xmlns="http://www.w3.org/2000/svg">
<g transform="translate(2.2500, 1.7500)">
<path id="Vector" fill-rule="evenodd" clip-rule="evenodd" d="M12.75 0C13.1642 0 13.5 0.335786 13.5 0.75V4.75C13.5 5.16421 13.1642 5.5 12.75 5.5C12.3358 5.5 12 5.16421 12 4.75V3.5H8.25C7.83579 3.5 7.5 3.16421 7.5 2.75C7.5 2.33579 7.83579 2 8.25 2H12V0.75C12 0.335786 12.3358 0 12.75 0ZM0 4.75V8.75V17.75C0 19.2688 1.23122 20.5 2.75 20.5H10.75C11.1642 20.5 11.5 20.1642 11.5 19.75C11.5 19.3358 11.1642 19 10.75 19H2.75C2.05964 19 1.5 18.4404 1.5 17.75V9.5H18V11.75C18 12.1642 18.3358 12.5 18.75 12.5C19.1642 12.5 19.5 12.1642 19.5 11.75V8.75V4.75C19.5 3.23122 18.2688 2 16.75 2H16.25C15.8358 2 15.5 2.33579 15.5 2.75C15.5 3.16421 15.8358 3.5 16.25 3.5H16.75C17.4404 3.5 18 4.05964 18 4.75V8H1.5V4.75C1.5 4.05964 2.05964 3.5 2.75 3.5H4V4.75C4 5.16421 4.33579 5.5 4.75 5.5C5.16421 5.5 5.5 5.16421 5.5 4.75V2.75V0.75C5.5 0.335786 5.16421 0 4.75 0C4.33579 0 4 0.335786 4 0.75V2H2.75C1.23122 2 0 3.23122 0 4.75ZM16.4922 13.75C16.4922 13.3358 16.1564 13 15.7422 13C15.328 13 14.9922 13.3358 14.9922 13.75V16H12.7422C12.328 16 11.9922 16.3358 11.9922 16.75C11.9922 17.1642 12.328 17.5 12.7422 17.5H14.9922V19.75C14.9922 20.1642 15.328 20.5 15.7422 20.5C16.1564 20.5 16.4922 20.1642 16.4922 19.75V17.5H18.75C19.1642 17.5 19.5 17.1642 19.5 16.75C19.5 16.3358 19.1642 16 18.75 16H16.4922V13.75Z" fill="#FAFAF9"/>
</g>
</svg>
