<svg preserveAspectRatio="xMidYMid meet" overflow="visible" style="display: block;" viewBox="0 0 24 24" fill="none" xmlns="http://www.w3.org/2000/svg">
<g transform="translate(0.2500, 3.2500)">
<path id="Vector" fill-rule="evenodd" clip-rule="evenodd" d="M4.5 8.75C4.5 4.74594 7.74594 1.5 11.75 1.5C15.7541 1.5 19 4.74594 19 8.75C19 12.7541 15.7541 16 11.75 16C7.74594 16 4.5 12.7541 4.5 8.75ZM11.75 0C6.91751 0 3 3.91751 3 8.75C3 13.5825 6.91751 17.5 11.75 17.5C16.5825 17.5 20.5 13.5825 20.5 8.75C20.5 3.91751 16.5825 0 11.75 0ZM11.75 6.5C11.3358 6.5 11 6.16421 11 5.75V4.75C11 4.33579 11.3358 4 11.75 4C12.1642 4 12.5 4.33579 12.5 4.75V5.75C12.5 6.16421 12.1642 6.5 11.75 6.5ZM11.75 13.5C11.3358 13.5 11 13.1642 11 12.75V8.75C11 8.33579 11.3358 8 11.75 8C12.1642 8 12.5 8.33579 12.5 8.75V12.75C12.5 13.1642 12.1642 13.5 11.75 13.5ZM4.21468 0.701471C4.51763 0.983954 4.53422 1.45854 4.25174 1.76148C2.54392 3.59301 1.5 6.04877 1.5 8.75C1.5 11.4512 2.54392 13.907 4.25174 15.7385C4.53422 16.0415 4.51763 16.5161 4.21468 16.7985C3.91174 17.081 3.43716 17.0644 3.15467 16.7615C1.19818 14.6633 0 11.8457 0 8.75C0 5.65428 1.19818 2.83674 3.15467 0.738522C3.43716 0.435576 3.91174 0.418988 4.21468 0.701471ZM20.3453 0.738522C20.0628 0.435576 19.5882 0.418988 19.2853 0.701471C18.9823 0.983954 18.9657 1.45854 19.2482 1.76148C20.956 3.59301 22 6.04877 22 8.75C22 11.4512 20.956 13.907 19.2482 15.7385C18.9657 16.0415 18.9823 16.5161 19.2853 16.7985C19.5882 17.081 20.0628 17.0644 20.3453 16.7615C22.3018 14.6633 23.5 11.8457 23.5 8.75C23.5 5.65428 22.3018 2.83674 20.3453 0.738522Z" fill="#292927"/>
</g>
</svg>
