<svg preserveAspectRatio="xMidYMid meet" overflow="visible" style="display: block;" viewBox="0 0 24 24" fill="none" xmlns="http://www.w3.org/2000/svg">
<g transform="translate(1.4542, 2.2500)">
<path id="Vector" fill-rule="evenodd" clip-rule="evenodd" d="M2.0541 0C1.39416 0 0.830956 0.477107 0.722464 1.12806L0.017921 5.35532C-0.0451532 5.73376 0.0519704 6.18747 0.409961 6.50488C0.510505 6.59403 0.641728 6.7002 0.80249 6.80947V16.75C0.80249 18.2688 2.03371 19.5 3.55249 19.5H17.5525C19.0713 19.5 20.3025 18.2688 20.3025 16.75V6.80033C20.4572 6.69429 20.5839 6.59154 20.6816 6.50489C21.0396 6.18748 21.1368 5.73376 21.0737 5.35531L20.3691 1.12806C20.2606 0.477108 19.6974 0 19.0375 0H15.7245H14.217H11.2958H9.79578H6.87456H5.36706H2.0541ZM18.8025 7.42874C18.5682 7.47369 18.3158 7.5 18.0458 7.5C17.1279 7.5 16.3745 7.1945 15.8612 6.90118C15.7448 6.83468 15.6394 6.76806 15.5458 6.70453C15.4521 6.76806 15.3468 6.83468 15.2304 6.90118C14.7171 7.1945 13.9636 7.5 13.0458 7.5C12.1279 7.5 11.3745 7.1945 10.8612 6.90118C10.7448 6.83468 10.6394 6.76806 10.5458 6.70454C10.4521 6.76806 10.3468 6.83468 10.2304 6.90118C9.71711 7.1945 8.96364 7.5 8.0458 7.5C7.12797 7.5 6.3745 7.1945 5.8612 6.90118C5.74482 6.83468 5.63945 6.76806 5.54581 6.70454C5.45216 6.76806 5.34679 6.83468 5.23041 6.90118C4.71711 7.1945 3.96363 7.5 3.0458 7.5C2.78096 7.5 2.53299 7.47468 2.30249 7.43129V16.75C2.30249 17.4404 2.86213 18 3.55249 18H17.5525C18.2428 18 18.8025 17.4404 18.8025 16.75V7.42874ZM9.79578 5.39839V1.5H6.72456L6.33211 5.42451C6.40852 5.47872 6.50015 5.53867 6.60541 5.59882C6.96711 5.8055 7.46364 6 8.0458 6C8.62797 6 9.1245 5.8055 9.4862 5.59882C9.60868 5.52883 9.7127 5.45911 9.79578 5.39839ZM11.6054 5.59882C11.4829 5.52883 11.3789 5.45911 11.2958 5.39839V1.5H14.367L14.7595 5.4245C14.6831 5.47871 14.5914 5.53867 14.4862 5.59882C14.1245 5.8055 13.6279 6 13.0458 6C12.4636 6 11.9671 5.8055 11.6054 5.59882ZM5.21706 1.5H2.18116L1.5184 5.47657C1.80641 5.70071 2.32626 6 3.0458 6C3.62797 6 4.1245 5.8055 4.48621 5.59882C4.626 5.51894 4.74175 5.43941 4.82974 5.37322L5.21706 1.5ZM15.8745 1.5L16.2618 5.37321C16.3498 5.4394 16.4656 5.51893 16.6054 5.59882C16.9671 5.8055 17.4636 6 18.0458 6C18.7653 6 19.2852 5.70071 19.5732 5.47656L18.9104 1.5H15.8745Z" fill="#292927"/>
</g>
</svg>
