<svg preserveAspectRatio="xMidYMid meet" overflow="visible" style="display: block;" viewBox="0 0 24 24" fill="none" xmlns="http://www.w3.org/2000/svg">
<g transform="translate(4.2500, 1.7500)">
<path id="Vector" fill-rule="evenodd" clip-rule="evenodd" d="M3.5 1.5V13H12V1.5H3.5ZM13.5 13V1.35C13.5 0.604418 12.8956 0 12.15 0H3.35C2.60442 0 2 0.604415 2 1.35V13H0.75C0.335786 13 0 13.3358 0 13.75C0 14.1642 0.335786 14.5 0.75 14.5H4V19.75C4 20.1642 4.33579 20.5 4.75 20.5C5.16421 20.5 5.5 20.1642 5.5 19.75V14.5H7V19.75C7 20.1642 7.33579 20.5 7.75 20.5C8.16421 20.5 8.5 20.1642 8.5 19.75V14.5H10V19.75C10 20.1642 10.3358 20.5 10.75 20.5C11.1642 20.5 11.5 20.1642 11.5 19.75V14.5H14.75C15.1642 14.5 15.5 14.1642 15.5 13.75C15.5 13.3358 15.1642 13 14.75 13H13.5Z" fill="#292927"/>
</g>
</svg>
