<svg preserveAspectRatio="xMidYMid meet" overflow="visible" style="display: block;" viewBox="0 0 24 24" fill="none" xmlns="http://www.w3.org/2000/svg">
<g transform="translate(2.2500, 2.2500)">
<path id="Vector" fill-rule="evenodd" clip-rule="evenodd" d="M0 0.75C0 0.335786 0.335786 0 0.75 0H3.75C4.16421 0 4.5 0.335786 4.5 0.75C4.5 1.16421 4.16421 1.5 3.75 1.5H1.5V3.75C1.5 4.16421 1.16421 4.5 0.75 4.5C0.335786 4.5 0 4.16421 0 3.75V0.75ZM9.75 3C10.1642 3 10.5 3.33579 10.5 3.75V15.75C10.5 16.1642 10.1642 16.5 9.75 16.5C9.33579 16.5 9 16.1642 9 15.75V3.75C9 3.33579 9.33579 3 9.75 3ZM6.75 6C7.16421 6 7.5 6.33579 7.5 6.75L7.5 12.75C7.5 13.1642 7.16421 13.5 6.75 13.5C6.33579 13.5 6 13.1642 6 12.75L6 6.75C6 6.33579 6.33579 6 6.75 6ZM16.5 8.75C16.5 8.33579 16.1642 8 15.75 8C15.3358 8 15 8.33579 15 8.75L15 10.75C15 11.1642 15.3358 11.5 15.75 11.5C16.1642 11.5 16.5 11.1642 16.5 10.75V8.75ZM3.75 8C4.16421 8 4.5 8.33579 4.5 8.75L4.5 10.75C4.5 11.1642 4.16421 11.5 3.75 11.5C3.33579 11.5 3 11.1642 3 10.75L3 8.75C3 8.33579 3.33579 8 3.75 8ZM13.5 4.75C13.5 4.33579 13.1642 4 12.75 4C12.3358 4 12 4.33579 12 4.75V14.75C12 15.1642 12.3358 15.5 12.75 15.5C13.1642 15.5 13.5 15.1642 13.5 14.75V4.75ZM18.75 0C19.1642 0 19.5 0.335786 19.5 0.75V3.75C19.5 4.16421 19.1642 4.5 18.75 4.5C18.3358 4.5 18 4.16421 18 3.75V1.5H15.75C15.3358 1.5 15 1.16421 15 0.75C15 0.335786 15.3358 0 15.75 0H18.75ZM0 18.75C0 19.1642 0.335786 19.5 0.75 19.5H3.75C4.16421 19.5 4.5 19.1642 4.5 18.75C4.5 18.3358 4.16421 18 3.75 18H1.5V15.75C1.5 15.3358 1.16421 15 0.75 15C0.335786 15 0 15.3358 0 15.75V18.75ZM18.75 19.5C19.1642 19.5 19.5 19.1642 19.5 18.75V15.75C19.5 15.3358 19.1642 15 18.75 15C18.3358 15 18 15.3358 18 15.75V18H15.75C15.3358 18 15 18.3358 15 18.75C15 19.1642 15.3358 19.5 15.75 19.5H18.75Z" fill="#292927"/>
</g>
</svg>
