<svg preserveAspectRatio="xMidYMid meet" overflow="visible" style="display: block;" viewBox="0 0 24 24" fill="none" xmlns="http://www.w3.org/2000/svg">
<g transform="translate(1.2500, 2.2500)">
<path id="Vector" fill-rule="evenodd" clip-rule="evenodd" d="M1.21967 0.21967C1.51256 -0.0732233 1.98744 -0.0732233 2.28033 0.21967L16.0359 13.9752C18.2772 13.7663 20 11.9357 20 9.74749C20 7.74259 18.5565 6.04007 16.5885 5.60611C16.2737 5.5367 15.9453 5.49987 15.6071 5.49987C15.1929 5.49987 14.8571 5.16408 14.8571 4.74987C14.8571 4.33565 15.1929 3.99987 15.6071 3.99987C16.0545 3.99987 16.4912 4.04862 16.9115 4.1413C19.524 4.71737 21.5 6.99557 21.5 9.74749C21.5 12.3577 19.7249 14.5397 17.3112 15.2506L20.2803 18.2197C20.5732 18.5126 20.5732 18.9874 20.2803 19.2803C19.9874 19.5732 19.5126 19.5732 19.2197 19.2803L15.4345 15.4951L13.8929 15.4951C10.6486 15.4951 8 12.6493 8 9.74749C8 9.45213 8.08812 8.80341 8.26436 8.32502L5.45972 5.52038C3.22038 5.73146 1.5 7.56083 1.5 9.74769C1.5 11.7526 2.94348 13.4551 4.9115 13.8891C5.22631 13.9585 5.55467 13.9953 5.89286 13.9953C6.30707 13.9953 6.64286 14.3311 6.64286 14.7453C6.64286 15.1595 6.30707 15.4953 5.89286 15.4953C5.44546 15.4953 5.00881 15.4466 4.5885 15.3539C1.97597 14.7778 0 12.4996 0 9.74769C0 7.139 1.77337 4.9577 4.18501 4.24567L1.21967 1.28033C0.926777 0.987437 0.926777 0.512563 1.21967 0.21967ZM9.50731 9.56797C9.50314 9.63992 9.5 9.70105 9.5 9.74749C9.5 11.8291 11.4853 13.9951 13.8929 13.9951H13.9345L9.50731 9.56797ZM10.0765 4.57401C9.70362 4.39367 9.25513 4.54977 9.0748 4.92267C8.89446 5.29557 9.05057 5.74405 9.42346 5.92439C10.2602 6.32906 10.9634 6.99179 11.4234 7.76721C11.6347 8.12347 12.0948 8.24096 12.451 8.02964C12.8073 7.81832 12.9248 7.35821 12.7135 7.00196C12.1082 5.98149 11.1871 5.11108 10.0765 4.57401Z" fill="#292927"/>
</g>
</svg>
