<svg preserveAspectRatio="xMidYMid meet" overflow="visible" style="display: block;" viewBox="0 0 24 24" fill="none" xmlns="http://www.w3.org/2000/svg">
<g transform="translate(5.2500, 1.2499)">
<path id="Vector" fill-rule="evenodd" clip-rule="evenodd" d="M0.75 20.0002C0.335787 20.0002 0 20.336 0 20.7502C0 21.1644 0.335786 21.5002 0.75 21.5002L8.75 21.5002C9.16421 21.5002 9.5 21.1644 9.5 20.7502C9.5 20.336 9.16421 20.0002 8.75 20.0002L3.69695 20.0002L4.80357 15.297L5.52643 17.9475C5.63541 18.3471 6.04772 18.5827 6.44734 18.4738C6.84696 18.3648 7.08256 17.9525 6.97357 17.5528L5.47467 12.0569L2.47571 0.560867C2.37116 0.160067 1.96148 -0.0800857 1.56068 0.0244694C1.15988 0.129026 0.91973 0.5387 1.02429 0.939499L3.97733 12.2595L2.15599 20.0002H0.75ZM11.75 20.0002C11.3358 20.0002 11 20.336 11 20.7502C11 21.1644 11.3358 21.5002 11.75 21.5002H12.75C13.1642 21.5002 13.5 21.1644 13.5 20.7502C13.5 20.336 13.1642 20.0002 12.75 20.0002H11.75Z" fill="#292927"/>
</g>
</svg>
