<svg preserveAspectRatio="xMidYMid meet" overflow="visible" style="display: block;" viewBox="0 0 24 24" fill="none" xmlns="http://www.w3.org/2000/svg">
<g transform="translate(1.2500, 1.2500)">
<path id="Vector" fill-rule="evenodd" clip-rule="evenodd" d="M10.75 1.5C5.64137 1.5 1.5 5.64137 1.5 10.75C1.5 15.8586 5.64137 20 10.75 20C15.8586 20 20 15.8586 20 10.75C20 5.64137 15.8586 1.5 10.75 1.5ZM0 10.75C0 4.81294 4.81294 0 10.75 0C16.6871 0 21.5 4.81294 21.5 10.75C21.5 16.6871 16.6871 21.5 10.75 21.5C4.81294 21.5 0 16.6871 0 10.75ZM6 7.75C6 7.33579 6.33579 7 6.75 7H8.75C9.16421 7 9.5 7.33579 9.5 7.75C9.5 8.16421 9.16421 8.5 8.75 8.5H6.75C6.33579 8.5 6 8.16421 6 7.75ZM12 7.75C12 7.33579 12.3358 7 12.75 7H14.75C15.1642 7 15.5 7.33579 15.5 7.75C15.5 8.16421 15.1642 8.5 14.75 8.5H12.75C12.3358 8.5 12 8.16421 12 7.75ZM8 11.75C8 11.3358 8.33579 11 8.75 11H12.75C13.1642 11 13.5 11.3358 13.5 11.75V14.75C13.5 15.2034 13.3702 15.8667 12.9587 16.4382C12.5196 17.048 11.7944 17.5 10.75 17.5C9.70556 17.5 8.9804 17.048 8.54135 16.4382C8.12984 15.8667 8 15.2034 8 14.75V11.75ZM9.5 12.5V14.75C9.5 14.9633 9.57016 15.3 9.75865 15.5618C9.9196 15.7853 10.1944 16 10.75 16C11.3056 16 11.5804 15.7853 11.7413 15.5618C11.9298 15.3 12 14.9633 12 14.75V12.5H9.5Z" fill="#292927"/>
</g>
</svg>
