<svg preserveAspectRatio="xMidYMid meet" overflow="visible" style="display: block;" viewBox="0 0 24 24" fill="none" xmlns="http://www.w3.org/2000/svg">
<g transform="translate(2.8158, 1.2300)">
<path id="Vector" fill-rule="evenodd" clip-rule="evenodd" d="M1.5 20V1.5H12V4.15C12 4.89558 12.6044 5.5 13.35 5.5H16V10.75C16 11.1642 16.3358 11.5 16.75 11.5C17.1642 11.5 17.5 11.1642 17.5 10.75V4.75V4.49853C17.5 4.14049 17.3578 3.79711 17.1046 3.54393L13.9561 0.395406C13.7029 0.142232 13.3595 0 13.0015 0H12.75H1.35C0.604417 0 0 0.604415 0 1.35V20.15C0 20.8956 0.604415 21.5 1.35 21.5H7.75C8.16421 21.5 8.5 21.1642 8.5 20.75C8.5 20.3358 8.16421 20 7.75 20H1.5ZM13.5 2.06066V4H15.4393L13.5 2.06066ZM4.75 4C4.33579 4 4 4.33579 4 4.75C4 5.16421 4.33579 5.5 4.75 5.5H8.75C9.16421 5.5 9.5 5.16421 9.5 4.75C9.5 4.33579 9.16421 4 8.75 4H4.75ZM4.75 8C4.33579 8 4 8.33579 4 8.75C4 9.16421 4.33579 9.5 4.75 9.5H12.75C13.1642 9.5 13.5 9.16421 13.5 8.75C13.5 8.33579 13.1642 8 12.75 8H4.75ZM4.75 12C4.33579 12 4 12.3358 4 12.75C4 13.1642 4.33579 13.5 4.75 13.5H7.75C8.16421 13.5 8.5 13.1642 8.5 12.75C8.5 12.3358 8.16421 12 7.75 12H4.75ZM17.8202 16.8056C18.551 16.0749 18.551 14.89 17.8202 14.1592C17.0894 13.4284 15.9046 13.4284 15.1738 14.1592L11.1827 18.1503C10.9203 18.4126 10.7482 18.7515 10.691 19.1181L10.4483 20.6745C10.4114 20.9111 10.4897 21.151 10.659 21.3204C10.8283 21.4897 11.0683 21.568 11.3049 21.5311L12.8612 21.2884C13.2278 21.2313 13.5667 21.0591 13.8291 20.7968L17.8202 16.8056ZM16.7595 15.2199C16.9046 15.3649 16.9046 15.6 16.7595 15.745L16.2899 16.2147L15.7648 15.6895L16.2344 15.2199C16.3794 15.0748 16.6145 15.0748 16.7595 15.2199ZM14.7041 16.7502L15.2292 17.2753L12.7684 19.7361C12.7309 19.7736 12.6825 19.7982 12.6302 19.8064L12.0887 19.8908L12.1731 19.3492C12.1813 19.2968 12.2059 19.2484 12.2433 19.2109L14.7041 16.7502Z" fill="#292927"/>
</g>
</svg>
