<svg preserveAspectRatio="xMidYMid meet" overflow="visible" style="display: block;" viewBox="0 0 24 24" fill="none" xmlns="http://www.w3.org/2000/svg">
<g transform="translate(1.2500, 1.2500)">
<path id="Vector" fill-rule="evenodd" clip-rule="evenodd" d="M1.5 10.75C1.5 5.64137 5.64137 1.5 10.75 1.5C15.8586 1.5 20 5.64137 20 10.75C20 15.8586 15.8586 20 10.75 20C5.64137 20 1.5 15.8586 1.5 10.75ZM10.75 0C4.81294 0 0 4.81294 0 10.75C0 16.6871 4.81294 21.5 10.75 21.5C16.6871 21.5 21.5 16.6871 21.5 10.75C21.5 4.81294 16.6871 0 10.75 0ZM8.75 16C8.33579 16 8 16.3358 8 16.75C8 17.1642 8.33579 17.5 8.75 17.5H12.75C13.1642 17.5 13.5 17.1642 13.5 16.75C13.5 16.3358 13.1642 16 12.75 16H8.75ZM8.5 12.25C8.5 11.5596 7.94036 11 7.25 11C6.55964 11 6 11.5596 6 12.25C6 12.9404 6.55964 13.5 7.25 13.5C7.94036 13.5 8.5 12.9404 8.5 12.25ZM15.5 12.25C15.5 11.5596 14.9404 11 14.25 11C13.5596 11 13 11.5596 13 12.25C13 12.9404 13.5596 13.5 14.25 13.5C14.9404 13.5 15.5 12.9404 15.5 12.25Z" fill="#292927"/>
</g>
</svg>
