<svg preserveAspectRatio="xMidYMid meet" overflow="visible" style="display: block;" viewBox="0 0 24 24" fill="none" xmlns="http://www.w3.org/2000/svg">
<g transform="translate(2.2500, 2.2500)">
<path id="Vector" fill-rule="evenodd" clip-rule="evenodd" d="M1.5 18V1.5H18V18H1.5ZM1.35 0C0.604417 0 0 0.604415 0 1.35V18.15C0 18.8956 0.604415 19.5 1.35 19.5H18.15C18.8956 19.5 19.5 18.8956 19.5 18.15V1.35C19.5 0.604417 18.8956 0 18.15 0H1.35ZM10.5 3.25C10.5 2.83579 10.1642 2.5 9.74998 2.5C9.33577 2.5 8.99998 2.83579 8.99998 3.25V4.35324C8.4848 4.4298 7.98023 4.60793 7.55247 4.93193C6.88013 5.44119 6.49998 6.23349 6.49998 7.25001C6.49998 7.74538 6.61526 8.18566 6.84231 8.56605C7.06678 8.9421 7.37634 9.2194 7.7067 9.42963C8.31935 9.81949 9.10052 10.0323 9.7457 10.2081L9.80264 10.2236C10.5219 10.4197 11.0875 10.581 11.488 10.8359C11.6732 10.9538 11.7933 11.0749 11.8697 11.2028C11.9434 11.3263 12 11.4954 12 11.75C12 12.3592 11.7547 12.7422 11.3958 12.9935C11.0067 13.266 10.431 13.415 9.77691 13.3915C8.77511 13.3555 7.82092 12.9279 7.34998 12.3C7.10145 11.9686 6.63135 11.9015 6.29998 12.15C5.96861 12.3985 5.90145 12.8686 6.14998 13.2C6.81953 14.0927 7.90737 14.625 8.99998 14.8147V16.25C8.99998 16.6642 9.33577 17 9.74998 17C10.1642 17 10.5 16.6642 10.5 16.25V14.859C11.1277 14.7837 11.7415 14.5827 12.2563 14.2222C13.0133 13.692 13.5 12.8518 13.5 11.75C13.5 11.2546 13.3847 10.8144 13.1577 10.434C12.9332 10.0579 12.6236 9.78061 12.2933 9.57038C11.6806 9.18052 10.8994 8.96771 10.2543 8.79195L10.1973 8.77643C9.47803 8.58026 8.91248 8.41897 8.51201 8.16413C8.32675 8.04624 8.20663 7.9251 8.13031 7.79724C8.05659 7.67373 7.99998 7.50463 7.99998 7.25001C7.99998 6.6365 8.21028 6.3154 8.45815 6.12765C8.73738 5.91615 9.17389 5.79349 9.72981 5.80845C10.6786 5.83398 11.6914 6.2521 12.2197 6.78033C12.5125 7.07322 12.9874 7.07322 13.2803 6.78033C13.5732 6.48744 13.5732 6.01256 13.2803 5.71967C12.5979 5.03725 11.5487 4.55659 10.5 4.38088V3.25Z" fill="#292927"/>
</g>
</svg>
