<svg preserveAspectRatio="xMidYMid meet" overflow="visible" style="display: block;" viewBox="0 0 24 24" fill="none" xmlns="http://www.w3.org/2000/svg">
<g transform="translate(1.2518, 1.2498)">
<path id="Vector" fill-rule="evenodd" clip-rule="evenodd" d="M0.75 0C0.335786 0 0 0.335786 0 0.75V3.7484C0 4.16261 0.335786 4.4984 0.75 4.4984H1.49878V17H0.75C0.335786 17 0 17.3358 0 17.75V20.7484C0 21.1626 0.335786 21.4984 0.75 21.4984H3.7484C4.16261 21.4984 4.4984 21.1626 4.4984 20.7484V20.001H16.998V20.7504C16.998 21.1646 17.3338 21.5004 17.748 21.5004H20.7464C21.1607 21.5004 21.4964 21.1646 21.4964 20.7504V17.752C21.4964 17.3377 21.1607 17.002 20.7464 17.002H19.9968V4.50035H20.7464C21.1607 4.50035 21.4964 4.16457 21.4964 3.75035V0.751953C21.4964 0.33774 21.1607 0.00195312 20.7464 0.00195312H17.748C17.3338 0.00195312 16.998 0.33774 16.998 0.751953V1.50098H4.4984V0.75C4.4984 0.335786 4.16261 0 3.7484 0H0.75ZM19.2404 18.502C19.2426 18.502 19.2447 18.502 19.2468 18.502C19.249 18.502 19.2511 18.502 19.2532 18.502H19.9964V20.0004H18.498V18.502H19.2404ZM18.4968 17.002V4.50035H17.748C17.3338 4.50035 16.998 4.16457 16.998 3.75035V3.00098H4.4984V3.7484C4.4984 4.16261 4.16261 4.4984 3.7484 4.4984H2.99878V17H3.7484C4.16261 17 4.4984 17.3358 4.4984 17.75V18.501H16.998V17.752C16.998 17.3377 17.3338 17.002 17.748 17.002H18.4968ZM19.2468 3C19.2546 3 19.2623 3.00012 19.2701 3.00035H19.9964V1.50195H18.498V3.00035H19.2236C19.2313 3.00012 19.2391 3 19.2468 3ZM2.24238 18.5L2.24878 18.5L2.25518 18.5H2.9984V19.2208C2.998 19.2308 2.9978 19.2409 2.9978 19.251C2.9978 19.2611 2.998 19.2712 2.9984 19.2812V19.9984H1.5V18.5H2.24238ZM2.24878 2.99805C2.25655 2.99805 2.2643 2.99817 2.27202 2.9984H2.9984V2.28118C2.998 2.27116 2.9978 2.26109 2.9978 2.25098C2.9978 2.24086 2.998 2.23079 2.9984 2.22077V1.5H1.5V2.9984H2.22554C2.23326 2.99817 2.24101 2.99805 2.24878 2.99805Z" fill="#292927"/>
</g>
</svg>
