<svg preserveAspectRatio="xMidYMid meet" overflow="visible" style="display: block;" viewBox="0 0 24 24" fill="none" xmlns="http://www.w3.org/2000/svg">
<g transform="translate(8.2500, 1.2500)">
<path id="Vector" fill-rule="evenodd" clip-rule="evenodd" d="M5 2.75C5 2.05964 4.44036 1.5 3.75 1.5C3.05964 1.5 2.5 2.05964 2.5 2.75C2.5 3.44036 3.05964 4 3.75 4C4.44036 4 5 3.44036 5 2.75ZM3.75 0C5.26878 0 6.5 1.23122 6.5 2.75C6.5 4.26878 5.26878 5.5 3.75 5.5C2.23122 5.5 1 4.26878 1 2.75C1 1.23122 2.23122 0 3.75 0ZM7.28033 18.2803L4.28033 21.2803C3.98744 21.5732 3.51256 21.5732 3.21967 21.2803L0.21967 18.2803C-0.0732233 17.9874 -0.0732233 17.5126 0.21967 17.2197C0.512563 16.9268 0.987437 16.9268 1.28033 17.2197L3 18.9393V7.75C3 7.33579 3.33579 7 3.75 7C4.16421 7 4.5 7.33579 4.5 7.75L4.5 18.9393L6.21967 17.2197C6.51256 16.9268 6.98744 16.9268 7.28033 17.2197C7.57322 17.5126 7.57322 17.9874 7.28033 18.2803Z" fill="#292927"/>
</g>
</svg>
