<svg preserveAspectRatio="xMidYMid meet" overflow="visible" style="display: block;" viewBox="0 0 24 24" fill="none" xmlns="http://www.w3.org/2000/svg">
<g transform="translate(3.2500, 2.2500)">
<path id="Vector" fill-rule="evenodd" clip-rule="evenodd" d="M1.75 12.5001C1.46791 12.5001 1.20967 12.3418 1.08167 12.0904C0.953659 11.839 0.977532 11.5371 1.14345 11.3089L4.556 6.61666L0.21967 2.28033C-0.0732233 1.98744 -0.0732233 1.51256 0.21967 1.21967C0.512563 0.926777 0.987437 0.926777 1.28033 1.21967L5.98894 5.92828C6.05202 5.97466 6.10575 6.02907 6.14974 6.08908L17.2803 17.2197C17.5732 17.5126 17.5732 17.9874 17.2803 18.2803C16.9874 18.5732 16.5126 18.5732 16.2197 18.2803L12.0509 14.1115L8.35656 19.1912C8.16549 19.4539 7.827 19.5637 7.51807 19.4633C7.20914 19.3628 7 19.0749 7 18.7501V12.5001H1.75ZM10.9771 13.0377L5.6298 7.69046L3.22283 11.0001H7.75C8.16422 11.0001 8.5 11.3358 8.5 11.7501V16.4437L10.9771 13.0377ZM8.17474 4.19118C7.93111 4.52617 7.46205 4.60023 7.12706 4.3566C6.79207 4.11297 6.718 3.64391 6.96163 3.30892L9.14345 0.308922C9.33452 0.0462014 9.67301 -0.063645 9.98194 0.0368141C10.2909 0.137273 10.5 0.425197 10.5 0.750051V7.00005H15.75C16.0321 7.00005 16.2903 7.15834 16.4183 7.40972C16.5463 7.6611 16.5225 7.96304 16.3566 8.19118L14.5384 10.6912C14.2947 11.0262 13.8257 11.1002 13.4907 10.8566C13.1557 10.613 13.0816 10.1439 13.3253 9.80892L14.2772 8.50005H9.75C9.33579 8.50005 9 8.16426 9 7.75005V3.05644L8.17474 4.19118Z" fill="#292927"/>
</g>
</svg>
