<svg preserveAspectRatio="xMidYMid meet" overflow="visible" style="display: block;" viewBox="0 0 24 24" fill="none" xmlns="http://www.w3.org/2000/svg">
<g transform="translate(0.2500, 0.2500)">
<path id="Vector" fill-rule="evenodd" clip-rule="evenodd" d="M11.75 2.5C11.3358 2.5 11 2.16421 11 1.75V0.75C11 0.335786 11.3358 0 11.75 0C12.1642 0 12.5 0.335786 12.5 0.75V1.75C12.5 2.16421 12.1642 2.5 11.75 2.5ZM21 11.75C21 11.3358 21.3358 11 21.75 11H22.75C23.1642 11 23.5 11.3358 23.5 11.75C23.5 12.1642 23.1642 12.5 22.75 12.5H21.75C21.3358 12.5 21 12.1642 21 11.75ZM11 22.75C11 23.1642 11.3358 23.5 11.75 23.5C12.1642 23.5 12.5 23.1642 12.5 22.75V21.75C12.5 21.3358 12.1642 21 11.75 21C11.3358 21 11 21.3358 11 21.75V22.75ZM20.2803 20.2803C19.9874 20.5732 19.5126 20.5732 19.2197 20.2803L18.2197 19.2803C17.9268 18.9874 17.9268 18.5126 18.2197 18.2197C18.5126 17.9268 18.9874 17.9268 19.2803 18.2197L20.2803 19.2197C20.5732 19.5126 20.5732 19.9874 20.2803 20.2803ZM19.2197 3.21967C19.5126 2.92678 19.9874 2.92678 20.2803 3.21967C20.5732 3.51256 20.5732 3.98744 20.2803 4.28033L19.2803 5.28033C18.9874 5.57322 18.5126 5.57322 18.2197 5.28033C17.9268 4.98744 17.9268 4.51256 18.2197 4.21967L19.2197 3.21967ZM3.21967 20.2803C3.51256 20.5732 3.98744 20.5732 4.28033 20.2803L5.28033 19.2803C5.57322 18.9874 5.57322 18.5126 5.28033 18.2197C4.98744 17.9268 4.51256 17.9268 4.21967 18.2197L3.21967 19.2197C2.92678 19.5126 2.92678 19.9874 3.21967 20.2803ZM4.28033 3.21967C3.98744 2.92678 3.51256 2.92678 3.21967 3.21967C2.92678 3.51256 2.92678 3.98744 3.21967 4.28033L4.21967 5.28033C4.51256 5.57322 4.98744 5.57322 5.28033 5.28033C5.57322 4.98744 5.57322 4.51256 5.28033 4.21967L4.28033 3.21967ZM0 11.75C0 11.3358 0.335786 11 0.75 11H1.75C2.16421 11 2.5 11.3358 2.5 11.75C2.5 12.1642 2.16421 12.5 1.75 12.5H0.75C0.335786 12.5 0 12.1642 0 11.75ZM5.01077 8.37673C4.963 8.09807 5.07599 7.81623 5.30302 7.64774C5.53005 7.47926 5.83253 7.45275 6.0854 7.57918L9.76164 9.4173L11.1805 7.76191C11.323 7.59568 11.531 7.5 11.75 7.5C11.9689 7.5 12.1769 7.59568 12.3194 7.76191L13.7383 9.4173L17.4146 7.57918C17.6675 7.45275 17.9699 7.47926 18.197 7.64774C18.424 7.81623 18.537 8.09807 18.4892 8.37673L17.2892 15.3767C17.2275 15.7368 16.9153 16 16.55 16H6.94999C6.58467 16 6.2725 15.7368 6.21077 15.3767L5.01077 8.37673ZM9.61458 11.0208L6.73949 9.58328L7.58236 14.5H15.9176L16.7605 9.58328L13.8854 11.0208C13.5776 11.1747 13.2045 11.0994 12.9805 10.8381L11.75 9.40245L10.5194 10.8381C10.2955 11.0994 9.9224 11.1747 9.61458 11.0208Z" fill="#292927"/>
</g>
</svg>
