<svg preserveAspectRatio="xMidYMid meet" overflow="visible" style="display: block;" viewBox="0 0 24 24" fill="none" xmlns="http://www.w3.org/2000/svg">
<g transform="translate(2.2843, 1.5087)">
<path id="Vector" fill-rule="evenodd" clip-rule="evenodd" d="M1.5712 3.49174L1.51697 3.08503C2.24204 2.62075 4.52732 1.5 9.71566 1.5C14.904 1.5 17.1893 2.62075 17.9144 3.08503L17.8601 3.49173C17.6466 3.63936 17.3689 3.78834 17.022 3.93224C16.4755 4.15895 15.8005 4.35533 15.0276 4.51563C13.482 4.8362 11.6062 5 9.71566 5C7.82513 5 5.94932 4.83621 4.40368 4.51564C3.63082 4.35534 2.95581 4.15896 2.40927 3.93225C2.06237 3.78835 1.78472 3.63937 1.5712 3.49174ZM1.8135 5.30902L3.19746 15.6887C3.33142 16.6934 3.92645 17.5781 4.8065 18.0809L5.12638 18.2637C7.97013 19.8887 11.4612 19.8887 14.3049 18.2637L14.6248 18.0809C15.5049 17.5781 16.0999 16.6934 16.2339 15.6887L17.6178 5.309C17.6108 5.31193 17.6038 5.31485 17.5968 5.31777C16.9379 5.59105 16.1665 5.81133 15.3323 5.98437C13.6636 6.33046 11.6823 6.5 9.71566 6.5C7.74904 6.5 5.7677 6.33047 4.09906 5.98438C3.26478 5.81135 2.49336 5.59107 1.83454 5.31778C1.82752 5.31487 1.82051 5.31195 1.8135 5.30902ZM9.71566 0C3.9132 0 1.36351 1.34774 0.511991 1.95403C0.0957431 2.2504 -0.0434936 2.73112 0.011427 3.14303L1.71062 15.8869C1.9064 17.3553 2.77607 18.6483 4.06229 19.3833L4.38217 19.5661C7.68707 21.4546 11.7443 21.4546 15.0492 19.5661L15.369 19.3833C16.6553 18.6483 17.5249 17.3553 17.7207 15.8869L19.4199 3.14303C19.4748 2.73112 19.3356 2.2504 18.9193 1.95403C18.0678 1.34774 15.5181 0 9.71566 0Z" fill="#292927"/>
</g>
</svg>
