<svg preserveAspectRatio="xMidYMid meet" overflow="visible" style="display: block;" viewBox="0 0 24 24" fill="none" xmlns="http://www.w3.org/2000/svg">
<g transform="translate(1.2500, 4.7500)">
<path id="Vector" fill-rule="evenodd" clip-rule="evenodd" d="M1.5 1.5V11H3.10352C3.42998 9.84575 4.49122 9 5.75 9C7.00878 9 8.07002 9.84575 8.39648 11H12V3.75V1.5H1.5ZM13.5 1.35V3H18.3601C18.8936 3 19.377 3.31419 19.5937 3.80171L21.3836 7.82904C21.4604 8.00165 21.5 8.18844 21.5 8.37733V11.15C21.5 11.8956 20.8956 12.5 20.15 12.5H18.3965C18.07 13.6543 17.0088 14.5 15.75 14.5C14.4912 14.5 13.43 13.6543 13.1035 12.5H12.75H12.75H8.39648C8.07002 13.6543 7.00878 14.5 5.75 14.5C4.49122 14.5 3.42998 13.6543 3.10352 12.5H1.35C0.604416 12.5 0 11.8956 0 11.15V1.35C0 0.604415 0.604416 0 1.35 0H12.15C12.8956 0 13.5 0.604416 13.5 1.35ZM14.5 11.75C14.5 12.4404 15.0596 13 15.75 13C16.4404 13 17 12.4404 17 11.75C17 11.0596 16.4404 10.5 15.75 10.5C15.0596 10.5 14.5 11.0596 14.5 11.75ZM13.5 10.1685V4.5H18.2626L20 8.40916V11H18.3965C18.07 9.84575 17.0088 9 15.75 9C14.8199 9 13.9977 9.46172 13.5 10.1685ZM4.5 11.75C4.5 11.0596 5.05964 10.5 5.75 10.5C6.44036 10.5 7 11.0596 7 11.75C7 12.4404 6.44036 13 5.75 13C5.05964 13 4.5 12.4404 4.5 11.75Z" fill="#292927"/>
</g>
</svg>
