<svg preserveAspectRatio="xMidYMid meet" overflow="visible" style="display: block;" viewBox="0 0 24 24" fill="none" xmlns="http://www.w3.org/2000/svg">
<g transform="translate(2.2500, 1.3364)">
<path id="Vector" fill-rule="evenodd" clip-rule="evenodd" d="M0.694401 16.4907L9.0944 21.1574C9.50213 21.3839 9.99791 21.3839 10.4056 21.1574L18.8056 16.4907C19.2342 16.2526 19.5 15.8009 19.5 15.3106L19.5 6.01666C19.5 5.52639 19.2342 5.07465 18.8056 4.83655L10.4056 0.169888C9.99791 -0.0566301 9.50213 -0.0566282 9.0944 0.169887L0.694384 4.83655C0.265804 5.07465 0 5.52639 0 6.01667L1.90735e-05 15.3106C1.90735e-05 15.8009 0.265823 16.2526 0.694401 16.4907ZM8.99999 19.389L2.29421 15.6635L8.99999 11.9381V19.389ZM10.5 19.389L17.2058 15.6636L10.5 11.9381V19.389ZM8.99999 9.38923L2.29412 5.66375L8.99999 1.93828V9.38923ZM10.5 9.38923L17.2059 5.66374L10.5 1.93824V9.38923ZM18 14.3889L11.2947 10.6637L18 6.93849L18 14.3889ZM1.50002 14.3888L8.2053 10.6637L1.5 6.93852L1.50002 14.3888Z" fill="#292927"/>
</g>
</svg>
