<svg preserveAspectRatio="xMidYMid meet" overflow="visible" style="display: block;" viewBox="0 0 24 24" fill="none" xmlns="http://www.w3.org/2000/svg">
<g transform="translate(1.2500, 1.2500)">
<path id="Vector" fill-rule="evenodd" clip-rule="evenodd" d="M11.5 0.75C11.5 0.335786 11.1642 0 10.75 0C10.3358 0 10 0.335786 10 0.75V4.75C10 5.16421 10.3358 5.5 10.75 5.5C11.1642 5.5 11.5 5.16421 11.5 4.75V0.75ZM11.5 16.75C11.5 16.3358 11.1642 16 10.75 16C10.3358 16 10 16.3358 10 16.75V20.75C10 21.1642 10.3358 21.5 10.75 21.5C11.1642 21.5 11.5 21.1642 11.5 20.75V16.75ZM21.5 10.75C21.5 11.1642 21.1642 11.5 20.75 11.5H16.75C16.3358 11.5 16 11.1642 16 10.75C16 10.3358 16.3358 10 16.75 10H20.75C21.1642 10 21.5 10.3358 21.5 10.75ZM4.75 11.5C5.16421 11.5 5.5 11.1642 5.5 10.75C5.5 10.3358 5.16421 10 4.75 10H0.75C0.335786 10 0 10.3358 0 10.75C0 11.1642 0.335786 11.5 0.75 11.5H4.75ZM3.1486 3.14838C3.44149 2.85549 3.91637 2.85549 4.20926 3.14838L7.03769 5.97681C7.33058 6.2697 7.33058 6.74458 7.03769 7.03747C6.74479 7.33036 6.26992 7.33036 5.97703 7.03747L3.1486 4.20904C2.85571 3.91615 2.85571 3.44127 3.1486 3.14838ZM15.523 14.4619C15.2301 14.169 14.7552 14.169 14.4623 14.4619C14.1694 14.7548 14.1694 15.2296 14.4623 15.5225L17.2907 18.3509C17.5836 18.6438 18.0585 18.6438 18.3514 18.3509C18.6443 18.0581 18.6443 17.5832 18.3514 17.2903L15.523 14.4619ZM18.3514 3.14849C18.6443 3.44139 18.6443 3.91626 18.3514 4.20915L15.523 7.03758C15.2301 7.33047 14.7552 7.33047 14.4623 7.03758C14.1694 6.74469 14.1694 6.26981 14.4623 5.97692L17.2907 3.14849C17.5836 2.8556 18.0585 2.8556 18.3514 3.14849ZM7.03768 15.5226C7.33058 15.2297 7.33058 14.7549 7.03768 14.462C6.74479 14.1691 6.26992 14.1691 5.97702 14.462L3.1486 17.2904C2.8557 17.5833 2.8557 18.0582 3.1486 18.3511C3.44149 18.644 3.91636 18.644 4.20926 18.3511L7.03768 15.5226Z" fill="#292927"/>
</g>
</svg>
