<svg preserveAspectRatio="xMidYMid meet" overflow="visible" style="display: block;" viewBox="0 0 24 24" fill="none" xmlns="http://www.w3.org/2000/svg">
<g transform="translate(2.2500, 2.2500)">
<path id="Vector" fill-rule="evenodd" clip-rule="evenodd" d="M18 1.5V18H1.5V1.5H18ZM18.15 19.5C18.8956 19.5 19.5 18.8956 19.5 18.15V1.35C19.5 0.604418 18.8956 0 18.15 0H1.35C0.604418 0 0 0.604414 0 1.35V18.15C0 18.8956 0.604414 19.5 1.35 19.5H18.15ZM9.24804 6.31821C8.94015 6.04111 8.91519 5.56689 9.19229 5.25901L9.20229 5.2479C9.47938 4.94002 9.9536 4.91506 10.2615 5.19215C10.5694 5.46925 10.5943 5.94347 10.3172 6.25135L10.3072 6.26246C10.0301 6.57034 9.55592 6.5953 9.24804 6.31821ZM9.19229 9.25901C8.91519 9.56689 8.94015 10.0411 9.24804 10.3182C9.55592 10.5953 10.0301 10.5703 10.3072 10.2625L10.3172 10.2513C10.5943 9.94347 10.5694 9.46925 10.2615 9.19215C9.9536 8.91506 9.47938 8.94002 9.20229 9.2479L9.19229 9.25901ZM9.19229 13.259C8.91519 13.5669 8.94015 14.0411 9.24804 14.3182C9.55592 14.5953 10.0301 14.5703 10.3072 14.2625L10.3172 14.2513C10.5943 13.9435 10.5694 13.4692 10.2615 13.1922C9.9536 12.9151 9.47938 12.94 9.20229 13.2479L9.19229 13.259ZM5.19229 9.25901C4.91519 9.56689 4.94015 10.0411 5.24804 10.3182C5.55592 10.5953 6.03014 10.5703 6.30723 10.2625L6.31723 10.2513C6.59432 9.94347 6.56937 9.46925 6.26148 9.19215C5.9536 8.91506 5.47938 8.94002 5.20229 9.2479L5.19229 9.25901ZM13.248 10.3182C12.9402 10.0411 12.9152 9.56689 13.1923 9.25901L13.2023 9.2479C13.4794 8.94002 13.9536 8.91506 14.2615 9.19215C14.5694 9.46925 14.5943 9.94347 14.3172 10.2513L14.3072 10.2625C14.0301 10.5703 13.5559 10.5953 13.248 10.3182Z" fill="#292927"/>
</g>
</svg>
