<svg preserveAspectRatio="xMidYMid meet" overflow="visible" style="display: block;" viewBox="0 0 24 24" fill="none" xmlns="http://www.w3.org/2000/svg">
<g transform="translate(1.8951, 1.4448)">
<path id="Vector" fill-rule="evenodd" clip-rule="evenodd" d="M10.9902 0.330867C10.4824 -0.110288 9.7273 -0.11029 9.21949 0.330867L7.31917 1.98175L4.81141 1.76314C4.14128 1.70472 3.53039 2.14856 3.37886 2.80394L2.81184 5.25652L0.65452 6.55368C0.0780345 6.90031 -0.155307 7.61846 0.107335 8.23774L1.09019 10.5552L0.107335 12.8727C-0.155306 13.492 0.0780333 14.2101 0.654519 14.5567L2.81184 15.8539L3.37886 18.3065C3.53039 18.9619 4.14128 19.4057 4.81141 19.3473L7.31917 19.1287L9.21949 20.7795C9.7273 21.2207 10.4824 21.2207 10.9902 20.7795L12.8905 19.1287L15.3983 19.3473C16.0684 19.4057 16.6793 18.9619 16.8308 18.3065L17.3979 15.8539L19.5552 14.5567C20.1317 14.2101 20.365 13.492 20.1024 12.8727L19.1195 10.5552L20.1024 8.23774C20.365 7.61846 20.1317 6.90031 19.5552 6.55368L17.3979 5.25652L16.8308 2.80395C16.6793 2.14856 16.0684 1.70472 15.3983 1.76314L12.8905 1.98175L10.9902 0.330867ZM8.25488 3.15585L10.1049 1.5487L11.9548 3.15585C12.2311 3.39583 12.5929 3.51339 12.9574 3.48161L15.3987 3.26879L15.9507 5.65638C16.0332 6.0129 16.2568 6.32069 16.5704 6.50925L18.6706 7.77204L17.7137 10.0281C17.5709 10.365 17.5709 10.7454 17.7137 11.0823L18.6706 13.3384L16.5704 14.6012C16.2568 14.7897 16.0332 15.0975 15.9507 15.454L15.3987 17.8416L12.9574 17.6288C12.5929 17.597 12.2311 17.7146 11.9548 17.9546L10.1049 19.5617L8.25488 17.9546C7.97864 17.7146 7.61682 17.597 7.25228 17.6288L4.81096 17.8416L4.25896 15.454C4.17653 15.0975 3.95291 14.7897 3.63931 14.6012L1.53915 13.3384L2.49597 11.0823C2.63884 10.7454 2.63884 10.365 2.49597 10.0281L1.53915 7.77204L3.63931 6.50925C3.95291 6.32069 4.17653 6.0129 4.25896 5.65638L4.81096 3.26879L7.25228 3.48161C7.61682 3.51339 7.97864 3.39583 8.25488 3.15585ZM7.63519 11.0253C7.3423 10.7324 6.86743 10.7324 6.57453 11.0253C6.28164 11.3182 6.28164 11.7931 6.57453 12.086L8.57453 14.086C8.86743 14.3789 9.3423 14.3789 9.63519 14.086L14.6352 9.08599C14.9281 8.7931 14.9281 8.31823 14.6352 8.02533C14.3423 7.73244 13.8674 7.73244 13.5745 8.02533L9.10487 12.495L7.63519 11.0253Z" fill="#292927"/>
</g>
</svg>
