<svg preserveAspectRatio="xMidYMid meet" overflow="visible" style="display: block;" viewBox="0 0 24 24" fill="none" xmlns="http://www.w3.org/2000/svg">
<g transform="translate(5.7500, 0.2500)">
<path id="Vector" fill-rule="evenodd" clip-rule="evenodd" d="M0 0.75C0 0.335786 0.335786 0 0.75 0C7.23935 0 12.5 5.26065 12.5 11.75C12.5 18.2393 7.23935 23.5 0.75 23.5C0.335786 23.5 0 23.1642 0 22.75V0.75ZM1.5 1.52702V9.93934L5.71967 5.71967C6.01256 5.42678 6.48744 5.42678 6.78033 5.71967C7.07322 6.01256 7.07322 6.48744 6.78033 6.78033L2.56066 11H8.25C8.66421 11 9 11.3358 9 11.75C9 12.1642 8.66421 12.5 8.25 12.5H2.45493L6.80287 17.2432C7.08276 17.5485 7.06213 18.023 6.75679 18.3029C6.45145 18.5828 5.97703 18.5621 5.69713 18.2568L1.5 13.6781V21.973C6.81076 21.5889 11 17.1587 11 11.75C11 6.34131 6.81076 1.91108 1.5 1.52702Z" fill="#292927"/>
</g>
</svg>
