<svg preserveAspectRatio="xMidYMid meet" overflow="visible" style="display: block;" viewBox="0 0 24 24" fill="none" xmlns="http://www.w3.org/2000/svg">
<g transform="translate(1.2500, 3.7500)">
<path id="Vector" fill-rule="evenodd" clip-rule="evenodd" d="M11.5 0.75C11.5 0.335786 11.1642 0 10.75 0C10.3358 0 10 0.335786 10 0.75V4.75C10 5.16421 10.3358 5.5 10.75 5.5C11.1642 5.5 11.5 5.16421 11.5 4.75V0.75ZM10.75 7.75005L11.2832 7.2226C11.2831 7.2225 11.2832 7.2226 10.75 7.75005ZM10.2168 7.2226L10.75 6.68359L11.2832 7.2226L11.2866 7.22604L11.2943 7.23385L11.3219 7.26224C11.3457 7.2867 11.3798 7.32209 11.4227 7.36734C11.5086 7.4578 11.6303 7.58793 11.7758 7.74929C12.066 8.07117 12.4548 8.52129 12.8454 9.03123C13.234 9.53848 13.6362 10.1202 13.9445 10.7044C14.2432 11.2703 14.5 11.923 14.5 12.55C14.5 14.6852 12.8659 16.5 10.75 16.5C8.63407 16.5 7 14.6852 7 12.55C7 11.923 7.25677 11.2703 7.55548 10.7044C7.86379 10.1202 8.26604 9.53848 8.65461 9.03123C9.04523 8.52129 9.43401 8.07117 9.72424 7.74929C9.86972 7.58793 9.99135 7.4578 10.0773 7.36734C10.1202 7.32209 10.1543 7.2867 10.1781 7.26224L10.2057 7.23385L10.2134 7.22604L10.2168 7.2226ZM10.2168 7.2226L10.75 7.75005C10.2168 7.2226 10.2169 7.2225 10.2168 7.2226ZM9.84539 9.94339C10.1672 9.52332 10.4904 9.14384 10.75 8.85227C11.0096 9.14384 11.3328 9.52332 11.6546 9.94339C12.016 10.4152 12.3638 10.923 12.618 11.4046C12.8818 11.9043 13 12.2934 13 12.55C13 13.9495 11.9478 15 10.75 15C9.55222 15 8.5 13.9495 8.5 12.55C8.5 12.2934 8.61823 11.9043 8.88202 11.4046C9.13621 10.923 9.48396 10.4152 9.84539 9.94339ZM1.71967 3.71967C2.01256 3.42678 2.48744 3.42678 2.78033 3.71967L5.78033 6.71967C6.07322 7.01256 6.07322 7.48744 5.78033 7.78033C5.48744 8.07322 5.01256 8.07322 4.71967 7.78033L1.71967 4.78033C1.42678 4.48744 1.42678 4.01256 1.71967 3.71967ZM19.7803 4.78033C20.0732 4.48744 20.0732 4.01256 19.7803 3.71967C19.4874 3.42678 19.0126 3.42678 18.7197 3.71967L15.7197 6.71967C15.4268 7.01256 15.4268 7.48744 15.7197 7.78033C16.0126 8.07322 16.4874 8.07322 16.7803 7.78033L19.7803 4.78033ZM0 13.75C0 13.3358 0.335786 13 0.75 13H4.75C5.16421 13 5.5 13.3358 5.5 13.75C5.5 14.1642 5.16421 14.5 4.75 14.5H0.75C0.335786 14.5 0 14.1642 0 13.75ZM16.75 13C16.3358 13 16 13.3358 16 13.75C16 14.1642 16.3358 14.5 16.75 14.5H20.75C21.1642 14.5 21.5 14.1642 21.5 13.75C21.5 13.3358 21.1642 13 20.75 13H16.75Z" fill="#292927"/>
</g>
</svg>
