<svg preserveAspectRatio="xMidYMid meet" overflow="visible" style="display: block;" viewBox="0 0 24 24" fill="none" xmlns="http://www.w3.org/2000/svg">
<g transform="translate(2.0000, 2.0000)">
<path id="Vector" fill-rule="evenodd" clip-rule="evenodd" d="M9.5 0.75C9.5 0.335786 9.16421 0 8.75 0C8.33579 0 8 0.335786 8 0.75V16.75C8 17.1642 8.33579 17.5 8.75 17.5C9.16421 17.5 9.5 17.1642 9.5 16.75V0.75ZM5.5 5.75C5.5 5.33579 5.16421 5 4.75 5C4.33579 5 4 5.33579 4 5.75L4 11.75C4 12.1642 4.33579 12.5 4.75 12.5C5.16421 12.5 5.5 12.1642 5.5 11.75L5.5 5.75ZM16.75 6C17.1642 6 17.5 6.33579 17.5 6.75V10.75C17.5 11.1642 17.1642 11.5 16.75 11.5C16.3358 11.5 16 11.1642 16 10.75V6.75C16 6.33579 16.3358 6 16.75 6ZM1.5 6.75C1.5 6.33579 1.16421 6 0.75 6C0.335786 6 0 6.33579 0 6.75V10.75C0 11.1642 0.335787 11.5 0.750001 11.5C1.16421 11.5 1.5 11.1642 1.5 10.75L1.5 6.75ZM12.75 3C13.1642 3 13.5 3.33579 13.5 3.75V12.75C13.5 13.1642 13.1642 13.5 12.75 13.5C12.3358 13.5 12 13.1642 12 12.75V3.75C12 3.33579 12.3358 3 12.75 3ZM12.7803 16.7197C12.4874 16.4268 12.0126 16.4268 11.7197 16.7197C11.4268 17.0126 11.4268 17.4874 11.7197 17.7803L13.7197 19.7803C14.0126 20.0732 14.4874 20.0732 14.7803 19.7803L19.7803 14.7803C20.0732 14.4874 20.0732 14.0126 19.7803 13.7197C19.4874 13.4268 19.0126 13.4268 18.7197 13.7197L14.25 18.1893L12.7803 16.7197Z" fill="#292927"/>
</g>
</svg>
