<svg preserveAspectRatio="xMidYMid meet" overflow="visible" style="display: block;" viewBox="0 0 24 24" fill="none" xmlns="http://www.w3.org/2000/svg">
<g transform="translate(3.2500, 2.2500)">
<path id="Vector" fill-rule="evenodd" clip-rule="evenodd" d="M0 1.35C0 0.604415 0.604417 0 1.35 0H16.15C16.8956 0 17.5 0.604415 17.5 1.35V3.75C17.5 4.16421 17.1642 4.5 16.75 4.5C16.3358 4.5 16 4.16421 16 3.75V1.5H1.5V3.75C1.5 4.16421 1.16421 4.5 0.75 4.5C0.335786 4.5 0 4.16421 0 3.75V1.35ZM7.0681 6.02239C7.46995 5.92193 7.87715 6.16625 7.97761 6.5681L8.75 9.65767L9.5224 6.5681C9.62286 6.16625 10.0301 5.92193 10.4319 6.02239C10.8337 6.12285 11.0781 6.53006 10.9776 6.9319L9.47761 12.9319C9.39414 13.2658 9.09415 13.5 8.75 13.5C8.40585 13.5 8.10586 13.2658 8.0224 12.9319L6.5224 6.9319C6.42193 6.53006 6.66625 6.12285 7.0681 6.02239ZM4 11.25C4 10.8358 3.66421 10.5 3.25 10.5H2.75C1.50736 10.5 0.5 9.49264 0.5 8.25C0.5 7.00736 1.50736 6 2.75 6H4.25C4.66421 6 5 6.33579 5 6.75C5 7.16421 4.66421 7.5 4.25 7.5H2.75C2.33579 7.5 2 7.83579 2 8.25C2 8.66421 2.33579 9 2.75 9H3.25C4.49264 9 5.5 10.0074 5.5 11.25C5.5 12.4926 4.49264 13.5 3.25 13.5H1.25C0.835786 13.5 0.5 13.1642 0.5 12.75C0.5 12.3358 0.835786 12 1.25 12H3.25C3.66421 12 4 11.6642 4 11.25ZM12.5 12.75C12.5 12.9489 12.579 13.1397 12.7197 13.2803C12.8603 13.421 13.0511 13.5 13.25 13.5H16.25C16.6642 13.5 17 13.1642 17 12.75V10.35C17 9.93579 16.6642 9.6 16.25 9.6C15.8358 9.6 15.5 9.93579 15.5 10.35V12H14V7.5H16.25C16.6642 7.5 17 7.16421 17 6.75C17 6.33579 16.6642 6 16.25 6H13.25C12.8358 6 12.5 6.33579 12.5 6.75V12.75ZM1.35 19.5C0.604417 19.5 0 18.8956 0 18.15V15.75C0 15.3358 0.335786 15 0.75 15C1.16421 15 1.5 15.3358 1.5 15.75V18H16V15.75C16 15.3358 16.3358 15 16.75 15C17.1642 15 17.5 15.3358 17.5 15.75V18.15C17.5 18.8956 16.8956 19.5 16.15 19.5H1.35Z" fill="#292927"/>
</g>
</svg>
