<svg preserveAspectRatio="xMidYMid meet" overflow="visible" style="display: block;" viewBox="0 0 24 24" fill="none" xmlns="http://www.w3.org/2000/svg">
<g transform="translate(2.2768, 3.7764)">
<path id="Vector" fill-rule="evenodd" clip-rule="evenodd" d="M9.0355 6.72475C8.80405 4.3211 10.565 2.18493 12.9686 1.95349L17.5161 1.51561L17.9258 5.77017C18.1615 8.21861 16.3219 10.4157 13.8551 10.6532C12.9344 10.7419 12.0481 10.5395 11.2913 10.1223C11.9323 9.00829 12.6204 7.98178 13.2926 7.27754C13.5786 6.97791 13.5676 6.50317 13.268 6.21716C12.9684 5.93116 12.4936 5.9422 12.2076 6.24182C11.476 7.00827 10.7585 8.0627 10.1065 9.1752C9.51785 8.51115 9.12618 7.66654 9.0355 6.72475ZM9.34723 10.5456C8.35567 9.60899 7.68303 8.32902 7.5424 6.86852C7.23156 3.64025 9.59659 0.771239 12.8249 0.460393L17.5417 0.00621617C18.2728 -0.0641801 18.9225 0.471418 18.9929 1.20251L19.4189 5.6264C19.7358 8.91772 17.2719 11.8312 13.9989 12.1463C12.7714 12.2645 11.5866 11.9959 10.5731 11.4388C10.3835 11.8041 10.2011 12.1691 10.0279 12.5262C9.57141 13.4678 9.19053 14.3306 8.9238 14.9581C8.79054 15.2716 8.68602 15.5257 8.61505 15.7009C8.57958 15.7885 8.55251 15.8563 8.53444 15.9018L8.51418 15.9531L8.50926 15.9656L8.50813 15.9685C8.39624 16.2561 8.1194 16.4464 7.81083 16.4472C7.50228 16.448 7.22475 16.2597 7.1114 15.9727L7.10937 15.9676L7.1023 15.9499L7.07328 15.8778C7.04743 15.814 7.00871 15.7192 6.95799 15.5973C6.85653 15.3536 6.70716 15.0018 6.51677 14.5726C6.13561 13.7135 5.59188 12.5486 4.94068 11.3224C4.28821 10.0938 3.53519 8.81763 2.73724 7.72959C1.92889 6.62736 1.11989 5.78194 0.371715 5.34472C0.0140884 5.13573 -0.106407 4.6764 0.102581 4.31877C0.311569 3.96115 0.770901 3.84065 1.12853 4.04964C2.14505 4.64367 3.10077 5.68887 3.94682 6.8425C4.80329 8.01033 5.59438 9.35524 6.26545 10.6188C6.89008 11.795 7.41706 12.9128 7.80216 13.7721C8.04403 13.2207 8.34081 12.5677 8.6782 11.8718C8.88485 11.4456 9.10899 10.9985 9.34723 10.5456Z" fill="#292927"/>
</g>
</svg>
