<svg preserveAspectRatio="xMidYMid meet" overflow="visible" style="display: block;" viewBox="0 0 24 24" fill="none" xmlns="http://www.w3.org/2000/svg">
<g transform="translate(6.4310, 1.2500)">
<path id="Vector" fill-rule="evenodd" clip-rule="evenodd" d="M6.31898 0.75C6.31898 0.335786 5.98319 0 5.56898 0C5.15477 0 4.81898 0.335786 4.81898 0.75V2.75C4.81898 3.16421 5.15477 3.5 5.56898 3.5C5.98319 3.5 6.31898 3.16421 6.31898 2.75V0.75ZM5.56898 15.5783L9.59269 10.7498L5.56898 5.92136L1.54526 10.7498L5.56898 15.5783ZM6.60607 16.6768C6.06635 17.3245 5.0716 17.3245 4.53188 16.6768L0.312901 11.6141C-0.1043 11.1134 -0.104301 10.3862 0.312901 9.88558L4.53188 4.82281C5.0716 4.17514 6.06635 4.17514 6.60607 4.82281L10.825 9.88558C11.2423 10.3862 11.2423 11.1134 10.825 11.6141L6.60607 16.6768ZM5.56898 18C5.98319 18 6.31898 18.3358 6.31898 18.75V20.75C6.31898 21.1642 5.98319 21.5 5.56898 21.5C5.15477 21.5 4.81898 21.1642 4.81898 20.75V18.75C4.81898 18.3358 5.15477 18 5.56898 18Z" fill="#292927"/>
</g>
</svg>
