<svg preserveAspectRatio="xMidYMid meet" overflow="visible" style="display: block;" viewBox="0 0 24 24" fill="none" xmlns="http://www.w3.org/2000/svg">
<g transform="translate(2.2500, 1.2517)">
<path id="Vector" fill-rule="evenodd" clip-rule="evenodd" d="M9.75005 0C7.94365 0 6.22184 0.765874 4.96026 2.11156C4.67696 2.41374 4.69227 2.88837 4.99446 3.17167C5.29664 3.45497 5.77127 3.43966 6.05457 3.13747C7.04342 2.08269 8.37386 1.5 9.75005 1.5C11.1262 1.5 12.4567 2.08269 13.4455 3.13747C14.4359 4.19389 15.0001 5.63647 15.0001 7.15C15.0001 10.9861 15.7714 13.5058 16.5823 15.0915C16.987 15.8829 17.3983 16.4353 17.7205 16.798C17.8814 16.9792 18.0196 17.1125 18.1229 17.2043C18.1745 17.2502 18.2174 17.2857 18.25 17.3116C18.2663 17.3245 18.28 17.335 18.291 17.3433L18.3053 17.3539L18.3109 17.358L18.3133 17.3597L18.3144 17.3605C18.3149 17.3609 18.3154 17.3612 18.7501 16.75L18.3154 17.3612C18.653 17.6013 19.1212 17.5222 19.3613 17.1846C19.5997 16.8493 19.5233 16.3851 19.1915 16.1437L19.1828 16.1369C19.1714 16.1279 19.1498 16.1102 19.1194 16.0832C19.0586 16.0292 18.9624 15.9375 18.8421 15.802C18.6018 15.5314 18.2631 15.0838 17.9178 14.4085C17.2287 13.0609 16.5001 10.7806 16.5001 7.15C16.5001 5.26876 15.7999 3.45561 14.5398 2.11156C13.2783 0.765874 11.5565 0 9.75005 0ZM3.23179 5.2924L0.219723 2.28033C-0.0731698 1.98744 -0.0731698 1.51256 0.219723 1.21967C0.512617 0.926777 0.98749 0.926777 1.28038 1.21967L19.2804 19.2197C19.5733 19.5126 19.5733 19.9874 19.2804 20.2803C18.9875 20.5732 18.5126 20.5732 18.2197 20.2803L15.4396 17.5002H0.750053C0.423727 17.5002 0.134851 17.2892 0.0355908 16.9783C-0.0628211 16.6701 0.0475506 16.3339 0.308626 16.1439L0.317349 16.1371C0.328694 16.1281 0.350277 16.1104 0.380687 16.0834C0.441478 16.0294 0.537698 15.9376 0.658043 15.8022C0.898349 15.5316 1.23701 15.084 1.5823 14.4087C2.27142 13.0611 3.00005 10.7807 3.00005 7.1502C3.00005 6.51763 3.07917 5.89337 3.23179 5.2924ZM4.52622 6.58682C4.50886 6.77317 4.50005 6.96117 4.50005 7.1502C4.50005 10.9863 3.72869 13.5059 2.91781 15.0917C2.74009 15.4392 2.56108 15.7407 2.38891 16.0002H13.9396L4.52622 6.58682ZM7.64374 19.1014C8.00204 18.8935 8.46098 19.0155 8.66882 19.3738C8.7787 19.5632 8.93642 19.7205 9.12618 19.8298C9.31594 19.9391 9.53108 19.9966 9.75007 19.9966C9.96906 19.9966 10.1842 19.9391 10.374 19.8298C10.5637 19.7205 10.7214 19.5632 10.8313 19.3738C11.0392 19.0155 11.4981 18.8935 11.8564 19.1014C12.2147 19.3092 12.3367 19.7682 12.1288 20.1265C11.8871 20.5432 11.5401 20.8891 11.1226 21.1296C10.7052 21.37 10.2318 21.4966 9.75007 21.4966C9.2683 21.4966 8.79498 21.37 8.37751 21.1296C7.96004 20.8891 7.61306 20.5432 7.37132 20.1265C7.16348 19.7682 7.28545 19.3092 7.64374 19.1014Z" fill="#292927"/>
</g>
</svg>
