<svg preserveAspectRatio="xMidYMid meet" overflow="visible" style="display: block;" viewBox="0 0 24 24" fill="none" xmlns="http://www.w3.org/2000/svg">
<g transform="translate(2.2500, 3.2500)">
<path id="Vector" fill-rule="evenodd" clip-rule="evenodd" d="M6.35399 14.7689C4.83975 16.349 3.03215 17.5 0.75 17.5C0.335786 17.5 0 17.1642 0 16.75C0 16.3358 0.335786 16 0.75 16C2.46785 16 3.91025 15.151 5.27101 13.7311C6.64449 12.2979 7.85313 10.3699 9.114 8.3525L9.13965 8.31146C10.371 6.34133 11.6548 4.28707 13.146 2.73107C14.6603 1.15099 16.4678 0 18.75 0C19.1642 0 19.5 0.335786 19.5 0.75C19.5 1.16421 19.1642 1.5 18.75 1.5C17.0322 1.5 15.5897 2.34901 14.229 3.76893C12.8555 5.20213 11.6469 7.13011 10.386 9.1475L10.3604 9.18853C9.12905 11.1587 7.84516 13.2129 6.35399 14.7689Z" fill="#292927"/>
</g>
</svg>
