<svg preserveAspectRatio="xMidYMid meet" overflow="visible" style="display: block;" viewBox="0 0 24 24" fill="none" xmlns="http://www.w3.org/2000/svg">
<g transform="translate(1.2500, 1.2500)">
<path id="Vector" fill-rule="evenodd" clip-rule="evenodd" d="M1.5354 9.93517L3.42252 8.02104L2.89715 5.85936C2.14706 7.06123 1.66521 8.44776 1.5354 9.93517ZM2.68186 3.64574C1.01262 5.53999 0 8.02674 0 10.75C0 16.6871 4.81294 21.5 10.75 21.5C16.6871 21.5 21.5 16.6871 21.5 10.75C21.5 8.02675 20.4874 5.54001 18.8182 3.64576C18.814 3.64093 18.8098 3.63615 18.8055 3.63142C16.8359 1.40426 13.9569 0 10.75 0C7.54306 0 4.6641 1.40427 2.69449 3.63144C2.69022 3.63615 2.68601 3.64092 2.68186 3.64574ZM4.07347 4.34791L4.89388 7.72354L6.86323 8.64688L10 6.36786V4.13553L7.26576 2.17867C6.05169 2.67268 4.96621 3.41715 4.07347 4.34791ZM9.0999 1.64675L10.75 2.82771L12.4001 1.64676C11.8647 1.55034 11.3132 1.5 10.75 1.5C10.1868 1.5 9.63534 1.55034 9.0999 1.64675ZM14.2342 2.17867L11.5 4.13552V6.36786L14.6368 8.64687L16.6061 7.72355L17.4265 4.34791C16.5338 3.41715 15.4483 2.67268 14.2342 2.17867ZM18.6029 5.85936L18.0775 8.02104L19.9646 9.93517C19.8348 8.44776 19.3529 7.06123 18.6029 5.85936ZM19.9135 12.0199L17.0882 9.15419L15.1671 10.055L13.9327 13.8539L15.101 15.4581L18.9441 15.0459C19.4311 14.1189 19.7654 13.0991 19.9135 12.0199ZM17.8568 16.6711L15.2116 16.9548L13.7626 19.4983C15.3755 18.943 16.7867 17.9542 17.8568 16.6711ZM11.7829 19.943L13.8584 16.2998L12.7196 14.7361H8.78048L7.64155 16.2998L9.71708 19.943C10.0562 19.9807 10.4008 20 10.75 20C11.0992 20 11.4438 19.9807 11.7829 19.943ZM7.73742 19.4983L6.28835 16.9548L3.64315 16.6711C4.71335 17.9542 6.1245 18.943 7.73742 19.4983ZM2.55595 15.0459L6.39896 15.4581L7.56733 13.8539L6.33299 10.055L4.41177 9.15419L1.58646 12.0199C1.73463 13.0991 2.06893 14.1189 2.55595 15.0459ZM7.82748 9.80041L8.94379 13.2361H12.5563L13.6726 9.80041L10.75 7.67705L7.82748 9.80041Z" fill="#292927"/>
</g>
</svg>
