<svg preserveAspectRatio="xMidYMid meet" overflow="visible" style="display: block;" viewBox="0 0 24 24" fill="none" xmlns="http://www.w3.org/2000/svg">
<g transform="translate(2.3758, 2.3279)">
<path id="Vector" fill-rule="evenodd" clip-rule="evenodd" d="M14.9808 12.1534L9.13444 1.75993L1.81529 14.7718L8.68138 12.1016C8.97279 11.9883 9.29609 11.9883 9.5875 12.1016L11.4063 12.8089C11.7923 12.959 11.9836 13.3937 11.8334 13.7797C11.6833 14.1658 11.2487 14.357 10.8626 14.2069L9.13444 13.5349L1.70806 16.4229C0.614242 16.8483 -0.409843 15.6679 0.165535 14.6451L8.04497 0.637173C8.52285 -0.212393 9.74603 -0.21239 10.2239 0.637174L16.2881 11.418C16.4912 11.779 16.3632 12.2363 16.0021 12.4394C15.6411 12.6424 15.1838 12.5144 14.9808 12.1534ZM14.7861 13.8212C14.4932 13.5283 14.0183 13.5283 13.7254 13.8212C13.4325 14.1141 13.4325 14.589 13.7254 14.8819L15.3164 16.4729L13.7254 18.0639C13.4325 18.3568 13.4325 18.8316 13.7254 19.1245C14.0183 19.4174 14.4932 19.4174 14.7861 19.1245L16.3771 17.5335L17.9681 19.1245C18.261 19.4174 18.7358 19.4174 19.0287 19.1245C19.3216 18.8316 19.3216 18.3568 19.0287 18.0639L17.4377 16.4729L19.0287 14.8819C19.3216 14.589 19.3216 14.1141 19.0287 13.8212C18.7358 13.5283 18.261 13.5283 17.9681 13.8212L16.3771 15.4122L14.7861 13.8212Z" fill="#292927"/>
</g>
</svg>
