<svg preserveAspectRatio="xMidYMid meet" overflow="visible" style="display: block;" viewBox="0 0 24 24" fill="none" xmlns="http://www.w3.org/2000/svg">
<g transform="translate(1.2500, 1.2500)">
<path id="Vector" fill-rule="evenodd" clip-rule="evenodd" d="M6.75 1.5C3.85051 1.5 1.5 3.85051 1.5 6.75V14.75C1.5 17.6495 3.85051 20 6.75 20H14.75C17.6495 20 20 17.6495 20 14.75V6.75C20 3.85051 17.6495 1.5 14.75 1.5H6.75ZM0 6.75C0 3.02208 3.02208 0 6.75 0H14.75C18.4779 0 21.5 3.02208 21.5 6.75V14.75C21.5 18.4779 18.4779 21.5 14.75 21.5H6.75C3.02208 21.5 0 18.4779 0 14.75V6.75ZM6.75 8.5C6.05964 8.5 5.5 9.05964 5.5 9.75V11.75C5.5 12.4404 6.05964 13 6.75 13H9.75C10.4404 13 11 12.4404 11 11.75V9.75C11 9.05964 10.4404 8.5 9.75 8.5H6.75ZM4 9.75C4 8.23122 5.23122 7 6.75 7H9.75C11.1872 7 12.3669 8.10252 12.4895 9.50792L15.3399 7.37011C16.2299 6.70263 17.4999 7.33764 17.4999 8.45011V13.0501C17.4999 14.1626 16.2299 14.7976 15.3399 14.1301L12.4895 11.9923C12.3668 13.3976 11.1871 14.5 9.75 14.5H6.75C5.23122 14.5 4 13.2688 4 11.75V9.75ZM13.3332 10.7501L15.9999 8.75011V12.7501L13.3332 10.7501Z" fill="#292927"/>
</g>
</svg>
