<svg preserveAspectRatio="xMidYMid meet" overflow="visible" style="display: block;" viewBox="0 0 24 24" fill="none" xmlns="http://www.w3.org/2000/svg">
<g transform="translate(1.2500, 1.2500)">
<path id="Vector" fill-rule="evenodd" clip-rule="evenodd" d="M4.7689 3.69362C6.38157 2.32534 8.4694 1.5 10.75 1.5C13.0306 1.5 15.1184 2.32534 16.7311 3.69362L13.4715 6.85646C12.7008 6.31671 11.7624 6 10.75 6C9.73762 6 8.79922 6.31671 8.02846 6.85646L4.7689 3.69362ZM3.70693 4.75325C2.33069 6.36805 1.5 8.46202 1.5 10.75C1.5 13.038 2.3307 15.132 3.70696 16.7468L6.94979 13.6002C6.3534 12.8063 6 11.8194 6 10.75C6 9.68061 6.35339 8.69376 6.94976 7.89985L3.70693 4.75325ZM8.5008 8.40402C7.884 8.99553 7.5 9.82792 7.5 10.75C7.5 12.5449 8.95507 14 10.75 14C12.5449 14 14 12.5449 14 10.75C14 9.82833 13.6163 8.99627 13 8.40481L12.9939 8.39894C12.4105 7.84201 11.6202 7.5 10.75 7.5C9.87964 7.5 9.08918 7.84213 8.50579 8.39924C8.50413 8.40085 8.50247 8.40244 8.5008 8.40402ZM14.5502 7.89985L17.7931 4.75325C19.1693 6.36805 20 8.46202 20 10.75C20 13.038 19.1693 15.132 17.793 16.7468L14.5502 13.6002C15.1466 12.8063 15.5 11.8194 15.5 10.75C15.5 9.68061 15.1466 8.69376 14.5502 7.89985ZM13.4715 14.6436C12.7008 15.1833 11.7624 15.5 10.75 15.5C9.73764 15.5 8.79925 15.1833 8.0285 14.6436L4.76893 17.8064C6.3816 19.1747 8.46942 20 10.75 20C13.0306 20 15.1184 19.1747 16.7311 17.8064L13.4715 14.6436ZM10.75 0C4.81294 0 0 4.81294 0 10.75C0 16.6871 4.81294 21.5 10.75 21.5C16.6871 21.5 21.5 16.6871 21.5 10.75C21.5 4.81294 16.6871 0 10.75 0Z" fill="#292927"/>
</g>
</svg>
