<svg preserveAspectRatio="xMidYMid meet" overflow="visible" style="display: block;" viewBox="0 0 24 24" fill="none" xmlns="http://www.w3.org/2000/svg">
<g transform="translate(2.2500, 1.7500)">
<path id="Vector" fill-rule="evenodd" clip-rule="evenodd" d="M12 3.75C12 2.50736 10.9926 1.5 9.75 1.5C8.50736 1.5 7.5 2.50736 7.5 3.75V4H12V3.75ZM9.75 0C11.8211 0 13.5 1.67893 13.5 3.75V4.75C13.5 5.16421 13.1642 5.5 12.75 5.5H6.75C6.33579 5.5 6 5.16421 6 4.75V3.75C6 1.67893 7.67893 0 9.75 0ZM18 15.75C18 15.4418 17.8626 15.0916 17.4994 14.7101C17.1326 14.3246 16.5664 13.9434 15.8094 13.6069C14.2971 12.9348 12.1555 12.5 9.75 12.5C7.34454 12.5 5.20286 12.9348 3.69064 13.6069C2.93359 13.9434 2.36737 14.3246 2.00056 14.7101C1.63743 15.0916 1.5 15.4418 1.5 15.75C1.5 16.0582 1.63743 16.4084 2.00056 16.7899C2.36737 17.1754 2.93359 17.5566 3.69064 17.8931C5.20286 18.5652 7.34454 19 9.75 19C12.1555 19 14.2971 18.5652 15.8094 17.8931C16.5664 17.5566 17.1326 17.1754 17.4994 16.7899C17.8626 16.4084 18 16.0582 18 15.75ZM18.9974 14.1856C18.9884 14.0804 18.957 13.9754 18.9012 13.8778L14.9012 6.87777C14.6957 6.51813 14.2375 6.39318 13.8779 6.59869C13.5183 6.8042 13.3933 7.26234 13.5988 7.62198L16.176 12.1321C14.4579 11.4195 12.1981 11 9.75 11C7.30188 11 5.0421 11.4195 3.32397 12.1321L5.90118 7.62198C6.10668 7.26234 5.98174 6.8042 5.6221 6.59869C5.26246 6.39318 4.80432 6.51813 4.59881 6.87777L0.598812 13.8778C0.542991 13.9755 0.51155 14.0804 0.502572 14.1856C0.190657 14.6499 0 15.1754 0 15.75C0 16.5463 0.366245 17.2485 0.913969 17.824C1.45801 18.3957 2.20981 18.8764 3.08144 19.2638C4.82658 20.0394 7.1849 20.5 9.75 20.5C12.3151 20.5 14.6734 20.0394 16.4186 19.2638C17.2902 18.8764 18.042 18.3957 18.586 17.824C19.1338 17.2485 19.5 16.5463 19.5 15.75C19.5 15.1754 19.3093 14.6499 18.9974 14.1856Z" fill="#292927"/>
</g>
</svg>
