<svg preserveAspectRatio="xMidYMid meet" overflow="visible" style="display: block;" viewBox="0 0 24 24" fill="none" xmlns="http://www.w3.org/2000/svg">
<g transform="translate(1.2500, 1.2500)">
<path id="Vector" fill-rule="evenodd" clip-rule="evenodd" d="M10.75 0C4.81294 0 0 4.81294 0 10.75C0 16.687 4.81293 21.5 10.75 21.5C16.687 21.5 21.5 16.687 21.5 10.75C21.5 4.81293 16.687 0 10.75 0ZM1.5 10.75C1.5 5.64136 5.64136 1.5 10.75 1.5C15.8586 1.5 20 5.64137 20 10.75C20 15.8586 15.8586 20 10.75 20C5.64137 20 1.5 15.8586 1.5 10.75ZM8.4517 7.39154C8.15881 7.09865 7.68393 7.09865 7.39104 7.39154C7.09815 7.68444 7.09815 8.15931 7.39104 8.45221L11.7675 12.8287H8.62848C8.21427 12.8287 7.87848 13.1645 7.87848 13.5787C7.87848 13.9929 8.21427 14.3287 8.62848 14.3287H13.5782C13.6799 14.3287 13.7769 14.3085 13.8653 14.2718C13.9537 14.2352 14.0366 14.1809 14.1085 14.109C14.1804 14.0371 14.2347 13.9543 14.2713 13.8658C14.308 13.7774 14.3282 13.6804 14.3282 13.5787V8.62897C14.3282 8.21476 13.9924 7.87897 13.5782 7.87897C13.164 7.87897 12.8282 8.21476 12.8282 8.62897V11.768L8.4517 7.39154Z" fill="#292927"/>
</g>
</svg>
