<svg preserveAspectRatio="xMidYMid meet" overflow="visible" style="display: block;" viewBox="0 0 24 24" fill="none" xmlns="http://www.w3.org/2000/svg">
<g transform="translate(2.3701, 1.5244)">
<path id="Vector" fill-rule="evenodd" clip-rule="evenodd" d="M10.2265 0.0654856C9.83354 -0.0218285 9.42625 -0.0218286 9.03333 0.0654855L1.37117 1.76819C0.482459 1.96568 -0.112102 2.81056 0.0177899 3.7198L1.88743 16.8073C1.93312 17.1271 2.0985 18.2149 3.22484 19.2011C4.33821 20.176 6.27404 20.9512 9.62989 20.9512C12.9857 20.9512 14.9216 20.176 16.0349 19.2011C17.1613 18.2149 17.3267 17.1271 17.3724 16.8073L19.242 3.7198C19.3719 2.81056 18.7773 1.96568 17.8886 1.76819L10.2265 0.0654856ZM9.35873 1.52977C9.53732 1.49008 9.72246 1.49008 9.90105 1.52977L17.5632 3.23247C17.6947 3.26168 17.775 3.38234 17.7571 3.50767L15.8863 16.6031C15.8598 16.7896 15.7671 17.4418 15.0468 18.0726C14.3029 18.724 12.774 19.4512 9.62989 19.4512C6.48574 19.4512 4.95693 18.724 4.21298 18.0726C3.49264 17.4418 3.39997 16.7896 3.37349 16.6031L1.50271 3.50767C1.48481 3.38234 1.5651 3.26168 1.69657 3.23247L9.35873 1.52977ZM7.96322 5.95117C7.549 5.95117 7.21322 6.28696 7.21322 6.70117V8.28451H5.62988C5.21567 8.28451 4.87988 8.62029 4.87988 9.03451V12.3678C4.87988 12.7821 5.21567 13.1178 5.62988 13.1178H7.21322V14.7012C7.21322 15.1154 7.549 15.4512 7.96322 15.4512H11.2965C11.7108 15.4512 12.0465 15.1154 12.0465 14.7012V13.1178H13.6299C14.0441 13.1178 14.3799 12.7821 14.3799 12.3678V9.03451C14.3799 8.62029 14.0441 8.28451 13.6299 8.28451H12.0465V6.70117C12.0465 6.28696 11.7108 5.95117 11.2965 5.95117H7.96322ZM8.71322 9.03451V7.45117H10.5465V9.03451C10.5465 9.44872 10.8823 9.78451 11.2965 9.78451H12.8799V11.6178H11.2965C10.8823 11.6178 10.5465 11.9536 10.5465 12.3678V13.9512H8.71322V12.3678C8.71322 11.9536 8.37743 11.6178 7.96322 11.6178H6.37988V9.78451H7.96322C8.37743 9.78451 8.71322 9.44872 8.71322 9.03451Z" fill="#292927"/>
</g>
</svg>
