<svg preserveAspectRatio="xMidYMid meet" overflow="visible" style="display: block;" viewBox="0 0 24 24" fill="none" xmlns="http://www.w3.org/2000/svg">
<g transform="translate(6.2500, 4.0000)">
<path id="Vector" fill-rule="evenodd" clip-rule="evenodd" d="M0.056909 4.53709C0.0935089 4.62555 0.147763 4.70842 0.21967 4.78033L3.71967 8.28033C4.01256 8.57322 4.48744 8.57322 4.78033 8.28033C5.07322 7.98744 5.07322 7.51256 4.78033 7.21967L2.56066 5H6.75C8.54492 5 10 6.45507 10 8.25V15.25C10 15.6642 10.3358 16 10.75 16C11.1642 16 11.5 15.6642 11.5 15.25V8.25C11.5 5.62665 9.37335 3.5 6.75 3.5H2.56066L4.78033 1.28033C5.07322 0.987436 5.07322 0.512563 4.78033 0.21967C4.48744 -0.0732232 4.01256 -0.0732232 3.71967 0.21967L0.21967 3.71967C0.0732233 3.86612 0 4.05806 0 4.25C0 4.35169 0.0202391 4.44866 0.056909 4.53709Z" fill="#292927"/>
</g>
</svg>
