<svg preserveAspectRatio="none" width="39" height="40" overflow="visible" style="display: block;" viewBox="0 0 39.0242 40" fill="none" xmlns="http://www.w3.org/2000/svg">
<g id="Logotype">
<path id="Fill 1" fill-rule="evenodd" clip-rule="evenodd" d="M38.7979 15.2454C38.6496 14.9537 38.4344 14.7031 38.1707 14.5136L18.4614 0.361836C18.1338 0.126085 17.7431 3.3113e-06 17.342 3.3113e-06V3.3113e-06C16.9417 -0.000742735 16.551 0.124593 16.2241 0.358851L14.3277 1.71292C13.9862 1.95688 13.7078 2.27992 13.5153 2.65667V2.65667C13.3229 3.03268 13.2223 3.45047 13.2223 3.87497V13.6638V14.6896C13.2223 15.041 12.8323 15.2469 12.5495 15.044L11.7239 14.4517L5.2516 9.81424C4.92476 9.57998 4.53401 9.4539 4.13371 9.45315V9.45315C3.73341 9.45315 3.34266 9.57849 3.01508 9.81274L0.868904 11.3459C0.604488 11.5346 0.388548 11.7845 0.239446 12.0755V12.0755C0.0903448 12.3672 0.0117544 12.691 0.0117544 13.02L2.59861e-06 22.7313C-0.000731891 23.3841 0.154245 24.0272 0.450979 24.6061V24.6061C0.743306 25.1768 1.16417 25.6662 1.68125 26.0377C5.56376 28.828 17.6491 37.5679 20.4364 39.5837C20.8125 39.8553 21.262 40.0007 21.7233 40L21.7446 39.9993C22.1471 39.9985 22.5386 39.8702 22.8661 39.6329L24.7905 38.2386C25.1188 38.0006 25.3862 37.6858 25.5713 37.3217L25.5786 37.3075C25.7696 36.93 25.8695 36.513 25.8687 36.0885C25.868 33.8123 25.868 26.2892 25.868 26.2892V25.2656C25.868 24.9105 26.2631 24.7031 26.5481 24.909L27.37 25.5013L33.7851 30.1298C34.1126 30.3663 34.5041 30.4939 34.9059 30.4954C35.3069 30.4961 35.6984 30.3715 36.0267 30.1365L38.1773 28.6004C38.4344 28.4169 38.6437 28.1737 38.7884 27.8909L38.7943 27.8797C38.9456 27.5843 39.0242 27.259 39.0242 26.9293C39.0234 24.9955 39.0234 18.0446 39.0234 16.1616C39.0234 15.8483 38.95 15.5431 38.8082 15.2656L38.7979 15.2454Z" fill="#465A54"/>
<path id="Fill 4" fill-rule="evenodd" clip-rule="evenodd" d="M19.5169 20.0044C19.3039 20.1574 19.019 20.1581 18.8052 20.0067L16.5039 18.3555C16.26 18.1817 16.26 17.8153 16.5024 17.6415L22.2322 13.5353C22.4474 13.3808 22.7345 13.3816 22.9483 13.5368L25.2181 15.1798C25.459 15.3543 25.4582 15.7177 25.2173 15.8915L19.5169 20.0044Z" fill="#FF6A5F"/>
</g>
</svg>
