<svg preserveAspectRatio="xMidYMid meet" overflow="visible" style="display: block;" viewBox="0 0 24 24" fill="none" xmlns="http://www.w3.org/2000/svg">
<g transform="translate(1.7499, 3.0000)">
<path id="Vector" fill-rule="evenodd" clip-rule="evenodd" d="M0.414754 1.07918C0.0442702 1.26442 -0.105898 1.71493 0.0793439 2.08541C0.264586 2.45589 0.715091 2.60606 1.08557 2.42082L2.00016 1.96353V5.75C2.00016 6.16421 2.33595 6.5 2.75016 6.5C3.16438 6.5 3.50016 6.16421 3.50016 5.75V0.750001C3.50016 0.490068 3.36558 0.248667 3.14446 0.112013C2.92335 -0.0246422 2.64725 -0.0370653 2.41475 0.0791805L0.414754 1.07918ZM6.75015 4C6.33594 4 6.00015 4.33579 6.00015 4.75C6.00015 5.16421 6.33594 5.5 6.75015 5.5H14.7502C15.4635 5.5 16.5501 5.72016 17.4369 6.35865C18.2855 6.9696 19.0002 7.99444 19.0002 9.75C19.0002 11.0755 18.5927 11.9713 18.0521 12.5858C17.7785 12.8968 17.8088 13.3707 18.1198 13.6443C18.4307 13.9179 18.9047 13.8876 19.1783 13.5766C19.9771 12.6687 20.5002 11.4132 20.5002 9.75C20.5002 7.50556 19.5482 6.0304 18.3134 5.14135C17.1168 4.27984 15.7035 4 14.7502 4H6.75015ZM2.50015 9.75C2.50015 9.33579 2.16437 9 1.75015 9C1.33594 9 1.00015 9.33579 1.00015 9.75C1.00015 11.9944 1.95214 13.4696 3.18692 14.3587C4.38347 15.2202 5.7968 15.5 6.75015 15.5H13.9395L12.7198 16.7197C12.4269 17.0126 12.4269 17.4874 12.7198 17.7803C13.0127 18.0732 13.4876 18.0732 13.7805 17.7803L16.2805 15.2803C16.5734 14.9874 16.5734 14.5126 16.2805 14.2197L13.7805 11.7197C13.4876 11.4268 13.0127 11.4268 12.7198 11.7197C12.4269 12.0126 12.4269 12.4874 12.7198 12.7803L13.9395 14H6.75015C6.03684 14 4.95017 13.7798 4.06338 13.1414C3.21484 12.5304 2.50015 11.5056 2.50015 9.75Z" fill="#292927"/>
</g>
</svg>
