<svg preserveAspectRatio="xMidYMid meet" overflow="visible" style="display: block;" viewBox="0 0 24 24" fill="none" xmlns="http://www.w3.org/2000/svg">
<g transform="translate(4.7498, 1.2499)">
<path id="Vector" fill-rule="evenodd" clip-rule="evenodd" d="M4.10212 0.0577243C4.48456 -0.101371 4.92356 0.0796863 5.08266 0.462128L6.12266 2.96213C6.28176 3.34457 6.1007 3.78357 5.71826 3.94267C5.33582 4.10176 4.89681 3.92071 4.73772 3.53826L3.69772 1.03826C3.53862 0.655822 3.71968 0.21682 4.10212 0.0577243ZM0.447289 0.0640819C0.82622 -0.103205 1.26902 0.0683667 1.4363 0.447297L4.88581 8.26097C5.08226 8.20463 5.28238 8.15697 5.48573 8.11843L9.24114 0.421327C9.42277 0.0490589 9.87179 -0.105485 10.2441 0.0761442C10.6163 0.257773 10.7709 0.706796 10.5892 1.07906L7.20507 8.01528C7.86008 8.05887 8.48953 8.19589 9.0802 8.41314L13.0794 0.414786C13.2646 0.0443021 13.7151 -0.105866 14.0856 0.0793752C14.4561 0.264617 14.6062 0.715121 14.421 1.08561L10.4214 9.08489C12.2745 10.2882 13.5002 12.3761 13.5002 14.7502C13.5002 18.4781 10.4781 21.5002 6.75019 21.5002C3.02227 21.5002 0.00018822 18.4781 0.00018822 14.7502C0.00018822 12.201 1.41327 9.98191 3.49886 8.83342L0.0640743 1.05309C-0.103212 0.674165 0.0683591 0.231368 0.447289 0.0640819ZM6.08006 9.54256C3.49701 9.87165 1.50019 12.0777 1.50019 14.7502C1.50019 17.6497 3.85069 20.0002 6.75019 20.0002C9.64968 20.0002 12.0002 17.6497 12.0002 14.7502C12.0002 11.8507 9.64968 9.5002 6.75019 9.5002C6.52316 9.5002 6.29949 9.51461 6.08006 9.54256Z" fill="#292927"/>
</g>
</svg>
