<svg preserveAspectRatio="xMidYMid meet" overflow="visible" style="display: block;" viewBox="0 0 24 24" fill="none" xmlns="http://www.w3.org/2000/svg">
<g transform="translate(3.8750, 3.4584)">
<path id="Vector" fill-rule="evenodd" clip-rule="evenodd" d="M6.04167 0C6.30319 0 6.53707 0.16283 6.62782 0.408102L7.31586 2.26748L9.17523 2.95551C9.4205 3.04627 9.58333 3.28014 9.58333 3.54167C9.58333 3.80319 9.4205 4.03707 9.17523 4.12782L7.31586 4.81586L6.62782 6.67523C6.53707 6.9205 6.30319 7.08333 6.04167 7.08333C5.78014 7.08333 5.54627 6.9205 5.45551 6.67523L4.76748 4.81586L2.9081 4.12782C2.66283 4.03707 2.5 3.80319 2.5 3.54167C2.5 3.28014 2.66283 3.04627 2.9081 2.95551L4.76748 2.26748L5.45551 0.408102C5.54627 0.16283 5.78014 0 6.04167 0ZM6.04167 2.42596L5.84006 2.9708C5.77676 3.14187 5.64187 3.27676 5.4708 3.34006L4.92596 3.54167L5.4708 3.74327C5.64187 3.80658 5.77676 3.94146 5.84006 4.11253L6.04167 4.65737L6.24327 4.11253C6.30658 3.94146 6.44146 3.80658 6.61253 3.74327L7.15737 3.54167L6.61253 3.34006C6.44146 3.27676 6.30658 3.14187 6.24327 2.9708L6.04167 2.42596ZM0.183058 16.9002C-0.0610194 16.6561 -0.0610194 16.2604 0.183058 16.0163L8.51639 7.68296C8.76047 7.43889 9.1562 7.43889 9.40027 7.68296C9.64435 7.92704 9.64435 8.32277 9.40027 8.56685L1.06694 16.9002C0.822864 17.1443 0.427136 17.1443 0.183058 16.9002ZM10.5997 6.48352C10.3556 6.23944 10.3556 5.84371 10.5997 5.59963L12.6831 3.5163C12.9271 3.27222 13.3229 3.27222 13.5669 3.5163C13.811 3.76038 13.811 4.1561 13.5669 4.40018L11.4836 6.48352C11.2395 6.72759 10.8438 6.72759 10.5997 6.48352ZM14.5445 7.07477C14.4537 6.8295 14.2199 6.66667 13.9583 6.66667C13.6968 6.66667 13.4629 6.8295 13.3722 7.07477L13.0218 8.02176L12.0748 8.37218C11.8295 8.46294 11.6667 8.69681 11.6667 8.95833C11.6667 9.21986 11.8295 9.45373 12.0748 9.54449L13.0218 9.89491L13.3722 10.8419C13.4629 11.0872 13.6968 11.25 13.9583 11.25C14.2199 11.25 14.4537 11.0872 14.5445 10.8419L14.8949 9.89491L15.8419 9.54449C16.0872 9.45373 16.25 9.21986 16.25 8.95833C16.25 8.69681 16.0872 8.46294 15.8419 8.37218L14.8949 8.02176L14.5445 7.07477ZM13.9418 8.95833C13.9474 8.95291 13.9529 8.94739 13.9583 8.94176C13.9615 8.94502 13.9647 8.94825 13.9679 8.95144C13.9702 8.95376 13.9725 8.95606 13.9749 8.95833C13.9693 8.96375 13.9638 8.96928 13.9583 8.97491C13.9555 8.97197 13.9526 8.96906 13.9498 8.96617C13.9471 8.96354 13.9444 8.96092 13.9418 8.95833Z" fill="#292927"/>
</g>
</svg>
