<svg preserveAspectRatio="xMidYMid meet" overflow="visible" style="display: block;" viewBox="0 0 24 24" fill="none" xmlns="http://www.w3.org/2000/svg">
<g transform="translate(1.2500, 1.2500)">
<path id="Vector" fill-rule="evenodd" clip-rule="evenodd" d="M1.5 10.75C1.5 5.64137 5.64137 1.5 10.75 1.5C15.8586 1.5 20 5.64137 20 10.75C20 15.8586 15.8586 20 10.75 20C5.64137 20 1.5 15.8586 1.5 10.75ZM10.75 0C4.81294 0 0 4.81294 0 10.75C0 16.6871 4.81294 21.5 10.75 21.5C16.6871 21.5 21.5 16.6871 21.5 10.75C21.5 4.81294 16.6871 0 10.75 0ZM10.0132 16.8627C10.5665 18.4663 12.834 18.4676 13.3891 16.8646L16.8573 6.85084C17.3265 5.49603 16.0885 4.16846 14.7043 4.54202L4.47295 7.30316C2.83515 7.74516 2.67827 10.0072 4.23938 10.6711L8.50219 12.4838L10.0132 16.8627ZM11.9717 16.3737C11.8828 16.6304 11.5197 16.6302 11.4311 16.3734L9.70269 11.3643L4.82638 9.29068C4.57638 9.18437 4.60151 8.82213 4.86378 8.75135L15.0951 5.99021C15.3168 5.93039 15.515 6.14299 15.4399 6.35994L11.9717 16.3737Z" fill="#292927"/>
</g>
</svg>
