<svg preserveAspectRatio="xMidYMid meet" overflow="visible" style="display: block;" viewBox="0 0 24 24" fill="none" xmlns="http://www.w3.org/2000/svg">
<g transform="translate(2.2500, 2.2500)">
<path id="Vector" fill-rule="evenodd" clip-rule="evenodd" d="M18 1.5V18H1.5V1.5H18ZM18.15 19.5C18.8956 19.5 19.5 18.8956 19.5 18.15V1.35C19.5 0.604418 18.8956 0 18.15 0H1.35C0.604418 0 0 0.604414 0 1.35V18.15C0 18.8956 0.604414 19.5 1.35 19.5H18.15ZM9.95 6.5C10.5299 6.5 11 6.9701 11 7.55V7.75C11 8.16421 11.3358 8.5 11.75 8.5C12.1642 8.5 12.5 8.16421 12.5 7.75V7.55C12.5 6.14167 11.3583 5 9.95 5H9.55C8.14167 5 7 6.14167 7 7.55V11.95C7 13.3583 8.14167 14.5 9.55 14.5H9.95C11.3583 14.5 12.5 13.3583 12.5 11.95V11.75C12.5 11.3358 12.1642 11 11.75 11C11.3358 11 11 11.3358 11 11.75V11.95C11 12.5299 10.5299 13 9.95 13H9.55C8.9701 13 8.5 12.5299 8.5 11.95V7.55C8.5 6.9701 8.9701 6.5 9.55 6.5H9.95Z" fill="#292927"/>
</g>
</svg>
