<svg preserveAspectRatio="xMidYMid meet" overflow="visible" style="display: block;" viewBox="0 0 24 24" fill="none" xmlns="http://www.w3.org/2000/svg">
<g transform="translate(2.8605, 2.8598)">
<path id="Vector" fill-rule="evenodd" clip-rule="evenodd" d="M15.4078 3.93198L16.2917 3.0481C16.3893 2.95047 16.3893 2.79217 16.2917 2.69454L15.5846 1.98744C15.487 1.88981 15.3287 1.88981 15.231 1.98744L14.3472 2.87132L15.4078 3.93198ZM14.1704 0.926777L13.2865 1.81066L11.6955 0.21967C11.4026 -0.0732231 10.9277 -0.0732234 10.6349 0.21967C10.342 0.512563 10.342 0.987437 10.6349 1.28033L16.9988 7.64429C17.2917 7.93718 17.7666 7.93718 18.0595 7.64429C18.3524 7.3514 18.3524 6.87652 18.0595 6.58363L16.4685 4.99264L17.3524 4.10876C18.0358 3.42534 18.0358 2.3173 17.3524 1.63388L16.6453 0.926777C15.9618 0.243359 14.8538 0.243359 14.1704 0.926777ZM13.8174 6.58431C14.5009 7.26772 14.5009 8.37576 13.8174 9.05918L6.18069 16.6959C6.01731 16.8593 5.8232 16.9887 5.60956 17.0767L3.11293 18.1047C1.26357 18.8662 -0.585782 17.0168 0.175718 15.1675L1.20374 12.6709C1.29171 12.4572 1.42112 12.2631 1.58449 12.0997L9.22125 4.46299C9.90466 3.77957 11.0127 3.77957 11.6961 4.46299L13.8174 6.58431ZM12.7568 7.99852C12.8544 7.90089 12.8544 7.7426 12.7568 7.64497L10.6355 5.52364C10.5378 5.42601 10.3795 5.42601 10.2819 5.52364L6.09784 9.70771H11.0476L12.7568 7.99852ZM9.54759 11.2077H4.59784L2.64515 13.1604C2.62181 13.1837 2.60333 13.2115 2.59076 13.242L1.56274 15.7386C1.3089 16.3551 1.92535 16.9715 2.54181 16.7177L5.03844 15.6897C5.06896 15.6771 5.09669 15.6586 5.12003 15.6353L9.54759 11.2077Z" fill="#292927"/>
</g>
</svg>
