<svg preserveAspectRatio="xMidYMid meet" overflow="visible" style="display: block;" viewBox="0 0 24 24" fill="none" xmlns="http://www.w3.org/2000/svg">
<g transform="translate(3.2500, 1.7495)">
<path id="Vector" fill-rule="evenodd" clip-rule="evenodd" d="M8.31748 1.25173C8.59457 0.943848 8.56961 0.469631 8.26173 0.192536C7.95385 -0.0845583 7.47963 -0.0595998 7.20254 0.248283L7.19254 0.259394C6.91544 0.567276 6.9404 1.04149 7.24828 1.31859C7.55616 1.59568 8.03038 1.57072 8.30748 1.26284L8.31748 1.25173ZM4 2.75098C4 2.33676 4.33579 2.00098 4.75 2.00098H12.75C13.1642 2.00098 13.5 2.33676 13.5 2.75098C13.5 3.16519 13.1642 3.50098 12.75 3.50098H12.5V7.50407C12.5 7.96508 12.773 8.43408 13.2468 8.75264C15.6099 10.3415 17.5 13.0613 17.5 16.2126C17.5 17.095 17.3765 17.949 17.1458 18.7568C16.8212 19.8933 15.7436 20.501 14.699 20.501H2.80096C1.75643 20.501 0.678768 19.8933 0.354186 18.7568C0.123478 17.949 0 17.095 0 16.2126C0 13.0613 1.89014 10.3415 4.25324 8.75264C4.72704 8.43408 5 7.96508 5 7.50407V3.50098H4.75C4.33579 3.50098 4 3.16519 4 2.75098ZM6.5 3.50098V7.50407C6.5 8.56943 5.88307 9.46433 5.09019 9.99743C3.95879 10.7581 2.98428 11.797 2.33722 13.001H15.1628C14.5157 11.797 13.5412 10.7581 12.4098 9.99743C11.6169 9.46433 11 8.56944 11 7.50407V3.50098H6.5ZM15.75 14.4416V14.501H1.75V14.4416C1.58799 15.012 1.5 15.6054 1.5 16.2126C1.5 16.9545 1.60376 17.67 1.79651 18.3449C1.9008 18.71 2.28382 19.001 2.80096 19.001H14.699C15.2162 19.001 15.5992 18.71 15.7035 18.3449C15.8962 17.67 16 16.9545 16 16.2126C16 15.6054 15.912 15.012 15.75 14.4416ZM10.2617 5.19254C10.5696 5.46963 10.5946 5.94385 10.3175 6.25173L10.3075 6.26284C10.0304 6.57072 9.55616 6.59568 9.24828 6.31859C8.9404 6.04149 8.91544 5.56728 9.19254 5.25939L9.20254 5.24828C9.47963 4.9404 9.95385 4.91544 10.2617 5.19254Z" fill="#292927"/>
</g>
</svg>
