<svg preserveAspectRatio="xMidYMid meet" overflow="visible" style="display: block;" viewBox="0 0 24 24" fill="none" xmlns="http://www.w3.org/2000/svg">
<g transform="translate(1.3609, 0.8608)">
<path id="Vector" fill-rule="evenodd" clip-rule="evenodd" d="M9.75001 8.5C9.33579 8.5 9.00001 8.16421 9.00001 7.75V2.0245L2.29406 5.75003L9.75003 9.89222L17.206 5.75003L10.5 2.02449V7.75C10.5 8.16421 10.1642 8.5 9.75001 8.5ZM10.4056 0.256126C10.3492 0.224752 10.291 0.197723 10.2316 0.17504C10.1013 0.0657858 9.93335 0 9.75001 0C9.56666 0 9.39868 0.0657916 9.26838 0.175055C9.20901 0.197734 9.15086 0.224758 9.0944 0.256124L0.694384 4.92279C0.265804 5.16089 0 5.61263 0 6.10291L1.90735e-05 15.3968C1.90735e-05 15.8871 0.265823 16.3388 0.694401 16.5769L9.38579 21.4055C9.74787 21.6066 10.2045 21.4762 10.4056 21.1141C10.6068 20.752 10.4763 20.2954 10.1143 20.0942L1.50002 15.3086L1.5 7.02482L9.00001 11.1915V16.25C9.00001 16.6642 9.33579 17 9.75001 17C10.1642 17 10.5 16.6642 10.5 16.25V11.1915L18 7.02483L18 9.74987C18 10.1641 18.3358 10.4999 18.75 10.4999C19.1642 10.4999 19.5 10.1641 19.5 9.74986L19.5 6.1029C19.5 5.61263 19.2342 5.16089 18.8056 4.92279L10.4056 0.256126ZM15.8765 16.5231C15.5836 16.2302 15.5836 15.7554 15.8765 15.4625C16.1694 15.1696 16.6443 15.1696 16.9372 15.4625L17.6443 16.1696C17.9372 16.4625 17.9372 16.9373 17.6443 17.2302C17.3514 17.5231 16.8765 17.5231 16.5836 17.2302L15.8765 16.5231ZM14.4623 16.8765C14.1694 17.1694 14.1694 17.6443 14.4623 17.9372L15.1694 18.6443C15.4623 18.9372 15.9372 18.9372 16.2301 18.6443C16.5229 18.3514 16.5229 17.8765 16.2301 17.5836L15.5229 16.8765C15.2301 16.5836 14.7552 16.5836 14.4623 16.8765ZM12.6945 17.9374C12.2064 18.4256 12.2064 19.217 12.6945 19.7052L13.4016 20.4123C13.8898 20.9004 14.6812 20.9004 15.1694 20.4123L19.412 16.1696C19.9002 15.6815 19.9002 14.89 19.412 14.4019L18.7049 13.6948C18.2168 13.2066 17.4253 13.2066 16.9372 13.6948L12.6945 17.9374ZM11.6339 20.7658C10.5599 19.6919 10.5599 17.9507 11.6339 16.8767L15.8765 12.6341C16.9504 11.5602 18.6916 11.5602 19.7656 12.6341L20.4727 13.3412C21.5466 14.4152 21.5466 16.1564 20.4727 17.2303L16.2301 21.4729C15.1561 22.5469 13.4149 22.5469 12.341 21.4729L11.6339 20.7658Z" fill="#292927"/>
</g>
</svg>
