<svg preserveAspectRatio="xMidYMid meet" overflow="visible" style="display: block;" viewBox="0 0 24 24" fill="none" xmlns="http://www.w3.org/2000/svg">
<g transform="translate(1.1208, 3.1426)">
<path id="Vector" fill-rule="evenodd" clip-rule="evenodd" d="M10.0084 1.5177L1.68541 5.67918L3.31666 6.4948C3.33466 6.50293 3.35228 6.51174 3.36948 6.52121L10.0084 9.84065L16.6473 6.5212C16.6645 6.51174 16.6821 6.50293 16.7 6.49481L18.3313 5.67918L10.0084 1.5177ZM17.7584 7.6427L19.2705 6.88666C19.5013 6.77122 19.6786 6.60612 19.8024 6.41441L20.2584 6.6424L20.2584 9.67888C20.2584 10.0931 20.5941 10.4289 21.0084 10.4289C21.4226 10.4289 21.7584 10.0931 21.7584 9.67887L21.7584 6.17887C21.7584 5.8948 21.5979 5.6351 21.3438 5.50805L19.3438 4.50805C19.3324 4.50238 19.321 4.49702 19.3095 4.49198C19.2967 4.48506 19.2837 4.4783 19.2705 4.4717L10.6121 0.142524C10.232 -0.0475072 9.78469 -0.0475083 9.40462 0.142523L0.746261 4.4717C-0.248758 4.96921 -0.24875 6.38915 0.746263 6.88666L2.25836 7.64271V12.5908C2.25836 13.6526 2.86967 14.6196 3.82888 15.075L8.82888 17.449C9.57528 17.8034 10.4415 17.8034 11.1878 17.449L16.1878 15.075C17.1471 14.6196 17.7584 13.6526 17.7584 12.5908V7.6427ZM16.2584 8.3927L10.6121 11.2158C10.232 11.4059 9.78469 11.4059 9.40463 11.2158L3.75836 8.3927V12.5908C3.75836 13.0735 4.03623 13.513 4.47223 13.72L9.47224 16.094C9.8115 16.255 10.2052 16.255 10.5445 16.094L15.5445 13.72C15.9805 13.513 16.2584 13.0735 16.2584 12.5908V8.3927Z" fill="#292927"/>
</g>
</svg>
