<svg preserveAspectRatio="xMidYMid meet" overflow="visible" style="display: block;" viewBox="0 0 24 24" fill="none" xmlns="http://www.w3.org/2000/svg">
<g transform="translate(1.2500, 2.2500)">
<path id="Vector" fill-rule="evenodd" clip-rule="evenodd" d="M7.75 1.5C6.50736 1.5 5.5 2.50736 5.5 3.75V10H16.75C17.1642 10 17.5 10.3358 17.5 10.75C17.5 11.1642 17.1642 11.5 16.75 11.5C14.9551 11.5 13.5 12.9551 13.5 14.75C13.5 16.5449 14.9551 18 16.75 18C18.5449 18 20 16.5449 20 14.75V11.75V6.25C20 5.83579 20.3358 5.5 20.75 5.5C21.1642 5.5 21.5 5.83579 21.5 6.25V11.75V14.75C21.5 17.3734 19.3734 19.5 16.75 19.5C14.1266 19.5 12 17.3734 12 14.75C12 13.4928 12.4884 12.3497 13.2859 11.5H4.75C2.95507 11.5 1.5 12.9551 1.5 14.75C1.5 16.5449 2.95507 18 4.75 18H10.75C11.1642 18 11.5 18.3358 11.5 18.75C11.5 19.1642 11.1642 19.5 10.75 19.5H4.75C2.12665 19.5 0 17.3734 0 14.75C0 12.3818 1.73301 10.4185 4 10.0589V3.75C4 1.67893 5.67893 0 7.75 0H12.75C13.1642 0 13.5 0.335786 13.5 0.75C13.5 1.16421 13.1642 1.5 12.75 1.5H7.75ZM16 1.75C16 1.33579 16.3358 1 16.75 1H20.75C21.1642 1 21.5 1.33579 21.5 1.75C21.5 2.16421 21.1642 2.5 20.75 2.5H16.75C16.3358 2.5 16 2.16421 16 1.75Z" fill="#292927"/>
</g>
</svg>
