<svg preserveAspectRatio="xMidYMid meet" overflow="visible" style="display: block;" viewBox="0 0 24 24" fill="none" xmlns="http://www.w3.org/2000/svg">
<g transform="translate(2.2500, 2.3039)">
<path id="Vector" fill-rule="evenodd" clip-rule="evenodd" d="M2.75 1.5C2.05964 1.5 1.5 2.05964 1.5 2.75V17.6119L3.56386 15.0321C4.08573 14.3797 4.87584 14 5.71125 14H16.75C17.4404 14 18 13.4404 18 12.75V2.75C18 2.05964 17.4404 1.5 16.75 1.5H2.75ZM0 2.75C0 1.23122 1.23122 0 2.75 0H16.75C18.2688 0 19.5 1.23122 19.5 2.75V12.75C19.5 14.2688 18.2688 15.5 16.75 15.5H5.71125C5.33152 15.5 4.97238 15.6726 4.73516 15.9691L2.40417 18.8829C1.60698 19.8794 0 19.3157 0 18.0395V2.75Z" fill="#292927"/>
</g>
</svg>
