<svg preserveAspectRatio="xMidYMid meet" overflow="visible" style="display: block;" viewBox="0 0 24 24" fill="none" xmlns="http://www.w3.org/2000/svg">
<g transform="translate(1.2500, 1.2500)">
<path id="Vector" fill-rule="evenodd" clip-rule="evenodd" d="M10.75 0C4.81294 0 0 4.81294 0 10.75C0 16.687 4.81293 21.5 10.75 21.5C16.687 21.5 21.5 16.687 21.5 10.75C21.5 4.81293 16.687 0 10.75 0ZM1.5 10.75C1.5 5.64136 5.64136 1.5 10.75 1.5C15.8586 1.5 20 5.64137 20 10.75C20 15.8586 15.8586 20 10.75 20C5.64137 20 1.5 15.8586 1.5 10.75ZM12.8716 14.3281H7.92188C7.72993 14.3281 7.53799 14.2549 7.39155 14.1085C7.31964 14.0365 7.26538 13.9537 7.22878 13.8652C7.19211 13.7768 7.17188 13.6798 7.17188 13.5781V8.62835C7.17188 8.21413 7.50766 7.87835 7.92188 7.87835C8.33609 7.87835 8.67188 8.21413 8.67188 8.62835V11.7675L13.0484 7.39092C13.3413 7.09802 13.8162 7.09802 14.1091 7.39091C14.402 7.68381 14.402 8.15868 14.1091 8.45158L9.73253 12.8281H12.8716C13.2859 12.8281 13.6216 13.1639 13.6216 13.5781C13.6216 13.9923 13.2859 14.3281 12.8716 14.3281Z" fill="#292927"/>
</g>
</svg>
