<svg width="20" height="20" viewBox="0 0 19.5 19.3922" fill="none" xmlns="http://www.w3.org/2000/svg">
<path fill-rule="evenodd" clip-rule="evenodd" d="M1.5 2.75C1.5 2.05964 2.05964 1.5 2.75 1.5H16.75C17.4404 1.5 18 2.05964 18 2.75V12.75C18 13.4404 17.4404 14 16.75 14H5.71125C4.87584 14 4.08573 14.3797 3.56386 15.0321L1.5 17.6119V2.75ZM2.75 0C1.23122 0 0 1.23122 0 2.75V18.0395C0 19.3157 1.60698 19.8794 2.40417 18.8829L4.73516 15.9691C4.97238 15.6726 5.33152 15.5 5.71125 15.5H16.75C18.2688 15.5 19.5 14.2688 19.5 12.75V2.75C19.5 1.23122 18.2688 0 16.75 0H2.75ZM4 5.75C4 5.33579 4.33579 5 4.75 5L10.75 5C11.1642 5 11.5 5.33579 11.5 5.75C11.5 6.16421 11.1642 6.5 10.75 6.5L4.75 6.5C4.33579 6.5 4 6.16421 4 5.75ZM4 9.75C4 9.33579 4.33579 9 4.75 9H14.75C15.1642 9 15.5 9.33579 15.5 9.75C15.5 10.1642 15.1642 10.5 14.75 10.5H4.75C4.33579 10.5 4 10.1642 4 9.75Z" fill="#292927"/>
</svg>
