<svg preserveAspectRatio="xMidYMid meet" overflow="visible" style="display: block;" viewBox="0 0 24 24" fill="none" xmlns="http://www.w3.org/2000/svg">
<g transform="translate(1.2500, 1.2500)">
<path id="Vector" fill-rule="evenodd" clip-rule="evenodd" d="M1.5 10.75C1.5 5.64137 5.64137 1.5 10.75 1.5C15.8586 1.5 20 5.64137 20 10.75C20 15.8586 15.8586 20 10.75 20C5.64137 20 1.5 15.8586 1.5 10.75ZM10.75 0C4.81294 0 0 4.81294 0 10.75C0 16.6871 4.81294 21.5 10.75 21.5C16.6871 21.5 21.5 16.6871 21.5 10.75C21.5 4.81294 16.6871 0 10.75 0ZM11.6071 8.00008C11.9921 8.00008 12.3217 8.01526 12.5663 8.1591C12.7245 8.25215 13 8.48943 13 9.35008C13 10.2107 12.7245 10.448 12.5663 10.5411C12.3217 10.6849 11.9921 10.7001 11.6071 10.7001H9.5V8.00008H11.6071ZM11.6071 12.2001H9.5V14.2501C9.5 14.6643 9.16421 15.0001 8.75 15.0001C8.33579 15.0001 8 14.6643 8 14.2501V7.25008C8 6.83587 8.33579 6.50008 8.75 6.50008H11.6071L11.6436 6.50004C11.9889 6.4995 12.7013 6.49839 13.3266 6.86607C14.0612 7.29802 14.5 8.11073 14.5 9.35008C14.5 10.5894 14.0612 11.4021 13.3266 11.8341C12.7013 12.2018 11.9889 12.2007 11.6436 12.2001L11.6071 12.2001Z" fill="#292927"/>
</g>
</svg>
