<svg preserveAspectRatio="xMidYMid meet" overflow="visible" style="display: block;" viewBox="0 0 24 24" fill="none" xmlns="http://www.w3.org/2000/svg">
<g transform="translate(2.2500, 2.7500)">
<path id="Vector" fill-rule="evenodd" clip-rule="evenodd" d="M9.75 1.5C7.95507 1.5 6.5 2.95507 6.5 4.75C6.5 6.54493 7.95507 8 9.75 8C11.5449 8 13 6.54493 13 4.75C13 2.95507 11.5449 1.5 9.75 1.5ZM5 4.75C5 2.12665 7.12665 0 9.75 0C12.3734 0 14.5 2.12665 14.5 4.75C14.5 7.37335 12.3734 9.5 9.75 9.5C7.12665 9.5 5 7.37335 5 4.75ZM4.75 10.5C2.95507 10.5 1.5 11.9551 1.5 13.75C1.5 15.5449 2.95507 17 4.75 17C6.54493 17 8 15.5449 8 13.75C8 11.9551 6.54493 10.5 4.75 10.5ZM0 13.75C0 11.1266 2.12665 9 4.75 9C7.37335 9 9.5 11.1266 9.5 13.75C9.5 16.3734 7.37335 18.5 4.75 18.5C2.12665 18.5 0 16.3734 0 13.75ZM11.5 13.75C11.5 11.9551 12.9551 10.5 14.75 10.5C16.5449 10.5 18 11.9551 18 13.75C18 15.5449 16.5449 17 14.75 17C12.9551 17 11.5 15.5449 11.5 13.75ZM14.75 9C12.1266 9 10 11.1266 10 13.75C10 16.3734 12.1266 18.5 14.75 18.5C17.3734 18.5 19.5 16.3734 19.5 13.75C19.5 11.1266 17.3734 9 14.75 9Z" fill="#292927"/>
</g>
</svg>
