<svg preserveAspectRatio="xMidYMid meet" overflow="visible" style="display: block;" viewBox="0 0 24 24" fill="none" xmlns="http://www.w3.org/2000/svg">
<g transform="translate(3.2450, 3.2445)">
<path id="Vector" fill-rule="evenodd" clip-rule="evenodd" d="M0.192536 1.25173C-0.0845583 0.943848 -0.0595998 0.469631 0.248283 0.192536C0.556165 -0.0845583 1.03038 -0.0595998 1.30748 0.248283L1.31748 0.259394C1.59457 0.567276 1.56961 1.04149 1.26173 1.31859C0.953848 1.59568 0.479631 1.57072 0.202536 1.26284L0.192536 1.25173ZM0.248283 4.19254C-0.0595998 4.46963 -0.0845583 4.94385 0.192536 5.25173L0.202536 5.26284C0.479631 5.57072 0.953848 5.59568 1.26173 5.31859C1.56961 5.04149 1.59457 4.56728 1.31748 4.25939L1.30748 4.24828C1.03038 3.9404 0.556165 3.91544 0.248283 4.19254ZM0.192536 9.25173C-0.0845583 8.94385 -0.0595998 8.46963 0.248283 8.19254C0.556165 7.91544 1.03038 7.9404 1.30748 8.24828L1.31748 8.25939C1.59457 8.56728 1.56961 9.04149 1.26173 9.31859C0.953848 9.59568 0.479631 9.57072 0.202536 9.26284L0.192536 9.25173ZM16.1925 13.2517C15.9154 12.9438 15.9404 12.4696 16.2483 12.1925C16.5562 11.9154 17.0304 11.9404 17.3075 12.2483L17.3175 12.2594C17.5946 12.5673 17.5696 13.0415 17.2617 13.3186C16.9538 13.5957 16.4796 13.5707 16.2025 13.2628L16.1925 13.2517ZM16.1925 17.2517C15.9154 16.9438 15.9404 16.4696 16.2483 16.1925C16.5562 15.9154 17.0304 15.9404 17.3075 16.2483L17.3175 16.2594C17.5946 16.5673 17.5696 17.0415 17.2617 17.3186C16.9538 17.5957 16.4796 17.5707 16.2025 17.2628L16.1925 17.2517ZM12.2483 16.1925C11.9404 16.4696 11.9154 16.9438 12.1925 17.2517L12.2025 17.2628C12.4796 17.5707 12.9538 17.5957 13.2617 17.3186C13.5696 17.0415 13.5946 16.5673 13.3175 16.2594L13.3075 16.2483C13.0304 15.9404 12.5562 15.9154 12.2483 16.1925ZM8.19254 17.2517C7.91544 16.9438 7.9404 16.4696 8.24828 16.1925C8.55616 15.9154 9.03038 15.9404 9.30748 16.2483L9.31748 16.2594C9.59457 16.5673 9.56961 17.0415 9.26173 17.3186C8.95385 17.5957 8.47963 17.5707 8.20254 17.2628L8.19254 17.2517ZM4.24828 16.1925C3.9404 16.4696 3.91544 16.9438 4.19254 17.2517L4.20254 17.2628C4.47963 17.5707 4.95385 17.5957 5.26173 17.3186C5.56961 17.0415 5.59457 16.5673 5.31748 16.2594L5.30748 16.2483C5.03038 15.9404 4.55617 15.9154 4.24828 16.1925ZM0.192536 17.2517C-0.0845583 16.9438 -0.0595998 16.4696 0.248283 16.1925C0.556165 15.9154 1.03038 15.9404 1.30748 16.2483L1.31748 16.2594C1.59457 16.5673 1.56961 17.0415 1.26173 17.3186C0.953848 17.5957 0.479631 17.5707 0.202536 17.2628L0.192536 17.2517ZM0.248283 12.1925C-0.0595998 12.4696 -0.0845583 12.9438 0.192536 13.2517L0.202536 13.2628C0.479631 13.5707 0.953848 13.5957 1.26173 13.3186C1.56961 13.0415 1.59457 12.5673 1.31748 12.2594L1.30748 12.2483C1.03038 11.9404 0.556165 11.9154 0.248283 12.1925ZM4.24828 0.192536C3.9404 0.469631 3.91544 0.943848 4.19254 1.25173L4.20254 1.26284C4.47963 1.57072 4.95385 1.59568 5.26173 1.31859C5.56961 1.04149 5.59457 0.567276 5.31748 0.259394L5.30748 0.248283C5.03038 -0.0595998 4.55617 -0.0845583 4.24828 0.192536ZM16.76 0.000976565C17.1742 0.000976565 17.51 0.336763 17.51 0.750977V8.75098C17.51 9.16519 17.1742 9.50098 16.76 9.50098H8.76001C8.3458 9.50098 8.01001 9.16519 8.01001 8.75098V0.750977C8.01001 0.336763 8.3458 0.000976565 8.76001 0.000976565H16.76ZM16.01 8.00098V1.50098H9.51001V8.00098H16.01Z" fill="#292927"/>
</g>
</svg>
