<svg preserveAspectRatio="xMidYMid meet" overflow="visible" style="display: block;" viewBox="0 0 24 24" fill="none" xmlns="http://www.w3.org/2000/svg">
<g transform="translate(5.2500, 3.2500)">
<path id="Vector" fill-rule="evenodd" clip-rule="evenodd" d="M7.28033 0.21967C6.98744 -0.0732233 6.51256 -0.0732233 6.21967 0.21967L2.71967 3.71967C2.42678 4.01256 2.42678 4.48744 2.71967 4.78033C3.01256 5.07322 3.48744 5.07322 3.78033 4.78033L6 2.56066V12.75C6 13.1642 6.33579 13.5 6.75 13.5C7.16421 13.5 7.5 13.1642 7.5 12.75V2.56066L9.71967 4.78033C10.0126 5.07322 10.4874 5.07322 10.7803 4.78033C11.0732 4.48744 11.0732 4.01256 10.7803 3.71967L7.28033 0.21967ZM0.75 16C0.335786 16 0 16.3358 0 16.75C0 17.1642 0.335787 17.5 0.75 17.5L12.75 17.5C13.1642 17.5 13.5 17.1642 13.5 16.75C13.5 16.3358 13.1642 16 12.75 16L0.75 16Z" fill="#292927"/>
</g>
</svg>
