<svg preserveAspectRatio="xMidYMid meet" overflow="visible" style="display: block;" viewBox="0 0 24 24" fill="none" xmlns="http://www.w3.org/2000/svg">
<g transform="translate(2.2500, 1.2500)">
<path id="Vector" fill-rule="evenodd" clip-rule="evenodd" d="M1.5 6V1.5H18V6H1.5ZM0 6.75V1.35C0 0.604416 0.604416 0 1.35 0H18.15C18.8956 0 19.5 0.604416 19.5 1.35V6.75V12.75V18.15C19.5 18.8956 18.8956 19.5 18.15 19.5H16V20.75C16 21.1642 15.6642 21.5 15.25 21.5C14.8358 21.5 14.5 21.1642 14.5 20.75V19.5H5V20.75C5 21.1642 4.66421 21.5 4.25 21.5C3.83579 21.5 3.5 21.1642 3.5 20.75V19.5H1.35C0.604415 19.5 0 18.8956 0 18.15V12.75V6.75ZM4.25 18H15.25H18V13.5H1.5V18H4.25ZM1.5 12V7.5H18V12H1.5ZM8 3.75C8 3.33579 8.33579 3 8.75 3H10.75C11.1642 3 11.5 3.33579 11.5 3.75C11.5 4.16421 11.1642 4.5 10.75 4.5H8.75C8.33579 4.5 8 4.16421 8 3.75ZM8 15.75C8 15.3358 8.33579 15 8.75 15H10.75C11.1642 15 11.5 15.3358 11.5 15.75C11.5 16.1642 11.1642 16.5 10.75 16.5H8.75C8.33579 16.5 8 16.1642 8 15.75ZM8.75 9C8.33579 9 8 9.33579 8 9.75C8 10.1642 8.33579 10.5 8.75 10.5H10.75C11.1642 10.5 11.5 10.1642 11.5 9.75C11.5 9.33579 11.1642 9 10.75 9H8.75Z" fill="#292927"/>
</g>
</svg>
