<svg preserveAspectRatio="xMidYMid meet" overflow="visible" style="display: block;" viewBox="0 0 24 24" fill="none" xmlns="http://www.w3.org/2000/svg">
<g transform="translate(4.2500, 4.2500)">
<path id="Vector" fill-rule="evenodd" clip-rule="evenodd" d="M14.2197 0.21967C14.5126 -0.0732233 14.9874 -0.0732233 15.2803 0.21967C15.5732 0.512563 15.5732 0.987437 15.2803 1.28033L1.28033 15.2803C0.987437 15.5732 0.512562 15.5732 0.21967 15.2803C-0.0732234 14.9874 -0.0732233 14.5126 0.21967 14.2197L14.2197 0.21967ZM2.75 1.5C3.44036 1.5 4 2.05964 4 2.75C4 3.44036 3.44036 4 2.75 4C2.05965 4 1.5 3.44036 1.5 2.75C1.5 2.05964 2.05965 1.5 2.75 1.5ZM5.5 2.75C5.5 1.23122 4.26878 0 2.75 0C1.23122 0 9.68575e-08 1.23122 9.68575e-08 2.75C9.68575e-08 4.26878 1.23122 5.5 2.75 5.5C4.26878 5.5 5.5 4.26878 5.5 2.75ZM12.75 11.5C13.4404 11.5 14 12.0596 14 12.75C14 13.4404 13.4404 14 12.75 14C12.0596 14 11.5 13.4404 11.5 12.75C11.5 12.0596 12.0596 11.5 12.75 11.5ZM15.5 12.75C15.5 11.2312 14.2688 10 12.75 10C11.2312 10 10 11.2312 10 12.75C10 14.2688 11.2312 15.5 12.75 15.5C14.2688 15.5 15.5 14.2688 15.5 12.75Z" fill="#292927"/>
</g>
</svg>
