<svg preserveAspectRatio="xMidYMid meet" overflow="visible" style="display: block;" viewBox="0 0 24 24" fill="none" xmlns="http://www.w3.org/2000/svg">
<g transform="translate(1.0688, 1.0688)">
<path id="Vector" fill-rule="evenodd" clip-rule="evenodd" d="M10.9312 1.70471L8.20308 7.55063C8.06898 7.83799 7.83799 8.06898 7.55063 8.20308L1.70471 10.9312L7.55063 13.6593C7.83799 13.7934 8.06898 14.0244 8.20308 14.3117L10.9312 20.1576L13.6593 14.3117C13.7934 14.0244 14.0244 13.7934 14.3117 13.6593L20.1576 10.9312L14.3117 8.20308C14.0244 8.06898 13.7934 7.83799 13.6593 7.55063L10.9312 1.70471ZM9.70783 0.779105C10.1926 -0.259701 11.6697 -0.259702 12.1545 0.779105L14.9955 6.86687L21.0832 9.70783C22.1221 10.1926 22.1221 11.6697 21.0832 12.1545L14.9955 14.9955L12.1545 21.0832C11.6697 22.1221 10.1926 22.1221 9.70783 21.0832L6.86687 14.9955L0.779105 12.1545C-0.259701 11.6697 -0.259702 10.1926 0.779105 9.70783L6.86687 6.86687L9.70783 0.779105Z" fill="#292927"/>
</g>
</svg>
