<svg preserveAspectRatio="xMidYMid meet" overflow="visible" style="display: block;" viewBox="0 0 24 24" fill="none" xmlns="http://www.w3.org/2000/svg">
<g transform="translate(2.2500, 2.2500)">
<path id="Vector" fill-rule="evenodd" clip-rule="evenodd" d="M18 13.75C18 16.0972 16.0972 18 13.75 18H5.75C3.40279 18 1.5 16.0972 1.5 13.75V5.75C1.5 3.40279 3.40279 1.5 5.75 1.5H13.75C16.0972 1.5 18 3.40279 18 5.75V13.75ZM13.75 19.5C16.9256 19.5 19.5 16.9256 19.5 13.75V5.75C19.5 2.57436 16.9256 0 13.75 0H5.75C2.57436 0 0 2.57436 0 5.75V13.75C0 16.9256 2.57436 19.5 5.75 19.5H13.75ZM14 14.75C14 11.9204 13.0601 9.62074 11.4697 8.03033C9.87925 6.43991 7.57956 5.5 4.75 5.5C4.33579 5.5 4 5.16421 4 4.75C4 4.33579 4.33579 4 4.75 4C7.92044 4 10.6207 5.06008 12.5303 6.96967C14.4399 8.87925 15.5 11.5796 15.5 14.75C15.5 15.1642 15.1642 15.5 14.75 15.5C14.3358 15.5 14 15.1642 14 14.75ZM9 14.75C9 13.4204 8.56009 12.3707 7.84467 11.6553C7.12925 10.9399 6.07956 10.5 4.75 10.5C4.33579 10.5 4 10.1642 4 9.75C4 9.33579 4.33579 9 4.75 9C6.42044 9 7.87075 9.56009 8.90533 10.5947C9.93991 11.6293 10.5 13.0796 10.5 14.75C10.5 15.1642 10.1642 15.5 9.75 15.5C9.33579 15.5 9 15.1642 9 14.75ZM5.26173 14.1916C5.56961 14.4687 5.59457 14.9429 5.31748 15.2508L5.30748 15.2619C5.03038 15.5697 4.55616 15.5947 4.24828 15.3176C3.9404 15.0405 3.91544 14.5663 4.19254 14.2584L4.20254 14.2473C4.47963 13.9394 4.95385 13.9145 5.26173 14.1916Z" fill="#292927"/>
</g>
</svg>
