<svg preserveAspectRatio="xMidYMid meet" overflow="visible" style="display: block;" viewBox="0 0 24 24" fill="none" xmlns="http://www.w3.org/2000/svg">
<g transform="translate(4.2500, 2.2500)">
<path id="Vector" fill-rule="evenodd" clip-rule="evenodd" d="M1.5 2.75C1.5 2.05964 2.05964 1.5 2.75 1.5H12.75C13.4404 1.5 14 2.05964 14 2.75V3.75C14 4.16421 14.3358 4.5 14.75 4.5C15.1642 4.5 15.5 4.16421 15.5 3.75V2.75C15.5 1.23122 14.2688 0 12.75 0H2.75C1.23122 0 0 1.23122 0 2.75V16.75C0 18.2688 1.23122 19.5 2.75 19.5H12.75C14.2688 19.5 15.5 18.2688 15.5 16.75V15.75C15.5 15.3358 15.1642 15 14.75 15C14.3358 15 14 15.3358 14 15.75V16.75C14 17.4404 13.4404 18 12.75 18H2.75C2.05964 18 1.5 17.4404 1.5 16.75V2.75ZM12.2803 13.2803L15.2803 10.2803C15.5732 9.98744 15.5732 9.51256 15.2803 9.21967L12.2803 6.21967C11.9874 5.92678 11.5126 5.92678 11.2197 6.21967C10.9268 6.51256 10.9268 6.98744 11.2197 7.28033L12.9393 9H7.75C7.33579 9 7 9.33579 7 9.75C7 10.1642 7.33579 10.5 7.75 10.5H12.9393L11.2197 12.2197C10.9268 12.5126 10.9268 12.9874 11.2197 13.2803C11.5126 13.5732 11.9874 13.5732 12.2803 13.2803Z" fill="#292927"/>
</g>
</svg>
