<svg preserveAspectRatio="xMidYMid meet" overflow="visible" style="display: block;" viewBox="0 0 24 24" fill="none" xmlns="http://www.w3.org/2000/svg">
<g transform="translate(1.2500, 5.2500)">
<path id="Vector" fill-rule="evenodd" clip-rule="evenodd" d="M0.75 0C1.16421 0 1.5 0.335786 1.5 0.75V5.28588C2.34965 4.48843 3.49279 4 4.75 4C7.11815 4 9.08154 5.73301 9.44112 8H12.0589C12.4185 5.73301 14.3818 4 16.75 4C18.0072 4 19.1503 4.48843 20 5.28588V0.75C20 0.335786 20.3358 0 20.75 0C21.1642 0 21.5 0.335786 21.5 0.75V8.75C21.5 11.3734 19.3734 13.5 16.75 13.5C14.3818 13.5 12.4185 11.767 12.0589 9.5H9.44112C9.08154 11.767 7.11815 13.5 4.75 13.5C2.12665 13.5 0 11.3734 0 8.75V0.75C0 0.335786 0.335786 0 0.75 0ZM8 8.75C8 6.95507 6.54493 5.5 4.75 5.5C2.95507 5.5 1.5 6.95507 1.5 8.75C1.5 10.5449 2.95507 12 4.75 12C6.54493 12 8 10.5449 8 8.75ZM13.5 8.75C13.5 10.5449 14.9551 12 16.75 12C18.5449 12 20 10.5449 20 8.75C20 6.95507 18.5449 5.5 16.75 5.5C14.9551 5.5 13.5 6.95507 13.5 8.75Z" fill="#292927"/>
</g>
</svg>
