<svg preserveAspectRatio="xMidYMid meet" overflow="visible" style="display: block;" viewBox="0 0 24 24" fill="none" xmlns="http://www.w3.org/2000/svg">
<g transform="translate(1.2500, 2.2500)">
<path id="Vector" fill-rule="evenodd" clip-rule="evenodd" d="M2.75 0C1.23122 0 0 1.23122 0 2.75V16.75C0 18.2688 1.23122 19.5 2.75 19.5H18.75C20.2688 19.5 21.5 18.2688 21.5 16.75V14.75C21.5 14.3358 21.1642 14 20.75 14C20.3358 14 20 14.3358 20 14.75V16.75C20 17.4404 19.4404 18 18.75 18H5.5V1.5H18.75C19.4404 1.5 20 2.05964 20 2.75V4.75C20 5.16421 20.3358 5.5 20.75 5.5C21.1642 5.5 21.5 5.16421 21.5 4.75V2.75C21.5 1.23122 20.2688 0 18.75 0H2.75ZM4 1.5H2.75C2.05964 1.5 1.5 2.05964 1.5 2.75V9H4V1.5ZM4 10.5H1.5V16.75C1.5 17.4404 2.05964 18 2.75 18H4V10.5ZM11.3262 10.2301C13.5263 7.58997 17.9737 7.58996 20.1739 10.2302C20.439 10.5484 20.9119 10.5914 21.2302 10.3262C21.5484 10.061 21.5914 9.58809 21.3262 9.26988C18.5263 5.91005 12.9737 5.91007 10.1739 9.26977C9.90868 9.58798 9.95167 10.0609 10.2699 10.3261C10.5881 10.5913 11.061 10.5483 11.3262 10.2301ZM16.3175 13.7508C16.5946 13.4429 16.5696 12.9687 16.2617 12.6916C15.9538 12.4145 15.4796 12.4394 15.2025 12.7473L15.1925 12.7584C14.9154 13.0663 14.9404 13.5405 15.2483 13.8176C15.5562 14.0947 16.0304 14.0697 16.3075 13.7619L16.3175 13.7508ZM18.15 12.2C16.95 10.6 14.55 10.6 13.35 12.2C13.1015 12.5314 12.6314 12.5986 12.3 12.35C11.9686 12.1015 11.9015 11.6314 12.15 11.3C13.95 8.89999 17.55 8.89999 19.35 11.3C19.5985 11.6314 19.5314 12.1015 19.2 12.35C18.8686 12.5986 18.3985 12.5314 18.15 12.2Z" fill="#292927"/>
</g>
</svg>
