<svg preserveAspectRatio="xMidYMid meet" overflow="visible" style="display: block;" viewBox="0 0 24 24" fill="none" xmlns="http://www.w3.org/2000/svg">
<g transform="translate(1.2513, 1.2498)">
<path id="Vector" fill-rule="evenodd" clip-rule="evenodd" d="M8.49902 0.75C8.49902 0.335786 8.83481 0 9.24902 0H12.2474C12.6616 0 12.9974 0.335786 12.9974 0.75V1.50098H16.999V0.751953C16.999 0.33774 17.3348 0.00195312 17.749 0.00195312H20.7474C21.1616 0.00195312 21.4974 0.33774 21.4974 0.751953V3.75035C21.4974 4.16457 21.1616 4.50035 20.7474 4.50035H19.9978V8.50293H20.7474C21.1616 8.50293 21.4974 8.83872 21.4974 9.25293V12.2513C21.4974 12.6655 21.1616 13.0013 20.7474 13.0013H19.9978V17.002H20.7474C21.1616 17.002 21.4974 17.3377 21.4974 17.752V20.7504C21.4974 21.1646 21.1616 21.5004 20.7474 21.5004H17.749C17.3348 21.5004 16.999 21.1646 16.999 20.7504V19.999H12.9974V20.7484C12.9974 21.1626 12.6616 21.4984 12.2474 21.4984H9.24902C8.83481 21.4984 8.49902 21.1626 8.49902 20.7484V20.002H4.4984V20.7494C4.4984 21.1636 4.16261 21.4994 3.7484 21.4994H0.75C0.335786 21.4994 0 21.1636 0 20.7494V17.751C0 17.3368 0.335786 17.001 0.75 17.001H1.5V13.0004H0.75C0.335786 13.0004 0 12.6646 0 12.2504V9.25195C0 8.83774 0.335786 8.50195 0.75 8.50195H1.5V4.49938H0.75C0.335786 4.49938 0 4.16359 0 3.74938V0.750977C0 0.336763 0.335786 0.000976562 0.75 0.000976562H3.7484C4.16261 0.000976562 4.4984 0.336763 4.4984 0.750977V1.50391H8.49902V0.75ZM9.99902 19.2887C9.99961 19.2765 9.99991 19.2643 9.99991 19.252C9.99991 19.2396 9.99961 19.2274 9.99902 19.2152V18.5H11.4974V19.9984H9.99902V19.2887ZM8.49902 18.502H4.4984V17.751C4.4984 17.3368 4.16261 17.001 3.7484 17.001H3V13.0004H3.7484C4.16261 13.0004 4.4984 12.6646 4.4984 12.2504V9.25195C4.4984 8.83774 4.16261 8.50195 3.7484 8.50195H3V4.49938H3.7484C4.16261 4.49938 4.4984 4.16359 4.4984 3.74938V3.00391H8.49902V3.7484C8.49902 4.16261 8.83481 4.4984 9.24902 4.4984H12.2474C12.6616 4.4984 12.9974 4.16261 12.9974 3.7484V3.00098H16.999V3.75035C16.999 4.16457 17.3348 4.50035 17.749 4.50035H18.4978V8.50293H17.749C17.3348 8.50293 16.999 8.83872 16.999 9.25293V12.2513C16.999 12.6655 17.3348 13.0013 17.749 13.0013H18.4978V17.002H17.749C17.3348 17.002 16.999 17.3377 16.999 17.752V18.499H12.9974V17.75C12.9974 17.3358 12.6616 17 12.2474 17H9.24902C8.83481 17 8.49902 17.3358 8.49902 17.75V18.502ZM19.2478 18.5045C19.2269 18.5045 19.2061 18.5036 19.1856 18.502H18.499V20.0004H19.9974V18.502H19.31C19.2895 18.5036 19.2688 18.5045 19.2478 18.5045ZM9.99902 2.9984V2.29066C9.99961 2.27849 9.99991 2.26623 9.99991 2.25391C9.99991 2.24158 9.99961 2.22933 9.99902 2.21715V1.5H11.4974V2.9984H9.99902ZM1.5 18.501H2.17686C2.20092 18.5033 2.22532 18.5045 2.25 18.5045C2.27468 18.5045 2.29908 18.5033 2.32314 18.501H2.9984V19.9994H1.5V18.501ZM2.21994 10.002C2.22991 10.0023 2.23993 10.0025 2.25 10.0025C2.26007 10.0025 2.27009 10.0023 2.28006 10.002H2.9984V11.5004H1.5V10.002H2.21994ZM1.5 2.99938V1.50098H2.9984V2.99938H1.5ZM19.2478 3C19.2556 3 19.2633 3.00012 19.271 3.00035H19.9974V1.50195H18.499V3.00035H19.2246C19.2323 3.00012 19.24 3 19.2478 3ZM18.499 11.5013V10.0029H19.9974V11.5013H18.499Z" fill="#292927"/>
</g>
</svg>
