<svg preserveAspectRatio="xMidYMid meet" overflow="visible" style="display: block;" viewBox="0 0 24 24" fill="none" xmlns="http://www.w3.org/2000/svg">
<g transform="translate(1.2500, 2.2500)">
<path id="Vector" fill-rule="evenodd" clip-rule="evenodd" d="M5.45 4.4L7.625 1.5H13.875L16.05 4.4C16.5693 5.09247 17.3844 5.5 18.25 5.5H18.75C19.4404 5.5 20 6.05964 20 6.75V16.75C20 17.4404 19.4404 18 18.75 18H2.75C2.05964 18 1.5 17.4404 1.5 16.75V6.75C1.5 6.05964 2.05964 5.5 2.75 5.5H3.25C4.11558 5.5 4.93065 5.09247 5.45 4.4ZM7.55 0C7.12508 0 6.72495 0.200062 6.47 0.54L4.25 3.5C4.01393 3.81476 3.64345 4 3.25 4H2.75C1.23122 4 0 5.23122 0 6.75V16.75C0 18.2688 1.23122 19.5 2.75 19.5H18.75C20.2688 19.5 21.5 18.2688 21.5 16.75V6.75C21.5 5.23122 20.2688 4 18.75 4H18.25C17.8566 4 17.4861 3.81476 17.25 3.5L15.03 0.54C14.775 0.200063 14.3749 0 13.95 0H7.55ZM7.5 10.75C7.5 8.95507 8.95507 7.5 10.75 7.5C12.5449 7.5 14 8.95507 14 10.75C14 12.5449 12.5449 14 10.75 14C8.95507 14 7.5 12.5449 7.5 10.75ZM10.75 6C8.12665 6 6 8.12665 6 10.75C6 13.3734 8.12665 15.5 10.75 15.5C13.3734 15.5 15.5 13.3734 15.5 10.75C15.5 8.12665 13.3734 6 10.75 6Z" fill="#FAFAF9"/>
</g>
</svg>
