<svg preserveAspectRatio="xMidYMid meet" overflow="visible" style="display: block;" viewBox="0 0 24 24" fill="none" xmlns="http://www.w3.org/2000/svg">
<g transform="translate(1.0000, 1.7500)">
<path id="Vector" fill-rule="evenodd" clip-rule="evenodd" d="M18.7886 8.49902C18.7758 8.49967 18.7629 8.5 18.75 8.5C18.6483 8.5 18.5513 8.47976 18.4629 8.44309C18.3745 8.40649 18.2916 8.35224 18.2197 8.28033L15.7197 5.78033C15.4268 5.48744 15.4268 5.01256 15.7197 4.71967C16.0126 4.42678 16.4874 4.42678 16.7803 4.71967L18 5.93934V4.75C18 2.95507 16.5449 1.5 14.75 1.5H10.75C10.3358 1.5 10 1.16421 10 0.75C10 0.335786 10.3358 0 10.75 0H14.75C17.3734 0 19.5 2.12665 19.5 4.75V5.93934L20.7197 4.71967C21.0126 4.42678 21.4874 4.42678 21.7803 4.71967C22.0732 5.01256 22.0732 5.48744 21.7803 5.78033L19.2803 8.28033C19.2084 8.35224 19.1255 8.40649 19.0371 8.44309C18.9599 8.47509 18.8762 8.49458 18.7886 8.49902ZM5.75 8.5H11.75C11.8881 8.5 12 8.61193 12 8.75V14.75C12 15.1642 12.3358 15.5 12.75 15.5C13.1642 15.5 13.5 15.1642 13.5 14.75V8.75C13.5 7.7835 12.7165 7 11.75 7L5.75 7C5.33579 7 5 7.33579 5 7.75C5 8.16421 5.33579 8.5 5.75 8.5ZM3.5 7.75026C3.5 7.75017 3.5 7.75009 3.5 7.75C3.5 7.74991 3.5 7.74983 3.5 7.74974V5.75C3.5 5.33579 3.16421 5 2.75 5C2.33579 5 2 5.33579 2 5.75V7H0.75C0.335786 7 0 7.33579 0 7.75C0 8.16421 0.335786 8.5 0.75 8.5H2V16.75C2 17.7165 2.7835 18.5 3.75 18.5H12V19.75C12 20.1642 12.3358 20.5 12.75 20.5C13.1642 20.5 13.5 20.1642 13.5 19.75V18.5H14.75C15.1642 18.5 15.5 18.1642 15.5 17.75C15.5 17.3358 15.1642 17 14.75 17L12.75 17L3.75 17C3.61193 17 3.5 16.8881 3.5 16.75L3.5 7.75026Z" fill="#292927"/>
</g>
</svg>
