<svg preserveAspectRatio="xMidYMid meet" overflow="visible" style="display: block;" viewBox="0 0 24 24" fill="none" xmlns="http://www.w3.org/2000/svg">
<g transform="translate(3.2500, 2.2500)">
<path id="Vector" fill-rule="evenodd" clip-rule="evenodd" d="M17.2306 0.174192C17.4013 0.31669 17.5 0.527614 17.5 0.750006V11.75V14.75C17.5 16.2688 16.2688 17.5 14.75 17.5H13.75C12.2312 17.5 11 16.2688 11 14.75V13.75C11 12.2312 12.2312 11 13.75 11H16V1.64867L6.5 3.37594V13.75V16.75C6.5 18.2688 5.26878 19.5 3.75 19.5H2.75C1.23122 19.5 0 18.2688 0 16.75V15.75C0 14.2312 1.23122 13 2.75 13H5V2.75001C5 2.38754 5.25922 2.07694 5.61584 2.0121L16.6158 0.0121037C16.8346 -0.0276791 17.0598 0.0316948 17.2306 0.174192ZM13.75 12.5C13.0596 12.5 12.5 13.0596 12.5 13.75V14.75C12.5 15.4404 13.0596 16 13.75 16H14.75C15.4404 16 16 15.4404 16 14.75V12.5H13.75ZM1.5 15.75C1.5 15.0596 2.05964 14.5 2.75 14.5H5V16.75C5 17.4404 4.44036 18 3.75 18H2.75C2.05964 18 1.5 17.4404 1.5 16.75V15.75Z" fill="#292927"/>
</g>
</svg>
