<svg preserveAspectRatio="xMidYMid meet" overflow="visible" style="display: block;" viewBox="0 0 24 24" fill="none" xmlns="http://www.w3.org/2000/svg">
<g transform="translate(0.2500, 1.2499)">
<path id="Vector" fill-rule="evenodd" clip-rule="evenodd" d="M6.5 6.75C6.5 5.72236 6.51553 4.43186 7.14312 3.38587C7.72061 2.42338 8.93264 1.5 11.75 1.5C14.5674 1.5 15.7794 2.42338 16.3569 3.38587C16.9845 4.43186 17 5.72236 17 6.75C17 7.16421 17.3358 7.5 17.75 7.5C18.4633 7.5 19.55 7.72016 20.4368 8.35865C21.2853 8.9696 22 9.99444 22 11.75C22 12.9455 21.6684 13.7884 21.2126 14.3893C20.7508 14.9981 20.1258 15.4045 19.4764 15.6589C19.0908 15.81 18.9006 16.2451 19.0517 16.6308C19.2027 17.0165 19.6379 17.2067 20.0236 17.0556C20.8679 16.7248 21.743 16.1721 22.4077 15.2958C23.0784 14.4116 23.5 13.2434 23.5 11.75C23.5 9.50556 22.548 8.0304 21.3132 7.14135C20.3993 6.48336 19.359 6.16468 18.4937 6.05083C18.4675 5.07248 18.3327 3.76348 17.6431 2.61413C16.7206 1.07662 14.9326 0 11.75 0C8.56736 0 6.77939 1.07662 5.85688 2.61413C5.16727 3.76348 5.03248 5.07248 5.00627 6.05083C4.14099 6.16468 3.10065 6.48336 2.18677 7.14135C0.951983 8.0304 0 9.50556 0 11.75C0 13.2434 0.42158 14.4116 1.09232 15.2958C1.75705 16.1721 2.63209 16.7248 3.47645 17.0556C3.86213 17.2067 4.29726 17.0165 4.44833 16.6308C4.59941 16.2451 4.40923 15.81 4.02355 15.6589C3.37419 15.4045 2.74923 14.9981 2.28739 14.3893C1.83156 13.7884 1.5 12.9455 1.5 11.75C1.5 9.99444 2.21468 8.9696 3.06323 8.35865C3.95002 7.72016 5.03668 7.5 5.75 7.5C6.16421 7.5 6.5 7.16421 6.5 6.75ZM11.9208 11.0856C12.1061 10.7151 11.9559 10.2646 11.5854 10.0793C11.2149 9.8941 10.7644 10.0443 10.5792 10.4148L8.07918 15.4148C7.96293 15.6472 7.97536 15.9234 8.11201 16.1445C8.24867 16.3656 8.49007 16.5002 8.75 16.5002H13.5365L11.5792 20.4148C11.3939 20.7852 11.5441 21.2357 11.9146 21.421C12.2851 21.6062 12.7356 21.4561 12.9208 21.0856L15.4208 16.0856C15.5371 15.8531 15.5246 15.577 15.388 15.3559C15.2513 15.1348 15.0099 15.0002 14.75 15.0002H9.96353L11.9208 11.0856Z" fill="#292927"/>
</g>
</svg>
