<svg preserveAspectRatio="xMidYMid meet" overflow="visible" style="display: block;" viewBox="0 0 24 24" fill="none" xmlns="http://www.w3.org/2000/svg">
<g transform="translate(2.9785, 2.7500)">
<path id="Vector" fill-rule="evenodd" clip-rule="evenodd" d="M0.0037779 17.6754C-0.0374361 18.0875 0.263271 18.4551 0.67543 18.4963C1.08759 18.5375 1.45512 18.2368 1.49634 17.8246L2.0288 12.5H15.8021C16.5004 12.5 17.0834 11.9676 17.1466 11.2722L18.0375 1.47222C18.1094 0.681643 17.4869 0 16.693 0H2.89799C2.19976 0 1.61675 0.532419 1.55353 1.22778L0.603778 11.6754L0.0037779 17.6754ZM15.6651 11H2.17133L3.03497 1.5H16.5288L15.6651 11ZM5.72216 3.599C5.36252 3.39349 4.90438 3.51844 4.69887 3.87808C4.49337 4.23772 4.61831 4.69586 4.97795 4.90137L11.978 8.90137C12.3376 9.10687 12.7957 8.98193 13.0012 8.62229C13.2067 8.26265 13.0818 7.80451 12.7222 7.599L5.72216 3.599Z" fill="#292927"/>
</g>
</svg>
