<svg preserveAspectRatio="xMidYMid meet" overflow="visible" style="display: block;" viewBox="0 0 24 24" fill="none" xmlns="http://www.w3.org/2000/svg">
<g transform="translate(3.8358, 3.8358)">
<path id="Vector" fill-rule="evenodd" clip-rule="evenodd" d="M8.16421 0C8.57843 0 8.91421 0.335786 8.91421 0.75V7.41421H15.5784C15.9926 7.41421 16.3284 7.75 16.3284 8.16421C16.3284 8.57843 15.9926 8.91421 15.5784 8.91421H8.91421V15.5784C8.91421 15.9926 8.57843 16.3284 8.16421 16.3284C7.75 16.3284 7.41421 15.9926 7.41421 15.5784V8.91421H0.75C0.335786 8.91421 0 8.57843 0 8.16421C0 7.75 0.335786 7.41421 0.75 7.41421H7.41421V0.75C7.41421 0.335786 7.75 0 8.16421 0Z" fill="#292927" transform="rotate(45 8.16421 8.16421)"/>
</g>
</svg>
