<svg preserveAspectRatio="xMidYMid meet" overflow="visible" style="display: block;" viewBox="0 0 24 24" fill="none" xmlns="http://www.w3.org/2000/svg">
<g transform="translate(2.2500, 2.2500)">
<path id="Vector" fill-rule="evenodd" clip-rule="evenodd" d="M18 18V1.5H1.5V18H18ZM19.5 18.15C19.5 18.8956 18.8956 19.5 18.15 19.5H1.35C0.604414 19.5 0 18.8956 0 18.15V1.35C0 0.604414 0.604418 0 1.35 0H18.15C18.8956 0 19.5 0.604418 19.5 1.35V18.15ZM3.10688 6.36424C3.31999 6.00906 3.78069 5.89388 4.13587 6.10699C4.89506 6.56251 5.59249 7.35176 6.19624 8.197C6.81065 9.05717 7.37597 10.0445 7.85366 10.968C8.19626 11.6304 8.49748 12.2672 8.74302 12.8116C8.87026 12.5233 9.01199 12.211 9.16556 11.8857C9.27232 11.6597 9.38598 11.4248 9.50562 11.1855C8.72642 10.4907 8.19426 9.51639 8.08647 8.39695C7.858 6.02413 9.59633 3.91537 11.9691 3.68689L15.2531 3.37069C15.8873 3.30962 16.451 3.77427 16.512 4.40852L16.8086 7.4885C17.0416 9.90799 15.2314 12.0452 12.8302 12.2764C12.1132 12.3454 11.4157 12.2348 10.7856 11.9806C10.6951 12.1636 10.607 12.3461 10.5219 12.5263C10.2003 13.2074 9.9318 13.8319 9.74374 14.2861C9.64981 14.513 9.57618 14.6968 9.52627 14.8233C9.50132 14.8865 9.48232 14.9354 9.46968 14.9681L9.45556 15.0048L9.45144 15.0156C9.3412 15.3064 9.06282 15.4993 8.75184 15.5001C8.44088 15.5009 8.1617 15.3097 8.05003 15.0195L8.04872 15.0161L8.04386 15.0035L8.02362 14.9519C8.00552 14.906 7.97832 14.8377 7.94264 14.7497C7.87126 14.5736 7.76603 14.3191 7.63184 14.0085C7.36307 13.3865 6.9799 12.5437 6.52134 11.6572C6.06153 10.7682 5.5331 9.84931 4.97564 9.06885C4.4075 8.27347 3.85494 7.68772 3.36413 7.39323C3.00894 7.18012 2.89377 6.71943 3.10688 6.36424ZM11.4931 10.6443C11.8658 10.7713 12.2705 10.8233 12.6864 10.7833C14.2814 10.6297 15.4673 9.20888 15.3155 7.63227L15.0521 4.89697L12.1129 5.17999C10.5647 5.32906 9.43049 6.70498 9.57957 8.25318C9.63666 8.84609 9.87972 9.37992 10.246 9.80363C10.6971 9.02412 11.1926 8.28603 11.7007 7.73945C11.9827 7.43608 12.4573 7.41879 12.7607 7.70082C13.064 7.98286 13.0813 8.45742 12.7993 8.76078C12.3653 9.22758 11.9175 9.90106 11.4931 10.6443Z" fill="#292927"/>
</g>
</svg>
