<svg preserveAspectRatio="xMidYMid meet" overflow="visible" style="display: block;" viewBox="0 0 24 24" fill="none" xmlns="http://www.w3.org/2000/svg">
<g transform="translate(3.2500, 1.2500)">
<path id="Vector" fill-rule="evenodd" clip-rule="evenodd" d="M1.5 1.5V20H16V5.5H13.35C12.6044 5.5 12 4.89558 12 4.15V1.5H1.5ZM12.75 0H1.35C0.604417 0 0 0.604415 0 1.35V20.15C0 20.8956 0.604415 21.5 1.35 21.5H16.15C16.8956 21.5 17.5 20.8956 17.5 20.15V4.75V4.49853C17.5 4.14048 17.3578 3.79711 17.1046 3.54393L13.9561 0.395406C13.7029 0.142232 13.3595 0 13.0015 0H12.75ZM13.5 2.06066V4H15.4393L13.5 2.06066ZM8.75 7C9.16421 7 9.5 7.33579 9.5 7.75V10H11.75C12.1642 10 12.5 10.3358 12.5 10.75C12.5 11.1642 12.1642 11.5 11.75 11.5H9.5V13.75C9.5 14.1642 9.16421 14.5 8.75 14.5C8.33579 14.5 8 14.1642 8 13.75V11.5H5.75C5.33579 11.5 5 11.1642 5 10.75C5 10.3358 5.33579 10 5.75 10H8V7.75C8 7.33579 8.33579 7 8.75 7Z" fill="#292927"/>
</g>
</svg>
