<svg preserveAspectRatio="xMidYMid meet" overflow="visible" style="display: block;" viewBox="0 0 24 24" fill="none" xmlns="http://www.w3.org/2000/svg">
<g transform="translate(3.2500, 2.2500)">
<path id="Vector" fill-rule="evenodd" clip-rule="evenodd" d="M1.28033 0.21967C0.987437 -0.0732233 0.512563 -0.0732233 0.21967 0.21967C-0.0732232 0.512563 -0.0732232 0.987437 0.21967 1.28033L1.81066 2.87132L0.21967 4.46231C-0.0732232 4.7552 -0.0732232 5.23008 0.21967 5.52297C0.512563 5.81586 0.987437 5.81586 1.28033 5.52297L2.87132 3.93198L4.46231 5.52297C4.7552 5.81586 5.23008 5.81586 5.52297 5.52297C5.81586 5.23008 5.81586 4.7552 5.52297 4.46231L3.93198 2.87132L5.52297 1.28033C5.81586 0.987437 5.81586 0.512563 5.52297 0.21967C5.23008 -0.0732233 4.7552 -0.0732233 4.46231 0.21967L2.87132 1.81066L1.28033 0.21967ZM8 2.75C8 2.33579 8.33579 2 8.75 2H12.75C13.3812 2 13.9045 2.15996 14.3223 2.43846C14.7353 2.71383 15.0013 3.07562 15.1708 3.41459C15.3388 3.75063 15.4191 4.07758 15.4585 4.3142C15.4786 4.43429 15.4889 4.536 15.4942 4.61063C15.4969 4.64807 15.4983 4.67906 15.4991 4.70255L15.4998 4.73217L15.5 4.7426L15.5 4.74668L15.5 4.74844L15.5 4.74924C15.5 4.74963 15.5 4.75 14.75 4.75H15.5V14.1035C16.6543 14.43 17.5 15.4912 17.5 16.75C17.5 18.2688 16.2688 19.5 14.75 19.5C13.2312 19.5 12 18.2688 12 16.75C12 15.4912 12.8457 14.43 14 14.1035V4.75488L13.9999 4.75253C13.9997 4.74672 13.9992 4.73474 13.998 4.7175C13.9955 4.68275 13.9902 4.62821 13.979 4.5608C13.9559 4.42242 13.9112 4.24937 13.8292 4.08541C13.7487 3.92438 13.6397 3.78617 13.4902 3.68654C13.3455 3.59004 13.1188 3.5 12.75 3.5H8.75C8.33579 3.5 8 3.16421 8 2.75ZM13.5 16.75C13.5 16.0596 14.0596 15.5 14.75 15.5C15.4404 15.5 16 16.0596 16 16.75C16 17.4404 15.4404 18 14.75 18C14.0596 18 13.5 17.4404 13.5 16.75ZM3.5 8.75C3.5 8.33579 3.16421 8 2.75 8C2.33579 8 2 8.33579 2 8.75V14.1035C0.845748 14.43 0 15.4912 0 16.75C0 18.2688 1.23122 19.5 2.75 19.5C4.26878 19.5 5.5 18.2688 5.5 16.75C5.5 15.4912 4.65425 14.43 3.5 14.1035V8.75ZM2.75 15.5C2.05964 15.5 1.5 16.0596 1.5 16.75C1.5 17.4404 2.05964 18 2.75 18C3.44036 18 4 17.4404 4 16.75C4 16.0596 3.44036 15.5 2.75 15.5Z" fill="#292927"/>
</g>
</svg>
