<svg preserveAspectRatio="xMidYMid meet" overflow="visible" style="display: block;" viewBox="0 0 24 24" fill="none" xmlns="http://www.w3.org/2000/svg">
<g transform="translate(5.2500, 4.3856)">
<path id="Vector" fill-rule="evenodd" clip-rule="evenodd" d="M9.03963 7.61439L1.5 13.5667V1.66205L9.03963 7.61439ZM2.18652 0.292927C1.30122 -0.405994 0 0.224585 0 1.35252V13.8763C0 15.0042 1.30122 15.6348 2.18652 14.9359L10.1182 8.67398C10.8029 8.13347 10.8029 7.0953 10.1182 6.5548L2.18652 0.292927ZM13.5 2.61426C13.5 2.20004 13.1642 1.86426 12.75 1.86426C12.3358 1.86426 12 2.20004 12 2.61426V12.6143C12 13.0285 12.3358 13.3643 12.75 13.3643C13.1642 13.3643 13.5 13.0285 13.5 12.6143V2.61426Z" fill="#292927"/>
</g>
</svg>
