<svg preserveAspectRatio="xMidYMid meet" overflow="visible" style="display: block;" viewBox="0 0 24 24" fill="none" xmlns="http://www.w3.org/2000/svg">
<g transform="translate(2.2500, 2.2500)">
<path id="Vector" fill-rule="evenodd" clip-rule="evenodd" d="M9.75 0C10.1642 0 10.5 0.335786 10.5 0.75V3.20943L18.9872 6.03849C19.2934 6.14057 19.5 6.42718 19.5 6.75C19.5 7.07282 19.2934 7.35943 18.9872 7.46151L3.12171 12.75L9.98717 15.0385C10.2934 15.1406 10.5 15.4272 10.5 15.75V18.75C10.5 19.1642 10.1642 19.5 9.75 19.5C9.33579 19.5 9 19.1642 9 18.75V16.2906L0.512829 13.4615C0.206573 13.3594 0 13.0728 0 12.75C0 12.4272 0.206573 12.1406 0.512829 12.0385L16.3783 6.75L9.51283 4.46151C9.20657 4.35943 9 4.07282 9 3.75V0.75C9 0.335786 9.33579 0 9.75 0Z" fill="#292927"/>
</g>
</svg>
