<svg preserveAspectRatio="xMidYMid meet" overflow="visible" style="display: block;" viewBox="0 0 24 24" fill="none" xmlns="http://www.w3.org/2000/svg">
<g transform="translate(1.2500, 2.2500)">
<path id="Vector" fill-rule="evenodd" clip-rule="evenodd" d="M15.0553 1.5C13.7437 1.5 12.4835 2.03909 11.5547 3.00232L11.2895 3.27714C11.1482 3.42365 10.9534 3.50641 10.7498 3.50642C10.5462 3.50642 10.3513 3.42365 10.21 3.27714L9.94485 3.00229C8.01309 0.999878 4.87529 0.999878 2.94352 3.0023C1.01883 4.99739 1.01883 8.22704 2.94352 10.2221L10.2386 17.784C10.5073 18.0626 10.9554 18.0732 11.2374 17.8073C12.9157 16.1909 14.5108 14.497 16.118 12.7902C16.9237 11.9347 17.7323 11.0759 18.556 10.2221C19.4792 9.2656 20 7.96777 20 6.61222C20 5.25674 19.4794 3.95909 18.5561 3.0024C17.6273 2.03925 16.367 1.5 15.0553 1.5ZM10.7499 1.69228C11.9257 0.60872 13.4569 0 15.0553 0C16.7813 0 18.429 0.709767 19.6354 1.96074C20.8332 3.20181 21.5 4.8748 21.5 6.61222C21.5 8.3497 20.8331 10.0228 19.6354 11.2637C18.839 12.0893 18.0438 12.9336 17.2445 13.7823C15.621 15.5062 13.9801 17.2485 12.2756 18.89L12.2716 18.8938C11.3926 19.7279 10.0005 19.6976 9.15903 18.8254L1.86399 11.2636C-0.62133 8.68736 -0.62133 4.53707 1.86399 1.96085C4.29605 -0.560155 8.21239 -0.649677 10.7499 1.69228Z" fill="#292927"/>
</g>
</svg>
