<svg preserveAspectRatio="xMidYMid meet" overflow="visible" style="display: block;" viewBox="0 0 24 24" fill="none" xmlns="http://www.w3.org/2000/svg">
<g transform="translate(2.2500, 2.2500)">
<path id="Vector" fill-rule="evenodd" clip-rule="evenodd" d="M18 18V1.5H1.5V18H18ZM19.5 18.15C19.5 18.8956 18.8956 19.5 18.15 19.5H1.35C0.604414 19.5 0 18.8956 0 18.15V1.35C0 0.604414 0.604418 0 1.35 0H18.15C18.8956 0 19.5 0.604418 19.5 1.35V18.15ZM4 4.75C4 4.33579 4.33579 4 4.75 4H9.75H14.75C14.9489 4 15.1397 4.07902 15.2803 4.21967C15.421 4.36032 15.5 4.55109 15.5 4.75V6.75C15.5 7.16421 15.1642 7.5 14.75 7.5C14.3358 7.5 14 7.16421 14 6.75V5.5H10.5V14H11.75C12.1642 14 12.5 14.3358 12.5 14.75C12.5 15.1642 12.1642 15.5 11.75 15.5H7.75C7.33579 15.5 7 15.1642 7 14.75C7 14.3358 7.33579 14 7.75 14H9V5.5H5.5V6.75C5.5 7.16421 5.16421 7.5 4.75 7.5C4.33579 7.5 4 7.16421 4 6.75V4.75Z" fill="#292927"/>
</g>
</svg>
