<svg preserveAspectRatio="xMidYMid meet" overflow="visible" style="display: block;" viewBox="0 0 24 24" fill="none" xmlns="http://www.w3.org/2000/svg">
<g transform="translate(2.2450, 1.2449)">
<path id="Vector" fill-rule="evenodd" clip-rule="evenodd" d="M7.75 0C5.67893 0 4 1.67893 4 3.75V9.75C4 11.8211 5.67893 13.5 7.75 13.5C9.82107 13.5 11.5 11.8211 11.5 9.75V3.75C11.5 1.67893 9.82107 0 7.75 0ZM5.5 3.75C5.5 2.50736 6.50736 1.5 7.75 1.5C8.99264 1.5 10 2.50736 10 3.75V9.75C10 10.9926 8.99264 12 7.75 12C6.50736 12 5.5 10.9926 5.5 9.75V3.75ZM18.75 12C19.1642 12 19.5 12.3358 19.5 12.75V16.75C19.5 17.1642 19.1642 17.5 18.75 17.5C18.3358 17.5 18 17.1642 18 16.75V12.75C18 12.3358 18.3358 12 18.75 12ZM19.2617 20.1916C19.5696 20.4687 19.5946 20.9429 19.3175 21.2508L19.3075 21.2619C19.0304 21.5697 18.5562 21.5947 18.2483 21.3176C17.9404 21.0405 17.9154 20.5663 18.1925 20.2584L18.2025 20.2473C18.4796 19.9394 18.9538 19.9145 19.2617 20.1916ZM0.75 8C1.16421 8 1.5 8.33579 1.5 8.75V9.75C1.5 13.2018 4.29822 16 7.75 16C11.2018 16 14 13.2018 14 9.75V8.75C14 8.33579 14.3358 8 14.75 8C15.1642 8 15.5 8.33579 15.5 8.75V9.75C15.5 13.7772 12.4283 17.087 8.5 17.4642V20H10.75C11.1642 20 11.5 20.3358 11.5 20.75C11.5 21.1642 11.1642 21.5 10.75 21.5H4.75C4.33579 21.5 4 21.1642 4 20.75C4 20.3358 4.33579 20 4.75 20H7V17.4642C3.0717 17.087 0 13.7772 0 9.75V8.75C0 8.33579 0.335786 8 0.75 8Z" fill="#292927"/>
</g>
</svg>
