<svg preserveAspectRatio="xMidYMid meet" overflow="visible" style="display: block;" viewBox="0 0 24 24" fill="none" xmlns="http://www.w3.org/2000/svg">
<g transform="translate(1.2500, 1.2500)">
<path id="Vector" fill-rule="evenodd" clip-rule="evenodd" d="M15.75 0C16.1642 0 16.5 0.335786 16.5 0.75V2H18.15C18.8956 2 19.5 2.60442 19.5 3.35V5H20.75C21.1642 5 21.5 5.33579 21.5 5.75C21.5 6.16421 21.1642 6.5 20.75 6.5H19.5V10H20.75C21.1642 10 21.5 10.3358 21.5 10.75C21.5 11.1642 21.1642 11.5 20.75 11.5H19.5V15H20.75C21.1642 15 21.5 15.3358 21.5 15.75C21.5 16.1642 21.1642 16.5 20.75 16.5H19.5V18.15C19.5 18.8956 18.8956 19.5 18.15 19.5H16.5V20.75C16.5 21.1642 16.1642 21.5 15.75 21.5C15.3358 21.5 15 21.1642 15 20.75V19.5H11.5V20.75C11.5 21.1642 11.1642 21.5 10.75 21.5C10.3358 21.5 10 21.1642 10 20.75V19.5H6.5V20.75C6.5 21.1642 6.16421 21.5 5.75 21.5C5.33579 21.5 5 21.1642 5 20.75V19.5H3.35C2.60441 19.5 2 18.8956 2 18.15V16.5H0.75C0.335786 16.5 0 16.1642 0 15.75C0 15.3358 0.335786 15 0.75 15H2V11.5H0.75C0.335786 11.5 0 11.1642 0 10.75C0 10.3358 0.335786 10 0.75 10H2V6.5H0.75C0.335786 6.5 0 6.16421 0 5.75C0 5.33579 0.335786 5 0.75 5H2V3.35C2 2.60441 2.60442 2 3.35 2H5V0.75C5 0.335786 5.33579 0 5.75 0C6.16421 0 6.5 0.335786 6.5 0.75V2H10V0.75C10 0.335786 10.3358 0 10.75 0C11.1642 0 11.5 0.335786 11.5 0.75V2H15V0.75C15 0.335786 15.3358 0 15.75 0ZM3.5 5.75V10.75V15.75V18H5.75H10.75H15.75H18V15.75V10.75V5.75V3.5H15.75H10.75H5.75H3.5V5.75ZM7.35 6C6.60442 6 6 6.60442 6 7.35V14.15C6 14.8956 6.60442 15.5 7.35 15.5H14.15C14.8956 15.5 15.5 14.8956 15.5 14.15V7.35C15.5 6.60442 14.8956 6 14.15 6H7.35ZM7.5 14V7.5H14V14H7.5Z" fill="#292927"/>
</g>
</svg>
