<svg preserveAspectRatio="xMidYMid meet" overflow="visible" style="display: block;" viewBox="0 0 24 24" fill="none" xmlns="http://www.w3.org/2000/svg">
<g transform="translate(2.2500, 2.2500)">
<path id="Vector" fill-rule="evenodd" clip-rule="evenodd" d="M1.5 18H18V1.5H1.5V18ZM19.5 18.15C19.5 18.8956 18.8956 19.5 18.15 19.5H1.35C0.604414 19.5 0 18.8956 0 18.15V1.35C0 0.604414 0.604418 0 1.35 0H18.15C18.8956 0 19.5 0.604418 19.5 1.35V18.15ZM12.5 5.75C12.5 6.16421 12.1642 6.5 11.75 6.5H8.5V9H11.75C12.1642 9 12.5 9.33579 12.5 9.75C12.5 10.1642 12.1642 10.5 11.75 10.5H8.5V13.75C8.5 14.1642 8.16421 14.5 7.75 14.5C7.33579 14.5 7 14.1642 7 13.75V9.75V5.75C7 5.55109 7.07902 5.36032 7.21967 5.21967C7.36032 5.07902 7.55109 5 7.75 5H11.75C12.1642 5 12.5 5.33579 12.5 5.75Z" fill="#292927"/>
</g>
</svg>
