<svg preserveAspectRatio="xMidYMid meet" overflow="visible" style="display: block;" viewBox="0 0 24 24" fill="none" xmlns="http://www.w3.org/2000/svg">
<g transform="translate(2.2500, 2.2500)">
<path id="Vector" fill-rule="evenodd" clip-rule="evenodd" d="M1.5 18V1.5H18V18H1.5ZM1.35 0C0.604416 0 0 0.604416 0 1.35V18.15C0 18.8956 0.60444 19.5 1.35 19.5H18.15C18.8956 19.5 19.5 18.8956 19.5 18.15V1.35C19.5 0.60444 18.8956 0 18.15 0H1.35ZM12.7749 5.02539H7.82519C6.80831 5.02539 6.80908 6.52539 7.82519 6.52539H10.9643L8.70907 8.78062C7.99755 9.49212 7.60805 10.2404 7.45987 10.9813C7.31279 11.7167 7.41366 12.3926 7.5998 12.951C7.7849 13.5063 8.05877 13.96 8.28106 14.2712C8.39326 14.4283 8.49519 14.5531 8.57112 14.6407C8.60917 14.6846 8.64093 14.7194 8.6645 14.7446L8.70906 14.791C9.00195 15.0839 9.47683 15.0839 9.76972 14.791C10.0625 14.4983 10.0626 14.0238 9.77022 13.7308L9.70465 13.6583C9.65491 13.6009 9.58282 13.513 9.50166 13.3994C9.33726 13.1692 9.14709 12.8495 9.02283 12.4767C8.8996 12.107 8.8458 11.7002 8.93074 11.2755C9.01458 10.8563 9.2438 10.3672 9.76972 9.8413L12.0249 7.58608V10.7252C12.0249 11.1394 12.3607 11.4752 12.7749 11.4752C13.1891 11.4752 13.5249 11.1394 13.5249 10.7252L13.5249 5.77313C13.5246 5.67226 13.5044 5.57607 13.468 5.4883C13.3915 5.30338 13.236 5.15429 13.062 5.0823C12.9735 5.04563 12.8766 5.02539 12.7749 5.02539Z" fill="#292927"/>
</g>
</svg>
