<svg preserveAspectRatio="xMidYMid meet" overflow="visible" style="display: block;" viewBox="0 0 24 24" fill="none" xmlns="http://www.w3.org/2000/svg">
<g transform="translate(3.2500, 3.2500)">
<path id="Vector" fill-rule="evenodd" clip-rule="evenodd" d="M0.75 17.5C0.335786 17.5 0 17.1642 0 16.75V13.2501V0.75C0 0.335787 0.335786 0 0.75 0C1.16421 0 1.5 0.335787 1.5 0.75V11.5188L8.23705 5.20284C8.53236 4.92599 8.9941 4.93343 9.28033 5.21967L11.75 7.68934L15.7197 3.71967C16.0126 3.42677 16.4874 3.42677 16.7803 3.71967C17.0732 4.01256 17.0732 4.48743 16.7803 4.78033L12.2803 9.28033C11.9874 9.57322 11.5126 9.57322 11.2197 9.28033L8.73317 6.79383L1.5 13.5749V16H16.75C17.1642 16 17.5 16.3358 17.5 16.75C17.5 17.1642 17.1642 17.5 16.75 17.5H0.75Z" fill="#292927"/>
</g>
</svg>
