<svg preserveAspectRatio="xMidYMid meet" overflow="visible" style="display: block;" viewBox="0 0 24 24" fill="none" xmlns="http://www.w3.org/2000/svg">
<g transform="translate(1.2527, 2.7458)">
<path id="Vector" fill-rule="evenodd" clip-rule="evenodd" d="M10.0606 3.48507L10.7473 2.02902L11.434 3.48507C11.5405 3.7108 11.7522 3.86878 11.9989 3.90652L13.6038 4.15203L12.4206 5.35816C12.2533 5.52875 12.1772 5.76885 12.2159 6.00466L12.4877 7.66362L11.1089 6.90473C10.8838 6.7808 10.6108 6.7808 10.3857 6.90473L9.00686 7.66362L9.27872 6.00466C9.31737 5.76885 9.24133 5.52875 9.074 5.35816L7.89082 4.15203L9.49566 3.90652C9.74236 3.86878 9.95413 3.7108 10.0606 3.48507ZM11.7517 0.642186C11.3479 -0.214062 10.1467 -0.214062 9.74291 0.642186L8.8742 2.48414L6.94529 2.77922C5.99722 2.92426 5.71098 4.07189 6.32219 4.69497L7.73699 6.13722L7.40175 8.18299C7.26268 9.03163 8.14667 9.84928 9.03112 9.36247L10.7473 8.41788L12.4635 9.36247C13.3479 9.84928 14.2319 9.03163 14.0928 8.18299L13.7576 6.13722L15.1724 4.69497C15.7836 4.07189 15.4974 2.92426 14.5493 2.77922L12.6204 2.48414L11.7517 0.642186ZM4.74729 11.029L4.06059 12.4851C3.95413 12.7108 3.74236 12.8688 3.49566 12.9065L1.89082 13.152L3.074 14.3582C3.24133 14.5287 3.31737 14.7689 3.27872 15.0047L3.00687 16.6636L4.38565 15.9047C4.61082 15.7808 4.88377 15.7808 5.10894 15.9047L6.48772 16.6636L6.21586 15.0047C6.17722 14.7689 6.25326 14.5287 6.42059 14.3582L7.60377 13.152L5.99893 12.9065C5.75223 12.8688 5.54046 12.7108 5.434 12.4851L4.74729 11.029ZM3.74291 9.64219C4.14674 8.78594 5.34785 8.78594 5.75168 9.64219L6.62039 11.4841L8.5493 11.7792C9.49737 11.9243 9.78361 13.0719 9.1724 13.695L7.75759 15.1372L8.09284 17.183C8.23191 18.0316 7.34792 18.8493 6.46346 18.3625L4.74729 17.4179L3.03113 18.3625C2.14667 18.8493 1.26268 18.0316 1.40175 17.183L1.73699 15.1372L0.322194 13.695C-0.289022 13.0719 -0.00278266 11.9243 0.945289 11.7792L2.8742 11.4841L3.74291 9.64219ZM16.7473 11.029L16.0606 12.4851C15.9541 12.7108 15.7424 12.8688 15.4957 12.9065L13.8908 13.152L15.074 14.3582C15.2413 14.5287 15.3174 14.7689 15.2787 15.0047L15.0069 16.6636L16.3857 15.9047C16.6108 15.7808 16.8838 15.7808 17.1089 15.9047L18.4877 16.6636L18.2159 15.0047C18.1772 14.7689 18.2533 14.5287 18.4206 14.3582L19.6038 13.152L17.9989 12.9065C17.7522 12.8688 17.5405 12.7108 17.434 12.4851L16.7473 11.029ZM15.7429 9.64219C16.1467 8.78594 17.3479 8.78594 17.7517 9.64219L18.6204 11.4841L20.5493 11.7792C21.4974 11.9243 21.7836 13.0719 21.1724 13.695L19.7576 15.1372L20.0928 17.183C20.2319 18.0316 19.3479 18.8493 18.4635 18.3625L16.7473 17.4179L15.0311 18.3625C14.1467 18.8493 13.2627 18.0316 13.4017 17.183L13.737 15.1372L12.3222 13.695C11.711 13.0719 11.9972 11.9243 12.9453 11.7792L14.8742 11.4841L15.7429 9.64219Z" fill="#292927"/>
</g>
</svg>
