<svg preserveAspectRatio="xMidYMid meet" overflow="visible" style="display: block;" viewBox="0 0 24 24" fill="none" xmlns="http://www.w3.org/2000/svg">
<g transform="translate(2.2500, 2.2500)">
<path id="Vector" fill-rule="evenodd" clip-rule="evenodd" d="M18 13.75C18 16.0972 16.0972 18 13.75 18H5.75C3.40279 18 1.5 16.0972 1.5 13.75V5.75C1.5 3.40279 3.40279 1.5 5.75 1.5H13.75C16.0972 1.5 18 3.40279 18 5.75V13.75ZM13.75 19.5C16.9256 19.5 19.5 16.9256 19.5 13.75V5.75C19.5 2.57436 16.9256 0 13.75 0H5.75C2.57436 0 0 2.57436 0 5.75V13.75C0 16.9256 2.57436 19.5 5.75 19.5H13.75ZM4 14.75C4 15.1642 4.33579 15.5 4.75 15.5C5.16421 15.5 5.5 15.1642 5.5 14.75V7.75C5.5 7.33579 5.16421 7 4.75 7C4.33579 7 4 7.33579 4 7.75V14.75ZM8.75 15.5C8.33579 15.5 8 15.1642 8 14.75V7.75C8 7.33579 8.33579 7 8.75 7C9.16421 7 9.5 7.33579 9.5 7.75V8.59556C10.1677 8.14816 10.9704 7.9375 11.75 7.9375C12.6472 7.9375 13.5752 8.21656 14.2926 8.81446C15.0273 9.42669 15.5 10.3415 15.5 11.5V14.75C15.5 15.1642 15.1642 15.5 14.75 15.5C14.3358 15.5 14 15.1642 14 14.75V11.5C14 10.7835 13.7227 10.2921 13.3324 9.96679C12.9248 9.62719 12.3528 9.4375 11.75 9.4375C11.1472 9.4375 10.5752 9.62719 10.1676 9.96679C9.77732 10.2921 9.5 10.7835 9.5 11.5V14.75C9.5 15.1642 9.16421 15.5 8.75 15.5ZM5.31748 5.25075C5.59457 4.94287 5.56961 4.46865 5.26173 4.19156C4.95385 3.91447 4.47963 3.93942 4.20254 4.24731L4.19254 4.25842C3.91544 4.5663 3.9404 5.04052 4.24828 5.31761C4.55616 5.59471 5.03038 5.56975 5.30748 5.26186L5.31748 5.25075Z" fill="#292927"/>
</g>
</svg>
