<svg preserveAspectRatio="xMidYMid meet" overflow="visible" style="display: block;" viewBox="0 0 24 24" fill="none" xmlns="http://www.w3.org/2000/svg">
<g transform="translate(2.2500, 2.2500)">
<path id="Vector" fill-rule="evenodd" clip-rule="evenodd" d="M13.75 18C16.0972 18 18 16.0972 18 13.75V5.75C18 3.40279 16.0972 1.5 13.75 1.5H5.75C3.40279 1.5 1.5 3.40279 1.5 5.75V13.75C1.5 16.0972 3.40279 18 5.75 18H13.75ZM19.5 13.75C19.5 16.9256 16.9256 19.5 13.75 19.5H5.75C2.57436 19.5 0 16.9256 0 13.75V5.75C0 2.57436 2.57436 0 5.75 0H13.75C16.9256 0 19.5 2.57436 19.5 5.75V13.75ZM4.5 6.5V8.82609H6.84859C7.27727 8.82609 7.54447 8.67197 7.71258 8.48169C7.89319 8.27726 8 7.98273 8 7.66304C8 7.34335 7.89319 7.04883 7.71258 6.8444C7.54447 6.65412 7.27727 6.5 6.84859 6.5L4.5 6.5ZM8.71917 9.59898C8.75976 9.55898 8.79895 9.51757 8.83671 9.47483C9.28991 8.96187 9.5 8.29987 9.5 7.66304C9.5 7.02621 9.28991 6.36422 8.83671 5.85125C8.37102 5.32415 7.68752 5 6.84859 5H3.75036C3.33615 5 3 5.33579 3 5.75V13.75C3 14.1642 3.33579 14.5 3.75 14.5H6.84859C7.71158 14.5 8.40003 14.1347 8.85749 13.5698C9.29993 13.0235 9.5 12.3268 9.5 11.663C9.5 10.9993 9.29993 10.3026 8.85749 9.75624C8.8135 9.70193 8.76738 9.64946 8.71917 9.59898ZM4.5 13H6.84859C7.25321 13 7.51546 12.8436 7.69181 12.6258C7.88317 12.3895 8 12.0428 8 11.663C8 11.2833 7.88317 10.9366 7.69181 10.7003C7.51546 10.4825 7.25321 10.3261 6.84859 10.3261H4.5V13ZM13.25 9.5C13.9481 9.5 14.5507 9.90876 14.8316 10.5H11.6684C11.9493 9.90876 12.5519 9.5 13.25 9.5ZM13.25 8C11.4551 8 10 9.45507 10 11.25C10 13.0449 11.4551 14.5 13.25 14.5C14.3712 14.5 15.1146 14.1031 15.5715 13.6811C15.8758 13.4001 15.8946 12.9256 15.6135 12.6213C15.3325 12.317 14.858 12.2982 14.5537 12.5792C14.3665 12.7522 13.9839 13 13.25 13C12.5519 13 11.9493 12.5912 11.6684 12H15.75C16.1642 12 16.5 11.6642 16.5 11.25C16.5 9.45507 15.0449 8 13.25 8ZM11.75 5.5C11.3358 5.5 11 5.83579 11 6.25C11 6.66421 11.3358 7 11.75 7H14.75C15.1642 7 15.5 6.66421 15.5 6.25C15.5 5.83579 15.1642 5.5 14.75 5.5H11.75Z" fill="#292927"/>
</g>
</svg>
