<svg preserveAspectRatio="xMidYMid meet" overflow="visible" style="display: block;" viewBox="0 0 24 24" fill="none" xmlns="http://www.w3.org/2000/svg">
<g transform="translate(5.2498, 1.2499)">
<path id="Vector" fill-rule="evenodd" clip-rule="evenodd" d="M1.58692 3.78041C1.42572 5.42268 1.44927 7.25874 2.01034 8.48573C2.52959 9.62128 3.75146 10.7646 4.94264 11.663C5.52321 12.1009 6.06891 12.4605 6.46947 12.7104C6.5738 12.7755 6.66803 12.833 6.75019 12.8824C6.83234 12.833 6.92657 12.7755 7.0309 12.7104C7.43146 12.4605 7.97716 12.1009 8.55774 11.663C9.74891 10.7646 10.9708 9.62128 11.49 8.48573C12.0511 7.25874 12.0747 5.42268 11.9134 3.78041C11.8349 2.98039 11.7169 2.26428 11.6183 1.74809C11.6013 1.65912 11.585 1.57622 11.5695 1.5H7.71394L6.46371 4.00046H8.25018C8.51012 4.00046 8.75152 4.13505 8.88817 4.35617C9.02483 4.57728 9.03725 4.85338 8.921 5.08588L6.921 9.08587C6.73576 9.45636 6.28526 9.60653 5.91477 9.42128C5.54429 9.23604 5.39412 8.78554 5.57936 8.41505L7.03666 5.50046H5.25018C4.99025 5.50046 4.74885 5.36588 4.6122 5.14476C4.47554 4.92365 4.46312 4.64755 4.57936 4.41505L6.03689 1.5H1.93089C1.91542 1.57622 1.89904 1.65912 1.88205 1.74809C1.7835 2.26428 1.66545 2.98039 1.58692 3.78041ZM0.600654 0.568114C0.684117 0.234231 0.984108 0 1.32827 0H12.1721C12.5163 0 12.8163 0.234231 12.8997 0.568114L12.9002 0.570104L12.9012 0.573991L12.9045 0.587369L12.9161 0.635948C12.9261 0.677799 12.9401 0.738306 12.9574 0.815612C12.9919 0.970168 13.0393 1.19219 13.0917 1.46679C13.1964 2.01509 13.3222 2.77756 13.4063 3.63388C13.5702 5.30432 13.5938 7.49207 12.8542 9.10951C12.1687 10.6087 10.6796 11.9415 9.46097 12.8606C8.83666 13.3315 8.25278 13.716 7.82498 13.983C7.70357 14.0587 7.59444 14.1252 7.50018 14.1817V20.0003H10.7502C11.1644 20.0003 11.5002 20.3361 11.5002 20.7503C11.5002 21.1645 11.1644 21.5003 10.7502 21.5003H2.75018C2.33597 21.5003 2.00018 21.1645 2.00018 20.7503C2.00018 20.3361 2.33597 20.0003 2.75018 20.0003H6.00018L6.00018 14.1817C5.90592 14.1252 5.7968 14.0587 5.6754 13.983C5.24759 13.716 4.66371 13.3315 4.0394 12.8606C2.82081 11.9415 1.33172 10.6087 0.646192 9.10951C-0.0934157 7.49207 -0.0698677 5.30432 0.0940991 3.63388C0.178154 2.77756 0.303984 2.01509 0.408664 1.46679C0.46109 1.19219 0.508432 0.970168 0.542959 0.815612C0.560229 0.738306 0.574311 0.677799 0.584243 0.635948L0.595915 0.587369L0.599196 0.573991L0.600158 0.570104L0.600654 0.568114Z" fill="#292927"/>
</g>
</svg>
