<svg preserveAspectRatio="xMidYMid meet" overflow="visible" style="display: block;" viewBox="0 0 24 24" fill="none" xmlns="http://www.w3.org/2000/svg">
<g transform="translate(2.2500, 2.2500)">
<path id="Vector" fill-rule="evenodd" clip-rule="evenodd" d="M1.5 18V1.5H18V18H1.5ZM1.35 0C0.604417 0 0 0.604415 0 1.35V18.15C0 18.8956 0.604415 19.5 1.35 19.5H18.15C18.8956 19.5 19.5 18.8956 19.5 18.15V1.35C19.5 0.604417 18.8956 0 18.15 0H1.35ZM9.75 4C10.1642 4 10.5 4.33579 10.5 4.75V10.75C10.5 11.1642 10.1642 11.5 9.75 11.5C9.33579 11.5 9 11.1642 9 10.75V4.75C9 4.33579 9.33579 4 9.75 4ZM10.2617 14.1916C10.5696 14.4687 10.5946 14.9429 10.3175 15.2508L10.3075 15.2619C10.0304 15.5697 9.55616 15.5947 9.24828 15.3176C8.9404 15.0405 8.91544 14.5663 9.19254 14.2584L9.20254 14.2473C9.47963 13.9394 9.95385 13.9145 10.2617 14.1916Z" fill="#292927"/>
</g>
</svg>
