<svg preserveAspectRatio="xMidYMid meet" overflow="visible" style="display: block;" viewBox="0 0 24 24" fill="none" xmlns="http://www.w3.org/2000/svg">
<g transform="translate(1.3476, 1.4217)">
<path id="Vector" fill-rule="evenodd" clip-rule="evenodd" d="M6.36928 0H2.61836C1.08228 0 -0.214521 1.29172 0.0297136 2.90869C0.457748 5.74252 1.72929 10.9852 5.52443 14.7803C9.48643 18.7423 15.1437 20.4311 18.1973 21.0956C19.8726 21.4601 21.3048 20.141 21.3048 18.5155L21.3048 14.9312C21.3048 14.62 21.1126 14.3412 20.8218 14.2304L16.9401 12.7512C16.8095 12.7014 16.6675 12.6891 16.5303 12.7157L12.6654 13.4646C10.2097 12.1939 8.72909 10.7773 7.83273 8.66931L8.56201 4.75735C8.58709 4.62281 8.57489 4.48398 8.52671 4.35588L7.07127 0.485986C6.96131 0.193609 6.68165 0 6.36928 0ZM2.61836 1.5L5.85006 1.5L7.04908 4.6881L6.31747 8.61255C6.29141 8.75229 6.30561 8.89656 6.35841 9.02854C7.44514 11.7454 9.32408 13.4676 12.2183 14.9203C12.3664 14.9946 12.5348 15.0178 12.6974 14.9863L16.6057 14.229L19.8048 15.448L19.8048 18.5155C19.8048 19.274 19.1705 19.7722 18.5162 19.6299C15.5373 18.9817 10.2335 17.3681 6.58509 13.7197C3.13329 10.2679 1.92567 5.41748 1.51289 2.68467C1.42032 2.07183 1.89934 1.5 2.61836 1.5ZM16.2064 1.34054C15.9135 1.04764 15.4386 1.04764 15.1457 1.34054C14.8528 1.63343 14.8528 2.1083 15.1457 2.4012L16.7367 3.99219L15.1457 5.58318C14.8528 5.87607 14.8528 6.35094 15.1457 6.64384C15.4386 6.93673 15.9135 6.93673 16.2064 6.64384L17.7974 5.05285L19.3884 6.64384C19.6813 6.93673 20.1561 6.93673 20.449 6.64384C20.7419 6.35094 20.7419 5.87607 20.449 5.58318L18.858 3.99219L20.449 2.4012C20.7419 2.1083 20.7419 1.63343 20.449 1.34054C20.1561 1.04764 19.6813 1.04764 19.3884 1.34054L17.7974 2.93153L16.2064 1.34054Z" fill="#292927"/>
</g>
</svg>
