<svg preserveAspectRatio="xMidYMid meet" overflow="visible" style="display: block;" viewBox="0 0 24 24" fill="none" xmlns="http://www.w3.org/2000/svg">
<g transform="translate(3.2450, 3.2500)">
<path id="Vector" fill-rule="evenodd" clip-rule="evenodd" d="M0 0.75C0 0.335786 0.335786 0 0.75 0C1.16421 0 1.5 0.335786 1.5 0.75V16H16.75C17.1642 16 17.5 16.3358 17.5 16.75C17.5 17.1642 17.1642 17.5 16.75 17.5H0.75C0.335786 17.5 0 17.1642 0 16.75V0.75ZM17.2506 13.3175C16.9427 13.5946 16.4685 13.5696 16.1914 13.2617C15.9143 12.9538 15.9393 12.4796 16.2472 12.2025L16.2583 12.1925C16.5662 11.9154 17.0404 11.9404 17.3175 12.2483C17.5946 12.5562 17.5696 13.0304 17.2617 13.3075L17.2506 13.3175ZM16.1914 9.26173C16.4685 9.56961 16.9427 9.59457 17.2506 9.31748L17.2617 9.30748C17.5696 9.03038 17.5946 8.55616 17.3175 8.24828C17.0404 7.9404 16.5662 7.91544 16.2583 8.19254L16.2472 8.20254C15.9393 8.47963 15.9143 8.95385 16.1914 9.26173ZM17.2506 5.31748C16.9427 5.59457 16.4685 5.56961 16.1914 5.26173C15.9143 4.95385 15.9393 4.47963 16.2472 4.20254L16.2583 4.19254C16.5662 3.91544 17.0404 3.9404 17.3175 4.24828C17.5946 4.55616 17.5696 5.03038 17.2617 5.30748L17.2506 5.31748ZM16.1914 1.26173C16.4685 1.56961 16.9427 1.59457 17.2506 1.31748L17.2617 1.30748C17.5696 1.03038 17.5946 0.556165 17.3175 0.248283C17.0404 -0.0595998 16.5662 -0.0845583 16.2583 0.192536L16.2472 0.202536C15.9393 0.479631 15.9143 0.953848 16.1914 1.26173ZM5.25063 1.31748C4.94275 1.59457 4.46853 1.56961 4.19144 1.26173C3.91434 0.953848 3.9393 0.479631 4.24718 0.202536L4.2583 0.192536C4.56618 -0.0845583 5.04039 -0.0595998 5.31749 0.248283C5.59458 0.556165 5.56963 1.03038 5.26174 1.30748L5.25063 1.31748ZM8.19144 1.26173C8.46853 1.56961 8.94275 1.59457 9.25063 1.31748L9.26174 1.30748C9.56962 1.03038 9.59458 0.556165 9.31749 0.248283C9.04039 -0.0595998 8.56618 -0.0845583 8.2583 0.192536L8.24718 0.202536C7.9393 0.479631 7.91434 0.953848 8.19144 1.26173ZM13.2506 1.31748C12.9427 1.59457 12.4685 1.56961 12.1914 1.26173C11.9143 0.953848 11.9393 0.479631 12.2472 0.202536L12.2583 0.192536C12.5662 -0.0845583 13.0404 -0.0595998 13.3175 0.248283C13.5946 0.556165 13.5696 1.03038 13.2617 1.30748L13.2506 1.31748Z" fill="#292927"/>
</g>
</svg>
