<svg preserveAspectRatio="xMidYMid meet" overflow="visible" style="display: block;" viewBox="0 0 24 24" fill="none" xmlns="http://www.w3.org/2000/svg">
<g transform="translate(2.2500, 2.2500)">
<path id="Vector" fill-rule="evenodd" clip-rule="evenodd" d="M18 18V1.5H1.5V18H18ZM19.5 18.15C19.5 18.8956 18.8956 19.5 18.15 19.5H1.35C0.604414 19.5 0 18.8956 0 18.15V1.35C0 0.604414 0.604418 0 1.35 0H18.15C18.8956 0 19.5 0.604418 19.5 1.35V18.15ZM9 9.92721V13.7502C9 14.1644 9.33579 14.5002 9.75 14.5002C10.1642 14.5002 10.5 14.1644 10.5 13.7502V9.92722L12.4208 6.08557C12.6061 5.71509 12.4559 5.26459 12.0854 5.07934C11.7149 4.8941 11.2644 5.04427 11.0792 5.41475L9.75 8.07311L8.42082 5.41475C8.23558 5.04427 7.78508 4.8941 7.41459 5.07934C7.04411 5.26459 6.89394 5.71509 7.07918 6.08557L9 9.92721Z" fill="#292927"/>
</g>
</svg>
