<svg preserveAspectRatio="xMidYMid meet" overflow="visible" style="display: block;" viewBox="0 0 24 24" fill="none" xmlns="http://www.w3.org/2000/svg">
<g transform="translate(2.2498, 2.2500)">
<path id="Vector" fill-rule="evenodd" clip-rule="evenodd" d="M9.7502 0C7.16434 0 4.6844 1.02723 2.85591 2.85571C1.02743 4.68419 0.000204088 7.16414 0.000204088 9.75V11.7329C-6.87319e-05 11.7445 -6.7326e-05 11.7561 0.000204088 11.7677V18.75C0.000204088 19.1642 0.335991 19.5 0.750204 19.5H18.7502C19.1644 19.5 19.5002 19.1642 19.5002 18.75V17.7675C19.5005 17.7559 19.5005 17.7443 19.5002 17.7327V9.75C19.5002 7.16414 18.473 4.6842 16.6445 2.85571L16.6445 2.8557C14.816 1.02723 12.336 0 9.7502 0ZM18.0002 16.7096V9.75C18.0002 7.56197 17.131 5.46356 15.5839 3.91638C14.0366 2.36919 11.9382 1.5 9.7502 1.5C7.56217 1.5 5.46375 2.36919 3.91657 3.91637C2.3694 5.46355 1.5002 7.56196 1.5002 9.75V11.2096L18.0002 16.7096ZM1.5002 12.7908V18H17.1279L1.5002 12.7908ZM5.7502 5C6.16442 5 6.5002 5.33579 6.5002 5.75V6.75C6.5002 7.16421 6.16442 7.5 5.7502 7.5C5.33599 7.5 5.0002 7.16421 5.0002 6.75V5.75C5.0002 5.33579 5.33599 5 5.7502 5ZM10.5002 6.75C10.5002 6.33579 10.1644 6 9.7502 6C9.33599 6 9.0002 6.33579 9.0002 6.75V7.75C9.0002 8.16421 9.33599 8.5 9.7502 8.5C10.1644 8.5 10.5002 8.16421 10.5002 7.75V6.75ZM13.7502 7C14.1644 7 14.5002 7.33579 14.5002 7.75V8.75C14.5002 9.16421 14.1644 9.5 13.7502 9.5C13.336 9.5 13.0002 9.16421 13.0002 8.75V7.75C13.0002 7.33579 13.336 7 13.7502 7Z" fill="#292927"/>
</g>
</svg>
