<svg preserveAspectRatio="xMidYMid meet" overflow="visible" style="display: block;" viewBox="0 0 24 24" fill="none" xmlns="http://www.w3.org/2000/svg">
<g transform="translate(5.2500, 3.2500)">
<path id="Vector" fill-rule="evenodd" clip-rule="evenodd" d="M10.7803 9.78033L7.28033 13.2803C6.98744 13.5732 6.51256 13.5732 6.21967 13.2803L2.71967 9.78033C2.42678 9.48744 2.42678 9.01256 2.71967 8.71967C3.01256 8.42678 3.48744 8.42678 3.78033 8.71967L6 10.9393V0.75C6 0.335787 6.33579 0 6.75 0C7.16421 0 7.5 0.335787 7.5 0.75V10.9393L9.71967 8.71967C10.0126 8.42678 10.4874 8.42678 10.7803 8.71967C11.0732 9.01256 11.0732 9.48744 10.7803 9.78033ZM0.75 16C0.335786 16 0 16.3358 0 16.75C0 17.1642 0.335787 17.5 0.75 17.5L12.75 17.5C13.1642 17.5 13.5 17.1642 13.5 16.75C13.5 16.3358 13.1642 16 12.75 16L0.75 16Z" fill="#292927"/>
</g>
</svg>
