<svg preserveAspectRatio="xMidYMid meet" overflow="visible" style="display: block;" viewBox="0 0 24 24" fill="none" xmlns="http://www.w3.org/2000/svg">
<g transform="translate(1.2500, 1.2500)">
<path id="Vector" fill-rule="evenodd" clip-rule="evenodd" d="M10.75 1.5C5.64137 1.5 1.5 5.64137 1.5 10.75C1.5 15.8586 5.64137 20 10.75 20C15.8586 20 20 15.8586 20 10.75C20 5.64137 15.8586 1.5 10.75 1.5ZM0 10.75C0 4.81294 4.81294 0 10.75 0C16.6871 0 21.5 4.81294 21.5 10.75C21.5 16.6871 16.6871 21.5 10.75 21.5C4.81294 21.5 0 16.6871 0 10.75ZM10.7376 6.5C8.45115 6.5 6.69704 8.03219 6.49535 9.83346C6.44925 10.2451 6.07819 10.5414 5.66655 10.4953C5.25491 10.4492 4.95857 10.0782 5.00466 9.66654C5.30594 6.97597 7.82593 5 10.7376 5C12.4076 5 13.9361 5.64362 15.0001 6.69671V6.25C15.0001 5.83579 15.3359 5.5 15.7501 5.5C16.1643 5.5 16.5001 5.83579 16.5001 6.25V7.87222C16.5001 8.61781 15.8957 9.22222 15.1501 9.22222H13.2439C12.8297 9.22222 12.4939 8.88644 12.4939 8.47222C12.4939 8.05801 12.8297 7.72222 13.2439 7.72222H13.9022C13.1317 6.98175 12.0117 6.5 10.7376 6.5ZM10.7624 15C12.9081 15 14.78 13.1722 15.003 10.6831C15.04 10.2705 15.4044 9.96603 15.8169 10.003C16.2295 10.0399 16.534 10.4044 16.497 10.8169C16.217 13.9426 13.8149 16.5 10.7624 16.5C9.05391 16.5 7.54369 15.6931 6.49992 14.4379V15.1499C6.49992 15.5641 6.16413 15.8999 5.74992 15.8999C5.3357 15.8999 4.99992 15.5641 4.99992 15.1499V12.9721C4.99992 12.2265 5.60433 11.6221 6.34992 11.6221H8.2561C8.67032 11.6221 9.0061 11.9579 9.0061 12.3721C9.0061 12.7863 8.67032 13.1221 8.2561 13.1221H7.38255C8.17356 14.2812 9.40997 15 10.7624 15Z" fill="#292927"/>
</g>
</svg>
