<svg preserveAspectRatio="xMidYMid meet" overflow="visible" style="display: block;" viewBox="0 0 24 24" fill="none" xmlns="http://www.w3.org/2000/svg">
<g transform="translate(1.2500, 1.2500)">
<path id="Vector" fill-rule="evenodd" clip-rule="evenodd" d="M1.5 10.75C1.5 5.64137 5.64137 1.5 10.75 1.5C15.8586 1.5 20 5.64137 20 10.75C20 15.8586 15.8586 20 10.75 20C5.64137 20 1.5 15.8586 1.5 10.75ZM10.75 0C4.81294 0 0 4.81294 0 10.75C0 16.6871 4.81294 21.5 10.75 21.5C16.6871 21.5 21.5 16.6871 21.5 10.75C21.5 4.81294 16.6871 0 10.75 0ZM9 10.75C9 9.50736 10.0074 8.5 11.25 8.5C11.5143 8.5 11.7664 8.54526 12.0001 8.62784C12.3906 8.76587 12.8191 8.56118 12.9571 8.17064C13.0952 7.7801 12.8905 7.35161 12.4999 7.21358C12.108 7.07505 11.687 7 11.25 7C9.17893 7 7.5 8.67893 7.5 10.75C7.5 12.8211 9.17893 14.5 11.25 14.5C11.687 14.5 12.108 14.425 12.4999 14.2864C12.8905 14.1484 13.0952 13.7199 12.9571 13.3294C12.8191 12.9388 12.3906 12.7341 12.0001 12.8722C11.7664 12.9547 11.5143 13 11.25 13C10.0074 13 9 11.9926 9 10.75Z" fill="#292927"/>
</g>
</svg>
