<svg preserveAspectRatio="xMidYMid meet" overflow="visible" style="display: block;" viewBox="0 0 24 24" fill="none" xmlns="http://www.w3.org/2000/svg">
<g transform="translate(3.2500, 3.2500)">
<path id="Vector" fill-rule="evenodd" clip-rule="evenodd" d="M1.5 6V1.5H6V6H1.5ZM1.35 0C0.604415 0 0 0.604416 0 1.35V6.15C0 6.89559 0.604416 7.5 1.35 7.5H6.15C6.89559 7.5 7.5 6.89558 7.5 6.15V1.35C7.5 0.604415 6.89558 0 6.15 0H1.35ZM12.1512 11.0983C11.8583 10.8055 11.3834 10.8055 11.0905 11.0983C10.7976 11.3912 10.7976 11.8661 11.0905 12.159L12.6815 13.75L11.0905 15.341C10.7976 15.6339 10.7976 16.1088 11.0905 16.4016C11.3834 16.6945 11.8583 16.6945 12.1512 16.4016L13.7422 14.8107L15.3332 16.4016C15.6261 16.6945 16.1009 16.6945 16.3938 16.4016C16.6867 16.1088 16.6867 15.6339 16.3938 15.341L14.8028 13.75L16.3938 12.159C16.6867 11.8661 16.6867 11.3912 16.3938 11.0983C16.1009 10.8055 15.6261 10.8055 15.3332 11.0983L13.7422 12.6893L12.1512 11.0983ZM1.5 11.5V16H6V11.5H1.5ZM0 11.35C0 10.6044 0.604415 10 1.35 10H6.15C6.89558 10 7.5 10.6044 7.5 11.35V16.15C7.5 16.8956 6.89559 17.5 6.15 17.5H1.35C0.604416 17.5 0 16.8956 0 16.15V11.35ZM11.5 6V1.5H16V6H11.5ZM11.35 0C10.6044 0 10 0.604416 10 1.35V6.15C10 6.89559 10.6044 7.5 11.35 7.5H16.15C16.8956 7.5 17.5 6.89558 17.5 6.15V1.35C17.5 0.604415 16.8956 0 16.15 0H11.35Z" fill="#292927"/>
</g>
</svg>
