<svg preserveAspectRatio="xMidYMid meet" overflow="visible" style="display: block;" viewBox="0 0 24 24" fill="none" xmlns="http://www.w3.org/2000/svg">
<g transform="translate(3.2500, 3.2500)">
<path id="Vector" fill-rule="evenodd" clip-rule="evenodd" d="M12.75 0C12.3358 0 12 0.335786 12 0.75C12 1.16421 12.3358 1.5 12.75 1.5H14.9393L11.2197 5.21967C10.9268 5.51256 10.9268 5.98744 11.2197 6.28033C11.5126 6.57322 11.9874 6.57322 12.2803 6.28033L16 2.56066V4.75C16 5.16421 16.3358 5.5 16.75 5.5C17.1642 5.5 17.5 5.16421 17.5 4.75V0.75C17.5 0.335786 17.1642 0 16.75 0H12.75ZM4.75 17.5C5.16421 17.5 5.5 17.1642 5.5 16.75C5.5 16.3358 5.16421 16 4.75 16H2.56066L6.28033 12.2803C6.57322 11.9874 6.57322 11.5126 6.28033 11.2197C5.98744 10.9268 5.51256 10.9268 5.21967 11.2197L1.5 14.9393V12.75C1.5 12.3358 1.16421 12 0.75 12C0.335786 12 0 12.3358 0 12.75V16.75C0 17.1642 0.335786 17.5 0.75 17.5H4.75Z" fill="#292927"/>
</g>
</svg>
