<svg preserveAspectRatio="xMidYMid meet" overflow="visible" style="display: block;" viewBox="0 0 24 24" fill="none" xmlns="http://www.w3.org/2000/svg">
<g transform="translate(2.2500, 2.2500)">
<path id="Vector" fill-rule="evenodd" clip-rule="evenodd" d="M1.5 18V1.5H18V18H1.5ZM1.35 0C0.604417 0 0 0.604415 0 1.35V18.15C0 18.8956 0.604415 19.5 1.35 19.5H18.15C18.8956 19.5 19.5 18.8956 19.5 18.15V1.35C19.5 0.604417 18.8956 0 18.15 0H1.35ZM7.25 5C6.83579 5 6.5 5.33579 6.5 5.75C6.5 6.16421 6.83579 6.5 7.25 6.5H10.6007C10.2996 6.87806 9.96299 7.32843 9.62596 7.83397C8.60106 9.37133 7.5 11.5246 7.5 13.75C7.5 14.1642 7.83579 14.5 8.25 14.5C8.66421 14.5 9 14.1642 9 13.75C9 11.9754 9.89894 10.1287 10.874 8.66603C11.3535 7.9469 11.834 7.34615 12.1944 6.92559C12.3743 6.71571 12.5235 6.55173 12.6264 6.44143C12.6779 6.3863 12.7177 6.34465 12.744 6.31746L12.7731 6.28767L12.7795 6.28114L12.7803 6.28033L12.7805 6.28012L12.7806 6.28007C12.9949 6.06557 13.0589 5.74313 12.9429 5.46299C12.8268 5.18273 12.5533 5 12.25 5H7.25Z" fill="#292927"/>
</g>
</svg>
