<svg preserveAspectRatio="xMidYMid meet" overflow="visible" style="display: block;" viewBox="0 0 24 24" fill="none" xmlns="http://www.w3.org/2000/svg">
<g transform="translate(2.2500, 1.2932)">
<path id="Vector" fill-rule="evenodd" clip-rule="evenodd" d="M10.2803 0.21967C9.98744 -0.0732233 9.51256 -0.0732233 9.21967 0.21967L6.71967 2.71967C6.42678 3.01256 6.42678 3.48744 6.71967 3.78033C7.01256 4.07322 7.48744 4.07322 7.78033 3.78033L9 2.56066V5.30866L0.694382 9.92288C0.2658 10.161 -1.90734e-06 10.6127 0 11.103L1.52588e-05 15.3969C1.71661e-05 15.8872 0.265821 16.3389 0.694397 16.577L9.0944 21.2437C9.50213 21.4702 9.9979 21.4702 10.4056 21.2437L18.8056 16.577C19.2342 16.3389 19.5 15.8872 19.5 15.3969L19.5 11.103C19.5 10.6127 19.2342 10.161 18.8056 9.92288L10.5 5.30864V2.56066L11.7197 3.78033C12.0126 4.07322 12.4874 4.07322 12.7803 3.78033C13.0732 3.48744 13.0732 3.01256 12.7803 2.71967L10.2803 0.21967ZM9 7.02459V10.75C9 11.1642 9.33579 11.5 9.75 11.5C10.1642 11.5 10.5 11.1642 10.5 10.75V7.02458L17.2059 10.7501L9.75002 14.8922L2.29413 10.7501L9 7.02459ZM18 15.3086L10.5 19.4753V16.1915L18 12.0248L18 15.3086ZM1.50002 15.3086L9 19.4753V16.1915L1.5 12.0248L1.50002 15.3086Z" fill="#292927"/>
</g>
</svg>
