<svg preserveAspectRatio="xMidYMid meet" overflow="visible" style="display: block;" viewBox="0 0 24 24" fill="none" xmlns="http://www.w3.org/2000/svg">
<g transform="translate(1.2500, 1.3466)">
<path id="Vector" fill-rule="evenodd" clip-rule="evenodd" d="M13 3.75C13 2.50736 11.9926 1.5 10.75 1.5C9.50736 1.5 8.5 2.50736 8.5 3.75C8.5 4.99264 9.50736 6 10.75 6C11.9926 6 13 4.99264 13 3.75ZM10.75 0C12.8211 0 14.5 1.67893 14.5 3.75C14.5 5.05825 13.8301 6.21002 12.8146 6.881L13.2495 7.06221L20.7086 10.4527C21.1906 10.6718 21.5 11.1523 21.5 11.6817V11.75V11.8181V15.862C21.5 16.3933 21.1884 16.8751 20.704 17.0931L11.8785 21.0646C11.1608 21.3876 10.3392 21.3876 9.6215 21.0646L0.796008 17.0931C0.311559 16.8751 0 16.3933 0 15.862V11.8181V11.75V11.6817C0 11.1523 0.309422 10.6718 0.791365 10.4527L8.25052 7.06221L8.68543 6.881C7.66992 6.21002 7 5.05825 7 3.75C7 1.67893 8.67893 0 10.75 0ZM8.84948 8.43764L9 8.37492V11.75C9 12.7165 9.7835 13.5 10.75 13.5C11.7165 13.5 12.5 12.7165 12.5 11.75V8.37492L12.6505 8.43764L19.9375 11.7499L11.2673 15.691C10.9386 15.8404 10.5614 15.8404 10.2327 15.691L1.56246 11.7499L8.84948 8.43764ZM10.75 7.5C10.834 7.5 10.9174 7.49724 11 7.4918V11.75C11 11.8881 10.8881 12 10.75 12C10.6119 12 10.5 11.8881 10.5 11.75V7.4918C10.5826 7.49724 10.666 7.5 10.75 7.5ZM1.5 15.7651V13.3692L9.61204 17.0565C10.3351 17.3852 11.1649 17.3852 11.888 17.0565L20 13.3692V15.7651L11.263 19.6967C10.9367 19.8435 10.5633 19.8435 10.237 19.6967L1.5 15.7651ZM14.75 11C14.3358 11 14 11.3358 14 11.75C14 12.1642 14.3358 12.5 14.75 12.5H15.75C16.1642 12.5 16.5 12.1642 16.5 11.75C16.5 11.3358 16.1642 11 15.75 11H14.75Z" fill="#292927"/>
</g>
</svg>
