<svg preserveAspectRatio="xMidYMid meet" overflow="visible" style="display: block;" viewBox="0 0 24 24" fill="none" xmlns="http://www.w3.org/2000/svg">
<g transform="translate(1.2500, 1.2500)">
<path id="Vector" fill-rule="evenodd" clip-rule="evenodd" d="M16.7339 3.18318L17.25 2.08892L17.7661 3.18318C17.8725 3.4089 18.0843 3.56689 18.331 3.60463L19.5543 3.79177L18.6472 4.71649C18.4799 4.88707 18.4038 5.12718 18.4425 5.36299L18.6492 6.62433L17.6116 6.05326C17.3865 5.92933 17.1135 5.92933 16.8883 6.05326L15.8508 6.62433L16.0575 5.36299C16.0961 5.12718 16.0201 4.88707 15.8528 4.71649L14.9457 3.79177L16.169 3.60463C16.4157 3.56689 16.6274 3.4089 16.7339 3.18318ZM18.2136 0.615672C17.8265 -0.205224 16.6735 -0.205224 16.2864 0.615672L15.5475 2.18225L13.9091 2.4329C12.9982 2.57223 12.7269 3.67192 13.3111 4.2675L14.5158 5.49555L14.2301 7.2387C14.0974 8.04848 14.9424 8.8365 15.7935 8.36804L17.25 7.56641L18.7064 8.36804C19.5575 8.8365 20.4026 8.04848 20.2699 7.2387L19.9842 5.49555L21.1889 4.2675C21.7731 3.67192 21.5017 2.57223 20.5909 2.4329L18.9525 2.18225L18.2136 0.615672ZM1.5 10.75C1.5 5.64137 5.64137 1.5 10.75 1.5C11.0627 1.5 11.3716 1.51549 11.6759 1.54571C12.0881 1.58663 12.4554 1.28566 12.4963 0.873475C12.5373 0.461289 12.2363 0.0939692 11.8241 0.0530448C11.4706 0.0179481 11.1123 7.45058e-09 10.75 7.45058e-09C4.81294 7.45058e-09 0 4.81294 0 10.75C0 12.6063 0.471126 14.3546 1.30076 15.8798L0.512671 20.1127C0.467419 20.3558 0.544853 20.6055 0.71967 20.7803C0.894487 20.9551 1.14423 21.0326 1.38728 20.9873L5.62016 20.1992C7.14536 21.0289 8.89369 21.5 10.75 21.5C16.6871 21.5 21.5 16.6871 21.5 10.75C21.5 10.3877 21.4821 10.0294 21.447 9.6759C21.406 9.26371 21.0387 8.96274 20.6265 9.00367C20.2143 9.04459 19.9134 9.41191 19.9543 9.8241C19.9845 10.1284 20 10.4373 20 10.75C20 15.8586 15.8586 20 10.75 20C9.06393 20 7.48533 19.5496 6.12554 18.763C5.9706 18.6733 5.7887 18.6421 5.61272 18.6748L2.18742 19.3126L2.82515 15.8873C2.85792 15.7113 2.82666 15.5294 2.73703 15.3745C1.95043 14.0147 1.5 12.4361 1.5 10.75Z" fill="#292927"/>
</g>
</svg>
