<svg preserveAspectRatio="xMidYMid meet" overflow="visible" style="display: block;" viewBox="0 0 24 24" fill="none" xmlns="http://www.w3.org/2000/svg">
<g transform="translate(1.6893, 2.5000)">
<path id="Vector" fill-rule="evenodd" clip-rule="evenodd" d="M1.32618 3.48007C3.52633 0.839968 7.9737 0.839959 10.1739 3.48015C10.439 3.79836 10.9119 3.84135 11.2302 3.57618C11.5484 3.31101 11.5914 2.83809 11.3262 2.51988C8.52634 -0.839949 2.97371 -0.839934 0.17386 2.51977C-0.0913177 2.83798 -0.0483321 3.3109 0.269871 3.57608C0.588075 3.84126 1.061 3.79827 1.32618 3.48007ZM6.31748 7.00075C6.59457 6.69287 6.56961 6.21865 6.26173 5.94156C5.95385 5.66446 5.47963 5.68942 5.20254 5.99731L5.19254 6.00842C4.91544 6.3163 4.9404 6.79052 5.24828 7.06761C5.55616 7.34471 6.03038 7.31975 6.30748 7.01186L6.31748 7.00075ZM8.14998 5.45002C6.94998 3.84999 4.54999 3.84999 3.34999 5.45002C3.10146 5.78139 2.63136 5.84855 2.29999 5.60003C1.96861 5.3515 1.90145 4.8814 2.14998 4.55003C3.94998 2.14999 7.54999 2.14999 9.34999 4.55003C9.59851 4.8814 9.53135 5.3515 9.19998 5.60003C8.86861 5.84855 8.39851 5.78139 8.14998 5.45002ZM19.7803 1.71967C20.9017 2.84099 20.9017 4.65901 19.7803 5.78033L7.97619 17.5845C7.75192 17.8088 7.4709 17.9679 7.16319 18.0448L3.43191 18.9776C3.17632 19.0415 2.90596 18.9666 2.71967 18.7803C2.53339 18.594 2.4585 18.3237 2.5224 18.0681L3.45528 14.3367C3.53221 14.029 3.69132 13.748 3.91559 13.5238L15.7197 1.71967C16.841 0.59835 18.659 0.598349 19.7803 1.71967ZM18.7197 4.71967C19.2552 4.18414 19.2552 3.31586 18.7197 2.78033C18.1841 2.2448 17.3159 2.2448 16.7803 2.78033L16.3107 3.25L18.25 5.18934L18.7197 4.71967ZM17.1893 6.25L15.25 4.31066L4.97625 14.5844C4.94421 14.6165 4.92148 14.6566 4.91049 14.7006L4.2808 17.2192L6.79939 16.5896C6.84335 16.5786 6.88349 16.5559 6.91553 16.5238L17.1893 6.25Z" fill="#292927"/>
</g>
</svg>
