<svg preserveAspectRatio="xMidYMid meet" overflow="visible" style="display: block;" viewBox="0 0 24 24" fill="none" xmlns="http://www.w3.org/2000/svg">
<g transform="translate(1.2500, 1.2500)">
<path id="Vector" fill-rule="evenodd" clip-rule="evenodd" d="M8.47283 1.7824C9.2013 1.59798 9.96421 1.5 10.75 1.5C13.1059 1.5 15.2561 2.38072 16.8892 3.83088C15.6278 5.37109 13.8567 6.46674 11.8865 7.23397C10.8713 5.34421 9.72421 3.52927 8.47283 1.7824ZM10.75 0C13.7526 0 16.4677 1.23101 18.4181 3.21587C18.4246 3.22231 18.431 3.22885 18.4373 3.23549C20.3321 5.1736 21.5 7.82542 21.5 10.75C21.5 11.0381 21.4887 11.3236 21.4664 11.606C21.4659 11.6144 21.4652 11.6227 21.4644 11.6311C21.1611 15.3704 18.9441 18.5687 15.7941 20.2455C15.7808 20.2532 15.7671 20.2604 15.7532 20.2672C14.2588 21.0544 12.5564 21.5 10.75 21.5C4.81294 21.5 0 16.6871 0 10.75C0 4.81294 4.81294 0 10.75 0ZM19.9988 10.5968C19.9638 8.44692 19.1955 6.47538 17.933 4.92144C16.5111 6.59723 14.6067 7.76409 12.5775 8.57374C12.8928 9.21143 13.1928 9.85749 13.4767 10.5122C15.6005 10.1102 17.841 10.108 19.9988 10.5968ZM14.061 11.9313C15.9809 11.6079 17.9873 11.6449 19.9 12.1146C19.5149 14.7194 18.0439 16.9705 15.9619 18.393C15.5107 16.1498 14.8671 13.9983 14.061 11.9313ZM11.9929 10.863C11.7274 10.2616 11.4475 9.66735 11.1541 9.08C10.6227 9.2477 10.0884 9.39412 9.55752 9.52184C6.55173 10.2449 3.55008 10.3933 1.50806 10.3603C1.5027 10.4895 1.5 10.6194 1.5 10.75C1.5 13.0776 2.35971 15.2044 3.77891 16.8302C5.16078 14.3949 7.60854 12.5076 10.4407 11.3887C10.945 11.1895 11.4635 11.0137 11.9929 10.863ZM4.89897 17.9147C6.02604 15.6891 8.24945 13.8672 10.9919 12.7838C11.5061 12.5806 12.0361 12.4045 12.5773 12.2572C13.453 14.4635 14.1344 16.7644 14.5848 19.1701C13.4165 19.7031 12.1179 20 10.75 20C8.53024 20 6.4931 19.2181 4.89897 17.9147ZM6.99263 2.29498C8.26391 4.03942 9.42498 5.84792 10.4484 7.72804C10.0387 7.85157 9.62396 7.96306 9.20669 8.06344C6.43265 8.73076 3.64065 8.88396 1.69269 8.86266C2.30284 5.91946 4.31145 3.48827 6.99263 2.29498Z" fill="#292927"/>
</g>
</svg>
