<svg preserveAspectRatio="xMidYMid meet" overflow="visible" style="display: block;" viewBox="0 0 24 24" fill="none" xmlns="http://www.w3.org/2000/svg">
<g transform="translate(2.2500, 2.2500)">
<path id="Vector" fill-rule="evenodd" clip-rule="evenodd" d="M1.5 1.5V18H18V1.5H1.5ZM0 1.35C0 0.604415 0.604417 0 1.35 0H18.15C18.8956 0 19.5 0.604417 19.5 1.35V18.15C19.5 18.8956 18.8956 19.5 18.15 19.5H1.35C0.604415 19.5 0 18.8956 0 18.15V1.35ZM5.75 3C6.16421 3 6.5 3.33579 6.5 3.75V7.75C6.5 9.54493 7.95507 11 9.75 11C11.5449 11 13 9.54493 13 7.75V3.75C13 3.33579 13.3358 3 13.75 3C14.1642 3 14.5 3.33579 14.5 3.75V7.75C14.5 10.3734 12.3734 12.5 9.75 12.5C7.12665 12.5 5 10.3734 5 7.75V3.75C5 3.33579 5.33579 3 5.75 3ZM3.75 15C3.33579 15 3 15.3358 3 15.75C3 16.1642 3.33579 16.5 3.75 16.5L15.75 16.5C16.1642 16.5 16.5 16.1642 16.5 15.75C16.5 15.3358 16.1642 15 15.75 15L3.75 15Z" fill="#292927"/>
</g>
</svg>
