<svg preserveAspectRatio="xMidYMid meet" overflow="visible" style="display: block;" viewBox="0 0 24 24" fill="none" xmlns="http://www.w3.org/2000/svg">
<g transform="translate(1.2500, 1.2500)">
<path id="Vector" fill-rule="evenodd" clip-rule="evenodd" d="M1.5 10.75C1.5 5.64137 5.64137 1.5 10.75 1.5C15.8586 1.5 20 5.64137 20 10.75C20 15.8586 15.8586 20 10.75 20C5.64137 20 1.5 15.8586 1.5 10.75ZM10.75 0C4.81294 0 0 4.81294 0 10.75C0 16.6871 4.81294 21.5 10.75 21.5C16.6871 21.5 21.5 16.6871 21.5 10.75C21.5 4.81294 16.6871 0 10.75 0ZM14.7803 9.71967L11.2803 6.21967C10.9874 5.92678 10.5126 5.92678 10.2197 6.21967L6.71967 9.71967C6.42678 10.0126 6.42678 10.4874 6.71967 10.7803C7.01256 11.0732 7.48744 11.0732 7.78033 10.7803L10 8.56066V14.75C10 15.1642 10.3358 15.5 10.75 15.5C11.1642 15.5 11.5 15.1642 11.5 14.75V8.56066L13.7197 10.7803C14.0126 11.0732 14.4874 11.0732 14.7803 10.7803C15.0732 10.4874 15.0732 10.0126 14.7803 9.71967Z" fill="#292927"/>
</g>
</svg>
