<svg preserveAspectRatio="xMidYMid meet" overflow="visible" style="display: block;" viewBox="0 0 24 24" fill="none" xmlns="http://www.w3.org/2000/svg">
<g transform="translate(4.2500, 1.2500)">
<path id="Vector" fill-rule="evenodd" clip-rule="evenodd" d="M0 0.75C0 0.335786 0.335786 0 0.75 0H14.75C15.1642 0 15.5 0.335786 15.5 0.75C15.5 1.16421 15.1642 1.5 14.75 1.5H0.75C0.335786 1.5 0 1.16421 0 0.75ZM0 3.75C0 3.33579 0.335786 3 0.75 3H14.75C15.1642 3 15.5 3.33579 15.5 3.75C15.5 6.83811 13.6938 9.50437 11.0802 10.75C13.6938 11.9956 15.5 14.6619 15.5 17.75C15.5 18.1642 15.1642 18.5 14.75 18.5H0.75C0.335786 18.5 0 18.1642 0 17.75C0 14.6619 1.80618 11.9956 4.41976 10.75C1.80618 9.50437 0 6.83811 0 3.75ZM7.75 11.5C4.55204 11.5 1.91505 13.9018 1.54454 17H13.9555C13.5849 13.9018 10.948 11.5 7.75 11.5ZM1.54454 4.5C1.91506 7.59817 4.55204 10 7.75 10C10.948 10 13.5849 7.59817 13.9555 4.5H1.54454ZM0.75 20C0.335786 20 0 20.3358 0 20.75C0 21.1642 0.335786 21.5 0.75 21.5H14.75C15.1642 21.5 15.5 21.1642 15.5 20.75C15.5 20.3358 15.1642 20 14.75 20H0.75Z" fill="#292927"/>
</g>
</svg>
