<svg preserveAspectRatio="xMidYMid meet" overflow="visible" style="display: block;" viewBox="0 0 24 24" fill="none" xmlns="http://www.w3.org/2000/svg">
<g transform="translate(2.2500, 2.2500)">
<path id="Vector" fill-rule="evenodd" clip-rule="evenodd" d="M1.5 18V1.5H18V18H1.5ZM1.35 0C0.604416 0 0 0.604416 0 1.35V18.15C0 18.8956 0.60444 19.5 1.35 19.5H18.15C18.8956 19.5 19.5 18.8956 19.5 18.15V1.35C19.5 0.60444 18.8956 0 18.15 0H1.35ZM12.0474 6.39154C12.3403 6.09865 12.8152 6.09865 13.1081 6.39154C13.401 6.68444 13.401 7.15931 13.1081 7.45221L8.73156 11.8287H11.8706C12.2848 11.8287 12.6206 12.1645 12.6206 12.5787C12.6206 12.9929 12.2848 13.3287 11.8706 13.3287H6.9209C6.8192 13.3287 6.72224 13.3085 6.63381 13.2718C6.54535 13.2352 6.46247 13.1809 6.39057 13.109C6.31866 13.0371 6.26441 12.9543 6.22781 12.8658C6.19114 12.7774 6.1709 12.6804 6.1709 12.5787V7.62897C6.1709 7.21476 6.50668 6.87897 6.9209 6.87897C7.33511 6.87897 7.6709 7.21476 7.6709 7.62897V10.768L12.0474 6.39154Z" fill="#292927"/>
</g>
</svg>
