<svg preserveAspectRatio="xMidYMid meet" overflow="visible" style="display: block;" viewBox="0 0 24 24" fill="none" xmlns="http://www.w3.org/2000/svg">
<g transform="translate(1.2500, 3.7500)">
<path id="Vector" fill-rule="evenodd" clip-rule="evenodd" d="M13.5 15.75C13.5 15.9489 13.421 16.1397 13.2803 16.2803C13.1397 16.421 12.9489 16.5 12.75 16.5H0.75C0.551087 16.5 0.360322 16.421 0.21967 16.2803C0.0790176 16.1397 0 15.9489 0 15.75V3.75C0 3.46592 0.160501 3.20622 0.41459 3.07918L6.41459 0.0791795C6.62574 -0.0263932 6.87426 -0.0263932 7.08541 0.0791795L13.0854 3.07918C13.3395 3.20622 13.5 3.46592 13.5 3.75V9H16.75H20.75C21.1642 9 21.5 9.33579 21.5 9.75C21.5 10.1642 21.1642 10.5 20.75 10.5H17.5V12H20.75C21.1642 12 21.5 12.3358 21.5 12.75C21.5 13.1642 21.1642 13.5 20.75 13.5H17.5V15.75C17.5 16.1642 17.1642 16.5 16.75 16.5C16.3358 16.5 16 16.1642 16 15.75V13.5H13.5V15.75ZM16 10.5H13.5V12H16V10.5ZM12 9.75V4.21353L6.75 1.58853L1.5 4.21353V15H3V8.75C3 8.33579 3.33579 8 3.75 8H9.75C10.1642 8 10.5 8.33579 10.5 8.75V15H12V12.75V9.75ZM4.5 9.5V15H9V9.5H4.5Z" fill="#292927"/>
</g>
</svg>
