<svg preserveAspectRatio="xMidYMid meet" overflow="visible" style="display: block;" viewBox="0 0 24 24" fill="none" xmlns="http://www.w3.org/2000/svg">
<g transform="translate(2.2500, 1.2500)">
<path id="Vector" fill-rule="evenodd" clip-rule="evenodd" d="M18 9.91667C18 5.25524 14.2934 1.5 9.75 1.5C5.20657 1.5 1.5 5.25524 1.5 9.91667C1.5 9.9796 1.50068 10.0424 1.50202 10.1049C1.51196 10.5677 1.9364 11 2.57077 11H16.9292C17.5636 11 17.988 10.5677 17.998 10.1049C17.9993 10.0424 18 9.9796 18 9.91667ZM9.75 0C15.1477 0 19.5 4.45288 19.5 9.91667C19.5 9.99034 19.4992 10.0638 19.4976 10.1372C19.4666 11.5817 18.2026 12.5 16.9292 12.5H15.4132C16.1319 13.4228 16.0977 14.7378 15.3106 15.6233C14.9929 15.9807 14.9929 16.5193 15.3106 16.8767C16.1335 17.8025 16.1335 19.1975 15.3106 20.1233L14.3106 21.2483C14.0354 21.5579 13.5613 21.5858 13.2517 21.3106C12.9421 21.0354 12.9143 20.5613 13.1895 20.2517L14.1895 19.1267C14.5072 18.7693 14.5072 18.2307 14.1895 17.8733C13.3666 16.9475 13.3666 15.5525 14.1895 14.6267C14.5072 14.2693 14.5072 13.7307 14.1895 13.3733L13.4132 12.5H10.4132C11.1319 13.4228 11.0977 14.7378 10.3106 15.6233C9.99286 15.9807 9.99286 16.5193 10.3106 16.8767C11.1335 17.8025 11.1335 19.1975 10.3106 20.1233L9.31056 21.2483C9.03538 21.5579 8.56132 21.5858 8.25173 21.3106C7.94215 21.0354 7.91426 20.5613 8.18945 20.2517L9.18945 19.1267C9.50716 18.7693 9.50716 18.2307 9.18945 17.8733C8.36656 16.9475 8.36656 15.5525 9.18945 14.6267C9.50716 14.2693 9.50716 13.7307 9.18945 13.3733L8.4132 12.5H5.41318C6.1319 13.4228 6.0977 14.7378 5.31056 15.6233C4.99286 15.9807 4.99286 16.5193 5.31056 16.8767C6.13346 17.8025 6.13345 19.1975 5.31056 20.1233L4.31056 21.2483C4.03538 21.5579 3.56132 21.5858 3.25173 21.3106C2.94215 21.0354 2.91426 20.5613 3.18945 20.2517L4.18945 19.1267C4.50716 18.7693 4.50716 18.2307 4.18945 17.8733C3.36656 16.9475 3.36656 15.5525 4.18945 14.6267C4.50716 14.2693 4.50716 13.7307 4.18945 13.3733L3.4132 12.5H2.57077C1.29741 12.5 0.0333939 11.5817 0.00236702 10.1372C0.00079155 10.0638 0 9.99034 0 9.91667C0 4.45288 4.35231 0 9.75 0Z" fill="#292927"/>
</g>
</svg>
