<svg preserveAspectRatio="xMidYMid meet" overflow="visible" style="display: block;" viewBox="0 0 24 24" fill="none" xmlns="http://www.w3.org/2000/svg">
<g transform="translate(2.2500, 2.2500)">
<path id="Vector" fill-rule="evenodd" clip-rule="evenodd" d="M1.5 18V1.5H18V18H1.5ZM1.35 0C0.604416 0 0 0.604416 0 1.35V18.15C0 18.8956 0.60444 19.5 1.35 19.5H18.15C18.8956 19.5 19.5 18.8956 19.5 18.15V1.35C19.5 0.60444 18.8956 0 18.15 0H1.35ZM11.8713 6.17188H6.92153C6.72959 6.17188 6.53765 6.2451 6.3912 6.39154C6.31929 6.46345 6.26504 6.54633 6.22844 6.63479C6.19177 6.72322 6.17153 6.82018 6.17153 6.92188V11.8717C6.17153 12.2859 6.50732 12.6217 6.92153 12.6217C7.33574 12.6217 7.67153 12.2859 7.67153 11.8717V8.73254L12.0481 13.1091C12.341 13.402 12.8158 13.402 13.1087 13.1091C13.4016 12.8162 13.4016 12.3413 13.1087 12.0484L8.73219 7.67188H11.8713C12.2855 7.67188 12.6213 7.33609 12.6213 6.92188C12.6213 6.50766 12.2855 6.17188 11.8713 6.17188Z" fill="#292927"/>
</g>
</svg>
