<svg preserveAspectRatio="xMidYMid meet" overflow="visible" style="display: block;" viewBox="0 0 24 24" fill="none" xmlns="http://www.w3.org/2000/svg">
<g transform="translate(2.2951, 1.4583)">
<path id="Vector" fill-rule="evenodd" clip-rule="evenodd" d="M7.12534 1.43802L2.50626 0L0.395418 2.11084C0.0980897 2.40817 -0.0437184 2.82706 0.0118544 3.24386L1.71104 15.9878C1.90683 17.4562 2.7765 18.7492 4.06272 19.4841L4.38259 19.6669C7.68749 21.5554 11.7447 21.5554 15.0496 19.6669L15.3695 19.4841C16.6557 18.7492 17.5253 17.4562 17.7211 15.9878L19.3978 3.41289C19.4795 2.80033 19.1348 2.21053 18.561 1.98102L13.8605 0.100829H7.73315L7.12534 1.43802ZM6.06532 4.88641L6.62022 2.85177L2.92592 1.70166L1.50849 3.11908L1.57159 3.5923C1.78512 3.73994 2.06279 3.88893 2.40971 4.03284C2.95624 4.25955 3.63126 4.45593 4.40412 4.61623C4.92445 4.72414 5.48219 4.81429 6.06532 4.88641ZM7.581 5.02978C8.27897 5.07686 8.99646 5.10059 9.71609 5.10059C10.2212 5.10058 10.7254 5.08889 11.2224 5.06563L12.6083 1.60083H8.69902L8.24189 2.60653L7.581 5.02978ZM12.8878 4.94101C13.6452 4.86181 14.3668 4.75336 15.0281 4.61621C15.8009 4.45592 16.4759 4.25953 17.0225 4.03283C17.3694 3.88892 17.6471 3.73993 17.8606 3.5923L17.8955 3.33037L14.1339 1.82573L12.8878 4.94101ZM17.6183 5.40958C17.6113 5.41251 17.6042 5.41544 17.5972 5.41835C16.9384 5.69164 16.167 5.91192 15.3327 6.08496C13.664 6.43104 11.6827 6.60058 9.71609 6.60059C7.74948 6.60059 5.76814 6.43105 4.09949 6.08497C3.26521 5.91193 2.4938 5.69165 1.83497 5.41836C1.82794 5.41545 1.82091 5.41252 1.81389 5.40959L3.19788 15.7895C3.33184 16.7942 3.92688 17.6789 4.80692 18.1818L5.1268 18.3646C7.97055 19.9896 11.4616 19.9896 14.3054 18.3646L14.6253 18.1818C15.5053 17.6789 16.1003 16.7942 16.2343 15.7895L17.6183 5.40958Z" fill="#292927"/>
</g>
</svg>
