<svg preserveAspectRatio="xMidYMid meet" overflow="visible" style="display: block;" viewBox="0 0 24 24" fill="none" xmlns="http://www.w3.org/2000/svg">
<g transform="translate(5.2500, 4.2500)">
<path id="Vector" fill-rule="evenodd" clip-rule="evenodd" d="M7.28033 0.21967C6.98744 -0.0732233 6.51256 -0.0732233 6.21967 0.21967L0.21967 6.21967C-0.0732233 6.51256 -0.0732233 6.98744 0.21967 7.28033C0.512563 7.57322 0.987437 7.57322 1.28033 7.28033L6.75 1.81066L12.2197 7.28033C12.5126 7.57322 12.9874 7.57322 13.2803 7.28033C13.5732 6.98744 13.5732 6.51256 13.2803 6.21967L7.28033 0.21967ZM13.2803 14.2197L7.28033 8.21967C6.98744 7.92678 6.51256 7.92678 6.21967 8.21967L0.21967 14.2197C-0.0732233 14.5126 -0.0732233 14.9874 0.21967 15.2803C0.512563 15.5732 0.987437 15.5732 1.28033 15.2803L6.75 9.81066L12.2197 15.2803C12.5126 15.5732 12.9874 15.5732 13.2803 15.2803C13.5732 14.9874 13.5732 14.5126 13.2803 14.2197Z" fill="#292927"/>
</g>
</svg>
