<svg preserveAspectRatio="xMidYMid meet" overflow="visible" style="display: block;" viewBox="0 0 24 24" fill="none" xmlns="http://www.w3.org/2000/svg">
<g transform="translate(2.7499, 2.7500)">
<path id="Vector" fill-rule="evenodd" clip-rule="evenodd" d="M0 14.75C0 15.1642 0.335787 15.5 0.75 15.5C1.16421 15.5 1.5 15.1642 1.5 14.75V1.5H14.75C15.1642 1.5 15.5 1.16421 15.5 0.75C15.5 0.335787 15.1642 0 14.75 0H1.35C0.604417 0 0 0.604415 0 1.35V14.75ZM17 4.5V13.6922L9.44264 11.0422C9.28634 10.9874 9.11629 10.9859 8.95904 11.0379L4.5 12.5121V4.5H17ZM18.5 4.35V14.7317C18.5003 14.7438 18.5003 14.7561 18.5 14.7683V17.15C18.5 17.8956 17.8956 18.5 17.15 18.5H4.35C3.60441 18.5 3 17.8956 3 17.15V13.5664C2.99976 13.5554 2.99976 13.5443 3 13.5334V4.35C3 3.60441 3.60442 3 4.35 3H17.15C17.8956 3 18.5 3.60442 18.5 4.35ZM9.18735 12.5423L17 15.2818V17H4.5V14.092L9.18735 12.5423ZM14 8.25C14 7.83579 13.6642 7.5 13.25 7.5C12.8358 7.5 12.5 7.83579 12.5 8.25C12.5 8.66421 12.8358 9 13.25 9C13.6642 9 14 8.66421 14 8.25ZM13.25 6C14.4926 6 15.5 7.00736 15.5 8.25C15.5 9.49264 14.4926 10.5 13.25 10.5C12.0074 10.5 11 9.49264 11 8.25C11 7.00736 12.0074 6 13.25 6Z" fill="#292927"/>
</g>
</svg>
