<svg preserveAspectRatio="xMidYMid meet" overflow="visible" style="display: block;" viewBox="0 0 24 24" fill="none" xmlns="http://www.w3.org/2000/svg">
<g transform="translate(1.2500, 2.2500)">
<path id="Vector" fill-rule="evenodd" clip-rule="evenodd" d="M1.5 6.75C1.5 3.85051 3.85051 1.5 6.75 1.5H14.75C17.6495 1.5 20 3.85051 20 6.75V12.75C20 15.6495 17.6495 18 14.75 18H6.75C3.85051 18 1.5 15.6495 1.5 12.75V6.75ZM6.75 0C3.02208 0 0 3.02208 0 6.75V12.75C0 16.4779 3.02208 19.5 6.75 19.5H14.75C18.4779 19.5 21.5 16.4779 21.5 12.75V6.75C21.5 3.02208 18.4779 0 14.75 0H6.75ZM11.3175 10.2508C11.5946 9.94287 11.5696 9.46865 11.2617 9.19156C10.9538 8.91446 10.4796 8.93942 10.2025 9.24731L10.1925 9.25842C9.91544 9.5663 9.9404 10.0405 10.2483 10.3176C10.5562 10.5947 11.0304 10.5697 11.3075 10.2619L11.3175 10.2508ZM5.99999 9.75C5.99999 10.8232 6.28648 11.685 6.57513 12.2803C6.71944 12.578 6.86514 12.8109 6.97806 12.9732C7.03461 13.0545 7.08323 13.1185 7.11975 13.1645C7.2005 13.2661 7.19988 13.2653 7.19206 13.2546C7.18674 13.2473 7.1781 13.2355 7.18944 13.2483C7.46462 13.5579 7.93868 13.5857 8.24827 13.3106C8.55661 13.0365 8.58551 12.5651 8.31384 12.2555L8.31306 12.2546C8.31019 12.2512 8.30337 12.2429 8.2943 12.2315C8.27613 12.2086 8.24662 12.1701 8.20942 12.1166C8.13485 12.0094 8.03054 11.8439 7.92485 11.6259C7.7135 11.19 7.49999 10.5518 7.49999 9.75C7.49999 8.94824 7.7135 8.30999 7.92485 7.87408C8.03054 7.6561 8.13485 7.49057 8.20942 7.38338C8.24662 7.3299 8.27613 7.29136 8.2943 7.26849C8.30337 7.25707 8.31019 7.24884 8.31306 7.24543L8.31384 7.24454C8.58551 6.93489 8.55661 6.46353 8.24827 6.18944C7.93868 5.91425 7.46462 5.94214 7.18944 6.25173C7.1781 6.26448 7.18674 6.25266 7.19206 6.2454C7.19988 6.23471 7.2005 6.23386 7.11975 6.33552C7.08323 6.3815 7.03461 6.44549 6.97806 6.52678C6.86514 6.68911 6.71944 6.92202 6.57513 7.21967C6.28648 7.81501 5.99999 8.67676 5.99999 9.75ZM14.9249 12.2803C15.2135 11.685 15.5 10.8232 15.5 9.75C15.5 8.67676 15.2135 7.81501 14.9249 7.21967C14.7806 6.92202 14.6349 6.68911 14.5219 6.52678C14.4654 6.44549 14.4168 6.3815 14.3802 6.33552C14.2995 6.23387 14.3001 6.23471 14.3079 6.24539L14.308 6.24541L14.308 6.24543L14.308 6.24544L14.308 6.24545C14.3133 6.25273 14.3219 6.26445 14.3106 6.25173C14.0354 5.94214 13.5613 5.91425 13.2517 6.18944C12.9434 6.46353 12.9145 6.93489 13.1862 7.24454L13.1869 7.24543C13.1898 7.24884 13.1966 7.25707 13.2057 7.26849C13.2239 7.29136 13.2534 7.3299 13.2906 7.38338C13.3652 7.49057 13.4695 7.6561 13.5751 7.87408C13.7865 8.30999 14 8.94824 14 9.75C14 10.5518 13.7865 11.19 13.5751 11.6259C13.4695 11.8439 13.3652 12.0094 13.2906 12.1166C13.2534 12.1701 13.2239 12.2086 13.2057 12.2315C13.1966 12.2429 13.1898 12.2512 13.1869 12.2546L13.1862 12.2555C12.9145 12.5651 12.9434 13.0365 13.2517 13.3106C13.5613 13.5857 14.0354 13.5579 14.3106 13.2483C14.3219 13.2355 14.3133 13.2473 14.3079 13.2546C14.3001 13.2653 14.2995 13.2661 14.3802 13.1645C14.4168 13.1185 14.4654 13.0545 14.5219 12.9732C14.6349 12.8109 14.7806 12.578 14.9249 12.2803ZM2.99999 9.75C2.99999 11.5183 3.55114 12.8985 4.10389 13.8362C4.37995 14.3045 4.65733 14.6643 4.86929 14.9103C4.97541 15.0335 5.0656 15.1287 5.13171 15.1953L5.24158 15.3063L5.25263 15.3174L5.25031 15.3149C5.24229 15.3063 5.218 15.2805 5.25048 15.3095C5.55946 15.5853 6.03357 15.5585 6.30944 15.2495C6.5846 14.9413 6.55862 14.4689 6.2519 14.1927L6.24307 14.1844C6.23389 14.1758 6.21802 14.1605 6.1964 14.1387C6.15313 14.0951 6.08708 14.0257 6.0057 13.9312C5.84265 13.742 5.62003 13.4544 5.39609 13.0745C4.94885 12.3158 4.49999 11.196 4.49999 9.75C4.49999 8.30398 4.94885 7.18422 5.39609 6.4255C5.62003 6.0456 5.84265 5.75802 6.0057 5.56877C6.08708 5.47432 6.15313 5.40491 6.1964 5.36131C6.21802 5.33953 6.23389 5.32425 6.24307 5.31556L6.2519 5.3073C6.55862 5.03112 6.5846 4.55866 6.30944 4.25049C6.03357 3.94151 5.55946 3.91467 5.25048 4.19055C5.21799 4.21955 5.2423 4.19365 5.25031 4.18511C5.25173 4.18359 5.25264 4.18262 5.25263 4.18261C5.2526 4.18258 5.24967 4.18555 5.24157 4.19375C5.22679 4.20873 5.19477 4.24115 5.13171 4.3047C5.0656 4.37132 4.97541 4.46653 4.86929 4.58971C4.65733 4.83573 4.37995 5.19547 4.10389 5.66378C3.55114 6.60149 2.99999 7.98173 2.99999 9.75ZM17.3961 13.8362C17.9489 12.8985 18.5 11.5183 18.5 9.75C18.5 7.98173 17.9489 6.60149 17.3961 5.66378C17.1201 5.19547 16.8427 4.83573 16.6307 4.58971C16.5246 4.46653 16.4344 4.37132 16.3683 4.3047C16.2707 4.20632 16.2475 4.18253 16.2474 4.18261C16.2473 4.18271 16.2878 4.22471 16.2495 4.19055C15.9405 3.91467 15.4664 3.94151 15.1906 4.25049C14.9154 4.55866 14.9414 5.03112 15.2481 5.3073L15.2569 5.31556C15.2661 5.32425 15.282 5.33953 15.3036 5.36131C15.3469 5.40491 15.4129 5.47432 15.4943 5.56877C15.6573 5.75802 15.88 6.0456 16.1039 6.4255C16.5512 7.18422 17 8.30398 17 9.75C17 11.196 16.5512 12.3158 16.1039 13.0745C15.88 13.4544 15.6573 13.742 15.4943 13.9312C15.4129 14.0257 15.3469 14.0951 15.3036 14.1387C15.282 14.1605 15.2661 14.1758 15.2569 14.1844L15.2481 14.1927C14.9414 14.4689 14.9154 14.9413 15.1906 15.2495C15.4664 15.5585 15.9405 15.5853 16.2495 15.3095C16.282 15.2805 16.2577 15.3063 16.2497 15.3149L16.2474 15.3174L16.2584 15.3062L16.3683 15.1953C16.4344 15.1287 16.5246 15.0335 16.6307 14.9103C16.8427 14.6643 17.1201 14.3045 17.3961 13.8362Z" fill="#292927"/>
</g>
</svg>
