<svg preserveAspectRatio="xMidYMid meet" overflow="visible" style="display: block;" viewBox="0 0 24 24" fill="none" xmlns="http://www.w3.org/2000/svg">
<g transform="translate(0.4985, 0.4985)">
<path id="Vector" fill-rule="evenodd" clip-rule="evenodd" d="M12.4561 0.395406C11.9289 -0.131803 11.0741 -0.131801 10.5469 0.395406L0.395406 10.5469C-0.131803 11.0741 -0.131801 11.9289 0.395406 12.4561L10.5469 22.6075C11.0741 23.1347 11.9289 23.1347 12.4561 22.6075L22.6075 12.4561C23.1347 11.9289 23.1347 11.0741 22.6075 10.5469L12.4561 0.395406ZM1.56213 11.5015L11.5015 1.56213L21.4408 11.5015L11.5015 21.4408L1.56213 11.5015ZM12.0318 16.0323C11.8893 16.1748 11.6954 16.254 11.4938 16.2519C11.2923 16.2499 11.1 16.1668 10.9604 16.0214L6.96043 11.8547C6.67357 11.5559 6.68326 11.0811 6.98207 10.7942C7.28088 10.5074 7.75565 10.5171 8.04251 10.8159L10.7515 13.6377V6.50195C10.7515 6.08774 11.0873 5.75195 11.5015 5.75195C11.9157 5.75195 12.2515 6.08774 12.2515 6.50195V13.6913L14.9711 10.9716C15.264 10.6787 15.7389 10.6787 16.0318 10.9716C16.3247 11.2645 16.3247 11.7394 16.0318 12.0323L12.0318 16.0323Z" fill="#292927"/>
</g>
</svg>
