<svg preserveAspectRatio="xMidYMid meet" overflow="visible" style="display: block;" viewBox="0 0 24 24" fill="none" xmlns="http://www.w3.org/2000/svg">
<g transform="translate(0.4985, 0.4985)">
<path id="Vector" fill-rule="evenodd" clip-rule="evenodd" d="M10.5469 0.395406C11.0741 -0.131801 11.9289 -0.131803 12.4561 0.395406L22.6075 10.5469C23.1347 11.0741 23.1347 11.9289 22.6075 12.4561L12.4561 22.6075C11.9289 23.1347 11.0741 23.1347 10.5469 22.6075L0.395406 12.4561C-0.131801 11.9289 -0.131803 11.0741 0.395406 10.5469L10.5469 0.395406ZM11.5015 1.56213L1.56213 11.5015L11.5015 21.4408L21.4408 11.5015L11.5015 1.56213ZM4.75146 11.502C4.75146 11.0877 5.08725 10.752 5.50146 10.752H9.50146C9.91568 10.752 10.2515 11.0877 10.2515 11.502C10.2515 11.9162 9.91568 12.252 9.50146 12.252H5.50146C5.08725 12.252 4.75146 11.9162 4.75146 11.502ZM13.5015 10.752C13.0873 10.752 12.7515 11.0877 12.7515 11.502C12.7515 11.9162 13.0873 12.252 13.5015 12.252H17.5015C17.9157 12.252 18.2515 11.9162 18.2515 11.502C18.2515 11.0877 17.9157 10.752 17.5015 10.752H13.5015Z" fill="#292927"/>
</g>
</svg>
