<svg preserveAspectRatio="xMidYMid meet" overflow="visible" style="display: block;" viewBox="0 0 24 24" fill="none" xmlns="http://www.w3.org/2000/svg">
<g transform="translate(2.2500, 2.2500)">
<path id="Vector" fill-rule="evenodd" clip-rule="evenodd" d="M18 13.75C18 16.0972 16.0972 18 13.75 18H5.75C3.40279 18 1.5 16.0972 1.5 13.75V5.75C1.5 3.40279 3.40279 1.5 5.75 1.5H13.75C16.0972 1.5 18 3.40279 18 5.75V13.75ZM13.75 19.5C16.9256 19.5 19.5 16.9256 19.5 13.75V5.75C19.5 2.57436 16.9256 0 13.75 0H5.75C2.57436 0 0 2.57436 0 5.75V13.75C0 16.9256 2.57436 19.5 5.75 19.5H13.75ZM7.85 3C7.10442 3 6.5 3.60442 6.5 4.35V6.5H4.35C3.60442 6.5 3 7.10442 3 7.85V11.65C3 12.3956 3.60442 13 4.35 13H6.5V15.15C6.5 15.8956 7.10442 16.5 7.85 16.5H11.65C12.3956 16.5 13 15.8956 13 15.15V13H15.15C15.8956 13 16.5 12.3956 16.5 11.65V7.85C16.5 7.10442 15.8956 6.5 15.15 6.5H13V4.35C13 3.60442 12.3956 3 11.65 3H7.85ZM8 6.65V4.5H11.5V6.65C11.5 7.39558 12.1044 8 12.85 8H15V11.5H12.85C12.1044 11.5 11.5 12.1044 11.5 12.85V15H8V12.85C8 12.1044 7.39558 11.5 6.65 11.5H4.5V8H6.65C7.39558 8 8 7.39558 8 6.65Z" fill="#292927"/>
</g>
</svg>
