<svg preserveAspectRatio="xMidYMid meet" overflow="visible" style="display: block;" viewBox="0 0 24 24" fill="none" xmlns="http://www.w3.org/2000/svg">
<g transform="translate(1.2500, 1.2500)">
<path id="Vector" fill-rule="evenodd" clip-rule="evenodd" d="M10.75 20C5.64137 20 1.5 15.8586 1.5 10.75C1.5 5.64137 5.64137 1.5 10.75 1.5C15.3864 1.5 19.2272 4.91181 19.8966 9.36156C19.9582 9.77117 20.3402 10.0533 20.7498 9.99166C21.1594 9.93004 21.4415 9.54804 21.3799 9.13844C20.6018 3.96566 16.1397 0 10.75 0C4.81294 0 0 4.81294 0 10.75C0 16.6871 4.81294 21.5 10.75 21.5C14.6864 21.5 18.1274 19.3843 20 16.2302V19.75C20 20.1642 20.3358 20.5 20.75 20.5C21.1642 20.5 21.5 20.1642 21.5 19.75V15.35C21.5 14.6044 20.8956 14 20.15 14H19.9351C19.9239 13.9997 19.9127 13.9997 19.9015 14H15.75C15.3358 14 15 14.3358 15 14.75C15 15.1642 15.3358 15.5 15.75 15.5H18.6891C17.0721 18.1967 14.121 20 10.75 20ZM10.75 4C11.1642 4 11.5 4.33579 11.5 4.75L11.5 10H16.75C17.1642 10 17.5 10.3358 17.5 10.75C17.5 11.1642 17.1642 11.5 16.75 11.5H10.75C10.3358 11.5 10 11.1642 10 10.75L10 4.75C10 4.33579 10.3358 4 10.75 4Z" fill="#292927"/>
</g>
</svg>
