<svg preserveAspectRatio="none" width="19" height="20" overflow="visible" style="display: block;" viewBox="0 0 18.2514 19.5" fill="none" xmlns="http://www.w3.org/2000/svg">
<path id="Vector" fill-rule="evenodd" clip-rule="evenodd" d="M8.0975 9.77782L1.6592 1.5H3.7589L9.21735 8.518L8.0975 9.77782ZM7.08401 10.918L0.565138 18.2517C0.289949 18.5613 0.317835 19.0354 0.627422 19.3106C0.937008 19.5858 1.41106 19.5579 1.68625 19.2483L8.02058 12.1222L13.3535 18.9788C13.6093 19.3077 14.0026 19.5 14.4192 19.5H16.8989C18.0223 19.5 18.6543 18.2079 17.9646 17.3212L11.1674 8.58198L17.6863 1.24828C17.9614 0.938694 17.9336 0.46464 17.624 0.189451C17.3144 -0.0857375 16.8403 -0.0578519 16.5651 0.251735L10.2308 7.37782L4.89789 0.52118C4.64213 0.192338 4.24886 0 3.83227 0H1.3525C0.2291 0 -0.402827 1.29206 0.286874 2.17882L7.08401 10.918ZM10.1539 9.72216L16.5922 18H14.4925L9.03407 10.982L10.1539 9.72216Z" fill="#292927"/>
</svg>
