<svg preserveAspectRatio="xMidYMid meet" overflow="visible" style="display: block;" viewBox="0 0 24 24" fill="none" xmlns="http://www.w3.org/2000/svg">
<g transform="translate(2.2500, 6.2500)">
<path id="Vector" fill-rule="evenodd" clip-rule="evenodd" d="M2.5 5.75C2.5 5.66604 2.50235 5.58268 2.50697 5.5H6.75C7.16421 5.5 7.5 5.16421 7.5 4.75C7.5 4.33579 7.16421 4 6.75 4H2.86367C3.51283 2.51931 4.95971 1.5 6.61957 1.5C7.26392 1.5 7.87223 1.65209 8.4144 1.92337C8.78483 2.10872 9.23538 1.95868 9.42072 1.58825C9.60607 1.21782 9.45603 0.767269 9.0856 0.581921C8.34075 0.209229 7.50323 0 6.61957 0C4.0999 0 1.98713 1.68891 1.26554 4H0.75C0.335786 4 0 4.33579 0 4.75C0 5.16421 0.335786 5.5 0.75 5.5H1.00524C1.00176 5.58291 1 5.66626 1 5.75C1 5.83374 1.00176 5.91709 1.00524 6H0.75C0.335786 6 0 6.33579 0 6.75C0 7.16421 0.335786 7.5 0.75 7.5H1.26554C1.98713 9.81109 4.0999 11.5 6.61957 11.5C7.50323 11.5 8.34075 11.2908 9.0856 10.9181C9.45603 10.7327 9.60607 10.2822 9.42072 9.91175C9.23538 9.54132 8.78483 9.39128 8.4144 9.57663C7.87223 9.84791 7.26392 10 6.61957 10C4.95971 10 3.51283 8.98069 2.86367 7.5H6.75C7.16421 7.5 7.5 7.16421 7.5 6.75C7.5 6.33579 7.16421 6 6.75 6H2.50697C2.50235 5.91732 2.5 5.83396 2.5 5.75ZM15.131 2.2694C15.4179 1.97059 15.4082 1.49582 15.1094 1.20896C14.8106 0.922104 14.3358 0.931794 14.049 1.2306L10.209 5.2306C9.93035 5.52082 9.93035 5.97918 10.209 6.2694L14.049 10.2694C14.3358 10.5682 14.8106 10.5779 15.1094 10.291C15.4082 10.0042 15.4179 9.52941 15.131 9.2306L12.5097 6.5H18.75C19.1642 6.5 19.5 6.16421 19.5 5.75C19.5 5.33579 19.1642 5 18.75 5H12.5097L15.131 2.2694Z" fill="#292927"/>
</g>
</svg>
