<svg preserveAspectRatio="xMidYMid meet" overflow="visible" style="display: block;" viewBox="0 0 24 24" fill="none" xmlns="http://www.w3.org/2000/svg">
<g transform="translate(4.2500, 3.2500)">
<path id="Vector" fill-rule="evenodd" clip-rule="evenodd" d="M1.25 0C1.94036 0 2.5 0.559644 2.5 1.25C2.5 1.94036 1.94036 2.5 1.25 2.5C0.559644 2.5 0 1.94036 0 1.25C0 0.559644 0.559644 0 1.25 0ZM1.25 5C1.94036 5 2.5 5.55964 2.5 6.25C2.5 6.94036 1.94036 7.5 1.25 7.5C0.559644 7.5 0 6.94036 0 6.25C0 5.55964 0.559644 5 1.25 5ZM1.25 10C1.94036 10 2.5 10.5596 2.5 11.25C2.5 11.9404 1.94036 12.5 1.25 12.5C0.559644 12.5 0 11.9404 0 11.25C0 10.5596 0.559644 10 1.25 10ZM7.75 0C8.44036 0 9 0.559644 9 1.25C9 1.94036 8.44036 2.5 7.75 2.5C7.05964 2.5 6.5 1.94036 6.5 1.25C6.5 0.559644 7.05964 0 7.75 0ZM7.75 5C8.44036 5 9 5.55964 9 6.25C9 6.94036 8.44036 7.5 7.75 7.5C7.05964 7.5 6.5 6.94036 6.5 6.25C6.5 5.55964 7.05964 5 7.75 5ZM7.75 10C8.44036 10 9 10.5596 9 11.25C9 11.9404 8.44036 12.5 7.75 12.5C7.05964 12.5 6.5 11.9404 6.5 11.25C6.5 10.5596 7.05964 10 7.75 10ZM7.75 15C8.44036 15 9 15.5596 9 16.25C9 16.9404 8.44036 17.5 7.75 17.5C7.05964 17.5 6.5 16.9404 6.5 16.25C6.5 15.5596 7.05964 15 7.75 15ZM14.25 0C14.9404 0 15.5 0.559644 15.5 1.25C15.5 1.94036 14.9404 2.5 14.25 2.5C13.5596 2.5 13 1.94036 13 1.25C13 0.559644 13.5596 0 14.25 0ZM14.25 5C14.9404 5 15.5 5.55964 15.5 6.25C15.5 6.94036 14.9404 7.5 14.25 7.5C13.5596 7.5 13 6.94036 13 6.25C13 5.55964 13.5596 5 14.25 5ZM14.25 10C14.9404 10 15.5 10.5596 15.5 11.25C15.5 11.9404 14.9404 12.5 14.25 12.5C13.5596 12.5 13 11.9404 13 11.25C13 10.5596 13.5596 10 14.25 10Z" fill="#292927"/>
</g>
</svg>
