<svg preserveAspectRatio="xMidYMid meet" overflow="visible" style="display: block;" viewBox="0 0 24 24" fill="none" xmlns="http://www.w3.org/2000/svg">
<g transform="translate(1.2500, 2.2500)">
<path id="Vector" fill-rule="evenodd" clip-rule="evenodd" d="M16 7.75C16 8.16421 16.3358 8.5 16.75 8.5C17.1642 8.5 17.5 8.16421 17.5 7.75V1.35C17.5 0.604415 16.8956 0 16.15 0H5.35C4.60442 0 4 0.604415 4 1.35V7.75C4 8.16421 4.33579 8.5 4.75 8.5C5.16421 8.5 5.5 8.16421 5.5 7.75V1.5H16V7.75ZM0 10.75C0 10.3358 0.335786 10 0.75 10H2.75H6.75H10.75H14.75H18.75L20.75 10C21.1642 10 21.5 10.3358 21.5 10.75C21.5 11.1642 21.1642 11.5 20.75 11.5H19.5V18H20.75C21.1642 18 21.5 18.3358 21.5 18.75C21.5 19.1642 21.1642 19.5 20.75 19.5H18.7516L18.75 19.5L18.7484 19.5H14.7514L14.75 19.5L14.7486 19.5H10.7512L10.75 19.5H10.7488H6.75094H6.75H6.74906H2.75054H2.75H2.74946H0.75C0.335786 19.5 0 19.1642 0 18.75C0 18.3358 0.335786 18 0.75 18H2V11.5H0.75C0.335786 11.5 0 11.1642 0 10.75ZM3.5 18V11.5L6 11.5V18H3.5ZM7.5 18V11.5H10V18H7.5ZM11.5 18V11.5H14V18H11.5ZM15.5 18V11.5L18 11.5V18H15.5Z" fill="#292927"/>
</g>
</svg>
