<svg preserveAspectRatio="xMidYMid meet" overflow="visible" style="display: block;" viewBox="0 0 24 24" fill="none" xmlns="http://www.w3.org/2000/svg">
<g transform="translate(3.7500, 4.5000)">
<path id="Vector" fill-rule="evenodd" clip-rule="evenodd" d="M3.21967 4.78033C2.92678 4.48744 2.92678 4.01256 3.21967 3.71967L6.71967 0.21967C7.01256 -0.0732233 7.48744 -0.0732233 7.78033 0.21967C8.07322 0.512563 8.07322 0.987437 7.78033 1.28033L5.56066 3.5H10.7501L10.7514 3.5L10.7525 3.5L10.7537 3.50001L10.7593 3.50004L10.7758 3.50023C10.7892 3.50043 10.8072 3.50081 10.8297 3.50152C10.8747 3.50293 10.9373 3.50565 11.0152 3.51088C11.1707 3.52133 11.3883 3.54192 11.6475 3.58259C12.1623 3.66335 12.861 3.82627 13.5694 4.15962C14.2796 4.49385 15.0193 5.00903 15.5808 5.80178C16.1473 6.60153 16.5001 7.63848 16.5001 8.95588C16.5001 10.4022 16.1569 11.5371 15.6035 12.4162C15.0517 13.2925 14.3181 13.8714 13.601 14.2511C12.8876 14.6287 12.1826 14.8139 11.6616 14.9059C11.3995 14.9521 11.1793 14.9756 11.0215 14.9875C10.9424 14.9935 10.8786 14.9966 10.8327 14.9982C10.8097 14.9991 10.7911 14.9995 10.7772 14.9997L10.76 15L10.7541 15L10.7501 15V14.25C10.7501 14.6253 10.7499 14.8128 10.7499 14.9065C10.7498 14.9984 10.7498 15 10.75 15H2.03577C1.62155 15 1.28577 14.6642 1.28577 14.25C1.28577 13.8358 1.62155 13.5 2.03577 13.5H10.7479H10.7493L10.7516 13.4999C10.7566 13.4999 10.7661 13.4997 10.7798 13.4992C10.807 13.4982 10.8507 13.4962 10.9083 13.4918C11.024 13.4831 11.1944 13.4652 11.401 13.4287C11.8175 13.3552 12.3625 13.2095 12.8991 12.9254C13.432 12.6433 13.9484 12.2296 14.3341 11.6169C14.7182 11.007 15.0001 10.1567 15.0001 8.95588C15.0001 7.92034 14.7278 7.19259 14.3568 6.66881C13.9808 6.13803 13.4705 5.77086 12.9307 5.51685C12.3891 5.26197 11.8378 5.13077 11.4151 5.06447C11.2056 5.03161 11.0325 5.01543 10.9146 5.0075C10.8557 5.00355 10.811 5.00167 10.7827 5.00078L10.753 5.00006L10.7494 5L10.7483 5H5.56066L7.78033 7.21967C8.07322 7.51256 8.07322 7.98744 7.78033 8.28033C7.48744 8.57322 7.01256 8.57322 6.71967 8.28033L3.21967 4.78033ZM0.75 0.5C0.335786 0.5 0 0.835786 0 1.25V7.25C0 7.66421 0.335786 8 0.75 8C1.16421 8 1.5 7.66421 1.5 7.25V1.25C1.5 0.835786 1.16421 0.5 0.75 0.5Z" fill="#292927"/>
</g>
</svg>
