<svg preserveAspectRatio="xMidYMid meet" overflow="visible" style="display: block;" viewBox="0 0 24 24" fill="none" xmlns="http://www.w3.org/2000/svg">
<g transform="translate(1.2500, 4.2500)">
<path id="Vector" fill-rule="evenodd" clip-rule="evenodd" d="M4.75 0C4.33579 0 4 0.335786 4 0.75V2H1.35C0.604415 2 0 2.60442 0 3.35V14.15C0 14.8956 0.604415 15.5 1.35 15.5H20.15C20.8956 15.5 21.5 14.8956 21.5 14.15V3.35C21.5 2.60442 20.8956 2 20.15 2H17.5V0.75C17.5 0.335786 17.1642 0 16.75 0H14.75C14.3358 0 14 0.335786 14 0.75V2H7.5V0.75C7.5 0.335786 7.16421 0 6.75 0H4.75ZM6 2H5.5V1.5H6V2ZM16 1.5V2H15.5V1.5H16ZM1.5 14V3.5H20V14H1.5ZM6.75 6C7.16421 6 7.5 6.33579 7.5 6.75V8H8.75C9.16421 8 9.5 8.33579 9.5 8.75C9.5 9.16421 9.16421 9.5 8.75 9.5H7.5V10.75C7.5 11.1642 7.16421 11.5 6.75 11.5C6.33579 11.5 6 11.1642 6 10.75V9.5H4.75C4.33579 9.5 4 9.16421 4 8.75C4 8.33579 4.33579 8 4.75 8H6V6.75C6 6.33579 6.33579 6 6.75 6ZM12 8.75C12 8.33579 12.3358 8 12.75 8H16.75C17.1642 8 17.5 8.33579 17.5 8.75C17.5 9.16421 17.1642 9.5 16.75 9.5H12.75C12.3358 9.5 12 9.16421 12 8.75Z" fill="#292927"/>
</g>
</svg>
