<svg preserveAspectRatio="xMidYMid meet" overflow="visible" style="display: block;" viewBox="0 0 24 24" fill="none" xmlns="http://www.w3.org/2000/svg">
<g transform="translate(2.2500, 1.2500)">
<path id="Vector" fill-rule="evenodd" clip-rule="evenodd" d="M1.5 1.5V20H7.75C8.16421 20 8.5 20.3358 8.5 20.75C8.5 21.1642 8.16421 21.5 7.75 21.5H1.35C0.604415 21.5 0 20.8956 0 20.15V1.35C0 0.604415 0.604417 0 1.35 0H12.75H13.0015C13.3595 0 13.7029 0.142232 13.9561 0.395406L17.1046 3.54393C17.3578 3.79711 17.5 4.14049 17.5 4.49853V4.75V10.75C17.5 11.1642 17.1642 11.5 16.75 11.5C16.3358 11.5 16 11.1642 16 10.75V5.5H13.35C12.6044 5.5 12 4.89558 12 4.15V1.5H1.5ZM13.5 2.06066V4H15.4393L13.5 2.06066ZM4 4.75C4 4.33579 4.33579 4 4.75 4H8.75C9.16421 4 9.5 4.33579 9.5 4.75C9.5 5.16421 9.16421 5.5 8.75 5.5H4.75C4.33579 5.5 4 5.16421 4 4.75ZM4 8.75C4 8.33579 4.33579 8 4.75 8H12.75C13.1642 8 13.5 8.33579 13.5 8.75C13.5 9.16421 13.1642 9.5 12.75 9.5H4.75C4.33579 9.5 4 9.16421 4 8.75ZM4 12.75C4 12.3358 4.33579 12 4.75 12H7.75C8.16421 12 8.5 12.3358 8.5 12.75C8.5 13.1642 8.16421 13.5 7.75 13.5H4.75C4.33579 13.5 4 13.1642 4 12.75ZM18.5 16.75C18.5 17.514 18.271 18.2253 17.8786 18.818L19.2803 20.2197C19.5732 20.5126 19.5732 20.9874 19.2803 21.2803C18.9874 21.5732 18.5126 21.5732 18.2197 21.2803L16.818 19.8786C16.2253 20.271 15.514 20.5 14.75 20.5C12.6789 20.5 11 18.8211 11 16.75C11 14.6789 12.6789 13 14.75 13C16.8211 13 18.5 14.6789 18.5 16.75ZM14.75 14.5C13.5074 14.5 12.5 15.5074 12.5 16.75C12.5 17.9926 13.5074 19 14.75 19C15.3726 19 15.9349 18.7481 16.3431 18.3389C16.7498 17.9311 17 17.3705 17 16.75C17 15.5074 15.9926 14.5 14.75 14.5Z" fill="#292927"/>
</g>
</svg>
