<svg preserveAspectRatio="xMidYMid meet" overflow="visible" style="display: block;" viewBox="0 0 24 24" fill="none" xmlns="http://www.w3.org/2000/svg">
<g transform="translate(0.2500, 2.2500)">
<path id="Vector" fill-rule="evenodd" clip-rule="evenodd" d="M6.75 1.5C3.8505 1.5 1.5 3.85051 1.5 6.75V12.75C1.5 15.6495 3.85051 18 6.75 18H16.75C19.6495 18 22 15.6495 22 12.75V6.75C22 3.85051 19.6495 1.5 16.75 1.5H6.75ZM0 6.75C0 3.02208 3.02208 0 6.75 0H16.75C20.4779 0 23.5 3.02208 23.5 6.75V12.75C23.5 16.4779 20.4779 19.5 16.75 19.5H6.75C3.02208 19.5 0 16.4779 0 12.75V6.75ZM8.07843 7.5C6.93054 7.5 6 8.43054 6 9.57843V9.92157C6 11.0695 6.93054 12 8.07843 12C8.62966 12 9.15832 11.781 9.5481 11.3912L9.71967 11.2197C10.0126 10.9268 10.4874 10.9268 10.7803 11.2197C11.0732 11.5126 11.0732 11.9874 10.7803 12.2803L10.6088 12.4519C9.93767 13.123 9.02748 13.5 8.07843 13.5C6.10212 13.5 4.5 11.8979 4.5 9.92157V9.57843C4.5 7.60212 6.10212 6 8.07843 6C9.02748 6 9.93767 6.37701 10.6088 7.0481L10.7803 7.21967C11.0732 7.51256 11.0732 7.98744 10.7803 8.28033C10.4874 8.57322 10.0126 8.57322 9.71967 8.28033L9.5481 8.10876C9.15832 7.71898 8.62966 7.5 8.07843 7.5ZM14 9.92157V9.57843C14 8.43054 14.9305 7.5 16.0784 7.5C16.6297 7.5 17.1583 7.71898 17.5481 8.10876L17.7197 8.28033C18.0126 8.57322 18.4874 8.57322 18.7803 8.28033C19.0732 7.98744 19.0732 7.51256 18.7803 7.21967L18.6088 7.0481C17.9377 6.37701 17.0275 6 16.0784 6C14.1021 6 12.5 7.60212 12.5 9.57843V9.92157C12.5 11.8979 14.1021 13.5 16.0784 13.5C17.0275 13.5 17.9377 13.123 18.6088 12.4519L18.7803 12.2803C19.0732 11.9874 19.0732 11.5126 18.7803 11.2197C18.4874 10.9268 18.0126 10.9268 17.7197 11.2197L17.5481 11.3912C17.1583 11.781 16.6297 12 16.0784 12C14.9305 12 14 11.0695 14 9.92157Z" fill="#292927"/>
</g>
</svg>
