<svg preserveAspectRatio="xMidYMid meet" overflow="visible" style="display: block;" viewBox="0 0 24 24" fill="none" xmlns="http://www.w3.org/2000/svg">
<g transform="translate(0.2500, 0.2500)">
<path id="Vector" fill-rule="evenodd" clip-rule="evenodd" d="M2.75 1.5C3.44036 1.5 4 2.05964 4 2.75C4 3.44036 3.44036 4 2.75 4C2.05964 4 1.5 3.44036 1.5 2.75C1.5 2.05964 2.05964 1.5 2.75 1.5ZM2.75 0C4.00878 0 5.07002 0.845748 5.39648 2H18.1035C18.43 0.845748 19.4912 0 20.75 0C22.2688 0 23.5 1.23122 23.5 2.75C23.5 4.00878 22.6543 5.07002 21.5 5.39648V18.1035C22.6543 18.43 23.5 19.4912 23.5 20.75C23.5 22.2688 22.2688 23.5 20.75 23.5C19.4912 23.5 18.43 22.6543 18.1035 21.5H5.39648C5.07002 22.6543 4.00878 23.5 2.75 23.5C1.23122 23.5 0 22.2688 0 20.75C0 19.4912 0.845748 18.43 2 18.1035V5.39648C0.845748 5.07002 0 4.00878 0 2.75C0 1.23122 1.23122 0 2.75 0ZM5.39648 20H18.1035C18.3625 19.0842 19.0842 18.3625 20 18.1035V5.39648C19.0842 5.13745 18.3625 4.41584 18.1035 3.5H5.39648C5.13745 4.41584 4.41584 5.13745 3.5 5.39648V18.1035C4.41584 18.3625 5.13745 19.0842 5.39648 20ZM4 20.75C4 20.0596 3.44036 19.5 2.75 19.5C2.05964 19.5 1.5 20.0596 1.5 20.75C1.5 21.4404 2.05964 22 2.75 22C3.44036 22 4 21.4404 4 20.75ZM19.5 20.75C19.5 21.4404 20.0596 22 20.75 22C21.4404 22 22 21.4404 22 20.75C22 20.0596 21.4404 19.5 20.75 19.5C20.0596 19.5 19.5 20.0596 19.5 20.75ZM20.75 4C20.0596 4 19.5 3.44036 19.5 2.75C19.5 2.05964 20.0596 1.5 20.75 1.5C21.4404 1.5 22 2.05964 22 2.75C22 3.44036 21.4404 4 20.75 4ZM14.1781 8.5C14.4247 8.49987 14.6705 8.52655 14.9113 8.57958C16.3792 8.90281 17.5 10.1871 17.5 11.7502C17.5 13.5651 15.9925 15 14.1785 15H13.3215C11.4899 15 10 13.4062 10 11.7502C10 11.336 10.3358 11.0002 10.75 11.0002C11.1642 11.0002 11.5 11.336 11.5 11.7502C11.5 12.5866 12.3271 13.5 13.3215 13.5H14.1785C15.2045 13.5 16 12.6968 16 11.7502C16 10.9332 15.4108 10.2255 14.5887 10.0445L14.5887 10.0445C14.4541 10.0148 14.3167 9.99993 14.1789 10C13.7647 10.0002 13.4287 9.66461 13.4285 9.2504C13.4283 8.83619 13.7639 8.50022 14.1781 8.5ZM8.5887 14.9204C8.82949 14.9734 9.07534 15.0001 9.3219 15C9.73611 14.9998 10.0717 14.6638 10.0715 14.2496C10.0713 13.8354 9.73532 13.4998 9.3211 13.5C9.1833 13.5001 9.04589 13.4852 8.9113 13.4555L8.91128 13.4555C8.08919 13.2745 7.5 12.5668 7.5 11.7498C7.5 10.8032 8.2955 10 9.3215 10H10.1785C11.1729 10 12 10.9134 12 11.7498C12 12.164 12.3358 12.4998 12.75 12.4998C13.1642 12.4998 13.5 12.164 13.5 11.7498C13.5 10.0938 12.0101 8.5 10.1785 8.5H9.3215C7.5075 8.5 6 9.93492 6 11.7498C6 13.3129 7.12081 14.5972 8.5887 14.9204Z" fill="#292927"/>
</g>
</svg>
