<svg preserveAspectRatio="xMidYMid meet" overflow="visible" style="display: block;" viewBox="0 0 24 24" fill="none" xmlns="http://www.w3.org/2000/svg">
<g transform="translate(1.2500, 3.2499)">
<path id="Vector" fill-rule="evenodd" clip-rule="evenodd" d="M7.57091 0.431749C7.72005 0.113585 8.07009 -0.0583817 8.41306 0.0180154C8.75604 0.0944125 9 0.398691 9 0.750074V16.7501C9 17.1643 8.66421 17.5001 8.25 17.5001H0.750001C0.493443 17.5001 0.254686 17.3689 0.117055 17.1524C-0.0205779 16.9359 -0.0379843 16.6641 0.0709072 16.4317L7.57091 0.431749ZM7.5 16.0001V4.11713L1.92987 16.0001H7.5ZM20.4916 14.4319C20.3158 14.0568 19.8692 13.8953 19.4942 14.0711C19.1191 14.2469 18.9576 14.6934 19.1334 15.0685L19.5701 16.0002H18.875C18.4608 16.0002 18.125 16.336 18.125 16.7502C18.125 17.1644 18.4608 17.5002 18.875 17.5002H20.75C21.0066 17.5002 21.2453 17.369 21.3829 17.1525C21.5206 16.936 21.538 16.6642 21.4291 16.4319L20.4916 14.4319ZM13.25 14C13.6642 14 14 14.3358 14 14.75V16H15.125C15.5392 16 15.875 16.3358 15.875 16.75C15.875 17.1642 15.5392 17.5 15.125 17.5H13.25C12.8358 17.5 12.5 17.1642 12.5 16.75V14.75C12.5 14.3358 12.8358 14 13.25 14ZM14 8.75C14 8.33579 13.6642 8 13.25 8C12.8358 8 12.5 8.33579 12.5 8.75V10.75C12.5 11.1642 12.8358 11.5 13.25 11.5C13.6642 11.5 14 11.1642 14 10.75V8.75ZM16.6817 8.07108C17.0567 7.89528 17.5033 8.0568 17.6791 8.43185L18.6166 10.4319C18.7924 10.8069 18.6309 11.2535 18.2558 11.4293C17.8808 11.6051 17.4342 11.4436 17.2584 11.0685L16.3209 9.0685C16.1451 8.69345 16.3066 8.24689 16.6817 8.07108ZM13.9291 0.431749C13.78 0.113585 13.4299 -0.0583817 13.0869 0.0180154C12.744 0.0944125 12.5 0.398691 12.5 0.750074V4.75007C12.5 5.16429 12.8358 5.50007 13.25 5.50007C13.6642 5.50007 14 5.16429 14 4.75007V4.11713L14.4459 5.0684C14.6217 5.44345 15.0683 5.60497 15.4433 5.42917C15.8184 5.25336 15.9799 4.8068 15.8041 4.43175L13.9291 0.431749Z" fill="#292927"/>
</g>
</svg>
