<svg preserveAspectRatio="xMidYMid meet" overflow="visible" style="display: block;" viewBox="0 0 24 24" fill="none" xmlns="http://www.w3.org/2000/svg">
<g transform="translate(3.2500, 1.7500)">
<path id="Vector" fill-rule="evenodd" clip-rule="evenodd" d="M16.75 0C16.9624 0 17.1649 0.0900726 17.3071 0.247854C17.4493 0.405634 17.518 0.616322 17.496 0.827599L15.7182 17.9175C15.6871 18.2169 15.48 18.4686 15.1923 18.5569L8.9701 20.467C8.82667 20.511 8.67334 20.511 8.52991 20.467L2.30769 18.5569C2.01999 18.4686 1.81295 18.2169 1.78181 17.9175L0.00402817 0.827599C-0.0179483 0.616322 0.0506934 0.405634 0.192913 0.247854C0.335132 0.0900726 0.537586 0 0.750004 0H16.75ZM8.75 18.9655L14.2776 17.2686L15.9179 1.5H1.58207L3.2224 17.2686L8.75 18.9655ZM13.75 4C14.1642 4 14.5 4.33579 14.5 4.75C14.5 5.16421 14.1642 5.5 13.75 5.5H5.08796L5.42129 8.5H12.75C12.9607 8.5 13.1617 8.58865 13.3038 8.74425C13.4459 8.89985 13.516 9.10805 13.4969 9.3179L12.9969 14.8179C12.9689 15.1265 12.754 15.386 12.456 15.4711L8.95605 16.4711C8.82138 16.5096 8.67863 16.5096 8.54397 16.4711L5.04397 15.4711C4.74842 15.3867 4.53431 15.1305 4.50373 14.8246L4.25373 12.3246C4.21251 11.9125 4.51322 11.5449 4.92538 11.5037C5.33754 11.4625 5.70507 11.7632 5.74629 12.1754L5.94562 14.1687L8.75001 14.97L11.5496 14.1701L11.9287 10H4.75001C4.36785 10 4.0468 9.71265 4.00459 9.33282L3.50459 4.83282C3.48104 4.6208 3.54889 4.40877 3.69116 4.24981C3.83344 4.09085 4.03668 4 4.25001 4H13.75Z" fill="#292927"/>
</g>
</svg>
