<svg preserveAspectRatio="xMidYMid meet" overflow="visible" style="display: block;" viewBox="0 0 24 24" fill="none" xmlns="http://www.w3.org/2000/svg">
<g transform="translate(1.2500, 1.2500)">
<path id="Vector" fill-rule="evenodd" clip-rule="evenodd" d="M1.5 10.75C1.5 5.64137 5.64137 1.5 10.75 1.5C15.8586 1.5 20 5.64137 20 10.75C20 15.8586 15.8586 20 10.75 20C5.64137 20 1.5 15.8586 1.5 10.75ZM10.75 0C4.81294 0 0 4.81294 0 10.75C0 16.6871 4.81294 21.5 10.75 21.5C16.6871 21.5 21.5 16.6871 21.5 10.75C21.5 4.81294 16.6871 0 10.75 0ZM10.75 5.5C9.50736 5.5 8.5 6.50736 8.5 7.75C8.5 8.99264 9.50736 10 10.75 10C11.9926 10 13 8.99264 13 7.75C13 6.50736 11.9926 5.5 10.75 5.5ZM14.5 7.75C14.5 8.86952 14.0094 9.87445 13.2315 10.5616C15.1649 11.4879 16.5 13.463 16.5 15.75V16.75C16.5 17.1642 16.1642 17.5 15.75 17.5C15.3358 17.5 15 17.1642 15 16.75V15.75C15 13.4028 13.0972 11.5 10.75 11.5C8.40279 11.5 6.5 13.4028 6.5 15.75V16.75C6.5 17.1642 6.16421 17.5 5.75 17.5C5.33579 17.5 5 17.1642 5 16.75V15.75C5 13.463 6.33514 11.4879 8.26848 10.5616C7.49057 9.87445 7 8.86952 7 7.75C7 5.67893 8.67893 4 10.75 4C12.8211 4 14.5 5.67893 14.5 7.75Z" fill="#292927"/>
</g>
</svg>
