<svg preserveAspectRatio="xMidYMid meet" overflow="visible" style="display: block;" viewBox="0 0 24 24" fill="none" xmlns="http://www.w3.org/2000/svg">
<g transform="translate(2.2500, 2.2500)">
<path id="Vector" fill-rule="evenodd" clip-rule="evenodd" d="M10 3.25C10 2.99677 9.77524 2.5656 8.95014 2.15305C8.16991 1.76294 7.03955 1.5 5.75002 1.5C4.4605 1.5 3.33013 1.76294 2.5499 2.15305C1.7248 2.5656 1.50002 2.99677 1.50002 3.25C1.50002 3.50323 1.7248 3.9344 2.5499 4.34695C3.33013 4.73706 4.4605 5 5.75002 5C7.03955 5 8.16991 4.73706 8.95014 4.34695C9.77524 3.9344 10 3.50323 10 3.25ZM10 5.47922C9.87639 5.55454 9.74944 5.62435 9.62096 5.68859C8.59155 6.20329 7.22192 6.5 5.75002 6.5C4.27812 6.5 2.90849 6.20329 1.87908 5.68859C1.75059 5.62434 1.62363 5.55454 1.5 5.47921V7.24879L1.5 7.25C1.5 7.50323 1.72478 7.9344 2.54988 8.34695C3.33011 8.73706 4.46048 9 5.75 9C6.58046 9 7.34833 8.89083 8.00002 8.70695V8.25C8.00002 7.12252 8.89452 6.30369 9.87908 5.81141C9.91889 5.79151 9.95921 5.77193 10 5.75268V5.47922ZM3.14912e-05 3.24301C1.02458e-05 3.24534 0 3.24767 0 3.25V7.25V10.75V14.25C0 15.3775 0.894506 16.1963 1.87906 16.6886C2.90847 17.2033 4.2781 17.5 5.75 17.5C6.63257 17.5 7.47518 17.3933 8.22869 17.1987C8.55648 17.8485 9.19611 18.3471 9.87908 18.6886C10.9085 19.2033 12.2781 19.5 13.75 19.5C15.2219 19.5 16.5916 19.2033 17.621 18.6886C18.6055 18.1963 19.5 17.3775 19.5 16.25V12.25V8.25C19.5 7.12252 18.6055 6.30369 17.621 5.81141C16.5916 5.29671 15.2219 5 13.75 5C12.9581 5 12.1957 5.0859 11.5 5.24543V3.25C11.5 2.12252 10.6055 1.30369 9.62096 0.811413C8.59155 0.296707 7.22192 0 5.75002 0C4.27812 0 2.90849 0.296707 1.87908 0.811413C0.896561 1.30267 0.00371924 2.11914 3.14912e-05 3.24301ZM9.50002 16.2333C9.50022 16.2422 9.50025 16.2511 9.50013 16.26C9.50599 16.5145 9.73556 16.9398 10.5499 17.3469C11.3301 17.7371 12.4605 18 13.75 18C15.0395 18 16.1699 17.7371 16.9501 17.3469C17.7752 16.9344 18 16.5032 18 16.25V14.4792C17.8764 14.5545 17.7494 14.6243 17.621 14.6886C16.5916 15.2033 15.2219 15.5 13.75 15.5C12.2781 15.5 10.9085 15.2033 9.87908 14.6886C9.75059 14.6243 9.62365 14.5545 9.50002 14.4792V16.2333ZM18 10.4792V12.25C18 12.5032 17.7752 12.9344 16.9501 13.3469C16.1699 13.7371 15.0395 14 13.75 14C12.4605 14 11.3301 13.7371 10.5499 13.3469C9.7248 12.9344 9.50002 12.5032 9.50002 12.25V10.4792C9.62365 10.5545 9.75059 10.6243 9.87908 10.6886C10.9085 11.2033 12.2781 11.5 13.75 11.5C15.2219 11.5 16.5916 11.2033 17.621 10.6886C17.7494 10.6243 17.8764 10.5545 18 10.4792ZM8.00002 10.2546V12.207C7.34832 12.3908 6.58045 12.5 5.75 12.5C4.46048 12.5 3.33011 12.2371 2.54988 11.8469C1.72478 11.4344 1.5 11.0032 1.5 10.75V9.47922C1.62363 9.55454 1.75057 9.62435 1.87906 9.68859C2.90847 10.2033 4.2781 10.5 5.75 10.5C6.54426 10.5 7.30622 10.4137 8.00002 10.2546ZM16.9501 7.15305C17.7752 7.5656 18 7.99677 18 8.25C18 8.50323 17.7752 8.9344 16.9501 9.34695C16.1699 9.73706 15.0395 10 13.75 10C12.4605 10 11.3301 9.73706 10.5499 9.34695C9.7248 8.9344 9.50002 8.50323 9.50002 8.25C9.50002 7.99677 9.7248 7.5656 10.5499 7.15305C10.6871 7.08445 10.8352 7.01977 10.993 6.95977C11.0069 6.95501 11.0206 6.94985 11.0342 6.94431C11.7679 6.67206 12.7069 6.5 13.75 6.5C15.0395 6.5 16.1699 6.76294 16.9501 7.15305ZM8.00002 15.7068V13.7546C7.30622 13.9137 6.54426 14 5.75 14C4.2781 14 2.90847 13.7033 1.87906 13.1886C1.75057 13.1243 1.62363 13.0545 1.5 12.9792V14.25C1.5 14.5032 1.72478 14.9344 2.54988 15.3469C3.33011 15.7371 4.46048 16 5.75 16C6.58042 16 7.34828 15.8907 8.00002 15.7068Z" fill="#292927"/>
</g>
</svg>
