<svg preserveAspectRatio="xMidYMid meet" overflow="visible" style="display: block;" viewBox="0 0 24 24" fill="none" xmlns="http://www.w3.org/2000/svg">
<g transform="translate(3.2500, 1.1083)">
<path id="Vector" fill-rule="evenodd" clip-rule="evenodd" d="M2.11463 15.9592C3.23926 18.5059 5.78706 20.2833 8.75 20.2833C12.7541 20.2833 16 17.0374 16 13.0333C16 12.1981 15.6428 11.1458 15.0151 9.96969L2.11463 15.9592ZM1.65256 14.5199C1.55256 14.0401 1.5 13.5428 1.5 13.0333C1.5 12.126 1.92155 10.9624 2.65354 9.6623C3.3742 8.38229 4.34493 7.05754 5.33078 5.851C6.31431 4.64729 7.29986 3.57703 8.04057 2.80688C8.3156 2.5209 8.55634 2.27687 8.75 2.08337C8.94366 2.27687 9.1844 2.5209 9.45943 2.80688C10.2001 3.57703 11.1857 4.64729 12.1692 5.851C12.9025 6.74841 13.6274 7.71123 14.2473 8.67239L1.65256 14.5199ZM8.75 1.0333C8.23409 0.488934 8.23398 0.489037 8.23385 0.489168L8.75 1.0333ZM9.26658 0.489574L9.26799 0.490908L9.27296 0.495636L9.2914 0.513235L9.36096 0.580141C9.42137 0.63851 9.50924 0.723995 9.62064 0.833965C9.8434 1.05387 10.1605 1.37193 10.5406 1.76709C11.2999 2.55658 12.3143 3.65789 13.3308 4.9019C14.3449 6.14308 15.3742 7.54218 16.1535 8.92639C16.9216 10.2905 17.5 11.7315 17.5 13.0333C17.5 17.8658 13.5825 21.7833 8.75 21.7833C3.91751 21.7833 0 17.8658 0 13.0333C0 11.7315 0.578448 10.2905 1.34646 8.92639C2.1258 7.54218 3.15507 6.14308 4.16922 4.9019C5.18569 3.65789 6.20014 2.55658 6.95943 1.76709C7.33949 1.37193 7.6566 1.05387 7.87936 0.833965C7.99076 0.723995 8.07863 0.63851 8.13904 0.580141L8.2086 0.513235L8.22704 0.495636L8.23385 0.489168L8.75 0L9.26658 0.489574ZM8.75 1.0333L9.26658 0.489574C9.26645 0.489443 9.26591 0.488934 8.75 1.0333Z" fill="#292927"/>
</g>
</svg>
