<svg preserveAspectRatio="xMidYMid meet" overflow="visible" style="display: block;" viewBox="0 0 24 24" fill="none" xmlns="http://www.w3.org/2000/svg">
<g transform="translate(2.2500, 6.2499)">
<path id="Vector" fill-rule="evenodd" clip-rule="evenodd" d="M3.5 3.75C3.5 2.50736 4.50736 1.5 5.75 1.5C6.99264 1.5 8 2.50736 8 3.75C8 4.16421 8.33579 4.5 8.75 4.5C9.16421 4.5 9.5 4.16421 9.5 3.75C9.5 1.67893 7.82107 0 5.75 0C3.67893 0 2 1.67893 2 3.75C2 4.5942 2.27896 5.37325 2.74973 6H0.75C0.335786 6 0 6.33579 0 6.75C0 7.16421 0.335786 7.5 0.75 7.5H3.59285C3.37903 7.92573 3.14344 8.32979 2.88727 8.69269C2.42738 9.34419 1.93055 9.8214 1.41459 10.0794C1.10348 10.2349 0.940145 10.584 1.02006 10.9225C1.09998 11.261 1.40216 11.5002 1.75 11.5002H8.08333V10.7545C8.08333 11.5002 8.08358 11.5002 8.08383 11.5002L8.08435 11.5002L8.08548 11.5002L8.08801 11.5002L8.0942 11.5001L8.11102 11.4999C8.12417 11.4996 8.14116 11.4991 8.16166 11.4981C8.20259 11.4963 8.25784 11.4927 8.32463 11.4861C8.45744 11.4728 8.64001 11.4466 8.84857 11.3945C9.25709 11.2923 9.81659 11.0776 10.2803 10.6139C10.5732 10.321 10.5732 9.8461 10.2803 9.5532C9.98743 9.26031 9.51256 9.26031 9.21967 9.5532C9.01674 9.75613 8.74291 9.87472 8.48476 9.93926C8.35999 9.97045 8.25089 9.98595 8.17537 9.99351C8.13799 9.99724 8.10991 9.99893 8.09355 9.99967L8.07882 10.0002H3.77774C3.89454 9.8567 4.00616 9.70868 4.11272 9.55771C4.55838 8.92636 4.93593 8.21476 5.24905 7.5H5.75H7.41667C7.83088 7.5 8.16667 7.16421 8.16667 6.75C8.16667 6.33579 7.83088 6 7.41667 6H5.75C4.50736 6 3.5 4.99264 3.5 3.75ZM15.131 2.2694C15.4179 1.97059 15.4082 1.49582 15.1094 1.20896C14.8106 0.922104 14.3358 0.931794 14.049 1.2306L10.209 5.2306C9.93035 5.52082 9.93035 5.97918 10.209 6.2694L14.049 10.2694C14.3358 10.5682 14.8106 10.5779 15.1094 10.291C15.4082 10.0042 15.4179 9.52941 15.131 9.2306L12.5097 6.5H18.75C19.1642 6.5 19.5 6.16421 19.5 5.75C19.5 5.33579 19.1642 5 18.75 5H12.5097L15.131 2.2694Z" fill="#292927"/>
</g>
</svg>
