<svg preserveAspectRatio="xMidYMid meet" overflow="visible" style="display: block;" viewBox="0 0 24 24" fill="none" xmlns="http://www.w3.org/2000/svg">
<g transform="translate(3.2500, 1.2500)">
<path id="Vector" fill-rule="evenodd" clip-rule="evenodd" d="M3.73869 5.47495C2.34384 7.83328 1.5 10.7027 1.5 12.75C1.5 16.7541 4.74594 20 8.75 20C12.7541 20 16 16.7541 16 12.75C16 10.7027 15.1562 7.83328 13.7613 5.47495C13.0678 4.30236 12.2594 3.29331 11.3902 2.58512C10.5218 1.87752 9.63153 1.5 8.75 1.5C7.86847 1.5 6.97824 1.87752 6.10978 2.58512C5.24059 3.29331 4.43222 4.30236 3.73869 5.47495ZM5.1623 1.42224C6.20805 0.570197 7.42239 0 8.75 0C10.0776 0 11.292 0.570197 12.3377 1.42224C13.3827 2.27369 14.2982 3.43622 15.0524 4.71134C16.553 7.24844 17.5 10.379 17.5 12.75C17.5 17.5825 13.5825 21.5 8.75 21.5C3.91751 21.5 0 17.5825 0 12.75C0 10.379 0.947022 7.24844 2.44761 4.71134C3.20178 3.43622 4.11728 2.27369 5.1623 1.42224Z" fill="#292927"/>
</g>
</svg>
