<svg preserveAspectRatio="xMidYMid meet" overflow="visible" style="display: block;" viewBox="0 0 24 24" fill="none" xmlns="http://www.w3.org/2000/svg">
<g transform="translate(1.2500, 1.0000)">
<path id="Vector" fill-rule="evenodd" clip-rule="evenodd" d="M16.75 0C16.3358 0 16 0.335786 16 0.75V6.75C16 7.16421 16.3358 7.5 16.75 7.5H18V20.75C18 21.1642 18.3358 21.5 18.75 21.5C19.1642 21.5 19.5 21.1642 19.5 20.75V7.5H20.75C21.1642 7.5 21.5 7.16421 21.5 6.75V0.75C21.5 0.335786 21.1642 0 20.75 0H16.75ZM20 1.5V6H17.5V1.5H20ZM5.26202 14.1908C5.56976 14.4681 5.59447 14.9423 5.31722 15.2501L5.30722 15.2612C5.02996 15.5689 4.55573 15.5936 4.24799 15.3164C3.94026 15.0391 3.91554 14.5649 4.1928 14.2571L4.2028 14.246C4.48005 13.9383 4.95428 13.9136 5.26202 14.1908ZM15.262 14.1908C15.5698 14.4681 15.5945 14.9423 15.3172 15.2501L15.3072 15.2612C15.03 15.5689 14.5557 15.5936 14.248 15.3164C13.9403 15.0391 13.9155 14.5649 14.1928 14.2571L14.2028 14.246C14.48 13.9383 14.9543 13.9136 15.262 14.1908ZM1.5 11.5H14.75C15.1642 11.5 15.5 11.1642 15.5 10.75C15.5 10.3358 15.1642 10 14.75 10H1.35C0.60444 10 0 10.6044 0 11.35V18.15C0 18.8956 0.60444 19.5 1.35 19.5H1.5V20.65C1.5 21.3956 2.10444 22 2.85 22H5.65C6.39556 22 7 21.3956 7 20.65V19.5H12.5V20.65C12.5 21.3956 13.1044 22 13.85 22H14.75C15.1642 22 15.5 21.6642 15.5 21.25C15.5 20.8358 15.1642 20.5 14.75 20.5H14V19.5H14.75C15.1642 19.5 15.5 19.1642 15.5 18.75C15.5 18.3358 15.1642 18 14.75 18H13.25H6.25H2.25H1.5V11.5ZM3 20.5V19.5H5.5V20.5H3ZM4.75 0C2.12665 0 0 2.12665 0 4.75V6.75C0 7.16421 0.335786 7.5 0.75 7.5C1.16421 7.5 1.5 7.16421 1.5 6.75V4.75C1.5 2.95507 2.95507 1.5 4.75 1.5H12.75C13.1642 1.5 13.5 1.16421 13.5 0.75C13.5 0.335786 13.1642 0 12.75 0H4.75ZM4.75 6C4.33579 6 4 6.33579 4 6.75C4 7.16421 4.33579 7.5 4.75 7.5H12.75C13.1642 7.5 13.5 7.16421 13.5 6.75C13.5 6.33579 13.1642 6 12.75 6H4.75Z" fill="#292927"/>
</g>
</svg>
