<svg preserveAspectRatio="xMidYMid meet" overflow="visible" style="display: block;" viewBox="0 0 24 24" fill="none" xmlns="http://www.w3.org/2000/svg">
<g transform="translate(0.2500, 6.2500)">
<path id="Vector" fill-rule="evenodd" clip-rule="evenodd" d="M22.75 1.5C23.1642 1.5 23.5 1.16421 23.5 0.75C23.5 0.335786 23.1642 0 22.75 0H19.75H13.75H3.75H0.75C0.335787 0 0 0.335786 0 0.75C0 1.16421 0.335787 1.5 0.75 1.5H3V3.75V10.75C3 11.1642 3.33579 11.5 3.75 11.5C4.16421 11.5 4.5 11.1642 4.5 10.75V4.5H13V7.75V10.75C13 11.1642 13.3358 11.5 13.75 11.5C14.1642 11.5 14.5 11.1642 14.5 10.75V8.5H16V8.75C16 9.16421 16.3358 9.5 16.75 9.5C17.1642 9.5 17.5 9.16421 17.5 8.75V8.5H19V10.75C19 11.1642 19.3358 11.5 19.75 11.5C20.1642 11.5 20.5 11.1642 20.5 10.75V7.75V3.75V1.5H22.75ZM16.75 7H19V4.5H17.5V4.75C17.5 5.16421 17.1642 5.5 16.75 5.5C16.3358 5.5 16 5.16421 16 4.75V4.5H14.5V7H16.75ZM19 3H16.75H14.5V1.5H19V3ZM13 1.5H4.5V3H13V1.5Z" fill="#292927"/>
</g>
</svg>
