<svg preserveAspectRatio="xMidYMid meet" overflow="visible" style="display: block;" viewBox="0 0 24 24" fill="none" xmlns="http://www.w3.org/2000/svg">
<g transform="translate(1.2500, 2.7499)">
<path id="Vector" fill-rule="evenodd" clip-rule="evenodd" d="M3.82259 9.20855L3.51113 9.28641C3.72387 4.87013 6.95817 1.5 10.75 1.5C14.5419 1.5 17.7762 4.87016 17.9889 9.28647L17.6773 9.20851C16.8254 8.9957 16 9.63997 16 10.5183V15.9814C16 16.8596 16.8255 17.5039 17.6774 17.2911L19.417 16.8562C20.6412 16.5501 21.5 15.4501 21.5 14.1883V12.3114C21.5 11.0781 20.6797 9.99947 19.4997 9.66548C19.4591 4.40347 15.637 0 10.75 0C5.86304 0 2.04086 4.40348 2.00033 9.66549C0.820308 9.99948 0 11.0781 0 12.3114V14.1883C0 15.4501 0.858812 16.5501 2.08302 16.8562L3.82271 17.2911C4.67459 17.5039 5.5 16.8597 5.5 15.9814V10.5183C5.5 9.63994 4.67447 8.99574 3.82259 9.20855ZM2.44688 11.0986L2.93189 10.9774L4 10.7104V15.7892L2.44684 15.4009C1.89037 15.2618 1.5 14.7618 1.5 14.1883V12.3114C1.5 11.7378 1.89041 11.2378 2.44688 11.0986ZM19.0532 11.0987L17.5 10.7104V15.7892L19.0532 15.4009C19.6096 15.2618 20 14.7618 20 14.1883V12.3114C20 11.7379 19.6094 11.2379 19.0532 11.0987ZM11.886 10.1476C12.1055 9.79635 11.9988 9.33363 11.6475 9.1141C11.2962 8.89457 10.8335 9.00135 10.614 9.3526L8.114 13.3526C7.9695 13.5838 7.96185 13.8752 8.09402 14.1137C8.22619 14.3521 8.47736 14.5001 8.75 14.5001H11.3968L9.614 17.3526C9.39447 17.7039 9.50125 18.1666 9.8525 18.3861C10.2038 18.6056 10.6665 18.4989 10.886 18.1476L13.386 14.1476C13.5305 13.9164 13.5382 13.625 13.406 13.3865C13.2738 13.1481 13.0226 13.0001 12.75 13.0001H10.1032L11.886 10.1476Z" fill="#292927"/>
</g>
</svg>
