<svg preserveAspectRatio="xMidYMid meet" overflow="visible" style="display: block;" viewBox="0 0 24 24" fill="none" xmlns="http://www.w3.org/2000/svg">
<g transform="translate(4.2500, 4.2500)">
<path id="Vector" fill-rule="evenodd" clip-rule="evenodd" d="M12.75 12L14.75 12C15.1642 12 15.5 12.3358 15.5 12.75C15.5 13.1642 15.1642 13.5 14.75 13.5H13.5V14.75C13.5 15.1642 13.1642 15.5 12.75 15.5C12.3358 15.5 12 15.1642 12 14.75V13.5H3.75C2.7835 13.5 2 12.7165 2 11.75V3.5H0.75C0.335786 3.5 0 3.16421 0 2.75C0 2.33579 0.335786 2 0.75 2H2V0.75C2 0.335786 2.33579 0 2.75 0C3.16421 0 3.5 0.335787 3.5 0.75V2.74974C3.5 2.74983 3.5 2.74991 3.5 2.75C3.5 2.75008 3.5 2.75017 3.5 2.75026L3.5 11.75C3.5 11.8881 3.61193 12 3.75 12L12.75 12Z" fill="#292927"/>
</g>
</svg>
