<svg preserveAspectRatio="xMidYMid meet" overflow="visible" style="display: block;" viewBox="0 0 24 24" fill="none" xmlns="http://www.w3.org/2000/svg">
<g transform="translate(1.1287, 3.6287)">
<path id="Vector" fill-rule="evenodd" clip-rule="evenodd" d="M5.89286 1.50001L7.60714 1.5C10.0147 1.5 12 3.66598 12 5.74763C12 6.16184 12.3358 6.49763 12.75 6.49763C13.1642 6.49763 13.5 6.16184 13.5 5.74763C13.5 2.84582 10.8514 0 7.60714 0L5.89286 5.60284e-06C2.65872 5.60284e-06 0 2.5532 0 5.74763C0 8.49955 1.97597 10.7777 4.5885 11.3538C5.00881 11.4465 5.44546 11.4952 5.89286 11.4952C6.30707 11.4952 6.64286 11.1595 6.64286 10.7452C6.64286 10.331 6.30707 9.99525 5.89286 9.99525C5.55467 9.99525 5.22631 9.95842 4.9115 9.889C2.94348 9.45505 1.5 7.75253 1.5 5.74763C1.5 3.42184 3.44635 1.50001 5.89286 1.50001ZM18.6124 8.84595C18.3056 9.1243 18.2826 9.59862 18.561 9.90536C18.8393 10.2121 19.3136 10.2351 19.6204 9.95677C20.7728 8.911 21.5 7.41383 21.5 5.74794C21.5 2.99602 19.524 0.717824 16.9115 0.141751C16.4912 0.0490723 16.0545 0.000317574 15.6071 0.000317574C15.1929 0.000317574 14.8571 0.336104 14.8571 0.750318C14.8571 1.16453 15.1929 1.50032 15.6071 1.50032C15.9453 1.50032 16.2737 1.53715 16.5885 1.60656C18.5565 2.04052 20 3.74304 20 5.74794C20 6.96593 19.4703 8.06739 18.6124 8.84595ZM14.6431 10.7451C14.6431 11.1593 14.3073 11.4951 13.8931 11.4951C10.6488 11.4951 8.00021 8.64929 8.00021 5.74749C8.00021 5.33328 8.336 4.99749 8.75021 4.99749C9.16442 4.99749 9.50021 5.33328 9.50021 5.74749C9.50021 7.82914 11.4855 9.99512 13.8931 9.99512C14.3073 9.99512 14.6431 10.3309 14.6431 10.7451ZM17.2803 11.2197C16.9874 10.9268 16.5126 10.9268 16.2197 11.2197C15.9268 11.5126 15.9268 11.9874 16.2197 12.2803L17.8107 13.8713L16.2197 15.4623C15.9268 15.7552 15.9268 16.2301 16.2197 16.523C16.5126 16.8159 16.9874 16.8159 17.2803 16.523L18.8713 14.932L20.4623 16.523C20.7552 16.8159 21.2301 16.8159 21.523 16.523C21.8159 16.2301 21.8159 15.7552 21.523 15.4623L19.932 13.8713L21.523 12.2803C21.8159 11.9874 21.8159 11.5126 21.523 11.2197C21.2301 10.9268 20.7552 10.9268 20.4623 11.2197L18.8713 12.8107L17.2803 11.2197Z" fill="#292927"/>
</g>
</svg>
