<svg preserveAspectRatio="xMidYMid meet" overflow="visible" style="display: block;" viewBox="0 0 24 24" fill="none" xmlns="http://www.w3.org/2000/svg">
<g transform="translate(0.2498, 1.2500)">
<path id="Vector" fill-rule="evenodd" clip-rule="evenodd" d="M9.22585 1.84861C6.8895 2.5098 4.92859 4.06613 3.73728 6.12554C3.52987 6.48409 3.07108 6.60661 2.71253 6.3992C2.35399 6.1918 2.23146 5.733 2.43887 5.37446C4.29647 2.16323 7.77029 0 11.7503 0C15.7302 0 19.204 2.16323 21.0616 5.37446C21.269 5.733 21.1465 6.1918 20.788 6.3992C20.4294 6.60661 19.9706 6.48409 19.7632 6.12554C18.5729 4.06786 16.6143 2.51241 14.2805 1.85027C14.7548 2.73542 15.3261 3.98954 15.771 5.54317C15.885 5.94138 15.6547 6.35663 15.2565 6.47067C14.8583 6.58471 14.443 6.35434 14.329 5.95614C13.9033 4.4699 13.353 3.28321 12.9113 2.4715C12.6906 2.06599 12.4977 1.75518 12.3621 1.54858L12.3424 1.51864C12.1466 1.50628 11.9492 1.5 11.7503 1.5C11.5531 1.5 11.3574 1.50617 11.1633 1.51832L11.1434 1.54858C11.0078 1.75518 10.8149 2.06599 10.5942 2.4715C10.1525 3.28321 9.60215 4.4699 9.17653 5.95614C9.0625 6.35434 8.64724 6.58471 8.24903 6.47067C7.85083 6.35663 7.62046 5.94138 7.7345 5.54317C8.1797 3.98857 8.75139 2.73385 9.22585 1.84861ZM2.71253 15.1009C3.07108 14.8935 3.52987 15.016 3.73728 15.3746C4.92861 17.434 6.88957 18.9904 9.22596 19.6515C8.75148 18.7663 8.1797 17.5115 7.73445 15.9567C7.62041 15.5585 7.85078 15.1432 8.24898 15.0292C8.64719 14.9151 9.06244 15.1455 9.17648 15.5437C9.6021 17.0299 10.1525 18.2166 10.5942 19.0283C10.8148 19.4339 11.0077 19.7447 11.1433 19.9513L11.1634 19.9818C11.3575 19.994 11.5532 20.0001 11.7503 20.0001C11.9473 20.0001 12.1429 19.994 12.3368 19.9818L12.357 19.9513C12.4926 19.7447 12.6855 19.4339 12.9062 19.0283C13.3478 18.2166 13.8982 17.0299 14.3238 15.5437C14.4379 15.1455 14.8531 14.9151 15.2513 15.0292C15.6495 15.1432 15.8799 15.5585 15.7659 15.9567C15.3206 17.5115 14.7488 18.7664 14.2743 19.6516C16.6108 18.9905 18.5719 17.4341 19.7632 15.3746C19.9706 15.016 20.4294 14.8935 20.788 15.1009C21.1465 15.3083 21.269 15.7671 21.0616 16.1257C19.204 19.3369 15.7302 21.5001 11.7503 21.5001C7.77029 21.5001 4.29647 19.3369 2.43887 16.1257C2.23146 15.7671 2.35399 15.3083 2.71253 15.1009ZM9.46857 8.53469C9.34954 8.13794 8.93143 7.9128 8.53469 8.03183C8.13794 8.15085 7.9128 8.56896 8.03183 8.96571L9.53183 13.9657C9.627 14.2829 9.91899 14.5002 10.2502 14.5002C10.5814 14.5002 10.8734 14.2829 10.9686 13.9657L11.7502 11.3603L12.5318 13.9657C12.627 14.2829 12.919 14.5002 13.2502 14.5002C13.5814 14.5002 13.8734 14.2829 13.9686 13.9657L15.4686 8.96571C15.5876 8.56896 15.3625 8.15085 14.9657 8.03183C14.569 7.9128 14.1509 8.13794 14.0318 8.53469L13.2502 11.1401L12.4686 8.53469C12.3734 8.21745 12.0814 8.0002 11.7502 8.0002C11.419 8.0002 11.127 8.21745 11.0318 8.53469L10.2502 11.1401L9.46857 8.53469ZM0.534687 8.03183C0.931431 7.9128 1.34954 8.13794 1.46857 8.53469L2.2502 11.1401L3.03183 8.53469C3.127 8.21745 3.41899 8.0002 3.7502 8.0002C4.0814 8.0002 4.3734 8.21745 4.46857 8.53469L5.2502 11.1401L6.03183 8.53469C6.15085 8.13794 6.56896 7.9128 6.96571 8.03183C7.36245 8.15085 7.58759 8.56896 7.46857 8.96571L5.96857 13.9657C5.8734 14.2829 5.5814 14.5002 5.2502 14.5002C4.91899 14.5002 4.627 14.2829 4.53183 13.9657L3.7502 11.3603L2.96857 13.9657C2.8734 14.2829 2.5814 14.5002 2.2502 14.5002C1.91899 14.5002 1.627 14.2829 1.53183 13.9657L0.0318277 8.96571C-0.0871956 8.56896 0.137942 8.15085 0.534687 8.03183ZM17.4686 8.53469C17.3495 8.13794 16.9314 7.9128 16.5347 8.03183C16.1379 8.15085 15.9128 8.56896 16.0318 8.96571L17.5318 13.9657C17.627 14.2829 17.919 14.5002 18.2502 14.5002C18.5814 14.5002 18.8734 14.2829 18.9686 13.9657L19.7502 11.3603L20.5318 13.9657C20.627 14.2829 20.919 14.5002 21.2502 14.5002C21.5814 14.5002 21.8734 14.2829 21.9686 13.9657L23.4686 8.96571C23.5876 8.56896 23.3625 8.15085 22.9657 8.03183C22.569 7.9128 22.1509 8.13794 22.0318 8.53469L21.2502 11.1401L20.4686 8.53469C20.3734 8.21745 20.0814 8.0002 19.7502 8.0002C19.419 8.0002 19.127 8.21745 19.0318 8.53469L18.2502 11.1401L17.4686 8.53469Z" fill="#FAFAF9"/>
</g>
</svg>
