<svg preserveAspectRatio="xMidYMid meet" overflow="visible" style="display: block;" viewBox="0 0 24 24" fill="none" xmlns="http://www.w3.org/2000/svg">
<g transform="translate(2.2500, 1.2500)">
<path id="Vector" fill-rule="evenodd" clip-rule="evenodd" d="M1.35 0C0.604415 0 0 0.604416 0 1.35V6.56833C0 6.83486 0.0788914 7.09542 0.226732 7.31718L2 9.97708V18.75C2 20.2688 3.23122 21.5 4.75 21.5H6.75C7.16421 21.5 7.5 21.1642 7.5 20.75C7.5 20.3358 7.16421 20 6.75 20H4.75C4.05964 20 3.5 19.4404 3.5 18.75V9.93167C3.5 9.66514 3.42111 9.40458 3.27327 9.18282L1.5 6.52292V1.5H3V3.15C3 3.89558 3.60442 4.5 4.35 4.5H7.15C7.89558 4.5 8.5 3.89558 8.5 3.15V1.5H11V3.15C11 3.89558 11.6044 4.5 12.35 4.5H15.15C15.8956 4.5 16.5 3.89558 16.5 3.15V1.5H18V6.52292L17.126 7.83397C16.8962 8.17862 16.9893 8.64427 17.334 8.87404C17.6786 9.1038 18.1443 9.01067 18.374 8.66603L19.2733 7.31718C19.4211 7.09542 19.5 6.83486 19.5 6.56833V1.35C19.5 0.604415 18.8956 0 18.15 0H16.35C15.6044 0 15 0.604416 15 1.35V3H12.5V1.35C12.5 0.604415 11.8956 0 11.15 0H8.35C7.60442 0 7 0.604416 7 1.35V3H4.5V1.35C4.5 0.604415 3.89558 0 3.15 0H1.35ZM11.5 16.75C11.5 14.9551 12.9551 13.5 14.75 13.5C15.3877 13.5 15.9819 13.6832 16.4837 14.0004L11.9662 18.4284C11.67 17.9385 11.5 17.3645 11.5 16.75ZM13.0163 19.4996L17.5338 15.0716C17.83 15.5615 18 16.1355 18 16.75C18 18.5449 16.5449 20 14.75 20C14.1123 20 13.5181 19.8168 13.0163 19.4996ZM14.75 12C12.1266 12 10 14.1266 10 16.75C10 18.0443 10.5187 19.219 11.3579 20.075C12.2191 20.9535 13.4214 21.5 14.75 21.5C17.3734 21.5 19.5 19.3734 19.5 16.75C19.5 15.4557 18.9813 14.281 18.1421 13.425C17.2809 12.5465 16.0786 12 14.75 12Z" fill="#292927"/>
</g>
</svg>
