<svg preserveAspectRatio="xMidYMid meet" overflow="visible" style="display: block;" viewBox="0 0 24 24" fill="none" xmlns="http://www.w3.org/2000/svg">
<g transform="translate(1.2500, 2.7449)">
<path id="Vector" fill-rule="evenodd" clip-rule="evenodd" d="M3.82259 9.20855L3.51113 9.28641C3.72387 4.87013 6.95817 1.5 10.75 1.5C14.5419 1.5 17.7762 4.87016 17.9889 9.28647L17.6773 9.20851C16.8254 8.9957 16 9.63997 16 10.5183V15.9814C16 16.8596 16.8255 17.5039 17.6774 17.2911L19.417 16.8562C20.6412 16.5501 21.5 15.4501 21.5 14.1883V12.3114C21.5 11.0781 20.6797 9.99947 19.4997 9.66548C19.4591 4.40347 15.637 0 10.75 0C5.86304 0 2.04086 4.40348 2.00033 9.66549C0.820308 9.99948 0 11.0781 0 12.3114V14.1883C0 15.4501 0.858812 16.5501 2.08302 16.8562L3.82271 17.2911C4.67459 17.5039 5.5 16.8597 5.5 15.9814V10.5183C5.5 9.63994 4.67447 8.99574 3.82259 9.20855ZM2.44688 11.0986L2.93189 10.9774L4 10.7104V15.7892L2.44684 15.4009C1.89037 15.2618 1.5 14.7618 1.5 14.1883V12.3114C1.5 11.7378 1.89041 11.2378 2.44688 11.0986ZM19.0532 11.0987L17.5 10.7104V15.7892L19.0532 15.4009C19.6096 15.2618 20 14.7618 20 14.1883V12.3114C20 11.7379 19.6094 11.2379 19.0532 11.0987ZM10.75 9C11.1642 9 11.5 9.33579 11.5 9.75V14.75C11.5 15.1642 11.1642 15.5 10.75 15.5C10.3358 15.5 10 15.1642 10 14.75V9.75C10 9.33579 10.3358 9 10.75 9ZM11.262 17.1918C11.5697 17.469 11.5945 17.9433 11.3172 18.251L11.3072 18.2621C11.03 18.5699 10.5558 18.5946 10.248 18.3174C9.94027 18.0401 9.91553 17.5659 10.1928 17.2581L10.2028 17.247C10.48 16.9393 10.9542 16.9146 11.262 17.1918Z" fill="#292927"/>
</g>
</svg>
