<svg preserveAspectRatio="xMidYMid meet" overflow="visible" style="display: block;" viewBox="0 0 24 24" fill="none" xmlns="http://www.w3.org/2000/svg">
<g transform="translate(2.2500, 2.2500)">
<path id="Vector" fill-rule="evenodd" clip-rule="evenodd" d="M2.75 1.5C2.05964 1.5 1.5 2.05964 1.5 2.75V16.75C1.5 17.4404 2.05964 18 2.75 18H3V11.35C3 10.6044 3.60442 10 4.35 10H15.15C15.8956 10 16.5 10.6044 16.5 11.35V18H16.75C17.4404 18 18 17.4404 18 16.75V5.57843C18 5.24691 17.8683 4.92896 17.6339 4.69454L14.8055 1.86612C14.7148 1.77544 14.6116 1.70014 14.5 1.64188V6.15C14.5 6.89558 13.8956 7.5 13.15 7.5H6.35C5.60442 7.5 5 6.89558 5 6.15V1.5H2.75ZM16.5 19.5H3H2.75C1.23122 19.5 0 18.2688 0 16.75V2.75C0 1.23122 1.23122 0 2.75 0H6.35H13.15H13.9216C14.6509 0 15.3504 0.289731 15.8661 0.805456L18.6945 3.63388C19.2103 4.14961 19.5 4.84908 19.5 5.57843V16.75C19.5 18.2688 18.2688 19.5 16.75 19.5H16.5ZM15 18V11.5H4.5V18H15ZM6.5 1.5H13V6H6.5V1.5Z" fill="#292927"/>
</g>
</svg>
