<svg preserveAspectRatio="xMidYMid meet" overflow="visible" style="display: block;" viewBox="0 0 24 24" fill="none" xmlns="http://www.w3.org/2000/svg">
<g transform="translate(1.2500, 1.2500)">
<path id="Vector" fill-rule="evenodd" clip-rule="evenodd" d="M10.75 1.5C5.64137 1.5 1.5 5.64137 1.5 10.75C1.5 15.8586 5.64137 20 10.75 20C15.8586 20 20 15.8586 20 10.75C20 5.64137 15.8586 1.5 10.75 1.5ZM0 10.75C0 4.81294 4.81294 0 10.75 0C16.6871 0 21.5 4.81294 21.5 10.75C21.5 16.6871 16.6871 21.5 10.75 21.5C4.81294 21.5 0 16.6871 0 10.75ZM6.75 9.5C6.05964 9.5 5.5 10.0596 5.5 10.75C5.5 11.4404 6.05964 12 6.75 12C7.44036 12 8 11.4404 8 10.75C8 10.0596 7.44036 9.5 6.75 9.5ZM4 10.75C4 9.23122 5.23122 8 6.75 8C8.26878 8 9.5 9.23122 9.5 10.75C9.5 12.2688 8.26878 13.5 6.75 13.5C5.23122 13.5 4 12.2688 4 10.75ZM13.5 10.75C13.5 10.0596 14.0596 9.5 14.75 9.5C15.4404 9.5 16 10.0596 16 10.75C16 11.4404 15.4404 12 14.75 12C14.0596 12 13.5 11.4404 13.5 10.75ZM14.75 8C13.2312 8 12 9.23122 12 10.75C12 12.2688 13.2312 13.5 14.75 13.5C16.2688 13.5 17.5 12.2688 17.5 10.75C17.5 9.23122 16.2688 8 14.75 8Z" fill="#292927"/>
</g>
</svg>
