<svg preserveAspectRatio="xMidYMid meet" overflow="visible" style="display: block;" viewBox="0 0 24 24" fill="none" xmlns="http://www.w3.org/2000/svg">
<g transform="translate(2.2500, 2.2500)">
<path id="Vector" fill-rule="evenodd" clip-rule="evenodd" d="M7.28033 14.2803L4.28033 17.2803C3.98744 17.5732 3.51256 17.5732 3.21967 17.2803L0.21967 14.2803C-0.0732233 13.9874 -0.0732233 13.5126 0.21967 13.2197C0.512563 12.9268 0.987437 12.9268 1.28033 13.2197L3 14.9393V0.75C3 0.335787 3.33579 0 3.75 0C4.16421 0 4.5 0.335787 4.5 0.75V14.9393L6.21967 13.2197C6.51256 12.9268 6.98744 12.9268 7.28033 13.2197C7.57322 13.5126 7.57322 13.9874 7.28033 14.2803ZM13.2197 0.21967C13.5126 -0.0732232 13.9874 -0.0732232 14.2803 0.21967L17.2803 3.21967C17.5732 3.51256 17.5732 3.98744 17.2803 4.28033C16.9874 4.57322 16.5126 4.57322 16.2197 4.28033L14.5 2.56066V10.75C14.5 11.1642 14.1642 11.5 13.75 11.5C13.3358 11.5 13 11.1642 13 10.75V2.56066L11.2803 4.28033C10.9874 4.57322 10.5126 4.57322 10.2197 4.28033C9.92678 3.98744 9.92678 3.51256 10.2197 3.21967L13.2197 0.21967ZM10.2197 15.2197C10.5126 14.9268 10.9874 14.9268 11.2803 15.2197L13.75 17.6893L18.2197 13.2197C18.5126 12.9268 18.9874 12.9268 19.2803 13.2197C19.5732 13.5126 19.5732 13.9874 19.2803 14.2803L14.2803 19.2803C13.9874 19.5732 13.5126 19.5732 13.2197 19.2803L10.2197 16.2803C9.92678 15.9874 9.92678 15.5126 10.2197 15.2197Z" fill="#292927"/>
</g>
</svg>
