<svg preserveAspectRatio="xMidYMid meet" overflow="visible" style="display: block;" viewBox="0 0 24 24" fill="none" xmlns="http://www.w3.org/2000/svg">
<g transform="translate(1.1508, 3.2500)">
<path id="Vector" fill-rule="evenodd" clip-rule="evenodd" d="M11.021 1.5C7.01689 1.5 3.77095 4.74594 3.77095 8.75C3.77095 10.3147 4.26661 11.7636 5.10948 12.9483C6.99941 12.4939 9.36302 11.6182 11.8382 10.3841C14.312 9.15069 16.4328 7.79095 17.9329 6.55559C17.0031 3.62422 14.2601 1.5 11.021 1.5ZM2.63864 11.2679C2.84866 11.968 3.14402 12.6313 3.51263 13.2456C2.99575 13.308 2.56027 13.3198 2.21449 13.2859C1.61097 13.2269 1.51187 13.0586 1.51084 13.0566C1.50822 13.0513 1.43024 12.8404 1.81677 12.2532C2.01052 11.9589 2.2854 11.6277 2.63864 11.2679ZM0.563884 11.4284C0.961975 10.8237 1.56229 10.1776 2.30443 9.52074C2.28227 9.26678 2.27095 9.00971 2.27095 8.75C2.27095 3.91751 6.18846 0 11.021 0C13.2747 0 15.3294 0.852068 16.8806 2.25164C17.8515 2.05392 18.7286 1.96293 19.4512 2.00809C20.2424 2.05754 21.14 2.29277 21.5302 3.0753C21.8947 3.80631 21.608 4.60359 21.2277 5.22634C20.8667 5.81747 20.3071 6.44645 19.6125 7.08377C19.7165 7.62318 19.771 8.18023 19.771 8.75C19.771 13.5825 15.8534 17.5 11.021 17.5C8.44109 17.5 6.12199 16.3835 4.52052 14.6073C3.59482 14.778 2.75693 14.8462 2.0684 14.7788C1.34219 14.7077 0.532912 14.4569 0.168442 13.7259C-0.220841 12.9451 0.129206 12.0887 0.563884 11.4284ZM19.1313 5.45992C18.8567 4.78362 18.5 4.14944 18.0735 3.56975C18.5742 3.50372 19.005 3.48313 19.3576 3.50517C20.0627 3.54924 20.1851 3.73919 20.1878 3.7446C20.1888 3.74665 20.2635 3.92704 19.9475 4.44458C19.766 4.74184 19.4936 5.08353 19.1313 5.45992ZM18.271 8.75C18.271 8.57065 18.2644 8.39282 18.2516 8.21674C16.7131 9.39305 14.7338 10.6165 12.5075 11.7265C10.2795 12.8373 8.10942 13.6823 6.24302 14.203C7.51886 15.3218 9.19071 16 11.021 16C15.025 16 18.271 12.7541 18.271 8.75ZM9.08843 7.75075C9.36553 7.44287 9.34057 6.96865 9.03269 6.69156C8.7248 6.41446 8.25059 6.43942 7.97349 6.74731L7.96349 6.75842C7.6864 7.0663 7.71135 7.54052 8.01924 7.81761C8.32712 8.09471 8.80134 8.06975 9.07843 7.76186L9.08843 7.75075Z" fill="#292927"/>
</g>
</svg>
