<svg preserveAspectRatio="xMidYMid meet" overflow="visible" style="display: block;" viewBox="0 0 24 24" fill="none" xmlns="http://www.w3.org/2000/svg">
<g transform="translate(6.2500, 2.2500)">
<path id="Vector" fill-rule="evenodd" clip-rule="evenodd" d="M2.75 0C2.33579 0 2 0.335786 2 0.75C2 1.16421 2.33579 1.5 2.75 1.5H5V4H4.75C2.12665 4 0 6.12665 0 8.75V10.75V18.15C0 18.8956 0.604417 19.5 1.35 19.5H10.15C10.8956 19.5 11.5 18.8956 11.5 18.15V10.75V8.75C11.5 6.12665 9.37335 4 6.75 4H6.5V1.5H6.75C7.16421 1.5 7.5 1.16421 7.5 0.75C7.5 0.335786 7.16421 0 6.75 0H2.75ZM5.75 5.5H4.75C2.95507 5.5 1.5 6.95507 1.5 8.75V10H10V8.75C10 6.95507 8.54493 5.5 6.75 5.5H5.75ZM10 18V11.5H1.5V18H10Z" fill="#292927"/>
</g>
</svg>
