<svg preserveAspectRatio="xMidYMid meet" overflow="visible" style="display: block;" viewBox="0 0 24 24" fill="none" xmlns="http://www.w3.org/2000/svg">
<g transform="translate(2.2500, 3.2500)">
<path id="Vector" fill-rule="evenodd" clip-rule="evenodd" d="M3 0.75C3 0.335786 3.33579 0 3.75 0H9.75C10.1642 0 10.5 0.335786 10.5 0.75V16H15V8.75C15 8.33579 15.3358 8 15.75 8H18.75C19.1642 8 19.5 8.33579 19.5 8.75C19.5 9.16421 19.1642 9.5 18.75 9.5H16.5V16.75C16.5 17.1642 16.1642 17.5 15.75 17.5H9.75C9.33579 17.5 9 17.1642 9 16.75V1.5H4.5V8.75C4.5 9.16421 4.16421 9.5 3.75 9.5H0.75C0.335786 9.5 0 9.16421 0 8.75C0 8.33579 0.335786 8 0.75 8H3V0.75ZM11.5 8.75C11.5 8.33579 11.8358 8 12.25 8H13.25C13.6642 8 14 8.33579 14 8.75C14 9.16421 13.6642 9.5 13.25 9.5H12.25C11.8358 9.5 11.5 9.16421 11.5 8.75ZM6.25 8C5.83579 8 5.5 8.33579 5.5 8.75C5.5 9.16421 5.83579 9.5 6.25 9.5H7.25C7.66421 9.5 8 9.16421 8 8.75C8 8.33579 7.66421 8 7.25 8H6.25Z" fill="#292927"/>
</g>
</svg>
