<svg preserveAspectRatio="xMidYMid meet" overflow="visible" style="display: block;" viewBox="0 0 24 24" fill="none" xmlns="http://www.w3.org/2000/svg">
<g transform="translate(2.2500, 6.2500)">
<path id="Vector" fill-rule="evenodd" clip-rule="evenodd" d="M1.5 1.5V10H12V1.5H1.5ZM0 1.35C0 0.604415 0.604416 0 1.35 0H12.15C12.8956 0 13.5 0.604416 13.5 1.35V4.14872L17.2858 0.993925C18.165 0.26118 19.5 0.886448 19.5 2.03103V9.46898C19.5 10.6136 18.165 11.2388 17.2858 10.5061L13.5 7.35128V10.15C13.5 10.8956 12.8956 11.5 12.15 11.5H1.35C0.604415 11.5 0 10.8956 0 10.15V1.35ZM13.9215 5.75L18 9.14872V2.35128L13.9215 5.75Z" fill="#292927"/>
</g>
</svg>
