<svg preserveAspectRatio="xMidYMid meet" overflow="visible" style="display: block;" viewBox="0 0 24 24" fill="none" xmlns="http://www.w3.org/2000/svg">
<g transform="translate(1.7500, 1.3364)">
<path id="Vector" fill-rule="evenodd" clip-rule="evenodd" d="M2.7681 17.0872L10.0944 21.1574C10.5021 21.3839 10.9979 21.3839 11.4056 21.1574L19.8056 16.4907C20.2342 16.2526 20.5 15.8009 20.5 15.3106L20.5 6.01666C20.5 5.52639 20.2342 5.07465 19.8056 4.83655L11.4056 0.169888C10.9979 -0.0566301 10.5021 -0.0566282 10.0944 0.169887L1.69436 4.83655C1.26579 5.07465 0.999981 5.52639 0.999981 6.01667L0.999997 14.0821C0.408762 14.363 0 14.9656 0 15.6637C0 16.6302 0.783502 17.4137 1.75 17.4137C2.12976 17.4137 2.48127 17.2927 2.7681 17.0872ZM10 19.389L3.49646 15.7759C3.49881 15.7388 3.5 15.7014 3.5 15.6637C3.5 14.9656 3.09124 14.3629 2.5 14.0821L2.49998 6.93849L10 11.1052V19.389ZM11.5 19.389V11.1052L19 6.93851L19 15.2223L11.5 19.389ZM10.75 9.8059L18.2059 5.66375L10.75 1.52159L3.29412 5.66374L10.75 9.8059Z" fill="#292927"/>
</g>
</svg>
