<svg preserveAspectRatio="xMidYMid meet" overflow="visible" style="display: block;" viewBox="0 0 24 24" fill="none" xmlns="http://www.w3.org/2000/svg">
<g transform="translate(1.2500, 4.2500)">
<path id="Vector" fill-rule="evenodd" clip-rule="evenodd" d="M16.75 0C19.3734 0 21.5 2.12665 21.5 4.75V10.75C21.5 13.3734 19.3734 15.5 16.75 15.5H4.75C2.12665 15.5 0 13.3734 0 10.75V4.75C0 2.12665 2.12665 0 4.75 0H16.75ZM20 4.75C20 2.95507 18.5449 1.5 16.75 1.5H4.75C2.95507 1.5 1.5 2.95507 1.5 4.75V10.75C1.5 12.5449 2.95507 14 4.75 14H16.75C18.5449 14 20 12.5449 20 10.75V4.75ZM13.7803 7.03033L11.2803 9.53033C10.9874 9.82322 10.5126 9.82322 10.2197 9.53033L7.71967 7.03033C7.42678 6.73744 7.42678 6.26256 7.71967 5.96967C8.01256 5.67678 8.48744 5.67678 8.78033 5.96967L10.75 7.93934L12.7197 5.96967C13.0126 5.67678 13.4874 5.67678 13.7803 5.96967C14.0732 6.26256 14.0732 6.73744 13.7803 7.03033Z" fill="#292927"/>
</g>
</svg>
