<svg preserveAspectRatio="xMidYMid meet" overflow="visible" style="display: block;" viewBox="0 0 24 24" fill="none" xmlns="http://www.w3.org/2000/svg">
<g transform="translate(1.2500, 1.2500)">
<path id="Vector" fill-rule="evenodd" clip-rule="evenodd" d="M1.5 10.75C1.5 5.64137 5.64137 1.5 10.75 1.5C15.8586 1.5 20 5.64137 20 10.75C20 15.8586 15.8586 20 10.75 20C5.64137 20 1.5 15.8586 1.5 10.75ZM10.75 0C4.81294 0 0 4.81294 0 10.75C0 16.6871 4.81294 21.5 10.75 21.5C16.6871 21.5 21.5 16.6871 21.5 10.75C21.5 4.81294 16.6871 0 10.75 0ZM14.9107 4.06927C14.43 4.17317 13.7843 4.41406 12.9522 4.92366C12.2279 4.75838 11.489 4.67574 10.75 4.67574C10.011 4.67574 9.27205 4.75838 8.54777 4.92366C7.71571 4.41406 7.06999 4.17317 6.5893 4.06927C6.32215 4.01152 6.10697 3.99633 5.94126 4.00077C5.92577 4.00077 5.91188 4.00031 5.8984 3.99986C5.83381 3.9977 5.77859 3.99586 5.6019 4.04689C5.38833 4.10857 5.21312 4.26182 5.12356 4.46528C4.76471 5.2805 4.69177 6.18457 4.90843 7.03809C4.32347 7.78149 4.00018 8.69804 4 9.64876C4 11.5898 4.6118 12.9061 5.63654 13.7451C6.28991 14.28 7.06206 14.5785 7.82504 14.7533C7.69823 15.1119 7.64345 15.4914 7.66394 15.8708C7.01819 15.9944 6.46147 15.9418 5.99118 15.7503C5.39965 15.5094 4.85378 15.0118 4.41715 14.1615C4.22794 13.793 3.77585 13.6477 3.40737 13.8369C3.0389 14.0261 2.89358 14.4782 3.0828 14.8467C3.64617 15.9438 4.43364 16.7357 5.42544 17.1395C6.12665 17.4251 6.88423 17.4981 7.66667 17.3899V17.75C7.66667 18.1643 8.00245 18.5 8.41667 18.5C8.83088 18.5 9.16667 18.1643 9.16667 17.75V16.4678C9.1669 16.4571 9.1669 16.4463 9.16667 16.4355V15.887C9.16667 15.8669 9.16585 15.8467 9.16423 15.8266C9.14804 15.6263 9.17578 15.4245 9.24608 15.2344C9.3164 15.0443 9.42803 14.8694 9.57482 14.722C9.77827 14.5176 9.84656 14.2148 9.75047 13.9429C9.65438 13.671 9.41093 13.4783 9.12426 13.4472C8.11732 13.3379 7.22532 13.1072 6.58679 12.5844C5.98821 12.0944 5.50003 11.2521 5.5 9.64905C5.50017 8.94156 5.7795 8.25729 6.28626 7.739C6.49111 7.52948 6.55519 7.21986 6.45032 6.94625C6.27825 6.49729 6.24212 6.01387 6.34075 5.5513C6.66671 5.63219 7.21324 5.8383 8.00674 6.35621C8.18441 6.47218 8.40289 6.50747 8.60804 6.45333C9.30932 6.26827 10.0297 6.17574 10.75 6.17574C11.4703 6.17574 12.1907 6.26827 12.892 6.45333C13.0971 6.50747 13.3156 6.47218 13.4933 6.35621C14.2868 5.8383 14.8333 5.63219 15.1592 5.5513C15.2579 6.01387 15.2218 6.49729 15.0497 6.94625C14.9448 7.21986 15.0089 7.52948 15.2137 7.739C15.7205 8.25729 15.9998 8.94156 16 9.64905C16 11.2521 15.5118 12.0944 14.9132 12.5844C14.2747 13.1072 13.3827 13.3379 12.3757 13.4472C12.0891 13.4783 11.8456 13.671 11.7495 13.9429C11.6534 14.2148 11.7217 14.5176 11.9252 14.722C12.072 14.8694 12.1836 15.0443 12.2539 15.2344C12.3242 15.4245 12.352 15.6263 12.3358 15.8266C12.3341 15.8467 12.3333 15.8669 12.3333 15.887V17.75C12.3333 18.1643 12.6691 18.5 13.0833 18.5C13.4975 18.5 13.8333 18.1643 13.8333 17.75V15.915C13.8607 15.5209 13.8067 15.1259 13.675 14.7533C14.4379 14.5785 15.2101 14.28 15.8635 13.7451C16.8882 12.9061 17.5 11.5898 17.5 9.64876C17.4998 8.69804 17.1765 7.78149 16.5916 7.03809C16.8082 6.18457 16.7353 5.2805 16.3764 4.46528C16.2869 4.26182 16.1117 4.10857 15.8981 4.04689C15.7214 3.99586 15.6662 3.9977 15.6016 3.99986C15.5881 4.00031 15.5742 4.00077 15.5587 4.00077C15.393 3.99633 15.1778 4.01152 14.9107 4.06927Z" fill="#292927"/>
</g>
</svg>
