<svg preserveAspectRatio="xMidYMid meet" overflow="visible" style="display: block;" viewBox="0 0 24 24" fill="none" xmlns="http://www.w3.org/2000/svg">
<g transform="translate(1.2500, 1.2500)">
<path id="Vector" fill-rule="evenodd" clip-rule="evenodd" d="M10.75 0C4.81294 0 0 4.81294 0 10.75C0 16.687 4.81293 21.5 10.75 21.5C16.687 21.5 21.5 16.687 21.5 10.75C21.5 4.81293 16.687 0 10.75 0ZM1.5 10.75C1.5 5.64136 5.64136 1.5 10.75 1.5C15.8586 1.5 20 5.64137 20 10.75C20 15.8586 15.8586 20 10.75 20C5.64137 20 1.5 15.8586 1.5 10.75ZM8.62897 7.17188H13.5787C13.7707 7.17188 13.9626 7.2451 14.1091 7.39154C14.181 7.46345 14.2352 7.54633 14.2718 7.63479C14.3085 7.72322 14.3287 7.82018 14.3287 7.92188V12.8717C14.3287 13.2859 13.993 13.6217 13.5787 13.6217C13.1645 13.6217 12.8287 13.2859 12.8287 12.8717V9.73254L8.4522 14.1091C8.15931 14.402 7.68444 14.402 7.39154 14.1091C7.09865 13.8162 7.09865 13.3413 7.39154 13.0484L11.7681 8.67188H8.62897C8.21476 8.67188 7.87897 8.33609 7.87897 7.92188C7.87897 7.50766 8.21476 7.17188 8.62897 7.17188Z" fill="#292927"/>
</g>
</svg>
