<svg preserveAspectRatio="xMidYMid meet" overflow="visible" style="display: block;" viewBox="0 0 24 24" fill="none" xmlns="http://www.w3.org/2000/svg">
<g transform="translate(1.2500, 1.2500)">
<path id="Vector" fill-rule="evenodd" clip-rule="evenodd" d="M10.75 1.5C9.46009 1.5 8.16417 2.37533 7.15048 4.0648C6.14575 5.73935 5.5 8.10114 5.5 10.75C5.5 13.3989 6.14575 15.7606 7.15048 17.4352C8.16417 19.1247 9.46009 20 10.75 20C15.8586 20 20 15.8586 20 10.75C20 5.64137 15.8586 1.5 10.75 1.5ZM10.75 21.5C16.6871 21.5 21.5 16.6871 21.5 10.75C21.5 4.81294 16.6871 0 10.75 0C4.81294 0 0 4.81294 0 10.75C0 16.6871 4.81294 21.5 10.75 21.5ZM6.28971 18.8556C6.14075 18.6478 5.9988 18.4312 5.86424 18.2069C4.6974 16.2622 4 13.624 4 10.75C4 7.87602 4.6974 5.2378 5.86424 3.29306C5.9988 3.06879 6.14075 2.85216 6.28971 2.64444C3.4343 4.21906 1.5 7.25864 1.5 10.75C1.5 14.2414 3.4343 17.2809 6.28971 18.8556Z" fill="#292927"/>
</g>
</svg>
