<svg preserveAspectRatio="xMidYMid meet" overflow="visible" style="display: block;" viewBox="0 0 24 24" fill="none" xmlns="http://www.w3.org/2000/svg">
<g transform="translate(1.2358, 3.5000)">
<path id="Vector" fill-rule="evenodd" clip-rule="evenodd" d="M7.62792 0.0153021L7.6313 0.0146216C7.96294 -0.0517075 8.29795 0.11214 8.4492 0.414647L9.24191 2.00006H10.7501H10.7784H12.2865L13.0792 0.414647C13.2305 0.11214 13.5655 -0.0517075 13.8972 0.0146216L13.9005 0.0153021L13.9075 0.0167253L13.932 0.0218011C13.953 0.0261759 13.9829 0.0325367 14.021 0.0408851C14.0971 0.0575757 14.2061 0.0822482 14.3408 0.11492C14.6099 0.18016 14.9844 0.277831 15.4081 0.408223C16.2401 0.664217 17.3239 1.06458 18.1661 1.62602C20.2209 2.99589 21.0041 5.67066 21.3166 7.90362C21.5853 9.82314 21.5311 11.639 21.5077 12.4253C21.5033 12.5707 21.5001 12.6809 21.5001 12.7501C21.5001 12.8882 21.4619 13.0236 21.3898 13.1415C20.6064 14.422 19.0589 15.3754 17.8368 15.9855C17.2056 16.3006 16.6198 16.5439 16.1919 16.7085C15.9776 16.791 15.8017 16.8542 15.6782 16.8971C15.6164 16.9186 15.5677 16.9351 15.5337 16.9464L15.494 16.9594L15.4828 16.963L15.4795 16.9641L15.4784 16.9645L15.2501 16.2501C15.4776 16.9647 15.4782 16.9645 15.4784 16.9645C15.1264 17.0766 14.7444 16.9159 14.5792 16.5855L13.7617 14.9504C12.7365 15.2308 11.748 15.3752 10.75 15.3752C9.76017 15.3752 8.77963 15.2331 7.76332 14.9572L6.9492 16.5855C6.784 16.9159 6.40208 17.0766 6.05009 16.9645C6.05026 16.9645 6.05082 16.9647 6.27838 16.2501L6.05009 16.9645L6.04899 16.9641L6.04564 16.963L6.03446 16.9594L5.99473 16.9464C5.96074 16.9351 5.912 16.9186 5.85023 16.8971C5.72676 16.8542 5.55089 16.791 5.33652 16.7085C4.9087 16.5439 4.32283 16.3006 3.69163 15.9855C2.46955 15.3754 0.922045 14.422 0.138622 13.1415C0.0665322 13.0236 0.0283842 12.8882 0.0283842 12.7501C0.0283842 12.6809 0.0250988 12.5707 0.0207634 12.4253C-0.0026817 11.639 -0.0568247 9.82314 0.211841 7.90362C0.524377 5.67066 1.30756 2.99589 3.36236 1.62602C4.20451 1.06458 5.28834 0.664217 6.12032 0.408223C6.54409 0.277831 6.91851 0.18016 7.18762 0.11492C7.32239 0.0822482 7.43131 0.0575757 7.50746 0.0408851C7.54555 0.0325367 7.57548 0.0261759 7.5964 0.0218011L7.62092 0.0167253L7.62792 0.0153021ZM6.32111 14.4876C5.55435 14.1992 4.7579 13.8426 3.91463 13.421C3.54415 13.2357 3.39398 12.7852 3.57922 12.4148C3.76447 12.0443 4.21497 11.8941 4.58546 12.0793C7.03685 13.305 8.91577 13.8752 10.75 13.8752C12.5843 13.8752 14.4632 13.305 16.9146 12.0793C17.2851 11.8941 17.7356 12.0443 17.9209 12.4148C18.1061 12.7852 17.9559 13.2357 17.5855 13.421C16.7509 13.8382 15.9623 14.1918 15.2028 14.4786L15.6236 15.32L15.6533 15.3086C16.0491 15.1563 16.5891 14.9318 17.1668 14.6434C18.29 14.0827 19.4192 13.3457 20.004 12.5197L20.0089 12.3425C20.0323 11.5144 20.0785 9.87891 19.8311 8.11154C19.5261 5.93284 18.8093 3.85762 17.334 2.87409C16.6762 2.43553 15.76 2.0859 14.967 1.84189C14.6604 1.74756 14.3815 1.67175 14.1563 1.61461L13.4209 3.08547C13.2938 3.33956 13.0341 3.50006 12.7501 3.50006H10.7784H10.7501H8.77838C8.4943 3.50006 8.23461 3.33956 8.10756 3.08547L7.37213 1.61461C7.14699 1.67175 6.86803 1.74756 6.56145 1.84189C5.76843 2.0859 4.85226 2.43553 4.19441 2.87409C2.71912 3.85762 2.0023 5.93284 1.69736 8.11154C1.44999 9.87889 1.4962 11.5144 1.51959 12.3425L1.51959 12.3425L1.52446 12.5197C2.10923 13.3457 3.23841 14.0827 4.36164 14.6434C4.93936 14.9318 5.47937 15.1563 5.87519 15.3086L5.90489 15.32L6.32111 14.4876ZM7.71072 7.78579C7.87579 8.00588 8.00006 8.3443 8.00006 8.75C8.00006 9.1557 7.87579 9.49412 7.71072 9.71421C7.54583 9.93407 7.37528 10 7.25006 10C7.12485 10 6.9543 9.93407 6.7894 9.71421C6.62434 9.49412 6.50006 9.1557 6.50006 8.75C6.50006 8.3443 6.62434 8.00588 6.7894 7.78579C6.9543 7.56593 7.12485 7.5 7.25006 7.5C7.37528 7.5 7.54583 7.56593 7.71072 7.78579ZM8.91072 6.88579C8.53273 6.38179 7.95327 6 7.25006 6C6.54686 6 5.9674 6.38179 5.5894 6.88579C5.21158 7.38955 5.00006 8.05113 5.00006 8.75C5.00006 9.44887 5.21158 10.1104 5.5894 10.6142C5.9674 11.1182 6.54686 11.5 7.25006 11.5C7.95327 11.5 8.53273 11.1182 8.91072 10.6142C9.28855 10.1104 9.50006 9.44887 9.50006 8.75C9.50006 8.05113 9.28855 7.38955 8.91072 6.88579ZM15.0001 8.75C15.0001 8.3443 14.8758 8.00588 14.7107 7.78579C14.5458 7.56593 14.3753 7.5 14.2501 7.5C14.1248 7.5 13.9543 7.56593 13.7894 7.78579C13.6243 8.00588 13.5001 8.3443 13.5001 8.75C13.5001 9.1557 13.6243 9.49412 13.7894 9.71421C13.9543 9.93407 14.1248 10 14.2501 10C14.3753 10 14.5458 9.93407 14.7107 9.71421C14.8758 9.49412 15.0001 9.1557 15.0001 8.75ZM14.2501 6C14.9533 6 15.5327 6.38179 15.9107 6.88579C16.2886 7.38955 16.5001 8.05113 16.5001 8.75C16.5001 9.44887 16.2886 10.1104 15.9107 10.6142C15.5327 11.1182 14.9533 11.5 14.2501 11.5C13.5469 11.5 12.9674 11.1182 12.5894 10.6142C12.2116 10.1104 12.0001 9.44887 12.0001 8.75C12.0001 8.05113 12.2116 7.38955 12.5894 6.88579C12.9674 6.38179 13.5469 6 14.2501 6Z" fill="#292927"/>
</g>
</svg>
