<svg preserveAspectRatio="xMidYMid meet" overflow="visible" style="display: block;" viewBox="0 0 24 24" fill="none" xmlns="http://www.w3.org/2000/svg">
<g transform="translate(1.9529, 1.2232)">
<path id="Vector" fill-rule="evenodd" clip-rule="evenodd" d="M10.972 19.6444C10.4761 20.19 9.6181 20.19 9.12215 19.6444L1.82507 11.6176C1.39164 11.1409 1.39164 10.4127 1.82508 9.93595L9.12215 1.90916C9.6181 1.36361 10.4761 1.36361 10.972 1.90916L18.2691 9.93595C18.7025 10.4127 18.7025 11.1409 18.2691 11.6176L10.972 19.6444ZM8.01224 20.6534C9.10333 21.8536 10.9908 21.8536 12.0819 20.6534L19.379 12.6266C20.3325 11.5777 20.3325 9.97585 19.379 8.92694L12.0819 0.900152C10.9908 -0.300049 9.10333 -0.300051 8.01224 0.90015L0.715165 8.92694C-0.238387 9.97584 -0.238389 11.5777 0.715163 12.6266L8.01224 20.6534ZM7.04707 10.0267C6.63285 10.0267 6.29707 10.3625 6.29707 10.7767C6.29707 11.1909 6.63285 11.5267 7.04707 11.5267H13.0471C13.4613 11.5267 13.7971 11.1909 13.7971 10.7767C13.7971 10.3625 13.4613 10.0267 13.0471 10.0267H7.04707Z" fill="#292927"/>
</g>
</svg>
