<svg preserveAspectRatio="xMidYMid meet" overflow="visible" style="display: block;" viewBox="0 0 24 24" fill="none" xmlns="http://www.w3.org/2000/svg">
<g transform="translate(1.2500, 4.1499)">
<path id="Vector" fill-rule="evenodd" clip-rule="evenodd" d="M10.75 0C9.55874 0 8.17076 0.0275847 6.81649 0.0658885L6.76146 0.0674444C5.38265 0.106421 4.27112 0.137843 3.39461 0.282793C2.48199 0.433717 1.72386 0.721714 1.11772 1.34524C0.509964 1.97043 0.244507 2.74365 0.119902 3.66868C-3.49437e-05 4.55905 -1.91395e-05 5.68658 5.00757e-07 7.08776V7.08777V8.61233V8.61234C-1.91395e-05 10.0135 -3.49417e-05 11.141 0.1199 12.0314C0.244504 12.9564 0.509959 13.7296 1.11771 14.3548C1.72384 14.9783 2.48195 15.2663 3.39457 15.4173C4.27106 15.5622 5.38258 15.5936 6.76137 15.6326H6.7614L6.81639 15.6342C8.17068 15.6725 9.55871 15.7001 10.75 15.7001C11.9413 15.7001 13.3293 15.6725 14.6836 15.6342L14.7386 15.6326H14.7386C16.1174 15.5936 17.2289 15.5622 18.1054 15.4173C19.0181 15.2663 19.7762 14.9783 20.3823 14.3548C20.99 13.7296 21.2555 12.9564 21.3801 12.0314C21.5 11.141 21.5 10.0135 21.5 8.61235V7.08775C21.5 5.68657 21.5 4.55905 21.3801 3.66868C21.2555 2.74365 20.99 1.97043 20.3823 1.34524C19.7761 0.721714 19.018 0.433717 18.1054 0.282793C17.2289 0.137843 16.1174 0.106421 14.7385 0.0674444L14.6835 0.0658884C13.3292 0.0275846 11.9413 0 10.75 0ZM6.8589 1.56529C8.20671 1.52717 9.5789 1.5 10.75 1.5C11.9211 1.5 13.2933 1.52717 14.6411 1.56529C16.0879 1.60621 17.0968 1.63638 17.8607 1.76269C18.6 1.88496 19.0074 2.08285 19.3067 2.3908C19.6045 2.69707 19.7918 3.11342 19.8935 3.86892C19.9984 4.64752 20 5.67373 20 7.14248V8.55762C20 10.0263 19.9984 11.0525 19.8935 11.8311C19.7918 12.5866 19.6045 13.003 19.3067 13.3092C19.0074 13.6172 18.6 13.8151 17.8607 13.9374C17.0969 14.0637 16.088 14.0939 14.6412 14.1348C13.2934 14.1729 11.9211 14.2001 10.75 14.2001C9.57888 14.2001 8.20665 14.1729 6.85881 14.1348C5.412 14.0939 4.40311 14.0637 3.63932 13.9374C2.90002 13.8151 2.49262 13.6172 2.19326 13.3092C1.89553 13.003 1.70824 12.5866 1.60647 11.8311C1.5016 11.0525 1.5 10.0263 1.5 8.55762V7.14248C1.5 5.67373 1.5016 4.64752 1.60648 3.86892C1.70824 3.11342 1.89553 2.69707 2.19327 2.3908C2.49263 2.08285 2.90003 1.88496 3.63935 1.76269C4.40316 1.63638 5.41206 1.60621 6.8589 1.56529ZM8.87356 10.4983C9.10479 10.6325 9.38998 10.6334 9.62211 10.5008L13.1221 8.50079C13.3558 8.36726 13.5 8.11875 13.5 7.84961C13.5 7.58047 13.3558 7.33196 13.1221 7.19843L9.62211 5.19843C9.38998 5.06578 9.10479 5.06674 8.87356 5.20093C8.64232 5.33512 8.5 5.58226 8.5 5.84961V9.84961C8.5 10.117 8.64232 10.3641 8.87356 10.4983Z" fill="#292927"/>
</g>
</svg>
