<svg preserveAspectRatio="xMidYMid meet" overflow="visible" style="display: block;" viewBox="0 0 24 24" fill="none" xmlns="http://www.w3.org/2000/svg">
<g transform="translate(1.7500, 2.2500)">
<path id="Vector" fill-rule="evenodd" clip-rule="evenodd" d="M3.75 1.5C3.05964 1.5 2.5 2.05964 2.5 2.75V3.75V5.75V13.75V15.75V16.75C2.5 17.4404 3.05964 18 3.75 18H17.75C18.4404 18 19 17.4404 19 16.75V2.75C19 2.05964 18.4404 1.5 17.75 1.5H3.75ZM1 16.5V16.75C1 18.2688 2.23122 19.5 3.75 19.5H17.75C19.2688 19.5 20.5 18.2688 20.5 16.75V2.75C20.5 1.23122 19.2688 0 17.75 0H3.75C2.23122 0 1 1.23122 1 2.75V3H0.75C0.335786 3 0 3.33579 0 3.75C0 4.16421 0.335786 4.5 0.75 4.5H1V5H0.75C0.335786 5 0 5.33579 0 5.75C0 6.16421 0.335786 6.5 0.75 6.5H1V13H0.75C0.335786 13 0 13.3358 0 13.75C0 14.1642 0.335786 14.5 0.75 14.5H1V15H0.75C0.335786 15 0 15.3358 0 15.75C0 16.1642 0.335786 16.5 0.75 16.5H1ZM8.75 7.5C9.99264 7.5 11 8.50736 11 9.75C11 10.9926 9.99264 12 8.75 12C7.50736 12 6.5 10.9926 6.5 9.75C6.5 8.50736 7.50736 7.5 8.75 7.5ZM12.5 9.75C12.5 8.98572 12.2714 8.27484 11.8787 7.68203L12.7803 6.78044C13.0732 6.48755 13.0732 6.01268 12.7803 5.71978C12.4874 5.42689 12.0126 5.42689 11.7197 5.71978L10.8181 6.62134C10.2253 6.22867 9.51434 6 8.75 6C7.98566 6 7.27473 6.22868 6.68189 6.62134L5.78033 5.71978C5.48744 5.42689 5.01256 5.42689 4.71967 5.71978C4.42678 6.01268 4.42678 6.48755 4.71967 6.78044L5.62125 7.68203C5.22864 8.27484 5 8.98572 5 9.75C5 10.5143 5.22867 11.2253 5.62134 11.8181L4.71967 12.7198C4.42678 13.0127 4.42678 13.4875 4.71967 13.7804C5.01256 14.0733 5.48744 14.0733 5.78033 13.7804L6.68203 12.8787C7.27484 13.2714 7.98572 13.5 8.75 13.5C9.51428 13.5 10.2252 13.2714 10.818 12.8787L11.7197 13.7804C12.0126 14.0733 12.4874 14.0733 12.7803 13.7804C13.0732 13.4875 13.0732 13.0127 12.7803 12.7198L11.8787 11.8181C12.2713 11.2253 12.5 10.5143 12.5 9.75ZM17.5 7.75C17.5 7.33579 17.1642 7 16.75 7C16.3358 7 16 7.33579 16 7.75V11.75C16 12.1642 16.3358 12.5 16.75 12.5C17.1642 12.5 17.5 12.1642 17.5 11.75V7.75Z" fill="#292927"/>
</g>
</svg>
