<svg preserveAspectRatio="xMidYMid meet" overflow="visible" style="display: block;" viewBox="0 0 24 24" fill="none" xmlns="http://www.w3.org/2000/svg">
<g transform="translate(1.2500, 1.2500)">
<path id="Vector" fill-rule="evenodd" clip-rule="evenodd" d="M1.5 10.75C1.5 5.64137 5.64137 1.5 10.75 1.5C15.8586 1.5 20 5.64137 20 10.75C20 15.8586 15.8586 20 10.75 20C5.64137 20 1.5 15.8586 1.5 10.75ZM10.75 0C4.81294 0 0 4.81294 0 10.75C0 16.6871 4.81294 21.5 10.75 21.5C16.6871 21.5 21.5 16.6871 21.5 10.75C21.5 4.81294 16.6871 0 10.75 0ZM5 9.375L5 9.37228C5.00072 9.17042 5.08118 8.98736 5.21153 8.85294L8.71045 5.22905C8.99816 4.93107 9.47296 4.92274 9.77095 5.21045C10.0689 5.49816 10.0773 5.97296 9.78955 6.27095L7.51667 8.625H12.95H12.9508H12.9509L12.9516 8.625H12.9517H12.9518L12.9531 8.62501L12.9537 8.62501L12.9542 8.62501L12.9556 8.62502L12.9584 8.62504L12.971 8.6252C12.9807 8.62537 12.9932 8.62567 13.0082 8.62621C13.0382 8.62728 13.0785 8.62929 13.1275 8.63305C13.2255 8.64054 13.36 8.65511 13.5193 8.68355C13.8347 8.73986 14.2653 8.85381 14.7042 9.08889C15.1469 9.32608 15.6048 9.69074 15.9493 10.2444C16.2952 10.8003 16.5 11.5039 16.5 12.375C16.5 14.315 15.6711 15.4076 14.7371 15.9705C14.2943 16.2373 13.8575 16.3678 13.5352 16.4326C13.3727 16.4652 13.2352 16.482 13.1346 16.4906C13.0842 16.495 13.0427 16.4973 13.0116 16.4986C12.996 16.4992 12.9829 16.4996 12.9726 16.4998L12.9592 16.5L12.9541 16.5L12.9519 16.5L12.9509 16.5C12.9505 16.5 12.95 16.5 12.95 15.75V16.5H12.15C11.7358 16.5 11.4 16.1642 11.4 15.75C11.4 15.3358 11.7358 15 12.15 15H12.9446L12.9513 14.9998C12.9612 14.9994 12.9798 14.9984 13.006 14.9962C13.0585 14.9916 13.1398 14.9821 13.2398 14.962C13.4425 14.9212 13.7057 14.8408 13.9629 14.6858C14.4289 14.4049 15 13.81 15 12.375C15 11.7461 14.8548 11.3247 14.6757 11.0369C14.4952 10.7468 14.2531 10.5489 13.9958 10.4111C13.7347 10.2712 13.4653 10.1976 13.2557 10.1602C13.1525 10.1418 13.0683 10.1329 13.0131 10.1287C12.9856 10.1266 12.9657 10.1256 12.9547 10.1253L12.9458 10.125H7.60826L9.7706 12.2101C10.0688 12.4976 10.0774 12.9724 9.78988 13.2706C9.50236 13.5688 9.02757 13.5774 8.7294 13.2899L5.2294 9.91488C5.21432 9.90034 5.19991 9.88523 5.1862 9.8696C5.07028 9.73757 5 9.5645 5 9.375Z" fill="#292927"/>
</g>
</svg>
