<svg preserveAspectRatio="xMidYMid meet" overflow="visible" style="display: block;" viewBox="0 0 24 24" fill="none" xmlns="http://www.w3.org/2000/svg">
<g transform="translate(1.2500, 1.2500)">
<path id="Vector" fill-rule="evenodd" clip-rule="evenodd" d="M1.5 10.75C1.5 5.64137 5.64137 1.5 10.75 1.5C15.8586 1.5 20 5.64137 20 10.75C20 15.8586 15.8586 20 10.75 20C5.64137 20 1.5 15.8586 1.5 10.75ZM10.75 0C4.81294 0 0 4.81294 0 10.75C0 16.6871 4.81294 21.5 10.75 21.5C16.6871 21.5 21.5 16.6871 21.5 10.75C21.5 4.81294 16.6871 0 10.75 0ZM14.9824 16.3422C16.5326 17.0311 18.0799 15.3737 17.2862 13.8744L12.3278 4.50865C11.657 3.24151 9.84176 3.24151 9.17092 4.50865L4.21256 13.8744C3.41884 15.3737 4.9662 17.0311 6.51638 16.3422L10.7494 14.4608L14.9824 16.3422ZM15.9605 14.5763C16.0876 14.8164 15.8398 15.0818 15.5916 14.9714L10.7494 12.8194L5.90717 14.9714C5.65893 15.0818 5.41114 14.8164 5.53824 14.5763L10.4966 5.21048C10.604 5.00757 10.8947 5.00756 11.0021 5.21048L15.9605 14.5763Z" fill="#292927"/>
</g>
</svg>
