<svg preserveAspectRatio="xMidYMid meet" overflow="visible" style="display: block;" viewBox="0 0 24 24" fill="none" xmlns="http://www.w3.org/2000/svg">
<g transform="translate(4.2500, 2.2500)">
<path id="Vector" fill-rule="evenodd" clip-rule="evenodd" d="M0.75 0C0.335786 0 0 0.335786 0 0.75V6.75V12.75V18.75C0 19.1642 0.335786 19.5 0.75 19.5H7.75H14.75C15.1642 19.5 15.5 19.1642 15.5 18.75V12.75V6.75V4.25C15.5 3.83579 15.1642 3.5 14.75 3.5C13.2352 3.5 12.3299 3.36022 11.791 3.00096C11.3433 2.70246 11 2.13777 11 0.75C11 0.335787 10.6642 0 10.25 0H7.75H0.75ZM7 1.5H1.5V6H7V1.5ZM8.5 6V1.5H9.53307C9.64879 2.73373 10.0773 3.66123 10.959 4.24904C11.7554 4.77997 12.8151 4.94664 14 4.98817V6H8.5ZM7 7.5H1.5V12H7V7.5ZM8.5 12V7.5H14V12H8.5ZM7 13.5H1.5V18H7V13.5ZM8.5 18V13.5H14V18H8.5Z" fill="#292927"/>
</g>
</svg>
