<svg preserveAspectRatio="xMidYMid meet" overflow="visible" style="display: block;" viewBox="0 0 24 24" fill="none" xmlns="http://www.w3.org/2000/svg">
<g transform="translate(1.2500, 1.2500)">
<path id="Vector" fill-rule="evenodd" clip-rule="evenodd" d="M1.5 10.75C1.5 5.64137 5.64137 1.5 10.75 1.5C15.8586 1.5 20 5.64137 20 10.75C20 15.8586 15.8586 20 10.75 20C5.64137 20 1.5 15.8586 1.5 10.75ZM10.75 0C4.81294 0 0 4.81294 0 10.75C0 16.6871 4.81294 21.5 10.75 21.5C16.6871 21.5 21.5 16.6871 21.5 10.75C21.5 4.81294 16.6871 0 10.75 0ZM8.45152 7.39124C8.15863 7.09835 7.68375 7.09835 7.39086 7.39124C7.09797 7.68414 7.09797 8.15901 7.39086 8.4519L9.68896 10.75L7.39086 13.0481C7.09797 13.341 7.09797 13.8159 7.39086 14.1088C7.68375 14.4017 8.15863 14.4017 8.45152 14.1088L10.7496 11.8107L13.0477 14.1088C13.3406 14.4017 13.8155 14.4017 14.1084 14.1088C14.4013 13.8159 14.4013 13.341 14.1084 13.0481L11.8103 10.75L14.1084 8.4519C14.4013 8.15901 14.4013 7.68414 14.1084 7.39124C13.8155 7.09835 13.3406 7.09835 13.0477 7.39124L10.7496 9.68934L8.45152 7.39124Z" fill="#292927"/>
</g>
</svg>
