<svg preserveAspectRatio="xMidYMid meet" overflow="visible" style="display: block;" viewBox="0 0 24 24" fill="none" xmlns="http://www.w3.org/2000/svg">
<g transform="translate(2.2500, 2.2500)">
<path id="Vector" fill-rule="evenodd" clip-rule="evenodd" d="M18 1.5V18H1.5V1.5H18ZM18.15 19.5C18.8956 19.5 19.5 18.8956 19.5 18.15V1.35C19.5 0.604418 18.8956 0 18.15 0H1.35C0.604418 0 0 0.604414 0 1.35V18.15C0 18.8956 0.604414 19.5 1.35 19.5H18.15ZM12.5 5.75007C12.5 5.33586 12.1642 5.00007 11.75 5.00007C11.3358 5.00007 11 5.33586 11 5.75007V10.573L8.42082 5.41466C8.26526 5.10355 7.91621 4.94022 7.57769 5.02014C7.23916 5.10005 7 5.40224 7 5.75007V13.7501C7 14.1643 7.33579 14.5001 7.75 14.5001C8.16421 14.5001 8.5 14.1643 8.5 13.7501V8.92712L11.0792 14.0855C11.2347 14.3966 11.5838 14.5599 11.9223 14.48C12.2608 14.4001 12.5 14.0979 12.5 13.7501V5.75007Z" fill="#292927"/>
</g>
</svg>
