<svg preserveAspectRatio="xMidYMid meet" overflow="visible" style="display: block;" viewBox="0 0 24 24" fill="none" xmlns="http://www.w3.org/2000/svg">
<g transform="translate(1.2500, 1.2500)">
<path id="Vector" fill-rule="evenodd" clip-rule="evenodd" d="M0 11.25C0 8.21419 2.16444 5.68391 5.03432 5.11816C5.34892 2.2398 7.7879 0 10.75 0C13.7122 0 16.1512 2.23991 16.4657 5.11837C19.3359 5.68441 21.5 8.21415 21.5 11.2501C21.5 14.7019 18.7018 17.5001 15.25 17.5001H11.5L11.5 20.75C11.5 21.1642 11.1642 21.5 10.75 21.5C10.3358 21.5 10 21.1642 10 20.75V17.5H6.25C2.79822 17.5 0 14.7018 0 11.25ZM11.5 16.0001H15.25C17.8734 16.0001 20 13.8734 20 11.2501C20 8.77271 18.1029 6.73758 15.6827 6.51948C15.2886 6.48397 14.9933 6.14967 15.0001 5.76019C15 5.7568 15 5.7534 15 5.75C15 3.40279 13.0972 1.5 10.75 1.5C8.6587 1.5 6.9202 3.01049 6.56597 5H7.75C8.16421 5 8.5 5.33579 8.5 5.75C8.5 6.16421 8.16421 6.5 7.75 6.5H6.25C3.62665 6.5 1.5 8.62665 1.5 11.25C1.5 13.8734 3.62665 16 6.25 16H10V8.75C10 8.33579 10.3358 8 10.75 8C11.1642 8 11.5 8.33579 11.5 8.75L11.5 11.5365L14.4146 10.0792C14.7851 9.89394 15.2356 10.0441 15.4208 10.4146C15.6061 10.7851 15.4559 11.2356 15.0854 11.4208L11.5 13.2135V16.0001Z" fill="#292927"/>
</g>
</svg>
