<svg preserveAspectRatio="xMidYMid meet" overflow="visible" style="display: block;" viewBox="0 0 24 24" fill="none" xmlns="http://www.w3.org/2000/svg">
<g transform="translate(2.2499, 3.2500)">
<path id="Vector" fill-rule="evenodd" clip-rule="evenodd" d="M0.110146 6.64109C-0.105845 6.28764 0.00557924 5.82603 0.35902 5.61004L9.35902 0.110039C9.59911 -0.0366796 9.90111 -0.0366796 10.1412 0.110039L19.1412 5.61004C19.4946 5.82603 19.6061 6.28764 19.3901 6.64109C19.1741 6.99453 18.7125 7.10595 18.359 6.88996L9.75011 1.62896L1.14119 6.88996C0.787754 7.10595 0.326138 6.99453 0.110146 6.64109ZM2.75012 9.00011C3.16434 9.00011 3.50012 9.33589 3.50012 9.75011V16.0001H16.0001V9.75011C16.0001 9.33589 16.3359 9.00011 16.7501 9.00011C17.1643 9.00011 17.5001 9.33589 17.5001 9.75011V16.1501C17.5001 16.8957 16.8957 17.5001 16.1501 17.5001H3.35012C2.60454 17.5001 2.00012 16.8957 2.00012 16.1501V9.75011C2.00012 9.33589 2.33591 9.00011 2.75012 9.00011ZM8.08346 5.00011C7.66924 5.00011 7.33346 5.33589 7.33346 5.75011V7.33344H5.75012C5.33591 7.33344 5.00012 7.66923 5.00012 8.08344V11.4168C5.00012 11.831 5.33591 12.1668 5.75012 12.1668H7.33346V13.7501C7.33346 14.1643 7.66924 14.5001 8.08346 14.5001H11.4168C11.831 14.5001 12.1668 14.1643 12.1668 13.7501V12.1668H13.7501C14.1643 12.1668 14.5001 11.831 14.5001 11.4168V8.08344C14.5001 7.66923 14.1643 7.33344 13.7501 7.33344H12.1668V5.75011C12.1668 5.33589 11.831 5.00011 11.4168 5.00011H8.08346ZM8.83346 8.08344V6.50011H10.6668V8.08344C10.6668 8.49765 11.0026 8.83344 11.4168 8.83344H13.0001V10.6668H11.4168C11.0026 10.6668 10.6668 11.0026 10.6668 11.4168V13.0001H8.83346V11.4168C8.83346 11.0026 8.49767 10.6668 8.08346 10.6668H6.50012V8.83344H8.08346C8.49767 8.83344 8.83346 8.49765 8.83346 8.08344Z" fill="#292927"/>
</g>
</svg>
