<svg preserveAspectRatio="xMidYMid meet" overflow="visible" style="display: block;" viewBox="0 0 24 24" fill="none" xmlns="http://www.w3.org/2000/svg">
<g transform="translate(1.2500, 5.2500)">
<path id="Vector" fill-rule="evenodd" clip-rule="evenodd" d="M20 10.75C20 11.4404 19.4404 12 18.75 12H2.75C2.05964 12 1.5 11.4404 1.5 10.75V2.75C1.5 2.05964 2.05964 1.5 2.75 1.5H18.75C19.4404 1.5 20 2.05964 20 2.75V10.75ZM18.75 13.5C20.2688 13.5 21.5 12.2688 21.5 10.75V2.75C21.5 1.23122 20.2688 0 18.75 0H2.75C1.23122 0 0 1.23122 0 2.75V10.75C0 12.2688 1.23122 13.5 2.75 13.5H18.75ZM3.75 2.5C3.33579 2.5 3 2.83579 3 3.25C3 3.66421 3.33579 4 3.75 4H4.5V9.5H3.75C3.33579 9.5 3 9.83579 3 10.25C3 10.6642 3.33579 11 3.75 11H6.75C7.16421 11 7.5 10.6642 7.5 10.25C7.5 9.83579 7.16421 9.5 6.75 9.5H6V4H6.75C7.16421 4 7.5 3.66421 7.5 3.25C7.5 2.83579 7.16421 2.5 6.75 2.5H3.75Z" fill="#292927"/>
</g>
</svg>
