<svg preserveAspectRatio="xMidYMid meet" overflow="visible" style="display: block;" viewBox="0 0 24 24" fill="none" xmlns="http://www.w3.org/2000/svg">
<g transform="translate(4.2500, 3.2500)">
<path id="Vector" fill-rule="evenodd" clip-rule="evenodd" d="M1.5 16.75C1.5 17.1642 1.16421 17.5 0.75 17.5C0.335786 17.5 0 17.1642 0 16.75V0.75C0 0.335787 0.335786 0 0.75 0C1.16421 0 1.5 0.335787 1.5 0.75V3H6.15C6.89559 3 7.5 3.60442 7.5 4.35V13.15C7.5 13.8956 6.89559 14.5 6.15 14.5H1.5V16.75ZM6 4.5H1.5V13H6V4.5ZM11.5 16.75C11.5 17.1642 11.1642 17.5 10.75 17.5C10.3358 17.5 10 17.1642 10 16.75V0.75C10 0.335787 10.3358 0 10.75 0C11.1642 0 11.5 0.335787 11.5 0.75V3H14.15C14.8956 3 15.5 3.60442 15.5 4.35V13.15C15.5 13.8956 14.8956 14.5 14.15 14.5H11.5V16.75ZM14 4.5H11.5V13H14V4.5Z" fill="#292927"/>
</g>
</svg>
