<svg preserveAspectRatio="xMidYMid meet" overflow="visible" style="display: block;" viewBox="0 0 24 24" fill="none" xmlns="http://www.w3.org/2000/svg">
<g transform="translate(2.2500, 1.7500)">
<path id="Vector" fill-rule="evenodd" clip-rule="evenodd" d="M0.21967 0.21967C0.512563 -0.0732233 0.987437 -0.0732233 1.28033 0.21967L2.28033 1.21967C2.57322 1.51256 2.57322 1.98744 2.28033 2.28033C1.98744 2.57322 1.51256 2.57322 1.21967 2.28033L0.21967 1.28033C-0.0732233 0.987437 -0.0732233 0.512563 0.21967 0.21967ZM19.2803 0.21967C18.9874 -0.0732233 18.5126 -0.0732233 18.2197 0.21967L17.2197 1.21967C16.9268 1.51256 16.9268 1.98744 17.2197 2.28033C17.5126 2.57322 17.9874 2.57322 18.2803 2.28033L19.2803 1.28033C19.5732 0.987437 19.5732 0.512563 19.2803 0.21967ZM18.2197 15.2803C18.5126 15.5732 18.9874 15.5732 19.2803 15.2803C19.5732 14.9874 19.5732 14.5126 19.2803 14.2197L18.2803 13.2197C17.9874 12.9268 17.5126 12.9268 17.2197 13.2197C16.9268 13.5126 16.9268 13.9874 17.2197 14.2803L18.2197 15.2803ZM0.21967 15.2803C0.512563 15.5732 0.987437 15.5732 1.28033 15.2803L2.28033 14.2803C2.57322 13.9874 2.57322 13.5126 2.28033 13.2197C1.98744 12.9268 1.51256 12.9268 1.21967 13.2197L0.21967 14.2197C-0.0732233 14.5126 -0.0732233 14.9874 0.21967 15.2803ZM6.75 16C6.33579 16 6 16.3358 6 16.75C6 17.1642 6.33579 17.5 6.75 17.5H12.75C13.1642 17.5 13.5 17.1642 13.5 16.75C13.5 16.3358 13.1642 16 12.75 16H6.75ZM7 19.75C7 19.3358 7.33579 19 7.75 19H11.75C12.1642 19 12.5 19.3358 12.5 19.75C12.5 20.1642 12.1642 20.5 11.75 20.5H7.75C7.33579 20.5 7 20.1642 7 19.75ZM4.49975 6.7382C4.4786 5.3935 4.91344 4.37227 5.72201 3.67398C6.54764 2.96094 7.86135 2.5 9.74985 2.5C11.6383 2.5 12.9521 2.96094 13.7777 3.67398C14.5862 4.37227 15.0211 5.3935 14.9999 6.7382C14.9798 8.01723 14.5911 8.84794 13.7195 9.71971L13.677 9.7622L13.677 9.76221C13.2108 10.2282 12.7591 10.6797 12.4541 11.2896C12.2129 11.7721 12.0788 12.3158 12.0262 13H7.4736C7.42111 12.3158 7.28704 11.7721 7.04578 11.2896C6.74075 10.6795 6.28891 10.228 5.8225 9.76197L5.78014 9.71963C4.90835 8.84797 4.51988 8.01733 4.49975 6.7382ZM9.74985 1C7.63819 1 5.92791 1.5142 4.74159 2.53874C3.53819 3.57802 2.97311 5.05678 2.99994 6.7618C3.0266 8.45644 3.59104 9.65203 4.71956 10.7804C5.23841 11.2991 5.5184 11.5889 5.70414 11.9604C5.88081 12.3138 5.99992 12.8071 5.99985 13.7499C5.99983 13.9489 6.07884 14.1396 6.2195 14.2803C6.36015 14.421 6.55093 14.5 6.74985 14.5H12.7498C13.164 14.5 13.4998 14.1642 13.4998 13.7501C13.4999 12.8072 13.6191 12.3138 13.7958 11.9604C13.9816 11.5889 14.2615 11.2991 14.7802 10.7803C15.9083 9.65206 16.4731 8.45654 16.4998 6.7618C16.5266 5.05678 15.9615 3.57802 14.7581 2.53874C13.5718 1.5142 11.8615 1 9.74985 1Z" fill="#292927"/>
</g>
</svg>
