<svg preserveAspectRatio="xMidYMid meet" overflow="visible" style="display: block;" viewBox="0 0 24 24" fill="none" xmlns="http://www.w3.org/2000/svg">
<g transform="translate(1.7500, 1.0000)">
<path id="Vector" fill-rule="evenodd" clip-rule="evenodd" d="M12.75 12L14.75 12C15.1642 12 15.5 12.3358 15.5 12.75C15.5 13.1642 15.1642 13.5 14.75 13.5H13.5V14.75C13.5 15.1642 13.1642 15.5 12.75 15.5C12.3358 15.5 12 15.1642 12 14.75V13.5H3.75C2.7835 13.5 2 12.7165 2 11.75V3.5H0.75C0.335786 3.5 0 3.16421 0 2.75C0 2.33579 0.335786 2 0.75 2H2V0.75C2 0.335786 2.33579 0 2.75 0C3.16421 0 3.5 0.335787 3.5 0.75V2.74974C3.5 2.74983 3.5 2.74991 3.5 2.75C3.5 2.75008 3.5 2.75017 3.5 2.75026L3.5 11.75C3.5 11.8881 3.61193 12 3.75 12L12.75 12ZM5.75 3.5H11.75C11.8881 3.5 12 3.61193 12 3.75V9.75C12 10.1642 12.3358 10.5 12.75 10.5C13.1642 10.5 13.5 10.1642 13.5 9.75V3.75C13.5 2.7835 12.7165 2 11.75 2H5.75C5.33579 2 5 2.33579 5 2.75C5 3.16421 5.33579 3.5 5.75 3.5ZM12.0002 18.7654L12 18.75C12 18.5471 12.0806 18.363 12.2115 18.2279L12.2205 18.2188L14.7197 15.7197C15.0126 15.4268 15.4874 15.4268 15.7803 15.7197C16.0732 16.0126 16.0732 16.4874 15.7803 16.7803L14.5607 18H15.75C17.5449 18 19 16.5449 19 14.75V10.75C19 10.3358 19.3358 10 19.75 10C20.1642 10 20.5 10.3358 20.5 10.75V14.75C20.5 17.3734 18.3734 19.5 15.75 19.5H14.5607L15.7803 20.7197C16.0732 21.0126 16.0732 21.4874 15.7803 21.7803C15.4874 22.0732 15.0126 22.0732 14.7197 21.7803L12.2197 19.2803C12.1478 19.2084 12.0935 19.1255 12.0569 19.0371C12.0249 18.9599 12.0054 18.8762 12.001 18.7886C12.0006 18.7809 12.0003 18.7732 12.0002 18.7654Z" fill="#292927"/>
</g>
</svg>
