<svg preserveAspectRatio="xMidYMid meet" overflow="visible" style="display: block;" viewBox="0 0 24 24" fill="none" xmlns="http://www.w3.org/2000/svg">
<g transform="translate(2.7499, 2.7499)">
<path id="Vector" fill-rule="evenodd" clip-rule="evenodd" d="M4 2.75C4 2.05964 3.44036 1.5 2.75 1.5C2.05964 1.5 1.5 2.05964 1.5 2.75C1.5 3.44036 2.05964 4 2.75 4C3.44036 4 4 3.44036 4 2.75ZM2.75 0C4.26878 0 5.5 1.23122 5.5 2.75C5.5 4.26878 4.26878 5.5 2.75 5.5C1.23122 5.5 0 4.26878 0 2.75C0 1.23122 1.23122 0 2.75 0ZM5.60689 8.13599C5.39378 7.7808 5.50895 7.3201 5.86414 7.10699C6.21932 6.89388 6.68002 7.00906 6.89313 7.36424C8.14297 9.44731 9.37193 12.8139 10.0737 15.6495C11.0587 14.1164 12.0975 13.117 13.2401 12.573C14.8006 11.8298 16.3977 12.0088 17.9872 12.5386C18.3801 12.6696 18.5925 13.0943 18.4615 13.4873C18.3305 13.8803 17.9058 14.0926 17.5128 13.9616C16.1023 13.4915 14.9494 13.4204 13.885 13.9273C12.7936 14.447 11.6404 15.6463 10.4208 18.0855C10.2756 18.3761 9.95973 18.5401 9.63849 18.4918C9.31725 18.4435 9.06362 18.1939 9.01021 17.8734C8.52203 14.9443 7.04822 10.5382 5.60689 8.13599Z" fill="#292927"/>
</g>
</svg>
