<svg preserveAspectRatio="xMidYMid meet" overflow="visible" style="display: block;" viewBox="0 0 24 24" fill="none" xmlns="http://www.w3.org/2000/svg">
<g transform="translate(2.2500, 1.2500)">
<path id="Vector" fill-rule="evenodd" clip-rule="evenodd" d="M1.35 0C0.604415 0 0 0.604416 0 1.35V6.56833C0 6.83486 0.0788914 7.09542 0.226732 7.31718L2 9.97708V18.75C2 20.2688 3.23122 21.5 4.75 21.5H6.75C7.16421 21.5 7.5 21.1642 7.5 20.75C7.5 20.3358 7.16421 20 6.75 20H4.75C4.05964 20 3.5 19.4404 3.5 18.75V9.93167C3.5 9.66514 3.42111 9.40458 3.27327 9.18282L1.5 6.52292V1.5H3V3.15C3 3.89558 3.60442 4.5 4.35 4.5H7.15C7.89558 4.5 8.5 3.89558 8.5 3.15V1.5H11V3.15C11 3.89558 11.6044 4.5 12.35 4.5H15.15C15.8956 4.5 16.5 3.89558 16.5 3.15V1.5H18V6.52292L16.2267 9.18282C16.0789 9.40458 16 9.66514 16 9.93167V12.25C16 12.6642 16.3358 13 16.75 13C17.1642 13 17.5 12.6642 17.5 12.25V9.97708L19.2733 7.31718C19.4211 7.09542 19.5 6.83486 19.5 6.56833V1.35C19.5 0.604415 18.8956 0 18.15 0H16.35C15.6044 0 15 0.604416 15 1.35V3H12.5V1.35C12.5 0.604415 11.8956 0 11.15 0H8.35C7.60442 0 7 0.604416 7 1.35V3H4.5V1.35C4.5 0.604415 3.89558 0 3.15 0H1.35ZM11.2803 17.2197C10.9874 16.9268 10.5126 16.9268 10.2197 17.2197C9.92677 17.5126 9.92677 17.9874 10.2197 18.2803L13.2197 21.2803C13.5126 21.5732 13.9874 21.5732 14.2803 21.2803L19.2803 16.2803C19.5732 15.9874 19.5732 15.5126 19.2803 15.2197C18.9874 14.9268 18.5126 14.9268 18.2197 15.2197L13.75 19.6893L11.2803 17.2197Z" fill="#292927"/>
</g>
</svg>
