<svg preserveAspectRatio="xMidYMid meet" overflow="visible" style="display: block;" viewBox="0 0 24 24" fill="none" xmlns="http://www.w3.org/2000/svg">
<g transform="translate(2.2500, 2.2500)">
<path id="Vector" fill-rule="evenodd" clip-rule="evenodd" d="M1.5 18V1.5H18V18H1.5ZM1.35 0C0.604417 0 0 0.604415 0 1.35V18.15C0 18.8956 0.604415 19.5 1.35 19.5H18.15C18.8956 19.5 19.5 18.8956 19.5 18.15V1.35C19.5 0.604417 18.8956 0 18.15 0H1.35ZM11.5 11.25C11.5 12.3123 10.7404 13 9.75 13C8.61868 13 8 12.2928 8 11.75C8 11.3358 7.66421 11 7.25 11C6.83579 11 6.5 11.3358 6.5 11.75C6.5 13.4163 8.1199 14.5 9.75 14.5C11.521 14.5 13 13.1877 13 11.25C13 10.4139 12.83 9.60519 12.3682 8.98813C11.8802 8.33601 11.1431 8 10.25 8H8.13535L8.38535 6.5H11.75C12.1642 6.5 12.5 6.16421 12.5 5.75C12.5 5.33579 12.1642 5 11.75 5H7.75C7.38337 5 7.07048 5.26506 7.0102 5.6267L6.5102 8.6267C6.47396 8.84417 6.53523 9.06656 6.67773 9.23478C6.82024 9.403 7.02954 9.5 7.25 9.5H10.25C10.7376 9.5 11.0005 9.66399 11.1673 9.88687C11.3603 10.1448 11.5 10.5861 11.5 11.25Z" fill="#292927"/>
</g>
</svg>
