<svg preserveAspectRatio="xMidYMid meet" overflow="visible" style="display: block;" viewBox="0 0 24 24" fill="none" xmlns="http://www.w3.org/2000/svg">
<g transform="translate(2.2500, 2.7500)">
<path id="Vector" fill-rule="evenodd" clip-rule="evenodd" d="M3.5 7.75C3.5 4.29822 6.29822 1.5 9.75 1.5C13.2018 1.5 16 4.29822 16 7.75C16 8.16421 16.3358 8.5 16.75 8.5C17.1642 8.5 17.5 8.16421 17.5 7.75C17.5 3.46979 14.0302 0 9.75 0C5.46979 0 2 3.46979 2 7.75C2 8.16421 2.33579 8.5 2.75 8.5C3.16421 8.5 3.5 8.16421 3.5 7.75ZM5.73185 9.35414C5.59493 9.13433 5.35385 9 5.09483 9C4.83554 9 4.59465 9.13393 4.45781 9.35414L4.456 9.357L4.44398 9.37571C4.43255 9.39335 4.41436 9.42101 4.38972 9.45726C4.34038 9.52984 4.26551 9.63636 4.16757 9.76546C3.97075 10.0249 3.68563 10.3691 3.33218 10.7108C2.6008 11.4178 1.69566 12 0.75 12C0.335786 12 0 12.3358 0 12.75C0 13.1642 0.335786 13.5 0.75 13.5C2.28709 13.5 3.55437 12.5822 4.37471 11.7892C4.65475 11.5185 4.89661 11.249 5.09483 11.0097C5.29304 11.249 5.53491 11.5185 5.81494 11.7892C6.63529 12.5822 7.90256 13.5 9.43966 13.5C10.9513 13.5 12.3657 12.606 13.3239 11.8341C13.7544 11.4873 14.121 11.1419 14.398 10.8623C14.6592 11.1367 14.9982 11.4742 15.3842 11.8134C15.8324 12.2072 16.3598 12.6176 16.9148 12.9332C17.4588 13.2425 18.097 13.5 18.75 13.5C19.1642 13.5 19.5 13.1642 19.5 12.75C19.5 12.3358 19.1642 12 18.75 12C18.472 12 18.1015 11.8825 17.6563 11.6293C17.2221 11.3824 16.7797 11.0428 16.3744 10.6866C15.9717 10.3327 15.6214 9.97653 15.3711 9.70769C15.2464 9.57375 15.1476 9.46269 15.0808 9.38601C15.0474 9.3477 15.022 9.31806 15.0055 9.29853L14.9873 9.27702L14.9834 9.27232L14.9827 9.27154C14.8403 9.09955 14.6285 9 14.4052 9C14.1818 9 13.9701 9.09956 13.8276 9.27158L13.824 9.2759L13.8067 9.29625C13.7907 9.315 13.7657 9.34383 13.7325 9.38132C13.6659 9.45635 13.5665 9.56566 13.4389 9.6978C13.1828 9.96301 12.8181 10.3154 12.383 10.6659C11.4792 11.394 10.4108 12 9.43966 12C8.49399 12 7.58885 11.4178 6.85747 10.7108C6.50403 10.3691 6.21891 10.0249 6.02209 9.76546C5.92415 9.63636 5.84928 9.52984 5.79994 9.45726C5.7753 9.42101 5.75711 9.39335 5.74567 9.37571L5.73366 9.357L5.73185 9.35414ZM5.73185 14.3541C5.59493 14.1343 5.35385 14 5.09483 14C4.83554 14 4.59465 14.1339 4.45781 14.3541L4.456 14.357L4.44398 14.3757C4.43255 14.3933 4.41436 14.421 4.38972 14.4573C4.34038 14.5298 4.26551 14.6364 4.16757 14.7655C3.97075 15.0249 3.68563 15.3691 3.33218 15.7108C2.6008 16.4178 1.69566 17 0.75 17C0.335786 17 0 17.3358 0 17.75C0 18.1642 0.335786 18.5 0.75 18.5C2.28709 18.5 3.55437 17.5822 4.37471 16.7892C4.65475 16.5185 4.89661 16.249 5.09483 16.0097C5.29304 16.249 5.53491 16.5185 5.81494 16.7892C6.63529 17.5822 7.90256 18.5 9.43966 18.5C10.9513 18.5 12.3657 17.606 13.3239 16.8341C13.7544 16.4873 14.121 16.1419 14.398 15.8623C14.6592 16.1367 14.9982 16.4742 15.3842 16.8134C15.8324 17.2072 16.3598 17.6176 16.9148 17.9332C17.4588 18.2425 18.097 18.5 18.75 18.5C19.1642 18.5 19.5 18.1642 19.5 17.75C19.5 17.3358 19.1642 17 18.75 17C18.472 17 18.1015 16.8825 17.6563 16.6293C17.2221 16.3824 16.7797 16.0428 16.3744 15.6866C15.9717 15.3327 15.6214 14.9765 15.3711 14.7077C15.2464 14.5737 15.1476 14.4627 15.0808 14.386C15.0474 14.3477 15.022 14.3181 15.0055 14.2985L14.9873 14.277L14.9834 14.2723L14.9827 14.2715C14.8403 14.0996 14.6285 14 14.4052 14C14.1818 14 13.9701 14.0996 13.8276 14.2716L13.824 14.2759L13.8067 14.2962C13.7907 14.315 13.7657 14.3438 13.7325 14.3813C13.6659 14.4564 13.5665 14.5657 13.4389 14.6978C13.1828 14.963 12.8181 15.3154 12.383 15.6659C11.4792 16.394 10.4108 17 9.43966 17C8.49399 17 7.58885 16.4178 6.85747 15.7108C6.50403 15.3691 6.21891 15.0249 6.02209 14.7655C5.92415 14.6364 5.84928 14.5298 5.79994 14.4573C5.7753 14.421 5.75711 14.3933 5.74567 14.3757L5.73366 14.357L5.73185 14.3541Z" fill="#292927"/>
</g>
</svg>
