<svg preserveAspectRatio="xMidYMid meet" overflow="visible" style="display: block;" viewBox="0 0 24 24" fill="none" xmlns="http://www.w3.org/2000/svg">
<g transform="translate(4.2500, 2.2500)">
<path id="Vector" fill-rule="evenodd" clip-rule="evenodd" d="M0 18.75C0 19.1642 0.335787 19.5 0.75 19.5C1.16421 19.5 1.5 19.1642 1.5 18.75V5.75005C1.5 3.40283 3.4028 1.5 5.75 1.5C8.0972 1.5 10 3.40283 10 5.75005V10.9393L7.28033 8.21967C6.98743 7.92678 6.51256 7.92678 6.21967 8.21967C5.92677 8.51256 5.92677 8.98744 6.21967 9.28033L10.2197 13.2803C10.5126 13.5732 10.9874 13.5732 11.2803 13.2803L15.2803 9.28033C15.5732 8.98744 15.5732 8.51256 15.2803 8.21967C14.9874 7.92678 14.5126 7.92678 14.2197 8.21967L11.5 10.9393V5.75005C11.5 2.57442 8.92564 0 5.75 0C2.57435 0 0 2.57442 0 5.75005V18.75Z" fill="#292927"/>
</g>
</svg>
