<svg preserveAspectRatio="xMidYMid meet" overflow="visible" style="display: block;" viewBox="0 0 24 24" fill="none" xmlns="http://www.w3.org/2000/svg">
<g transform="translate(3.2500, 1.1083)">
<path id="Vector" fill-rule="evenodd" clip-rule="evenodd" d="M8.75 1.5C4.74594 1.5 1.5 4.74594 1.5 8.75C1.5 9.6573 1.92155 10.8209 2.65354 12.121C3.3742 13.401 4.34493 14.7258 5.33078 15.9323C6.31431 17.136 7.29986 18.2063 8.04057 18.9764C8.3156 19.2624 8.55634 19.5064 8.75 19.6999C8.94366 19.5064 9.1844 19.2624 9.45943 18.9764C10.2001 18.2063 11.1857 17.136 12.1692 15.9323C13.1551 14.7258 14.1258 13.401 14.8465 12.121C15.5784 10.8209 16 9.6573 16 8.75C16 4.74594 12.7541 1.5 8.75 1.5ZM8.75 20.75C8.23409 21.2944 8.23398 21.2943 8.23385 21.2941L8.22704 21.2877L8.2086 21.2701L8.13904 21.2032C8.07863 21.1448 7.99076 21.0593 7.87936 20.9493C7.6566 20.7294 7.33949 20.4114 6.95943 20.0162C6.20014 19.2267 5.18569 18.1254 4.16922 16.8814C3.15507 15.6402 2.1258 14.2411 1.34646 12.8569C0.578448 11.4928 0 10.0518 0 8.75C0 3.91751 3.91751 0 8.75 0C13.5825 0 17.5 3.91751 17.5 8.75C17.5 10.0518 16.9216 11.4928 16.1535 12.8569C15.3742 14.2411 14.3449 15.6402 13.3308 16.8814C12.3143 18.1254 11.2999 19.2267 10.5406 20.0162C10.1605 20.4114 9.8434 20.7294 9.62064 20.9493C9.50924 21.0593 9.42137 21.1448 9.36096 21.2032L9.2914 21.2701L9.27296 21.2877L9.26799 21.2924L9.26658 21.2937C9.26645 21.2939 9.26591 21.2944 8.75 20.75ZM8.75 20.75L9.26658 21.2937L8.75 21.7833L8.23385 21.2941L8.75 20.75Z" fill="#292927"/>
</g>
</svg>
