<svg preserveAspectRatio="xMidYMid meet" overflow="visible" style="display: block;" viewBox="0 0 24 24" fill="none" xmlns="http://www.w3.org/2000/svg">
<g transform="translate(1.2500, 1.2500)">
<path id="Vector" fill-rule="evenodd" clip-rule="evenodd" d="M1.5 10.75C1.5 5.64137 5.64137 1.5 10.75 1.5C15.8586 1.5 20 5.64137 20 10.75C20 15.8586 15.8586 20 10.75 20C5.64137 20 1.5 15.8586 1.5 10.75ZM10.75 0C4.81294 0 0 4.81294 0 10.75C0 16.6871 4.81294 21.5 10.75 21.5C16.6871 21.5 21.5 16.6871 21.5 10.75C21.5 4.81294 16.6871 0 10.75 0ZM16.3552 6.1643C16.5179 5.87158 16.4667 5.50652 16.2299 5.26974C15.9932 5.03296 15.6281 4.98183 15.3354 5.14445L8.97142 8.67999C8.84899 8.748 8.74805 8.84894 8.68003 8.97137L5.1445 15.3353C4.98188 15.6281 5.03301 15.9931 5.26979 16.2299C5.50657 16.4667 5.87163 16.5178 6.16435 16.3552L12.5283 12.8196C12.6507 12.7516 12.7517 12.6507 12.8197 12.5283L16.3552 6.1643ZM10.9307 11.9913L9.5084 10.569L7.73055 13.7691L10.9307 11.9913ZM10.5691 9.50835L11.9913 10.9306L13.7692 7.7305L10.5691 9.50835ZM18.5 10.75C18.5 11.1642 18.1642 11.5 17.75 11.5H16.75C16.3358 11.5 16 11.1642 16 10.75C16 10.3358 16.3358 10 16.75 10H17.75C18.1642 10 18.5 10.3358 18.5 10.75ZM4.75 11.5C5.16421 11.5 5.5 11.1642 5.5 10.75C5.5 10.3358 5.16421 10 4.75 10H3.75C3.33579 10 3 10.3358 3 10.75C3 11.1642 3.33579 11.5 3.75 11.5H4.75ZM10.75 3C11.1642 3 11.5 3.33579 11.5 3.75V4.75C11.5 5.16421 11.1642 5.5 10.75 5.5C10.3358 5.5 10 5.16421 10 4.75V3.75C10 3.33579 10.3358 3 10.75 3ZM11.5 16.75C11.5 16.3358 11.1642 16 10.75 16C10.3358 16 10 16.3358 10 16.75V17.75C10 18.1642 10.3358 18.5 10.75 18.5C11.1642 18.5 11.5 18.1642 11.5 17.75V16.75ZM5.26996 5.26959C5.56285 4.97669 6.03773 4.97669 6.33062 5.26959L7.03773 5.97669C7.33062 6.26959 7.33062 6.74446 7.03773 7.03735C6.74484 7.33025 6.26996 7.33025 5.97707 7.03735L5.26996 6.33025C4.97707 6.03735 4.97707 5.56248 5.26996 5.26959ZM15.523 14.462C15.2301 14.1691 14.7552 14.1691 14.4623 14.462C14.1695 14.7549 14.1695 15.2297 14.4623 15.5226L15.1695 16.2297C15.4623 16.5226 15.9372 16.5226 16.2301 16.2297C16.523 15.9368 16.523 15.462 16.2301 15.1691L15.523 14.462Z" fill="#292927"/>
</g>
</svg>
