<svg preserveAspectRatio="xMidYMid meet" overflow="visible" style="display: block;" viewBox="0 0 24 24" fill="none" xmlns="http://www.w3.org/2000/svg">
<g transform="translate(2.7500, 2.2498)">
<path id="Vector" fill-rule="evenodd" clip-rule="evenodd" d="M2 0.75C2 0.335786 2.33579 0 2.75 0H8.75H10.75C11.1642 0 11.5 0.335786 11.5 0.75C11.5 1.16421 11.1642 1.5 10.75 1.5H9.5V3H10.75C11.1642 3 11.5 3.33579 11.5 3.75C11.5 4.16421 11.1642 4.5 10.75 4.5H9.5V6H10.75C11.1642 6 11.5 6.33579 11.5 6.75C11.5 7.16421 11.1642 7.5 10.75 7.5H9.5V9.39142C10.7235 10.4449 11.5 12.0071 11.5 13.7504C11.5 16.926 8.92564 19.5004 5.75 19.5004C2.57436 19.5004 0 16.926 0 13.7504C0 12.0071 0.776508 10.4449 2 9.39142V0.75ZM8 9.65234C8 9.6686 8.00052 9.68474 8.00154 9.70074C7.98569 9.94483 8.08939 10.1919 8.29957 10.3497C9.33354 11.1264 10 12.3604 10 13.7504C10 16.0976 8.09721 18.0004 5.75 18.0004C3.40279 18.0004 1.5 16.0976 1.5 13.7504C1.5 12.3604 2.16646 11.1264 3.20043 10.3497C3.41061 10.1918 3.51431 9.94483 3.49846 9.70074C3.49948 9.68474 3.5 9.6686 3.5 9.65234V1.5H8V9.65234ZM15.75 1.5C15.0596 1.5 14.5 2.05964 14.5 2.75C14.5 3.44036 15.0596 4 15.75 4C16.4404 4 17 3.44036 17 2.75C17 2.05964 16.4404 1.5 15.75 1.5ZM13 2.75C13 1.23122 14.2312 0 15.75 0C17.2688 0 18.5 1.23122 18.5 2.75C18.5 4.26878 17.2688 5.5 15.75 5.5C14.2312 5.5 13 4.26878 13 2.75ZM6.5 8.75C6.5 8.33579 6.16421 8 5.75 8C5.33579 8 5 8.33579 5 8.75V11.1035C3.84575 11.43 3 12.4912 3 13.75C3 15.2688 4.23122 16.5 5.75 16.5C7.26878 16.5 8.5 15.2688 8.5 13.75C8.5 12.4912 7.65425 11.43 6.5 11.1035V8.75ZM4.5 13.75C4.5 13.0596 5.05964 12.5 5.75 12.5C6.44036 12.5 7 13.0596 7 13.75C7 14.4404 6.44036 15 5.75 15C5.05964 15 4.5 14.4404 4.5 13.75Z" fill="#292927"/>
</g>
</svg>
