<svg preserveAspectRatio="xMidYMid meet" overflow="visible" style="display: block;" viewBox="0 0 24 24" fill="none" xmlns="http://www.w3.org/2000/svg">
<g transform="translate(1.2500, 1.2500)">
<path id="Vector" fill-rule="evenodd" clip-rule="evenodd" d="M1.5 10.75C1.5 5.64137 5.64137 1.5 10.75 1.5C15.8586 1.5 20 5.64137 20 10.75C20 15.8586 15.8586 20 10.75 20C5.64137 20 1.5 15.8586 1.5 10.75ZM10.75 0C4.81294 0 0 4.81294 0 10.75C0 16.6871 4.81294 21.5 10.75 21.5C16.6871 21.5 21.5 16.6871 21.5 10.75C21.5 4.81294 16.6871 0 10.75 0ZM8.75 9C8.33579 9 8 9.33579 8 9.75C8 10.1642 8.33579 10.5 8.75 10.5H12.75C13.1642 10.5 13.5 10.1642 13.5 9.75C13.5 9.33579 13.1642 9 12.75 9H8.75ZM8.5 5.25C8.5 4.55964 7.94036 4 7.25 4C6.55964 4 6 4.55964 6 5.25C6 5.94036 6.55964 6.5 7.25 6.5C7.94036 6.5 8.5 5.94036 8.5 5.25ZM15.5 5.25C15.5 4.55964 14.9404 4 14.25 4C13.5596 4 13 4.55964 13 5.25C13 5.94036 13.5596 6.5 14.25 6.5C14.9404 6.5 15.5 5.94036 15.5 5.25Z" fill="#292927"/>
</g>
</svg>
