<svg preserveAspectRatio="xMidYMid meet" overflow="visible" style="display: block;" viewBox="0 0 24 24" fill="none" xmlns="http://www.w3.org/2000/svg">
<g transform="translate(1.2500, 1.2500)">
<path id="Vector" fill-rule="evenodd" clip-rule="evenodd" d="M1.5 9.75C1.5 5.19365 5.19365 1.5 9.75 1.5C14.3063 1.5 18 5.19365 18 9.75C18 11.8635 17.2063 13.7897 15.8995 15.2498C14.3878 16.9388 12.1933 18 9.75 18C5.19365 18 1.5 14.3063 1.5 9.75ZM9.75 0C4.36522 0 0 4.36522 0 9.75C0 15.1348 4.36522 19.5 9.75 19.5C12.5151 19.5 15.0121 18.3481 16.7856 16.5H18.25C19.2165 16.5 20 17.2835 20 18.25C20 19.2165 19.2165 20 18.25 20H15.75C15.3358 20 15 20.3358 15 20.75C15 21.1642 15.3358 21.5 15.75 21.5H18.25C20.0449 21.5 21.5 20.0449 21.5 18.25C21.5 16.4551 20.0449 15 18.25 15H17.9671C18.9372 13.4845 19.5 11.6825 19.5 9.75C19.5 4.36522 15.1348 0 9.75 0ZM10.3175 10.2508C10.5946 9.94287 10.5696 9.46865 10.2617 9.19156C9.95385 8.91446 9.47963 8.93942 9.20254 9.24731L9.19254 9.25842C8.91544 9.5663 8.9404 10.0405 9.24828 10.3176C9.55616 10.5947 10.0304 10.5697 10.3075 10.2619L10.3175 10.2508ZM7.26173 9.19156C7.56961 9.46865 7.59457 9.94287 7.31748 10.2508L7.30748 10.2619C7.03038 10.5697 6.55616 10.5947 6.24828 10.3176C5.9404 10.0405 5.91544 9.5663 6.19254 9.25842L6.20254 9.24731C6.47963 8.93942 6.95385 8.91446 7.26173 9.19156ZM13.3175 10.2508C13.5946 9.94287 13.5696 9.46865 13.2617 9.19156C12.9538 8.91446 12.4796 8.93942 12.2025 9.24731L12.1925 9.25842C11.9154 9.5663 11.9404 10.0405 12.2483 10.3176C12.5562 10.5947 13.0304 10.5697 13.3075 10.2619L13.3175 10.2508Z" fill="#292927"/>
</g>
</svg>
