<svg preserveAspectRatio="xMidYMid meet" overflow="visible" style="display: block;" viewBox="0 0 24 24" fill="none" xmlns="http://www.w3.org/2000/svg">
<g transform="translate(1.1738, 1.3511)">
<path id="Vector" fill-rule="evenodd" clip-rule="evenodd" d="M17.5438 6.9371C17.7027 6.77821 17.7819 6.55646 17.7598 6.33286C17.7376 6.10926 17.6164 5.90737 17.4295 5.78273L8.94418 0.125874C8.64669 -0.0724553 8.2503 -0.0329495 7.99751 0.219902L6.9372 1.28021C6.79653 1.42086 6.7175 1.61163 6.71749 1.81055C6.71749 2.00947 6.79651 2.20024 6.93716 2.3409C8.61207 4.01581 9.34355 5.58254 9.66317 6.7012C9.8237 7.26305 9.88187 7.71745 9.90094 8.02244C9.90531 8.09244 9.90762 8.15455 9.90864 8.20826L8.73008 9.38683C8.72156 9.3946 8.71319 9.4026 8.70495 9.41083L0.21967 17.8961C0.0790172 18.0368 0 18.2275 0 18.4264C0 18.6254 0.0790174 18.8161 0.21967 18.9568L2.34099 21.0781C2.63388 21.371 3.10876 21.371 3.40165 21.0781L11.8618 12.618C11.8703 12.6102 11.8787 12.6022 11.8869 12.594L13.1243 11.3565L13.4779 11.7101L12.9476 12.2404C12.6547 12.5333 12.6547 13.0082 12.9476 13.3011L15.4224 15.7759C15.7153 16.0688 16.1902 16.0688 16.4831 15.7759L21.4329 10.8262C21.7257 10.5333 21.7257 10.0584 21.4329 9.76552L18.958 7.29065C18.6651 6.99776 18.1902 6.99776 17.8973 7.29065L17.367 7.82098L17.0134 7.46743L17.5438 6.9371ZM10.2954 12.0631L9.2347 11.0024L1.81066 18.4264L2.87132 19.4871L10.2954 12.0631ZM8.51522 1.82353L8.62373 1.71502L15.8362 6.52333L15.4224 6.9371C15.1296 7.22999 15.1296 7.70486 15.4224 7.99776L16.8367 9.41197C17.1296 9.70486 17.6044 9.70486 17.8973 9.41197L18.4277 8.88164L19.8419 10.2959L15.9528 14.1849L14.5386 12.7707L15.0689 12.2404C15.3618 11.9475 15.3618 11.4726 15.0689 11.1797L13.6547 9.76552C13.3618 9.47263 12.8869 9.47263 12.594 9.76552L11.3566 11.003L10.2959 9.9423L11.1798 9.05842C11.3002 8.93799 11.3762 8.77925 11.395 8.60999L11.3951 8.60899L11.3953 8.60676L11.3959 8.60143L11.3973 8.58723C11.3983 8.5762 11.3995 8.56207 11.4007 8.54492C11.4031 8.51063 11.4057 8.46426 11.4074 8.40651C11.4108 8.29102 11.4106 8.1299 11.398 7.92888C11.3729 7.52676 11.2985 6.96469 11.1055 6.28911C10.7558 5.06546 10.022 3.48703 8.51522 1.82353ZM10.6495 8.52809L11.395 8.60999C11.3949 8.61045 11.3949 8.61091 10.6495 8.52809Z" fill="#292927"/>
</g>
</svg>
