<svg preserveAspectRatio="xMidYMid meet" overflow="visible" style="display: block;" viewBox="0 0 24 24" fill="none" xmlns="http://www.w3.org/2000/svg">
<g transform="translate(3.2500, 2.2500)">
<path id="Vector" fill-rule="evenodd" clip-rule="evenodd" d="M4.5 5.15V1.5H13V5.15C13 5.89558 13.6044 6.5 14.35 6.5H16V18H1.5V6.5H3.15C3.89558 6.5 4.5 5.89558 4.5 5.15ZM4.35 0C3.60442 0 3 0.604416 3 1.35V5H1.35C0.604414 5 0 5.60442 0 6.35V18.15C0 18.8956 0.604417 19.5 1.35 19.5H16.15C16.8956 19.5 17.5 18.8956 17.5 18.15V6.35C17.5 5.60442 16.8956 5 16.15 5H14.5V1.35C14.5 0.604415 13.8956 0 13.15 0H4.35ZM9.49219 3.75C9.49219 3.33579 9.1564 3 8.74219 3C8.32797 3 7.99219 3.33579 7.99219 3.75V5H6.74219C6.32797 5 5.99219 5.33579 5.99219 5.75C5.99219 6.16421 6.32797 6.5 6.74219 6.5H7.99219V7.75C7.99219 8.16421 8.32797 8.5 8.74219 8.5C9.1564 8.5 9.49219 8.16421 9.49219 7.75V6.5H10.7422C11.1564 6.5 11.4922 6.16421 11.4922 5.75C11.4922 5.33579 11.1564 5 10.7422 5H9.49219V3.75ZM13.2617 14.1916C13.5696 14.4687 13.5946 14.9429 13.3175 15.2508L13.3075 15.2619C13.0304 15.5697 12.5562 15.5947 12.2483 15.3176C11.9404 15.0405 11.9154 14.5663 12.1925 14.2584L12.2025 14.2473C12.4796 13.9394 12.9538 13.9145 13.2617 14.1916ZM13.3175 11.2508C13.5946 10.9429 13.5696 10.4687 13.2617 10.1916C12.9538 9.91446 12.4796 9.93942 12.2025 10.2473L12.1925 10.2584C11.9154 10.5663 11.9404 11.0405 12.2483 11.3176C12.5562 11.5947 13.0304 11.5697 13.3075 11.2619L13.3175 11.2508ZM9.26173 10.1916C9.56961 10.4687 9.59457 10.9429 9.31748 11.2508L9.30748 11.2619C9.03038 11.5697 8.55616 11.5947 8.24828 11.3176C7.9404 11.0405 7.91544 10.5663 8.19254 10.2584L8.20254 10.2473C8.47963 9.93942 8.95385 9.91446 9.26173 10.1916ZM5.31748 11.2508C5.59457 10.9429 5.56961 10.4687 5.26173 10.1916C4.95385 9.91446 4.47963 9.93942 4.20254 10.2473L4.19254 10.2584C3.91544 10.5663 3.9404 11.0405 4.24828 11.3176C4.55616 11.5947 5.03038 11.5697 5.30748 11.2619L5.31748 11.2508ZM5.26173 14.1916C5.56961 14.4687 5.59457 14.9429 5.31748 15.2508L5.30748 15.2619C5.03038 15.5697 4.55616 15.5947 4.24828 15.3176C3.9404 15.0405 3.91544 14.5663 4.19254 14.2584L4.20254 14.2473C4.47963 13.9394 4.95385 13.9145 5.26173 14.1916ZM9.31748 15.2508C9.59457 14.9429 9.56961 14.4687 9.26173 14.1916C8.95385 13.9145 8.47963 13.9394 8.20254 14.2473L8.19254 14.2584C7.91544 14.5663 7.9404 15.0405 8.24828 15.3176C8.55616 15.5947 9.03038 15.5697 9.30748 15.2619L9.31748 15.2508Z" fill="#292927"/>
</g>
</svg>
