<svg preserveAspectRatio="xMidYMid meet" overflow="visible" style="display: block;" viewBox="0 0 24 24" fill="none" xmlns="http://www.w3.org/2000/svg">
<g transform="translate(10.7500, 4.7500)">
<path id="Vector" fill-rule="evenodd" clip-rule="evenodd" d="M1.25 0C0.559644 0 0 0.559644 0 1.25C0 1.94036 0.559644 2.5 1.25 2.5C1.94036 2.5 2.5 1.94036 2.5 1.25C2.5 0.559644 1.94036 0 1.25 0ZM1.25 6C0.559644 6 0 6.55964 0 7.25C0 7.94036 0.559644 8.5 1.25 8.5C1.94036 8.5 2.5 7.94036 2.5 7.25C2.5 6.55964 1.94036 6 1.25 6ZM1.25 12C0.559644 12 0 12.5596 0 13.25C0 13.9404 0.559644 14.5 1.25 14.5C1.94036 14.5 2.5 13.9404 2.5 13.25C2.5 12.5596 1.94036 12 1.25 12Z" fill="#292927"/>
</g>
</svg>
