<svg preserveAspectRatio="xMidYMid meet" overflow="visible" style="display: block;" viewBox="0 0 24 24" fill="none" xmlns="http://www.w3.org/2000/svg">
<g transform="translate(3.7499, 1.2500)">
<path id="Vector" fill-rule="evenodd" clip-rule="evenodd" d="M4.1662 0.126042C3.82155 -0.103722 3.3559 -0.0105919 3.12614 0.334055C2.89787 0.676449 2.9883 1.13827 3.32743 1.36958L3.33861 1.3779C3.35234 1.38836 3.37667 1.40765 3.40815 1.43564C3.47171 1.49213 3.56066 1.58073 3.65018 1.70008C3.82752 1.93654 4.00017 2.28254 4.00017 2.75008C4.00017 2.99027 3.85571 3.33462 3.6223 3.69189C3.51575 3.85498 3.40799 3.99475 3.32681 4.09361C3.28655 4.14265 3.25366 4.18059 3.23185 4.2052C3.22097 4.21748 3.21291 4.22636 3.20815 4.23156L3.20333 4.2368C2.92029 4.53832 2.93472 5.01221 3.23584 5.29594C3.53731 5.58 4.01221 5.56563 4.29627 5.26416L4.29711 5.26327L4.29855 5.26173L4.30253 5.25747L4.31466 5.2443C4.32455 5.2335 4.33797 5.21866 4.35444 5.20009C4.38732 5.16299 4.43255 5.11069 4.48604 5.04556C4.59236 4.91609 4.73461 4.73187 4.87805 4.5123C5.14465 4.10424 5.50017 3.44859 5.50017 2.75008C5.50017 1.88429 5.17283 1.23029 4.85018 0.80008C4.68969 0.5861 4.52864 0.424697 4.4047 0.314523C4.34243 0.259176 4.28864 0.215963 4.24768 0.184756C4.22717 0.169129 4.20978 0.156439 4.19605 0.146676L4.17822 0.134195L4.17146 0.12958L4.16864 0.127676L4.16737 0.126825L4.1662 0.126042ZM4.1662 0.126042L3.7519 0.747491L4.11417 0.203856L4.11421 0.203789L4.11424 0.203745L4.11426 0.203711L4.11428 0.203689L4.11429 0.203678L4.11429 0.203667C4.16606 0.125946 4.16606 0.125946 4.1662 0.126042ZM3.79964 4.79668C4.29604 5.2644 4.29615 5.26429 4.29627 5.26416L3.79964 4.79668ZM0.0705415 20.4326C-0.104623 20.808 0.0576614 21.2543 0.433015 21.4294C0.808368 21.6046 1.25465 21.4423 1.42982 21.067L3.32774 17H12.1726L12.5402 17.7876C12.2035 18.1809 12.0002 18.6917 12.0002 19.25C12.0002 20.4926 13.0075 21.5 14.2502 21.5C15.4928 21.5 16.5002 20.4926 16.5002 19.25C16.5002 18.0073 15.4928 17 14.2502 17C14.1118 17 13.9764 17.0125 13.8449 17.0364L12.0531 13.1967C13.9586 11.9223 15.2675 9.82521 15.4722 7.41312C15.5409 6.60353 14.8778 5.99997 14.1502 5.99997H1.35017C0.622593 5.99997 -0.0405032 6.60353 0.0281927 7.41312C0.232866 9.82522 1.5417 11.9223 3.44729 13.1967L0.0705415 20.4326ZM4.77122 13.9068L4.02774 15.5H11.4726L10.7291 13.9068C9.81206 14.289 8.80579 14.5 7.75017 14.5C6.69457 14.5 5.68829 14.289 4.77122 13.9068ZM7.12614 0.334055C7.3559 -0.0105919 7.82155 -0.103722 8.1662 0.126042C8.16606 0.125946 8.16606 0.125946 8.11429 0.203678L8.11428 0.203689L8.11427 0.203711L8.11424 0.203744L8.11421 0.203789L8.11417 0.203856L7.75189 0.747502L8.1662 0.126042L8.16737 0.126825L8.16864 0.127676L8.17146 0.12958L8.17822 0.134195L8.19605 0.146676C8.20978 0.156439 8.22717 0.169129 8.24768 0.184756C8.28864 0.215963 8.34243 0.259176 8.4047 0.314523C8.52864 0.424697 8.68969 0.5861 8.85018 0.80008C9.17283 1.23029 9.50018 1.88429 9.50018 2.75008C9.50017 3.44859 9.14465 4.10424 8.87805 4.5123C8.73461 4.73187 8.59236 4.91609 8.48604 5.04556C8.43255 5.11069 8.38732 5.16299 8.35444 5.20009C8.33797 5.21866 8.32455 5.2335 8.31466 5.2443L8.30253 5.25747L8.29855 5.26173L8.29711 5.26327L8.29627 5.26416L7.79964 4.79668C8.29604 5.2644 8.29615 5.26429 8.29627 5.26416C8.01221 5.56563 7.53731 5.58 7.23584 5.29594C6.93472 5.01221 6.92029 4.53832 7.20333 4.2368L7.20815 4.23156C7.21291 4.22636 7.22097 4.21748 7.23185 4.2052C7.25366 4.18059 7.28655 4.14265 7.32681 4.09361C7.40799 3.99475 7.51575 3.85498 7.6223 3.69189C7.85571 3.33462 8.00018 2.99027 8.00018 2.75008C8.00018 2.28254 7.82752 1.93654 7.65018 1.70008C7.56066 1.58073 7.47171 1.49213 7.40815 1.43564C7.37667 1.40765 7.35234 1.38836 7.33861 1.3779L7.32743 1.36958C6.9883 1.13827 6.89787 0.676449 7.12614 0.334055ZM12.1662 0.126042C11.8216 -0.103722 11.3559 -0.0105919 11.1261 0.334055C10.8979 0.676449 10.9883 1.13827 11.3274 1.36958L11.3386 1.3779C11.3523 1.38836 11.3767 1.40765 11.4082 1.43564C11.4717 1.49213 11.5607 1.58073 11.6502 1.70008C11.8275 1.93654 12.0002 2.28254 12.0002 2.75008C12.0002 2.99027 11.8557 3.33462 11.6223 3.69189C11.5157 3.85498 11.408 3.99475 11.3268 4.09361C11.2865 4.14265 11.2537 4.18059 11.2319 4.2052C11.221 4.21748 11.2129 4.22636 11.2082 4.23156L11.2033 4.2368C10.9203 4.53832 10.9347 5.01221 11.2358 5.29594C11.5373 5.58 12.0122 5.56563 12.2963 5.26416L12.2971 5.26327L12.2986 5.26173L12.3025 5.25747L12.3147 5.2443C12.3245 5.2335 12.338 5.21866 12.3544 5.20009C12.3873 5.16299 12.4326 5.11069 12.486 5.04556C12.5924 4.91609 12.7346 4.73187 12.8781 4.5123C13.1446 4.10424 13.5002 3.44859 13.5002 2.75008C13.5002 1.88429 13.1728 1.23029 12.8502 0.80008C12.6897 0.5861 12.5286 0.424697 12.4047 0.314523C12.3424 0.259176 12.2886 0.215963 12.2477 0.184756C12.2272 0.169129 12.2098 0.156439 12.196 0.146676L12.1782 0.134195L12.1715 0.12958L12.1686 0.127676L12.1674 0.126825L12.1662 0.126042ZM12.1662 0.126042L11.7519 0.747502L12.1142 0.203856L12.1142 0.203789L12.1142 0.203744L12.1143 0.203711L12.1143 0.203689C12.1661 0.125946 12.1661 0.125946 12.1662 0.126042ZM11.7996 4.79668C12.296 5.2644 12.2962 5.26429 12.2963 5.26416L11.7996 4.79668ZM14.2502 18.5C13.836 18.5 13.5002 18.8358 13.5002 19.25C13.5002 19.6642 13.836 20 14.2502 20C14.6644 20 15.0002 19.6642 15.0002 19.25C15.0002 18.8358 14.6644 18.5 14.2502 18.5ZM7.75017 13C4.55232 13 1.91476 10.5978 1.54464 7.49997H13.9557C13.5856 10.5978 10.948 13 7.75017 13Z" fill="#292927"/>
</g>
</svg>
