<svg preserveAspectRatio="xMidYMid meet" overflow="visible" style="display: block;" viewBox="0 0 24 24" fill="none" xmlns="http://www.w3.org/2000/svg">
<g transform="translate(1.2500, 4.2500)">
<path id="Vector" fill-rule="evenodd" clip-rule="evenodd" d="M1.5 2.75C1.5 2.05964 2.05964 1.5 2.75 1.5H18.75C19.4404 1.5 20 2.05964 20 2.75V12.75C20 13.4404 19.4404 14 18.75 14H2.75C2.05964 14 1.5 13.4404 1.5 12.75V2.75ZM2.75 0C1.23122 0 0 1.23122 0 2.75V12.75C0 14.2688 1.23122 15.5 2.75 15.5H18.75C20.2688 15.5 21.5 14.2688 21.5 12.75V2.75C21.5 1.23122 20.2688 0 18.75 0H2.75ZM13 7.75C13 6.50736 11.9926 5.5 10.75 5.5C9.50736 5.5 8.5 6.50736 8.5 7.75C8.5 8.99264 9.50736 10 10.75 10C11.9926 10 13 8.99264 13 7.75ZM10.75 4C12.8211 4 14.5 5.67893 14.5 7.75C14.5 9.82107 12.8211 11.5 10.75 11.5C8.67893 11.5 7 9.82107 7 7.75C7 5.67893 8.67893 4 10.75 4ZM17.7617 7.19156C18.0696 7.46865 18.0946 7.94287 17.8175 8.25075L17.8075 8.26186C17.5304 8.56975 17.0562 8.59471 16.7483 8.31761C16.4404 8.04052 16.4154 7.5663 16.6925 7.25842L16.7025 7.24731C16.9796 6.93942 17.4538 6.91446 17.7617 7.19156ZM4.81748 8.25075C5.09457 7.94287 5.06961 7.46865 4.76173 7.19156C4.45385 6.91446 3.97963 6.93942 3.70254 7.24731L3.69254 7.25842C3.41544 7.5663 3.4404 8.04052 3.74828 8.31761C4.05616 8.59471 4.53038 8.56975 4.80748 8.26186L4.81748 8.25075Z" fill="#292927"/>
</g>
</svg>
