<svg preserveAspectRatio="xMidYMid meet" overflow="visible" style="display: block;" viewBox="0 0 24 24" fill="none" xmlns="http://www.w3.org/2000/svg">
<g transform="translate(1.7500, 1.7500)">
<path id="Vector" fill-rule="evenodd" clip-rule="evenodd" d="M11.5 18.75C11.5 19.1642 11.1642 19.5 10.75 19.5H1.35C0.604414 19.5 0 18.8956 0 18.15V1.35C0 0.604414 0.604418 0 1.35 0H18.15C18.8956 0 19.5 0.604418 19.5 1.35V10.75C19.5 11.1642 19.1642 11.5 18.75 11.5C18.3358 11.5 18 11.1642 18 10.75V1.5H1.5V18H10.75C11.1642 18 11.5 18.3358 11.5 18.75ZM16.75 13C17.1642 13 17.5 13.3358 17.5 13.75V16H19.75C20.1642 16 20.5 16.3358 20.5 16.75C20.5 17.1642 20.1642 17.5 19.75 17.5H17.5V19.75C17.5 20.1642 17.1642 20.5 16.75 20.5C16.3358 20.5 16 20.1642 16 19.75V17.5H13.75C13.3358 17.5 13 17.1642 13 16.75C13 16.3358 13.3358 16 13.75 16H16V13.75C16 13.3358 16.3358 13 16.75 13ZM7.5 12.4573V7.04211L12.2383 9.74973L7.5 12.4573ZM8.01979 5.61151C7.1198 5.09723 6 5.74708 6 6.78364V12.7158C6 13.7524 7.1198 14.4022 8.01979 13.8879L13.2104 10.9219C14.1174 10.4036 14.1174 9.09586 13.2104 8.5776L8.01979 5.61151Z" fill="#292927"/>
</g>
</svg>
