<svg preserveAspectRatio="xMidYMid meet" overflow="visible" style="display: block;" viewBox="0 0 24 24" fill="none" xmlns="http://www.w3.org/2000/svg">
<g transform="translate(3.2500, 3.2500)">
<path id="Vector" fill-rule="evenodd" clip-rule="evenodd" d="M0.75 0H6.37963C6.79384 0 7.12963 0.335786 7.12963 0.75V7.56818C7.12963 8.30164 7.79536 9 8.75 9C9.70465 9 10.3704 8.30164 10.3704 7.56818V0.75C10.3704 0.335786 10.7062 0 11.1204 0H16.75C17.1642 0 17.5 0.335786 17.5 0.75V4.75V9.0463C17.5 13.7416 13.5556 17.5 8.75 17.5C3.94444 17.5 0 13.7416 0 9.0463V4.75V0.75C0 0.335786 0.335786 0 0.75 0ZM16 4V1.5H11.8704V4H16ZM11.8704 5.5H16V9.0463C16 12.8603 12.781 16 8.75 16C4.71901 16 1.5 12.8603 1.5 9.0463V5.5H5.62963V7.56818C5.62963 9.2447 7.08641 10.5 8.75 10.5C10.4136 10.5 11.8704 9.2447 11.8704 7.56818V5.5ZM1.5 4H5.62963V1.5H1.5V4Z" fill="#292927"/>
</g>
</svg>
