<svg preserveAspectRatio="xMidYMid meet" overflow="visible" style="display: block;" viewBox="0 0 24 24" fill="none" xmlns="http://www.w3.org/2000/svg">
<g transform="translate(2.2500, 1.2500)">
<path id="Vector" fill-rule="evenodd" clip-rule="evenodd" d="M15.75 1.5C14.5074 1.5 13.5 2.50736 13.5 3.75C13.5 4.99264 14.5074 6 15.75 6C16.9926 6 18 4.99264 18 3.75C18 2.50736 16.9926 1.5 15.75 1.5ZM12 3.75C12 1.67893 13.6789 0 15.75 0C17.8211 0 19.5 1.67893 19.5 3.75C19.5 5.82107 17.8211 7.5 15.75 7.5C14.6497 7.5 13.6601 7.02611 12.9741 6.27129L7.29283 9.51771C7.42706 9.90367 7.5 10.3183 7.5 10.75C7.5 11.1816 7.4271 11.5961 7.29293 11.982L12.9743 15.2285C13.6603 14.4738 14.6498 14 15.75 14C17.8211 14 19.5 15.6789 19.5 17.75C19.5 19.8211 17.8211 21.5 15.75 21.5C13.6789 21.5 12 19.8211 12 17.75C12 17.3183 12.0729 16.9037 12.2072 16.5177L6.52591 13.2713C5.83993 14.0261 4.85031 14.5 3.75 14.5C1.67893 14.5 0 12.8211 0 10.75C0 8.67893 1.67893 7 3.75 7C4.85019 7 5.83972 7.47378 6.52569 8.22845L12.2071 4.98195C12.0729 4.59609 12 4.18156 12 3.75ZM15.75 15.5C14.5074 15.5 13.5 16.5074 13.5 17.75C13.5 18.9926 14.5074 20 15.75 20C16.9926 20 18 18.9926 18 17.75C18 16.5074 16.9926 15.5 15.75 15.5ZM1.5 10.75C1.5 9.50736 2.50736 8.5 3.75 8.5C4.99264 8.5 6 9.50736 6 10.75C6 11.9926 4.99264 13 3.75 13C2.50736 13 1.5 11.9926 1.5 10.75Z" fill="#292927"/>
</g>
</svg>
