<svg preserveAspectRatio="xMidYMid meet" overflow="visible" style="display: block;" viewBox="0 0 24 24" fill="none" xmlns="http://www.w3.org/2000/svg">
<g transform="translate(2.2500, 2.2500)">
<path id="Vector" fill-rule="evenodd" clip-rule="evenodd" d="M18 14.75C18 16.5449 16.5449 18 14.75 18H4.75C2.95507 18 1.5 16.5449 1.5 14.75V4.75C1.5 2.95507 2.95507 1.5 4.75 1.5H14.75C16.5449 1.5 18 2.95507 18 4.75V14.75ZM14.75 19.5C17.3734 19.5 19.5 17.3734 19.5 14.75V4.75C19.5 2.12665 17.3734 0 14.75 0H4.75C2.12665 0 0 2.12665 0 4.75V14.75C0 17.3734 2.12665 19.5 4.75 19.5H14.75ZM13 13.75C13 14.1642 13.3358 14.5 13.75 14.5C14.1642 14.5 14.5 14.1642 14.5 13.75V9.75C14.5 9.33579 14.1642 9 13.75 9C13.3358 9 13 9.33579 13 9.75V13.75ZM13.75 7.50977C13.3358 7.50977 13 7.17398 13 6.75977V6.74977C13 6.33555 13.3358 5.99977 13.75 5.99977C14.1642 5.99977 14.5 6.33555 14.5 6.74977V6.75977C14.5 7.17398 14.1642 7.50977 13.75 7.50977ZM4.04776 13.4865C3.90232 13.8743 4.09882 14.3066 4.48666 14.452C4.8745 14.5975 5.30681 14.401 5.45225 14.0131L6.39476 11.4998H9.10525L10.0478 14.0131C10.1932 14.401 10.6255 14.5975 11.0133 14.452C11.4012 14.3066 11.5977 13.8743 11.4523 13.4865L8.45225 5.48645C8.34248 5.19373 8.06264 4.9998 7.75 4.9998C7.43737 4.9998 7.15753 5.19373 7.04776 5.48645L4.04776 13.4865ZM7.75 7.8858L8.54275 9.9998H6.95726L7.75 7.8858Z" fill="#292927"/>
</g>
</svg>
