<svg preserveAspectRatio="xMidYMid meet" overflow="visible" style="display: block;" viewBox="0 0 24 24" fill="none" xmlns="http://www.w3.org/2000/svg">
<g transform="translate(2.2500, 2.2500)">
<path id="Vector" fill-rule="evenodd" clip-rule="evenodd" d="M0 8.25C0 8.66421 0.335786 9 0.75 9C1.16421 9 1.5 8.66421 1.5 8.25V5.25C1.5 4.83579 1.16421 4.5 0.75 4.5C0.335786 4.5 0 4.83579 0 5.25V8.25ZM8.25 1.5C8.66421 1.5 9 1.16421 9 0.75C9 0.335786 8.66421 0 8.25 0H5.25C4.83579 0 4.5 0.335786 4.5 0.75C4.5 1.16421 4.83579 1.5 5.25 1.5H8.25ZM6 14.25C6 14.6642 6.33579 15 6.75 15C7.16421 15 7.5 14.6642 7.5 14.25V13.5H12.15C12.8956 13.5 13.5 12.8956 13.5 12.15V7.5H14.25C14.6642 7.5 15 7.16421 15 6.75C15 6.33579 14.6642 6 14.25 6H13.5V5.25C13.5 4.83579 13.1642 4.5 12.75 4.5C12.3358 4.5 12 4.83579 12 5.25V6H7.35C6.60442 6 6 6.60442 6 7.35V12H5.25C4.83579 12 4.5 12.3358 4.5 12.75C4.5 13.1642 4.83579 13.5 5.25 13.5H6V14.25ZM12 12H7.5V7.5H12V12ZM14.25 19.5C14.6642 19.5 15 19.1642 15 18.75C15 18.3358 14.6642 18 14.25 18H11.25C10.8358 18 10.5 18.3358 10.5 18.75C10.5 19.1642 10.8358 19.5 11.25 19.5H14.25ZM18 14.25C18 14.6642 18.3358 15 18.75 15C19.1642 15 19.5 14.6642 19.5 14.25V11.25C19.5 10.8358 19.1642 10.5 18.75 10.5C18.3358 10.5 18 10.8358 18 11.25V14.25ZM9 18.75C9 19.1642 8.66421 19.5 8.25 19.5H7.35C6.60442 19.5 6 18.8956 6 18.15V17.25C6 16.8358 6.33579 16.5 6.75 16.5C7.16421 16.5 7.5 16.8358 7.5 17.25V18H8.25C8.66421 18 9 18.3358 9 18.75ZM17.25 18H18V17.25C18 16.8358 18.3358 16.5 18.75 16.5C19.1642 16.5 19.5 16.8358 19.5 17.25V18.15C19.5 18.8956 18.8956 19.5 18.15 19.5H17.25C16.8358 19.5 16.5 19.1642 16.5 18.75C16.5 18.3358 16.8358 18 17.25 18ZM18.75 9C18.3358 9 18 8.66421 18 8.25V7.5H17.25C16.8358 7.5 16.5 7.16421 16.5 6.75C16.5 6.33579 16.8358 6 17.25 6H18.15C18.8956 6 19.5 6.60442 19.5 7.35V8.25C19.5 8.66421 19.1642 9 18.75 9ZM2.25 13.5C2.66421 13.5 3 13.1642 3 12.75C3 12.3358 2.66421 12 2.25 12H1.5V11.25C1.5 10.8358 1.16421 10.5 0.75 10.5C0.335786 10.5 0 10.8358 0 11.25V12.15C0 12.8956 0.604416 13.5 1.35 13.5H2.25ZM0.75 3C0.335786 3 0 2.66421 0 2.25V1.35C0 0.604416 0.604416 0 1.35 0H2.25C2.66421 0 3 0.335786 3 0.75C3 1.16421 2.66421 1.5 2.25 1.5H1.5V2.25C1.5 2.66421 1.16421 3 0.75 3ZM12 2.25C12 2.66421 12.3358 3 12.75 3C13.1642 3 13.5 2.66421 13.5 2.25V1.35C13.5 0.604416 12.8956 0 12.15 0H11.25C10.8358 0 10.5 0.335786 10.5 0.75C10.5 1.16421 10.8358 1.5 11.25 1.5H12V2.25Z" fill="#292927"/>
</g>
</svg>
