<svg preserveAspectRatio="xMidYMid meet" overflow="visible" style="display: block;" viewBox="0 0 24 24" fill="none" xmlns="http://www.w3.org/2000/svg">
<g transform="translate(2.2500, 6.2500)">
<path id="Vector" fill-rule="evenodd" clip-rule="evenodd" d="M0.21967 5.21967C-0.0732233 5.51256 -0.0732233 5.98744 0.21967 6.28033L5.21967 11.2803C5.51256 11.5732 5.98744 11.5732 6.28033 11.2803C6.57322 10.9874 6.57322 10.5126 6.28033 10.2197L1.81066 5.75L6.28033 1.28033C6.57322 0.987437 6.57322 0.512563 6.28033 0.21967C5.98744 -0.0732234 5.51256 -0.0732234 5.21967 0.21967L0.21967 5.21967ZM14.2803 0.21967L19.2803 5.21967C19.5732 5.51256 19.5732 5.98744 19.2803 6.28033L14.2803 11.2803C13.9874 11.5732 13.5126 11.5732 13.2197 11.2803C12.9268 10.9874 12.9268 10.5126 13.2197 10.2197L17.6893 5.75L13.2197 1.28033C12.9268 0.987437 12.9268 0.512563 13.2197 0.21967C13.5126 -0.0732234 13.9874 -0.0732234 14.2803 0.21967Z" fill="#292927"/>
</g>
</svg>
