<svg preserveAspectRatio="xMidYMid meet" overflow="visible" style="display: block;" viewBox="0 0 24 24" fill="none" xmlns="http://www.w3.org/2000/svg">
<g transform="translate(4.0480, 3.3930)">
<path id="Vector" fill-rule="evenodd" clip-rule="evenodd" d="M7.15735 1.70471C7.03127 1.8328 6.90411 2.06399 6.90411 2.46429V4.46313V4.46355C6.90411 4.87776 6.56833 5.21429 6.15411 5.21429C5.7399 5.21429 5.40411 4.87849 5.40411 4.46428V4.46386V2.46429V2.34794C5.40411 2.01141 5.15054 1.71387 4.65411 1.71387C4.2399 1.71387 3.90411 2.04965 3.90411 2.46387V6.45776C3.90416 6.46231 3.90416 6.46686 3.90411 6.4714V9.46387C3.90411 9.87808 3.56833 10.2139 3.15411 10.2139C2.7399 10.2139 2.40411 9.87808 2.40411 9.46387V8.71399L1.75001 9.58612C1.3891 10.0673 1.42211 10.7374 1.82857 11.1808L5.61246 15.3087C5.84948 15.5672 6.18296 15.714 6.53297 15.714H11.1541C12.197 15.714 12.9947 15.3908 13.5286 14.8664C14.0603 14.3442 14.4041 13.5502 14.4041 12.464V3.89258L14.4041 3.88861C14.4034 3.49041 14.2766 3.26017 14.1509 3.13244C14.0186 2.99808 13.8399 2.92773 13.6541 2.92773C13.4684 2.92773 13.2896 2.99808 13.1574 3.13244C13.0313 3.26053 12.9041 3.49173 12.9041 3.89202V4.46267V4.4628C12.9041 4.87702 12.5683 5.21358 12.1541 5.21358C11.7399 5.21358 11.4041 4.87779 11.4041 4.46358V4.46345V3.89202V2.99065C11.4041 2.59036 11.277 2.35916 11.1509 2.23108C11.0186 2.09671 10.8399 2.02637 10.6541 2.02637C10.4684 2.02637 10.2896 2.09671 10.1574 2.23108C10.0313 2.35916 9.90411 2.59036 9.90411 2.99065V4.46347V4.46418C9.90411 4.87839 9.56833 5.21429 9.15411 5.21429C8.7399 5.21429 8.40411 4.87849 8.40411 4.46428V4.46357V2.99065V2.46437C8.40411 2.06408 8.27696 1.8328 8.15087 1.70471C8.01861 1.57035 7.83987 1.5 7.65411 1.5C7.46836 1.5 7.28962 1.57035 7.15735 1.70471ZM2.40411 6.21399V2.46387C2.40411 1.22123 3.41147 0.213867 4.65411 0.213867C5.17046 0.213867 5.67277 0.374892 6.07131 0.669961C6.07697 0.664087 6.08265 0.658245 6.08837 0.652434C6.51861 0.215367 7.08987 0 7.65411 0C8.21836 0 8.78962 0.215367 9.21985 0.652434C9.29495 0.728726 9.36447 0.810426 9.4281 0.897198C9.79833 0.649071 10.2282 0.526367 10.6541 0.526367C11.2184 0.526367 11.7896 0.741735 12.2199 1.1788C12.3691 1.33041 12.4963 1.50338 12.5991 1.69507C12.9276 1.51629 13.2923 1.42773 13.6541 1.42773C14.2184 1.42773 14.7896 1.6431 15.2199 2.08017C15.6563 2.52351 15.9041 3.14946 15.9041 3.89202L15.9041 3.89654V12.4639C15.9041 13.8777 15.4479 15.0838 14.5796 15.9366C13.7135 16.7872 12.5112 17.214 11.1541 17.214H6.53297C5.76176 17.214 5.02735 16.8902 4.50673 16.3222L0.722839 12.1944C-0.171375 11.2189 -0.243993 9.7448 0.550012 8.68612L2.40411 6.21399Z" fill="#292927"/>
</g>
</svg>
