<svg preserveAspectRatio="xMidYMid meet" overflow="visible" style="display: block;" viewBox="0 0 24 24" fill="none" xmlns="http://www.w3.org/2000/svg">
<g transform="translate(1.2500, 1.2500)">
<path id="Vector" fill-rule="evenodd" clip-rule="evenodd" d="M1.5 10.75C1.5 5.64137 5.64137 1.5 10.75 1.5C15.8586 1.5 20 5.64137 20 10.75C20 15.8586 15.8586 20 10.75 20C9.06393 20 7.48533 19.5496 6.12554 18.763C5.9706 18.6733 5.7887 18.6421 5.61272 18.6748L2.18742 19.3126L2.82515 15.8873C2.85792 15.7113 2.82666 15.5294 2.73703 15.3745C1.95043 14.0147 1.5 12.4361 1.5 10.75ZM10.75 0C4.81294 0 0 4.81294 0 10.75C0 12.6063 0.471126 14.3546 1.30076 15.8798L0.512671 20.1127C0.467419 20.3558 0.544853 20.6055 0.71967 20.7803C0.894487 20.9551 1.14423 21.0326 1.38728 20.9873L5.62016 20.1992C7.14536 21.0289 8.89369 21.5 10.75 21.5C16.6871 21.5 21.5 16.6871 21.5 10.75C21.5 4.81294 16.6871 0 10.75 0ZM6 8.75C6 8.33579 6.33579 8 6.75 8L14.75 8C15.1642 8 15.5 8.33579 15.5 8.75C15.5 9.16421 15.1642 9.5 14.75 9.5L6.75 9.5C6.33579 9.5 6 9.16421 6 8.75ZM6 12.75C6 12.3358 6.33579 12 6.75 12H10.75C11.1642 12 11.5 12.3358 11.5 12.75C11.5 13.1642 11.1642 13.5 10.75 13.5H6.75C6.33579 13.5 6 13.1642 6 12.75Z" fill="#292927"/>
</g>
</svg>
