<svg preserveAspectRatio="xMidYMid meet" overflow="visible" style="display: block;" viewBox="0 0 24 24" fill="none" xmlns="http://www.w3.org/2000/svg">
<g transform="translate(1.2500, 1.2500)">
<path id="Vector" fill-rule="evenodd" clip-rule="evenodd" d="M10.75 1.5C5.64137 1.5 1.5 5.64137 1.5 10.75C1.5 15.8586 5.64137 20 10.75 20C11.3845 20 12.0034 19.9362 12.6008 19.815C13.0067 19.7326 13.4026 19.9948 13.485 20.4008C13.5674 20.8067 13.3051 21.2026 12.8992 21.285C12.2041 21.4261 11.4853 21.5 10.75 21.5C4.81294 21.5 0 16.6871 0 10.75C0 4.81294 4.81294 0 10.75 0C16.6871 0 21.5 4.81294 21.5 10.75C21.5 11.0226 21.4898 11.293 21.4699 11.5607C21.439 11.9738 21.0792 12.2837 20.6661 12.2528C20.253 12.222 19.9432 11.8621 19.974 11.4491C19.9912 11.2184 20 10.9853 20 10.75C20 5.64137 15.8586 1.5 10.75 1.5ZM8.3504 7.13213C9.02899 6.7359 9.85371 6.5 10.75 6.5C12.7543 6.5 14.3566 7.66672 14.8425 9.13555C14.9726 9.5288 15.3969 9.74214 15.7901 9.61205C16.1834 9.48196 16.3967 9.05771 16.2666 8.66445C15.5488 6.49451 13.3047 5 10.75 5C9.59057 5 8.50445 5.3052 7.59404 5.83679C7.23634 6.04565 7.11569 6.50494 7.32455 6.86264C7.53341 7.22034 7.9927 7.34099 8.3504 7.13213ZM6.72962 8.93934C6.88517 8.55544 6.70006 8.11814 6.31616 7.96259C5.93226 7.80703 5.49495 7.99215 5.3394 8.37604C5.12005 8.9174 5 9.5022 5 10.1115V14.75C5 15.1642 5.33579 15.5 5.75 15.5C6.16421 15.5 6.5 15.1642 6.5 14.75V10.1115C6.5 9.70134 6.58046 9.30745 6.72962 8.93934ZM16.5 11.5654C16.5 11.1512 16.1642 10.8154 15.75 10.8154C15.3358 10.8154 15 11.1512 15 11.5654V12.25C15 12.6642 15.3358 13 15.75 13C16.1642 13 16.5 12.6642 16.5 12.25V11.5654ZM9.5 10.6029C9.5 10.0467 10.0047 9.5 10.75 9.5C11.4953 9.5 12 10.0467 12 10.6029V15.75C12 16.1642 12.3358 16.5 12.75 16.5C13.1642 16.5 13.5 16.1642 13.5 15.75V10.6029C13.5 9.11247 12.2138 8 10.75 8C9.28618 8 8 9.11247 8 10.6029V11.3971C8 11.8113 8.33579 12.1471 8.75 12.1471C9.16421 12.1471 9.5 11.8113 9.5 11.3971V10.6029ZM9.5 13.5735C9.5 13.1593 9.16421 12.8235 8.75 12.8235C8.33579 12.8235 8 13.1593 8 13.5735V15.75C8 16.1642 8.33579 16.5 8.75 16.5C9.16421 16.5 9.5 16.1642 9.5 15.75V13.5735ZM18.25 13C17.3231 13 16.6805 13.4245 16.2981 13.9821C15.943 14.5 15.8333 15.0955 15.8333 15.5V16.6024C15.3441 16.8052 15 17.2874 15 17.85V20.15C15 20.8956 15.6044 21.5 16.35 21.5H20.15C20.8956 21.5 21.5 20.8956 21.5 20.15V17.85C21.5 17.2874 21.1559 16.8052 20.6667 16.6024V15.5C20.6667 15.0955 20.557 14.5 20.2019 13.9821C19.8195 13.4245 19.1769 13 18.25 13ZM19.1667 15.5V16.5H17.3333V15.5C17.3333 15.3212 17.3903 15.0417 17.5352 14.8304C17.6528 14.6589 17.8436 14.5 18.25 14.5C18.6564 14.5 18.8472 14.6589 18.9648 14.8304C19.1097 15.0417 19.1667 15.3212 19.1667 15.5ZM16.5 20V18H20V20H16.5Z" fill="#292927"/>
</g>
</svg>
