<svg preserveAspectRatio="xMidYMid meet" overflow="visible" style="display: block;" viewBox="0 0 24 24" fill="none" xmlns="http://www.w3.org/2000/svg">
<g transform="translate(2.6893, 2.0000)">
<path id="Vector" fill-rule="evenodd" clip-rule="evenodd" d="M4.58511 0.192543C4.36496 -0.0055928 4.04882 -0.0556099 3.77826 0.0648889C3.50769 0.185388 3.33339 0.453831 3.33339 0.750014V5.30421L1.1917 3.74384C0.856913 3.49992 0.387788 3.57359 0.143875 3.90837C-0.100038 4.24315 -0.0263737 4.71228 0.308409 4.95619L2.77052 6.75001L0.308409 8.54384C-0.0263736 8.78775 -0.100038 9.25688 0.143875 9.59166C0.387788 9.92644 0.856913 10.0001 1.1917 9.75619L3.33339 8.19582V12.75C3.33339 13.0462 3.50769 13.3146 3.77826 13.4351C4.04882 13.5556 4.36496 13.5056 4.58511 13.3075L8.25178 10.0075C8.41986 9.85621 8.51071 9.63717 8.49905 9.41134C8.4874 9.18551 8.37446 8.977 8.1917 8.84384L5.31782 6.75001L8.1917 4.65619C8.37446 4.52303 8.4874 4.31452 8.49905 4.08869C8.51071 3.86285 8.41986 3.64382 8.25178 3.49254L4.58511 0.192543ZM6.56069 9.51142L4.83339 8.25296V11.066L6.56069 9.51142ZM4.83339 2.43404V5.24707L6.56069 3.98861L4.83339 2.43404ZM17.7804 6.78033C18.9017 5.65901 18.9017 3.84099 17.7804 2.71967C16.6591 1.59835 14.8411 1.59835 13.7197 2.71967L12.7197 3.71967L9.71974 6.71967C9.42684 7.01256 9.42684 7.48744 9.71974 7.78033C10.0126 8.07322 10.4875 8.07322 10.7804 7.78033L13.2501 5.31066L15.1894 7.25L4.91559 17.5238C4.88355 17.5559 4.84341 17.5786 4.79945 17.5896L2.28086 18.2192L2.97773 15.4319C3.0782 15.03 2.83388 14.6228 2.43203 14.5223C2.03019 14.4219 1.62299 14.6662 1.52252 15.068L0.522461 19.0681C0.458561 19.3237 0.533447 19.594 0.719732 19.7803C0.906017 19.9666 1.17638 20.0415 1.43197 19.9776L5.16325 19.0448C5.47096 18.9679 5.75197 18.8088 5.97625 18.5845L16.7804 7.78033L17.7804 6.78033ZM14.7804 3.78033L14.3107 4.25L16.2501 6.18934L16.7197 5.71967C17.2553 5.18414 17.2553 4.31586 16.7197 3.78033C16.1842 3.2448 15.3159 3.2448 14.7804 3.78033Z" fill="#292927"/>
</g>
</svg>
