<svg preserveAspectRatio="xMidYMid meet" overflow="visible" style="display: block;" viewBox="0 0 24 24" fill="none" xmlns="http://www.w3.org/2000/svg">
<g transform="translate(1.2500, 4.2500)">
<path id="Vector" fill-rule="evenodd" clip-rule="evenodd" d="M1.5 14V13.4515C4.32127 13.084 6.5 10.6714 6.5 7.75C6.5 4.82855 4.32127 2.41598 1.5 2.04847V1.5H10V4.07501C8.28832 4.42247 7 5.93578 7 7.75C7 9.56422 8.28832 11.0775 10 11.425V14H1.5ZM0 14.15V12.75V2.75V1.35C0 0.604415 0.604417 0 1.35 0H20.15C20.8956 0 21.5 0.604417 21.5 1.35V2.75V12.75V14.15C21.5 14.8956 20.8956 15.5 20.15 15.5H1.35C0.604415 15.5 0 14.8956 0 14.15ZM20 11.934V3.56597C18.0105 3.9202 16.5 5.6587 16.5 7.75C16.5 9.8413 18.0105 11.5798 20 11.934ZM20 2.04847C17.1787 2.41598 15 4.82855 15 7.75C15 10.6714 17.1787 13.084 20 13.4515V14H11.5V11.425C13.2117 11.0775 14.5 9.56422 14.5 7.75C14.5 5.93578 13.2117 4.42247 11.5 4.07501V1.5H20V2.04847ZM5 7.75C5 9.8413 3.48951 11.5798 1.5 11.934V3.56597C3.48951 3.9202 5 5.6587 5 7.75ZM11.5 5.62803C12.3739 5.93691 13 6.77034 13 7.75C13 8.72966 12.3739 9.56309 11.5 9.87197V5.62803ZM10 5.62803V9.87197C9.12611 9.56309 8.5 8.72966 8.5 7.75C8.5 6.77034 9.12611 5.93691 10 5.62803Z" fill="#292927"/>
</g>
</svg>
