<svg preserveAspectRatio="xMidYMid meet" overflow="visible" style="display: block;" viewBox="0 0 24 24" fill="none" xmlns="http://www.w3.org/2000/svg">
<g transform="translate(1.2500, 2.2500)">
<path id="Vector" fill-rule="evenodd" clip-rule="evenodd" d="M1.5 6.75C1.5 3.85051 3.85051 1.5 6.75 1.5H14.75C17.6495 1.5 20 3.85051 20 6.75V12.75C20 15.6495 17.6495 18 14.75 18H6.75C3.85051 18 1.5 15.6495 1.5 12.75V6.75ZM6.75 0C3.02208 0 0 3.02208 0 6.75V12.75C0 16.4779 3.02208 19.5 6.75 19.5H14.75C18.4779 19.5 21.5 16.4779 21.5 12.75V6.75C21.5 3.02208 18.4779 0 14.75 0H6.75ZM9.75 7.5C10.1642 7.5 10.5 7.16421 10.5 6.75C10.5 6.33579 10.1642 6 9.75 6H4.75C4.33579 6 4 6.33579 4 6.75V9.74487L3.99998 9.75L4 9.75513V12.75C4 13.1642 4.33579 13.5 4.75 13.5C5.16421 13.5 5.5 13.1642 5.5 12.75V10.5H8.32141C8.73562 10.5 9.07141 10.1642 9.07141 9.75C9.07141 9.33579 8.73562 9 8.32141 9H5.5V7.5H9.75ZM12.3262 6.26988C12.061 5.95167 11.5881 5.90868 11.2699 6.17385C10.9517 6.43903 10.9087 6.91195 11.1738 7.23016L13.2737 9.75002L11.1738 12.2699C10.9087 12.5881 10.9517 13.061 11.2699 13.3262C11.5881 13.5914 12.061 13.5484 12.3262 13.2302L14.25 10.9216L16.1738 13.2302C16.439 13.5484 16.9119 13.5914 17.2301 13.3262C17.5483 13.061 17.5913 12.5881 17.3262 12.2699L15.2263 9.75002L17.3262 7.23016C17.5913 6.91195 17.5483 6.43903 17.2301 6.17385C16.9119 5.90868 16.439 5.95167 16.1738 6.26988L14.25 8.57848L12.3262 6.26988Z" fill="#292927"/>
</g>
</svg>
