<svg preserveAspectRatio="xMidYMid meet" overflow="visible" style="display: block;" viewBox="0 0 24 24" fill="none" xmlns="http://www.w3.org/2000/svg">
<g transform="translate(5.2500, 2.0000)">
<path id="Vector" fill-rule="evenodd" clip-rule="evenodd" d="M10.75 1.5C10.0596 1.5 9.5 2.05964 9.5 2.75C9.5 3.44036 10.0596 4 10.75 4C11.4404 4 12 3.44036 12 2.75C12 2.05964 11.4404 1.5 10.75 1.5ZM8 2.75C8 1.23122 9.23122 0 10.75 0C12.2688 0 13.5 1.23122 13.5 2.75C13.5 4.00878 12.6543 5.07002 11.5 5.39648V14.75C11.5 16.4827 10.7676 17.8214 9.65602 18.7107C8.56355 19.5846 7.13983 20 5.75 20C4.36017 20 2.93645 19.5846 1.84398 18.7107C0.732438 17.8214 0 16.4827 0 14.75V10.75C0 10.4467 0.182732 10.1732 0.462987 10.0571C0.743243 9.941 1.06583 10.0052 1.28033 10.2197L3.28033 12.2197C3.57322 12.5126 3.57322 12.9874 3.28033 13.2803C2.98744 13.5732 2.51256 13.5732 2.21967 13.2803L1.5 12.5607V14.75C1.5 16.0173 2.01756 16.9286 2.78102 17.5393C3.56355 18.1654 4.63983 18.5 5.75 18.5C6.86017 18.5 7.93645 18.1654 8.71898 17.5393C9.48244 16.9286 10 16.0173 10 14.75V5.39648C8.84575 5.07002 8 4.00878 8 2.75Z" fill="#292927"/>
</g>
</svg>
