<svg preserveAspectRatio="xMidYMid meet" overflow="visible" style="display: block;" viewBox="0 0 24 24" fill="none" xmlns="http://www.w3.org/2000/svg">
<g transform="translate(1.2335, 2.2500)">
<path id="Vector" fill-rule="evenodd" clip-rule="evenodd" d="M4.97318 19.5C6.94057 19.5 8.57348 17.9796 8.71365 16.0172L9.51359 4.81823C9.51489 4.80606 9.51648 4.79005 9.5182 4.77047C9.52162 4.73132 9.52553 4.67768 9.52849 4.61159C9.53438 4.47973 9.53653 4.29638 9.5229 4.07823C9.49591 3.64633 9.40559 3.05377 9.14118 2.44939C8.87371 1.83802 8.42597 1.21157 7.69429 0.743296C6.96415 0.276007 6.00412 0 4.76653 0C3.52895 0 2.56892 0.276007 1.83878 0.743296C1.10709 1.21157 0.659357 1.83802 0.391888 2.44939C0.127478 3.05377 0.037159 3.64633 0.0101719 4.07823C-0.00345893 4.29638 -0.00130553 4.47973 0.00458341 4.61159C0.00753503 4.67768 0.011447 4.73132 0.0148736 4.77047C0.0165873 4.79005 0.0182209 4.80639 0.0195218 4.81856L0.819422 16.0172C0.959593 17.9796 2.5925 19.5 4.55989 19.5H4.97318ZM1.57202 5.5H7.96105L7.85391 7H1.67916L1.57202 5.5ZM1.7863 8.5H7.74677L7.21746 15.9103C7.13336 17.0877 6.15361 18 4.97318 18H4.55989C3.37946 18 2.39971 17.0877 2.31561 15.9103L1.7863 8.5ZM8.01114 4H1.52193C1.55301 3.71369 1.62285 3.3781 1.76613 3.05061C1.93615 2.66198 2.20716 2.28843 2.64736 2.0067C3.0891 1.72399 3.75409 1.5 4.76653 1.5C5.77898 1.5 6.44397 1.72399 6.88571 2.0067C7.32591 2.28843 7.59692 2.66198 7.76694 3.05061C7.91022 3.3781 7.98006 3.71369 8.01114 4ZM16.9731 19.5C18.9405 19.5 20.5734 17.9796 20.7136 16.0172L21.5135 4.81823C21.5148 4.80606 21.5164 4.79005 21.5181 4.77047C21.5216 4.73132 21.5255 4.67768 21.5284 4.61159C21.5343 4.47973 21.5365 4.29638 21.5228 4.07823C21.4958 3.64633 21.4055 3.05377 21.1411 2.44939C20.8737 1.83802 20.4259 1.21157 19.6942 0.743296C18.9641 0.276007 18.0041 0 16.7665 0C15.5289 0 14.5689 0.276007 13.8387 0.743296C13.107 1.21157 12.6593 1.83802 12.3918 2.44939C12.1274 3.05377 12.0371 3.64633 12.0101 4.07823C11.9965 4.29638 11.9986 4.47973 12.0045 4.61159C12.0075 4.67768 12.0114 4.73132 12.0148 4.77047C12.0165 4.79005 12.0182 4.80639 12.0195 4.81856L12.8194 16.0172C12.9595 17.9796 14.5924 19.5 16.5598 19.5H16.9731ZM13.572 5.5H19.961L19.8538 7H13.6791L13.572 5.5ZM13.7862 8.5H19.7467L19.2174 15.9103C19.1333 17.0877 18.1536 18 16.9731 18H16.5598C15.3794 18 14.3997 17.0877 14.3155 15.9103L13.7862 8.5ZM20.0111 4H13.5219C13.5529 3.71369 13.6228 3.3781 13.7661 3.05061C13.9361 2.66198 14.2071 2.28843 14.6473 2.0067C15.089 1.72399 15.754 1.5 16.7665 1.5C17.7789 1.5 18.4439 1.72399 18.8857 2.0067C19.3259 2.28843 19.5969 2.66198 19.7669 3.05061C19.9102 3.3781 19.98 3.71369 20.0111 4Z" fill="#292927"/>
</g>
</svg>
