<svg preserveAspectRatio="xMidYMid meet" overflow="visible" style="display: block;" viewBox="0 0 24 24" fill="none" xmlns="http://www.w3.org/2000/svg">
<g transform="translate(3.2500, 2.0000)">
<path id="Vector" fill-rule="evenodd" clip-rule="evenodd" d="M8.72016 2.71967C8.42727 3.01256 8.42727 3.48744 8.72016 3.78033L11.2202 6.28033C11.5131 6.57322 11.9879 6.57322 12.2808 6.28033C12.5737 5.98744 12.5737 5.51256 12.2808 5.21967L11.0611 4H12.75C13.1188 4 13.3455 4.09004 13.4902 4.18654C13.6397 4.28617 13.7487 4.42438 13.8292 4.58541C13.9112 4.74938 13.9559 4.92242 13.979 5.0608C13.9902 5.12821 13.9955 5.18275 13.998 5.2175C13.9992 5.23475 13.9997 5.24672 13.9999 5.25253L14 5.25488V14.6035C12.8457 14.93 12 15.9912 12 17.25C12 18.7688 13.2312 20 14.75 20C16.2688 20 17.5 18.7688 17.5 17.25C17.5 15.9912 16.6543 14.93 15.5 14.6035V5.25H14.75C15.5 5.25 15.5 5.24963 15.5 5.24924L15.5 5.24844L15.5 5.24668L15.5 5.2426L15.4998 5.23217L15.4991 5.20255C15.4983 5.17906 15.4969 5.14807 15.4942 5.11063C15.4889 5.036 15.4786 4.93429 15.4585 4.8142C15.4191 4.57758 15.3388 4.25063 15.1708 3.91459C15.0013 3.57562 14.7353 3.21383 14.3223 2.93846C13.9045 2.65997 13.3812 2.5 12.75 2.5H11.0611L12.2808 1.28033C12.5737 0.987437 12.5737 0.512563 12.2808 0.21967C11.9879 -0.0732232 11.5131 -0.0732232 11.2202 0.21967L8.72016 2.71967ZM1.5 3.25C1.5 2.55964 2.05964 2 2.75 2C3.44036 2 4 2.55964 4 3.25C4 3.94031 3.44044 4.49992 2.75015 4.5H2.75C2.05964 4.5 1.5 3.94036 1.5 3.25ZM2 5.89649C0.845748 5.57002 0 4.50878 0 3.25C0 1.73122 1.23122 0.500001 2.75 0.500001C4.26878 0.500001 5.5 1.73122 5.5 3.25C5.5 4.50878 4.65425 5.57002 3.5 5.89649V14.6035C4.65425 14.93 5.5 15.9912 5.5 17.25C5.5 18.7688 4.26878 20 2.75 20C1.23122 20 0 18.7688 0 17.25C0 15.9912 0.845748 14.93 2 14.6035V5.89649ZM2.75 16C2.05964 16 1.5 16.5596 1.5 17.25C1.5 17.9404 2.05964 18.5 2.75 18.5C3.44036 18.5 4 17.9404 4 17.25C4 16.5596 3.44036 16 2.75 16ZM13.5 17.25C13.5 16.5596 14.0596 16 14.75 16C15.4404 16 16 16.5596 16 17.25C16 17.9404 15.4404 18.5 14.75 18.5C14.0596 18.5 13.5 17.9404 13.5 17.25Z" fill="#292927"/>
</g>
</svg>
