<svg preserveAspectRatio="xMidYMid meet" overflow="visible" style="display: block;" viewBox="0 0 24 24" fill="none" xmlns="http://www.w3.org/2000/svg">
<g transform="translate(4.2500, 2.2500)">
<path id="Vector" fill-rule="evenodd" clip-rule="evenodd" d="M2.75 1.5C2.05964 1.5 1.5 2.05964 1.5 2.75V17.3763L6.26292 14.3144C7.16879 13.732 8.33121 13.732 9.23708 14.3144L14 17.3763V2.75C14 2.05964 13.4404 1.5 12.75 1.5H2.75ZM0 2.75C0 1.23122 1.23122 0 2.75 0H12.75C14.2688 0 15.5 1.23122 15.5 2.75V18.75C15.5 19.0244 15.3502 19.2768 15.1094 19.4083C14.8686 19.5398 14.5752 19.5292 14.3444 19.3809L8.42595 15.5761C8.01419 15.3114 7.48581 15.3114 7.07405 15.5761L1.15557 19.3809C0.924786 19.5292 0.631414 19.5398 0.390609 19.4083C0.149804 19.2768 0 19.0244 0 18.75V2.75Z" fill="#292927"/>
</g>
</svg>
