<svg preserveAspectRatio="xMidYMid meet" overflow="visible" style="display: block;" viewBox="0 0 24 24" fill="none" xmlns="http://www.w3.org/2000/svg">
<g transform="translate(0.2500, 3.2500)">
<path id="Vector" fill-rule="evenodd" clip-rule="evenodd" d="M7.14312 3.38587C6.51553 4.43186 6.5 5.72236 6.5 6.75C6.5 7.16421 6.16421 7.5 5.75 7.5C5.03668 7.5 3.95002 7.72016 3.06323 8.35865C2.21468 8.9696 1.5 9.99444 1.5 11.75C1.5 13.5056 2.21468 14.5304 3.06323 15.1413C3.95002 15.7798 5.03668 16 5.75 16H17.75C18.4633 16 19.55 15.7798 20.4368 15.1413C21.2853 14.5304 22 13.5056 22 11.75C22 9.99444 21.2853 8.9696 20.4368 8.35865C19.55 7.72016 18.4633 7.5 17.75 7.5C17.3358 7.5 17 7.16421 17 6.75C17 5.72236 16.9845 4.43186 16.3569 3.38587C15.7794 2.42338 14.5674 1.5 11.75 1.5C8.93264 1.5 7.72061 2.42338 7.14312 3.38587ZM5.85688 2.61413C6.77939 1.07662 8.56736 0 11.75 0C14.9326 0 16.7206 1.07662 17.6431 2.61413C18.3327 3.76348 18.4675 5.07248 18.4937 6.05083C19.359 6.16468 20.3993 6.48336 21.3132 7.14135C22.548 8.0304 23.5 9.50556 23.5 11.75C23.5 13.9944 22.548 15.4696 21.3132 16.3587C20.1167 17.2202 18.7034 17.5 17.75 17.5H5.75C4.79665 17.5 3.38332 17.2202 2.18677 16.3587C0.951983 15.4696 0 13.9944 0 11.75C0 9.50556 0.951983 8.0304 2.18677 7.14135C3.10065 6.48336 4.14099 6.16468 5.00627 6.05083C5.03248 5.07248 5.16727 3.76348 5.85688 2.61413Z" fill="#292927"/>
</g>
</svg>
