<svg preserveAspectRatio="xMidYMid meet" overflow="visible" style="display: block;" viewBox="0 0 24 24" fill="none" xmlns="http://www.w3.org/2000/svg">
<g transform="translate(1.2500, 1.2500)">
<path id="Vector" fill-rule="evenodd" clip-rule="evenodd" d="M7.74831 6C8.50515 3.39998 10.9057 1.5 13.75 1.5C17.2018 1.5 20 4.29822 20 7.75C20 10.5943 18.1 12.9949 15.5 13.7517C15.5 13.7511 15.5 13.7506 15.5 13.75C15.5 9.46979 12.0302 6 7.75 6C7.74944 6 7.74887 6 7.74831 6ZM6.1627 6.1627C6.89511 2.64383 10.0138 0 13.75 0C18.0302 0 21.5 3.46979 21.5 7.75C21.5 11.4862 18.8562 14.6049 15.3373 15.3373C14.6049 18.8562 11.4862 21.5 7.75 21.5C3.46979 21.5 0 18.0302 0 13.75C0 10.0138 2.64383 6.89511 6.1627 6.1627ZM13.7517 15.5C12.9949 18.1 10.5943 20 7.75 20C4.29822 20 1.5 17.2018 1.5 13.75C1.5 10.9057 3.39998 8.50515 6 7.74831C6 7.74887 6 7.74944 6 7.75C6 12.0302 9.46979 15.5 13.75 15.5C13.7506 15.5 13.7511 15.5 13.7517 15.5ZM13.9953 13.9953C13.9139 13.9984 13.8321 14 13.75 14C10.2982 14 7.5 11.2018 7.5 7.75C7.5 7.66786 7.50158 7.58609 7.50472 7.50473C7.58609 7.50159 7.66786 7.5 7.75 7.5C11.2018 7.5 14 10.2982 14 13.75C14 13.8321 13.9984 13.9139 13.9953 13.9953Z" fill="#292927"/>
</g>
</svg>
