<svg preserveAspectRatio="xMidYMid meet" overflow="visible" style="display: block;" viewBox="0 0 24 24" fill="none" xmlns="http://www.w3.org/2000/svg">
<g transform="translate(2.2500, 6.2500)">
<path id="Vector" fill-rule="evenodd" clip-rule="evenodd" d="M5.09483 0C5.35385 0 5.59493 0.134327 5.73185 0.35414L5.73366 0.356998L5.74567 0.375713C5.75711 0.393349 5.7753 0.421008 5.79994 0.457257C5.84928 0.529837 5.92415 0.636356 6.02209 0.76546C6.21891 1.02491 6.50403 1.3691 6.85747 1.71076C7.58885 2.41776 8.49399 3 9.43966 3C10.4108 3 11.4792 2.39399 12.383 1.66593C12.8181 1.31541 13.1828 0.96301 13.4389 0.697804C13.5665 0.565663 13.6659 0.45635 13.7325 0.38132C13.7657 0.343835 13.7907 0.314996 13.8067 0.296246L13.824 0.275898L13.8276 0.271581C13.9701 0.0995646 14.1818 0 14.4052 0C14.6285 0 14.8403 0.0995528 14.9827 0.271544L14.9834 0.272315L14.9873 0.277022L15.0055 0.298528C15.022 0.31806 15.0474 0.347704 15.0808 0.386014C15.1476 0.462689 15.2464 0.57375 15.3711 0.707686C15.6214 0.976532 15.9717 1.33275 16.3744 1.68663C16.7797 2.04281 17.2221 2.38238 17.6563 2.62928C18.1015 2.88246 18.472 3 18.75 3C19.1642 3 19.5 3.33579 19.5 3.75C19.5 4.16421 19.1642 4.5 18.75 4.5C18.097 4.5 17.4588 4.24254 16.9148 3.93322C16.3598 3.61762 15.8324 3.20719 15.3842 2.81337C14.9982 2.47418 14.6592 2.1367 14.398 1.86234C14.121 2.1419 13.7544 2.48728 13.3239 2.83407C12.3657 3.60601 10.9513 4.5 9.43966 4.5C7.90256 4.5 6.63529 3.58224 5.81494 2.78924C5.53491 2.51854 5.29304 2.24895 5.09483 2.00968C4.89661 2.24895 4.65475 2.51854 4.37471 2.78924C3.55437 3.58224 2.28709 4.5 0.75 4.5C0.335786 4.5 0 4.16421 0 3.75C0 3.33579 0.335786 3 0.75 3C1.69566 3 2.6008 2.41776 3.33218 1.71076C3.68563 1.3691 3.97075 1.02491 4.16757 0.76546C4.26551 0.636356 4.34038 0.529837 4.38972 0.457257C4.41436 0.421008 4.43255 0.393349 4.44398 0.375713L4.456 0.356998L4.45781 0.35414C4.59465 0.133926 4.83554 0 5.09483 0ZM5.09483 7C5.35385 7 5.59493 7.13433 5.73185 7.35414L5.73366 7.357L5.74567 7.37571C5.75711 7.39335 5.7753 7.42101 5.79994 7.45726C5.84928 7.52984 5.92415 7.63636 6.02209 7.76546C6.21891 8.02491 6.50403 8.3691 6.85747 8.71076C7.58885 9.41776 8.49399 10 9.43966 10C10.4108 10 11.4792 9.39399 12.383 8.66593C12.8181 8.31541 13.1828 7.96301 13.4389 7.6978C13.5665 7.56566 13.6659 7.45635 13.7325 7.38132C13.7657 7.34383 13.7907 7.315 13.8067 7.29625L13.824 7.2759L13.8276 7.27158C13.9701 7.09956 14.1818 7 14.4052 7C14.6285 7 14.8403 7.09955 14.9827 7.27154L14.9834 7.27232L14.9873 7.27702L15.0055 7.29853C15.022 7.31806 15.0474 7.3477 15.0808 7.38601C15.1476 7.46269 15.2464 7.57375 15.3711 7.70769C15.6214 7.97653 15.9717 8.33275 16.3744 8.68663C16.7797 9.04281 17.2221 9.38238 17.6563 9.62928C18.1015 9.88246 18.472 10 18.75 10C19.1642 10 19.5 10.3358 19.5 10.75C19.5 11.1642 19.1642 11.5 18.75 11.5C18.097 11.5 17.4588 11.2425 16.9148 10.9332C16.3598 10.6176 15.8324 10.2072 15.3842 9.81337C14.9982 9.47418 14.6592 9.1367 14.398 8.86234C14.121 9.1419 13.7544 9.48728 13.3239 9.83407C12.3657 10.606 10.9513 11.5 9.43966 11.5C7.90256 11.5 6.63529 10.5822 5.81494 9.78924C5.53491 9.51854 5.29304 9.24895 5.09483 9.00968C4.89661 9.24895 4.65475 9.51854 4.37471 9.78924C3.55437 10.5822 2.28709 11.5 0.75 11.5C0.335786 11.5 0 11.1642 0 10.75C0 10.3358 0.335786 10 0.75 10C1.69566 10 2.6008 9.41776 3.33218 8.71076C3.68563 8.3691 3.97075 8.02491 4.16757 7.76546C4.26551 7.63636 4.34038 7.52984 4.38972 7.45726C4.41436 7.42101 4.43255 7.39335 4.44398 7.37571L4.456 7.357L4.45781 7.35414C4.59465 7.13393 4.83554 7 5.09483 7Z" fill="#292927"/>
</g>
</svg>
