<svg preserveAspectRatio="xMidYMid meet" overflow="visible" style="display: block;" viewBox="0 0 24 24" fill="none" xmlns="http://www.w3.org/2000/svg">
<g transform="translate(3.2500, 3.2500)">
<path id="Vector" fill-rule="evenodd" clip-rule="evenodd" d="M4.75 0H0.75C0.648308 0 0.551342 0.0202391 0.462912 0.0569091C0.375106 0.0932389 0.2928 0.146963 0.221263 0.218082L0.21967 0.21967L0.218082 0.221263C0.146963 0.2928 0.0932389 0.375106 0.0569091 0.462912C0.0202391 0.551342 0 0.648308 0 0.75V4.75C0 5.16421 0.335786 5.5 0.75 5.5C1.16421 5.5 1.5 5.16421 1.5 4.75V2.56066L7.68934 8.75L1.5 14.9393V12.75C1.5 12.3358 1.16421 12 0.75 12C0.335786 12 0 12.3358 0 12.75V16.75C0 16.8517 0.0202391 16.9487 0.0569091 17.0371C0.093239 17.1249 0.146963 17.2072 0.218082 17.2787L0.21967 17.2803L0.221263 17.2819C0.2928 17.353 0.375106 17.4068 0.462912 17.4431C0.551342 17.4798 0.648308 17.5 0.75 17.5H4.75C5.16421 17.5 5.5 17.1642 5.5 16.75C5.5 16.3358 5.16421 16 4.75 16H2.56066L8.75 9.81066L14.9393 16H12.75C12.3358 16 12 16.3358 12 16.75C12 17.1642 12.3358 17.5 12.75 17.5H16.75C16.8517 17.5 16.9487 17.4798 17.0371 17.4431C17.1235 17.4073 17.2047 17.3547 17.2754 17.2852L17.2852 17.2754C17.3547 17.2047 17.4073 17.1235 17.4431 17.0371C17.4798 16.9487 17.5 16.8517 17.5 16.75V12.75C17.5 12.3358 17.1642 12 16.75 12C16.3358 12 16 12.3358 16 12.75V14.9393L9.81066 8.75L16 2.56066V4.75C16 5.16421 16.3358 5.5 16.75 5.5C17.1642 5.5 17.5 5.16421 17.5 4.75V0.75C17.5 0.648308 17.4798 0.551342 17.4431 0.462912C17.4068 0.375106 17.353 0.2928 17.2819 0.221263L17.2803 0.21967L17.2787 0.218082C17.2072 0.146963 17.1249 0.093239 17.0371 0.0569091C16.9487 0.0202391 16.8517 0 16.75 0H12.75C12.3358 0 12 0.335786 12 0.75C12 1.16421 12.3358 1.5 12.75 1.5H14.9393L8.75 7.68934L2.56066 1.5H4.75C5.16421 1.5 5.5 1.16421 5.5 0.75C5.5 0.335786 5.16421 0 4.75 0Z" fill="#292927"/>
</g>
</svg>
