<svg preserveAspectRatio="xMidYMid meet" overflow="visible" style="display: block;" viewBox="0 0 24 24" fill="none" xmlns="http://www.w3.org/2000/svg">
<g transform="translate(3.2500, 1.2500)">
<path id="Vector" fill-rule="evenodd" clip-rule="evenodd" d="M9.75 0C14.0302 0 17.5 3.46979 17.5 7.75V12.75C17.5 17.5825 13.5825 21.5 8.75 21.5C3.91751 21.5 0 17.5825 0 12.75V8.75C0 3.91751 3.91751 0 8.75 0H9.75ZM8 1.53832C4.34833 1.91362 1.5 4.99918 1.5 8.75V12.75C1.5 16.7541 4.74594 20 8.75 20C12.7541 20 16 16.7541 16 12.75V8.5H9.35C8.60442 8.5 8 7.89558 8 7.15V1.53832ZM15.9555 7H9.5V1.5H9.75C12.948 1.5 15.5849 3.90183 15.9555 7Z" fill="#292927"/>
</g>
</svg>
