<svg preserveAspectRatio="xMidYMid meet" overflow="visible" style="display: block;" viewBox="0 0 24 24" fill="none" xmlns="http://www.w3.org/2000/svg">
<g transform="translate(3.2500, 2.7500)">
<path id="Vector" fill-rule="evenodd" clip-rule="evenodd" d="M2.75 0C3.16421 0 3.5 0.335786 3.5 0.75V13.1035C4.41584 13.3625 5.13745 14.0842 5.39648 15H5.75C7.3729 15 9.4595 14.5083 11.1199 13.2945C12.7481 12.1043 14 10.1999 14 7.25V6.39648C12.8457 6.07002 12 5.00878 12 3.75C12 2.23122 13.2312 1 14.75 1C16.2688 1 17.5 2.23122 17.5 3.75C17.5 5.00878 16.6543 6.07002 15.5 6.39648V7.25C15.5 10.7001 14.0019 13.0457 12.0051 14.5055C10.0405 15.9417 7.6271 16.5 5.75 16.5H5.39648C5.07002 17.6543 4.00878 18.5 2.75 18.5C1.23122 18.5 0 17.2688 0 15.75C0 14.4912 0.845748 13.43 2 13.1035V0.75C2 0.335786 2.33579 0 2.75 0ZM14.75 5C15.4404 5 16 4.44036 16 3.75C16 3.05964 15.4404 2.5 14.75 2.5C14.0596 2.5 13.5 3.05964 13.5 3.75C13.5 4.44036 14.0596 5 14.75 5ZM4 15.75C4 15.0596 3.44036 14.5 2.75 14.5C2.05964 14.5 1.5 15.0596 1.5 15.75C1.5 16.4404 2.05964 17 2.75 17C3.44036 17 4 16.4404 4 15.75Z" fill="#292927"/>
</g>
</svg>
