<svg preserveAspectRatio="xMidYMid meet" overflow="visible" style="display: block;" viewBox="0 0 24 24" fill="none" xmlns="http://www.w3.org/2000/svg">
<g transform="translate(1.2740, 1.2500)">
<path id="Vector" fill-rule="evenodd" clip-rule="evenodd" d="M1.49772 9.8241C1.96174 5.15058 5.90602 1.5 10.702 1.5C14.3859 1.5 17.5682 3.65341 19.0562 6.77344C19.2606 7.20196 19.696 7.5 20.1991 7.5C20.891 7.5 21.452 6.93903 21.452 6.24704V1.75C21.452 1.33579 21.1162 1 20.702 1C20.2878 1 19.952 1.33579 19.952 1.75V5.26976C18.0795 2.11586 14.6385 0 10.702 0C5.12732 0 0.544497 4.24278 0.00506396 9.6759C-0.0358605 10.0881 0.265107 10.4554 0.677294 10.4963C1.08948 10.5373 1.4568 10.2363 1.49772 9.8241ZM14.9492 13.75C14.9492 14.4404 14.3896 15 13.6992 15H7.69922C7.00887 15 6.44922 14.4404 6.44922 13.75V8.75C6.44922 8.05964 7.00887 7.5 7.69922 7.5H9.94919L9.94921 9.75001C9.94922 10.1642 10.285 10.5 10.6992 10.5C11.1134 10.5 11.4492 10.1642 11.4492 9.74999L11.4492 7.5H13.6992C14.3896 7.5 14.9492 8.05964 14.9492 8.75L14.9492 13.75ZM7.69922 6H10.6992H13.6992C15.218 6 16.4492 7.23121 16.4492 8.74999L16.4492 13.75C16.4492 15.2688 15.218 16.5 13.6992 16.5H7.69922C6.18044 16.5 4.94922 15.2688 4.94922 13.75V8.75C4.94922 7.23122 6.18044 6 7.69922 6ZM19.9543 11.6759C19.4903 16.3494 15.546 20 10.75 20C7.06616 20 3.8838 17.8466 2.3958 14.7266C2.19143 14.298 1.75601 14 1.25296 14C0.56097 14 0 14.561 0 15.253V19.75C0 20.1642 0.335787 20.5 0.75 20.5C1.16421 20.5 1.5 20.1642 1.5 19.75V16.2302C3.3725 19.3841 6.81353 21.5 10.75 21.5C16.3247 21.5 20.9075 17.2572 21.447 11.8241C21.4879 11.4119 21.1869 11.0446 20.7747 11.0037C20.3625 10.9627 19.9952 11.2637 19.9543 11.6759Z" fill="#292927"/>
</g>
</svg>
