<svg preserveAspectRatio="xMidYMid meet" overflow="visible" style="display: block;" viewBox="0 0 24 24" fill="none" xmlns="http://www.w3.org/2000/svg">
<g transform="translate(4.7500, 3.1042)">
<path id="Vector" fill-rule="evenodd" clip-rule="evenodd" d="M11.7867 0.291909C12.9502 -0.475258 14.5 0.359233 14.5 1.75292V16.0386C14.5 17.4323 12.9502 18.2668 11.7867 17.4996L5.78762 13.5442C5.74677 13.5173 5.69892 13.5029 5.65 13.5029H2.75C1.23122 13.5029 0 12.2717 0 10.7529V7.03863C0 5.51985 1.23122 4.28863 2.75 4.28863H5.65C5.69892 4.28863 5.74677 4.27428 5.78762 4.24735L11.7867 0.291909ZM13 1.75292C13 1.55382 12.7786 1.43461 12.6124 1.5442L6.6133 5.49964C6.3274 5.68815 5.99246 5.78863 5.65 5.78863H2.75C2.05964 5.78863 1.5 6.34828 1.5 7.03863V10.7529C1.5 11.4433 2.05964 12.0029 2.75 12.0029H5.65C5.99246 12.0029 6.3274 12.1034 6.6133 12.2919L12.6124 16.2473C12.7786 16.3569 13 16.2377 13 16.0386V1.75292Z" fill="#292927"/>
</g>
</svg>
