<svg preserveAspectRatio="xMidYMid meet" overflow="visible" style="display: block;" viewBox="0 0 24 24" fill="none" xmlns="http://www.w3.org/2000/svg">
<g transform="translate(2.2500, 2.2500)">
<path id="Vector" fill-rule="evenodd" clip-rule="evenodd" d="M1.5 18V1.5H18V18H1.5ZM0 18.15C0 18.8956 0.604417 19.5 1.35 19.5H18.15C18.8956 19.5 19.5 18.8956 19.5 18.15V1.35C19.5 0.604414 18.8956 0 18.15 0H1.35C0.604415 0 0 0.604418 0 1.35V18.15ZM3.75 3C4.16421 3 4.5 3.33579 4.5 3.75V13.75C4.5 14.1642 4.16421 14.5 3.75 14.5C3.33579 14.5 3 14.1642 3 13.75V3.75C3 3.33579 3.33579 3 3.75 3ZM8.5 3.75C8.5 3.33579 8.16421 3 7.75 3C7.33579 3 7 3.33579 7 3.75V6.75C7 7.16421 7.33579 7.5 7.75 7.5C8.16421 7.5 8.5 7.16421 8.5 6.75V3.75ZM11.75 3C12.1642 3 12.5 3.33579 12.5 3.75V10.75C12.5 11.1642 12.1642 11.5 11.75 11.5C11.3358 11.5 11 11.1642 11 10.75V3.75C11 3.33579 11.3358 3 11.75 3ZM16.5 3.75C16.5 3.33579 16.1642 3 15.75 3C15.3358 3 15 3.33579 15 3.75V8.75C15 9.16421 15.3358 9.5 15.75 9.5C16.1642 9.5 16.5 9.16421 16.5 8.75V3.75Z" fill="#292927"/>
</g>
</svg>
