<svg preserveAspectRatio="xMidYMid meet" overflow="visible" style="display: block;" viewBox="0 0 24 24" fill="none" xmlns="http://www.w3.org/2000/svg">
<g transform="translate(2.2500, 1.2500)">
<path id="Vector" fill-rule="evenodd" clip-rule="evenodd" d="M17.6963 0.34905C17.4911 0.0248626 17.0744 -0.0922458 16.7304 0.0776233C15.7707 0.551547 14.9137 1.22123 14.0639 1.88522C13.7372 2.14052 13.4115 2.39497 13.0815 2.63714L13.0481 2.61766L13.0481 2.61765L13.0481 2.61764C12.613 2.36396 12.2248 2.13766 11.8282 1.98231C11.2484 1.75519 10.6459 1.66676 9.75 1.66676C8.85414 1.66676 8.25159 1.75519 7.67177 1.98231C7.27553 2.13753 6.8877 2.36357 6.45302 2.617C4.61483 1.09546 3.91495 0.64347 2.9306 0.0949476C2.58809 -0.0959089 2.15638 0.0092585 1.94003 0.336255C0.362787 2.72014 0.300391 4.62414 0.750775 5.98561C0.969729 6.6475 1.29828 7.14461 1.57405 7.47806C1.59973 7.50911 1.625 7.53881 1.64975 7.56715C0.868117 9.17412 0 11.5282 0 14.0834C0 14.4976 0.335786 14.8334 0.75 14.8334C2.00484 14.8334 3.00806 15.2048 3.69898 15.577C4.04433 15.7631 4.30889 15.948 4.48371 16.0831C4.52008 16.1112 4.55247 16.1371 4.58081 16.1603L4.58144 16.1626C4.62212 16.3115 4.68347 16.521 4.76789 16.7712C4.93586 17.2689 5.19942 17.94 5.58069 18.6178C6.32056 19.9331 7.64029 21.5001 9.75 21.5001C11.8597 21.5001 13.1794 19.9331 13.9193 18.6178C14.3006 17.94 14.5641 17.2689 14.7321 16.7712C14.8165 16.521 14.8779 16.3115 14.9186 16.1626L14.9192 16.1603C14.9475 16.1371 14.9799 16.1112 15.0163 16.0831C15.1911 15.948 15.4557 15.7631 15.801 15.577C16.4919 15.2048 17.4952 14.8334 18.75 14.8334C18.9489 14.8334 19.1397 14.7544 19.2803 14.6138C19.421 14.4731 19.5 14.2823 19.5 14.0834C19.5 11.5288 18.6323 9.17521 17.8508 7.56826C17.8753 7.54035 17.9004 7.51111 17.9259 7.48056C18.2029 7.14853 18.5347 6.65372 18.7621 5.99488C19.2296 4.64083 19.208 2.73802 17.6963 0.34905ZM2.63378 5.79292C2.57547 5.88512 2.51069 5.98977 2.44078 6.10608C2.34299 5.93753 2.24957 5.74029 2.17488 5.51451C1.91873 4.74019 1.84251 3.50577 2.82219 1.7657C3.39032 2.19184 3.74844 2.46528 4.76452 3.2411L4.76454 3.24112L4.76486 3.24136L4.76569 3.242C5.07338 3.47693 5.44138 3.75792 5.89376 4.10311C6.13342 4.30362 6.47228 4.33452 6.74426 4.18067C7.70331 3.63818 8.61005 3.16676 9.75 3.16676C10.89 3.16676 11.7967 3.63818 12.7557 4.18067C13.006 4.32221 13.3151 4.30827 13.5515 4.14479C13.9494 3.86969 14.4223 3.50885 14.8997 3.14452L14.8997 3.14451C15.1157 2.97967 15.3326 2.81412 15.544 2.65547C15.9911 2.31985 16.4153 2.01345 16.7908 1.77208C17.7094 3.49811 17.6128 4.72751 17.3442 5.5054C17.2641 5.73752 17.1651 5.93968 17.0626 6.1117C16.9914 5.99314 16.9255 5.88661 16.8662 5.79291C16.7708 5.64205 16.6925 5.52419 16.6371 5.44273C16.6094 5.40199 16.5875 5.37033 16.5719 5.34817L16.5535 5.3221L16.548 5.3145L16.5463 5.31208L16.5452 5.31058C16.3025 4.97495 15.8336 4.89964 15.498 5.14237C15.1624 5.38508 15.0871 5.85398 15.3298 6.18961L15.332 6.1927L15.3442 6.21002C15.3556 6.22624 15.3733 6.25173 15.3967 6.28606C15.4434 6.35475 15.5125 6.45872 15.5984 6.59464C15.7705 6.86667 16.0091 7.26544 16.2698 7.76417C16.9788 9.12062 17.8197 11.158 17.9748 13.372C16.7753 13.4922 15.7984 13.8746 15.0896 14.2565C14.6615 14.4871 14.3284 14.7189 14.0989 14.8963C13.984 14.9851 13.8946 15.0607 13.8317 15.1162C13.8002 15.1439 13.7754 15.1667 13.7572 15.1837L13.735 15.2048L13.7277 15.2118L13.725 15.2145L13.7239 15.2155L13.723 15.2165C13.6209 15.3173 13.5498 15.4456 13.5183 15.5855L13.5167 15.5923L13.5085 15.6261C13.5008 15.6572 13.4886 15.7051 13.4716 15.7673C13.4376 15.8918 13.3846 16.0729 13.3109 16.2915C13.1624 16.7313 12.9338 17.3102 12.6119 17.8824C11.9456 19.0671 11.0153 20.0001 9.75 20.0001C8.48471 20.0001 7.55443 19.0671 6.88805 17.8824C6.56619 17.3102 6.33757 16.7313 6.18913 16.2915C6.11534 16.0729 6.06243 15.8918 6.02841 15.7673C6.01142 15.7051 5.99919 15.6572 5.99148 15.6261L5.98329 15.5922L5.98151 15.5846C5.94991 15.4449 5.87895 15.3172 5.77702 15.2165L5.24999 15.7501C5.77702 15.2165 5.77607 15.2155 5.77607 15.2155L5.77496 15.2145L5.77227 15.2118L5.76497 15.2048L5.74278 15.1837C5.72462 15.1667 5.69975 15.1439 5.66828 15.1162C5.60538 15.0607 5.51595 14.9851 5.40104 14.8963C5.17157 14.7189 4.83847 14.4871 4.41039 14.2565C3.70156 13.8746 2.72469 13.4922 1.52522 13.372C1.68028 11.158 2.52123 9.12062 3.23021 7.76417C3.49088 7.26543 3.72952 6.86667 3.90155 6.59464C3.9875 6.45872 4.05663 6.35474 4.10333 6.28606C4.12667 6.25172 4.14439 6.22624 4.15578 6.21001L4.16802 6.1927L4.17058 6.18911C4.41288 5.85351 4.33748 5.38499 4.00201 5.14237C3.66637 4.89964 3.19705 4.97558 2.95431 5.31122L2.95369 5.31208L2.95195 5.3145L2.94651 5.3221L2.92809 5.34817C2.91253 5.37033 2.89054 5.40199 2.86285 5.44273C2.80747 5.52419 2.72919 5.64205 2.63378 5.79292ZM3.56249 5.7501C2.95477 5.31058 2.95431 5.31122 2.95431 5.31122L3.56249 5.7501ZM10.75 17.5H10.5V17.75C10.5 18.1642 10.1642 18.5 9.75 18.5C9.33579 18.5 9 18.1642 9 17.75V17.5H8.75C8.33579 17.5 8 17.1642 8 16.75C8 16.3358 8.33579 16 8.75 16L10.75 16C11.1642 16 11.5 16.3358 11.5 16.75C11.5 17.1642 11.1642 17.5 10.75 17.5ZM5.71967 10.7197C6.01256 10.4268 6.48744 10.4268 6.78033 10.7197L8.28033 12.2197C8.57323 12.5126 8.57323 12.9874 8.28033 13.2803C7.98744 13.5732 7.51256 13.5732 7.21967 13.2803L5.71967 11.7803C5.42678 11.4874 5.42678 11.0126 5.71967 10.7197ZM12.7197 10.7197C13.0126 10.4268 13.4874 10.4268 13.7803 10.7197C14.0732 11.0126 14.0732 11.4874 13.7803 11.7803L12.2803 13.2803C11.9874 13.5732 11.5126 13.5732 11.2197 13.2803C10.9268 12.9874 10.9268 12.5126 11.2197 12.2197L12.7197 10.7197Z" fill="#292927"/>
</g>
</svg>
