<svg preserveAspectRatio="xMidYMid meet" overflow="visible" style="display: block;" viewBox="0 0 24 24" fill="none" xmlns="http://www.w3.org/2000/svg">
<g transform="translate(2.2500, 2.2491)">
<path id="Vector" fill-rule="evenodd" clip-rule="evenodd" d="M4.7496 0C4.33539 0 3.9996 0.335786 3.9996 0.75V2.0002H3.31319C1.48249 2.0002 0 3.48321 0 5.31208V16.1899C0 17.0671 0.348897 17.911 0.970588 18.532C1.59154 19.1522 2.43365 19.5018 3.31319 19.5018H16.1868C17.0663 19.5018 17.9085 19.1522 18.5294 18.532C19.1511 17.911 19.5 17.0671 19.5 16.1899V9.74768C19.5 5.46896 16.0303 2.0002 11.7516 2.0002H10.5V0.75C10.5 0.335786 10.1642 0 9.75 0H4.7496ZM3.31319 3.5002H4.74959C5.16381 3.5002 5.4996 3.16441 5.4996 2.7502V1.5H9V2.7502C9 3.16441 9.33579 3.5002 9.75 3.5002H11.7516C15.2021 3.5002 18 6.29762 18 9.74768V16.1899C18 16.6697 17.8089 17.1316 17.4694 17.4707C17.1292 17.8105 16.668 18.0018 16.1868 18.0018H3.31319C2.83194 18.0018 2.37088 17.8106 2.03064 17.4707C1.69113 17.1316 1.5 16.6697 1.5 16.1899V5.31208C1.5 4.31186 2.3107 3.5002 3.31319 3.5002ZM14.2882 7.14544C14.5767 6.84822 14.5696 6.3734 14.2724 6.08489C13.9752 5.79639 13.5004 5.80344 13.2118 6.10066L9.74886 9.66817L6.28802 6.10467C5.99944 5.80753 5.52462 5.80059 5.22748 6.08917C4.93034 6.37776 4.9234 6.85258 5.21198 7.14972L8.70363 10.7449L5.21185 14.3421C4.92334 14.6393 4.9304 15.1142 5.22761 15.4027C5.52483 15.6912 5.99965 15.6841 6.28816 15.3869L9.74913 11.8215L13.212 15.387C13.5005 15.6841 13.9753 15.6911 14.2725 15.4026C14.5696 15.1141 14.5765 14.6392 14.288 14.342L10.7952 10.7438L14.2882 7.14544Z" fill="#292927"/>
</g>
</svg>
