<svg preserveAspectRatio="xMidYMid meet" overflow="visible" style="display: block;" viewBox="0 0 24 24" fill="none" xmlns="http://www.w3.org/2000/svg">
<g transform="translate(3.8065, 2.2067)">
<path id="Vector" fill-rule="evenodd" clip-rule="evenodd" d="M10.1572 2.75C10.1572 2.05964 10.7169 1.5 11.4072 1.5C12.0976 1.5 12.6572 2.05964 12.6572 2.75C12.6572 3.44036 12.0976 4 11.4072 4C10.7169 4 10.1572 3.44036 10.1572 2.75ZM11.4072 0C9.88844 0 8.65723 1.23122 8.65723 2.75C8.65723 4.26878 9.88844 5.5 11.4072 5.5C12.926 5.5 14.1572 4.26878 14.1572 2.75C14.1572 1.23122 12.926 0 11.4072 0ZM11.3508 9.81897L9.04634 7.18534L6.71723 10.0967L10.3778 13.7572C10.5988 13.9783 10.6596 14.3133 10.5302 14.5979L8.46261 19.1467C8.29121 19.5238 7.84657 19.6905 7.46949 19.5191C7.0924 19.3477 6.92566 18.9031 7.09706 18.526L8.9496 14.4504L5.18189 10.6827C4.91166 10.4124 4.88784 9.98224 5.12658 9.68382L7.94662 6.15882L6.27345 4.9303L3.34169 7.79395C3.04537 8.08338 2.57053 8.0778 2.2811 7.78148C1.99167 7.48516 1.99725 7.01032 2.29357 6.72089L5.68045 3.4127C5.943 3.15625 6.35256 3.12747 6.64839 3.34469L9.46435 5.4123C9.50845 5.44468 9.54888 5.48178 9.5849 5.52296L12.2555 8.57509H15.6369C16.0511 8.57509 16.3869 8.91088 16.3869 9.32509C16.3869 9.7393 16.0511 10.0751 15.6369 10.0751H11.9152C11.6989 10.0751 11.4932 9.98173 11.3508 9.81897ZM5.71477 14.0846C6.05942 13.8548 6.15255 13.3891 5.92279 13.0445C5.69302 12.6999 5.22737 12.6067 4.88272 12.8365L3.8311 13.5376H0.75C0.335786 13.5376 0 13.8734 0 14.2876C0 14.7018 0.335786 15.0376 0.75 15.0376H4.05818C4.20625 15.0376 4.35101 14.9937 4.47421 14.9116L5.71477 14.0846Z" fill="#FAFAF9"/>
</g>
</svg>
