<svg preserveAspectRatio="xMidYMid meet" overflow="visible" style="display: block;" viewBox="0 0 24 24" fill="none" xmlns="http://www.w3.org/2000/svg">
<g transform="translate(1.2500, 1.2500)">
<path id="Vector" fill-rule="evenodd" clip-rule="evenodd" d="M10.75 0C10.8517 0 10.9487 0.0202391 11.0371 0.0569091C11.1255 0.0935089 11.2084 0.147762 11.2803 0.21967L15.2803 4.21967C15.5732 4.51256 15.5732 4.98744 15.2803 5.28033C14.9874 5.57322 14.5126 5.57322 14.2197 5.28033L11.5 2.56066V11.877C12.5516 10.7237 14.0663 10 15.75 10H18.9393L16.2197 7.28033C15.9268 6.98744 15.9268 6.51256 16.2197 6.21967C16.5126 5.92678 16.9874 5.92678 17.2803 6.21967L21.2803 10.2197C21.5732 10.5126 21.5732 10.9874 21.2803 11.2803L17.2803 15.2803C16.9874 15.5732 16.5126 15.5732 16.2197 15.2803C15.9268 14.9874 15.9268 14.5126 16.2197 14.2197L18.9393 11.5H15.75C13.4028 11.5 11.5 13.4028 11.5 15.75V19.75V20.75C11.5 21.1642 11.1642 21.5 10.75 21.5C10.3358 21.5 10 21.1642 10 20.75V19.75V15.75C10 13.4028 8.0972 11.5 5.75 11.5H2.56066L5.28033 14.2197C5.57322 14.5126 5.57322 14.9874 5.28033 15.2803C4.98744 15.5732 4.51256 15.5732 4.21967 15.2803L0.21967 11.2803C-0.0732233 10.9874 -0.0732233 10.5126 0.21967 10.2197L4.21967 6.21967C4.51256 5.92678 4.98744 5.92678 5.28033 6.21967C5.57322 6.51256 5.57322 6.98744 5.28033 7.28033L2.56066 10H5.75C7.43372 10 8.94841 10.7237 10 11.877V2.56066L7.28033 5.28033C6.98744 5.57322 6.51256 5.57322 6.21967 5.28033C5.92678 4.98744 5.92678 4.51256 6.21967 4.21967L10.2197 0.21967C10.2916 0.147762 10.3745 0.0935089 10.4629 0.0569091C10.5513 0.0202391 10.6483 0 10.75 0Z" fill="#292927"/>
</g>
</svg>
