<svg preserveAspectRatio="xMidYMid meet" overflow="visible" style="display: block;" viewBox="0 0 24 24" fill="none" xmlns="http://www.w3.org/2000/svg">
<g transform="translate(2.2500, 2.2500)">
<path id="Vector" fill-rule="evenodd" clip-rule="evenodd" d="M18 6V1.5H13.5V6H18ZM12 6H7.5V1.5H12V6ZM12.75 0H6.75H1.35C0.604418 0 0 0.604414 0 1.35V6.75V12.75V18.15C0 18.8956 0.604414 19.5 1.35 19.5H6.75H12.75H18.15C18.8956 19.5 19.5 18.8956 19.5 18.15V12.75V6.75V1.35C19.5 0.604418 18.8956 0 18.15 0H12.75ZM13.5 18H18V13.5H13.5V18ZM12 13.5V18H7.5V13.5H12ZM12 12H7.5V7.5H12V12ZM13.5 12V7.5H18V12H13.5ZM6 7.5V12H1.5V7.5H6ZM6 13.5H1.5V18H6V13.5ZM6 6V1.5H1.5V6H6Z" fill="#292927"/>
</g>
</svg>
