<svg preserveAspectRatio="xMidYMid meet" overflow="visible" style="display: block;" viewBox="0 0 24 24" fill="none" xmlns="http://www.w3.org/2000/svg">
<g transform="translate(1.2500, 1.2500)">
<path id="Vector" fill-rule="evenodd" clip-rule="evenodd" d="M1.5 10.75C1.5 5.64137 5.64137 1.5 10.75 1.5C15.8586 1.5 20 5.64137 20 10.75C20 15.8586 15.8586 20 10.75 20C5.64137 20 1.5 15.8586 1.5 10.75ZM10.75 0C4.81294 0 0 4.81294 0 10.75C0 16.6871 4.81294 21.5 10.75 21.5C16.6871 21.5 21.5 16.6871 21.5 10.75C21.5 4.81294 16.6871 0 10.75 0ZM8.85 4C8.10442 4 7.5 4.60442 7.5 5.35V7.5H5.35C4.60442 7.5 4 8.10442 4 8.85V12.65C4 13.3956 4.60442 14 5.35 14H7.5V16.15C7.5 16.8956 8.10442 17.5 8.85 17.5H12.65C13.3956 17.5 14 16.8956 14 16.15V14H16.15C16.8956 14 17.5 13.3956 17.5 12.65V8.85C17.5 8.10442 16.8956 7.5 16.15 7.5H14V5.35C14 4.60442 13.3956 4 12.65 4H8.85ZM9 7.65V5.5H12.5V7.65C12.5 8.39558 13.1044 9 13.85 9H16V12.5H13.85C13.1044 12.5 12.5 13.1044 12.5 13.85V16H9V13.85C9 13.1044 8.39558 12.5 7.65 12.5H5.5V9H7.65C8.39558 9 9 8.39558 9 7.65Z" fill="#292927"/>
</g>
</svg>
