<svg preserveAspectRatio="xMidYMid meet" overflow="visible" style="display: block;" viewBox="0 0 24 24" fill="none" xmlns="http://www.w3.org/2000/svg">
<g transform="translate(3.2500, 1.2500)">
<path id="Vector" fill-rule="evenodd" clip-rule="evenodd" d="M1.5 20V1.5H12V4.15C12 4.89558 12.6044 5.5 13.35 5.5H16V20H1.5ZM15.4393 4H13.5V2.06066L15.4393 4ZM17.5 4.75V20.15C17.5 20.8956 16.8956 21.5 16.15 21.5H1.35C0.604415 21.5 0 20.8956 0 20.15V1.35C0 0.604415 0.604417 0 1.35 0H12.75H13.0015C13.3595 0 13.7029 0.142232 13.9561 0.395406L17.1046 3.54393C17.3578 3.79711 17.5 4.14048 17.5 4.49853V4.75Z" fill="#292927"/>
</g>
</svg>
