<svg preserveAspectRatio="xMidYMid meet" overflow="visible" style="display: block;" viewBox="0 0 24 24" fill="none" xmlns="http://www.w3.org/2000/svg">
<g transform="translate(2.2500, 2.2500)">
<path id="Vector" fill-rule="evenodd" clip-rule="evenodd" d="M13.75 18C16.0972 18 18 16.0972 18 13.75V5.75C18 3.40279 16.0972 1.5 13.75 1.5H5.75C3.40279 1.5 1.5 3.40279 1.5 5.75V13.75C1.5 16.0972 3.40279 18 5.75 18H8V11.5H6.75C6.33579 11.5 6 11.1642 6 10.75C6 10.3358 6.33579 10 6.75 10H8V9.75001C7.99999 8.63857 8.11642 7.41092 8.84445 6.47056C9.60689 5.48575 10.8826 5 12.75 5C13.1642 5 13.5 5.33579 13.5 5.75C13.5 6.16421 13.1642 6.5 12.75 6.5C11.1174 6.5 10.3931 6.9205 10.0305 7.38882C9.63356 7.90158 9.49999 8.67393 9.5 9.74999V10H12.75C13.1642 10 13.5 10.3358 13.5 10.75C13.5 11.1642 13.1642 11.5 12.75 11.5H9.5V18H13.75ZM5.75 19.5H8.75H13.75C16.9256 19.5 19.5 16.9256 19.5 13.75V5.75C19.5 2.57436 16.9256 0 13.75 0H5.75C2.57436 0 0 2.57436 0 5.75V13.75C0 16.9256 2.57436 19.5 5.75 19.5Z" fill="#292927"/>
</g>
</svg>
