<svg preserveAspectRatio="xMidYMid meet" overflow="visible" style="display: block;" viewBox="0 0 24 24" fill="none" xmlns="http://www.w3.org/2000/svg">
<g transform="translate(1.7500, 1.7500)">
<path id="Vector" fill-rule="evenodd" clip-rule="evenodd" d="M12.3504 2.13213C13.029 1.7359 13.8537 1.5 14.75 1.5C16.7543 1.5 18.3566 2.66672 18.8425 4.13555C18.9726 4.5288 19.3969 4.74214 19.7901 4.61205C20.1834 4.48196 20.3967 4.05771 20.2666 3.66445C19.5488 1.49451 17.3047 0 14.75 0C13.5906 0 12.5044 0.305195 11.594 0.836785C11.2363 1.04565 11.1157 1.50494 11.3245 1.86264C11.5334 2.22034 11.9927 2.34099 12.3504 2.13213ZM10.7296 3.93934C10.8852 3.55544 10.7001 3.11814 10.3162 2.96259C9.93226 2.80703 9.49495 2.99215 9.3394 3.37604C9.12005 3.9174 9 4.5022 9 5.11154V9.75C9 10.1642 9.33579 10.5 9.75 10.5C10.1642 10.5 10.5 10.1642 10.5 9.75V5.11154C10.5 4.70134 10.5805 4.30745 10.7296 3.93934ZM20.5 6.56538C20.5 6.15117 20.1642 5.81538 19.75 5.81538C19.3358 5.81538 19 6.15117 19 6.56538V9.75C19 10.1642 19.3358 10.5 19.75 10.5C20.1642 10.5 20.5 10.1642 20.5 9.75V6.56538ZM13.5 5.60294C13.5 5.04671 14.0047 4.5 14.75 4.5C15.4953 4.5 16 5.04671 16 5.60294V10.75C16 11.1642 16.3358 11.5 16.75 11.5C17.1642 11.5 17.5 11.1642 17.5 10.75V5.60294C17.5 4.11247 16.2138 3 14.75 3C13.2862 3 12 4.11247 12 5.60294V6.39706C12 6.81127 12.3358 7.14706 12.75 7.14706C13.1642 7.14706 13.5 6.81127 13.5 6.39706V5.60294ZM13.5 8.57353C13.5 8.15932 13.1642 7.82353 12.75 7.82353C12.3358 7.82353 12 8.15932 12 8.57353V10.75C12 11.1642 12.3358 11.5 12.75 11.5C13.1642 11.5 13.5 11.1642 13.5 10.75V8.57353ZM6.26172 15.1916C6.5696 15.4687 6.59456 15.9429 6.31747 16.2508L6.30747 16.2619C6.03037 16.5697 5.55616 16.5947 5.24827 16.3176C4.94039 16.0405 4.91543 15.5663 5.19253 15.2584L5.20253 15.2473C5.47962 14.9394 5.95384 14.9145 6.26172 15.1916ZM5.75 4.5H1.5V19H10V14.75C10 14.3358 10.3358 14 10.75 14C11.1642 14 11.5 14.3358 11.5 14.75V19.15C11.5 19.8956 10.8956 20.5 10.15 20.5H1.35C0.604415 20.5 0 19.8956 0 19.15V4.35C0 3.60442 0.604416 3 1.35 3H5.75C6.16421 3 6.5 3.33579 6.5 3.75C6.5 4.16421 6.16421 4.5 5.75 4.5Z" fill="#292927"/>
</g>
</svg>
