<svg preserveAspectRatio="xMidYMid meet" overflow="visible" style="display: block;" viewBox="0 0 24 24" fill="none" xmlns="http://www.w3.org/2000/svg">
<g transform="translate(1.2500, 1.2500)">
<path id="Vector" fill-rule="evenodd" clip-rule="evenodd" d="M1.5 1.5V16H16V1.5H1.5ZM0 1.35C0 0.604416 0.604416 0 1.35 0H16.15C16.8956 0 17.5 0.60444 17.5 1.35V16.15C17.5 16.8956 16.8956 17.5 16.15 17.5H1.35C0.60444 17.5 0 16.8956 0 16.15V1.35ZM20.75 6C21.1642 6 21.5 6.33579 21.5 6.75V20.15C21.5 20.8956 20.8956 21.5 20.15 21.5H6.75C6.33579 21.5 6 21.1642 6 20.75C6 20.3358 6.33579 20 6.75 20H20V6.75C20 6.33579 20.3358 6 20.75 6ZM11.75 5.5H10.5V11.25C10.5 12.4926 9.49261 13.5 8.25 13.5C7.00735 13.5 6 12.4926 6 11.25C6 10.0074 7.00735 9 8.25 9C8.51297 9 8.76541 9.04512 9 9.12804V5.35C9 4.60444 9.60436 4 10.35 4H11.75C12.1642 4 12.5 4.33579 12.5 4.75C12.5 5.16421 12.1642 5.5 11.75 5.5ZM8.25 10.5C8.66419 10.5 9 10.8358 9 11.25C9 11.6642 8.66419 12 8.25 12C7.83579 12 7.5 11.6642 7.5 11.25C7.5 10.8358 7.83579 10.5 8.25 10.5Z" fill="#292927"/>
</g>
</svg>
