<svg preserveAspectRatio="xMidYMid meet" overflow="visible" style="display: block;" viewBox="0 0 24 24" fill="none" xmlns="http://www.w3.org/2000/svg">
<g transform="translate(3.2500, 3.2500)">
<path id="Vector" fill-rule="evenodd" clip-rule="evenodd" d="M0.75 17.5C0.335786 17.5 0 17.1642 0 16.75V3.75V0.75C0 0.335787 0.335786 0 0.75 0C1.16421 0 1.5 0.335787 1.5 0.75V3.43934L8.75 10.6893L11.2197 8.21967C11.5126 7.92678 11.9874 7.92678 12.2803 8.21967L16.7803 12.7197C17.0732 13.0126 17.0732 13.4874 16.7803 13.7803C16.4874 14.0732 16.0126 14.0732 15.7197 13.7803L11.75 9.81066L9.28033 12.2803C8.98744 12.5732 8.51256 12.5732 8.21967 12.2803L1.5 5.56066V16H16.75C17.1642 16 17.5 16.3358 17.5 16.75C17.5 17.1642 17.1642 17.5 16.75 17.5H0.75Z" fill="#292927"/>
</g>
</svg>
