<svg preserveAspectRatio="xMidYMid meet" overflow="visible" style="display: block;" viewBox="0 0 24 24" fill="none" xmlns="http://www.w3.org/2000/svg">
<g transform="translate(3.2500, 4.5000)">
<path id="Vector" fill-rule="evenodd" clip-rule="evenodd" d="M0.21967 4.78033C-0.0732233 4.48744 -0.0732233 4.01256 0.21967 3.71967L3.71967 0.21967C4.01256 -0.0732233 4.48744 -0.0732233 4.78033 0.21967C5.07322 0.512563 5.07322 0.987437 4.78033 1.28033L2.56066 3.5H11.75L11.7513 3.5L11.7524 3.5L11.7537 3.50001L11.7592 3.50004L11.7757 3.50023C11.7891 3.50043 11.8072 3.50081 11.8297 3.50152C11.8746 3.50293 11.9373 3.50565 12.0152 3.51088C12.1706 3.52133 12.3882 3.54192 12.6475 3.58259C13.1623 3.66335 13.861 3.82627 14.5693 4.15962C15.2796 4.49385 16.0192 5.00903 16.5808 5.80178C17.1473 6.60153 17.5 7.63848 17.5 8.95588C17.5 10.4022 17.1569 11.5371 16.6034 12.4162C16.0517 13.2925 15.3181 13.8714 14.6009 14.2511C13.8876 14.6287 13.1825 14.8139 12.6616 14.9059C12.3995 14.9521 12.1792 14.9756 12.0214 14.9875C11.9424 14.9935 11.8786 14.9966 11.8326 14.9982C11.8096 14.9991 11.791 14.9995 11.7771 14.9997L11.7599 15L11.754 15L11.75 15V14.25C11.75 14.9936 11.7496 14.9999 11.75 15H3.03571C2.6215 15 2.28571 14.6642 2.28571 14.25C2.28571 13.8358 2.6215 13.5 3.03571 13.5H11.7478H11.7493L11.7515 13.4999L11.7627 13.4997L11.7797 13.4992C11.807 13.4982 11.8506 13.4962 11.9083 13.4918C12.0239 13.4831 12.1943 13.4652 12.4009 13.4287C12.8175 13.3552 13.3624 13.2095 13.8991 12.9254C14.4319 12.6433 14.9483 12.2296 15.3341 11.6169C15.7181 11.007 16 10.1567 16 8.95588C16 7.92034 15.7277 7.19259 15.3567 6.66881C14.9808 6.13803 14.4704 5.77086 13.9307 5.51685C13.389 5.26197 12.8377 5.13077 12.415 5.06447C12.2055 5.03161 12.0325 5.01543 11.9145 5.0075C11.8557 5.00355 11.8109 5.00167 11.7826 5.00078L11.753 5.00006L11.7494 5L11.7483 5H2.56066L4.78033 7.21967C5.07322 7.51256 5.07322 7.98744 4.78033 8.28033C4.48744 8.57322 4.01256 8.57322 3.71967 8.28033L0.21967 4.78033Z" fill="#292927"/>
</g>
</svg>
