<svg preserveAspectRatio="xMidYMid meet" overflow="visible" style="display: block;" viewBox="0 0 24 24" fill="none" xmlns="http://www.w3.org/2000/svg">
<g transform="translate(1.2500, 1.2500)">
<path id="Vector" fill-rule="evenodd" clip-rule="evenodd" d="M1.5 10.75C1.5 5.64137 5.64137 1.5 10.75 1.5C15.8586 1.5 20 5.64137 20 10.75C20 15.8586 15.8586 20 10.75 20C5.64137 20 1.5 15.8586 1.5 10.75ZM10.75 0C4.81294 0 0 4.81294 0 10.75C0 16.6871 4.81294 21.5 10.75 21.5C16.6871 21.5 21.5 16.6871 21.5 10.75C21.5 4.81294 16.6871 0 10.75 0ZM5.89709 7.01471C5.49092 6.93348 5.0958 7.19689 5.01456 7.60306C4.93333 8.00923 5.19674 8.40435 5.60291 8.48558L10 9.365V11.6057L8.05364 16.4716C7.89981 16.8562 8.08687 17.2927 8.47146 17.4465C8.85604 17.6003 9.29252 17.4133 9.44636 17.0287L10.75 13.7696L12.0536 17.0287C12.2075 17.4133 12.644 17.6003 13.0285 17.4465C13.4131 17.2927 13.6002 16.8562 13.4464 16.4716L11.5 11.6057V9.365L15.8971 8.48558C16.3033 8.40435 16.5667 8.00923 16.4854 7.60306C16.4042 7.19689 16.0091 6.93348 15.6029 7.01471L10.75 7.98529L5.89709 7.01471ZM10.75 4C11.4404 4 12 4.55964 12 5.25C12 5.94036 11.4404 6.5 10.75 6.5C10.0596 6.5 9.5 5.94036 9.5 5.25C9.5 4.55964 10.0596 4 10.75 4Z" fill="#292927"/>
</g>
</svg>
