<svg preserveAspectRatio="xMidYMid meet" overflow="visible" style="display: block;" viewBox="0 0 24 24" fill="none" xmlns="http://www.w3.org/2000/svg">
<g transform="translate(2.2500, 2.2500)">
<path id="Vector" fill-rule="evenodd" clip-rule="evenodd" d="M6.5 4V1.5H13V4H6.5ZM5 4V1.35C5 0.604415 5.60442 0 6.35 0H13.15C13.8956 0 14.5 0.604415 14.5 1.35V4H14.75C17.3734 4 19.5 6.12665 19.5 8.75V15.15C19.5 15.8956 18.8956 16.5 18.15 16.5H16.1862L16.3946 17.9591C16.5108 18.7724 15.8797 19.5 15.0582 19.5H4.44178C3.62023 19.5 2.98916 18.7724 3.10534 17.9591L3.31378 16.5H1.35C0.604415 16.5 0 15.8956 0 15.15V8.75C0 6.12665 2.12665 4 4.75 4H5ZM18 15H15.9719L15.566 12.1591C15.471 11.494 14.9014 11 14.2296 11H5.27035C4.59852 11 4.02893 11.494 3.93392 12.1591L3.52807 15H1.5V8.75C1.5 6.95507 2.95507 5.5 4.75 5.5H14.75C16.5449 5.5 18 6.95507 18 8.75V15ZM5.40044 12.5L4.61473 18H14.8852L14.0995 12.5H5.40044ZM15.3175 8.25075C15.5946 7.94287 15.5696 7.46865 15.2617 7.19156C14.9538 6.91446 14.4796 6.93942 14.2025 7.24731L14.1925 7.25842C13.9154 7.5663 13.9404 8.04052 14.2483 8.31761C14.5562 8.59471 15.0304 8.56975 15.3075 8.26186L15.3175 8.25075Z" fill="#292927"/>
</g>
</svg>
