<svg preserveAspectRatio="xMidYMid meet" overflow="visible" style="display: block;" viewBox="0 0 24 24" fill="none" xmlns="http://www.w3.org/2000/svg">
<g transform="translate(2.0000, 2.2498)">
<path id="Vector" fill-rule="evenodd" clip-rule="evenodd" d="M2 0.75C2 0.335786 2.33579 0 2.75 0H8.75H10.75C11.1642 0 11.5 0.335786 11.5 0.75C11.5 1.16421 11.1642 1.5 10.75 1.5H9.5V3H10.75C11.1642 3 11.5 3.33579 11.5 3.75C11.5 4.16421 11.1642 4.5 10.75 4.5H9.5V6H10.75C11.1642 6 11.5 6.33579 11.5 6.75C11.5 7.16421 11.1642 7.5 10.75 7.5H9.5V9.39142C10.7235 10.4449 11.5 12.0071 11.5 13.7504C11.5 16.926 8.92564 19.5004 5.75 19.5004C2.57436 19.5004 0 16.926 0 13.7504C0 12.0071 0.776508 10.4449 2 9.39142V0.75ZM8 6.75V3.75V1.5H3.5V9.65913C3.5 9.67423 3.49955 9.68922 3.49867 9.7041C3.51336 9.94709 3.40964 10.1926 3.20043 10.3497C2.16646 11.1264 1.5 12.3604 1.5 13.7504C1.5 16.0976 3.40279 18.0004 5.75 18.0004C8.09721 18.0004 10 16.0976 10 13.7504C10 12.3604 9.33354 11.1264 8.29957 10.3497C8.09036 10.1926 7.98664 9.94709 8.00133 9.7041C8.00045 9.68923 8 9.67423 8 9.65913V6.75ZM5.75 3C6.16421 3 6.5 3.33579 6.5 3.75V11.1035C7.65425 11.43 8.5 12.4912 8.5 13.75C8.5 15.2688 7.26878 16.5 5.75 16.5C4.23122 16.5 3 15.2688 3 13.75C3 12.4912 3.84575 11.43 5 11.1035V3.75C5 3.33579 5.33579 3 5.75 3ZM5.75 12.5C5.05964 12.5 4.5 13.0596 4.5 13.75C4.5 14.4404 5.05964 15 5.75 15C6.44036 15 7 14.4404 7 13.75C7 13.0596 6.44036 12.5 5.75 12.5ZM19.7803 13.7803L17.2803 16.2803C16.9874 16.5732 16.5126 16.5732 16.2197 16.2803L13.7197 13.7803C13.4268 13.4874 13.4268 13.0126 13.7197 12.7197C14.0126 12.4268 14.4874 12.4268 14.7803 12.7197L16 13.9393V3.75C16 3.33579 16.3358 3 16.75 3C17.1642 3 17.5 3.33579 17.5 3.75V13.9393L18.7197 12.7197C19.0126 12.4268 19.4874 12.4268 19.7803 12.7197C20.0732 13.0126 20.0732 13.4874 19.7803 13.7803Z" fill="#292927"/>
</g>
</svg>
