<svg preserveAspectRatio="xMidYMid meet" overflow="visible" style="display: block;" viewBox="0 0 24 24" fill="none" xmlns="http://www.w3.org/2000/svg">
<g transform="translate(2.2500, 2.2500)">
<path id="Vector" fill-rule="evenodd" clip-rule="evenodd" d="M1.28033 0.21967C0.987437 -0.0732233 0.512563 -0.0732233 0.21967 0.21967C-0.0732232 0.512563 -0.0732232 0.987437 0.21967 1.28033L2.93934 4H1.35C0.604415 4 0 4.60442 0 5.35V14.15C0 14.8956 0.604415 15.5 1.35 15.5H12.15C12.7703 15.5 13.2929 15.0816 13.451 14.5117L18.2197 19.2803C18.5126 19.5732 18.9874 19.5732 19.2803 19.2803C19.5732 18.9874 19.5732 18.5126 19.2803 18.2197L1.28033 0.21967ZM12 13.0607L4.41999 5.48065C4.36537 5.49331 4.30847 5.5 4.25 5.5H1.5V14H12V13.0607ZM9.25 4C8.83579 4 8.5 4.33579 8.5 4.75C8.5 5.16421 8.83579 5.5 9.25 5.5H12V8.46898C12 9.61356 13.335 10.2388 14.2142 9.50607L18 6.35128V13.25C18 13.6642 18.3358 14 18.75 14C19.1642 14 19.5 13.6642 19.5 13.25V6.03102C19.5 4.88645 18.165 4.26118 17.2858 4.99393L13.5 8.14872V5.35C13.5 4.60442 12.8956 4 12.15 4H9.25Z" fill="#292927"/>
</g>
</svg>
