<svg preserveAspectRatio="xMidYMid meet" overflow="visible" style="display: block;" viewBox="0 0 24 24" fill="none" xmlns="http://www.w3.org/2000/svg">
<g transform="translate(3.2500, 2.2500)">
<path id="Vector" fill-rule="evenodd" clip-rule="evenodd" d="M2.75 1.5C2.05964 1.5 1.5 2.05964 1.5 2.75V14.2999C1.87503 14.1081 2.29989 14 2.75 14H16V1.5H10.5V8.75C10.5 9.02408 10.3505 9.27634 10.1101 9.40792C9.86962 9.5395 9.57656 9.52945 9.34571 9.3817L7.25 8.04045L5.15429 9.3817C4.92344 9.52945 4.63038 9.5395 4.38994 9.40792C4.14951 9.27634 4 9.02408 4 8.75V1.5H2.75ZM2.75 15.5H16.75C17.1642 15.5 17.5 15.1642 17.5 14.75C17.5 14.7011 17.4953 14.6534 17.4864 14.6071C17.4953 14.5609 17.5 14.5131 17.5 14.4643V1.35C17.5 0.604415 16.8956 0 16.15 0H9.75H4.75H2.75C1.23122 0 0 1.23122 0 2.75V16.75C0 18.2688 1.23122 19.5 2.75 19.5H16.75C17.1642 19.5 17.5 19.1642 17.5 18.75C17.5 18.3358 17.1642 18 16.75 18H2.75C2.05964 18 1.5 17.4404 1.5 16.75C1.5 16.0596 2.05964 15.5 2.75 15.5ZM5.5 7.37955V1.5H9V7.37955L7.65429 6.5183C7.40784 6.36057 7.09216 6.36057 6.84571 6.5183L5.5 7.37955Z" fill="#292927"/>
</g>
</svg>
