<svg preserveAspectRatio="xMidYMid meet" overflow="visible" style="display: block;" viewBox="0 0 24 24" fill="none" xmlns="http://www.w3.org/2000/svg">
<g transform="translate(1.2500, 3.7500)">
<path id="Vector" fill-rule="evenodd" clip-rule="evenodd" d="M5.67772 0.438462C6.09547 0.159965 6.61876 0 7.25 0C7.88124 0 8.40453 0.159965 8.82228 0.438462C9.23533 0.71383 9.50133 1.07562 9.67082 1.41459C9.77313 1.61921 9.8429 1.82046 9.89073 2H10.75H11.6093C11.6571 1.82046 11.7269 1.61921 11.8292 1.41459C11.9987 1.07562 12.2647 0.71383 12.6777 0.438462C13.0955 0.159965 13.6188 0 14.25 0C14.8812 0 15.4045 0.159965 15.8223 0.438462C16.2353 0.71383 16.5013 1.07562 16.6708 1.41459C16.7848 1.64255 16.8584 1.86634 16.9063 2.06057C17.8321 2.2385 18.4587 2.77818 18.8498 3.29972C19.0839 3.61181 19.2374 3.91994 19.3327 4.14875C19.3808 4.26415 19.4153 4.36217 19.4384 4.43427C19.45 4.4704 19.4589 4.50026 19.4653 4.5228L19.4713 4.54468L20.9682 9.5342C20.9741 9.55393 20.9792 9.5737 20.9834 9.5935C21.3137 10.2406 21.5 10.9736 21.5 11.75C21.5 14.3734 19.3734 16.5 16.75 16.5C14.2749 16.5 12.242 14.607 12.0201 12.1898C11.6402 12.388 11.2082 12.5 10.75 12.5C10.2918 12.5 9.85984 12.388 9.47991 12.1898C9.25801 14.607 7.22508 16.5 4.75 16.5C2.12665 16.5 0 14.3734 0 11.75C0 10.9738 0.186159 10.2412 0.516263 9.59417C0.52053 9.57416 0.525644 9.55415 0.531629 9.5342L2.02849 4.54468L2.03451 4.5228C2.0409 4.50026 2.04976 4.4704 2.06137 4.43427C2.08454 4.36217 2.11898 4.26415 2.16707 4.14875C2.26241 3.91994 2.41593 3.61181 2.65 3.29972C3.04117 2.77815 3.66778 2.23844 4.59367 2.06055L4.59373 2.06058C4.6416 1.86634 4.7152 1.64255 4.82918 1.41459C4.99867 1.07562 5.26467 0.71383 5.67772 0.438462ZM18.7779 7.4534L18.0314 4.96523C18.0286 4.95571 18.0259 4.94613 18.0234 4.9365L18.0221 4.93171C18.0202 4.92496 18.0164 4.91184 18.0104 4.89329C17.9984 4.85601 17.9782 4.79778 17.9481 4.72568C17.8872 4.57949 17.7907 4.38762 17.6498 4.19972C17.3795 3.83933 16.9624 3.5055 16.2679 3.49979C16.262 3.49993 16.256 3.5 16.25 3.5C15.9987 3.5 15.7763 3.37645 15.6402 3.18679C15.6368 3.18192 15.6333 3.17702 15.6299 3.17207C15.5488 3.05323 15.501 2.90987 15.4998 2.75539L15.5 2.7553L15.4999 2.75253C15.4997 2.74672 15.4992 2.73474 15.498 2.7175C15.4955 2.68275 15.4902 2.62821 15.479 2.5608C15.4559 2.42242 15.4112 2.24937 15.3292 2.08541C15.2487 1.92438 15.1397 1.78617 14.9902 1.68654C14.8455 1.59004 14.6188 1.5 14.25 1.5C13.8812 1.5 13.6545 1.59004 13.5098 1.68654C13.3603 1.78617 13.2513 1.92438 13.1708 2.08541C13.0888 2.24937 13.0441 2.42242 13.021 2.5608C13.0098 2.62821 13.0045 2.68275 13.002 2.7175C13.0008 2.73474 13.0003 2.74672 13.0001 2.75253L13 2.75569C12.9969 3.16728 12.6623 3.5 12.25 3.5H10.75H9.25C8.83768 3.5 8.50308 3.16728 8.50002 2.75569L8.49993 2.75253C8.49973 2.74672 8.49923 2.73474 8.498 2.7175C8.49552 2.68275 8.49019 2.62821 8.47895 2.5608C8.45589 2.42242 8.41116 2.24937 8.32918 2.08541C8.24867 1.92438 8.13967 1.78617 7.99022 1.68654C7.84547 1.59004 7.61876 1.5 7.25 1.5C6.88124 1.5 6.65453 1.59004 6.50978 1.68654C6.36033 1.78617 6.25133 1.92438 6.17082 2.08541C6.08884 2.24937 6.04411 2.42242 6.02105 2.5608C6.00981 2.62821 6.00448 2.68275 6.002 2.7175C6.00077 2.73474 6.00027 2.74672 6.00007 2.75253L5.99998 2.75568C5.99692 3.16728 5.66232 3.5 5.25 3.5L5.23203 3.49979C4.53746 3.50545 4.12031 3.8393 3.85 4.19972C3.70907 4.38762 3.61259 4.57949 3.55168 4.72568C3.52164 4.79778 3.50139 4.85601 3.48941 4.89329C3.48345 4.91184 3.47961 4.92496 3.4777 4.93171L3.47637 4.9365C3.47389 4.94613 3.47123 4.95571 3.46837 4.96523L2.72189 7.45351C3.33695 7.16266 4.02448 7 4.75 7C6.14572 7 7.40084 7.60197 8.26989 8.56045C8.71348 7.63729 9.65731 7 10.75 7C11.8427 7 12.7865 7.63728 13.2301 8.56045C14.0992 7.60197 15.3543 7 16.75 7C17.4754 7 18.1629 7.16262 18.7779 7.4534ZM4.75 8.5C2.95507 8.5 1.5 9.95507 1.5 11.75C1.5 13.5449 2.95507 15 4.75 15C6.54493 15 8 13.5449 8 11.75C8 9.95507 6.54493 8.5 4.75 8.5ZM16.75 8.5C14.9551 8.5 13.5 9.95507 13.5 11.75C13.5 13.5449 14.9551 15 16.75 15C18.5449 15 20 13.5449 20 11.75C20 9.95507 18.5449 8.5 16.75 8.5ZM9.5 9.75C9.5 9.05964 10.0596 8.5 10.75 8.5C11.4404 8.5 12 9.05964 12 9.75C12 10.4404 11.4404 11 10.75 11C10.0596 11 9.5 10.4404 9.5 9.75Z" fill="#292927"/>
</g>
</svg>
