<svg preserveAspectRatio="xMidYMid meet" overflow="visible" style="display: block;" viewBox="0 0 24 24" fill="none" xmlns="http://www.w3.org/2000/svg">
<g transform="translate(2.2500, 2.2500)">
<path id="Vector" fill-rule="evenodd" clip-rule="evenodd" d="M6.77411 0.750001C6.77411 0.490393 6.63986 0.249247 6.41919 0.112494C6.19852 -0.0242594 5.92282 -0.0371689 5.69034 0.0783651C2.3193 1.75363 0 5.23357 0 9.2566C0 14.9139 4.58613 19.5 10.2434 19.5C14.2664 19.5 17.7464 17.1807 19.4216 13.8097C19.5372 13.5772 19.5243 13.3015 19.3875 13.0808C19.2508 12.8601 19.0096 12.7259 18.75 12.7259C14.6108 12.7259 11.6545 11.6997 9.72741 9.77259C7.80028 7.84546 6.77411 4.88921 6.77411 0.750001ZM1.5 9.2566C1.5 6.26018 3.00722 3.61473 5.30715 2.03875C5.50451 5.7917 6.58989 8.75638 8.66675 10.8333C10.7436 12.9101 13.7083 13.9955 17.4612 14.1929C15.8853 16.4928 13.2398 18 10.2434 18C5.41456 18 1.5 14.0854 1.5 9.2566ZM18.75 1.5H17.5V7.25C17.5 8.49264 16.4926 9.5 15.25 9.5C14.0074 9.5 13 8.49264 13 7.25C13 6.00736 14.0074 5 15.25 5C15.513 5 15.7654 5.04512 16 5.12803V1.35C16 0.604415 16.6044 8.81343e-10 17.35 8.81343e-10H18.75C19.1642 8.81343e-10 19.5 0.335786 19.5 0.75C19.5 1.16421 19.1642 1.5 18.75 1.5ZM15.25 6.5C15.6642 6.5 16 6.83579 16 7.25C16 7.66421 15.6642 8 15.25 8C14.8358 8 14.5 7.66421 14.5 7.25C14.5 6.83579 14.8358 6.5 15.25 6.5Z" fill="#292927"/>
</g>
</svg>
