<svg preserveAspectRatio="xMidYMid meet" overflow="visible" style="display: block;" viewBox="0 0 24 24" fill="none" xmlns="http://www.w3.org/2000/svg">
<g transform="translate(1.2500, 1.2500)">
<path id="Vector" fill-rule="evenodd" clip-rule="evenodd" d="M1.5 2.75C1.5 2.05964 2.05964 1.5 2.75 1.5H18.75C19.4404 1.5 20 2.05964 20 2.75V15.75C20 16.4404 19.4404 17 18.75 17H2.75C2.05964 17 1.5 16.4404 1.5 15.75V2.75ZM2.75 0C1.23122 0 0 1.23122 0 2.75V15.75C0 17.2688 1.23122 18.5 2.75 18.5H18.75C20.2688 18.5 21.5 17.2688 21.5 15.75V2.75C21.5 1.23122 20.2688 0 18.75 0H2.75ZM5.75 20C5.33579 20 5 20.3358 5 20.75C5 21.1642 5.33579 21.5 5.75 21.5H15.75C16.1642 21.5 16.5 21.1642 16.5 20.75C16.5 20.3358 16.1642 20 15.75 20H5.75ZM10.75 5C11.1642 5 11.5 5.33579 11.5 5.75V8.75C11.5 9.16421 11.1642 9.5 10.75 9.5C10.3358 9.5 10 9.16421 10 8.75V5.75C10 5.33579 10.3358 5 10.75 5ZM11.3175 13.2508C11.5946 12.9429 11.5696 12.4687 11.2617 12.1916C10.9538 11.9145 10.4796 11.9394 10.2025 12.2473L10.1925 12.2584C9.91543 12.5663 9.94039 13.0405 10.2483 13.3176C10.5562 13.5947 11.0304 13.5697 11.3075 13.2619L11.3175 13.2508Z" fill="#292927"/>
</g>
</svg>
