<svg preserveAspectRatio="xMidYMid meet" overflow="visible" style="display: block;" viewBox="0 0 24 24" fill="none" xmlns="http://www.w3.org/2000/svg">
<g transform="translate(1.2500, 6.2500)">
<path id="Vector" fill-rule="evenodd" clip-rule="evenodd" d="M1.5 5.75C1.5 3.40279 3.40279 1.5 5.75 1.5H15.75C18.0972 1.5 20 3.40279 20 5.75C20 8.09721 18.0972 10 15.75 10H5.75C3.40279 10 1.5 8.09721 1.5 5.75ZM5.75 0C2.57436 0 0 2.57436 0 5.75C0 8.92564 2.57436 11.5 5.75 11.5H15.75C18.9256 11.5 21.5 8.92564 21.5 5.75C21.5 2.57436 18.9256 0 15.75 0H5.75ZM4 5.75C4 4.7835 4.7835 4 5.75 4C6.7165 4 7.5 4.7835 7.5 5.75C7.5 6.7165 6.7165 7.5 5.75 7.5C4.7835 7.5 4 6.7165 4 5.75Z" fill="#292927"/>
</g>
</svg>
