<svg preserveAspectRatio="xMidYMid meet" overflow="visible" style="display: block;" viewBox="0 0 24 24" fill="none" xmlns="http://www.w3.org/2000/svg">
<g transform="translate(1.2500, 3.2500)">
<path id="Vector" fill-rule="evenodd" clip-rule="evenodd" d="M10.2175 2.05836C10.3583 2.20027 10.55 2.28009 10.7499 2.28008L10.75 1.88645L10.7501 2.28008C10.95 2.28009 11.1417 2.20027 11.2825 2.05836C11.907 1.42899 12.8848 1.27492 13.5561 1.95147C14.148 2.54792 14.148 3.5112 13.5561 4.10765L10.75 6.9356L7.94388 4.10765C7.35204 3.5112 7.35204 2.54792 7.94388 1.95147C8.61521 1.27492 9.59302 1.42899 10.2175 2.05836ZM10.75 8.49981C10.4038 8.49983 10.058 8.36779 9.79714 8.10491L6.87912 5.1642C5.70696 3.98291 5.70696 2.07621 6.87912 0.894931C7.92981 -0.163935 9.56717 -0.283178 10.75 0.537203C11.9328 -0.283178 13.5702 -0.163935 14.6209 0.894931C15.793 2.07621 15.793 3.98291 14.6209 5.1642L11.7029 8.10491C11.442 8.36779 11.0962 8.49983 10.75 8.49981ZM17 7.25C17 6.00736 18.0074 5 19.25 5C20.4926 5 21.5 6.00736 21.5 7.25V12.5015C21.5 12.8595 21.3578 13.2029 21.1046 13.4561L17.2803 17.2803C16.9874 17.5732 16.5126 17.5732 16.2197 17.2803C15.9268 16.9874 15.9268 16.5126 16.2197 16.2197L20 12.4393V7.25C20 6.83579 19.6642 6.5 19.25 6.5C18.8358 6.5 18.5 6.83579 18.5 7.25V11.5495V11.75C18.5 11.9886 18.3885 12.2013 18.2148 12.3386C18.1908 12.3676 18.1653 12.3955 18.1385 12.4223L17.2803 13.2805C16.9874 13.5734 16.5126 13.5734 16.2197 13.2805C15.9268 12.9876 15.9268 12.5127 16.2197 12.2198L16.8172 11.6223L16.7039 11.5656C16.2227 11.325 15.6415 11.4193 15.261 11.7998L14.3661 12.6947C14.1317 12.9291 14 13.2471 14 13.5786V16.7501C14 17.1644 13.6642 17.5001 13.25 17.5001C12.8358 17.5001 12.5 17.1644 12.5 16.7501V13.5786C12.5 12.8492 12.7897 12.1498 13.3055 11.634L14.2004 10.7391C14.9407 9.99884 16.0265 9.75099 17 10.0699V7.25ZM2.25 6.5C1.83579 6.5 1.5 6.83579 1.5 7.25V12.4393L5.28033 16.2197C5.57322 16.5126 5.57322 16.9874 5.28033 17.2803C4.98744 17.5732 4.51256 17.5732 4.21967 17.2803L0.395406 13.4561C0.142232 13.2029 0 12.8595 0 12.5015V7.25C0 6.00736 1.00736 5 2.25 5C3.49264 5 4.5 6.00736 4.5 7.25V10.0699C5.47354 9.75099 6.55935 9.99884 7.29964 10.7391L8.19454 11.634C8.71027 12.1498 9 12.8492 9 13.5786V16.7501C9 17.1644 8.66421 17.5001 8.25 17.5001C7.83579 17.5001 7.5 17.1644 7.5 16.7501V13.5786C7.5 13.2471 7.3683 12.9291 7.13388 12.6947L6.23898 11.7998C5.85853 11.4193 5.27731 11.325 4.79608 11.5656L4.68279 11.6223L5.28033 12.2198C5.57322 12.5127 5.57322 12.9876 5.28033 13.2805C4.98744 13.5734 4.51256 13.5734 4.21967 13.2805L3.36154 12.4223C3.3347 12.3955 3.30923 12.3676 3.28516 12.3386C3.11146 12.2013 3 11.9886 3 11.75V11.5495V7.25C3 6.83579 2.66421 6.5 2.25 6.5Z" fill="#292927"/>
</g>
</svg>
