<svg preserveAspectRatio="xMidYMid meet" overflow="visible" style="display: block;" viewBox="0 0 24 24" fill="none" xmlns="http://www.w3.org/2000/svg">
<g transform="translate(1.2500, 1.2500)">
<path id="Vector" fill-rule="evenodd" clip-rule="evenodd" d="M20 10.75C20 5.64137 15.8586 1.5 10.75 1.5C5.64137 1.5 1.5 5.64137 1.5 10.75C1.5 15.8586 5.64137 20 10.75 20C15.8586 20 20 15.8586 20 10.75ZM10.75 0C16.6871 0 21.5 4.81294 21.5 10.75C21.5 16.6871 16.6871 21.5 10.75 21.5C4.81294 21.5 0 16.6871 0 10.75C0 4.81294 4.81294 0 10.75 0ZM11.5 4.25C11.5 3.83579 11.1642 3.5 10.75 3.5C10.3358 3.5 10 3.83579 10 4.25V5.0083C9.52644 4.99659 9.04098 4.99976 8.56009 5.00291H8.56006H8.56004L8.34566 5.00426C7.60407 5.0086 7.00003 5.61024 7.00003 6.35641L7 15.1446C7 15.8908 7.60404 16.4923 8.34559 16.4967L8.56003 16.498C9.04094 16.5012 9.52642 16.5044 10 16.4927V17.25C10 17.6642 10.3358 18 10.75 18C11.1642 18 11.5 17.6642 11.5 17.25V16.3798C11.8134 16.3339 12.1106 16.2712 12.3852 16.1857C12.9696 16.0039 13.5198 15.7014 13.9173 15.1861C14.3177 14.6668 14.5 14.0135 14.5 13.2505C14.5 12.4199 14.2686 11.7281 13.7907 11.1995C13.6322 11.0241 13.4549 10.876 13.2645 10.7505C13.4549 10.625 13.6322 10.4768 13.7907 10.3015C14.2686 9.77287 14.5 9.08104 14.5 8.25047C14.5 7.48744 14.3178 6.83418 13.9173 6.3149C13.5198 5.79955 12.9696 5.4971 12.3852 5.31522C12.1106 5.22977 11.8134 5.16703 11.5 5.12113V4.25ZM11.6926 9.80182C11.143 9.93961 10.4878 9.98622 9.75117 10.0001C9.33479 9.99185 8.91341 9.99397 8.50001 9.99677L8.50003 6.50338C9.96721 6.49491 11.1252 6.49407 11.9395 6.74747C12.3343 6.87032 12.5779 7.03443 12.7295 7.23096C12.878 7.42356 13 7.7275 13 8.25047C13 8.79168 12.8564 9.09824 12.678 9.29559C12.4864 9.50752 12.1756 9.68073 11.6926 9.80182ZM9.75117 11.5008C9.33479 11.5091 8.91341 11.507 8.5 11.5042V14.9976C9.96718 15.006 11.1252 15.0069 11.9395 14.7535C12.3342 14.6306 12.5779 14.4665 12.7295 14.27C12.878 14.0774 13 13.7735 13 13.2505C13 12.7093 12.8564 12.4027 12.678 12.2054C12.4864 11.9934 12.1756 11.8202 11.6926 11.6991C11.143 11.5613 10.4878 11.5147 9.75117 11.5008Z" fill="#292927"/>
</g>
</svg>
