<svg preserveAspectRatio="xMidYMid meet" overflow="visible" style="display: block;" viewBox="0 0 24 24" fill="none" xmlns="http://www.w3.org/2000/svg">
<g transform="translate(2.2500, 2.2500)">
<path id="Vector" fill-rule="evenodd" clip-rule="evenodd" d="M14.75 18C16.5449 18 18 16.5449 18 14.75V4.75C18 2.95507 16.5449 1.5 14.75 1.5H4.75C2.95507 1.5 1.5 2.95507 1.5 4.75V14.75C1.5 16.5449 2.95507 18 4.75 18H14.75ZM19.5 14.75C19.5 17.3734 17.3734 19.5 14.75 19.5H4.75C2.12665 19.5 0 17.3734 0 14.75V4.75C0 2.12665 2.12665 0 4.75 0H14.75C17.3734 0 19.5 2.12665 19.5 4.75V14.75ZM4.75 14.5C4.33579 14.5 4 14.1642 4 13.75V5.75C4 5.33579 4.33579 5 4.75 5C5.16421 5 5.5 5.33579 5.5 5.75V13L8.75 13C9.16421 13 9.5 13.3358 9.5 13.75C9.5 14.1642 9.16421 14.5 8.75 14.5L4.75 14.5ZM11 13.75C11 14.1642 11.3358 14.5 11.75 14.5C12.1642 14.5 12.5 14.1642 12.5 13.75V10.7556L12.5001 10.7519C12.5004 10.7442 12.5012 10.7287 12.5031 10.7066C12.5069 10.6622 12.5151 10.5925 12.5323 10.5065C12.5673 10.3316 12.6362 10.1057 12.7681 9.88587C13.0028 9.49469 13.5041 9 14.75 9C15.1642 9 15.5 8.66421 15.5 8.25C15.5 7.83579 15.1642 7.5 14.75 7.5C13.7771 7.5 13.0365 7.73237 12.482 8.08588C12.4071 7.7506 12.1078 7.5 11.75 7.5C11.3358 7.5 11 7.83579 11 8.25V13.75Z" fill="#292927"/>
</g>
</svg>
