<svg preserveAspectRatio="xMidYMid meet" overflow="visible" style="display: block;" viewBox="0 0 24 24" fill="none" xmlns="http://www.w3.org/2000/svg">
<g transform="translate(3.2500, 1.2500)">
<path id="Vector" fill-rule="evenodd" clip-rule="evenodd" d="M1.5 1.5V20H16V5.5H13.35C12.6044 5.5 12 4.89558 12 4.15V1.5H1.5ZM12.75 0H1.35C0.604417 0 0 0.604415 0 1.35V20.15C0 20.8956 0.604415 21.5 1.35 21.5H16.15C16.8956 21.5 17.5 20.8956 17.5 20.15V4.75V4.49853C17.5 4.14048 17.3578 3.79711 17.1046 3.54393L13.9561 0.395406C13.7029 0.142232 13.3595 0 13.0015 0H12.75ZM13.5 2.06066V4H15.4393L13.5 2.06066ZM8.75001 8.02902L8.0633 9.48507C7.95684 9.7108 7.74508 9.86878 7.49837 9.90652L5.89353 10.152L7.07671 11.3582C7.24405 11.5287 7.32008 11.7689 7.28144 12.0047L7.00958 13.6636L8.38837 12.9047C8.61354 12.7808 8.88649 12.7808 9.11165 12.9047L10.4904 13.6636L10.2186 12.0047C10.1799 11.7689 10.256 11.5287 10.4233 11.3582L11.6065 10.152L10.0016 9.90652C9.75494 9.86878 9.54318 9.7108 9.43672 9.48507L8.75001 8.02902ZM7.74562 6.64219C8.14945 5.78594 9.35057 5.78594 9.7544 6.64219L10.6231 8.48414L12.552 8.77922C13.5001 8.92426 13.7863 10.0719 13.1751 10.695L11.7603 12.1372L12.0956 14.183C12.2346 15.0316 11.3506 15.8493 10.4662 15.3625L8.75001 14.4179L7.03384 15.3625C6.14938 15.8493 5.2654 15.0316 5.40446 14.183L5.73971 12.1372L4.32491 10.695C3.71369 10.0719 3.99993 8.92426 4.94801 8.77922L6.87691 8.48414L7.74562 6.64219Z" fill="#292927"/>
</g>
</svg>
