<svg preserveAspectRatio="xMidYMid meet" overflow="visible" style="display: block;" viewBox="0 0 24 24" fill="none" xmlns="http://www.w3.org/2000/svg">
<g transform="translate(1.7500, 0.7932)">
<path id="Vector" fill-rule="evenodd" clip-rule="evenodd" d="M12.4965 20.5513L19.8056 16.4907C20.2342 16.2526 20.5 15.8009 20.5 15.3106L20.5 6.01666C20.5 5.52639 20.2342 5.07465 19.8056 4.83655L11.4056 0.169888C10.9979 -0.0566301 10.5021 -0.0566282 10.0944 0.169887L2.76801 4.24008C2.4812 4.03462 2.12972 3.91368 1.75 3.91368C0.783502 3.91368 0 4.69718 0 5.66368C0 6.36177 0.408756 6.96439 0.999983 7.24526L0.999997 14.0821C0.408762 14.363 0 14.9656 0 15.6637C0 16.6302 0.783502 17.4137 1.75 17.4137C2.12976 17.4137 2.48127 17.2927 2.7681 17.0872L9.00355 20.5513C9.00119 20.5885 9 20.6259 9 20.6637C9 21.6302 9.7835 22.4137 10.75 22.4137C11.7165 22.4137 12.5 21.6302 12.5 20.6637C12.5 20.6259 12.4988 20.5885 12.4965 20.5513ZM11.768 19.2401L19 15.2223L19 6.9385L11.5 11.1052V19.0821C11.5943 19.1269 11.6839 19.1798 11.768 19.2401ZM10 19.0821V11.1052L2.76791 7.08735C2.68385 7.14755 2.59423 7.2005 2.49998 7.24528L2.5 14.0821C3.09124 14.3629 3.5 14.9656 3.5 15.6637C3.5 15.7014 3.49881 15.7388 3.49646 15.7759L9.73198 19.2401C9.81607 19.1798 9.90571 19.1269 10 19.0821ZM10.75 9.8059L18.2059 5.66375L10.75 1.52159L3.49645 5.55133C3.49881 5.58848 3.5 5.62594 3.5 5.66368C3.5 5.70146 3.4988 5.73896 3.49644 5.77615L10.75 9.8059Z" fill="#292927"/>
</g>
</svg>
