<svg preserveAspectRatio="xMidYMid meet" overflow="visible" style="display: block;" viewBox="0 0 24 24" fill="none" xmlns="http://www.w3.org/2000/svg">
<g transform="translate(2.2500, 2.2500)">
<path id="Vector" fill-rule="evenodd" clip-rule="evenodd" d="M18 1.5V18H10.5L10.5 1.5H18ZM9 1.5L9 18H1.5V1.5H9ZM9.75 0H1.35C0.604418 0 0 0.604414 0 1.35V18.15C0 18.8956 0.604414 19.5 1.35 19.5H9.75H18.15C18.8956 19.5 19.5 18.8956 19.5 18.15V1.35C19.5 0.604418 18.8956 0 18.15 0H9.75ZM7.2 10.35C7.53137 10.1014 7.59853 9.63133 7.35 9.29996L5.85 7.29996C5.70836 7.1111 5.48607 6.99996 5.25 6.99996C5.01393 6.99996 4.79164 7.1111 4.65 7.29996L3.15 9.29996C2.90147 9.63133 2.96863 10.1014 3.3 10.35C3.63137 10.5985 4.10147 10.5313 4.35 10.2L5.25 8.99996L6.15 10.2C6.39853 10.5313 6.86863 10.5985 7.2 10.35ZM16.35 10.2C16.5985 9.86867 16.5314 9.39857 16.2 9.15004C15.8686 8.90152 15.3985 8.96867 15.15 9.30004L14.25 10.5L13.35 9.30004C13.1015 8.96867 12.6314 8.90152 12.3 9.15004C11.9686 9.39857 11.9015 9.86867 12.15 10.2L13.65 12.2C13.7916 12.3889 14.0139 12.5 14.25 12.5C14.4861 12.5 14.7084 12.3889 14.85 12.2L16.35 10.2Z" fill="#292927"/>
</g>
</svg>
