<svg preserveAspectRatio="xMidYMid meet" overflow="visible" style="display: block;" viewBox="0 0 24 24" fill="none" xmlns="http://www.w3.org/2000/svg">
<g transform="translate(1.4542, 2.2500)">
<path id="Vector" fill-rule="evenodd" clip-rule="evenodd" d="M0.722464 1.12806C0.830956 0.477107 1.39416 0 2.0541 0H5.36706H6.87456H9.79581H11.2958H14.2171H15.7245H19.0375C19.6975 0 20.2607 0.477108 20.3692 1.12806L21.0737 5.35531C21.1368 5.73376 21.0397 6.18748 20.6817 6.50489C20.5839 6.59155 20.4572 6.69431 20.3025 6.80035V16.75C20.3025 18.2688 19.0713 19.5 17.5525 19.5H3.55249C2.03371 19.5 0.80249 18.2688 0.80249 16.75V6.80947C0.641728 6.7002 0.510505 6.59403 0.409961 6.50488C0.0519704 6.18747 -0.0451532 5.73376 0.017921 5.35532L0.722464 1.12806ZM18.0458 7.5C18.3158 7.5 18.5682 7.47369 18.8025 7.42875V16.75C18.8025 17.4404 18.2428 18 17.5525 18H14.1358V12.75C14.1358 11.2312 12.9046 10 11.3858 10H9.3858C7.86702 10 6.6358 11.2312 6.6358 12.75V18H3.55249C2.86213 18 2.30249 17.4404 2.30249 16.75V7.43129C2.53299 7.47468 2.78096 7.5 3.0458 7.5C3.96363 7.5 4.71711 7.1945 5.23041 6.90118C5.34679 6.83468 5.45216 6.76806 5.54581 6.70454C5.63945 6.76806 5.74482 6.83468 5.8612 6.90118C6.3745 7.1945 7.12797 7.5 8.0458 7.5C8.96364 7.5 9.71711 7.1945 10.2304 6.90118C10.3468 6.83468 10.4522 6.76806 10.5458 6.70453C10.6395 6.76806 10.7448 6.83468 10.8612 6.90118C11.3745 7.1945 12.128 7.5 13.0458 7.5C13.9636 7.5 14.7171 7.1945 15.2304 6.90118C15.3468 6.83468 15.4522 6.76806 15.5458 6.70453C15.6395 6.76806 15.7448 6.83468 15.8612 6.90118C16.3745 7.1945 17.128 7.5 18.0458 7.5ZM8.1358 18H12.6358V12.75C12.6358 12.0596 12.0762 11.5 11.3858 11.5H9.3858C8.69545 11.5 8.1358 12.0596 8.1358 12.75V18ZM2.18116 1.5H5.21706L4.82974 5.37322C4.74175 5.43941 4.626 5.51894 4.48621 5.59882C4.1245 5.8055 3.62797 6 3.0458 6C2.32626 6 1.80641 5.70071 1.5184 5.47657L2.18116 1.5ZM6.72456 1.5L6.33211 5.42451C6.40852 5.47872 6.50015 5.53867 6.60541 5.59882C6.96711 5.8055 7.46364 6 8.0458 6C8.62797 6 9.1245 5.8055 9.4862 5.59882C9.60869 5.52882 9.71273 5.45909 9.7958 5.39837V1.5H6.72456ZM11.2958 1.5H14.3671L14.7595 5.4245C14.6831 5.47871 14.5915 5.53867 14.4862 5.59882C14.1245 5.8055 13.628 6 13.0458 6C12.4636 6 11.9671 5.8055 11.6054 5.59882C11.4829 5.52882 11.3789 5.45909 11.2958 5.39837V1.5ZM16.6054 5.59882C16.4656 5.51893 16.3499 5.4394 16.2619 5.37321L15.8746 1.5H18.9105L19.5732 5.47656C19.2852 5.70071 18.7654 6 18.0458 6C17.4636 6 16.9671 5.8055 16.6054 5.59882Z" fill="#292927"/>
</g>
</svg>
