<svg preserveAspectRatio="xMidYMid meet" overflow="visible" style="display: block;" viewBox="0 0 24 24" fill="none" xmlns="http://www.w3.org/2000/svg">
<g transform="translate(1.2500, 1.2500)">
<path id="Vector" fill-rule="evenodd" clip-rule="evenodd" d="M1.5 10.75C1.5 5.64137 5.64137 1.5 10.75 1.5C15.8586 1.5 20 5.64137 20 10.75C20 15.8586 15.8586 20 10.75 20C5.64137 20 1.5 15.8586 1.5 10.75ZM10.75 0C4.81294 0 0 4.81294 0 10.75C0 16.6871 4.81294 21.5 10.75 21.5C16.6871 21.5 21.5 16.6871 21.5 10.75C21.5 4.81294 16.6871 0 10.75 0ZM16.3552 6.1643C16.5179 5.87158 16.4667 5.50652 16.2299 5.26974C15.9932 5.03296 15.6281 4.98183 15.3354 5.14445L8.97142 8.67999C8.84899 8.748 8.74805 8.84894 8.68003 8.97137L5.1445 15.3353C4.98188 15.6281 5.03301 15.9931 5.26979 16.2299C5.50657 16.4667 5.87163 16.5178 6.16435 16.3552L12.5283 12.8196C12.6507 12.7516 12.7517 12.6507 12.8197 12.5283L16.3552 6.1643ZM7.73055 13.7691L9.8872 9.88715L13.7692 7.7305L11.6125 11.6125L7.73055 13.7691Z" fill="#292927"/>
</g>
</svg>
