<svg preserveAspectRatio="xMidYMid meet" overflow="visible" style="display: block;" viewBox="0 0 24 24" fill="none" xmlns="http://www.w3.org/2000/svg">
<g transform="translate(1.7500, 3.2500)">
<path id="Vector" fill-rule="evenodd" clip-rule="evenodd" d="M1.04106 0.0587974C0.757448 -0.0606198 0.429666 0.00532864 0.214301 0.225137C-0.00106301 0.444948 -0.0603025 0.774007 0.0648823 1.05512L3.49152 8.75002L0.0648825 16.4449C-0.0603023 16.726 -0.00106285 17.0551 0.214302 17.2749C0.429666 17.4947 0.757448 17.5607 1.04106 17.4413L20.024 9.44843C20.3027 9.339 20.5 9.06757 20.5 8.75005C20.5 8.5664 20.434 8.39818 20.3244 8.26779C20.2862 8.22217 20.2423 8.18098 20.1937 8.1453C20.1424 8.10757 20.086 8.07621 20.0259 8.05241L1.04106 0.0587974ZM16.0361 8.00005L2.20649 2.17705L4.79955 8.00005H16.0361ZM4.79953 9.50005L2.20649 15.323L16.036 9.50005H4.79953Z" fill="#292927"/>
</g>
</svg>
