<svg preserveAspectRatio="xMidYMid meet" overflow="visible" style="display: block;" viewBox="0 0 24 24" fill="none" xmlns="http://www.w3.org/2000/svg">
<g transform="translate(1.2499, 1.2500)">
<path id="Vector" fill-rule="evenodd" clip-rule="evenodd" d="M3.25 1.5C2.2835 1.5 1.5 2.2835 1.5 3.25C1.5 4.2165 2.2835 5 3.25 5C3.53318 5 3.80065 4.93274 4.0373 4.81332L2.78948 3.84279C2.46252 3.58849 2.40362 3.11728 2.65792 2.79032C2.91222 2.46336 3.38343 2.40446 3.71039 2.65876L4.9587 3.62967C4.98574 3.50743 5 3.38038 5 3.25C5 2.2835 4.2165 1.5 3.25 1.5ZM6.20697 4.60055C6.39513 4.18924 6.5 3.73187 6.5 3.25C6.5 1.45507 5.04493 0 3.25 0C1.45507 0 0 1.45507 0 3.25C0 5.04493 1.45507 6.5 3.25 6.5C4.02043 6.5 4.72825 6.23192 5.28526 5.78396L7.08062 7.18035C7.06767 7.28374 7.06655 7.39049 7.07862 7.49908L7.76503 13.6768L5.25045 15.6884C4.69889 15.2571 4.00447 15 3.25 15C1.45507 15 0 16.4551 0 18.25C0 20.0449 1.45507 21.5 3.25 21.5C5.04493 21.5 6.5 20.0449 6.5 18.25C6.5 17.7523 6.38814 17.2808 6.1882 16.8592L7.96753 15.4357C8.10012 16.0505 8.64577 16.5 9.28702 16.5H9.75C10.1642 16.5 10.5 16.1642 10.5 15.75C10.5 15.3358 10.1642 15 9.75 15H9.42128L8.58795 7.5H12.9121L12.5046 11.1672C12.4588 11.5789 12.7555 11.9497 13.1672 11.9954C13.5789 12.0412 13.9497 11.7445 13.9954 11.3328L14.4214 7.49908C14.4335 7.39047 14.4323 7.28371 14.4194 7.1803L16.2147 5.78393C16.7717 6.23191 17.4796 6.5 18.25 6.5C20.0449 6.5 21.5 5.04493 21.5 3.25C21.5 1.45507 20.0449 0 18.25 0C16.4551 0 15 1.45507 15 3.25C15 3.73185 15.1049 4.18922 15.293 4.60051L13.4336 6.04673C13.321 6.01628 13.2024 6 13.0796 6H8.42036C8.29756 6 8.17893 6.01629 8.06636 6.04674L6.20697 4.60055ZM17.4627 4.8133L18.7105 3.84279C19.0374 3.58849 19.0963 3.11728 18.842 2.79032C18.5877 2.46336 18.1165 2.40446 17.7895 2.65876L16.5413 3.62963C16.5143 3.5074 16.5 3.38036 16.5 3.25C16.5 2.2835 17.2835 1.5 18.25 1.5C19.2165 1.5 20 2.2835 20 3.25C20 4.2165 19.2165 5 18.25 5C17.9668 5 17.6993 4.93273 17.4627 4.8133ZM3.25 16.5C3.52467 16.5 3.78456 16.5633 4.01588 16.6761L2.78149 17.6635C2.45804 17.9223 2.40559 18.3943 2.66434 18.7177C2.92309 19.0412 3.39506 19.0936 3.71851 18.8349L4.95337 17.847C4.98387 17.9764 5 18.1113 5 18.25C5 19.2165 4.2165 20 3.25 20C2.2835 20 1.5 19.2165 1.5 18.25C1.5 17.2835 2.2835 16.5 3.25 16.5ZM16.7403 13.5C15.3617 13.5 14.123 14.4887 13.6633 15.972C13.5407 16.3677 13.1205 16.589 12.7249 16.4664C12.3292 16.3438 12.1079 15.9236 12.2305 15.528C12.8527 13.5203 14.602 12 16.7403 12C18.0176 12 19.1575 12.5437 20.0002 13.409V13.3008C20.0002 12.8866 20.336 12.5508 20.7502 12.5508C21.1644 12.5508 21.5002 12.8866 21.5002 13.3008V14.923C21.5002 15.6686 20.8958 16.273 20.1502 16.273H18.7452C18.331 16.273 17.9952 15.9372 17.9952 15.523C17.9952 15.1088 18.331 14.773 18.7452 14.773H19.2018C18.5932 13.9792 17.7016 13.5 16.7403 13.5ZM16.76 20C18.1385 20 19.3773 19.0113 19.837 17.528C19.9596 17.1323 20.3797 16.911 20.7753 17.0336C21.171 17.1562 21.3923 17.5764 21.2697 17.972C20.6476 19.9797 18.8982 21.5 16.76 21.5C15.4826 21.5 14.3427 20.9563 13.5001 20.091V20.1992C13.5001 20.6134 13.1643 20.9492 12.7501 20.9492C12.3358 20.9492 12.0001 20.6134 12.0001 20.1992V18.577C12.0001 17.8314 12.6045 17.227 13.3501 17.227H14.755C15.1692 17.227 15.505 17.5628 15.505 17.977C15.505 18.3912 15.1692 18.727 14.755 18.727H14.2984C14.9071 19.5208 15.7986 20 16.76 20Z" fill="#292927"/>
</g>
</svg>
