<svg preserveAspectRatio="xMidYMid meet" overflow="visible" style="display: block;" viewBox="0 0 24 24" fill="none" xmlns="http://www.w3.org/2000/svg">
<g transform="translate(1.2500, 4.2500)">
<path id="Vector" fill-rule="evenodd" clip-rule="evenodd" d="M16.75 0C19.3734 0 21.5 2.12665 21.5 4.75V10.75C21.5 13.3734 19.3734 15.5 16.75 15.5H4.75C2.12665 15.5 0 13.3734 0 10.75V4.75C0 2.12665 2.12665 0 4.75 0H16.75ZM20 4.75C20 2.95507 18.5449 1.5 16.75 1.5H4.75C2.95507 1.5 1.5 2.95507 1.5 4.75V10.75C1.5 12.5449 2.95507 14 4.75 14H16.75C18.5449 14 20 12.5449 20 10.75V4.75ZM11.2803 5.96967C10.9874 5.67678 10.5126 5.67678 10.2197 5.96967L7.71967 8.46967C7.42678 8.76256 7.42678 9.23744 7.71967 9.53033C8.01256 9.82322 8.48744 9.82322 8.78033 9.53033L10.75 7.56066L12.7197 9.53033C13.0126 9.82322 13.4874 9.82322 13.7803 9.53033C14.0732 9.23744 14.0732 8.76256 13.7803 8.46967L11.2803 5.96967Z" fill="#292927"/>
</g>
</svg>
