<svg preserveAspectRatio="xMidYMid meet" overflow="visible" style="display: block;" viewBox="0 0 24 24" fill="none" xmlns="http://www.w3.org/2000/svg">
<g transform="translate(2.2500, 2.9185)">
<path id="Vector" fill-rule="evenodd" clip-rule="evenodd" d="M13.7737 6.41277L9.74999 11.2412L5.72628 6.41277L9.74999 1.58431L13.7737 6.41277ZM8.7129 12.3398C9.25262 12.9875 10.2474 12.9875 10.7871 12.3398L15.0061 7.27702C15.4233 6.77638 15.4233 6.04916 15.0061 5.54852L10.7871 0.485751C10.2474 -0.161918 9.25262 -0.161917 8.7129 0.485751L4.49392 5.54852C4.07672 6.04916 4.07672 6.77638 4.49392 7.27702L8.7129 12.3398ZM10.5 14.4129C10.5 13.9987 10.1642 13.6629 9.75 13.6629C9.33579 13.6629 9 13.9987 9 14.4129V16.6629H0.75C0.335786 16.6629 0 16.9987 0 17.4129C0 17.8272 0.335786 18.1629 0.75 18.1629H18.75C19.1642 18.1629 19.5 17.8272 19.5 17.4129C19.5 16.9987 19.1642 16.6629 18.75 16.6629H10.5V14.4129Z" fill="#292927"/>
</g>
</svg>
