<svg preserveAspectRatio="xMidYMid meet" overflow="visible" style="display: block;" viewBox="0 0 24 24" fill="none" xmlns="http://www.w3.org/2000/svg">
<g transform="translate(1.2500, 1.7500)">
<path id="Vector" fill-rule="evenodd" clip-rule="evenodd" d="M2.75 1.5C2.05964 1.5 1.5 2.05964 1.5 2.75V4H20V2.75C20 2.05964 19.4404 1.5 18.75 1.5H2.75ZM0 2.75V4.75V16.75C0 18.2688 1.23122 19.5 2.75 19.5H14.75C15.1642 19.5 15.5 19.1642 15.5 18.75C15.5 18.3358 15.1642 18 14.75 18H2.75C2.05964 18 1.5 17.4404 1.5 16.75V5.5H20V11.75C20 12.1642 20.3358 12.5 20.75 12.5C21.1642 12.5 21.5 12.1642 21.5 11.75V4.75V2.75C21.5 1.23122 20.2688 0 18.75 0H2.75C1.23122 0 0 1.23122 0 2.75ZM17.75 20.5C17.3358 20.5 17 20.1642 17 19.75V14.75C17 14.3358 17.3358 14 17.75 14C18.1642 14 18.5 14.3358 18.5 14.75V19.75C18.5 20.1642 18.1642 20.5 17.75 20.5ZM20 19.75C20 20.1642 20.3358 20.5 20.75 20.5C21.1642 20.5 21.5 20.1642 21.5 19.75V14.75C21.5 14.3358 21.1642 14 20.75 14C20.3358 14 20 14.3358 20 14.75V19.75ZM4.31747 3.24978C4.59456 2.9419 4.5696 2.46768 4.26172 2.19058C3.95384 1.91349 3.47962 1.93845 3.20253 2.24633L3.19253 2.25744C2.91543 2.56532 2.94039 3.03954 3.24827 3.31663C3.55616 3.59373 4.03037 3.56877 4.30747 3.26089L4.31747 3.24978ZM7.26172 2.19058C7.5696 2.46768 7.59456 2.9419 7.31747 3.24978L7.30747 3.26089C7.03037 3.56877 6.55616 3.59373 6.24827 3.31663C5.94039 3.03954 5.91543 2.56532 6.19253 2.25744L6.20253 2.24633C6.47962 1.93845 6.95384 1.91349 7.26172 2.19058ZM10.3175 3.24978C10.5946 2.9419 10.5696 2.46768 10.2617 2.19058C9.95384 1.91349 9.47962 1.93845 9.20253 2.24633L9.19253 2.25744C8.91543 2.56532 8.94039 3.03954 9.24827 3.31663C9.55616 3.59373 10.0304 3.56877 10.3075 3.26089L10.3175 3.24978Z" fill="#292927"/>
</g>
</svg>
