<svg preserveAspectRatio="xMidYMid meet" overflow="visible" style="display: block;" viewBox="0 0 24 24" fill="none" xmlns="http://www.w3.org/2000/svg">
<g transform="translate(1.2500, 1.2500)">
<path id="Vector" fill-rule="evenodd" clip-rule="evenodd" d="M1.5 10.75C1.5 5.64137 5.64137 1.5 10.75 1.5C15.8586 1.5 20 5.64137 20 10.75C20 15.8586 15.8586 20 10.75 20C9.06393 20 7.48533 19.5496 6.12554 18.763C5.9706 18.6733 5.7887 18.6421 5.61272 18.6748L2.18742 19.3126L2.82515 15.8873C2.85792 15.7113 2.82666 15.5294 2.73703 15.3745C1.95043 14.0147 1.5 12.4361 1.5 10.75ZM10.75 0C4.81294 0 0 4.81294 0 10.75C0 12.6063 0.471126 14.3546 1.30076 15.8798L0.512671 20.1127C0.467419 20.3558 0.544853 20.6055 0.71967 20.7803C0.894487 20.9551 1.14423 21.0326 1.38728 20.9873L5.62016 20.1992C7.14536 21.0289 8.89369 21.5 10.75 21.5C16.6871 21.5 21.5 16.6871 21.5 10.75C21.5 4.81294 16.6871 0 10.75 0ZM11.5 7.75C11.5 7.33579 11.1642 7 10.75 7C10.3358 7 10 7.33579 10 7.75V10H7.75C7.33579 10 7 10.3358 7 10.75C7 11.1642 7.33579 11.5 7.75 11.5H10V13.75C10 14.1642 10.3358 14.5 10.75 14.5C11.1642 14.5 11.5 14.1642 11.5 13.75V11.5H13.75C14.1642 11.5 14.5 11.1642 14.5 10.75C14.5 10.3358 14.1642 10 13.75 10H11.5V7.75Z" fill="#292927"/>
</g>
</svg>
