<svg preserveAspectRatio="xMidYMid meet" overflow="visible" style="display: block;" viewBox="0 0 24 24" fill="none" xmlns="http://www.w3.org/2000/svg">
<g transform="translate(3.0099, 1.5000)">
<path id="Vector" fill-rule="evenodd" clip-rule="evenodd" d="M13.4898 0.626714L13.3853 0L12.75 1.82986e-05C11.023 6.80685e-05 9.88035 0.804417 9.1687 1.81928C8.48298 2.79717 8.20626 3.95032 8.09024 4.72065C8.08182 4.77652 8.07702 4.83199 8.07569 4.88682C7.4434 4.67695 6.64576 4.5 5.75 4.5C3.33579 4.5 0 6.83579 0 11.25C0 13.895 0.792067 16.2878 1.93477 18.0354C3.04884 19.7393 4.62103 21 6.25 21C7.15868 21 7.64985 20.7744 8.06716 20.5796L8.07983 20.5737C8.4065 20.4212 8.66621 20.3 9.25 20.3C9.83378 20.3 10.0935 20.4212 10.4201 20.5737L10.4328 20.5796C10.8501 20.7744 11.3413 21 12.2499 21C13.3948 21 14.5056 20.3718 15.4263 19.4516C16.3591 18.5194 17.1702 17.219 17.7238 15.6981L17.9802 14.9937L17.2759 14.7369C14.6001 13.7616 13.6419 10.005 16.7116 7.60776L17.338 7.11857L16.8133 6.52157C15.6544 5.20279 14.0774 4.5 12.7499 4.5C12.4424 4.5 12.1464 4.52086 11.8647 4.55675C12.0269 4.40321 12.1849 4.2408 12.3349 4.06983C13.0938 3.2048 13.7232 2.02716 13.4898 0.626714ZM11.2074 3.0806C10.7564 3.59461 10.1932 4.03091 9.68485 4.36578C9.81636 3.80935 10.036 3.1951 10.3968 2.68049C10.7557 2.16872 11.2572 1.7459 12.006 1.57792C11.9134 2.10009 11.6275 2.60166 11.2074 3.0806ZM1.5 11.25C1.5 7.66421 4.16421 6 5.75 6C6.53729 6 7.24246 6.17553 7.78707 6.37456C8.71514 6.71374 9.78486 6.71373 10.7129 6.37455C11.2575 6.17552 11.9627 6 12.7499 6C13.4346 6 14.3431 6.31325 15.1483 6.98625C12.2046 9.88469 12.9915 14.1856 16.0555 15.8302C15.5913 16.8859 14.997 17.76 14.3659 18.3907C13.5983 19.1578 12.8465 19.5 12.2499 19.5C11.6662 19.5 11.4065 19.3788 11.0798 19.2263L11.0671 19.2204C10.6498 19.0256 10.1587 18.8 9.25 18.8C8.34131 18.8 7.85015 19.0256 7.43284 19.2204L7.42017 19.2263C7.0935 19.3788 6.83379 19.5 6.25 19.5C5.37897 19.5 4.20116 18.7607 3.19023 17.2146C2.20793 15.7122 1.5 13.605 1.5 11.25Z" fill="#292927"/>
</g>
</svg>
