<svg preserveAspectRatio="xMidYMid meet" overflow="visible" style="display: block;" viewBox="0 0 24 24" fill="none" xmlns="http://www.w3.org/2000/svg">
<g transform="translate(2.2500, 5.2500)">
<path id="Vector" fill-rule="evenodd" clip-rule="evenodd" d="M0.75 0C0.335786 0 0 0.335786 0 0.75C0 1.16421 0.335786 1.5 0.75 1.5H18.75C19.1642 1.5 19.5 1.16421 19.5 0.75C19.5 0.335786 19.1642 0 18.75 0H0.75ZM4.75 4C4.33579 4 4 4.33579 4 4.75C4 5.16421 4.33579 5.5 4.75 5.5L18.75 5.5C19.1642 5.5 19.5 5.16421 19.5 4.75C19.5 4.33578 19.1642 4 18.75 4L4.75 4ZM4 12.75C4 12.3358 4.33579 12 4.75 12L18.75 12C19.1642 12 19.5 12.3358 19.5 12.75C19.5 13.1642 19.1642 13.5 18.75 13.5L4.75 13.5C4.33579 13.5 4 13.1642 4 12.75ZM0.75 8C0.335786 8 0 8.33579 0 8.75C0 9.16421 0.335786 9.5 0.75 9.5H18.75C19.1642 9.5 19.5 9.16421 19.5 8.75C19.5 8.33579 19.1642 8 18.75 8H0.75Z" fill="#292927"/>
</g>
</svg>
