<svg preserveAspectRatio="xMidYMid meet" overflow="visible" style="display: block;" viewBox="0 0 24 24" fill="none" xmlns="http://www.w3.org/2000/svg">
<g transform="translate(1.2500, 4.2500)">
<path id="Vector" fill-rule="evenodd" clip-rule="evenodd" d="M0 2.75C0 1.23122 1.23122 0 2.75 0H18.75C20.2688 0 21.5 1.23122 21.5 2.75V12.75C21.5 14.2688 20.2688 15.5 18.75 15.5H2.75C1.23122 15.5 0 14.2688 0 12.75V2.75ZM2.75 1.5C2.05964 1.5 1.5 2.05964 1.5 2.75V12.75C1.5 13.4404 2.05964 14 2.75 14H18.75C19.4404 14 20 13.4404 20 12.75V5.5H4.75C4.33579 5.5 4 5.16421 4 4.75C4 4.33579 4.33579 4 4.75 4H20V2.75C20 2.05964 19.4404 1.5 18.75 1.5H2.75Z" fill="#292927"/>
</g>
</svg>
