<svg preserveAspectRatio="xMidYMid meet" overflow="visible" style="display: block;" viewBox="0 0 24 24" fill="none" xmlns="http://www.w3.org/2000/svg">
<g transform="translate(0.7754, 0.7106)">
<path id="Vector" fill-rule="evenodd" clip-rule="evenodd" d="M8.93718 1.63373L8.92803 1.62473L7.52297 0.21967C7.23008 -0.0732233 6.7552 -0.0732233 6.46231 0.21967C6.16942 0.512563 6.16942 0.987437 6.46231 1.28033L7.34612 2.16414L0.805456 8.7048C-0.268485 9.77874 -0.268486 11.5199 0.805456 12.5939L6.46231 18.2507C7.53625 19.3247 9.27746 19.3247 10.3514 18.2507L17.4225 11.1797C17.7154 10.8868 17.7154 10.4119 17.4225 10.119L8.93718 1.63373ZM8.40685 3.22472L1.86612 9.76546C1.37796 10.2536 1.37796 11.0451 1.86612 11.5332L7.52297 17.1901C8.01113 17.6782 8.80258 17.6782 9.29074 17.1901L15.8315 10.6493L8.40685 3.22472ZM18.6988 13.9423L19.2286 13.4113L19.2321 13.4149L19.2399 13.4227L19.2678 13.451C19.2917 13.4753 19.3259 13.5105 19.3691 13.5555C19.4553 13.6454 19.5773 13.7749 19.7232 13.9358C20.0142 14.2567 20.404 14.707 20.7956 15.2212C21.1852 15.7329 21.5884 16.3232 21.8972 16.9235C22.1985 17.5093 22.4491 18.1784 22.4492 18.8286C22.4496 20.8987 20.7691 22.5788 18.6995 22.5788C16.6247 22.5788 14.9647 20.8948 14.9498 18.8342L14.9498 18.8249C14.9531 18.1762 15.2042 17.5083 15.5057 16.9228C15.8146 16.323 16.217 15.733 16.6059 15.2214C16.9966 14.7073 17.3852 14.2573 17.6753 13.9364C17.8207 13.7756 17.9423 13.6462 18.0282 13.5563C18.0712 13.5113 18.1054 13.4762 18.1292 13.4518L18.157 13.4235L18.1647 13.4157L18.1682 13.4122L18.6988 13.9423ZM18.1682 13.4122C18.1683 13.4121 18.1682 13.4122 18.6988 13.9423C19.2286 13.4113 19.2285 13.4112 19.2286 13.4113C18.9355 13.1189 18.4608 13.1193 18.1682 13.4122ZM19.6022 16.13C19.2811 15.7083 18.9586 15.3302 18.6997 15.0407C18.4416 15.3301 18.1202 15.7078 17.8001 16.1291C17.4403 16.6024 17.0936 17.1156 16.8393 17.6096C16.5788 18.1154 16.4525 18.5303 16.4498 18.8283C16.4614 20.0767 17.4648 21.0788 18.6995 21.0788C19.9408 21.0788 20.9494 20.0702 20.9492 18.8289C20.9491 18.5326 20.8246 18.1176 20.5633 17.6097C20.3095 17.1162 19.9626 16.6032 19.6022 16.13Z" fill="#292927"/>
</g>
</svg>
