<svg preserveAspectRatio="xMidYMid meet" overflow="visible" style="display: block;" viewBox="0 0 24 24" fill="none" xmlns="http://www.w3.org/2000/svg">
<g transform="translate(1.2500, 2.2500)">
<path id="Vector" fill-rule="evenodd" clip-rule="evenodd" d="M8.5 1.5V5H13V1.5H8.5ZM14.5 5V1.35C14.5 0.604416 13.8956 0 13.15 0H8.35C7.60442 0 7 0.604416 7 1.35V5H2.75C1.23122 5 0 6.23122 0 7.75V16.75C0 18.2688 1.23122 19.5 2.75 19.5H18.75C20.2688 19.5 21.5 18.2688 21.5 16.75V7.75C21.5 6.23122 20.2688 5 18.75 5H14.5ZM13 6.5V11.75C13 12.1642 13.3358 12.5 13.75 12.5C14.1642 12.5 14.5 12.1642 14.5 11.75V6.5H18.75C19.4404 6.5 20 7.05964 20 7.75V16.75C20 17.4404 19.4404 18 18.75 18H2.75C2.05964 18 1.5 17.4404 1.5 16.75V7.75C1.5 7.05964 2.05964 6.5 2.75 6.5H7V11.75C7 12.1642 7.33579 12.5 7.75 12.5C8.16421 12.5 8.5 12.1642 8.5 11.75V6.5H13Z" fill="#292927"/>
</g>
</svg>
