<svg preserveAspectRatio="xMidYMid meet" overflow="visible" style="display: block;" viewBox="0 0 24 24" fill="none" xmlns="http://www.w3.org/2000/svg">
<g transform="translate(0.2539, 1.2500)">
<path id="Vector" fill-rule="evenodd" clip-rule="evenodd" d="M7.75 0C5.67893 0 4 1.67893 4 3.75V9.75C4 11.8211 5.67893 13.5 7.75 13.5C9.82107 13.5 11.5 11.8211 11.5 9.75V3.75C11.5 1.67893 9.82107 0 7.75 0ZM5.5 3.75C5.5 2.50736 6.50736 1.5 7.75 1.5C8.99264 1.5 10 2.50736 10 3.75V9.75C10 10.9926 8.99264 12 7.75 12C6.50736 12 5.5 10.9926 5.5 9.75V3.75ZM16.7422 17C16.328 17 15.9922 17.3358 15.9922 17.75C15.9922 18.1642 16.328 18.5 16.7422 18.5H22.7422C23.1564 18.5 23.4922 18.1642 23.4922 17.75C23.4922 17.3358 23.1564 17 22.7422 17H16.7422ZM0.75 8C1.16421 8 1.5 8.33579 1.5 8.75V9.75C1.5 13.2018 4.29822 16 7.75 16C11.2018 16 14 13.2018 14 9.75V8.75C14 8.33579 14.3358 8 14.75 8C15.1642 8 15.5 8.33579 15.5 8.75V9.75C15.5 13.7772 12.4283 17.087 8.5 17.4642V20H10.75C11.1642 20 11.5 20.3358 11.5 20.75C11.5 21.1642 11.1642 21.5 10.75 21.5H4.75C4.33579 21.5 4 21.1642 4 20.75C4 20.3358 4.33579 20 4.75 20H7V17.4642C3.0717 17.087 0 13.7772 0 9.75V8.75C0 8.33579 0.335786 8 0.75 8Z" fill="#292927"/>
</g>
</svg>
