<svg preserveAspectRatio="xMidYMid meet" overflow="visible" style="display: block;" viewBox="0 0 24 24" fill="none" xmlns="http://www.w3.org/2000/svg">
<g transform="translate(2.2500, 2.2500)">
<path id="Vector" fill-rule="evenodd" clip-rule="evenodd" d="M6.41919 0.112494C6.63986 0.249247 6.77411 0.490393 6.77411 0.750001C6.77411 4.88921 7.80028 7.84546 9.72741 9.77259C11.6545 11.6997 14.6108 12.7259 18.75 12.7259C19.0096 12.7259 19.2508 12.8601 19.3875 13.0808C19.5243 13.3015 19.5372 13.5772 19.4216 13.8097C17.7464 17.1807 14.2664 19.5 10.2434 19.5C4.58613 19.5 0 14.9139 0 9.2566C0 5.23357 2.3193 1.75363 5.69034 0.0783651C5.92282 -0.0371689 6.19852 -0.0242594 6.41919 0.112494ZM5.30715 2.03875C3.00722 3.61473 1.5 6.26018 1.5 9.2566C1.5 14.0854 5.41456 18 10.2434 18C13.2398 18 15.8853 16.4928 17.4612 14.1929C13.7083 13.9955 10.7436 12.9101 8.66675 10.8333C6.58989 8.75638 5.50451 5.7917 5.30715 2.03875Z" fill="#292927"/>
</g>
</svg>
