<svg preserveAspectRatio="xMidYMid meet" overflow="visible" style="display: block;" viewBox="0 0 24 24" fill="none" xmlns="http://www.w3.org/2000/svg">
<g transform="translate(3.7500, 1.2500)">
<path id="Vector" fill-rule="evenodd" clip-rule="evenodd" d="M13.5 0.75C13.5 1.16421 13.1642 1.5 12.75 1.5H8.75C8.33579 1.5 8 1.16421 8 0.75C8 0.335786 8.33579 0 8.75 0H12.75C13.1642 0 13.5 0.335786 13.5 0.75ZM15.75 15.5C16.1642 15.5 16.5 15.1642 16.5 14.75C16.5 14.3358 16.1642 14 15.75 14H7.42499C7.12672 12.5307 5.96935 11.3733 4.5 11.075V9.75C4.5 8.43494 4.92542 7.68923 5.56093 7.2353C6.12196 6.83456 6.93371 6.59746 8 6.5244V10.15C8 10.8956 8.60442 11.5 9.35 11.5H12.15C12.8956 11.5 13.5 10.8956 13.5 10.15V3.35C13.5 2.60442 12.8956 2 12.15 2H9.35C8.60442 2 8 2.60442 8 3.35V5.02132C6.73388 5.09628 5.57996 5.37835 4.68907 6.0147C3.57458 6.81077 3 8.06506 3 9.75V11.075C1.28832 11.4225 0 12.9358 0 14.75C0 16.5642 1.28832 18.0775 3 18.425V20H1.75C1.33579 20 1 20.3358 1 20.75C1 21.1642 1.33579 21.5 1.75 21.5H15.75C16.1642 21.5 16.5 21.1642 16.5 20.75C16.5 20.3358 16.1642 20 15.75 20H4.5V18.425C5.96935 18.1267 7.12672 16.9693 7.42499 15.5H15.75ZM3.75 17C4.99264 17 6 15.9926 6 14.75C6 13.5074 4.99264 12.5 3.75 12.5C2.50736 12.5 1.5 13.5074 1.5 14.75C1.5 15.9926 2.50736 17 3.75 17ZM12 10V3.5H9.5V5.75V10H12Z" fill="#292927"/>
</g>
</svg>
