<svg preserveAspectRatio="xMidYMid meet" overflow="visible" style="display: block;" viewBox="0 0 24 24" fill="none" xmlns="http://www.w3.org/2000/svg">
<g transform="translate(2.7500, 2.7500)">
<path id="Vector" fill-rule="evenodd" clip-rule="evenodd" d="M0.75 15.5C0.335787 15.5 0 15.1642 0 14.75V1.35C0 0.604415 0.604417 0 1.35 0H14.75C15.1642 0 15.5 0.335787 15.5 0.75C15.5 1.16421 15.1642 1.5 14.75 1.5H1.5V14.75C1.5 15.1642 1.16421 15.5 0.75 15.5ZM17 17V4.5H4.5V17H17ZM18.5 17.15C18.5 17.8956 17.8956 18.5 17.15 18.5H4.35C3.60441 18.5 3 17.8956 3 17.15V4.35C3 3.60441 3.60442 3 4.35 3H17.15C17.8956 3 18.5 3.60442 18.5 4.35V17.15ZM9.5 12.4257V9.07502L12.2923 10.7504L9.5 12.4257ZM10.0446 7.65248C9.14476 7.11259 8 7.76074 8 8.81009V12.6907C8 13.74 9.14476 14.3882 10.0446 13.8483L13.2784 11.908C14.1523 11.3836 14.1523 10.1171 13.2784 9.59276L10.0446 7.65248Z" fill="#292927"/>
</g>
</svg>
