<svg preserveAspectRatio="xMidYMid meet" overflow="visible" style="display: block;" viewBox="0 0 24 24" fill="none" xmlns="http://www.w3.org/2000/svg">
<g transform="translate(0.3428, 1.7237)">
<path id="Vector" fill-rule="evenodd" clip-rule="evenodd" d="M0.180866 10.9513C-0.0602887 10.5336 -0.0602884 10.019 0.180866 9.60128L5.33446 0.674999C5.57561 0.257309 6.02128 0 6.50359 0H16.8108C17.2931 0 17.7387 0.257309 17.9799 0.674999L23.1335 9.60128C23.3746 10.019 23.3746 10.5336 23.1335 10.9513L17.9799 19.8776C17.7387 20.2952 17.2931 20.5526 16.8108 20.5526H6.50359C6.02128 20.5526 5.57561 20.2952 5.33446 19.8776L0.180866 10.9513ZM6.59019 19.0526H16.7242L21.7912 10.2763L16.7242 1.5H6.59019L1.5232 10.2763L6.59019 19.0526ZM11.6575 5.52619C12.0717 5.52619 12.4075 5.86198 12.4075 6.27619V10.2762C12.4075 10.6904 12.0717 11.0262 11.6575 11.0262C11.2433 11.0262 10.9075 10.6904 10.9075 10.2762V6.27619C10.9075 5.86198 11.2433 5.52619 11.6575 5.52619ZM12.2249 14.7769C12.502 14.4691 12.4771 13.9948 12.1692 13.7178C11.8613 13.4407 11.3871 13.4656 11.11 13.7735L11.1 13.7846C10.8229 14.0925 10.8479 14.5667 11.1558 14.8438C11.4636 15.1209 11.9379 15.0959 12.2149 14.7881L12.2249 14.7769Z" fill="#292927"/>
</g>
</svg>
