<svg preserveAspectRatio="xMidYMid meet" overflow="visible" style="display: block;" viewBox="0 0 24 24" fill="none" xmlns="http://www.w3.org/2000/svg">
<g transform="translate(1.2500, 1.2500)">
<path id="Vector" fill-rule="evenodd" clip-rule="evenodd" d="M9.73098 0C9.39028 0 9.09238 0.229642 9.00567 0.559124L8.4677 2.60337L6.59921 3.39101L5.24844 2.18959C4.95166 1.92562 4.50053 1.93881 4.21967 2.21967L2.21967 4.21967C1.94791 4.49143 1.92556 4.92464 2.1679 5.22293L3.34144 6.66735L2.57402 8.55418L0.579552 9.01962C0.240123 9.09884 0 9.40145 0 9.75V11.75C0 12.0881 0.226272 12.3845 0.552475 12.4735L2.6017 13.033L3.39057 14.9044L2.19016 16.2509C1.92563 16.5476 1.93858 16.9992 2.21967 17.2803L4.21967 19.2803C4.49173 19.5524 4.92554 19.5745 5.2238 19.3314L6.6688 18.1538L8.51234 18.9122L9.02283 20.9336C9.10693 21.2667 9.40652 21.5 9.75 21.5H11.75C12.0933 21.5 12.3928 21.2669 12.477 20.9341L12.9892 18.9121L14.8869 18.1262C15.0807 18.2861 15.3187 18.4899 15.5508 18.6919C15.739 18.8557 15.9139 19.0101 16.0418 19.1235C16.1057 19.1802 16.1577 19.2266 16.1937 19.2587L16.2493 19.3084C16.5458 19.5743 16.9986 19.562 17.2803 19.2803L19.2803 17.2803C19.5563 17.0043 19.5745 16.5627 19.3221 16.265L18.1339 14.8635L18.914 12.9799L20.9387 12.453C21.2692 12.367 21.4999 12.0687 21.4999 11.7272L21.5 9.75005C21.5 9.40701 21.2673 9.10767 20.9348 9.02313L18.9215 8.51116L18.1425 6.63007L19.3227 5.23425C19.5745 4.93646 19.5561 4.49542 19.2803 4.21967L17.2803 2.21967C17.0035 1.94285 16.5604 1.92551 16.2627 2.17984L14.876 3.36496L12.9383 2.5681L12.4107 0.559469C12.3241 0.229818 12.0262 0 11.6853 0H9.73098ZM9.82439 3.342L10.3091 1.5H11.1069L11.5824 3.31027C11.6421 3.5377 11.805 3.72394 12.0225 3.81337L14.7295 4.92659C14.9897 5.03363 15.288 4.98595 15.502 4.80312L16.71 3.77071L17.7319 4.79253L16.702 6.01055C16.5208 6.22487 16.4744 6.52244 16.5818 6.78175L17.6794 9.43235C17.7699 9.65091 17.9583 9.81396 18.1875 9.87226L20 10.3331L19.9999 11.1474L18.175 11.6222C17.9475 11.6814 17.7609 11.8439 17.6709 12.0611L16.573 14.7125C16.4655 14.9721 16.5121 15.2701 16.6938 15.4844L17.7312 16.7081L16.7188 17.7205C16.6601 17.669 16.5986 17.6153 16.5356 17.5605C16.1634 17.2365 15.6976 16.8386 15.4413 16.6554C15.2307 16.5049 14.9573 16.4736 14.7182 16.5726L12.0676 17.6703C11.8488 17.7609 11.6856 17.9495 11.6275 18.179L11.1663 20H10.3341L9.87418 18.1787C9.816 17.9483 9.6521 17.7591 9.43236 17.6687L6.82651 16.5967C6.57203 16.492 6.28067 16.5351 6.06736 16.7089L4.80132 17.7407L3.78111 16.7204L4.82559 15.5488C5.0182 15.3328 5.06929 15.0251 4.95686 14.7584L3.84222 12.1142C3.75277 11.902 3.57079 11.7426 3.34864 11.682L1.5 11.1773V10.3451L3.29295 9.9267C3.53003 9.87137 3.72551 9.70441 3.81724 9.47889L4.8981 6.82141C5.00121 6.56789 4.95804 6.27833 4.78546 6.06592L3.75862 4.80204L4.78013 3.78053L5.95597 4.82637C6.17202 5.01853 6.4793 5.06938 6.74574 4.95707L9.39041 3.84223C9.60484 3.75184 9.76516 3.56704 9.82439 3.342ZM8.5 10.75C8.5 9.50736 9.50736 8.5 10.75 8.5C11.9926 8.5 13 9.50736 13 10.75C13 11.9926 11.9926 13 10.75 13C9.50736 13 8.5 11.9926 8.5 10.75ZM10.75 7C8.67893 7 7 8.67893 7 10.75C7 12.8211 8.67893 14.5 10.75 14.5C12.8211 14.5 14.5 12.8211 14.5 10.75C14.5 8.67893 12.8211 7 10.75 7Z" fill="#292927"/>
</g>
</svg>
