<svg preserveAspectRatio="xMidYMid meet" overflow="visible" style="display: block;" viewBox="0 0 24 24" fill="none" xmlns="http://www.w3.org/2000/svg">
<g transform="translate(1.2482, 1.2482)">
<path id="Vector" fill-rule="evenodd" clip-rule="evenodd" d="M18.7625 6.1268C17.5417 4.01233 15.6122 2.56218 13.4472 1.90319C13.6914 6.16377 15.8247 9.87818 19.7773 12.7774C20.2687 10.5908 19.9714 8.22071 18.7625 6.1268ZM6.1268 2.74106C7.95322 1.68657 9.98978 1.32574 11.9314 1.57683C12.09 6.66798 14.6532 11.0286 19.3021 14.282C18.5515 16.1039 17.2152 17.7011 15.3768 18.7625C13.5383 19.824 11.4868 20.1826 9.53362 19.9217C9.04051 14.2689 6.54584 9.8689 2.21619 7.18599C2.96956 5.3789 4.30034 3.79557 6.1268 2.74106ZM0.585746 7.25646C0.583003 7.26407 0.58039 7.27171 0.577908 7.27937C-0.387668 10.1122 -0.171966 13.3313 1.44202 16.1268C3.05456 18.9198 5.73118 20.7154 8.66416 21.2973C8.67754 21.3003 8.69104 21.303 8.70467 21.3052C11.1595 21.7825 13.791 21.4101 16.1268 20.0616C18.4626 18.713 20.1008 16.6202 20.9149 14.2557C20.9197 14.2429 20.9241 14.2301 20.9281 14.2171C21.8909 11.386 21.6742 8.16997 20.0616 5.3768C17.093 0.235145 10.5184 -1.52651 5.3768 1.44202C3.0382 2.79221 1.39883 4.8884 0.585746 7.25646ZM7.993 19.5809C5.85378 18.913 3.94993 17.4706 2.74106 15.3768C1.52029 13.2624 1.22919 10.8663 1.74094 8.66192C5.30847 11.0036 7.45849 14.7083 7.993 19.5809Z" fill="#292927"/>
</g>
</svg>
