<svg preserveAspectRatio="xMidYMid meet" overflow="visible" style="display: block;" viewBox="0 0 24 24" fill="none" xmlns="http://www.w3.org/2000/svg">
<g transform="translate(2.2500, 2.2500)">
<path id="Vector" fill-rule="evenodd" clip-rule="evenodd" d="M11.5 16.75C11.5 17.1642 11.1642 17.5 10.75 17.5H2.75C1.23122 17.5 0 16.2688 0 14.75V2.75C0 1.23122 1.23122 0 2.75 0H8.74997H14.75C16.2687 0 17.4999 1.23121 17.5 2.74999L17.5 8.75C17.5 9.16421 17.1642 9.5 16.75 9.5C16.3358 9.5 16 9.16422 16 8.75L16 2.75C16 2.05964 15.4403 1.5 14.75 1.5H9.49997V5.75C9.49997 6.16421 9.16419 6.5 8.74997 6.5C8.33576 6.5 7.99997 6.16421 7.99997 5.75V1.5H2.75C2.05964 1.5 1.5 2.05964 1.5 2.75V14.75C1.5 15.4404 2.05964 16 2.75 16H10.75C11.1642 16 11.5 16.3358 11.5 16.75ZM16.25 11C15.3231 11 14.6805 11.4245 14.2981 11.9821C13.943 12.5 13.8333 13.0955 13.8333 13.5V14.6024C13.3441 14.8052 13 15.2874 13 15.85V18.15C13 18.8956 13.6044 19.5 14.35 19.5H18.15C18.8956 19.5 19.5 18.8956 19.5 18.15V15.85C19.5 15.2874 19.1559 14.8052 18.6666 14.6024V13.5C18.6666 13.0955 18.557 12.5 18.2019 11.9821C17.8195 11.4245 17.1769 11 16.25 11ZM17.1666 13.5V14.5H15.3333V13.5C15.3333 13.3212 15.3903 13.0417 15.5352 12.8304C15.6528 12.6589 15.8435 12.5 16.25 12.5C16.6564 12.5 16.8471 12.6589 16.9648 12.8304C17.1097 13.0417 17.1666 13.3212 17.1666 13.5ZM14.5 18V16H18V18H14.5Z" fill="#292927"/>
</g>
</svg>
