<svg preserveAspectRatio="xMidYMid meet" overflow="visible" style="display: block;" viewBox="0 0 24 24" fill="none" xmlns="http://www.w3.org/2000/svg">
<g transform="translate(3.0220, 4.9643)">
<path id="Vector" fill-rule="evenodd" clip-rule="evenodd" d="M17.2061 0C17.6203 0 17.9561 0.335786 17.9561 0.75V9.32135V9.32135C17.9561 11.686 16.0682 14.0714 13.2061 14.0714H8.57159C7.81109 14.0714 7.08593 13.7565 6.5663 13.2023L0.624349 6.86418C-0.187296 5.99843 -0.210297 4.65833 0.571163 3.76523C1.43585 2.77701 2.9496 2.70812 3.90047 3.61372L5.72331 5.34975C6.02325 5.63542 6.03483 6.11015 5.74917 6.4101C5.4635 6.71005 4.98877 6.72163 4.68882 6.43596L2.86599 4.69993C2.53298 4.38278 2.00285 4.4069 1.70003 4.75299C1.42635 5.06576 1.43441 5.53508 1.71865 5.83827L7.66061 12.1764C7.89717 12.4287 8.22646 12.5714 8.57159 12.5714H13.2061C15.144 12.5714 16.4561 10.9568 16.4561 9.32143V9.32143V0.75C16.4561 0.335786 16.7919 0 17.2061 0Z" fill="#292927"/>
</g>
</svg>
