<svg preserveAspectRatio="xMidYMid meet" overflow="visible" style="display: block;" viewBox="0 0 24 24" fill="none" xmlns="http://www.w3.org/2000/svg">
<g transform="translate(7.2500, 1.2500)">
<path id="Vector" fill-rule="evenodd" clip-rule="evenodd" d="M1.5 1.5V20H8V16.5H5.75C5.33579 16.5 5 16.1642 5 15.75C5 15.3358 5.33579 15 5.75 15H8V11.5H5.75C5.33579 11.5 5 11.1642 5 10.75C5 10.3358 5.33579 10 5.75 10H8V6.5H5.75C5.33579 6.5 5 6.16421 5 5.75C5 5.33579 5.33579 5 5.75 5H8V1.5H1.5ZM0 1.35C0 0.604416 0.604415 0 1.35 0H8.15C8.89558 0 9.5 0.604416 9.5 1.35V20.15C9.5 20.8956 8.89558 21.5 8.15 21.5H1.35C0.604415 21.5 0 20.8956 0 20.15V1.35Z" fill="#292927"/>
</g>
</svg>
